<svg xmlns="http://www.w3.org/2000/svg" viewBox="0 0 685.99 685.99"><defs><style>.cls-1{fill:#fff;}.cls-2{fill:#4dbdeb;}.cls-3{fill:#ffd262;}.cls-4{fill:#00405c;}.cls-5{fill:#0075a8;}.cls-6{fill:#ff9f70;}.cls-7{fill:#f0f7f7;}.cls-8{fill:#ffbd8e;}.cls-9{fill:#e18152;}.cls-10{fill:#e4b34f;}</style></defs><g id="Layer_2" data-name="Layer 2"><g id="Layer_1-2" data-name="Layer 1"><path class="cls-1" d="M343,676A333,333,0,0,1,107.53,107.53,333,333,0,0,1,578.46,578.46,330.85,330.85,0,0,1,343,676Z"/><path class="cls-2" d="M343,20c178.39,0,323,144.61,323,323S521.38,666,343,666,20,521.38,20,343,164.61,20,343,20m0-20A343.08,343.08,0,0,0,209.48,659,343.08,343.08,0,0,0,476.51,27,340.89,340.89,0,0,0,343,0Z"/><path class="cls-3" d="M318.79,51.59h44.72l-17.28,58.12h35.41l-55.7,108.21,9.5-79H304.35Z"/><path class="cls-4" d="M325.94,221.92a4,4,0,0,1-1.17-.18,4,4,0,0,1-2.8-4.3l9-74.49H304.35a4,4,0,0,1-4-4.65l14.44-87.36a4,4,0,0,1,4-3.35h44.72a4,4,0,0,1,3.83,5.14l-15.74,53h30a4,4,0,0,1,3.56,5.83L329.5,219.75a4,4,0,0,1-3.56,2.17Zm-16.88-87h26.38a4,4,0,0,1,4,4.48l-6.84,56.87,42.52-82.59H346.23a4,4,0,0,1-3.83-5.14l15.75-53h-36Z"/><path class="cls-3" d="M398.11,104.56h27l-10.43,35.08H436L402.42,205l5.74-47.66H389.39Z"/><path class="cls-4" d="M402.42,209a4,4,0,0,1-4-4.48l5.2-43.18H389.39a4,4,0,0,1-3.94-4.65l8.71-52.73a4,4,0,0,1,3.95-3.35h27a4,4,0,0,1,3.83,5.14L420,135.64h16a4,4,0,0,1,3.55,5.83L406,206.78a4,4,0,0,1-3.56,2.17Zm-8.31-55.66h14.05a4,4,0,0,1,4,4.48l-3.08,25.56,20.43-39.7H414.67a4,4,0,0,1-3.83-5.14l8.9-29.93H401.5Z"/><path class="cls-3" d="M258.66,64.56h27L275.23,99.64H296.6L263,165l5.73-47.66H250Z"/><path class="cls-4" d="M263,169a4,4,0,0,1-1.17-.18,4,4,0,0,1-2.8-4.3l5.2-43.18H250a4,4,0,0,1-3.94-4.65l8.71-52.73a4,4,0,0,1,4-3.35h27a4,4,0,0,1,3.83,5.14l-8.9,29.94h16a4,4,0,0,1,3.56,5.83l-33.62,65.31A4,4,0,0,1,263,169Zm-8.32-55.66h14a4,4,0,0,1,4,4.48l-3.07,25.56L290,103.63H275.23a4,4,0,0,1-3.83-5.14l8.89-29.93H262.06Z"/><path class="cls-3" d="M463.05,281.38a61.1,61.1,0,0,0-61.1,61.1v28h122.2v-28a61.11,61.11,0,0,0-61.1-61.1Z"/><path class="cls-4" d="M524.15,374.53H401.94a4,4,0,0,1-4-4v-28a65.11,65.11,0,0,1,130.21,0v28A4,4,0,0,1,524.15,374.53Zm-118.2-8h114.2v-24a57.1,57.1,0,1,0-114.2,0Z"/><path class="cls-5" d="M439,448.63v-48h51.13v48h46.17a32.53,32.53,0,0,1,32.34,32.59v66.35H360.29V481a32.45,32.45,0,0,1,32.51-32.34Z"/><path class="cls-6" d="M439,437l25.33,31.5,25.8-31.5V400.66H439Z"/><path class="cls-4" d="M536.33,448.63H525a32.53,32.53,0,0,1,32.34,32.58v66.36h11.36V481.22a32.54,32.54,0,0,0-32.34-32.59Z"/><path class="cls-2" d="M392.8,448.62h11.36A32.47,32.47,0,0,0,371.65,481v66.6H360.29V481A32.46,32.46,0,0,1,392.8,448.62Z"/><path class="cls-4" d="M400.52,550.43a4,4,0,0,1-4-4V516.87a4,4,0,0,1,8,0v29.56A4,4,0,0,1,400.52,550.43Z"/><path class="cls-4" d="M528.44,550.43a4,4,0,0,1-4-4V516.87a4,4,0,1,1,8,0v29.56A4,4,0,0,1,528.44,550.43Z"/><path class="cls-4" d="M568.67,551.57H360.29a4,4,0,0,1-4-4V481a36.47,36.47,0,0,1,36.47-36.34H435v-44a4,4,0,0,1,4-4h51.13a4,4,0,0,1,4,4v44h42.17a36.52,36.52,0,0,1,36.34,36.6v66.34A4,4,0,0,1,568.67,551.57Zm-204.38-8H564.67V481.22a28.51,28.51,0,0,0-28.34-28.59H490.16a4,4,0,0,1-4-4v-44H443v44a4,4,0,0,1-4,4H392.76A28.44,28.44,0,0,0,364.3,481v62.61Z"/><path class="cls-7" d="M490.16,437l-25.8,31.5,29,21.3,7.71-41.19Z"/><path class="cls-7" d="M439,437l25.33,31.5-28.76,21.3-7.72-41.19Z"/><path class="cls-4" d="M493.37,493.82a4,4,0,0,1-2.37-.77l-29-21.31a4,4,0,0,1-.72-5.76l25.8-31.5a4,4,0,0,1,3-1.46,4,4,0,0,1,3.05,1.26L504,445.89a4,4,0,0,1,1,3.48l-7.71,41.19a4,4,0,0,1-3.93,3.26Zm-23.25-26,20.48,15,6.18-32.94-6.41-6.81Z"/><path class="cls-4" d="M435.6,493.82a3.87,3.87,0,0,1-1.46-.28,4,4,0,0,1-2.47-3L424,449.36a4,4,0,0,1,1.05-3.5l11.15-11.62a4,4,0,0,1,6,.27L467.48,466a4,4,0,0,1-.74,5.72L438,493a4.06,4.06,0,0,1-2.38.78Zm-3.41-43.91,6.16,32.89,20.29-15-19.87-24.71Z"/><path class="cls-5" d="M446.12,482l18.24,20.28L482.72,482l-18.36-13.48Z"/><path class="cls-5" d="M446.12,547.56l18.24-45.25,18.36,45.28H464.36Z"/><path class="cls-4" d="M464.36,506.31h0a4,4,0,0,1-3-1.32L443.15,484.7a4,4,0,0,1-1-3.07,4.08,4.08,0,0,1,1.6-2.82L462,465.3a4,4,0,0,1,4.75,0l18.36,13.49a4,4,0,0,1,.6,5.9L467.33,505a4,4,0,0,1-3,1.32ZM452,482.63l12.33,13.71,12.41-13.73-12.41-9.12Z"/><path class="cls-4" d="M482.72,551.59h0l-36.6,0a4,4,0,0,1-3.71-5.49l18.24-45.25a4,4,0,0,1,3.71-2.51h0a4,4,0,0,1,3.71,2.5l18.36,45.28a4,4,0,0,1-3.71,5.5Zm-30.68-8,24.74,0L464.37,513Z"/><path class="cls-8" d="M412.25,353.56h-3.63a17,17,0,1,0,0,33.95h3.63Z"/><path class="cls-9" d="M517.47,353.56h-3.63v33.95h3.63a17,17,0,1,0,0-33.95Z"/><path class="cls-6" d="M463.05,439.85c-28.06,0-50.8-23-50.8-51.46V352.77c0-28.42,22.74-51.46,50.8-51.46s50.8,23,50.8,51.46V388.4c0,28.42-22.75,51.45-50.8,51.45Z"/><path class="cls-9" d="M463.05,301.31a50.12,50.12,0,0,0-5.78.34c25.34,2.9,45,24.68,45,51.12v35.62c0,26.45-19.69,48.22-45,51.12a50.12,50.12,0,0,0,5.78.34c28.05,0,50.8-23,50.8-51.46V352.77c0-28.42-22.75-51.46-50.8-51.46Z"/><path class="cls-8" d="M463.05,301.31a50.08,50.08,0,0,1,5.77.34c-25.34,2.9-45,24.68-45,51.12v35.62c0,26.45,19.69,48.22,45,51.12a50.08,50.08,0,0,1-5.77.34c-28.06,0-50.8-23-50.8-51.46V352.77c0-28.42,22.74-51.46,50.8-51.46Z"/><path class="cls-4" d="M463,443.85c-30.21,0-54.79-24.87-54.79-55.45V352.77c0-30.58,24.58-55.46,54.79-55.46s54.8,24.88,54.8,55.46v35.62c0,30.58-24.58,55.46-54.8,55.46Zm0-138.54c-25.8,0-46.79,21.29-46.79,47.46v35.62c0,26.17,21,47.46,46.79,47.46s46.8-21.29,46.8-47.46V352.77C509.85,326.6,488.85,305.31,463,305.31Z"/><path class="cls-4" d="M412.25,391.51h-3.63a21,21,0,1,1,0-41.95h3.63a4,4,0,0,1,4,4v33.95a4,4,0,0,1-4,4Zm-4-33.95a13,13,0,0,0,0,25.94Z"/><path class="cls-4" d="M517.47,391.51h-3.62a4,4,0,0,1-4-4V353.56a4,4,0,0,1,4-4h3.62a21,21,0,1,1,0,41.95Zm.38-33.95V383.5a13,13,0,0,0,0-25.94Z"/><path class="cls-3" d="M220.07,281.38a61.11,61.11,0,0,0-61.1,61.1v28H281.18v-28a61.11,61.11,0,0,0-61.11-61.1Z"/><path class="cls-4" d="M281.17,374.53H159a4,4,0,0,1-4-4v-28a65.1,65.1,0,0,1,130.2,0v28a4,4,0,0,1-4,4Zm-118.2-8H277.18v-24a57.1,57.1,0,1,0-114.2,0v24Z"/><path class="cls-5" d="M196.06,448.63v-48h51.13v48h46.17a32.53,32.53,0,0,1,32.34,32.59v66.35H117.32V481a32.45,32.45,0,0,1,32.51-32.34Z"/><path class="cls-6" d="M196.06,437l25.33,31.5,25.8-31.5V400.66H196.06Z"/><path class="cls-4" d="M293.36,448.63H282a32.53,32.53,0,0,1,32.34,32.58v66.36H325.7V481.22a32.54,32.54,0,0,0-32.34-32.59Z"/><path class="cls-2" d="M149.83,448.62h11.36A32.47,32.47,0,0,0,128.68,481v66.6H117.32V481A32.46,32.46,0,0,1,149.83,448.62Z"/><path class="cls-4" d="M157.55,550.43a4,4,0,0,1-4-4V516.87a4,4,0,0,1,8,0v29.56A4,4,0,0,1,157.55,550.43Z"/><path class="cls-4" d="M285.47,550.43a4,4,0,0,1-4-4V516.87a4,4,0,0,1,8,0v29.56A4,4,0,0,1,285.47,550.43Z"/><path class="cls-4" d="M325.7,551.57H117.32a4,4,0,0,1-4-4V481a36.48,36.48,0,0,1,36.47-36.34h42.27v-44a4,4,0,0,1,4-4h51.13a4,4,0,0,1,4,4v44h42.17a36.53,36.53,0,0,1,36.33,36.6v66.34a4,4,0,0,1-4,4Zm-204.38-8H321.7V481.22A28.47,28.47,0,0,0,313.4,461a28.1,28.1,0,0,0-20-8.41H247.19a4,4,0,0,1-4-4v-44H200.06v44a4,4,0,0,1-4,4H149.79A28.45,28.45,0,0,0,121.32,481Z"/><path class="cls-7" d="M247.19,437l-25.8,31.5,29,21.3,7.72-41.19Z"/><path class="cls-7" d="M196.06,437l25.33,31.5-28.76,21.3-7.72-41.19Z"/><path class="cls-4" d="M250.39,493.82a4,4,0,0,1-2.36-.77l-29-21.31a4,4,0,0,1-.73-5.76l25.81-31.5a4,4,0,0,1,6-.2L261,445.89a4,4,0,0,1,1,3.48l-7.71,41.19a4,4,0,0,1-2.47,3,3.92,3.92,0,0,1-1.47.28Zm-23.24-26,20.48,15,6.17-32.94-6.4-6.81Z"/><path class="cls-4" d="M192.63,493.82a4,4,0,0,1-1.47-.28,4,4,0,0,1-2.47-3L181,449.36a4,4,0,0,1,1.05-3.5l11.14-11.62a4.11,4.11,0,0,1,3.07-1.22,4,4,0,0,1,2.94,1.49L224.51,466a4,4,0,0,1-.74,5.72L195,493a4.06,4.06,0,0,1-2.38.78Zm-3.41-43.91,6.16,32.89,20.28-15-19.87-24.71Z"/><path class="cls-5" d="M203.15,482l18.24,20.28L239.75,482l-18.36-13.48Z"/><path class="cls-5" d="M203.15,547.56l18.24-45.25,18.36,45.28H221.39Z"/><path class="cls-4" d="M221.39,506.31h0a4,4,0,0,1-3-1.32L200.18,484.7a4,4,0,0,1-1-3.07,4,4,0,0,1,1.6-2.82L219,465.3a4,4,0,0,1,4.75,0l18.36,13.49a4,4,0,0,1,.6,5.9L224.36,505a4,4,0,0,1-3,1.32Zm-12.33-23.68,12.34,13.71,12.41-13.73-12.41-9.12Z"/><path class="cls-4" d="M239.75,551.59h0l-36.6,0a4,4,0,0,1-3.71-5.49l18.24-45.25a4,4,0,0,1,3.7-2.51h0a4,4,0,0,1,3.7,2.5l18.37,45.28a4,4,0,0,1-3.71,5.5Zm-30.68-8,24.74,0L221.4,513Z"/><path class="cls-8" d="M169.27,353.56h-3.62a17,17,0,1,0,0,33.95h3.62Z"/><path class="cls-9" d="M274.5,353.56h-3.63v33.95h3.63a17,17,0,1,0,0-33.95Z"/><path class="cls-6" d="M220.07,439.85c-28,0-50.8-23-50.8-51.46V352.77c0-28.42,22.75-51.46,50.8-51.46s50.8,23,50.8,51.46V388.4c0,28.42-22.74,51.45-50.8,51.45Z"/><path class="cls-9" d="M220.07,301.31a50.08,50.08,0,0,0-5.77.34c25.34,2.9,45,24.68,45,51.12v35.62c0,26.45-19.69,48.22-45,51.12a50.08,50.08,0,0,0,5.77.34c28.06,0,50.8-23,50.8-51.46V352.77c0-28.42-22.74-51.46-50.8-51.46Z"/><path class="cls-8" d="M220.07,301.31a50.12,50.12,0,0,1,5.78.34c-25.34,2.9-45,24.68-45,51.12v35.62c0,26.45,19.69,48.22,45,51.12a50.12,50.12,0,0,1-5.78.34c-28,0-50.8-23-50.8-51.46V352.77c0-28.42,22.75-51.46,50.8-51.46Z"/><path class="cls-4" d="M220.07,443.85c-30.21,0-54.8-24.87-54.8-55.45V352.77c0-30.58,24.59-55.46,54.8-55.46s54.8,24.88,54.8,55.46v35.62c0,30.58-24.58,55.46-54.8,55.46Zm0-138.54c-25.8,0-46.8,21.29-46.8,47.46v35.62c0,26.17,21,47.46,46.8,47.46s46.8-21.29,46.8-47.46V352.77C266.87,326.6,245.88,305.31,220.07,305.31Z"/><path class="cls-4" d="M169.27,391.51h-3.62a21,21,0,1,1,0-41.95h3.62a4,4,0,0,1,4,4v33.95a4,4,0,0,1-4,4Zm-4-33.95a13,13,0,0,0,0,25.94Z"/><path class="cls-4" d="M274.5,391.51h-3.63a4,4,0,0,1-4-4V353.56a4,4,0,0,1,4-4h3.63a21,21,0,1,1,0,41.95Zm.37-33.95V383.5a13,13,0,0,0,0-25.94Z"/><path class="cls-3" d="M271.37,345.24V274.92a37.73,37.73,0,0,1,37.73-37.73h64.32A25.83,25.83,0,0,1,399.26,263v9.37a12.11,12.11,0,0,1,12,12.11v60.73Z"/><path class="cls-10" d="M399.26,272.4V263a25.84,25.84,0,0,0-25.84-25.84h-9.05A25.84,25.84,0,0,1,390.21,263v3.39a7.48,7.48,0,0,0,4.57,6.92,12.12,12.12,0,0,1,7.44,11.18v60.73h9V284.51a12.11,12.11,0,0,0-12-12.11Z"/><path class="cls-3" d="M318.15,237.18h-9a37.73,37.73,0,0,0-37.73,37.73v70.33h9.05V274.91a37.74,37.74,0,0,1,37.73-37.73Z"/><path class="cls-4" d="M411.28,349.24H271.37a4,4,0,0,1-4-4V274.91a41.78,41.78,0,0,1,41.73-41.73h64.32A29.87,29.87,0,0,1,403.26,263v5.91a16.18,16.18,0,0,1,12,15.58v60.73a4,4,0,0,1-4,4Zm-135.91-8H407.28V284.51a8.14,8.14,0,0,0-8-8.11,4,4,0,0,1-4-4V263a21.87,21.87,0,0,0-21.84-21.84H309.1a33.77,33.77,0,0,0-33.73,33.73v66.33Z"/><path class="cls-5" d="M313.32,432.2V376.26h59.62V432.2h53.83a37.93,37.93,0,0,1,37.71,38v77.36h-243V469.89a37.83,37.83,0,0,1,37.9-37.7Z"/><path class="cls-6" d="M313.32,418.66l29.53,36.73,30.09-36.73v-42.4H313.32Z"/><path class="cls-4" d="M426.77,432.2H413.53a37.93,37.93,0,0,1,37.71,38v77.37h13.24V470.2A37.92,37.92,0,0,0,426.77,432.2Z"/><path class="cls-2" d="M259.41,432.19h13.25a37.84,37.84,0,0,0-37.9,37.71v77.66H221.51V469.9a37.84,37.84,0,0,1,37.9-37.71Z"/><path class="cls-4" d="M268.42,550.24a4,4,0,0,1-4-4V511.77a4,4,0,0,1,8,0v34.47A4,4,0,0,1,268.42,550.24Z"/><path class="cls-4" d="M417.58,550.24a4,4,0,0,1-4-4V511.77a4,4,0,0,1,8,0v34.47A4,4,0,0,1,417.58,550.24Z"/><path class="cls-4" d="M464.48,551.56h-243a4,4,0,0,1-4-4V469.89a41.84,41.84,0,0,1,41.85-41.71h.06l49.9,0V376.26a4,4,0,0,1,4-4h59.62a4,4,0,0,1,4,4V428.2h49.83a41.91,41.91,0,0,1,41.71,42v77.35a4,4,0,0,1-4,4Zm-239-8h235V470.2a33.9,33.9,0,0,0-33.71-34H372.94a4,4,0,0,1-4-4V380.26H317.32V432.2a4,4,0,0,1-4,4l-53.91,0h0a33.85,33.85,0,0,0-33.86,33.72Z"/><path class="cls-7" d="M372.94,418.66l-30.09,36.73,33.83,24.84,9-48Z"/><path class="cls-7" d="M313.32,418.66l29.53,36.73-33.53,24.84-9-48Z"/><path class="cls-4" d="M376.68,484.23a4,4,0,0,1-2.37-.77l-33.83-24.85a4,4,0,0,1-.72-5.76l30.09-36.73a4,4,0,0,1,2.95-1.46,3.83,3.83,0,0,1,3.05,1.26l12.73,13.54a4,4,0,0,1,1,3.48l-9,48a4,4,0,0,1-2.47,3,3.91,3.91,0,0,1-1.46.28Zm-28.06-29.57,25.3,18.58,7.45-39.78-8.22-8.74Z"/><path class="cls-4" d="M309.32,484.23a4,4,0,0,1-1.47-.28,4,4,0,0,1-2.47-3l-9-48a4,4,0,0,1,1-3.5l13-13.55a4.11,4.11,0,0,1,3.07-1.22,4,4,0,0,1,2.94,1.49L346,452.88a4,4,0,0,1-.73,5.72L311.7,483.45a4,4,0,0,1-2.38.78Zm-4.69-50.75,7.44,39.73,25.06-18.56-24.08-29.94Z"/><path class="cls-5" d="M321.59,471.14l21.26,23.65,21.41-23.67-21.41-15.73Z"/><path class="cls-5" d="M321.59,547.56l21.26-52.77,21.41,52.8-21.41,0Z"/><path class="cls-4" d="M342.85,498.8h0a4.05,4.05,0,0,1-3-1.33l-21.27-23.65a4,4,0,0,1-1-3.08,4,4,0,0,1,1.6-2.81l21.26-15.75a4,4,0,0,1,4.75,0l21.41,15.72a4,4,0,0,1,.6,5.91l-21.41,23.68a4,4,0,0,1-3,1.32ZM327.5,471.74l15.36,17.08,15.46-17.1-15.46-11.36Z"/><path class="cls-4" d="M364.26,551.59h0l-42.68,0a4,4,0,0,1-3.7-5.5l21.26-52.76a4,4,0,0,1,3.71-2.51h0a4,4,0,0,1,3.71,2.5L368,546.08a4,4,0,0,1-3.71,5.51Zm-36.75-8,30.81,0-15.46-38.12Z"/><path class="cls-8" d="M282.09,321.34h-4.23a19.8,19.8,0,1,0,0,39.59h4.23Z"/><path class="cls-9" d="M404.78,321.34h-4.23v39.59h4.23a19.8,19.8,0,1,0,0-39.59Z"/><path class="cls-6" d="M341.32,422c-32.71,0-59.23-26.87-59.23-60V320.42c0-33.14,26.52-60,59.23-60s59.24,26.86,59.24,60V362c0,33.14-26.52,60-59.24,60Z"/><path class="cls-9" d="M341.32,260.42a57.5,57.5,0,0,0-6.73.4c29.54,3.38,52.5,28.77,52.5,59.6V362c0,30.83-23,56.22-52.5,59.61a59.76,59.76,0,0,0,6.73.4c32.72,0,59.24-26.87,59.24-60V320.42c0-33.13-26.52-60-59.24-60Z"/><path class="cls-8" d="M341.32,260.42a57.5,57.5,0,0,1,6.73.4c-29.54,3.38-52.5,28.77-52.5,59.6V362c0,30.83,23,56.22,52.5,59.61a59.76,59.76,0,0,1-6.73.4c-32.71,0-59.23-26.87-59.23-60V320.42c0-33.13,26.52-60,59.23-60Z"/><path class="cls-4" d="M341.32,426c-34.87,0-63.23-28.71-63.23-64V320.42c0-35.29,28.36-64,63.23-64s63.24,28.71,63.24,64V362c0,35.3-28.37,64-63.24,64Zm0-161.55c-30.45,0-55.23,25.12-55.23,56V362c0,30.87,24.78,56,55.23,56s55.24-25.13,55.24-56V320.42c0-30.88-24.78-56-55.24-56Z"/><path class="cls-4" d="M282.09,364.93h-4.23a23.8,23.8,0,1,1,0-47.59h4.23a4,4,0,0,1,4,4v39.59a4,4,0,0,1-4,4Zm-4.23-39.59a15.8,15.8,0,1,0,0,31.59h.23V325.34Z"/><path class="cls-4" d="M404.79,364.93h-4.23a4,4,0,0,1-4-4V321.34a4,4,0,0,1,4-4h4.23a23.8,23.8,0,0,1,0,47.59Zm-.24-8h.23a15.8,15.8,0,1,0,0-31.59h-.23Z"/><path class="cls-4" d="M236.76,508.71a4,4,0,0,1-4-4v-24a4,4,0,0,1,8,0v24A4,4,0,0,1,236.76,508.71Z"/></g></g></svg>