<svg xmlns="http://www.w3.org/2000/svg" viewBox="0 0 685.99 685.99"><defs><style>.cls-1{fill:#fff;}.cls-2{fill:#4dbdeb;}.cls-3{opacity:0.47;}.cls-4{fill:#f0f7f7;}.cls-5{fill:#0075a8;}.cls-6{fill:#00405c;}.cls-7{fill:#ffd262;}</style></defs><g id="Layer_2" data-name="Layer 2"><g id="Layer_1-2" data-name="Layer 1"><path class="cls-1" d="M343,676A333,333,0,0,1,107.53,107.53,333,333,0,0,1,578.46,578.46,330.85,330.85,0,0,1,343,676Z"/><path class="cls-2" d="M343,20c178.39,0,323,144.61,323,323S521.38,666,343,666,20,521.38,20,343,164.61,20,343,20m0-20A343.08,343.08,0,0,0,209.48,659,343.08,343.08,0,0,0,476.51,27,340.89,340.89,0,0,0,343,0Z"/><g class="cls-3"><path class="cls-4" d="M568.6,490.73H117.39a17.34,17.34,0,0,1-17.34-17.34V195.58a17.34,17.34,0,0,1,17.34-17.34H568.6a17.34,17.34,0,0,1,17.34,17.34V473.39A17.34,17.34,0,0,1,568.6,490.73Z"/></g><g class="cls-3"><path class="cls-2" d="M568.6,178.24H549a17.34,17.34,0,0,1,17.34,17.34V473.39A17.34,17.34,0,0,1,549,490.73H568.6a17.34,17.34,0,0,0,17.34-17.34V195.58A17.34,17.34,0,0,0,568.6,178.24Z"/></g><path class="cls-1" d="M117.39,490.73H137a17.34,17.34,0,0,1-17.34-17.34V195.58A17.34,17.34,0,0,1,137,178.24H117.39a17.34,17.34,0,0,0-17.34,17.34V473.39A17.34,17.34,0,0,0,117.39,490.73Z"/><path class="cls-5" d="M501.5,555.11h-317V531.89a17.34,17.34,0,0,1,17.34-17.34H484.16a17.34,17.34,0,0,1,17.34,17.34Z"/><path class="cls-5" d="M484.16,514.55H464.57a17.34,17.34,0,0,1,17.34,17.34v23.22H501.5V531.89A17.34,17.34,0,0,0,484.16,514.55Z"/><path class="cls-5" d="M201.83,514.55h19.59a17.34,17.34,0,0,0-17.34,17.34v23.22H184.49V531.89A17.34,17.34,0,0,1,201.83,514.55Z"/><path class="cls-5" d="M249.94,490.73H436.05v23.82H249.94Z"/><path class="cls-6" d="M115.72,251.13a3.93,3.93,0,0,1-3.92-3.92V223.7a3.92,3.92,0,0,1,7.84,0v23.51A3.93,3.93,0,0,1,115.72,251.13Z"/><path class="cls-6" d="M501.5,559h-317a3.93,3.93,0,0,1-3.92-3.92V531.89a21.28,21.28,0,0,1,21.26-21.26H484.16a21.28,21.28,0,0,1,21.26,21.26v23.22A3.92,3.92,0,0,1,501.5,559Zm-313.09-7.84H497.58v-19.3a13.43,13.43,0,0,0-13.42-13.42H201.83a13.44,13.44,0,0,0-13.43,13.42v19.3Z"/><path class="cls-6" d="M436.05,518.47H249.94a3.92,3.92,0,0,1-3.92-3.92V490.73a3.92,3.92,0,0,1,3.92-3.92H436.05a3.92,3.92,0,0,1,3.92,3.92v23.82A3.92,3.92,0,0,1,436.05,518.47Zm-182.2-7.84H432.13v-16H253.85Z"/><path class="cls-6" d="M568.6,494.65H117.39a21.29,21.29,0,0,1-21.26-21.26V195.58a21.27,21.27,0,0,1,21.26-21.26H568.6a21.28,21.28,0,0,1,21.26,21.26V473.39A21.29,21.29,0,0,1,568.6,494.65ZM117.39,182.15A13.45,13.45,0,0,0,104,195.58V473.39a13.44,13.44,0,0,0,13.43,13.42H568.6A13.43,13.43,0,0,0,582,473.39V195.58a13.44,13.44,0,0,0-13.42-13.43Z"/><path class="cls-7" d="M210.44,358h28.44v28.43H210.44Z"/><path class="cls-7" d="M447.11,358h28.43v28.43H447.11Z"/><path class="cls-7" d="M343,260.12l-61,65.64L305.27,432h75.45L404,325.76Z"/><path class="cls-6" d="M380.72,435.87H305.27a3.93,3.93,0,0,1-3.83-3.08L278.13,326.6a3.89,3.89,0,0,1,1-3.51l61-65.64a4,4,0,0,1,5.74,0l61,65.64a4,4,0,0,1,1,3.51L384.54,432.79A3.91,3.91,0,0,1,380.72,435.87ZM308.42,428h69.15l22.19-101.12-56.77-61-56.77,61Z"/><circle class="cls-2" cx="192.45" cy="239.67" r="20.46"/><circle class="cls-2" cx="493.54" cy="239.67" r="20.46"/><path class="cls-6" d="M192.45,264a24.38,24.38,0,1,1,24.38-24.37A24.39,24.39,0,0,1,192.45,264Zm0-40.91A16.54,16.54,0,1,0,209,239.67,16.55,16.55,0,0,0,192.45,223.13Z"/><path class="cls-6" d="M493.54,264a24.38,24.38,0,1,1,24.37-24.37A24.4,24.4,0,0,1,493.54,264Zm0-40.91a16.54,16.54,0,1,0,16.53,16.54A16.56,16.56,0,0,0,493.54,223.13Z"/><circle class="cls-5" cx="342.93" cy="342.01" r="14.48" transform="translate(-89.94 559.26) rotate(-71.57)"/><path class="cls-6" d="M343,360.43A18.41,18.41,0,1,1,361.4,342,18.43,18.43,0,0,1,343,360.43Zm0-29A10.57,10.57,0,1,0,353.56,342,10.58,10.58,0,0,0,343,331.46Z"/><path class="cls-6" d="M461.33,361.92a3.92,3.92,0,0,1-3.92-3.92,114.42,114.42,0,0,0-228.83,0,3.92,3.92,0,0,1-7.84,0,122.25,122.25,0,0,1,244.5,0,3.92,3.92,0,0,1-3.91,3.92Z"/><path class="cls-6" d="M473.08,243.59H212.91a3.92,3.92,0,1,1,0-7.84H473.08a3.92,3.92,0,1,1,0,7.84Z"/><path class="cls-6" d="M238.88,390.35H210.44a3.91,3.91,0,0,1-3.91-3.92V358a3.92,3.92,0,0,1,3.91-3.92h28.44A3.93,3.93,0,0,1,242.8,358v28.43A3.92,3.92,0,0,1,238.88,390.35Zm-24.52-7.83H235v-20.6h-20.6Z"/><path class="cls-6" d="M475.54,390.35H447.11a3.92,3.92,0,0,1-3.92-3.92V358a3.93,3.93,0,0,1,3.92-3.92h28.44a3.92,3.92,0,0,1,3.91,3.92v28.43a3.91,3.91,0,0,1-3.92,3.92ZM451,382.52h20.6v-20.6H451Z"/><path class="cls-6" d="M343,331.46a3.92,3.92,0,0,1-3.91-3.92V260.12a3.92,3.92,0,1,1,7.83,0v67.42A3.91,3.91,0,0,1,343,331.46Z"/><path class="cls-7" d="M386.07,457.6H299.92a12.83,12.83,0,0,1,0-25.65h86.15a12.83,12.83,0,0,1,0,25.65Z"/><path class="cls-6" d="M386.07,461.52H299.92a16.74,16.74,0,0,1,0-33.48h86.15a16.74,16.74,0,1,1,0,33.48Zm-86.15-25.65a8.91,8.91,0,0,0,0,17.81h86.15a8.91,8.91,0,0,0,0-17.81Z"/></g></g></svg>