<svg xmlns="http://www.w3.org/2000/svg" viewBox="0 0 685.99 685.99"><defs><style>.cls-1{fill:#fff;}.cls-2{fill:#4dbdeb;}.cls-3{fill:#f0f7f7;}.cls-4{fill:#00405c;}.cls-5{fill:#ffd262;}.cls-6{fill:#0075a8;}</style></defs><g id="Layer_2" data-name="Layer 2"><g id="Layer_1-2" data-name="Layer 1"><path class="cls-1" d="M343,676A333,333,0,0,1,107.53,107.53,333,333,0,0,1,578.46,578.46,330.85,330.85,0,0,1,343,676Z"/><path class="cls-2" d="M343,20c178.39,0,323,144.61,323,323S521.38,666,343,666,20,521.38,20,343,164.61,20,343,20m0-20A343.08,343.08,0,0,0,209.48,659,343.08,343.08,0,0,0,476.51,27,340.89,340.89,0,0,0,343,0Z"/><path class="cls-3" d="M167.45,583.12H518.54V184.85l-82-82H167.45Z"/><path class="cls-3" d="M518.54,184.85V583.12H499.18V165.48Z"/><path class="cls-1" d="M167.45,102.87h19.36V583.12H167.45Z"/><path class="cls-4" d="M518.54,587H167.45a3.88,3.88,0,0,1-3.88-3.87V102.87A3.88,3.88,0,0,1,167.45,99H436.56a3.84,3.84,0,0,1,2.74,1.13l82,82a3.85,3.85,0,0,1,1.14,2.74V583.12A3.88,3.88,0,0,1,518.54,587Zm-347.22-7.74H514.67V186.45L435,106.74H171.32Z"/><path class="cls-4" d="M185.17,261.69a3.88,3.88,0,0,1-3.87-3.88V234.58a3.88,3.88,0,1,1,7.75,0v23.23A3.88,3.88,0,0,1,185.17,261.69Z"/><path class="cls-5" d="M436.56,102.87v82h82Z"/><path class="cls-4" d="M518.54,188.72h-82a3.88,3.88,0,0,1-3.87-3.87v-82a3.87,3.87,0,0,1,6.61-2.74l82,82a3.87,3.87,0,0,1-2.74,6.61ZM440.44,181h68.75l-68.75-68.75Z"/><path class="cls-6" d="M371.91,322.8a33,33,0,0,0-11.23-6.08,66.46,66.46,0,0,0-14.49-1.4h-21.5a12.4,12.4,0,0,0-7.95,2.34c-1.4,1.4-2.34,4.21-2.34,7.95v60.3c0,2.81,0,4.68.94,6.55a5.8,5.8,0,0,0,2.8,3.74q2.1,1.4,7,1.4h21.51a71,71,0,0,0,10.28-.93,57.52,57.52,0,0,0,8.42-2.34,26.22,26.22,0,0,0,7-4.68,41.7,41.7,0,0,0,7-8.88,39.72,39.72,0,0,0,4.2-11.22A60.09,60.09,0,0,0,385,356C385,341.5,380.79,330.28,371.91,322.8Zm-12.16,58a18.88,18.88,0,0,1-4.21,2.34,20.39,20.39,0,0,1-4.67.93H331.7v-56.1h11.22c5.14,0,9.35.47,13.09,1.87,3.74.94,6.54,3.74,8.88,7.95s3.74,10.29,3.74,18.23C368.16,368.15,365.36,376.1,359.75,380.77Z"/><path class="cls-6" d="M292.9,321.87a18.11,18.11,0,0,0-8.89-4.68c-3.27-.93-8.41-1.4-14.49-1.4H248c-3.74,0-6.55.93-8,2.34-1.87,1.4-2.34,4.2-2.34,7.94v63.58a11.9,11.9,0,0,0,2.34,7.48c1.4,1.87,3.74,2.34,6.08,2.34a8.22,8.22,0,0,0,6.07-2.8,11.86,11.86,0,0,0,2.34-7.48V365.81H270c10.28,0,17.76-2.34,22.91-6.54s7.94-10.76,7.94-19.17A27.27,27.27,0,0,0,299,329.35C297.1,326.54,295.23,323.74,292.9,321.87Zm-11.22,26.18a11.89,11.89,0,0,1-6.08,4.2,31,31,0,0,1-9.82,1.41H254.56V328.41h11.22c7.48,0,12.16,1.4,15,3.74,2.34,2.34,3.27,5.14,3.27,8.88C283.55,343.84,283.08,346.18,281.68,348.05Z"/><path class="cls-6" d="M409.77,314.85c-2.8.47-4.67.94-6.07,1.87a5.64,5.64,0,0,0-3.28,3.28c-.93,1.4-.93,3.27-.93,6.07v63.12c0,3.27.93,6.07,2.34,7.48,1.4,1.87,3.74,2.33,6.07,2.33a9.85,9.85,0,0,0,6.08-2.33,11.92,11.92,0,0,0,2.34-7.48V362.07H443.9c2.34,0,4.21-.47,5.61-1.87,1.4-.93,1.87-2.8,1.87-4.67a6,6,0,0,0-1.87-4.68A10,10,0,0,0,443.9,349H416.32v-21H449c2.81,0,4.68-.46,6.08-1.87a6.78,6.78,0,0,0,0-9.35c-1.4-1.4-3.27-1.87-6.08-1.87Z"/></g></g></svg>