<svg xmlns="http://www.w3.org/2000/svg" viewBox="0 0 685.99 685.99"><defs><style>.cls-1{fill:#fff;}.cls-2{fill:#4dbdeb;}.cls-3{fill:#f0f7f7;}.cls-4{fill:#00405c;}.cls-5{fill:#0075a8;}.cls-6{fill:#ffd262;}.cls-7{fill:#e4b34f;}</style></defs><g id="Layer_2" data-name="Layer 2"><g id="Layer_1-2" data-name="Layer 1"><path class="cls-1" d="M343,676A333,333,0,0,1,107.53,107.53,333,333,0,0,1,578.46,578.46,330.85,330.85,0,0,1,343,676Z"/><path class="cls-2" d="M343,20c178.39,0,323,144.61,323,323S521.38,666,343,666,20,521.38,20,343,164.61,20,343,20m0-20A343.08,343.08,0,0,0,209.48,659,343.08,343.08,0,0,0,476.51,27,340.89,340.89,0,0,0,343,0Z"/><path class="cls-3" d="M166.38,577.55h343v-389l-80.07-80.07H166.38Z"/><path class="cls-3" d="M509.33,188.51v389H490.42V169.6Z"/><path class="cls-1" d="M166.38,108.44h18.91V577.55H166.38Z"/><path class="cls-4" d="M509.33,581.34H166.38a3.79,3.79,0,0,1-3.79-3.79V108.44a3.79,3.79,0,0,1,3.79-3.79H429.26a3.78,3.78,0,0,1,2.67,1.11L512,185.84a3.78,3.78,0,0,1,1.11,2.67v389A3.79,3.79,0,0,1,509.33,581.34Zm-339.17-7.57H505.55V190.08l-77.86-77.86H170.16Z"/><path class="cls-4" d="M183.69,263.57a3.78,3.78,0,0,1-3.78-3.78v-22.7a3.79,3.79,0,0,1,7.57,0v22.7A3.79,3.79,0,0,1,183.69,263.57Z"/><path class="cls-4" d="M456.57,238.18H364.45a3.79,3.79,0,0,1,0-7.57h92.12a3.79,3.79,0,0,1,0,7.57Z"/><path class="cls-4" d="M456.57,308.2H364.45a3.79,3.79,0,0,1,0-7.57h92.12a3.79,3.79,0,0,1,0,7.57Z"/><path class="cls-4" d="M456.57,378.22H219.14a3.79,3.79,0,0,1,0-7.57H456.57a3.79,3.79,0,0,1,0,7.57Z"/><path class="cls-4" d="M456.57,448.24H219.14a3.79,3.79,0,0,1,0-7.57H456.57a3.79,3.79,0,0,1,0,7.57Z"/><path class="cls-4" d="M456.57,518.26H219.14a3.79,3.79,0,0,1,0-7.57H456.57a3.79,3.79,0,0,1,0,7.57Z"/><path class="cls-5" d="M429.26,108.44v80.07h80.07Z"/><path class="cls-4" d="M509.33,192.3H429.26a3.79,3.79,0,0,1-3.79-3.79V108.44a3.79,3.79,0,0,1,6.46-2.68L512,185.84a3.79,3.79,0,0,1-2.68,6.46ZM433,184.73H500.2L433,117.57Z"/><path class="cls-5" d="M219.14,237.83v60l51.93,30,51.92-30v-60l-51.92-30Z"/><path class="cls-4" d="M271.07,331.55a3.72,3.72,0,0,1-1.89-.51l-51.93-30a3.77,3.77,0,0,1-1.89-3.27v-60a3.77,3.77,0,0,1,1.89-3.27l51.93-30a3.76,3.76,0,0,1,3.78,0l51.92,30a3.77,3.77,0,0,1,1.89,3.27v60a3.77,3.77,0,0,1-1.89,3.27L273,331a3.78,3.78,0,0,1-1.89.51ZM222.93,295.6l48.14,27.8,48.14-27.8V240l-48.14-27.8L222.93,240Z"/><path class="cls-5" d="M509.33,577.55A30.52,30.52,0,0,1,479,543.88l14.64-140.72H525l14.65,140.72a30.52,30.52,0,0,1-30.36,33.67Z"/><path class="cls-4" d="M539.69,543.88,525,403.16h-9.43l14.65,140.72a30.52,30.52,0,0,1-25.64,33.31,30.55,30.55,0,0,0,35.07-33.31Z"/><path class="cls-2" d="M479,543.88l14.64-140.72h9.43L488.41,543.88a30.52,30.52,0,0,0,25.64,33.31A30.55,30.55,0,0,1,479,543.88Z"/><path class="cls-4" d="M509.33,581.34a34.3,34.3,0,0,1-34.11-37.86l14.64-140.71a3.79,3.79,0,0,1,3.76-3.4H525a3.78,3.78,0,0,1,3.76,3.4l14.65,140.71a34.31,34.31,0,0,1-34.12,37.86ZM497,406.94,482.74,544.27a26.73,26.73,0,1,0,53.18,0L521.63,406.94Z"/><circle class="cls-6" cx="509.46" cy="316.49" r="99.78"/><path class="cls-7" d="M507,415.89c1.71.14,3.45.23,5.19.29a99.73,99.73,0,0,0,0-199.37c-1.74.06-3.47.15-5.18.29a99.73,99.73,0,0,1,0,198.79Z"/><path class="cls-6" d="M511.65,217.1c-1.72-.14-3.45-.23-5.19-.29a99.73,99.73,0,0,0,0,199.37c1.74-.06,3.47-.15,5.19-.29a99.73,99.73,0,0,1,0-198.79Z"/><path class="cls-4" d="M509.33,420a103.45,103.45,0,1,1,73.22-30.28A103.23,103.23,0,0,1,509.33,420Zm0-199.47a96,96,0,1,0,67.87,28.11,95.34,95.34,0,0,0-67.87-28.11Z"/><circle class="cls-3" cx="509.46" cy="316.57" r="73.62"/><path class="cls-4" d="M509.33,393.87a77.38,77.38,0,1,1,54.72-22.66A76.83,76.83,0,0,1,509.33,393.87Zm0-147.16a69.79,69.79,0,1,0,49.37,20.42A69.59,69.59,0,0,0,509.33,246.71Z"/><path class="cls-6" d="M564.06,325.64V307.31H553.91a45.21,45.21,0,0,0-6.58-15.87l7.18-7.19-13-13-7.19,7.18a45.06,45.06,0,0,0-15.86-6.58V261.74H500.16v10.15a45.37,45.37,0,0,0-15.87,6.58l-7.18-7.18-13,13,7.18,7.18a45,45,0,0,0-6.58,15.87H454.6v18.33h10.15a45.18,45.18,0,0,0,6.58,15.87l-7.18,7.18,13,13,7.18-7.19a45.39,45.39,0,0,0,15.87,6.59V371.2H518.5V361.06a45.26,45.26,0,0,0,15.86-6.59l7.19,7.18,13-13-7.18-7.18a45.18,45.18,0,0,0,6.58-15.87Zm-54.73,18.27a27.44,27.44,0,1,1,27.44-27.44A27.45,27.45,0,0,1,509.33,343.91Z"/><path class="cls-6" d="M564.06,325.64V307.31H553.91a45.21,45.21,0,0,0-6.58-15.87l7.18-7.19-13-13-7.19,7.18a45.06,45.06,0,0,0-15.86-6.58V261.74H500.16v10.15a45.37,45.37,0,0,0-15.87,6.58l-7.18-7.18-13,13,7.18,7.18a45,45,0,0,0-6.58,15.87H454.6v18.33h10.15a45.18,45.18,0,0,0,6.58,15.87l-7.18,7.18,13,13,7.18-7.19a45.39,45.39,0,0,0,15.87,6.59V371.2H518.5V361.06a45.26,45.26,0,0,0,15.86-6.59l7.19,7.18,13-13-7.18-7.18a45.18,45.18,0,0,0,6.58-15.87Zm-54.73,18.27a27.44,27.44,0,1,1,27.44-27.44A27.45,27.45,0,0,1,509.33,343.91Z"/><path class="cls-4" d="M518.5,374.4H500.17a3.21,3.21,0,0,1-3.21-3.2v-7.6a48.15,48.15,0,0,1-12.19-5.07l-5.39,5.39a3.2,3.2,0,0,1-4.53,0l-13-13a3.2,3.2,0,0,1,0-4.53l5.38-5.38a48.19,48.19,0,0,1-5.06-12.2h-7.6a3.21,3.21,0,0,1-3.21-3.2V307.31a3.21,3.21,0,0,1,3.21-3.21h7.6a48,48,0,0,1,5.06-12.19l-5.38-5.39a3.2,3.2,0,0,1,0-4.53l13-13a3.2,3.2,0,0,1,4.53,0l5.39,5.38A48,48,0,0,1,497,269.35v-7.61a3.21,3.21,0,0,1,3.21-3.2H518.5a3.2,3.2,0,0,1,3.2,3.2v7.61a48,48,0,0,1,12.2,5.06l5.38-5.38a3.19,3.19,0,0,1,4.53,0l13,13a3.2,3.2,0,0,1,0,4.53l-5.39,5.39a48,48,0,0,1,5.07,12.19h7.6a3.21,3.21,0,0,1,3.2,3.21v18.33a3.2,3.2,0,0,1-3.2,3.2h-7.6a48.07,48.07,0,0,1-5.07,12.2l5.39,5.38a3.21,3.21,0,0,1,0,4.54l-13,13a3.2,3.2,0,0,1-4.53,0l-5.38-5.38a48.56,48.56,0,0,1-12.2,5.06v7.6a3.2,3.2,0,0,1-3.2,3.2ZM503.37,368h11.92v-6.95a3.19,3.19,0,0,1,2.57-3.13,42,42,0,0,0,14.74-6.12,3.2,3.2,0,0,1,4,.4l4.92,4.92,8.43-8.43-4.92-4.92a3.21,3.21,0,0,1-.4-4A42,42,0,0,0,550.78,325a3.2,3.2,0,0,1,3.14-2.57h6.93V310.51h-6.93a3.19,3.19,0,0,1-3.14-2.56,42,42,0,0,0-6.12-14.75,3.21,3.21,0,0,1,.4-4l4.92-4.92-8.43-8.43-4.92,4.92a3.2,3.2,0,0,1-4,.41A42,42,0,0,0,517.85,275a3.21,3.21,0,0,1-2.56-3.14V265H503.37v6.94a3.21,3.21,0,0,1-2.56,3.14,41.71,41.71,0,0,0-14.75,6.12,3.2,3.2,0,0,1-4-.41l-4.92-4.92-8.43,8.43,4.92,4.92a3.22,3.22,0,0,1,.41,4A41.63,41.63,0,0,0,467.89,308a3.21,3.21,0,0,1-3.14,2.56h-6.94v11.92h6.94a3.21,3.21,0,0,1,3.14,2.57A41.66,41.66,0,0,0,474,339.74a3.22,3.22,0,0,1-.41,4l-4.92,4.92,8.43,8.43L482,352.2a3.22,3.22,0,0,1,4-.41,41.92,41.92,0,0,0,14.75,6.13,3.19,3.19,0,0,1,2.56,3.13V368Zm6-20.89A30.64,30.64,0,1,1,540,316.47a30.67,30.67,0,0,1-30.64,30.64Zm0-54.87a24.23,24.23,0,1,0,24.23,24.23,24.26,24.26,0,0,0-24.23-24.23Z"/><path class="cls-7" d="M546.37,285.81,542,290.17a2.21,2.21,0,0,0-.35,2.71,45.24,45.24,0,0,1,5.28,12.71,2.23,2.23,0,0,0,2.14,1.72h4.83a45.21,45.21,0,0,0-6.58-15.87l7.18-7.19-13-13-3.3,3.29,8.12,8.12A2.2,2.2,0,0,1,546.37,285.81Z"/><path class="cls-7" d="M557.47,307.31h6.59v18.33h-6.59Z"/><path class="cls-7" d="M553.92,325.64h-4.83a2.22,2.22,0,0,0-2.15,1.71,45.24,45.24,0,0,1-5.28,12.71,2.21,2.21,0,0,0,.35,2.71l4.36,4.37a2.18,2.18,0,0,1,0,3.1l-8.11,8.12,3.29,3.29,13-13-7.18-7.18a45.39,45.39,0,0,0,6.59-15.87Z"/><path class="cls-6" d="M472.29,285.81l4.37,4.36a2.24,2.24,0,0,1,.35,2.71,45.26,45.26,0,0,0-5.29,12.71,2.23,2.23,0,0,1-2.14,1.72h-4.83a45.21,45.21,0,0,1,6.58-15.87l-7.18-7.19,13-13,3.3,3.29-8.12,8.12a2.2,2.2,0,0,0,0,3.11Z"/><path class="cls-6" d="M454.6,307.31h6.59v18.33H454.6Z"/><path class="cls-6" d="M464.75,325.64h4.83a2.22,2.22,0,0,1,2.14,1.71A45.26,45.26,0,0,0,477,340.06a2.24,2.24,0,0,1-.35,2.71l-4.37,4.37a2.18,2.18,0,0,0,0,3.1l8.12,8.12-3.3,3.29-13-13,7.18-7.18A45.37,45.37,0,0,1,464.75,325.64Z"/><path class="cls-4" d="M518.5,374.4H500.17a3.21,3.21,0,0,1-3.21-3.2v-7.6a48.15,48.15,0,0,1-12.19-5.07l-5.39,5.39a3.2,3.2,0,0,1-4.53,0l-13-13a3.2,3.2,0,0,1,0-4.53l5.38-5.38a48.19,48.19,0,0,1-5.06-12.2h-7.6a3.21,3.21,0,0,1-3.21-3.2V307.31a3.21,3.21,0,0,1,3.21-3.21h7.6a48,48,0,0,1,5.06-12.19l-5.38-5.39a3.2,3.2,0,0,1,0-4.53l13-13a3.2,3.2,0,0,1,4.53,0l5.39,5.38A48,48,0,0,1,497,269.35v-7.61a3.21,3.21,0,0,1,3.21-3.2H518.5a3.2,3.2,0,0,1,3.2,3.2v7.61a48,48,0,0,1,12.2,5.06l5.38-5.38a3.19,3.19,0,0,1,4.53,0l13,13a3.2,3.2,0,0,1,0,4.53l-5.39,5.39a48,48,0,0,1,5.07,12.19h7.6a3.21,3.21,0,0,1,3.2,3.21v18.33a3.2,3.2,0,0,1-3.2,3.2h-7.6a48.07,48.07,0,0,1-5.07,12.2l5.39,5.38a3.21,3.21,0,0,1,0,4.54l-13,13a3.2,3.2,0,0,1-4.53,0l-5.38-5.38a48.56,48.56,0,0,1-12.2,5.06v7.6a3.2,3.2,0,0,1-3.2,3.2ZM503.37,368h11.92v-6.95a3.19,3.19,0,0,1,2.57-3.13,42,42,0,0,0,14.74-6.12,3.2,3.2,0,0,1,4,.4l4.92,4.92,8.43-8.43-4.92-4.92a3.21,3.21,0,0,1-.4-4A42,42,0,0,0,550.78,325a3.2,3.2,0,0,1,3.14-2.57h6.93V310.51h-6.93a3.19,3.19,0,0,1-3.14-2.56,42,42,0,0,0-6.12-14.75,3.21,3.21,0,0,1,.4-4l4.92-4.92-8.43-8.43-4.92,4.92a3.2,3.2,0,0,1-4,.41A42,42,0,0,0,517.85,275a3.21,3.21,0,0,1-2.56-3.14V265H503.37v6.94a3.21,3.21,0,0,1-2.56,3.14,41.71,41.71,0,0,0-14.75,6.12,3.2,3.2,0,0,1-4-.41l-4.92-4.92-8.43,8.43,4.92,4.92a3.22,3.22,0,0,1,.41,4A41.63,41.63,0,0,0,467.89,308a3.21,3.21,0,0,1-3.14,2.56h-6.94v11.92h6.94a3.21,3.21,0,0,1,3.14,2.57A41.66,41.66,0,0,0,474,339.74a3.22,3.22,0,0,1-.41,4l-4.92,4.92,8.43,8.43L482,352.2a3.22,3.22,0,0,1,4-.41,41.92,41.92,0,0,0,14.75,6.13,3.19,3.19,0,0,1,2.56,3.13V368Zm6-20.89A30.64,30.64,0,1,1,540,316.47a30.67,30.67,0,0,1-30.64,30.64Zm0-54.87a24.23,24.23,0,1,0,24.23,24.23,24.26,24.26,0,0,0-24.23-24.23Z"/></g></g></svg>