<svg xmlns="http://www.w3.org/2000/svg" viewBox="0 0 685.99 685.99"><defs><style>.cls-1{fill:#fff;}.cls-2{fill:#4dbdeb;}.cls-3{fill:#0075a8;}.cls-4{fill:#00405c;}.cls-5{fill:#ffd262;}.cls-6{fill:#e4b34f;}.cls-7{fill:#f0f7f7;}</style></defs><g id="Layer_2" data-name="Layer 2"><g id="Layer_1-2" data-name="Layer 1"><path class="cls-1" d="M343,676A333,333,0,0,1,107.53,107.53,333,333,0,0,1,578.46,578.46,330.85,330.85,0,0,1,343,676Z"/><path class="cls-2" d="M343,20c178.39,0,323,144.61,323,323S521.38,666,343,666,20,521.38,20,343,164.61,20,343,20m0-20A343.08,343.08,0,0,0,209.48,659,343.08,343.08,0,0,0,476.51,27,340.89,340.89,0,0,0,343,0Z"/><circle class="cls-3" cx="343.06" cy="342.97" r="244.06" transform="translate(-32.88 36.4) rotate(-5.8)"/><path class="cls-4" d="M343,99c-3.29,0-6.57.09-9.84.22,130.22,5.16,234.2,112.34,234.2,243.82s-104,238.65-234.2,243.82c3.27.12,6.55.21,9.84.21,134.78,0,244-109.26,244-244S477.77,99,343,99Z"/><path class="cls-2" d="M343,587c3.3,0,6.58-.09,9.84-.22C222.62,581.65,118.64,474.47,118.64,343s104-238.65,234.19-243.81c-3.26-.13-6.54-.22-9.84-.22C208.22,99,99,208.22,99,343S208.22,587,343,587Z"/><path class="cls-4" d="M343,591.06c-32.06,0-62-26.21-84.17-73.79C237.07,470.65,225.09,408.76,225.09,343s12-127.66,33.73-174.28C281,121.14,310.92,94.93,343,94.93s62,26.21,84.18,73.79C448.92,215.34,460.9,277.23,460.9,343s-12,127.65-33.73,174.27C405,564.85,375.06,591.06,343,591.06Zm0-488.13c-28.78,0-56.1,24.57-76.92,69.18-21.27,45.58-33,106.27-33,170.89s11.71,125.3,33,170.88c20.82,44.61,48.14,69.18,76.92,69.18s56.11-24.57,76.93-69.18c21.27-45.58,33-106.27,33-170.88s-11.71-125.31-33-170.89C399.1,127.5,371.78,102.93,343,102.93Z"/><path class="cls-4" d="M343,591C206.23,591,95,479.76,95,343S206.23,95,343,95,591,206.23,591,343,479.76,591,343,591ZM343,103c-132.35,0-240,107.68-240,240S210.64,583,343,583,583,475.35,583,343,475.35,103,343,103Z"/><path class="cls-4" d="M121.57,292.41a3.69,3.69,0,0,1-.93-.11,4,4,0,0,1-3-4.82A209.1,209.1,0,0,1,125.13,263a4,4,0,1,1,7.49,2.79,202,202,0,0,0-7.16,23.53,4,4,0,0,1-3.89,3.07Z"/><path class="cls-4" d="M585,347H101a4,4,0,1,1,0-8H585a4,4,0,0,1,0,8Z"/><path class="cls-4" d="M343,589a4,4,0,0,1-4-4V101a4,4,0,1,1,8,0V585A4,4,0,0,1,343,589Z"/><path class="cls-4" d="M343,251.48c-77.21,0-148.59-16.5-195.84-45.27a4,4,0,0,1,4.16-6.83c46,28,115.9,44.1,191.68,44.1s145.65-16.08,191.69-44.11a4,4,0,1,1,4.16,6.84C491.59,235,420.2,251.48,343,251.48Z"/><path class="cls-4" d="M149.23,487.2a4,4,0,0,1-2.08-7.42C194.4,451,265.79,434.51,343,434.51s148.6,16.5,195.85,45.27a4,4,0,0,1-4.17,6.83c-46-28-115.89-44.1-191.68-44.1s-145.64,16.08-191.68,44.11A4,4,0,0,1,149.23,487.2Z"/><path class="cls-5" d="M465.23,329.55A122.24,122.24,0,1,0,321.85,449.93l5.75,9.95L343,486.55l15.4-26.67,5.74-9.95a122.25,122.25,0,0,0,101.1-120.38Z"/><path class="cls-6" d="M343,207.32c-3.58,0-7.12.19-10.63.49a126.14,126.14,0,0,1,44,239.3A122.22,122.22,0,0,0,343,207.32Z"/><path class="cls-5" d="M343,207.32c3.59,0,7.13.19,10.64.49a126.14,126.14,0,0,0-44,239.3A122.22,122.22,0,0,1,343,207.32Z"/><path class="cls-7" d="M273.11,346H285v-48.3H273.11a24.15,24.15,0,0,0,0,48.3Z"/><path class="cls-7" d="M353,294.35l62.77-33.26V382.68L353,349.42Z"/><path class="cls-7" d="M319,417.58A10.59,10.59,0,0,1,308.42,407V329.58h21.17V407A10.58,10.58,0,0,1,319,417.58Z"/><path class="cls-4" d="M319,421.58A14.6,14.6,0,0,1,304.42,407V329.58a4,4,0,0,1,4-4h21.17a4,4,0,0,1,4,4V407A14.6,14.6,0,0,1,319,421.58Zm-6.59-88V407a6.59,6.59,0,0,0,13.17,0V333.58Z"/><path class="cls-3" d="M343,357.86H295a10,10,0,0,1-10-10v-52a10,10,0,0,1,10-10h48a10,10,0,0,1,10,10v52a10,10,0,0,1-10,10Z"/><path class="cls-7" d="M420.07,334.93h-4.32V308.84h4.32a13,13,0,1,1,0,26.09Z"/><path class="cls-4" d="M420.07,338.93h-4.32a4,4,0,0,1-4-4V308.84a4,4,0,0,1,4-4h4.32a17,17,0,1,1,0,34.09Zm-.32-8h.32a9,9,0,1,0,0-18.09h-.32Z"/><path class="cls-4" d="M415.75,386.68a4,4,0,0,1-1.87-.46L351.11,353a4,4,0,0,1-2.13-3.54V294.35a4,4,0,0,1,2.13-3.53l62.77-33.26a4,4,0,0,1,5.87,3.53V382.68a4,4,0,0,1-4,4ZM357,347l54.77,29V267.74l-54.77,29Z"/><path class="cls-4" d="M285,350H273.11a28.15,28.15,0,0,1,0-56.3H285a4,4,0,0,1,4,4V346a4,4,0,0,1-4,4Zm-11.92-48.31a20.16,20.16,0,0,0,0,40.31H281V301.73Z"/><path class="cls-4" d="M343,361.86H295a14,14,0,0,1-14-14v-52a14,14,0,0,1,14-14h48a14,14,0,0,1,14,14v52A14,14,0,0,1,343,361.86Zm-48-71.95a6,6,0,0,0-6,6v52a6,6,0,0,0,6,6h48a6,6,0,0,0,6-6v-52a6,6,0,0,0-6-6Z"/><path class="cls-4" d="M343,490.55a4,4,0,0,1-3.46-2l-20.21-35a126.24,126.24,0,1,1,47.35,0l-20.21,35a4,4,0,0,1-3.47,2Zm0-279.23A118.23,118.23,0,0,0,322.54,446a4,4,0,0,1,2.78,1.94L343,478.55l17.68-30.62a4,4,0,0,1,2.77-1.94A118.22,118.22,0,0,0,343,211.32Z"/></g></g></svg>