<svg xmlns="http://www.w3.org/2000/svg" viewBox="0 0 685.99 685.99"><defs><style>.cls-1{fill:#fff;}.cls-2{fill:#4dbdeb;}.cls-3{fill:#f0f7f7;}.cls-4{fill:#00405c;}.cls-5{fill:#ffd262;}.cls-6{fill:#0075a8;}</style></defs><g id="Layer_2" data-name="Layer 2"><g id="Layer_1-2" data-name="Layer 1"><path class="cls-1" d="M343,676A333,333,0,0,1,107.53,107.53,333,333,0,0,1,578.46,578.46,330.85,330.85,0,0,1,343,676Z"/><path class="cls-2" d="M343,20c178.39,0,323,144.61,323,323S521.38,666,343,666,20,521.38,20,343,164.61,20,343,20m0-20A343.08,343.08,0,0,0,209.48,659,343.08,343.08,0,0,0,476.51,27,340.89,340.89,0,0,0,343,0Z"/><polygon class="cls-3" points="333.85 357.29 333.85 427.34 260.7 383.45 260.7 313.4 333.85 357.29"/><polygon class="cls-3" points="425.29 313.4 425.29 383.45 352.14 427.34 352.14 357.23 425.29 313.4"/><polygon class="cls-3" points="416.66 297.19 342.99 341.39 315.05 324.62 388.71 280.42 416.66 297.19"/><polygon class="cls-3" points="370.94 269.76 297.27 313.96 269.33 297.19 342.99 252.99 370.94 269.76"/><path class="cls-4" d="M443.57,297.19v91.44a9.14,9.14,0,0,1-4.43,7.84L347.7,451.33h-.1l-.1.07a8.94,8.94,0,0,1-1.5.62c-.21.07-.41.19-.63.25a8.91,8.91,0,0,1-4.75,0c-.22-.06-.43-.18-.63-.25a8.94,8.94,0,0,1-1.5-.62l-.1-.07h-.11l-91.43-54.86a9.13,9.13,0,0,1-4.44-7.84V297.19a9,9,0,0,1,.32-2.36c.1-.3.22-.59.34-.87.16-.45.35-.88.55-1.31a10.49,10.49,0,0,1,.64-.85,9.9,9.9,0,0,1,.79-1c.28-.24.56-.47.86-.69a10.09,10.09,0,0,1,1-.73l91.44-54.86a9.13,9.13,0,0,1,9.41,0l91.44,54.86a10.92,10.92,0,0,1,.92.73c.29.22.58.45.85.69a7.21,7.21,0,0,1,.79,1,8.47,8.47,0,0,1,.64.84,9.68,9.68,0,0,1,.55,1.34,6.45,6.45,0,0,1,.34.82A8.38,8.38,0,0,1,443.57,297.19Zm-18.28,86.26V313.4l-73.15,43.83v70.11ZM343,341.39l73.67-44.2-28-16.77-73.66,44.2ZM297.27,314l73.67-44.2L343,253l-73.66,44.2Zm36.58,113.38v-70L260.7,313.4v70.05Z"/><path class="cls-5" d="M350.31,72.24A9.48,9.48,0,0,0,337,70.94h0a9.83,9.83,0,0,0-1.29,1.29l-27.43,36.57,14.63,11,11-14.63V178.3h18.29V105.15l11,14.63,14.63-11Z"/><path class="cls-5" d="M363.11,566l-11,14.63V507.48H333.85v73.15l-11-14.63-14.63,11,27.43,36.58a9.14,9.14,0,0,0,12.8,1.82,8.77,8.77,0,0,0,1.83-1.82L377.74,577Z"/><path class="cls-5" d="M178.41,333.77H105.26l14.63-11-11-14.63L72.34,335.6a9.14,9.14,0,0,0,0,14.63l36.57,27.43,11-14.63-14.63-11h73.15Z"/><path class="cls-5" d="M615.48,337.4a9.28,9.28,0,0,0-1.83-1.82l-36.58-27.43-11,14.63,14.63,11H507.58V352h73.15L566.1,363l11,14.63,36.58-27.43A9.15,9.15,0,0,0,615.48,337.4Z"/><path class="cls-5" d="M233.08,220.07l-51.72-51.72,18.1,2.58,2.58-18.1-45.25-6.51A9.16,9.16,0,0,0,146.4,154h0a9.26,9.26,0,0,0,0,2.68L152.87,202,171,199.38l-2.59-18.09L220.11,233Z"/><path class="cls-5" d="M539.58,529.11l-6.45-45.25L515,486.47l2.58,18.09-51.74-51.72-12.93,12.93,51.72,51.72-18.08-2.61L484,533l45.25,6.47a9.32,9.32,0,0,0,1.29.09,9.14,9.14,0,0,0,9.14-9.14A8,8,0,0,0,539.58,529.11Z"/><path class="cls-5" d="M181.32,517.48,233,465.76l-12.89-12.92-51.72,51.71L171,486.46l-18.1-2.6-6.51,45.25a9.15,9.15,0,0,0,7.75,10.36h0a9.51,9.51,0,0,0,2.61,0L202,533l-2.6-18.1Z"/><path class="cls-5" d="M537,149a9.07,9.07,0,0,0-7.77-2.59l-45.25,6.47,2.59,18.1,18.1-2.58-51.72,51.72L465.84,233l51.72-51.71L515,199.36l18.1,2.6,6.5-45.25A9.14,9.14,0,0,0,537,149Z"/><rect class="cls-6" x="333.85" y="196.61" width="18.29" height="18.29"/><rect class="cls-6" x="333.85" y="470.93" width="18.29" height="18.29"/><rect class="cls-6" x="196.69" y="333.77" width="18.29" height="18.29"/><rect class="cls-6" x="471.01" y="333.77" width="18.29" height="18.29"/><rect class="cls-6" x="236.87" y="236.79" width="18.29" height="18.29" transform="translate(-101.85 245.99) rotate(-45)"/><rect class="cls-6" x="430.84" y="430.75" width="18.29" height="18.29" transform="translate(-182.18 439.96) rotate(-45)"/><rect class="cls-6" x="236.88" y="430.76" width="18.29" height="18.29" transform="translate(-239 302.81) rotate(-45)"/><rect class="cls-6" x="430.85" y="236.76" width="18.29" height="18.29" transform="translate(-45.01 383.15) rotate(-45)"/></g></g></svg>