<svg xmlns="http://www.w3.org/2000/svg" viewBox="0 0 685.99 685.99"><defs><style>.cls-1{fill:#fff;}.cls-2{fill:#4dbdeb;}.cls-3{fill:#f0f7f7;}.cls-4{opacity:0.47;}.cls-5{fill:#0075a8;}.cls-6{fill:#00405c;}.cls-7{fill:#ffd262;}.cls-8{fill:#e4b34f;}.cls-9{fill:#ffe5a3;}</style></defs><g id="Layer_2" data-name="Layer 2"><g id="Layer_1-2" data-name="Layer 1"><path class="cls-1" d="M343,676A333,333,0,0,1,107.53,107.53,333,333,0,0,1,578.46,578.46,330.85,330.85,0,0,1,343,676Z"/><path class="cls-2" d="M343,20c178.39,0,323,144.61,323,323S521.38,666,343,666,20,521.38,20,343,164.61,20,343,20m0-20A343.08,343.08,0,0,0,209.48,659,343.08,343.08,0,0,0,476.51,27,340.89,340.89,0,0,0,343,0Z"/><path class="cls-3" d="M564.07,491.53H122.24a17,17,0,0,1-17-17v-272a17,17,0,0,1,17-17H564.07a17,17,0,0,1,17,17v272A17,17,0,0,1,564.07,491.53Z"/><g class="cls-4"><path class="cls-2" d="M564.07,185.54H544.89a17,17,0,0,1,17,17v272a17,17,0,0,1-17,17h19.18a17,17,0,0,0,17-17v-272A17,17,0,0,0,564.07,185.54Z"/></g><path class="cls-1" d="M122.24,491.53h19.18a17,17,0,0,1-17-17v-272a17,17,0,0,1,17-17H122.24a17,17,0,0,0-17,17v272A17,17,0,0,0,122.24,491.53Z"/><path class="cls-5" d="M498.37,554.57H188V531.83a17,17,0,0,1,17-17H481.39a17,17,0,0,1,17,17Z"/><path class="cls-5" d="M481.39,514.85H462.2a17,17,0,0,1,17,17v22.75h19.19V531.83A17,17,0,0,0,481.39,514.85Z"/><path class="cls-5" d="M204.93,514.85h19.18a17,17,0,0,0-17,17v22.75H188V531.83A17,17,0,0,1,204.93,514.85Z"/><path class="cls-5" d="M252,491.53H434.28v23.32H252Z"/><path class="cls-6" d="M122.53,256.91a3.84,3.84,0,0,1-3.84-3.83v-23a3.84,3.84,0,0,1,7.67,0v23A3.83,3.83,0,0,1,122.53,256.91Z"/><path class="cls-6" d="M498.37,558.41H188a3.84,3.84,0,0,1-3.84-3.84V531.83A20.84,20.84,0,0,1,204.93,511H481.39a20.84,20.84,0,0,1,20.82,20.81v22.74a3.85,3.85,0,0,1-3.84,3.84Zm-306.59-7.67H494.53V531.83a13.16,13.16,0,0,0-13.14-13.14H204.93a13.16,13.16,0,0,0-13.15,13.14Z"/><path class="cls-6" d="M434.28,518.69H252a3.83,3.83,0,0,1-3.83-3.84V491.53A3.83,3.83,0,0,1,252,487.7H434.28a3.84,3.84,0,0,1,3.84,3.83v23.32A3.84,3.84,0,0,1,434.28,518.69ZM255.87,511H430.44V495.37H255.87Z"/><path class="cls-6" d="M564.07,495.37H122.24a20.84,20.84,0,0,1-20.82-20.82v-272a20.84,20.84,0,0,1,20.82-20.81H564.07a20.84,20.84,0,0,1,20.82,20.81v272A20.84,20.84,0,0,1,564.07,495.37Zm-441.83-306a13.16,13.16,0,0,0-13.14,13.14v272a13.15,13.15,0,0,0,13.14,13.14H564.07a13.16,13.16,0,0,0,13.15-13.14v-272a13.16,13.16,0,0,0-13.15-13.14Z"/><path class="cls-7" d="M476.52,360.27v-45H451.59a111,111,0,0,0-16.18-39l17.65-17.65L421.2,226.72l-17.65,17.65a111.36,111.36,0,0,0-39-16.18V203.26H319.51v24.93a111.36,111.36,0,0,0-39,16.18l-17.65-17.65L231,258.58l17.65,17.65a111,111,0,0,0-16.18,39H207.56v45h24.92a111.19,111.19,0,0,0,16.19,39L231,416.91l31.86,31.86,17.65-17.65a111.36,111.36,0,0,0,39,16.18v24.93h45.05V447.3a111.36,111.36,0,0,0,39-16.18l17.65,17.65,31.86-31.86-17.65-17.65a111.36,111.36,0,0,0,16.18-39ZM342,405.16a67.42,67.42,0,1,1,67.42-67.41A67.41,67.41,0,0,1,342,405.16Z"/><path class="cls-7" d="M476.52,360.27v-45H451.59a111,111,0,0,0-16.18-39l17.65-17.65L421.2,226.72l-17.65,17.65a111.36,111.36,0,0,0-39-16.18V203.26H319.51v24.93a111.36,111.36,0,0,0-39,16.18l-17.65-17.65L231,258.58l17.65,17.65a111,111,0,0,0-16.18,39H207.56v45h24.92a111.19,111.19,0,0,0,16.19,39L231,416.91l31.86,31.86,17.65-17.65a111.36,111.36,0,0,0,39,16.18v24.93h45.05V447.3a111.36,111.36,0,0,0,39-16.18l17.65,17.65,31.86-31.86-17.65-17.65a111.36,111.36,0,0,0,16.18-39ZM342,405.16a67.42,67.42,0,1,1,67.42-67.41A67.41,67.41,0,0,1,342,405.16Z"/><path class="cls-6" d="M364.56,474.4H319.51a2.17,2.17,0,0,1-2.17-2.17V449.06a113,113,0,0,1-36.53-15.17l-16.4,16.41a2.17,2.17,0,0,1-3.07,0l-31.86-31.85a2.19,2.19,0,0,1,0-3.07L245.89,399a112.76,112.76,0,0,1-15.16-36.53H207.56a2.17,2.17,0,0,1-2.17-2.17v-45a2.17,2.17,0,0,1,2.17-2.17h23.17a113,113,0,0,1,15.16-36.53l-16.41-16.41a2.17,2.17,0,0,1,0-3.06l31.86-31.86a2.24,2.24,0,0,1,3.07,0l16.4,16.41a113,113,0,0,1,36.53-15.16V203.26a2.17,2.17,0,0,1,2.17-2.17h45.05a2.17,2.17,0,0,1,2.17,2.17v23.18a112.54,112.54,0,0,1,36.53,15.16l16.41-16.41a2.23,2.23,0,0,1,3.07,0L454.59,257a2.16,2.16,0,0,1,0,3.07l-16.4,16.41a113,113,0,0,1,15.16,36.53h23.17a2.17,2.17,0,0,1,2.17,2.17v45a2.17,2.17,0,0,1-2.17,2.17H453.35A112.88,112.88,0,0,1,438.18,399l16.41,16.41a2.15,2.15,0,0,1,0,3.06L422.74,450.3a2.24,2.24,0,0,1-3.07,0l-16.41-16.41a112.85,112.85,0,0,1-36.53,15.16v23.18a2.17,2.17,0,0,1-2.17,2.17Zm-42.88-4.34h40.71V447.3a2.18,2.18,0,0,1,1.74-2.13,108.84,108.84,0,0,0,38.23-15.86,2.17,2.17,0,0,1,2.73.27L421.2,445.7,450,416.91,433.87,400.8a2.18,2.18,0,0,1-.27-2.73,109,109,0,0,0,15.87-38.23,2.16,2.16,0,0,1,2.12-1.74h22.76V317.39H451.59a2.15,2.15,0,0,1-2.12-1.73,108.7,108.7,0,0,0-15.87-38.23,2.17,2.17,0,0,1,.28-2.73L450,258.58,421.2,229.79l-16.11,16.12a2.17,2.17,0,0,1-2.73.28,108.52,108.52,0,0,0-38.23-15.87,2.18,2.18,0,0,1-1.74-2.13V205.43H321.68v22.76a2.17,2.17,0,0,1-1.73,2.13,108.68,108.68,0,0,0-38.23,15.86,2.17,2.17,0,0,1-2.73-.27l-16.12-16.12-28.79,28.79L250.2,274.7a2.17,2.17,0,0,1,.28,2.73,108.52,108.52,0,0,0-15.87,38.23,2.16,2.16,0,0,1-2.12,1.73H209.72V358.1h22.77a2.17,2.17,0,0,1,2.12,1.74,108.67,108.67,0,0,0,15.87,38.23,2.15,2.15,0,0,1-.28,2.72l-16.12,16.12,28.79,28.79L279,429.58a2.17,2.17,0,0,1,2.73-.27A108.68,108.68,0,0,0,320,445.17a2.17,2.17,0,0,1,1.73,2.13ZM342,407.33a69.59,69.59,0,1,1,69.59-69.59A69.67,69.67,0,0,1,342,407.33Zm0-134.83a65.25,65.25,0,1,0,65.25,65.25A65.32,65.32,0,0,0,342,272.5Z"/><path class="cls-8" d="M433.06,262.39l-10.73,10.73a5.44,5.44,0,0,0-.86,6.65,111,111,0,0,1,13,31.24,5.44,5.44,0,0,0,5.26,4.21h11.87a111,111,0,0,0-16.18-39l17.65-17.65L421.2,226.72l-8.09,8.09,19.95,19.95a5.39,5.39,0,0,1,0,7.63Z"/><path class="cls-8" d="M460.34,315.22h16.18v45H460.34Z"/><path class="cls-8" d="M451.59,360.27H439.72a5.44,5.44,0,0,0-5.26,4.21,111,111,0,0,1-13,31.24,5.44,5.44,0,0,0,.86,6.65l10.73,10.73a5.39,5.39,0,0,1,0,7.63l-19.95,19.94,8.09,8.1,31.86-31.86-17.65-17.65a111,111,0,0,0,16.18-39Z"/><path class="cls-9" d="M251,262.39l10.73,10.73a5.46,5.46,0,0,1,.86,6.65,111,111,0,0,0-13,31.24,5.46,5.46,0,0,1-5.27,4.21H232.49a111,111,0,0,1,16.18-39L231,258.58l31.85-31.86,8.09,8.1L251,254.76a5.39,5.39,0,0,0,0,7.63Z"/><path class="cls-9" d="M207.56,315.22h16.18v45H207.56Z"/><path class="cls-9" d="M232.49,360.27h11.86a5.46,5.46,0,0,1,5.27,4.21,111,111,0,0,0,13,31.24,5.46,5.46,0,0,1-.86,6.65L251,413.1a5.39,5.39,0,0,0,0,7.63l20,19.94-8.1,8.1L231,416.91l17.65-17.65a111,111,0,0,1-16.18-39Z"/><path class="cls-6" d="M364.56,474.4H319.51a2.17,2.17,0,0,1-2.17-2.17V449.06a113,113,0,0,1-36.53-15.17l-16.4,16.41a2.17,2.17,0,0,1-3.07,0l-31.86-31.85a2.19,2.19,0,0,1,0-3.07L245.89,399a112.76,112.76,0,0,1-15.16-36.53H207.56a2.17,2.17,0,0,1-2.17-2.17v-45a2.17,2.17,0,0,1,2.17-2.17h23.17a113,113,0,0,1,15.16-36.53l-16.41-16.41a2.17,2.17,0,0,1,0-3.06l31.86-31.86a2.24,2.24,0,0,1,3.07,0l16.4,16.41a113,113,0,0,1,36.53-15.16V203.26a2.17,2.17,0,0,1,2.17-2.17h45.05a2.17,2.17,0,0,1,2.17,2.17v23.18a112.54,112.54,0,0,1,36.53,15.16l16.41-16.41a2.23,2.23,0,0,1,3.07,0L454.59,257a2.16,2.16,0,0,1,0,3.07l-16.4,16.41a113,113,0,0,1,15.16,36.53h23.17a2.17,2.17,0,0,1,2.17,2.17v45a2.17,2.17,0,0,1-2.17,2.17H453.35A112.88,112.88,0,0,1,438.18,399l16.41,16.41a2.15,2.15,0,0,1,0,3.06L422.74,450.3a2.24,2.24,0,0,1-3.07,0l-16.41-16.41a112.85,112.85,0,0,1-36.53,15.16v23.18a2.17,2.17,0,0,1-2.17,2.17Zm-42.88-4.34h40.71V447.3a2.18,2.18,0,0,1,1.74-2.13,108.84,108.84,0,0,0,38.23-15.86,2.17,2.17,0,0,1,2.73.27L421.2,445.7,450,416.91,433.87,400.8a2.18,2.18,0,0,1-.27-2.73,109,109,0,0,0,15.87-38.23,2.16,2.16,0,0,1,2.12-1.74h22.76V317.39H451.59a2.15,2.15,0,0,1-2.12-1.73,108.7,108.7,0,0,0-15.87-38.23,2.17,2.17,0,0,1,.28-2.73L450,258.58,421.2,229.79l-16.11,16.12a2.17,2.17,0,0,1-2.73.28,108.52,108.52,0,0,0-38.23-15.87,2.18,2.18,0,0,1-1.74-2.13V205.43H321.68v22.76a2.17,2.17,0,0,1-1.73,2.13,108.68,108.68,0,0,0-38.23,15.86,2.17,2.17,0,0,1-2.73-.27l-16.12-16.12-28.79,28.79L250.2,274.7a2.17,2.17,0,0,1,.28,2.73,108.52,108.52,0,0,0-15.87,38.23,2.16,2.16,0,0,1-2.12,1.73H209.72V358.1h22.77a2.17,2.17,0,0,1,2.12,1.74,108.67,108.67,0,0,0,15.87,38.23,2.15,2.15,0,0,1-.28,2.72l-16.12,16.12,28.79,28.79L279,429.58a2.17,2.17,0,0,1,2.73-.27A108.68,108.68,0,0,0,320,445.17a2.17,2.17,0,0,1,1.73,2.13ZM342,407.33a69.59,69.59,0,1,1,69.59-69.59A69.67,69.67,0,0,1,342,407.33Zm0-134.83a65.25,65.25,0,1,0,65.25,65.25A65.32,65.32,0,0,0,342,272.5Z"/><path class="cls-2" d="M325.44,272.5V253.33l16.6,9.58,16.6,9.59L342,282.08l-16.6,9.59Z"/><path class="cls-2" d="M358.64,403v19.17L342,412.58,325.44,403l16.6-9.58,16.6-9.59Z"/><path class="cls-6" d="M325.44,293.84a2.19,2.19,0,0,1-2.17-2.17V253.33a2.17,2.17,0,0,1,3.25-1.88l33.2,19.17a2.16,2.16,0,0,1,0,3.75l-33.2,19.17a2.1,2.1,0,0,1-1.08.3Zm2.17-36.76v30.83L354.3,272.5Z"/><path class="cls-6" d="M358.64,424.33a2.09,2.09,0,0,1-1.08-.29l-33.21-19.17a2.17,2.17,0,0,1,0-3.75L357.56,382a2.17,2.17,0,0,1,3.25,1.87v38.34a2.16,2.16,0,0,1-2.17,2.17ZM329.77,403l26.7,15.42V387.58Z"/><path class="cls-2" d="M334,368.81l-37.92-35.95,13.09-13.8,25.27,24,40.93-36.34L388,320.93Z"/><path class="cls-6" d="M334,371a2.15,2.15,0,0,1-1.49-.6L294.6,334.44a2.16,2.16,0,0,1-.08-3.07l13.08-13.8a2.18,2.18,0,0,1,3.07-.08l23.83,22.59,39.44-35a2.14,2.14,0,0,1,1.57-.54,2.12,2.12,0,0,1,1.49.73l12.61,14.24a2.17,2.17,0,0,1-.19,3.06l-54,47.88A2.2,2.2,0,0,1,334,371Zm-34.85-38.2,34.9,33.08,50.86-45.12-9.73-11-39.3,34.89a2.17,2.17,0,0,1-2.93,0l-23.7-22.47Z"/><path class="cls-6" d="M223.74,346.42a2.17,2.17,0,0,1-2.17-2.17v-13a2.17,2.17,0,1,1,4.34,0v13A2.17,2.17,0,0,1,223.74,346.42Z"/></g></g></svg>