<svg xmlns="http://www.w3.org/2000/svg" viewBox="0 0 685.99 685.99"><defs><style>.cls-1{fill:#4dbdeb;}.cls-2{fill:#fff;}.cls-3{fill:#0075a8;}.cls-4{fill:#00405c;}.cls-5{fill:#ffd262;}</style></defs><g id="Layer_2" data-name="Layer 2"><g id="Layer_1-2" data-name="Layer 1"><path class="cls-1" d="M573.29,499.85H112.69A17.7,17.7,0,0,1,95,482.15V198.56a17.71,17.71,0,0,1,17.7-17.7h460.6a17.7,17.7,0,0,1,17.7,17.7V482.15A17.69,17.69,0,0,1,573.29,499.85Z"/><path class="cls-1" d="M573.29,180.86h-20a17.7,17.7,0,0,1,17.7,17.7V482.15a17.69,17.69,0,0,1-17.7,17.7h20a17.69,17.69,0,0,0,17.7-17.7V198.56A17.7,17.7,0,0,0,573.29,180.86Z"/><path class="cls-2" d="M112.69,499.85h20a17.7,17.7,0,0,1-17.7-17.7V198.56a17.71,17.71,0,0,1,17.7-17.7h-20A17.71,17.71,0,0,0,95,198.56V482.15A17.7,17.7,0,0,0,112.69,499.85Z"/><path class="cls-3" d="M504.8,565.57H181.19v-23.7a17.7,17.7,0,0,1,17.7-17.7H487.1a17.7,17.7,0,0,1,17.7,17.7Z"/><path class="cls-3" d="M487.1,524.17h-20a17.7,17.7,0,0,1,17.7,17.7v23.71h20V541.87A17.7,17.7,0,0,0,487.1,524.17Z"/><path class="cls-3" d="M198.89,524.17h20a17.7,17.7,0,0,0-17.7,17.7v23.71h-20V541.87A17.7,17.7,0,0,1,198.89,524.17Z"/><path class="cls-3" d="M248,499.85H438v24.32H248Z"/><path class="cls-4" d="M113,255.27a4,4,0,0,1-4-4v-24a4,4,0,0,1,8,0v24A4,4,0,0,1,113,255.27Z"/><path class="cls-4" d="M504.8,569.57H181.19a4,4,0,0,1-4-4v-23.7a21.73,21.73,0,0,1,21.7-21.7H487.1a21.73,21.73,0,0,1,21.7,21.7v23.7a4,4,0,0,1-4,4Zm-319.61-8H500.8v-19.7a13.72,13.72,0,0,0-13.71-13.7H198.89a13.71,13.71,0,0,0-13.7,13.7Z"/><path class="cls-4" d="M438,528.17H248a4,4,0,0,1-4-4V499.86a4,4,0,0,1,4-4H438a4,4,0,0,1,4,4v24.31A4,4,0,0,1,438,528.17Zm-186-8H434V503.86H252Z"/><path class="cls-4" d="M573.29,503.85H112.69A21.73,21.73,0,0,1,91,482.15V198.56a21.73,21.73,0,0,1,21.7-21.7h460.6a21.73,21.73,0,0,1,21.7,21.7V482.15A21.72,21.72,0,0,1,573.29,503.85Zm-460.6-319A13.72,13.72,0,0,0,99,198.56V482.15a13.71,13.71,0,0,0,13.7,13.7h460.6a13.71,13.71,0,0,0,13.7-13.7V198.56a13.71,13.71,0,0,0-13.7-13.7Z"/><path class="cls-5" d="M470,362V319.49H446.48a105,105,0,0,0-15.29-36.83L447.87,266l-30.1-30.1L401.1,252.57a105.12,105.12,0,0,0-36.83-15.29V213.73H321.72v23.55a105,105,0,0,0-36.83,15.29l-16.68-16.68L238.12,266l16.67,16.67a104.83,104.83,0,0,0-15.28,36.83H216V362h23.55a105,105,0,0,0,15.29,36.83l-16.68,16.68,30.09,30.09L284.89,429a105,105,0,0,0,36.83,15.29V467.8h42.55V444.25A105,105,0,0,0,401.1,429l16.68,16.68,30.09-30.09L431.2,398.87A104.83,104.83,0,0,0,446.48,362ZM343,404.45a63.69,63.69,0,1,1,63.69-63.68A63.68,63.68,0,0,1,343,404.45Z"/><path class="cls-4" d="M364.27,471.8H321.72a4,4,0,0,1-4-4V447.47a108.54,108.54,0,0,1-32.28-13.4L271,448.47a4.11,4.11,0,0,1-5.65,0l-30.1-30.09a4,4,0,0,1,0-5.66l14.4-14.4a108.37,108.37,0,0,1-13.4-32.27H216a4,4,0,0,1-4-4V319.49a4,4,0,0,1,4-4h20.33a108.63,108.63,0,0,1,13.4-32.27l-14.4-14.4a4,4,0,0,1,0-5.66l30.1-30.09a4.11,4.11,0,0,1,5.65,0l14.4,14.4a108.54,108.54,0,0,1,32.28-13.4V213.73a4,4,0,0,1,4-4h42.55a4,4,0,0,1,4,4v20.34a108.27,108.27,0,0,1,32.28,13.4l14.4-14.4a4,4,0,0,1,5.65,0l30.1,30.09a4,4,0,0,1,0,5.65l-14.4,14.4a108.51,108.51,0,0,1,13.39,32.28H470a4,4,0,0,1,4,4V362a4,4,0,0,1-4,4H449.69a108.51,108.51,0,0,1-13.39,32.28l14.4,14.4a4,4,0,0,1,0,5.65l-30.1,30.09a4,4,0,0,1-5.65,0l-14.4-14.4a108.54,108.54,0,0,1-32.28,13.4V467.8A4,4,0,0,1,364.27,471.8Zm-38.55-8h34.55V444.25a4,4,0,0,1,3.2-3.91,100.86,100.86,0,0,0,35.43-14.71,4,4,0,0,1,5,.51L417.78,440l24.43-24.43L428.37,401.7a4,4,0,0,1-.51-5,100.5,100.5,0,0,0,14.7-35.43,4,4,0,0,1,3.92-3.2H466V323.49H446.48a4,4,0,0,1-3.92-3.2,100.65,100.65,0,0,0-14.7-35.43,4,4,0,0,1,.51-5L442.21,266l-24.43-24.44L403.93,255.4a4,4,0,0,1-5,.51,100.7,100.7,0,0,0-35.43-14.71,4,4,0,0,1-3.2-3.92V217.73H325.72v19.55a4,4,0,0,1-3.2,3.92,100.52,100.52,0,0,0-35.43,14.71,4,4,0,0,1-5-.51l-13.85-13.85L243.78,266l13.84,13.84a4,4,0,0,1,.51,5,100.65,100.65,0,0,0-14.7,35.43,4,4,0,0,1-3.92,3.2H220V358h19.55a4,4,0,0,1,3.92,3.2,100.5,100.5,0,0,0,14.7,35.43,4,4,0,0,1-.51,5l-13.84,13.85L268.21,440l13.85-13.84a4,4,0,0,1,5-.51,100.5,100.5,0,0,0,35.43,14.7,4,4,0,0,1,3.19,3.92V463.8ZM343,408.45a67.69,67.69,0,1,1,67.69-67.68A67.76,67.76,0,0,1,343,408.45Zm0-127.37a59.69,59.69,0,1,0,59.69,59.69A59.75,59.75,0,0,0,343,281.08Z"/><path class="cls-5" d="M429,269.59l-10.13,10.13A5.15,5.15,0,0,0,418,286a104.65,104.65,0,0,1,12.27,29.5,5.15,5.15,0,0,0,5,4h11.21a105.12,105.12,0,0,0-15.29-36.83L447.87,266l-30.1-30.09-7.64,7.64L429,262.38a5.08,5.08,0,0,1,0,7.21Z"/><path class="cls-5" d="M454.74,319.49H470V362H454.74Z"/><path class="cls-5" d="M446.48,362H435.27a5.14,5.14,0,0,0-5,4A105.12,105.12,0,0,1,418,395.53a5.12,5.12,0,0,0,.81,6.28L429,412a5.09,5.09,0,0,1,0,7.2L410.13,438l7.65,7.64,30.09-30.09-16.68-16.67A105.16,105.16,0,0,0,446.48,362Z"/><path class="cls-5" d="M257,269.59l10.14,10.13A5.15,5.15,0,0,1,268,286a104.94,104.94,0,0,0-12.27,29.5,5.14,5.14,0,0,1-5,4H239.51a104.91,104.91,0,0,1,15.28-36.83L238.12,266l30.09-30.09,7.65,7.64L257,262.38a5.1,5.1,0,0,0,0,7.21Z"/><path class="cls-5" d="M216,319.49h15.29V362H216Z"/><path class="cls-5" d="M239.51,362h11.21a5.16,5.16,0,0,1,5,4A105.12,105.12,0,0,0,268,395.53a5.14,5.14,0,0,1-.81,6.28L257,412a5.09,5.09,0,0,0,0,7.2L275.86,438l-7.65,7.64-30.09-30.09,16.67-16.67A105,105,0,0,1,239.51,362Z"/><path class="cls-4" d="M364.27,471.8H321.72a4,4,0,0,1-4-4V447.47a108.54,108.54,0,0,1-32.28-13.4L271,448.47a4.11,4.11,0,0,1-5.65,0l-30.1-30.09a4,4,0,0,1,0-5.66l14.4-14.4a108.37,108.37,0,0,1-13.4-32.27H216a4,4,0,0,1-4-4V319.49a4,4,0,0,1,4-4h20.33a108.63,108.63,0,0,1,13.4-32.27l-14.4-14.4a4,4,0,0,1,0-5.66l30.1-30.09a4.11,4.11,0,0,1,5.65,0l14.4,14.4a108.54,108.54,0,0,1,32.28-13.4V213.73a4,4,0,0,1,4-4h42.55a4,4,0,0,1,4,4v20.34a108.27,108.27,0,0,1,32.28,13.4l14.4-14.4a4,4,0,0,1,5.65,0l30.1,30.09a4,4,0,0,1,0,5.65l-14.4,14.4a108.51,108.51,0,0,1,13.39,32.28H470a4,4,0,0,1,4,4V362a4,4,0,0,1-4,4H449.69a108.51,108.51,0,0,1-13.39,32.28l14.4,14.4a4,4,0,0,1,0,5.65l-30.1,30.09a4,4,0,0,1-5.65,0l-14.4-14.4a108.54,108.54,0,0,1-32.28,13.4V467.8A4,4,0,0,1,364.27,471.8Zm-38.55-8h34.55V444.25a4,4,0,0,1,3.2-3.91,100.86,100.86,0,0,0,35.43-14.71,4,4,0,0,1,5,.51L417.78,440l24.43-24.43L428.37,401.7a4,4,0,0,1-.51-5,100.5,100.5,0,0,0,14.7-35.43,4,4,0,0,1,3.92-3.2H466V323.49H446.48a4,4,0,0,1-3.92-3.2,100.65,100.65,0,0,0-14.7-35.43,4,4,0,0,1,.51-5L442.21,266l-24.43-24.44L403.93,255.4a4,4,0,0,1-5,.51,100.7,100.7,0,0,0-35.43-14.71,4,4,0,0,1-3.2-3.92V217.73H325.72v19.55a4,4,0,0,1-3.2,3.92,100.52,100.52,0,0,0-35.43,14.71,4,4,0,0,1-5-.51l-13.85-13.85L243.78,266l13.84,13.84a4,4,0,0,1,.51,5,100.65,100.65,0,0,0-14.7,35.43,4,4,0,0,1-3.92,3.2H220V358h19.55a4,4,0,0,1,3.92,3.2,100.5,100.5,0,0,0,14.7,35.43,4,4,0,0,1-.51,5l-13.84,13.85L268.21,440l13.85-13.84a4,4,0,0,1,5-.51,100.5,100.5,0,0,0,35.43,14.7,4,4,0,0,1,3.19,3.92V463.8ZM343,408.45a67.69,67.69,0,1,1,67.69-67.68A67.76,67.76,0,0,1,343,408.45Zm0-127.37a59.69,59.69,0,1,0,59.69,59.69A59.75,59.75,0,0,0,343,281.08Z"/><path class="cls-4" d="M299.23,340.77a6.52,6.52,0,0,1,1.86-4.56l15.12-15.33a4,4,0,0,1,5.45,0,3.83,3.83,0,0,1,0,5.44l-14.33,14.45,14.33,14.45a3.83,3.83,0,0,1,0,5.44,3.9,3.9,0,0,1-2.66,1.09,4.09,4.09,0,0,1-2.79-1.09l-15.12-15.34A6.5,6.5,0,0,1,299.23,340.77Z"/><path class="cls-4" d="M337.07,357.15l14.81-35.25a3.36,3.36,0,0,1,4.41-1.75,3.26,3.26,0,0,1,1.7,4.29l-14.81,35.31a3.36,3.36,0,0,1-3.09,2,2.94,2.94,0,0,1-1.21-.24,3.26,3.26,0,0,1-1.81-4.35Z"/><path class="cls-4" d="M386.76,340.77a6.5,6.5,0,0,1-1.86,4.55l-15.13,15.34a4,4,0,0,1-5.43,0,3.83,3.83,0,0,1,0-5.45l14.32-14.44-14.32-14.45a3.83,3.83,0,0,1,0-5.45,4,4,0,0,1,5.44,0l15.12,15.34A6.52,6.52,0,0,1,386.76,340.77Z"/><path class="cls-4" d="M519.24,432.86h-29.1a4,4,0,0,1-4-4V252.77a4,4,0,0,1,4-4h29.1a4,4,0,1,1,0,8h-25.1V424.86h25.1a4,4,0,0,1,0,8Z"/><path class="cls-4" d="M195.85,432.86H166.74a4,4,0,0,1,0-8h25.11V256.77H166.74a4,4,0,0,1,0-8h29.11a4,4,0,0,1,4,4V428.86A4,4,0,0,1,195.85,432.86Z"/><path class="cls-4" d="M214,344.81h-76.8a4,4,0,0,1,0-8H214a4,4,0,0,1,0,8Z"/><path class="cls-4" d="M548.56,344.81H472a4,4,0,0,1,0-8h76.53a4,4,0,0,1,0,8Z"/><path class="cls-4" d="M154.09,340.81a16.67,16.67,0,1,1-16.67-16.66A16.67,16.67,0,0,1,154.09,340.81Z"/><circle class="cls-4" cx="166.94" cy="428.74" r="16.66"/><circle class="cls-4" cx="166.94" cy="252.88" r="16.66"/><path class="cls-4" d="M531.9,340.81a16.67,16.67,0,1,0,16.66-16.66A16.66,16.66,0,0,0,531.9,340.81Z"/><circle class="cls-4" cx="519.05" cy="428.74" r="16.66"/><path class="cls-4" d="M502.38,252.88a16.67,16.67,0,1,0,16.67-16.66A16.67,16.67,0,0,0,502.38,252.88Z"/><path class="cls-4" d="M137.42,361.48a20.67,20.67,0,1,1,20.67-20.67A20.69,20.69,0,0,1,137.42,361.48Zm0-33.33a12.67,12.67,0,1,0,12.67,12.66A12.68,12.68,0,0,0,137.42,328.15Z"/><path class="cls-4" d="M166.94,449.41a20.67,20.67,0,1,1,20.66-20.67A20.69,20.69,0,0,1,166.94,449.41Zm0-33.33a12.67,12.67,0,1,0,12.66,12.66A12.68,12.68,0,0,0,166.94,416.08Z"/><path class="cls-4" d="M166.94,273.55a20.67,20.67,0,1,1,20.66-20.67A20.69,20.69,0,0,1,166.94,273.55Zm0-33.33a12.67,12.67,0,1,0,12.66,12.66A12.68,12.68,0,0,0,166.94,240.22Z"/><path class="cls-4" d="M548.56,361.48a20.67,20.67,0,1,1,20.67-20.67A20.69,20.69,0,0,1,548.56,361.48Zm0-33.33a12.67,12.67,0,1,0,12.67,12.66A12.68,12.68,0,0,0,548.56,328.15Z"/><path class="cls-4" d="M519.05,449.41a20.67,20.67,0,1,1,20.66-20.67A20.69,20.69,0,0,1,519.05,449.41Zm0-33.33a12.67,12.67,0,1,0,12.66,12.66A12.68,12.68,0,0,0,519.05,416.08Z"/><path class="cls-4" d="M519.05,273.55a20.67,20.67,0,1,1,20.66-20.67A20.69,20.69,0,0,1,519.05,273.55Zm0-33.33a12.67,12.67,0,1,0,12.66,12.66A12.68,12.68,0,0,0,519.05,240.22Z"/><path class="cls-1" d="M343,20c178.39,0,323,144.61,323,323S521.38,666,343,666,20,521.38,20,343,164.61,20,343,20m0-20A343.08,343.08,0,0,0,209.48,659,343.08,343.08,0,0,0,476.51,27,340.89,340.89,0,0,0,343,0Z"/></g></g></svg>