<svg xmlns="http://www.w3.org/2000/svg" viewBox="0 0 685.99 685.99"><defs><style>.cls-1{fill:#fff;}.cls-2{fill:#4dbdeb;}.cls-3{fill:#f0f7f7;}.cls-4{fill:#00405c;}.cls-5{fill:#ffd262;}.cls-6{fill:#0075a8;}</style></defs><g id="Layer_2" data-name="Layer 2"><g id="Layer_1-2" data-name="Layer 1"><path class="cls-1" d="M343,676A333,333,0,0,1,107.53,107.53,333,333,0,0,1,578.46,578.46,330.85,330.85,0,0,1,343,676Z"/><path class="cls-2" d="M343,20c178.39,0,323,144.61,323,323S521.38,666,343,666,20,521.38,20,343,164.61,20,343,20m0-20A343.08,343.08,0,0,0,209.48,659,343.08,343.08,0,0,0,476.51,27,340.89,340.89,0,0,0,343,0Z"/><path class="cls-3" d="M533.68,555.81H152.31a22.13,22.13,0,0,1-22.13-22.13V152.31a22.13,22.13,0,0,1,22.13-22.13H533.68a22.13,22.13,0,0,1,22.13,22.13V533.68a22.13,22.13,0,0,1-22.13,22.13Z"/><path class="cls-3" d="M533.68,130.18H516.52a22.13,22.13,0,0,1,22.13,22.13V533.68a22.13,22.13,0,0,1-22.13,22.13h17.16a22.13,22.13,0,0,0,22.13-22.13V152.31a22.13,22.13,0,0,0-22.13-22.13Z"/><path class="cls-1" d="M152.31,555.81h17.16a22.13,22.13,0,0,1-22.13-22.13V152.31a22.13,22.13,0,0,1,22.13-22.13H152.31a22.13,22.13,0,0,0-22.13,22.13V533.68a22.13,22.13,0,0,0,22.13,22.13Z"/><path class="cls-4" d="M533.68,559.24H152.31a25.59,25.59,0,0,1-25.56-25.56V152.31a25.58,25.58,0,0,1,25.56-25.56H533.68a25.59,25.59,0,0,1,25.56,25.56V533.68a25.59,25.59,0,0,1-25.56,25.56ZM152.31,133.61a18.72,18.72,0,0,0-18.7,18.7V533.68a18.72,18.72,0,0,0,18.7,18.7H533.68a18.72,18.72,0,0,0,18.7-18.7V152.31a18.72,18.72,0,0,0-18.7-18.7Z"/><path class="cls-5" d="M387.87,219.93,343,175.05l-44.87,44.88V130.18h89.75Z"/><path class="cls-4" d="M533.68,559.24H152.31a25.59,25.59,0,0,1-25.56-25.56V152.31a25.58,25.58,0,0,1,25.56-25.56H533.68a25.59,25.59,0,0,1,25.56,25.56V533.68a25.59,25.59,0,0,1-25.56,25.56ZM152.31,133.61a18.72,18.72,0,0,0-18.7,18.7V533.68a18.72,18.72,0,0,0,18.7,18.7H533.68a18.72,18.72,0,0,0,18.7-18.7V152.31a18.72,18.72,0,0,0-18.7-18.7Z"/><path class="cls-4" d="M387.87,223.36a3.42,3.42,0,0,1-2.43-1L343,179.91l-42.44,42.45a3.44,3.44,0,0,1-5.86-2.43V130.18a3.44,3.44,0,0,1,3.43-3.43h89.75a3.44,3.44,0,0,1,3.43,3.43v89.75a3.42,3.42,0,0,1-2.12,3.17A3.33,3.33,0,0,1,387.87,223.36ZM343,171.62a3.43,3.43,0,0,1,2.43,1l39,39v-78H301.55v78l39-39A3.43,3.43,0,0,1,343,171.62Z"/><path class="cls-5" d="M343,395.38l-51.71,27.19L301.16,365l-41.83-40.78,57.81-8.4L343,263.42l25.86,52.39,57.81,8.4L384.83,365l9.87,57.58Z"/><path class="cls-4" d="M394.7,426a3.46,3.46,0,0,1-1.59-.39L343,399.26l-50.11,26.35a3.43,3.43,0,0,1-5-3.62l9.57-55.8-40.54-39.52a3.43,3.43,0,0,1,1.9-5.85l56-8.15,25.06-50.77a3.44,3.44,0,0,1,6.16,0l25.05,50.77,56,8.15a3.43,3.43,0,0,1,1.9,5.85l-40.54,39.52,9.57,55.8a3.44,3.44,0,0,1-1.37,3.36A3.47,3.47,0,0,1,394.7,426Zm-128-99.39,36.86,35.92a3.41,3.41,0,0,1,1,3l-8.7,50.72,45.56-24a3.46,3.46,0,0,1,3.19,0l45.56,24-8.71-50.72a3.46,3.46,0,0,1,1-3l36.86-35.93-50.94-7.4a3.43,3.43,0,0,1-2.58-1.87L343,271.18l-22.77,46.15a3.47,3.47,0,0,1-2.59,1.88Z"/><path class="cls-6" d="M419.36,504.3H529.25v25H419.36Z"/><path class="cls-4" d="M529.25,532.69H419.36a3.44,3.44,0,0,1-3.43-3.43v-25a3.43,3.43,0,0,1,3.43-3.43H529.25a3.43,3.43,0,0,1,3.44,3.43v25a3.44,3.44,0,0,1-3.44,3.43Zm-106.46-6.87h103V507.73h-103Z"/><path class="cls-6" d="M468.15,444.28,456,429.79,443.76,415.3l-12.2,14.49-12.2,14.49h14.57v43.36h19.65V444.28Z"/><path class="cls-4" d="M453.59,491.07H433.93a3.43,3.43,0,0,1-3.43-3.43V447.71H419.36a3.43,3.43,0,0,1-2.62-5.64l24.39-29a3.43,3.43,0,0,1,5.25,0l24.4,29a3.44,3.44,0,0,1-2.63,5.64H457v39.93a3.43,3.43,0,0,1-3.43,3.43Zm-16.23-6.86h12.79V444.28a3.44,3.44,0,0,1,3.43-3.44h7.19l-17-20.21-17,20.21h7.19a3.44,3.44,0,0,1,3.43,3.44v39.93Z"/><path class="cls-6" d="M529.26,444.28l-12.2-14.49-12.2-14.49-12.19,14.49-12.2,14.49H495v43.36h19.66V444.28Z"/><path class="cls-4" d="M514.69,491.07H495a3.44,3.44,0,0,1-3.43-3.43V447.71H480.47a3.44,3.44,0,0,1-2.63-5.64l24.4-29a3.54,3.54,0,0,1,5.25,0l24.39,29a3.43,3.43,0,0,1-2.62,5.64H518.13v39.93A3.44,3.44,0,0,1,514.69,491.07Zm-16.22-6.86h12.79V444.28a3.44,3.44,0,0,1,3.43-3.44h7.19l-17-20.21-17,20.21H495a3.43,3.43,0,0,1,3.43,3.44v39.93Z"/><path class="cls-4" d="M147.34,230a3.44,3.44,0,0,1-3.43-3.43v-20.6a3.44,3.44,0,0,1,6.87,0v20.6A3.44,3.44,0,0,1,147.34,230Z"/></g></g></svg>