<svg xmlns="http://www.w3.org/2000/svg" viewBox="0 0 685.99 685.99"><defs><style>.cls-1{fill:#fff;}.cls-2{fill:#4dbdeb;}.cls-3{fill:#f0f7f7;}.cls-4{fill:#00405c;}.cls-5{fill:#ffd262;}.cls-6{fill:#0075a8;}</style></defs><g id="Layer_2" data-name="Layer 2"><g id="Layer_1-2" data-name="Layer 1"><path class="cls-1" d="M343,676A333,333,0,0,1,107.53,107.53,333,333,0,0,1,578.46,578.46,330.85,330.85,0,0,1,343,676Z"/><path class="cls-2" d="M343,20c178.39,0,323,144.61,323,323S521.38,666,343,666,20,521.38,20,343,164.61,20,343,20m0-20A343.08,343.08,0,0,0,209.48,659,343.08,343.08,0,0,0,476.51,27,340.89,340.89,0,0,0,343,0Z"/><path class="cls-3" d="M573.29,498.15H112.69A17.7,17.7,0,0,1,95,480.45V196.86a17.7,17.7,0,0,1,17.7-17.7h460.6a17.69,17.69,0,0,1,17.7,17.7V480.45A17.69,17.69,0,0,1,573.29,498.15Z"/><path class="cls-3" d="M573.29,179.16h-20a17.69,17.69,0,0,1,17.7,17.7V480.45a17.69,17.69,0,0,1-17.7,17.7h20a17.69,17.69,0,0,0,17.7-17.7V196.86a17.69,17.69,0,0,0-17.7-17.7Z"/><path class="cls-1" d="M112.69,498.15h20a17.7,17.7,0,0,1-17.7-17.7V196.86a17.7,17.7,0,0,1,17.7-17.7h-20A17.7,17.7,0,0,0,95,196.86V480.45A17.7,17.7,0,0,0,112.69,498.15Z"/><path class="cls-4" d="M573.29,502.15H112.69A21.73,21.73,0,0,1,91,480.45V196.86a21.73,21.73,0,0,1,21.7-21.7h460.6a21.72,21.72,0,0,1,21.7,21.7V480.45A21.72,21.72,0,0,1,573.29,502.15Zm-460.6-319A13.71,13.71,0,0,0,99,196.86V480.45a13.72,13.72,0,0,0,13.7,13.7h460.6a13.71,13.71,0,0,0,13.7-13.7V196.86a13.71,13.71,0,0,0-13.7-13.7Z"/><path class="cls-4" d="M113,253.57a4,4,0,0,1-4-4v-24a4,4,0,0,1,8,0v24A4,4,0,0,1,113,253.57Z"/><path class="cls-5" d="M418.24,419.67c-.48,0-.95,0-1.43,0a81.65,81.65,0,0,0-147.64,0c-.47,0-.95,0-1.43,0a78.48,78.48,0,0,0-78.47,78.48H496.73A78.49,78.49,0,0,0,418.24,419.67Z"/><path class="cls-6" d="M504.8,563.87H181.19V540.16a17.71,17.71,0,0,1,17.7-17.7H487.1a17.71,17.71,0,0,1,17.7,17.7Z"/><path class="cls-4" d="M487.1,522.46h-20a17.71,17.71,0,0,1,17.7,17.7v23.71h20V540.16A17.71,17.71,0,0,0,487.1,522.46Z"/><path class="cls-2" d="M198.89,522.46h20a17.71,17.71,0,0,0-17.7,17.7v23.71h-20V540.16A17.71,17.71,0,0,1,198.89,522.46Z"/><path class="cls-4" d="M248,498.15H438v24.31H248Z"/><path class="cls-4" d="M504.8,567.87H181.19a4,4,0,0,1-4-4V540.16a21.73,21.73,0,0,1,21.7-21.7H487.1a21.73,21.73,0,0,1,21.7,21.7v23.71A4,4,0,0,1,504.8,567.87Zm-319.61-8H500.8V540.16a13.72,13.72,0,0,0-13.7-13.7H198.89a13.72,13.72,0,0,0-13.7,13.7v19.71Z"/><path class="cls-4" d="M438,526.46H248a4,4,0,0,1-4-4V498.15a4,4,0,0,1,4-4H438a4,4,0,0,1,4,4v24.31A4,4,0,0,1,438,526.46Zm-186-8H434V502.15H252Z"/><path class="cls-4" d="M496.72,502.15H189.26a4,4,0,0,1-4-4,82.58,82.58,0,0,1,81.44-82.47,85.65,85.65,0,0,1,152.59,0,82.57,82.57,0,0,1,81.43,82.47,4,4,0,0,1-4,4Zm-303.35-8H492.62a74.57,74.57,0,0,0-74.38-70.48l-.7,0-.66,0a3.86,3.86,0,0,1-3.68-2.29,77.65,77.65,0,0,0-140.41,0,3.86,3.86,0,0,1-3.68,2.29l-.67,0-.7,0a74.58,74.58,0,0,0-74.37,70.48Z"/><path class="cls-6" d="M388.69,268.23H297.3l-34.91,55.21v34.12h161.2V323.44Z"/><path class="cls-4" d="M407.68,298.27v59.29h15.91V323.44Z"/><path class="cls-2" d="M278.31,298.27v59.29H262.39V323.44Z"/><path class="cls-4" d="M423.59,361.57H262.39a4,4,0,0,1-4-4V323.44a4.07,4.07,0,0,1,.62-2.14l34.91-55.2a4,4,0,0,1,3.38-1.87h91.39a4,4,0,0,1,3.38,1.87L427,321.3a4,4,0,0,1,.62,2.14v34.13a4,4,0,0,1-4,4Zm-157.2-8h153.2v-29l-33.11-52.37h-87L266.39,324.6Z"/><path class="cls-3" d="M388.69,357.57H297.3V185.41A164.19,164.19,0,0,1,343,71.76a164.15,164.15,0,0,1,45.7,113.65Z"/><path class="cls-3" d="M345,73.93a186.43,186.43,0,0,1,27.79,98.31V357.56h15.92V185.41A164.19,164.19,0,0,0,345,73.93Z"/><path class="cls-1" d="M341,73.93a186.43,186.43,0,0,0-27.79,98.31V357.56H297.3V185.41A164.19,164.19,0,0,1,341,73.93Z"/><path class="cls-4" d="M388.69,361.57H297.3a4,4,0,0,1-4-4V185.41A167.45,167.45,0,0,1,340.11,69a4.12,4.12,0,0,1,5.77,0,167.41,167.41,0,0,1,46.81,116.42V357.57A4,4,0,0,1,388.69,361.57Zm-87.39-8h83.39V185.41A159.4,159.4,0,0,0,343,77.62,159.39,159.39,0,0,0,301.3,185.41V353.57Z"/><path class="cls-6" d="M357.79,382.32H328.2V283a14.8,14.8,0,1,1,29.59,0Z"/><path class="cls-4" d="M357.79,386.32H328.2a4,4,0,0,1-4-4V283a18.8,18.8,0,1,1,37.59,0v99.29a4,4,0,0,1-4,4Zm-25.59-8h21.59V283a10.8,10.8,0,1,0-21.59,0v95.29Z"/><circle class="cls-6" cx="342.99" cy="166.32" r="19.92"/><path class="cls-4" d="M343,190.24a23.92,23.92,0,1,1,23.93-23.92A23.95,23.95,0,0,1,343,190.24Zm0-39.84a15.92,15.92,0,1,0,15.93,15.92A15.94,15.94,0,0,0,343,150.4Z"/><path class="cls-5" d="M152.47,324l19.47-19.48,29.53,49,29.53,49L182,373l-49-29.53Z"/><path class="cls-5" d="M533.52,324l-19.47-19.48-29.53,49-29.53,49L504,373l49-29.53Z"/><path class="cls-4" d="M231,406.49a4,4,0,0,1-2.06-.57l-98-59.07a4,4,0,0,1-.76-6.25l38.94-38.94a4,4,0,0,1,6.25.76l59.07,98a4,4,0,0,1-3.43,6.06Zm-91.56-63.85,79.81,48.09-48.1-79.8-15.86,15.85Zm13-18.68h0Z"/><path class="cls-4" d="M455,406.49a4,4,0,0,1-3.43-6.06l59.07-98a4,4,0,0,1,6.25-.76l38.94,38.94a4,4,0,0,1-.76,6.25l-98,59.07a4,4,0,0,1-2.06.57Zm59.85-95.56-48.1,79.8,79.81-48.09-15.86-15.86Z"/><path class="cls-4" d="M266.51,467.06l6.76-.59a14.94,14.94,0,0,0,2.23,6.67,12.18,12.18,0,0,0,5.45,4.21,20.63,20.63,0,0,0,8.31,1.61,19.93,19.93,0,0,0,7.24-1.22,10.09,10.09,0,0,0,4.68-3.34,7.77,7.77,0,0,0,1.53-4.64,7,7,0,0,0-1.48-4.45,11,11,0,0,0-4.88-3.2,98.14,98.14,0,0,0-9.64-2.64,48.89,48.89,0,0,1-10.45-3.38,14.51,14.51,0,0,1-5.78-5,12.34,12.34,0,0,1-1.91-6.74,13.79,13.79,0,0,1,2.33-7.67,14.44,14.44,0,0,1,6.8-5.41,25.81,25.81,0,0,1,9.94-1.85,27.23,27.23,0,0,1,10.62,1.94,15.4,15.4,0,0,1,7.07,5.71,16.37,16.37,0,0,1,2.66,8.53l-6.87.52q-.56-5.13-3.75-7.76t-9.44-2.62q-6.49,0-9.47,2.38a7.15,7.15,0,0,0-3,5.75,6.15,6.15,0,0,0,2.11,4.8q2.07,1.89,10.8,3.86a72.29,72.29,0,0,1,12,3.45,16.47,16.47,0,0,1,7,5.53,13.39,13.39,0,0,1,2.26,7.7,14.76,14.76,0,0,1-2.48,8.15,16.3,16.3,0,0,1-7.11,5.94,24.72,24.72,0,0,1-10.44,2.13,31.15,31.15,0,0,1-12.32-2.15,17.16,17.16,0,0,1-7.79-6.44A18.26,18.26,0,0,1,266.51,467.06Z"/><path class="cls-4" d="M319.55,484.46V430.31h39.16v6.39h-32v16.58h30v6.36h-30v18.43H360v6.39Z"/><path class="cls-4" d="M367.69,458.09q0-13.48,7.24-21.12t18.69-7.62a25.9,25.9,0,0,1,13.52,3.58,23.35,23.35,0,0,1,9.18,10,32.43,32.43,0,0,1,3.16,14.54,32,32,0,0,1-3.32,14.74,22.7,22.7,0,0,1-9.42,9.84,26.93,26.93,0,0,1-13.15,3.35,25.54,25.54,0,0,1-13.67-3.7,23.73,23.73,0,0,1-9.13-10.08A30.55,30.55,0,0,1,367.69,458.09Zm7.39.11q0,9.78,5.26,15.42a18.39,18.39,0,0,0,26.53-.05q5.22-5.7,5.22-16.15a27.73,27.73,0,0,0-2.23-11.54,17.17,17.17,0,0,0-6.54-7.65,17.73,17.73,0,0,0-9.66-2.71,18.36,18.36,0,0,0-13.1,5.22Q375.09,446,375.08,458.2Z"/></g></g></svg>