<svg xmlns="http://www.w3.org/2000/svg" xmlns:xlink="http://www.w3.org/1999/xlink" viewBox="0 0 2593.71 1168.62"><defs><style>.cls-1{fill:none;}.cls-2{fill:#f0f7f7;}.cls-3{fill:#00405c;}.cls-4{fill:#ed975d;}.cls-5{fill:#0075a8;}.cls-6{fill:#003b54;}.cls-7{fill:#006591;}.cls-8{fill:#ffb27d;}.cls-9{fill:#008ecc;}.cls-10{fill:#005e87;}.cls-11{fill:#2e3552;}.cls-12{fill:#409ec4;}.cls-13{fill:#4dbdeb;}.cls-14{fill:#d39e7a;}.cls-15{fill:#e0b594;}.cls-16{fill:#ffd262;}.cls-17{fill:#00608a;}.cls-18{fill:#004361;}.cls-19{fill:#002738;}.cls-20{fill:#e4b34f;}.cls-21{clip-path:url(#clip-path);}.cls-22{fill:#6bb7bf;}.cls-23{fill:#599dad;}.cls-24{fill:#ddebfd;}.cls-25{fill:#739af0;}.cls-26{fill:#a8c3f7;}.cls-27{fill:#a8d29f;}.cls-28,.cls-29{fill:#82b378;}.cls-29{opacity:0.5;}.cls-30{fill:#ffb93e;}.cls-31{fill:#ffa412;}.cls-32{fill:#e2810e;}</style><clipPath id="clip-path"><path class="cls-1" d="M1584.17,790.34c-140.55,129.26-315.42,129-493.29,57.34h0C986.76,805.76,876.65,733,816.8,639.24,735.85,514.15,764.09,406.55,826.51,272c82.86-178.75,217-284.71,414.34-262.85,253.26,28,413.14,212.24,456.89,456.9C1719.79,589.25,1673.3,708.4,1584.17,790.34Z"/></clipPath></defs><g id="Layer_2" data-name="Layer 2"><g id="Layer_1-2" data-name="Layer 1"><path class="cls-2" d="M1584.17,790.34c-140.55,129.26-315.42,129-493.29,57.34h0C986.76,805.76,876.65,733,816.8,639.24,735.85,514.15,764.09,406.55,826.51,272c82.86-178.75,217-284.71,414.34-262.85,253.26,28,413.14,212.24,456.89,456.9C1719.79,589.25,1673.3,708.4,1584.17,790.34Z"/><path class="cls-2" d="M101.91,1162.51s-154.82-522.67,129.29-681,455.39,94.27,555.3,226.12S1318,1100.5,1579.63,855c275.69-258.61,412.46-332,609.16-338.25s115.52,205,281,286.71S2555,1147.11,2401.53,1166Z"/><path class="cls-3" d="M1926.39,1107s-3.34,53.82-13.75,54.6c-1.39.1-52.82.1-52.82.1l-65.66-.38s.43-15.82,19.62-19.17,51.32-16.83,63-42.2C1889,1073.31,1926.39,1107,1926.39,1107Z"/><path class="cls-4" d="M1961.43,470.44s-31,17.62-39.67,17.62-42.74-6.58-52.23-1.73-26.68,24.37-29.91,30.75c-5.8,11.46,23.34,6.4,37.12-3.37a8.72,8.72,0,0,1,6.88-1.42c7.13,1.56,22,4.25,29.11,1.6,9.62-3.56,60.31-7.51,60.31-7.51Z"/><path class="cls-5" d="M2197.27,230.38s-32.14,228.38-85.34,248.84c-26.26,10.09-142.29,33-176.61,35.27,0,0-8.41-6.82-6.36-34.59,0,0,121.56-44.63,138.84-68.9,25.7-36.12-16-147.56,16.29-181.49S2170.66,181,2197.27,230.38Z"/><path class="cls-6" d="M2186.44,711.53a401.94,401.94,0,0,1-31.39,44.91C2120.51,800,2082.92,836,2076.37,870a154.29,154.29,0,0,1-6.07,21.75c-2.74,7.78-6.12,16-10,24.43-14.65,31.83-36.57,67.5-58.45,99.92-37.83,56.06-68.79,93.67-68.79,93.67s-9.92,7.73-38.29,7.72c-7.89,0-34.47-4.32-34.47-4.32,2.61-6.54,34-81,72-175.53,15.46-38.4,31.89-79.24,47.75-118.62q3.17-7.89,6.31-15.69c4.85-12,9.62-23.92,14.28-35.47l64.2-159.53s142.84-54.1,157.67-19C2234.76,618.17,2224.8,646.49,2186.44,711.53Z"/><path class="cls-3" d="M2077.44,953.26s45.37,29.15,41,38.62c-.59,1.26-25.66,46.17-25.66,46.17l-32.34,57.14s-13.6-8.08-7.17-26.47,10.32-53-6.16-75.53C2029.74,969.5,2077.44,953.26,2077.44,953.26Z"/><path class="cls-7" d="M2051.66,1009.16s31.94-29.67,36.94-48c0,0-116.85-140-142.19-171.38-1.16-1.43-.87-3,.67-4.75,19.13-21.58,231.73-65.44,259.51-108.67a134.06,134.06,0,0,0,18-41.38c6.3-26.38,1.32-44.6,1.32-44.6l-212.32-6.14s-176.78,110.07-196.8,185.12S2051.66,1009.16,2051.66,1009.16Z"/><path class="cls-3" d="M1947.08,785c19.13-21.58,231.73-65.44,259.51-108.67a134.06,134.06,0,0,0,18-41.38V608.09l-90.24-14.19s-25.59,78.74-101.38,108.27C1961.94,729.83,1948.5,778.91,1947.08,785Z"/><path class="cls-8" d="M2071.64,216c43,11.1,114.16-28.69,114.16-28.69s-27.65-18.59-37.89-59.4c-.53-2.06-1-4.17-1.41-6.33l-22.06-4.68-32.8,29.39s.74,12.21,4.85,33.18c.71,3.66,1.52,7.59,2.47,11.77A101.29,101.29,0,0,0,2071.64,216Z"/><path class="cls-9" d="M2231.28,394c-6.15,82.74,1.94,208.59-5,230.39-6,18.8-74.65,7.62-102,1.34-10.14-2.32-22.42-5.64-35.1-9.56-35.38-11-73.93-26.6-78.07-38.22a8.94,8.94,0,0,1-.38-1.33,10.53,10.53,0,0,1,.07-4.87c1.38-5.92,6.69-12.32,7.32-27,.7-16.37.59-35.64,1.21-56.36,0-2.33.06-4.88.32-7.2v-.85l0-1.33c.59-23.11,1.8-47.4,3.2-71.5.89-15.13,1.92-30.12,3.11-44.48,3.09-37.07,7.24-70,12.75-90.87,9-34,28.82-56.13,46.87-72.36l13.06-11.2c14.57,3.18,31.8,1.07,47.38-6.31,16.86-8,22.68-13.75,25.62-11.58C2210.53,200.8,2238.54,292.87,2231.28,394Z"/><path class="cls-5" d="M2089.09,616.2c-35.38-11-73.93-26.6-78.07-38.22a8.94,8.94,0,0,1-.38-1.33c0-1.62,0-3.25.07-4.87,1.38-5.92,6.69-12.32,7.32-27,.7-16.37.59-35.64,1.21-56.36,0-2.33.06-4.88.32-7.2v-.85l0-1.33,143-182.22S2258.78,497.05,2089.09,616.2Z"/><path class="cls-4" d="M2091.64,146.28s.74,12.21,4.85,33.18c32-10.35,46.56-39.29,51.42-51.56-.53-2.06-1-4.17-1.41-6.33l-22.06-4.68Z"/><path class="cls-8" d="M2087.33,164.78s69.86-11.66,61.93-55.06-4.26-74.13-49.2-68.52S2049.5,65,2048.63,80.08,2069,166.69,2087.33,164.78Z"/><polygon class="cls-5" points="1983.9 523.64 1809.48 527.37 1759.9 374.76 1753.74 376.76 1806.16 538.09 1984.12 534.29 1983.9 523.64"/><path class="cls-8" d="M1980.56,542.79s-57.18,15.08-78.63,13.49-39.27-11.78-42-17.1-8.37-14.77,6.23-13,34.53,4.85,35.15,2.05-11.9-2.54-11.9-2.54-3.79-5.51,1-5.7,18.66-4,23.82-1.39,9.93,12.11,13.7,11.71,47.85-19.85,47.85-19.85Z"/><path class="cls-9" d="M2183.09,239.75s-6.76,230.53-57.39,256.73c-25,12.93-137.78,48.46-171.64,54.53,0,0-9.11-5.86-10.13-33.68,0,0,115.9-57.75,130.39-83.78,21.56-38.74-32.13-144.91-3.82-182.18S2151.2,193.61,2183.09,239.75Z"/><path class="cls-10" d="M2147.91,127.9s.8-14.89-8.39-23.42c0,0,3.2-14.93-2.71-17.39s-7.13,10.09-9.84,8.12-14.76-11.32-19.93-25.1-52.46,2.91-58,5.39-23.23-6.62-26.68-14c0,0,9.84-7.88,14.27-13.78S2072.1,2,2115.41,13.27s49.21,32,46.75,49.7S2165.64,122,2147.91,127.9Z"/><rect class="cls-11" y="1161.74" width="2593.71" height="6.88" rx="2.94"/><path class="cls-3" d="M825.44,987.73s-27.93-32.58-1.73-53.28c0,0,19.15-11.59,34.75-10.65,0,0-22.11,37.09-15,40.78s21.67-43.1,21.67-43.1,43.55-4.22,57.57,2.51c0,0-37.24,30.47-29.4,32.29s48.07-28.1,48.07-28.1,40.54,6.9,38.38,31.63-16.14,32.37-22.28,31.71-42-14.36-42.83-9.33,20.83,21.47,36,22.24c0,0-28.58,31.52-47.58,22.42s-20.61-23.52-32.45-28.93-22-5.39-17.06.13,26.32,10.87,33.09,22.85,12.84,20.06-6.81,17.1-51.6-17.34-53-33.81Z"/><path class="cls-3" d="M959.87,960.48s-110.12-4.24-134.43,27.25c0,0-5.38,16.1-21.93,30.77l-2.58,7s19.08-20.12,25.91-21.34C826.84,1004.19,816.16,965.18,959.87,960.48Z"/><path class="cls-3" d="M803.51,1018.5s-23.63,17.48-25.28,48.71l4.29.38s7.55-32.29,21.19-44.92S803.51,1018.5,803.51,1018.5Z"/><path class="cls-5" d="M727.79,946.75s44.43-24.87,23.7-58.64c0,0-16.59-20.73-34.36-26.06,0,0,9.48,50.35,0,51.53s-6.51-56.86-6.51-56.86-46.8-22.51-65.16-20.73c0,0,29,49.16,19.55,48S623,833,623,833s-48-8.89-55.68,19.54S572,895.22,579.12,897s52.72,1.18,51.53,7.11-32,15.4-49.16,10.07c0,0,19,46.79,43.83,44.42s32.58-17.77,48-19,26.65,3,19,7.1-33.76,1.36-46.2,11.94-22.51,17.09.6,21.83,64.56,1.77,72.85-16Z"/><path class="cls-3" d="M589.19,861.46s124.39,40.28,138.6,85.29c0,0-.59,20.14,11.85,43.24v8.89s-13-30.21-20.14-34.36C719.5,964.52,747.34,925.43,589.19,861.46Z"/><path class="cls-3" d="M739.64,990s19.18,29.13,8.25,64.59l-4.94-1.32s4.79-39.06-5.24-58.7S739.64,990,739.64,990Z"/><path class="cls-5" d="M798.47,912.44s-58.56-32.79-31.23-77.3c0,0,21.86-27.32,45.28-34.35,0,0-12.49,66.37,0,67.93s8.59-75,8.59-75S882.8,764.09,907,766.44c0,0-38.26,64.8-25.76,63.24s55.43-67.15,55.43-67.15,63.25-11.71,73.4,25.77-6.25,56.21-15.62,58.56-69.49,1.56-67.93,9.37,42.16,20.3,64.81,13.27c0,0-25,61.68-57.78,58.56s-42.95-23.42-63.25-25-35.13,3.91-25,9.37,44.5,1.79,60.9,15.73,29.67,22.53-.78,28.78-85.11,2.34-96-21.08Z"/><path class="cls-3" d="M981.18,800s-164,53.09-182.71,112.43c0,0,.78,26.55-15.62,57v11.71S800,941.33,809.4,935.87C809.4,935.87,772.7,884.34,981.18,800Z"/><path class="cls-3" d="M782.85,969.44s-25.28,38.4-10.87,85.14l6.51-1.74s-6.32-51.49,6.91-77.38S782.85,969.44,782.85,969.44Z"/><path class="cls-12" d="M796.5,1156a114.71,114.71,0,0,0,114.71-114.71H681.79A114.71,114.71,0,0,0,796.5,1156Z"/><path class="cls-13" d="M824.72,1155.07a114.76,114.76,0,0,1-129-113.83h28.5A114.73,114.73,0,0,0,824.72,1155.07Z"/><path class="cls-12" d="M912.79,1161.78H680.2a14.16,14.16,0,0,1,14.16-14.15H898.64a14.16,14.16,0,0,1,14.15,14.15Z"/><rect class="cls-3" x="678.02" y="1041.24" width="235.8" height="3.52"/><path class="cls-14" d="M2359.23,1155.54c-27.28-27.87-75.35-47.06-130.87-49.32v-92.16h85.79c2.12,0,4-1.85,5.22-4.71a18.81,18.81,0,0,0,1.34-7.19V998c0-6.55-2.95-11.9-6.56-11.9h-85.79V766.59a11.05,11.05,0,0,0-11-11h0a11.05,11.05,0,0,0-11,11V986.1h-85.79c-3.61,0-6.57,5.35-6.57,11.9v4.16a18.72,18.72,0,0,0,1.43,7.39c1.21,2.75,3.07,4.51,5.14,4.51h85.79v92.16c-55.53,2.26-103.59,21.45-130.88,49.32q-3,3-5.6,6.2h295Q2362.22,1158.58,2359.23,1155.54Z"/><path class="cls-15" d="M2228.36,1106.63c-38.74,3.59-72,22.29-91.31,48.91-1.47,2-2.85,4.09-4.14,6.2h-27.3c1.3-2.11,2.68-4.17,4.15-6.2,21.5-29.71,60.46-49.54,104.95-49.54Q2221.64,1106,2228.36,1106.63Z"/><rect class="cls-16" x="2054.23" y="681.78" width="318.59" height="81.84" rx="13.23"/><g id="man"><path class="cls-8" d="M742.5,260.57c-4.89,13.17-13.38,28.46-22.29,32.26-10.11,4.31-14.32,10.4-14.32,10.4l-8.16-4.73L688,292.83s.23-1.08.71-2.84,1.2-4.2,2.18-6.91a9.43,9.43,0,0,0,1.16-8.67c-1.83-4.82-1.46-12.27,1.66-16.82s6.14-15.73,8-15.39c4.56.78-2.24,16.16-.28,19,1.76,2.58,4,1.7,4.37,1.5l.08,0c12.78-5.62,28.28-35.92,35.15-31.83C743.6,232.37,744.59,255,742.5,260.57Z"/><path class="cls-17" d="M698.28,278.92l16,11.25a2.52,2.52,0,0,0,3.5-.61l41-58.37a2.52,2.52,0,0,0-.61-3.5l-16-11.25a2.52,2.52,0,0,0-3.5.61l-41,58.36A2.54,2.54,0,0,0,698.28,278.92Z"/><path class="cls-18" d="M712.94,289.22l9.39,6.6a1.93,1.93,0,0,0,2.67-.47L766.7,236a1.91,1.91,0,0,0-.46-2.66l-9.39-6.6a1.9,1.9,0,0,0-2.66.47l-41.71,59.34A1.92,1.92,0,0,0,712.94,289.22Z"/><path class="cls-18" d="M468.57,195.16s81.48,142.12,111,168.26L688,282.62s15.73,4.82,22.62,20.61c0,0-65.82,134.09-130.62,139.78S424.23,282.28,424.23,282.28Z"/><path class="cls-18" d="M284.19,1161.74H237.11c-5.93-3.22-11.2-10.59-12.87-21.57-2.3-15.17-19.3-23.44-23-35.85s15.17-29.86,15.17-29.86l3.15-4.06,3.28-4.21,31.24,7.35s.78,7.45,1.24,16.93c.34,6.83.52,14.74.14,21.67-.92,16.54,4.63,34.35,19.32,37.57C285.67,1152.09,285.19,1158.53,284.19,1161.74Z"/><path class="cls-18" d="M557.4,1161.74H449.74c-5.18-6.32-3.27-29.64-2.49-37.25.17-1.54.28-2.43.28-2.43s36.76-29.41,41.81-6.89c.16.71.34,1.4.55,2.08,6.36,21.06,34.9,30.63,51.37,33.3C552,1152.28,555.94,1157.85,557.4,1161.74Z"/><path class="cls-3" d="M536.89,560.79s-5.58,69.65-12.14,153.37C515.83,827.89,505.1,967.59,504,994.05c-1.83,46-9.19,119.46-9.19,119.46s-17.45,17.47-52.38,10.11c0,0-31.12-104.94-40-216l-.42-5.48c-8.27-113-21.13-351-21.13-351Z"/><path class="cls-19" d="M536.89,560.79s-5.58,69.65-12.14,153.37L402.46,907.65l-.42-5.48c-8.27-113-21.13-351-21.13-351Z"/><path class="cls-3" d="M511.4,569.06S410.78,821.3,344.61,939.84s-86.83,151.62-86.83,151.62-37.91-15.16-41.36-25.5c0,0,25.3-228.85,69.61-284.63,25-31.53,54.45-126.12,55.83-159.2s9-98.56,9-98.56Z"/><path class="cls-8" d="M486.35,201.34C447,213.75,379,180.26,379,180.26s36.26-27.2,34.36-83.78l30.4,24.5,20.65,16.65a246.18,246.18,0,0,1-2.34,27c-.6,4.52-1.34,9.56-2.27,15.07A94.32,94.32,0,0,1,486.35,201.34Z"/><path class="cls-4" d="M464.4,137.63a246.18,246.18,0,0,1-2.34,27c-22.88-3.93-48.84-40.91-48.84-40.91,11.65-3.37,21.85-4,30.53-2.74Z"/><path class="cls-8" d="M476.43,136.69s-64.95,10.79-71.05-29.76S386.8,40.47,428,31.86s51.61,5.66,56.93,18.7S493.16,132.84,476.43,136.69Z"/><path class="cls-17" d="M541.23,566.59a6.39,6.39,0,0,1-4.14,1.57c-14.76-.2-57.82,8-94.25,4.26-30.72-2.95-57.9-12-87.09-25.13-3.88-1.74-12.8-6.5-12.6-10.83.13-4.75.6-11.63,1.19-20.3,2.07-30.13,5.67-82,2.16-141.75-.63-11.14-1-22.18-1-33.06-.3-81,15.77-152.31,48.06-176.44,2.76-2,19.69,6.3,35.25,14,14.38,7.1,28.75,7.88,42.33,5.13l13.58,12c16.54,15.36,34.66,36.23,42.53,67.93,6.71,27,10.64,75.61,12.8,126,1,22.84,1.78,45.88,2,67.74v.79c.19,2.16.19,4.53.19,6.7C543,521.3,542.21,565.8,541.23,566.59Z"/><path class="cls-18" d="M344.34,516.16c2.07-30.13,5.67-82,2.16-141.75-.63-11.14-1-22.18-1-33.06,13.46-32.63,24.45-56.29,24.45-56.29h33.9S428.7,454.84,344.34,516.16Z"/><path class="cls-20" d="M334,598.09l-144.6-20.6a34.65,34.65,0,0,0-39.09,29.34l-8.93,62.66a34.66,34.66,0,0,0,29.34,39.09l144.6,20.61a34.66,34.66,0,0,0,39.09-29.34l8.93-62.67A34.67,34.67,0,0,0,334,598.09Z"/><path class="cls-16" d="M342.12,616.77h0a34.86,34.86,0,0,0-24-20.93h0c-1.08-.26-2.19-.48-3.33-.64l-28.8-4.1,1.93-13.52a11.45,11.45,0,0,0-9.72-13l-7.51-1.07-30.23-4.31-5.45-.78a11.48,11.48,0,0,0-12.95,9.72l-1.92,13.53-49.7-7.09a34.8,34.8,0,0,0-39.24,29.45l-9,63.39a34.8,34.8,0,0,0,29.45,39.24L296,727.27a33.46,33.46,0,0,0,7.53.24h0a34.8,34.8,0,0,0,31.69-29.7l9-63.38A34.52,34.52,0,0,0,342.12,616.77Zm-113-47.58a4.28,4.28,0,0,1,3.55-3.61,4.56,4.56,0,0,1,1.28,0l6.42.91,23.8,3.4,13,1.84a4.29,4.29,0,0,1,3.63,4.83l-1.93,13.53-51.65-7.37Z"/><path class="cls-8" d="M272.59,538.53c0-.77.08-1.56.14-2.38.3-4,7.9-14.15,7.9-14.15l-19-9.89-7.54,12.46c-11.38,9.06-11.59,9.22-9.52,26.57,1.8,15-8,15.21-7.8,26s14.07,5.46,14.07,5.46c21.44-10.06,23.22-15.13,22.56-25.34,2,2.89,4.31,4.57,6.24,3.31,1.7-1.1-1.7-5.5-3.18-15.68C276.2,543.32,274.4,540.77,272.59,538.53Z"/><path class="cls-17" d="M261.32,529.75a111.23,111.23,0,0,0,25.44,1.42S323,419.2,327.67,409,435.33,277.68,435.33,277.68L392.43,170.3S281,356.38,269.71,382.53C251,425.74,244.53,522.61,244.53,522.61A46.7,46.7,0,0,0,261.32,529.75Z"/><path class="cls-17" d="M405.33,103s6.66-1.11,5.59-10.29-1.06-21.18,6.4-18.95,7.84,8.22,10.9,4.73,3.13-18.2,25.33-19.22,31.24,6.71,41.56,2.17S506,41.29,506,41.29s-2.94,5.59-7.38,7.36c0,0,17.23-23.56-2.71-39.72S455.61,3.34,444.06,4c-25.43,1.54-41.86,3.07-50.17,19.78S389,86.94,405.33,103Z"/></g><g class="cls-21"><path class="cls-4" d="M1325.12,543.66s-65.71-13.23-76.69-12.19-49,18.14-49.45,21.27,1.47,5.62,8.12,5.89,28.46-3.11,27.14-.42-64,16.72-64.36,29.42,34.77,35.36,64,36.18,85.66-34.57,90.57-35.13C1366,584,1325.12,543.66,1325.12,543.66Z"/><path class="cls-5" d="M1684.09,397.6c-25.67,32-47.08,56.76-58.35,65.77-9,7.16-20.31,14.49-33.32,21.82-93.69,52.88-273.9,106.53-273.9,106.53s-.13-.08-.36-.25a78.9,78.9,0,0,1-22.5-27.05c-6.86-13.88-5.45-22.49-3.41-27a12,12,0,0,1,2.72-4s216-138,233.22-152.39c9.79-8.15,45.26-90.73,74.15-160.73q6.06,8.77,11.74,17.84C1644.39,286.27,1667.78,340,1684.09,397.6Z"/><path class="cls-22" d="M1685.57,642q-2,5.79-4.29,11.51a358,358,0,0,1-25.23,51.7h0q-8.68,14.76-18.78,28.71a383,383,0,0,1-51.53,57.94c.1-1.44.22-2.89.32-4.32.15-2.23.31-4.44.46-6.63q.52-7.29,1-14.32c.14-1.82.27-3.63.4-5.41.82-11.59,1.6-22.59,2.33-32.9.22-3,.42-5.87.62-8.73l.18-2.53c.13-1.67.24-3.34.36-5s.21-2.95.31-4.4c0-.16,0-.3,0-.44.1-1.48.2-2.94.3-4.39.18-2.44.35-4.82.51-7.16.11-1.45.21-2.88.31-4.29.15-2.2.31-4.34.45-6.43,0-.51.08-1,.11-1.52.08-1,.14-2,.21-2.95,0-.5.07-1,.11-1.46v-.18q.21-2.8.39-5.46c0-.1,0-.19,0-.28.09-1.29.19-2.56.27-3.79l.09-1.23c0-.7.1-1.4.14-2.09s.09-1.12.12-1.67c.27-3.86.53-7.39.75-10.55,0-.45.07-.9.09-1.34s.07-.89.1-1.32c.06-.84.12-1.64.17-2.42.4-5.58.68-9.65.85-12,0-.25,0-.48,0-.69s0-.14,0-.2c0-.22,0-.42,0-.59.05-.67.08-1,.08-1Z"/><path class="cls-23" d="M1685.57,642q-2,5.79-4.29,11.51a358,358,0,0,1-25.23,51.7h0q-8.68,14.76-18.78,28.71a383,383,0,0,1-51.53,57.94c.1-1.44.22-2.89.32-4.32.15-2.23.31-4.44.46-6.63q.52-7.29,1-14.32c.14-1.82.27-3.63.4-5.41.82-11.59,1.6-22.59,2.33-32.9.22-3,.42-5.87.62-8.73l.18-2.53c.13-1.67.24-3.34.36-5s.21-2.95.31-4.4c0-.16,0-.3,0-.44.1-1.48.2-2.94.3-4.39.18-2.44.35-4.82.51-7.16.11-1.45.21-2.88.31-4.29.15-2.2.31-4.34.45-6.43,0-.51.08-1,.11-1.52.08-1,.14-2,.21-2.95,0-.5.07-1,.11-1.46v-.18q.21-2.8.39-5.46c0-.1,0-.19,0-.28.09-1.29.19-2.56.27-3.79l.09-1.23c0-.7.1-1.4.14-2.09s.09-1.12.12-1.67c.27-3.86.53-7.39.75-10.55,0-.45.07-.9.09-1.34s.07-.89.1-1.32c.06-.84.12-1.64.17-2.42.4-5.58.68-9.65.85-12,0-.25,0-.48,0-.69s0-.14,0-.2c0-.22,0-.42,0-.59.05-.67.08-1,.08-1Z"/><path class="cls-9" d="M1699.82,466.09A343.92,343.92,0,0,1,1685.57,642q-2,5.79-4.29,11.51a358,358,0,0,1-25.23,51.7h0q-8.68,14.76-18.78,28.71c-19.25-2.78-34.92-5.06-44.57-5.3a12.64,12.64,0,0,1-8.15-3.44c-1.91-1.66-.1-90.61,5.77-202.65.17-4.31.34-9.07.9-13.36l0-1.58c.36-7.39.75-14.87,1.16-22.4q.38-6.51.76-13.09c1.81-29.88,4-60.44,6.49-90.92q.36-4.4.7-8.76c3.85-46.91,8.37-93,13.71-134.27,30.31,48.12,53.7,101.85,70,159.45Q1693.56,431,1699.82,466.09Z"/><path class="cls-17" d="M893.47,631.61c-1.07-31.37-2.67-68.73-4.78-109.08-.17-4.31-.36-9.07-.9-13.36l-.07-1.58c-.17-3.58-.34-7.17-.52-10.79l-.33-6.12q-.48-9.23-1.06-18.58c-1.81-29.88-4.06-60.44-6.48-90.92-.25-2.93-.48-5.85-.72-8.76-3.55-43.46-7.69-86.23-12.54-125.08v0c0-.22-.06-.43-.08-.65-.61-4.88-1.24-9.73-1.87-14.48-1.27-9.58-2.59-18.89-4-27.85q-2.8,4.59-5.53,9.26-16.07,27.47-30,57.56c-18.93,40.81-35,85-48.41,131.44-.08.3-.17.58-.25.88a285.65,285.65,0,0,0-9.18,44.95h0c-.26,2.1-.49,4.21-.69,6.31h0c-6.45,66.87,12.59,129.43,48.77,185.34,1.23,1.93,2.51,3.85,3.8,5.76q3.82,5.7,7.91,11.31c1.92,2.64,3.87,5.27,5.88,7.88.41.55.83,1.09,1.26,1.64a457.41,457.41,0,0,0,46.39,51.23q4.13,3.95,8.37,7.82l2.12,1.93a13.53,13.53,0,0,0,3.8-2.48C895.68,724.11,895.38,687.31,893.47,631.61Z"/><path class="cls-18" d="M893.47,631.61C843.09,578.81,801.1,514,766.84,448.44h0A285.65,285.65,0,0,1,776,403.48c.08-.3.17-.58.25-.88,13.43-46.48,29.48-90.63,48.41-131.44,30.92,44.2,52.6,84.88,53.93,101.26.24,2.91.47,5.83.72,8.76,2.42,30.48,4.67,61,6.48,90.92q.57,9.34,1.06,18.58l.33,6.12c.18,3.62.35,7.21.52,10.79l.07,1.58c.54,4.29.73,9.05.9,13.36C890.8,562.88,892.4,600.24,893.47,631.61Z"/><path class="cls-8" d="M1122.24,547.6s67,.07,77.59,3.27,44.44,27.49,44.25,30.64-2.55,5.22-9.13,4.17-27.28-8.69-26.52-5.8,59.42,29.09,57.25,41.6-41.09,27.77-69.88,22.78-77.11-50.87-81.8-52.39C1074.16,579,1122.24,547.6,1122.24,547.6Z"/><path class="cls-17" d="M1134.38,570.48A78.76,78.76,0,0,1,1115,592.4a53.2,53.2,0,0,1-5.3,3.74s-129-48.29-222.5-99.34c-30.91-16.87-57.94-34-75.15-49.86-7.78-7.14-20.39-23.1-35.78-44.34,13.43-46.48,29.48-90.63,48.41-131.44q13.92-30,30-57.56c3.73,11.11,7.57,22.47,11.43,33.72v0c20.49,59.75,41.48,117,49,124.18,16.24,15.54,222.18,168.09,222.18,168.09s2.66,2.58,3.39,8.13C1141.27,552.77,1140.34,560.26,1134.38,570.48Z"/><rect class="cls-24" x="1036.34" y="96.48" width="351.72" height="319.02"/><rect class="cls-25" x="1036.34" y="77.35" width="351.72" height="19.13"/><path class="cls-24" d="M1048.14,83.09a3.83,3.83,0,1,0,3.83,3.83A3.83,3.83,0,0,0,1048.14,83.09Z"/><path class="cls-24" d="M1063.13,83.09a3.83,3.83,0,1,0,3.83,3.83A3.82,3.82,0,0,0,1063.13,83.09Z"/><path class="cls-24" d="M1078.23,83.09a3.83,3.83,0,1,0,3.83,3.83A3.82,3.82,0,0,0,1078.23,83.09Z"/><path class="cls-26" d="M1142,138h134.37a6.4,6.4,0,0,0,6.38-6.38h0a6.4,6.4,0,0,0-6.38-6.37H1142a6.4,6.4,0,0,0-6.38,6.37h0A6.4,6.4,0,0,0,1142,138Z"/><path class="cls-26" d="M1111.35,159.94H1307a6.38,6.38,0,0,0,0-12.76H1111.35a6.38,6.38,0,1,0,0,12.76Z"/><path class="cls-26" d="M1094.81,217.56h235.75a4.68,4.68,0,1,0,0-9.36H1094.81a4.68,4.68,0,1,0,0,9.36Z"/><rect class="cls-26" x="1090.13" y="229.78" width="245.11" height="9.35" rx="4.68"/><path class="cls-26" d="M1330.56,251.36H1094.81a4.68,4.68,0,1,0,0,9.36h235.75a4.68,4.68,0,1,0,0-9.36Z"/><path class="cls-26" d="M1118.48,329.82h-23.67a4.68,4.68,0,1,0,0,9.35h23.67a4.68,4.68,0,1,0,0-9.35Z"/><path class="cls-26" d="M1158,329.82h-23.67a4.68,4.68,0,1,0,0,9.35H1158a4.68,4.68,0,1,0,0-9.35Z"/><path class="cls-26" d="M1291,329.82h-23.67a4.68,4.68,0,1,0,0,9.35H1291a4.68,4.68,0,1,0,0-9.35Z"/><path class="cls-26" d="M1330.56,329.82h-23.67a4.68,4.68,0,0,0,0,9.35h23.67a4.68,4.68,0,1,0,0-9.35Z"/><path class="cls-26" d="M1125,344.86A24.94,24.94,0,1,0,1150,369.8,25,25,0,0,0,1125,344.86Zm0,48.61a23.68,23.68,0,1,1,23.68-23.67A23.7,23.7,0,0,1,1125,393.47Z"/><path class="cls-26" d="M1125,349.7a20.1,20.1,0,1,0,20.09,20.1A20.12,20.12,0,0,0,1125,349.7Zm0,38.93a18.84,18.84,0,1,1,18.83-18.83A18.86,18.86,0,0,1,1125,388.63Z"/><path class="cls-26" d="M1118.21,378c-2.67-.23-4.06-1.49-4.12-3.75a5.9,5.9,0,0,1,1.89-4.5c.51,2.61,1.89,4.81,3.41,5.28a2.09,2.09,0,0,0,2.34-.83,14.36,14.36,0,0,0,1.8-3,1.53,1.53,0,0,0,1,.44c.93.05,1.85-.7,2.67-2.13a11.85,11.85,0,0,0,.6-1.24,1,1,0,0,0,.19.16.81.81,0,0,0,.92-.13,8.27,8.27,0,0,0,1.54-2.3,1.17,1.17,0,0,0,.42.48,1,1,0,0,0,1.15-.25.59.59,0,0,0,.16-.73c-.14-.26-.58-.44-1.23-.55h0c.7-1.6,1.18-3.26.92-3.88a.59.59,0,0,0-.62-.38c-.46,0-.78.5-1,1.41a8.93,8.93,0,0,0-.12,2.73,0,0,0,0,0,0,0,13.26,13.26,0,0,0-1.57,0,1.82,1.82,0,0,0-.24-.95.58.58,0,0,0-.63-.33c-.36.08-.48.51-.54.87,0,.13,0,.3,0,.48a29.07,29.07,0,0,0-5.11.88,16.58,16.58,0,0,0-5.43,2.43c0-.79,0-1.76.58-2.11s1.83.09,2.23.32l.39-.67c-.07-.05-1.84-1.06-3-.32-.74.46-1.06,1.45-.94,2.93,0,.14,0,.29,0,.43a6.77,6.77,0,0,0-2.53,5.43c.07,2.65,1.78,4.25,4.84,4.51a19.59,19.59,0,0,0,7.15-1.12c5.8-1.88,11.2-5.9,12.27-9.53C1136,372.71,1124.74,378.56,1118.21,378Zm12.94-16.18a6.52,6.52,0,0,1-.19.82A5,5,0,0,1,1131.15,361.84Zm-2.63,3.85h1.25a7.09,7.09,0,0,1-1.39,2.12s-.11-.07-.23-.44A9.47,9.47,0,0,0,1128.52,365.69Zm-4.2.44a27.39,27.39,0,0,1,2.79-.36,7.52,7.52,0,0,0,.22,1.59,9.83,9.83,0,0,1-.81,1.83c-.65,1.13-1.36,1.76-2,1.74a.91.91,0,0,1-.68-.47C1124.53,368.79,1124.82,367.12,1124.32,366.13Zm-.77.24c.37.51.29,1.63-.11,2.93A6,6,0,0,1,1123.55,366.37Zm-4.56,1.4a19.08,19.08,0,0,1,3.7-1.29,7.22,7.22,0,0,0,0,3,4.62,4.62,0,0,0,.33,1,13.68,13.68,0,0,1-1.89,3.22,1.35,1.35,0,0,1-1.5.58c-1.16-.37-2.54-2.39-2.95-5.14A11.88,11.88,0,0,1,1119,367.77Z"/><path class="cls-26" d="M1137.57,368.15a3,3,0,0,0,.13-.47A4.12,4.12,0,0,1,1137.57,368.15Z"/><path class="cls-26" d="M1298.28,345.53a25.54,25.54,0,1,0,25.54,25.53A25.56,25.56,0,0,0,1298.28,345.53Zm0,49.78a24.25,24.25,0,1,1,24.25-24.25A24.27,24.27,0,0,1,1298.28,395.31Z"/><path class="cls-26" d="M1298.28,350.49a20.58,20.58,0,1,0,20.58,20.57A20.6,20.6,0,0,0,1298.28,350.49Zm0,39.87a19.3,19.3,0,1,1,19.29-19.3A19.32,19.32,0,0,1,1298.28,390.36Z"/><path class="cls-26" d="M1311.12,369.37c.05-.15.09-.31.13-.47C1311.21,369.06,1311.16,369.22,1311.12,369.37Z"/><path class="cls-26" d="M1291.28,379.48c-2.73-.22-4.15-1.51-4.22-3.83A6,6,0,0,1,1289,371c.53,2.67,1.93,4.93,3.49,5.41a2.16,2.16,0,0,0,2.4-.85,14.42,14.42,0,0,0,1.84-3,1.57,1.57,0,0,0,1,.46c1,0,1.9-.72,2.74-2.19a10.67,10.67,0,0,0,.61-1.27.83.83,0,0,0,.21.17.79.79,0,0,0,.93-.14,8.1,8.1,0,0,0,1.58-2.36,1.13,1.13,0,0,0,.43.5,1,1,0,0,0,1.18-.26.59.59,0,0,0,.16-.75c-.14-.26-.6-.44-1.26-.55h0c.71-1.63,1.2-3.34.94-4a.62.62,0,0,0-.64-.39c-.47,0-.8.52-1,1.44a9.06,9.06,0,0,0-.13,2.8v0c-.48,0-1,0-1.6,0a2,2,0,0,0-.25-1,.62.62,0,0,0-.65-.34c-.36.09-.49.53-.55.9,0,.14,0,.31,0,.5a29.75,29.75,0,0,0-5.24.89,17.07,17.07,0,0,0-5.56,2.49c0-.81,0-1.8.6-2.16s1.87.1,2.28.33l.4-.69c-.07,0-1.88-1.08-3.11-.32-.75.47-1.07,1.48-1,3,0,.15,0,.3,0,.44a7,7,0,0,0-2.59,5.57c.07,2.72,1.83,4.35,5,4.61a19.73,19.73,0,0,0,7.33-1.14c5.94-1.93,11.46-6,12.57-9.77C1309.53,374.05,1298,380,1291.28,379.48Zm13.25-16.56a5.56,5.56,0,0,1-.19.84A5.08,5.08,0,0,1,1304.53,362.92Zm-2.68,3.94h1.28a7.56,7.56,0,0,1-1.43,2.18,1,1,0,0,1-.24-.46A9.79,9.79,0,0,0,1301.85,366.86Zm-4.31.45c1-.18,2-.3,2.86-.37a7.91,7.91,0,0,0,.22,1.63,9.63,9.63,0,0,1-.83,1.87c-.66,1.16-1.39,1.81-2,1.78a.89.89,0,0,1-.7-.48C1297.76,370,1298.06,368.32,1297.54,367.31Zm-.79.24c.38.52.3,1.67-.1,3A6.06,6.06,0,0,1,1296.75,367.55Zm-4.67,1.43a21,21,0,0,1,3.79-1.31,7.39,7.39,0,0,0,0,3.07,4.63,4.63,0,0,0,.33,1.05,13.6,13.6,0,0,1-1.93,3.3,1.36,1.36,0,0,1-1.54.59c-1.2-.37-2.6-2.44-3-5.25A12.85,12.85,0,0,1,1292.08,369Z"/><path class="cls-27" d="M1419,664.72,1388.37,706l-3,4.07-1.47,2-3.76,5.09-2.05,2.76L1374.3,725l-4,5.36-3.72,5-.06.07v0l-3.48,4.7,0,.06-.51.7-.06.07v0l-.66.88h0l-3.76,4.68v.4l-3.52,4.76h0l-4.55,6.14h0l-3.43,4.64h0l-3.77,5.07h0l-6.29,8.49h0l-.62.84-2.15,2.89h0l-5,6.68-6.57,8.46v.41l-3.41,4.59-.36.48h0l-4.73,6.39h0l-4.41,6,0,.06h0l-10.93,14.75h0l-16.28,22-27.26,36.78-3.39,4.58-2,2.69c1,.16,2.08.3,3.12.44h0c3.62.48,7.25.92,10.85,1.3l3,.34,1.91.18c1.53.16,3.06.29,4.58.42l1.93.17.9.08,3,.23.58,0c2.23.17,4.46.3,6.68.43,1,.06,2,.11,3,.15.79.06,1.59.09,2.38.12l.45,0c1.31.06,2.63.12,3.94.15l3,.09c1.15,0,2.3.07,3.45.08s2,0,3,.05l3.21,0h3c.56,0,1.11,0,1.66,0h1.85l1.19,0,1.19,0,1.69,0h.41l.86,0,1.22,0q11.82-.31,23.45-1.29h0q13.39-1.1,26.52-3,14.19-2.12,28-5.16l.47-.11a.42.42,0,0,1,0,.12l8.68-2.13,3.61-.89q17.1-4.34,33.54-10.07c1.84-.64,3.67-1.28,5.49-1.94l1.36-.51q5.12-1.86,10.14-3.87l2.73-1.09h0l.55-.21h0c1.07-.43,2.13-.87,3.19-1.32l2.38-1c.93-.39,1.86-.79,2.78-1.2.6-.25,1.19-.52,1.79-.78h0l3.11-1.38h0q15.26-6.87,29.77-14.92c1-.56,2-1.13,3-1.71h0l53.27-71.88Z"/><path class="cls-28" d="M1338.43,812.83v4.25l3.1-4.19,0-.06h-3.14Zm-5.84,5.61a23.23,23.23,0,0,0-3.16,1.55l-6.8,9.17-5.21,7v9.23l6.17-8.31,14.82-20A17.69,17.69,0,0,0,1332.59,818.44Zm-25.11,31.17-.78,1-3,4-13.4,18.07V882l9.47-12.78,7.58-10.22,4-5.36,3-4h-6.82Zm113.26-152.83-31.87,43-.28.39-1.93,2.6-2.49,3.34-1.29,1.71v0l-5.91,8-2.45,2.91v.4l-1.61,2.17-2.16,2.91L1362,776.1h0l-.18.24-.44.6h0l-2.8,3.77v.4L1350.17,792l-3.24,4.37-.54.72-9,12.11-2.68,3.62,0,0-5.27,7.11-6.8,9.17-5.21,7-3.76,5.1-6.18,8.33-.78,1-3,4-13.4,18.07-3.75,5.08-6.37,8.58-7.37,10,1.93.17.9.08,3,.23.58,0,7.74-10.46h0l3.28-4.43,9.47-12.78,7.58-10.22,4-5.36,3-4h0l3.11-4.2,6.17-8.31,14.82-20h0l3.1-4.19,0-.06h0l4.82-6.1v-.4l3.77-5.08,3-4.06,5.36-7.23,3.77-5.08,4.25-5.73,1.62-2.19.63-.85h0l2-2.65,3.78-5.08,4-5.37,4-5.38.4-.52v0l3.77-5.08,2.89-3.9,1.35-1.8v0l3.46-4.68.3-.4.76-1,14.53-19.6a20.05,20.05,0,0,1,28-4.18l74.21,55a22.06,22.06,0,0,1,4.59,30.88L1472,862.71l-2.63,3.56,2.38-1c.93-.39,1.86-.79,2.78-1.2.6-.25,1.19-.52,1.79-.78h0l3.11-1.38h0l58.16-78.47ZM1307.48,849.61l-.78,1-3,4-13.4,18.07V882l9.47-12.78,7.58-10.22,4-5.36,3-4h-6.82Zm25.11-31.17a23.23,23.23,0,0,0-3.16,1.55l-6.8,9.17-5.21,7v9.23l6.17-8.31,14.82-20A17.69,17.69,0,0,0,1332.59,818.44Zm5.84-5.61v4.25l3.1-4.19,0-.06h-3.14Z"/><path class="cls-28" d="M1400.1,888.32a.42.42,0,0,0,0-.12l-.47.11q-13.83,3-28,5.16-13.12,1.93-26.52,3h0q-11.62,1-23.45,1.29l-1.22,0-.86,0h-.41q-.12-1.71-.09-3.42a44.37,44.37,0,0,1,.82-8,45.08,45.08,0,0,1,8.08-18.36.94.94,0,0,0,.09-.12,45.49,45.49,0,0,1,6.69-7.2,43.53,43.53,0,0,1,3.76-2.92,44.71,44.71,0,0,1,11.52-5.76c1.24-.42,2.5-.77,3.77-1.07a44.42,44.42,0,0,1,9-1.22c1.26,0,2.52,0,3.77,0a44.92,44.92,0,0,1,8.36,1.19,38.26,38.26,0,0,1,3.76,1.07,42.37,42.37,0,0,1,4.25,1.65c1.27.57,2.52,1.21,3.76,1.91a43.28,43.28,0,0,1,4,2.53l.71.51c1,.74,2,1.51,2.88,2.32h0l.17.14c.72.63,1.4,1.27,2.06,1.93a48.68,48.68,0,0,1,3.76,4.24v.05c.51.64,1,1.31,1.46,2v.06a44.43,44.43,0,0,1,3.76,6.45v0c.49,1,.93,2.12,1.34,3.2h0a45.2,45.2,0,0,1,2,7.1Z"/><path class="cls-29" d="M1361.79,741.88h0l-3.76,4.73V747l-3.53,4.76-4.55,6.14h0l-3.43,4.64h0l-3.77,5.07h0l-6.29,8.49h0l-.62.84-2.15,2.89h0l-5,6.68-6.57,8.52v.35l-3.41,4.59-.36.48h0l-4.74,6.39-4.41,6,0,.06h0l-10.93,14.75h0l-16.28,22-27.26,36.78-3.39,4.58-2,2.69c1,.16,2.08.3,3.12.44h0c3.62.48,7.25.92,10.85,1.3l3,.34,1.91.18c1.53.16,3.06.29,4.58.42l1.93.17.9.08,3,.23.58,0c2.23.17,4.46.3,6.68.43,1,.06,2,.11,3,.15.79.06,1.59.09,2.38.12l.45,0q1.17-5.54,2.69-11.18c1.53-5.69,3.3-11.45,5.26-17.21q2.27-6.66,4.84-13.29,1-2.62,2.06-5.24l.42-1h0c2.08-5.16,4.28-10.26,6.53-15.31V834c1.24-2.77,2.5-5.17,3.77-7.89,2.1-4.49,4.24-8.89,6.38-13.2a.11.11,0,0,1,0-.06c2.91-5.85,5.83-11.51,8.7-16.94.38-.71.75-1.16,1.14-1.79v-.34c1.26-2.39,2.52-4.73,3.76-7q2.77-5.1,5.39-9.8l.48-.85c1.09-2,2.16-3.55,3.21-5.4v-.34c2.53-4.5,4.87-8.63,6.94-12.3q1.88-3.33,3.44-6.13c.4-.71.78-1.4,1.14-2.06,1.65-3,2.94-5.48,3.76-7.29.27-.59.5-1.12.66-1.57Z"/><path class="cls-30" d="M1406.8,857.68l0,20.78c0,.22,0,.42,0,.62h0a7.88,7.88,0,0,1-1.35,3.84,8,8,0,0,1-3.76,3,8.24,8.24,0,0,1-1.1.34l-.36.07c-.24,0-.47.08-.71.1s-.47,0-.71,0h-87.44l-16.79,0h-85.08q-6.37-1.37-12.77-2.9l-3-.73q-4.25-1-8.51-2.12l-3.76-1q-3.23-.83-6.45-1.71l-7-1.92-3-.87q-8.65-2.48-17.31-5.17h0l-.67-.22c-1.74-.53-3.47-1.08-5.21-1.65l-3-1c-16.26-5.3-32.45-11.19-48.43-17.63h4.61l86.56.06h3.76l23.29,0h190.7a7.49,7.49,0,0,1,1.06.13,7.18,7.18,0,0,1,1.46.41,8.06,8.06,0,0,1,3.76,3A7.9,7.9,0,0,1,1406.8,857.68Z"/><path class="cls-31" d="M1244.24,886.36h-34.78q-6.37-1.37-12.77-2.9l-3-.73q-4.25-1-8.51-2.12l-3.76-1q-3.23-.83-6.45-1.71l-7-1.92-3-.87q-8.65-2.48-17.31-5.17h0l-.67-.22c-1.74-.53-3.47-1.08-5.21-1.65l-3-1c-16.26-5.3-32.45-11.19-48.43-17.63h4.61l86.56.06h3.76l23.29,0h14a75,75,0,0,0,6.36,17.63,60.39,60.39,0,0,0,13,17.12c.35.33.71.64,1.08,1l.22.2Z"/><rect class="cls-31" x="1362.75" y="849.65" width="3.76" height="36.8"/><rect class="cls-31" x="1350.02" y="849.64" width="3.76" height="36.8"/><rect class="cls-31" x="1334.75" y="849.63" width="3.76" height="36.8" transform="translate(0.9 -1.39) rotate(0.06)"/><rect class="cls-31" x="1311.34" y="849.61" width="3.76" height="36.8"/><rect class="cls-31" x="1286.59" y="849.59" width="3.76" height="36.8"/><rect class="cls-31" x="1248.64" y="849.57" width="3.76" height="36.8"/><rect class="cls-31" x="1213.11" y="849.54" width="3.76" height="36.8"/><path class="cls-31" d="M1185.16,849.52l0,31.06-3.76-1,0-30.09Z"/><rect class="cls-31" x="1374.88" y="849.65" width="3.76" height="36.8"/><rect class="cls-31" x="1382.88" y="849.66" width="3.76" height="36.8"/><rect class="cls-31" x="1390.62" y="849.67" width="3.76" height="36.8" transform="translate(0.9 -1.44) rotate(0.06)"/><path class="cls-31" d="M1400.21,849.8l0,36.54a8.22,8.22,0,0,1-1.41.13h-2.35l0-36.8h2.35A7.32,7.32,0,0,1,1400.21,849.8Z"/><path class="cls-31" d="M1405.43,853.21l0,29.72a8,8,0,0,1-3.76,3l0-35.72A8,8,0,0,1,1405.43,853.21Z"/><path class="cls-30" d="M1433.88,820.9l0,20.78a8,8,0,0,1-1.37,4.47,8,8,0,0,1-5.23,3.41,8.22,8.22,0,0,1-1.41.13l-331-.23a8,8,0,0,1-8-7.6v-21.2c0-.13,0-.27,0-.41a8,8,0,0,1,7.06-7.53,7.42,7.42,0,0,1,.94-.06l331,.23a8.18,8.18,0,0,1,2.88.54,8,8,0,0,1,3.75,3A7.93,7.93,0,0,1,1433.88,820.9Z"/><path class="cls-31" d="M1271.31,849.58,1094,849.46c-3.81,0-6.94-3.39-7.14-7.6v-21.2c0-.13,0-.27,0-.41.18-3.89,2.88-7.08,6.3-7.53a5.83,5.83,0,0,1,.84-.06l155.56.11s0,0,0,.05C1252.06,823.66,1257.84,838.6,1271.31,849.58Z"/><rect class="cls-31" x="1389.83" y="812.87" width="3.76" height="36.8"/><rect class="cls-31" x="1377.09" y="812.86" width="3.76" height="36.8"/><rect class="cls-31" x="1361.82" y="812.85" width="3.76" height="36.8"/><rect class="cls-31" x="1338.42" y="812.83" width="3.76" height="36.8"/><rect class="cls-31" x="1313.66" y="812.81" width="3.76" height="36.8"/><rect class="cls-31" x="1275.72" y="812.79" width="3.76" height="36.8"/><rect class="cls-31" x="1240.19" y="812.76" width="3.76" height="36.8"/><rect class="cls-31" x="1208.46" y="812.74" width="3.76" height="36.8"/><rect class="cls-31" x="1401.95" y="812.87" width="3.76" height="36.8"/><rect class="cls-31" x="1409.96" y="812.88" width="3.76" height="36.8"/><rect class="cls-31" x="1417.69" y="812.88" width="3.76" height="36.8"/><path class="cls-31" d="M1427.29,813l0,36.54a8.22,8.22,0,0,1-1.41.13h-2.35l0-36.79h2.35A7.35,7.35,0,0,1,1427.29,813Z"/><path class="cls-31" d="M1432.51,816.43l0,29.72a8.16,8.16,0,0,1-3.76,3l0-35.72A8,8,0,0,1,1432.51,816.43Z"/><path class="cls-30" d="M1390.44,784.13v20.78a7.91,7.91,0,0,1-1.38,4.47,8,8,0,0,1-3.76,3,8.11,8.11,0,0,1-1.46.41l-.47.07c-.12,0-.25,0-.37,0l-.19,0h-.38l-331-.23a8,8,0,0,1-8-7.6c0-.14,0-.28,0-.41l0-20.79c0-.13,0-.27,0-.41a8,8,0,0,1,8-7.59l331,.23h.42a7.88,7.88,0,0,1,1,.12,7.27,7.27,0,0,1,1.47.41,5.37,5.37,0,0,1,.69.31c.14.07.28.14.41.22l0,0,.4.25a.18.18,0,0,1,.07,0,2.7,2.7,0,0,1,.36.26,7.36,7.36,0,0,1,.79.69l.23.24,0,0,.13.15,0,0c.08.1.16.19.23.29s.22.29.32.44A7.92,7.92,0,0,1,1390.44,784.13Z"/><path class="cls-31" d="M1227.88,812.81l-177.33-.12c-3.81,0-7-3.39-7.14-7.6,0-.14,0-.28,0-.41l0-20.79c0-.13,0-.27,0-.41.2-4.21,3.34-7.59,7.14-7.59l155.56.11c.06.28.13.56.2.85,2.58,10.73,8.38,25.2,21.48,35.9Z"/><rect class="cls-31" x="1346.4" y="776.1" width="3.76" height="36.8"/><rect class="cls-31" x="1333.66" y="776.09" width="3.76" height="36.8"/><rect class="cls-31" x="1318.39" y="776.08" width="3.76" height="36.8"/><rect class="cls-31" x="1294.98" y="776.06" width="3.76" height="36.8"/><rect class="cls-31" x="1270.23" y="776.04" width="3.76" height="36.8"/><rect class="cls-31" x="1232.28" y="776.02" width="3.76" height="36.8"/><rect class="cls-31" x="1196.75" y="775.99" width="3.76" height="36.8"/><rect class="cls-31" x="1165.03" y="775.97" width="3.76" height="36.8" transform="matrix(1, 0, 0, 1, 0.82, -1.21)"/><rect class="cls-31" x="1358.52" y="776.1" width="3.76" height="36.8"/><rect class="cls-31" x="1366.53" y="776.11" width="3.76" height="36.8"/><rect class="cls-31" x="1374.26" y="776.11" width="3.76" height="36.8"/><path class="cls-31" d="M1383.85,776.25l0,36.54a8.22,8.22,0,0,1-1.41.13h-2.36l0-36.79h2.35A7.32,7.32,0,0,1,1383.85,776.25Z"/><path class="cls-31" d="M1389.07,779.66l0,29.72a8,8,0,0,1-3.76,3l0-35.72A8,8,0,0,1,1389.07,779.66Z"/><path class="cls-30" d="M1414.8,748.2V769a7.91,7.91,0,0,1-1.38,4.47,8,8,0,0,1-5.22,3.41,8.21,8.21,0,0,1-1.41.12l-331-.22a7.85,7.85,0,0,1-3.58-.86,8,8,0,0,1-4.39-6.42l0-.33c0-.13,0-.27,0-.41l0-20.78c0-.13,0-.27,0-.41a8,8,0,0,1,7.06-7.53,7.3,7.3,0,0,1,.94-.06l331,.23a8.21,8.21,0,0,1,1.41.12,7.29,7.29,0,0,1,1.47.42,8,8,0,0,1,3.75,3A7.9,7.9,0,0,1,1414.8,748.2Z"/><path class="cls-31" d="M1252.24,776.88l-177.33-.12a6.38,6.38,0,0,1-3.19-.86,8.06,8.06,0,0,1-3.92-6.42l0-.33c0-.13,0-.27,0-.41l0-20.78c0-.13,0-.27,0-.41.18-3.9,2.88-7.08,6.3-7.54a7.73,7.73,0,0,1,.84,0l155.56.1s0,0,0,.06c2.42,10.55,8,25,20.72,35.91Z"/><rect class="cls-31" x="1370.76" y="740.16" width="3.76" height="36.8"/><rect class="cls-31" x="1358.02" y="740.15" width="3.76" height="36.8"/><rect class="cls-31" x="1342.75" y="740.14" width="3.76" height="36.8"/><rect class="cls-31" x="1319.34" y="740.13" width="3.76" height="36.8"/><rect class="cls-31" x="1294.59" y="740.11" width="3.76" height="36.8"/><rect class="cls-31" x="1256.64" y="740.08" width="3.76" height="36.8"/><rect class="cls-31" x="1221.11" y="740.06" width="3.76" height="36.8"/><rect class="cls-31" x="1189.39" y="740.04" width="3.76" height="36.8"/><rect class="cls-31" x="1382.88" y="740.17" width="3.76" height="36.8"/><rect class="cls-31" x="1390.89" y="740.18" width="3.76" height="36.8"/><rect class="cls-31" x="1398.62" y="740.18" width="3.76" height="36.8"/><path class="cls-31" d="M1408.21,740.31l0,36.55a8.21,8.21,0,0,1-1.41.12h-2.36l0-36.8h2.35A8.22,8.22,0,0,1,1408.21,740.31Z"/><path class="cls-31" d="M1413.43,743.73l0,29.72a8,8,0,0,1-3.76,3l0-35.71A8,8,0,0,1,1413.43,743.73Z"/><path class="cls-30" d="M1390.49,711.44v20.78a7.91,7.91,0,0,1-1.38,4.47,8,8,0,0,1-3.76,3,8.11,8.11,0,0,1-1.46.41l-.47.07-.26,0h-.26l-.43,0-331-.23a8,8,0,0,1-8-7.6c0-.14,0-.28,0-.41l0-20.79c0-.13,0-.27,0-.41a8,8,0,0,1,8-7.59l331,.23a8.18,8.18,0,0,1,2.88.54,8,8,0,0,1,3.75,3A7.92,7.92,0,0,1,1390.49,711.44Z"/><path class="cls-31" d="M1227.93,740.12,1050.6,740c-3.81,0-6.95-3.39-7.14-7.6,0-.14,0-.28,0-.41l0-20.79c0-.13,0-.27,0-.41.19-4.21,3.34-7.59,7.14-7.59l155.56.11c2.47,10.82,8.23,25.76,21.68,36.75Z"/><rect class="cls-31" x="1346.45" y="703.41" width="3.76" height="36.8" transform="translate(0.75 -1.4) rotate(0.06)"/><rect class="cls-31" x="1333.71" y="703.4" width="3.76" height="36.8"/><rect class="cls-31" x="1318.44" y="703.39" width="3.76" height="36.8"/><rect class="cls-31" x="1295.03" y="703.37" width="3.76" height="36.8"/><rect class="cls-31" x="1270.28" y="703.35" width="3.76" height="36.8"/><rect class="cls-31" x="1232.33" y="703.33" width="3.76" height="36.8"/><rect class="cls-31" x="1196.8" y="703.3" width="3.76" height="36.8"/><rect class="cls-31" x="1165.08" y="703.28" width="3.76" height="36.8"/><rect class="cls-31" x="1358.57" y="703.41" width="3.76" height="36.8"/><rect class="cls-31" x="1366.58" y="703.42" width="3.76" height="36.8"/><rect class="cls-31" x="1374.31" y="703.42" width="3.76" height="36.8"/><path class="cls-31" d="M1383.9,703.56l0,36.54a8.24,8.24,0,0,1-1.42.13h-2.35l0-36.79h2.35A7.32,7.32,0,0,1,1383.9,703.56Z"/><path class="cls-31" d="M1389.12,707l0,29.72a8.06,8.06,0,0,1-3.76,3l0-35.72A8,8,0,0,1,1389.12,707Z"/><path class="cls-32" d="M1435.23,878.79q-11.26,3.57-22.84,6.51l-3.61.89c-2.86.7-5.74,1.38-8.64,2l-.47.11q-13.83,3-28,5.16-13.12,1.93-26.52,3h0q-11.62,1-23.45,1.29l-1.22,0-.86,0h-.41l-1.69,0-1.19,0-1.19,0h-1.85c-.55,0-1.1,0-1.66,0h-3l-3.21,0c-1,0-2,0-3-.05s-2.3,0-3.45-.08l-3-.09c-1.31,0-2.63-.09-3.94-.15l-.45,0c-.79,0-1.59-.06-2.38-.12-1,0-2-.09-3-.15-2.22-.13-4.45-.26-6.68-.43l-.58,0-3-.23-.9-.08-1.93-.17c-1.52-.13-3-.26-4.58-.42l-1.91-.18-3-.34c-3.6-.38-7.23-.82-10.85-1.3h0c-1-.14-2.07-.28-3.12-.44l-1-.15a8.27,8.27,0,0,1-.85-.12c-.72-.09-1.44-.2-2.15-.31l-.6-.1h-.13l-.18,0q-4-.6-8.11-1.31l-2.84-.49-2.84-.52-3.19-.6-3-.58c-5-1-9.91-2-14.88-3.07h0q-6.37-1.37-12.77-2.9l-3-.73-1.47-.36a117.54,117.54,0,0,1,60.42-113q2.26-1.24,4.55-2.37,2.17-1.33,4.44-2.58a117.52,117.52,0,0,1,173.64,114.44Z"/><path class="cls-32" d="M1457.89,795.63a116.79,116.79,0,0,0-43.08-44.47l-1.38-.8c-1.24-.72-2.49-1.4-3.76-2.06-.48-.26-1-.52-1.47-.75q-1.86-1-3.75-1.83c-.68-.32-1.36-.63-2-.93-1.25-.55-2.5-1.08-3.77-1.58s-2.63-1-4-1.51l-.3-.1c-1.14-.41-2.3-.8-3.46-1.18-.27-.08-.53-.17-.8-.24h-.34a5,5,0,0,0-.89-.39l-2.34-.68-1.18-.32c-.5-.14-1-.26-1.47-.38-1.25-.32-2.51-.62-3.77-.89-.68-.16-1.36-.3-2-.43-1.25-.25-2.51-.49-3.76-.7s-2.65-.42-4-.6-2.47-.31-3.71-.43h-.06c-1.41-.15-2.82-.26-4.24-.35-1.25-.08-2.51-.14-3.77-.18-2.77-.09-5.56-.08-8.35,0-1.25,0-2.51.12-3.77.22q-4.48.31-9,1c-1.25.18-2.51.39-3.76.62a113.71,113.71,0,0,0-11.51,2.73c-.76.22-1.53.45-2.29.7h0l-.19,0-.35.12a116.72,116.72,0,0,0-21,9l-.09,0c-1.24.69-2.47,1.4-3.68,2.12-.22.13-.44.26-.65.4A116.8,116.8,0,0,0,1265.52,776l-.71.85a117.12,117.12,0,0,0-20.52,35.88.11.11,0,0,0,0,.06l-.3.86a116.28,116.28,0,0,0-3.78,13.33v.34a113.16,113.16,0,0,0-2.73,22.19h0a116.21,116.21,0,0,0,4.39,34.74c.19.69.39,1.37.6,2.06q1,3.32,2.23,6.6l.6.1c.71.11,1.43.22,2.15.31a8.27,8.27,0,0,0,.85.12l1,.15c1,.16,2.08.3,3.12.44h0c3.62.48,7.25.92,10.85,1.3l3,.34,1.91.18c1.53.16,3.06.29,4.58.42l1.93.17.9.08,3,.23.58,0c2.23.17,4.46.3,6.68.43,1,.06,2,.11,3,.15.79.06,1.59.09,2.38.12l.45,0c1.31.06,2.63.12,3.94.15l3,.09c1.15,0,2.3.07,3.45.08s2,0,3,.05l3.21,0h3c.56,0,1.11,0,1.66,0h1.85l1.19,0,1.19,0,1.69,0h.41l.86,0,1.22,0q11.82-.31,23.45-1.29h0q13.39-1.1,26.52-3,14.19-2.12,28-5.16l.47-.11a.42.42,0,0,1,0,.12l8.68-2.13,3.61-.89q17.1-4.34,33.54-10.07c1.84-.64,3.67-1.28,5.49-1.94l1.36-.51q5.12-1.86,10.14-3.87l2.73-1.09h0l.55-.21h0c1.07-.43,2.13-.87,3.19-1.32l2.38-1c.09-.85.18-1.7.25-2.56A116.92,116.92,0,0,0,1457.89,795.63Z"/><path class="cls-30" d="M1448.92,800.57A117,117,0,0,0,1414.8,762c-.45-.33-.91-.65-1.38-1-1.23-.86-2.48-1.71-3.75-2.52l-1.47-.94c-1.24-.76-2.5-1.51-3.76-2.23-.68-.39-1.36-.78-2-1.14-1.24-.69-2.5-1.34-3.77-2s-2.63-1.29-4-1.89-2.49-1.11-3.76-1.63l-1.35-.55c-1-.39-1.92-.75-2.89-1.11l-2.48-.88-1.28-.43c-2.75-.92-5.54-1.72-8.36-2.43-1.24-.31-2.5-.6-3.76-.87q-4.1-.9-8.25-1.48c-.24,0-.49-.08-.73-.11q-1.87-.25-3.75-.45l-1.49-.14h-.37a1.2,1.2,0,0,0-.28-.06h-.73c-1.6-.17-3.43-.28-5-.35-1.26,0-2.51-.08-3.77-.08q-4.47,0-9,.3l-1.41.11h-.49l-.19.06h-.46a107.83,107.83,0,0,0-11.79,1.76c-1.26.25-2.51.52-3.77.82a116.92,116.92,0,0,0-21,7c-1.26.56-2.52,1.14-3.77,1.76l-.65.32c-1.57.76-3.11,1.57-4.65,2.42A117.76,117.76,0,0,0,1261,776c-.2.21-.41.42-.6.64-.07.06-.14.14-.21.21h0a116.85,116.85,0,0,0-23,35.87.16.16,0,0,0,0,.06,118.13,118.13,0,0,0-8.48,36.73,116.76,116.76,0,0,0,3.39,36.8c.4,1.6.84,3.18,1.33,4.76l2.84.49q4.07.71,8.11,1.31l.18,0h.13l.6.1c.71.11,1.43.22,2.15.31a8.27,8.27,0,0,0,.85.12l1,.15c1,.16,2.08.3,3.12.44h0c3.62.48,7.25.92,10.85,1.3l3,.34,1.91.18c1.53.16,3.06.29,4.58.42l1.93.17.9.08,3,.23.58,0c2.23.17,4.46.3,6.68.43,1,.06,2,.11,3,.15.79.06,1.59.09,2.38.12l.45,0c1.31.06,2.63.12,3.94.15l3,.09c1.15,0,2.3.07,3.45.08s2,0,3,.05l3.21,0h3c.56,0,1.11,0,1.66,0h1.85l1.19,0,1.19,0,1.69,0h.41l.86,0,1.22,0q11.82-.31,23.45-1.29h0q13.39-1.1,26.52-3,14.19-2.12,28-5.16l.47-.11a.42.42,0,0,1,0,.12l8.68-2.13,3.61-.89q17.1-4.34,33.54-10.07c1.84-.64,3.67-1.28,5.49-1.94l1.36-.51q5.12-1.86,10.14-3.87A117,117,0,0,0,1448.92,800.57Z"/><path class="cls-31" d="M1440.43,806.82a106.43,106.43,0,0,0-27.65-32.55c-1-.81-2.07-1.59-3.12-2.35-.49-.36-1-.71-1.47-1q-1.86-1.32-3.76-2.53c-.68-.43-1.36-.86-2-1.27-1.24-.76-2.5-1.49-3.77-2.19s-2.63-1.42-4-2.09-2.5-1.22-3.77-1.79-2.81-1.24-4.24-1.8c-1.24-.51-2.5-1-3.76-1.44l-.4-.14c-1.82-.65-3.65-1.24-5.51-1.79-.81-.25-1.63-.47-2.44-.7-1.25-.34-2.5-.65-3.77-.94q-4.46-1-9-1.69c-1.24-.18-2.49-.33-3.75-.47l-1.14-.12-2.38-.2h0q-4-.32-8-.31c-1.26,0-2.52,0-3.77.07a105.12,105.12,0,0,0-19.64,2.53c-1.26.28-2.52.58-3.77.92a106.83,106.83,0,0,0-21,8c-1.12.57-2.24,1.16-3.35,1.77l-.42.24a106.51,106.51,0,0,0-16.3,11.13c-.35.27-.69.55-1,.85-1.1.92-2.18,1.88-3.25,2.86q-1.93,1.77-3.76,3.64a105.3,105.3,0,0,0-20.44,29.37.07.07,0,0,0,0,.06,2.24,2.24,0,0,0-.13.27,107.18,107.18,0,0,0-5.68,15.07v.22a1.15,1.15,0,0,0-.16.28,100.33,100.33,0,0,0-3.63,17.42v.06h0v0h0v0h0v.06h0v0h0v0h0v.06h0v0h0v0h0v.06h0v0h0v0h0v.06h0v0h0c-.1.89-.18,1.78-.26,2.67q-.39,4.55-.39,9.07a105.34,105.34,0,0,0,3.41,26.62c.09.38.19.74.3,1.11.6,2.25,1.29,4.48,2,6.7.71.11,1.43.22,2.15.31a8.27,8.27,0,0,0,.85.12l1,.15c1,.16,2.08.3,3.12.44-.39-1-.77-2.09-1.12-3.13-.53-1.51-1-3-1.46-4.58s-.85-2.69-1.23-4.24v-.4a99.65,99.65,0,0,1-2.3-32.17,101.65,101.65,0,0,1,3.61-19.11c.77-2.63,1.62-5.21,2.59-7.75h0a96.37,96.37,0,0,1,4.35-9.86l0-.06a99.06,99.06,0,0,1,13.33-19.93c1.21-1.41,2.46-2.79,3.77-4.13a97.91,97.91,0,0,1,13.6-11.81h0l1.2-.85h.09c1.87-1.31,3.71-2.56,5.69-3.74,1.14-.71,2.32-1.38,3.5-2l.27-.14a99.9,99.9,0,0,1,21-8.58c1.25-.35,2.5-.68,3.76-1a99.14,99.14,0,0,1,19.65-2.69c1.24,0,2.48-.08,3.73-.08h0q1.71,0,3.42.06h0c1.17,0,2.34.11,3.5.19,1.53.1,3.06.25,4.58.42q1.89.21,3.75.51c3,.46,6,1,9,1.78l2.16.56,1.61.45c1.33.39,2.66.8,4,1.24,1.47.49,2.93,1,4.37,1.57,1.27.48,2.52,1,3.77,1.53q2.14.93,4.24,1.95c1.27.62,2.52,1.27,3.77,1.94s2.66,1.48,4,2.26,2.52,1.56,3.76,2.38c.69.45,1.37.92,2.05,1.4.44.3.89.62,1.33.94h0a100.66,100.66,0,0,1,40.18,98.25c1.84-.64,3.67-1.28,5.49-1.94l1.36-.51A106.27,106.27,0,0,0,1440.43,806.82Z"/><path class="cls-31" d="M1343.58,895.13a25.5,25.5,0,0,1-5.23-8.5l-19.28,7.82q0,1.71.09,3.42h.41l.86,0,1.22,0q11.82-.31,23.45-1.29C1344.58,896.09,1344.08,895.63,1343.58,895.13Zm0,0a25.5,25.5,0,0,1-5.23-8.5l-19.28,7.82q0,1.71.09,3.42h.41l.86,0,1.22,0q11.82-.31,23.45-1.29C1344.58,896.09,1344.08,895.63,1343.58,895.13Zm0,0a25.5,25.5,0,0,1-5.23-8.5l-19.28,7.82q0,1.71.09,3.42h.41l.86,0,1.22,0q11.82-.31,23.45-1.29C1344.58,896.09,1344.08,895.63,1343.58,895.13Zm0,0a25.5,25.5,0,0,1-5.23-8.5l-19.28,7.82q0,1.71.09,3.42h.41l.86,0,1.22,0q11.82-.31,23.45-1.29C1344.58,896.09,1344.08,895.63,1343.58,895.13Zm0,0a25.5,25.5,0,0,1-5.23-8.5l-19.28,7.82q0,1.71.09,3.42h.41l.86,0,1.22,0q11.82-.31,23.45-1.29C1344.58,896.09,1344.08,895.63,1343.58,895.13Zm0,0a25.5,25.5,0,0,1-5.23-8.5l-19.28,7.82q0,1.71.09,3.42h.41l.86,0,1.22,0q11.82-.31,23.45-1.29C1344.58,896.09,1344.08,895.63,1343.58,895.13Zm56.62-20.87a37.73,37.73,0,0,0-1.77-5.54,42.33,42.33,0,0,0-2-4.22,35,35,0,0,0-2.06-3.3,2,2,0,0,0-.17-.23h0a25.72,25.72,0,0,0-3.59-4.06l0,0a31,31,0,0,0-3.91-3.06,33.59,33.59,0,0,0-3.76-2.11,31.78,31.78,0,0,0-3.55-1.45l-.7-.23-1.13-.35h0l-.42-.11a54.53,54.53,0,0,0-11.5-1.95l-.48,0c-1.08-.07-2.17-.12-3.29-.17-4.32-.17-8.93-.2-13.83-.06-2.11.06-4,.07-5.81,0-1.36,0-2.61-.11-3.77-.21l-.2,0a24.13,24.13,0,0,1-6.88-1.5,12.18,12.18,0,0,1-4.59-3.11,16.49,16.49,0,0,1-2.92-4.82c-.08-.2-.16-.39-.22-.59a17.92,17.92,0,0,1-1.11-5.06,12.51,12.51,0,0,1,.15-2.88,12.22,12.22,0,0,1,4-7.08,16.31,16.31,0,0,1,2.84-2.09,23.23,23.23,0,0,1,3.16-1.55,17.69,17.69,0,0,1,5.82-1.35h0a13.91,13.91,0,0,1,3.76.33,14.72,14.72,0,0,1,3.24,1.14q6,2.93,9.71,12.16l6.69-2.71,3.76-1.53,11.51-4.67,2-.8c-.61-1.5-1.26-3-2-4.32v-.4c-.68-1.27-1.4-2.19-2.17-3.38a.13.13,0,0,0,0-.06c-.21-.34-.43-.67-.65-1a37.59,37.59,0,0,0-3-3.85c-.32-.36-.63-.7-1-1v0a35.41,35.41,0,0,0-3.76-3.42,31.12,31.12,0,0,0-4.24-2.85c-.54-.32-1.09-.6-1.64-.88-.7-.34-1.41-.65-2.13-.94a34.27,34.27,0,0,0-5.35-1.67c-1-.22-2-.39-3-.52-.79-.11-1.58-.19-2.37-.25l-.86,0-.54,0a43.07,43.07,0,0,0-9,.65c-1.24.21-2.5.48-3.76.82-.11,0-.21.05-.32.07l-.81-2-3.81-9.37-2.16-5.32-4.4,1.78-3.77,1.52-5.09,2.07,5.08,12.54.36.87L1320,803c-.54.28-1.08.57-1.6.87a49.91,49.91,0,0,0-4.73,3h0a44.22,44.22,0,0,0-5.82,4.84c-.38.37-.74.74-1.09,1.12l-.06.06a36.36,36.36,0,0,0-6.54,9.5,31.07,31.07,0,0,0-1.88,5.25h0a29.82,29.82,0,0,0-.94,6.82,32.38,32.38,0,0,0,2.53,12.87c.32.78.65,1.55,1,2.28h0a34.8,34.8,0,0,0,2.9,5c.29.43.58.85.9,1.24a26.16,26.16,0,0,0,2.74,3.07l.34.3a29.07,29.07,0,0,0,3.62,2.85,31.1,31.1,0,0,0,3.76,2.17,32.11,32.11,0,0,0,3.82,1.55,48.33,48.33,0,0,0,9.14,2.11q2.48.34,5.13.48l1.56.08c1.22,0,2.48.09,3.75.11,3.64.07,7.47,0,11.51-.18h.34c1.19-.07,2.34-.12,3.43-.13a54.6,54.6,0,0,1,5.91.19,27.45,27.45,0,0,1,3.06.44,20.52,20.52,0,0,1,3.76,1.08h0a12.84,12.84,0,0,1,4.78,3.25,17.41,17.41,0,0,1,3.22,5.32,4.37,4.37,0,0,0,.33.48v.4a14.17,14.17,0,0,1,.82,4.8,12.06,12.06,0,0,1-1.28,5.41,14.81,14.81,0,0,1-2.77,3.8q14.19-2.12,28-5.16l.47-.11c.16-.63.29-1.28.41-1.93a32.43,32.43,0,0,0,.45-4.43A30,30,0,0,0,1400.2,874.26Zm-56.62,20.87a25.5,25.5,0,0,1-5.23-8.5l-19.28,7.82q0,1.71.09,3.42h.41l.86,0,1.22,0q11.82-.31,23.45-1.29C1344.58,896.09,1344.08,895.63,1343.58,895.13Zm0,0a25.5,25.5,0,0,1-5.23-8.5l-19.28,7.82q0,1.71.09,3.42h.41l.86,0,1.22,0q11.82-.31,23.45-1.29C1344.58,896.09,1344.08,895.63,1343.58,895.13Zm0,0a25.5,25.5,0,0,1-5.23-8.5l-19.28,7.82q0,1.71.09,3.42h.41l.86,0,1.22,0q11.82-.31,23.45-1.29C1344.58,896.09,1344.08,895.63,1343.58,895.13Zm0,0a25.5,25.5,0,0,1-5.23-8.5l-19.28,7.82q0,1.71.09,3.42h.41l.86,0,1.22,0q11.82-.31,23.45-1.29C1344.58,896.09,1344.08,895.63,1343.58,895.13Zm0,0a25.5,25.5,0,0,1-5.23-8.5l-19.28,7.82q0,1.71.09,3.42h.41l.86,0,1.22,0q11.82-.31,23.45-1.29C1344.58,896.09,1344.08,895.63,1343.58,895.13Zm0,0a25.5,25.5,0,0,1-5.23-8.5l-19.28,7.82q0,1.71.09,3.42h.41l.86,0,1.22,0q11.82-.31,23.45-1.29C1344.58,896.09,1344.08,895.63,1343.58,895.13Zm0,0a25.5,25.5,0,0,1-5.23-8.5l-19.28,7.82-4.66,1.89c.22.54.44,1.08.68,1.6l1.19,0,1.19,0,1.69,0h.41l.86,0,1.22,0q11.82-.31,23.45-1.29C1344.58,896.09,1344.08,895.63,1343.58,895.13Z"/></g></g></g></svg>