<svg xmlns="http://www.w3.org/2000/svg" viewBox="0 0 685.99 685.99"><defs><style>.cls-1{fill:#fff;}.cls-2{fill:#4dbdeb;}.cls-3{fill:#00405c;}.cls-4{fill:#ffd262;}.cls-5{fill:#e4b34f;}.cls-6{fill:#f0f7f7;}.cls-7{fill:#0075a8;}</style></defs><g id="Layer_2" data-name="Layer 2"><g id="Layer_1-2" data-name="Layer 1"><path class="cls-1" d="M343,676A333,333,0,0,1,107.53,107.53,333,333,0,0,1,578.46,578.46,330.85,330.85,0,0,1,343,676Z"/><path class="cls-2" d="M343,20c178.39,0,323,144.61,323,323S521.38,666,343,666,20,521.38,20,343,164.61,20,343,20m0-20A343.08,343.08,0,0,0,209.48,659,343.08,343.08,0,0,0,476.51,27,340.89,340.89,0,0,0,343,0Z"/><path class="cls-3" d="M162.5,526.91a3.42,3.42,0,0,1-2.42-5.84l361-361a3.42,3.42,0,0,1,4.84,4.83l-361,361A3.42,3.42,0,0,1,162.5,526.91Z"/><path class="cls-3" d="M523.49,526.91a3.46,3.46,0,0,1-2.42-1l-361-361a3.42,3.42,0,0,1,4.83-4.83l361,361a3.42,3.42,0,0,1-2.41,5.84Z"/><circle class="cls-4" cx="523.49" cy="523.49" r="31.37"/><path class="cls-4" d="M467.63,325.27A124.64,124.64,0,1,0,321.44,448l5.86,10.15L343,485.35l15.7-27.18L364.55,448A124.64,124.64,0,0,0,467.63,325.27Z"/><path class="cls-5" d="M343,200.63c-3.65,0-7.26.19-10.84.5a128.62,128.62,0,0,1,44.9,244A124.63,124.63,0,0,0,343,200.63Z"/><path class="cls-4" d="M343,200.63c3.66,0,7.27.19,10.85.5a128.62,128.62,0,0,0-44.91,244A124.63,124.63,0,0,1,343,200.63Z"/><path class="cls-6" d="M271.73,342.08h12.16V292.83H271.73a24.63,24.63,0,0,0,0,49.25Z"/><path class="cls-6" d="M353.18,289.38l64-33.91v124l-64-33.92Z"/><path class="cls-6" d="M318.53,415a10.79,10.79,0,0,1-10.79-10.79V325.3h21.59v78.94A10.8,10.8,0,0,1,318.53,415Z"/><path class="cls-3" d="M318.53,418.45a14.23,14.23,0,0,1-14.21-14.21V325.3a3.42,3.42,0,0,1,3.42-3.42h21.59a3.42,3.42,0,0,1,3.42,3.42v78.94A14.23,14.23,0,0,1,318.53,418.45Zm-7.37-89.73v75.52a7.38,7.38,0,1,0,14.75,0V328.72Z"/><path class="cls-7" d="M343,354.14H294.07A10.19,10.19,0,0,1,283.89,344V291a10.18,10.18,0,0,1,10.18-10.18H343A10.19,10.19,0,0,1,353.18,291v53A10.19,10.19,0,0,1,343,354.14Z"/><path class="cls-6" d="M421.59,330.76h-4.41V304.15h4.41a13.31,13.31,0,0,1,0,26.61Z"/><path class="cls-3" d="M421.59,334.18h-4.41a3.42,3.42,0,0,1-3.41-3.42V304.15a3.41,3.41,0,0,1,3.41-3.41h4.41a16.72,16.72,0,1,1,0,33.44Zm-1-6.84h1a9.89,9.89,0,0,0,0-19.77h-1Z"/><path class="cls-3" d="M417.18,382.86a3.36,3.36,0,0,1-1.6-.4l-64-33.91a3.41,3.41,0,0,1-1.82-3V289.38a3.41,3.41,0,0,1,1.82-3l64-33.91a3.42,3.42,0,0,1,5,3v124a3.42,3.42,0,0,1-1.66,2.93,3.37,3.37,0,0,1-1.76.49ZM356.6,343.48l57.17,30.29V261.14l-57.17,30.3Z"/><path class="cls-3" d="M283.89,345.5H271.73a28,28,0,0,1,0-56.09h12.16a3.42,3.42,0,0,1,3.41,3.42v49.25A3.41,3.41,0,0,1,283.89,345.5Zm-12.16-49.25a21.21,21.21,0,1,0,0,42.41h8.74V296.25Z"/><path class="cls-3" d="M343,357.55H294.07a13.61,13.61,0,0,1-13.6-13.6V291a13.61,13.61,0,0,1,13.6-13.6H343A13.62,13.62,0,0,1,356.6,291v53A13.62,13.62,0,0,1,343,357.55Zm-48.92-73.36A6.78,6.78,0,0,0,287.3,291v53a6.78,6.78,0,0,0,6.77,6.77H343a6.78,6.78,0,0,0,6.77-6.77V291a6.78,6.78,0,0,0-6.77-6.77Z"/><path class="cls-3" d="M343,488.77a3.41,3.41,0,0,1-3-1.71l-20.76-36a128.06,128.06,0,1,1,47.45,0l-20.76,36a3.43,3.43,0,0,1-3,1.71Zm0-284.72a121.21,121.21,0,0,0-21,240.6,3.43,3.43,0,0,1,2.37,1.66L343,478.52l18.6-32.21a3.43,3.43,0,0,1,2.37-1.66,121.21,121.21,0,0,0-21-240.6Z"/><path class="cls-3" d="M234,326.18a3.42,3.42,0,0,1-3.41-3.42,92.67,92.67,0,0,1,2.47-21.29,3.42,3.42,0,1,1,6.65,1.58,85.65,85.65,0,0,0-2.29,19.71A3.42,3.42,0,0,1,234,326.18Z"/><circle class="cls-7" cx="162.5" cy="162.5" r="31.37"/><circle class="cls-6" cx="162.5" cy="523.49" r="31.37"/><circle class="cls-7" cx="523.49" cy="162.5" r="31.37"/><path class="cls-5" d="M523.49,492.12a31.07,31.07,0,0,0-5.13.46,31.32,31.32,0,0,1,0,61.82,31.35,31.35,0,1,0,5.13-62.28Z"/><path class="cls-3" d="M523.49,131.13a32.19,32.19,0,0,0-5.13.45,31.33,31.33,0,0,1,0,61.83,31.35,31.35,0,1,0,5.13-62.28Z"/><path class="cls-2" d="M162.5,193.87a30.85,30.85,0,0,0,5.12-.46,31.33,31.33,0,0,1,0-61.83,32,32,0,0,0-5.12-.45,31.37,31.37,0,0,0,0,62.74Z"/><path class="cls-1" d="M162.5,554.86a30.85,30.85,0,0,0,5.12-.46,31.33,31.33,0,0,1,0-61.82,30.85,30.85,0,0,0-5.12-.46,31.37,31.37,0,0,0,0,62.74Z"/><path class="cls-3" d="M162.5,197.28a34.79,34.79,0,1,1,34.78-34.78A34.83,34.83,0,0,1,162.5,197.28Zm0-62.73a27.95,27.95,0,1,0,27.95,27.95A28,28,0,0,0,162.5,134.55Z"/><path class="cls-3" d="M162.5,558.28a34.79,34.79,0,1,1,34.78-34.79A34.83,34.83,0,0,1,162.5,558.28Zm0-62.74a27.95,27.95,0,1,0,27.95,27.95A28,28,0,0,0,162.5,495.54Z"/><path class="cls-3" d="M523.49,197.28a34.79,34.79,0,1,1,34.79-34.78A34.82,34.82,0,0,1,523.49,197.28Zm0-62.73a27.95,27.95,0,1,0,28,27.95A28,28,0,0,0,523.49,134.55Z"/><path class="cls-3" d="M523.49,558.28a34.79,34.79,0,1,1,34.79-34.79A34.83,34.83,0,0,1,523.49,558.28Zm0-62.74a27.95,27.95,0,1,0,28,27.95A28,28,0,0,0,523.49,495.54Z"/></g></g></svg>