<svg xmlns="http://www.w3.org/2000/svg" viewBox="0 0 685.99 685.99"><defs><style>.cls-1{fill:#fff;}.cls-2{fill:#4dbdeb;}.cls-3{fill:#f0f7f7;}.cls-4{fill:#e1e6e9;}.cls-5{fill:#0075a8;}.cls-6{fill:#d5d6db;}.cls-7{fill:#00405c;}.cls-8{fill:#fcd462;}.cls-9{fill:#f7be56;}</style></defs><g id="Layer_2" data-name="Layer 2"><g id="Layer_1-2" data-name="Layer 1"><path class="cls-1" d="M343,676A333,333,0,0,1,107.53,107.53,333,333,0,0,1,578.46,578.46,330.85,330.85,0,0,1,343,676Z"/><path class="cls-2" d="M343,20c178.39,0,323,144.61,323,323S521.38,666,343,666,20,521.38,20,343,164.61,20,343,20m0-20A343.08,343.08,0,0,0,209.48,659,343.08,343.08,0,0,0,476.51,27,340.89,340.89,0,0,0,343,0Z"/><path class="cls-3" d="M579.49,437.72v60.67a26.23,26.23,0,0,1-26.22,26.24H149.37a26.23,26.23,0,0,1-26.24-26.23h0V437.72Z"/><path class="cls-4" d="M577.26,437.72v60.67A26.24,26.24,0,0,1,551,524.63H530.89a26.25,26.25,0,0,0,26.24-26.23h0V437.72Z"/><path class="cls-2" d="M579.49,194.43V437.72H123.13V194.43a26.25,26.25,0,0,1,26.23-26.24H553.25a26.23,26.23,0,0,1,26.24,26.23Z"/><path class="cls-5" d="M577.26,196.11V439.39H555.58V215.11a26.24,26.24,0,0,0-26.22-26.25H125.46a21.26,21.26,0,0,0-3.56.27,26.11,26.11,0,0,1,25.24-19.26H551a26.23,26.23,0,0,1,26.24,26.23Z"/><path class="cls-6" d="M428.79,589.84,413,524.66H289.67l-15.83,65.18Z"/><path class="cls-7" d="M428.79,593.2h-155a3.36,3.36,0,0,1-3.36-3.36,3,3,0,0,1,.1-.79l15.83-65.18a3.33,3.33,0,0,1,3.26-2.56H413a3.35,3.35,0,0,1,3.26,2.56l15.84,65.18a3.36,3.36,0,0,1-2.47,4.05A3.58,3.58,0,0,1,428.79,593.2Zm-150.68-6.72H424.53L410.32,528h-118Z"/><path class="cls-7" d="M453.22,593.2H249.41a3.36,3.36,0,1,1,0-6.72H453.22a3.36,3.36,0,0,1,0,6.72Z"/><circle class="cls-5" cx="351.31" cy="479.61" r="12.87"/><path class="cls-7" d="M351.31,495.84a16.23,16.23,0,1,1,16.22-16.23h0A16.23,16.23,0,0,1,351.31,495.84Zm0-25.73a9.51,9.51,0,1,0,9.51,9.51h0a9.51,9.51,0,0,0-9.51-9.51Z"/><circle class="cls-8" cx="353.28" cy="237.11" r="32.3"/><path class="cls-8" d="M416.67,338H289.88c3.83-40.09,20-47.9,46.31-55.18a28.93,28.93,0,0,0,34.22,0C396.63,290.09,412.83,297.9,416.67,338Z"/><path class="cls-9" d="M384.08,237.25a32.36,32.36,0,0,1-25.64,31.81,32.32,32.32,0,0,0-21.14-56.91,33.2,33.2,0,0,0-6.44.67,31.71,31.71,0,0,1,20.67-7.65,32.31,32.31,0,0,1,32.55,32.06v0Z"/><path class="cls-9" d="M367.37,282.82a27.93,27.93,0,0,1-12.9,5.24c23.86,6.71,39.17,16.52,44,49.93h15.17c-3.83-40.07-20.09-47.92-46.31-55.17Z"/><path class="cls-4" d="M265.46,357.9h171.7v53.5H265.46Z"/><path class="cls-7" d="M437.16,414.75H265.46a3.35,3.35,0,0,1-3.35-3.35V357.9a3.36,3.36,0,0,1,3.35-3.36h171.7a3.36,3.36,0,0,1,3.36,3.36v53.5A3.35,3.35,0,0,1,437.16,414.75ZM268.82,408h165V361.26h-165Z"/><path class="cls-7" d="M395.29,398.92a3.35,3.35,0,0,1-3.35-3.36V373.73a3.36,3.36,0,1,1,6.71,0v21.83A3.36,3.36,0,0,1,395.29,398.92Z"/><path class="cls-7" d="M307.33,398.92a3.35,3.35,0,0,1-3.35-3.36V373.73a3.36,3.36,0,1,1,6.71,0v21.83A3.35,3.35,0,0,1,307.33,398.92Z"/><path class="cls-7" d="M298.1,393.08a3.35,3.35,0,0,1-1.68-6.26l18.92-10.91a3.36,3.36,0,0,1,3.36,5.81l-18.92,10.91a3.31,3.31,0,0,1-1.68.45Z"/><path class="cls-7" d="M316.58,393.08a3.31,3.31,0,0,1-1.68-.45L296,381.72a3.35,3.35,0,0,1,3.35-5.81l18.91,10.91a3.35,3.35,0,0,1-1.67,6.26Z"/><path class="cls-7" d="M351.31,398.92a3.35,3.35,0,0,1-3.35-3.36V373.73a3.36,3.36,0,1,1,6.71,0v21.83A3.35,3.35,0,0,1,351.31,398.92Z"/><path class="cls-7" d="M342.08,393.08a3.35,3.35,0,0,1-1.68-6.26l18.91-10.91a3.35,3.35,0,0,1,3.35,5.81l-18.9,10.91a3.31,3.31,0,0,1-1.68.45Z"/><path class="cls-7" d="M360.55,393.08a3.31,3.31,0,0,1-1.68-.45L340,381.72a3.36,3.36,0,0,1,3.36-5.81l18.91,10.91a3.36,3.36,0,0,1-1.68,6.26Z"/><path class="cls-7" d="M386.05,393.08a3.35,3.35,0,0,1-1.68-6.26l18.91-10.91a3.36,3.36,0,0,1,3.36,5.81l-18.91,10.91a3.31,3.31,0,0,1-1.68.45Z"/><path class="cls-7" d="M404.53,393.08a3.31,3.31,0,0,1-1.68-.45l-18.92-10.92a3.35,3.35,0,0,1,3.35-5.81l18.92,10.91a3.35,3.35,0,0,1-1.68,6.26Z"/><path class="cls-7" d="M548,548.15H481.77a3.36,3.36,0,1,1,0-6.71H548a3.36,3.36,0,0,1,0,6.71Z"/><path class="cls-7" d="M466.45,548.15h-8a3.36,3.36,0,0,1,0-6.71h8a3.36,3.36,0,0,1,0,6.71Z"/><path class="cls-7" d="M106.49,180.19a3.32,3.32,0,0,1-1.28-.25,3.36,3.36,0,0,1-1.82-4.38,49.64,49.64,0,0,1,46-30.88h15.69a3.36,3.36,0,0,1,0,6.72h-15.7a42.92,42.92,0,0,0-39.79,26.71A3.35,3.35,0,0,1,106.49,180.19Z"/><path class="cls-7" d="M189.4,151.42h-7.55a3.36,3.36,0,0,1,0-6.72h7.55a3.36,3.36,0,0,1,0,6.72Z"/><path class="cls-7" d="M579.49,441.07H123.13a3.35,3.35,0,0,1-3.35-3.35V194.43a29.62,29.62,0,0,1,29.59-29.59H553.25a29.63,29.63,0,0,1,29.6,29.59V437.72A3.35,3.35,0,0,1,579.49,441.07Zm-453-6.71H576.14V194.43a22.91,22.91,0,0,0-22.89-22.88H149.37a22.9,22.9,0,0,0-22.88,22.88Z"/><path class="cls-7" d="M553.25,528H149.37a29.63,29.63,0,0,1-29.6-29.59V437.72a3.36,3.36,0,0,1,3.36-3.36H579.49a3.35,3.35,0,0,1,3.36,3.36v60.67A29.63,29.63,0,0,1,553.25,528ZM126.49,441.07v57.32a22.9,22.9,0,0,0,22.88,22.88H553.25a22.91,22.91,0,0,0,22.89-22.88V441.07Z"/><path class="cls-7" d="M353.27,272.76a35.66,35.66,0,0,1-.21-71.31h.21a35.66,35.66,0,0,1,.22,71.31Zm-.17-64.59a28.94,28.94,0,0,0,.17,57.88h.18a28.94,28.94,0,0,0-.18-57.88Z"/><path class="cls-7" d="M416.66,341.35H289.88a3.35,3.35,0,0,1-3.37-3.34c0-.11,0-.22,0-.33,4.07-42.52,22.78-50.9,48.76-58.1a3.32,3.32,0,0,1,2.89.54,26,26,0,0,0,30.2,0,3.34,3.34,0,0,1,2.9-.54c26,7.2,44.62,15.59,48.7,58.1a3.37,3.37,0,0,1-3,3.66h-.28Zm-123-6.71H412.93c-4.2-34.46-18.79-41.61-41.9-48.17a32.76,32.76,0,0,1-35.46,0c-23.18,6.53-37.76,13.69-42,48.17Z"/><path class="cls-1" d="M191.59,413.15H150.65a5,5,0,0,1-5-5h0v-30a5,5,0,0,1,10.07,0v25h35.91a5,5,0,0,1,0,10.07Z"/><path class="cls-1" d="M150.65,360.69a5,5,0,0,1-5-5h0v-6.86a5,5,0,1,1,10.07,0v6.86a5,5,0,0,1-5,5Z"/></g></g></svg>