<svg xmlns="http://www.w3.org/2000/svg" viewBox="0 0 685.99 685.99"><defs><style>.cls-1{fill:#fff;}.cls-2{fill:#4dbdeb;}.cls-3{fill:#ffd262;}.cls-4{fill:#e4b34f;}.cls-5{fill:#0075a8;}.cls-6{fill:#f5f5f5;}.cls-7{fill:#f0f7f7;}.cls-8{fill:#00405c;}</style></defs><g id="Layer_2" data-name="Layer 2"><g id="Layer_1-2" data-name="Layer 1"><path class="cls-1" d="M343,676A333,333,0,0,1,107.53,107.53,333,333,0,0,1,578.46,578.46,330.85,330.85,0,0,1,343,676Z"/><path class="cls-2" d="M343,20c178.39,0,323,144.61,323,323S521.38,666,343,666,20,521.38,20,343,164.61,20,343,20m0-20A343.08,343.08,0,0,0,209.48,659,343.08,343.08,0,0,0,476.51,27,340.89,340.89,0,0,0,343,0Z"/><path class="cls-3" d="M560.36,272.17v235.9c0,14.66-25.71,22.79-37.14,13.6L493.9,483.34a17.48,17.48,0,0,0-12.4-5.16H272.29a34.91,34.91,0,0,1-34.92-34.91V272.17a34.92,34.92,0,0,1,34.92-34.92H525.44A34.93,34.93,0,0,1,560.36,272.17Z"/><path class="cls-4" d="M560.36,505.17v2.9c0,14.66-25.71,22.79-37.14,13.6L493.9,483.34a17.48,17.48,0,0,0-12.4-5.16H272.29A34.9,34.9,0,0,1,242,460.73H492.85a17.47,17.47,0,0,1,12.4,5.15l29.32,38.33C541,509.39,552,509.07,560.36,505.17Z"/><path class="cls-4" d="M475.68,237.25V357.72a59.42,59.42,0,0,1-59.36,59.36H237.37V272.17a34.92,34.92,0,0,1,34.92-34.92Z"/><path class="cls-2" d="M125.63,347.68V195.35a34.92,34.92,0,0,1,34.92-34.92H416.32a34.92,34.92,0,0,1,34.92,34.92V357.72a34.92,34.92,0,0,1-34.92,34.92H204.48a17.47,17.47,0,0,0-12.39,5.15L154,436.12a17.46,17.46,0,0,1-28.41-13.6V347.68Z"/><path class="cls-5" d="M451.24,352.48v5.24a34.93,34.93,0,0,1-34.92,34.92H204.48a17.47,17.47,0,0,0-12.39,5.15L154,436.12a17.46,17.46,0,0,1-28.41-13.6V413a17.17,17.17,0,0,0,16.18-3.05l38.06-38.32a17.48,17.48,0,0,1,12.39-5.16H423.31A34.85,34.85,0,0,0,451.24,352.48Z"/><circle class="cls-6" cx="288.43" cy="276.53" r="19.64"/><path class="cls-6" d="M341.25,276.53A19.65,19.65,0,0,1,360,256.91l.93,0a19.64,19.64,0,0,1,19.64,19.64c0,.63,0,1.26-.09,1.87a19.64,19.64,0,0,1-39.19-1.87Z"/><circle class="cls-6" cx="215.98" cy="276.53" r="19.64"/><path class="cls-7" d="M308.08,276.53a19.65,19.65,0,0,1-37.51,8.17,19.45,19.45,0,0,0,10,2.75,19.65,19.65,0,0,0,17.86-27.82,19.63,19.63,0,0,1,9.64,16.9Z"/><path class="cls-7" d="M380.53,276.53c0,.63,0,1.26-.09,1.87A19.64,19.64,0,0,1,343,284.7a19.41,19.41,0,0,0,10,2.75,19.66,19.66,0,0,0,19.56-17.78c.06-.61.08-1.24.08-1.87a19.44,19.44,0,0,0-1.78-8.17A19.63,19.63,0,0,1,380.53,276.53Z"/><path class="cls-7" d="M235.62,276.53a19.64,19.64,0,0,1-37.5,8.17,19.41,19.41,0,0,0,10,2.75,19.65,19.65,0,0,0,19.65-19.65,19.44,19.44,0,0,0-1.79-8.17A19.63,19.63,0,0,1,235.62,276.53Z"/><path class="cls-8" d="M416.32,399.19a41.52,41.52,0,0,0,41.47-41.46V300.55a6.55,6.55,0,1,0-13.1,0v57.18a28.4,28.4,0,0,1-28.37,28.37H204.48a24.17,24.17,0,0,0-17,7.09l-37.77,38a10.91,10.91,0,0,1-17.49-8.7V377.37a6.55,6.55,0,0,0-13.1,0v45.16a24,24,0,0,0,39.06,18.7,6.28,6.28,0,0,0,.54-.49l38.06-38.32a11,11,0,0,1,7.74-3.23h26.34v44.09a41.51,41.51,0,0,0,41.47,41.46H401a6.55,6.55,0,1,0,0-13.09H272.29a28.41,28.41,0,0,1-28.38-28.37V399.19Z"/><path class="cls-8" d="M525.44,230.72H457.79V195.36a41.52,41.52,0,0,0-41.47-41.46H160.55a41.51,41.51,0,0,0-41.47,41.46V347.69a6.55,6.55,0,0,0,13.1,0V195.36A28.4,28.4,0,0,1,160.55,167H416.32a28.4,28.4,0,0,1,28.37,28.37v75.51a6.55,6.55,0,0,0,13.1,0V243.81h67.65a28.41,28.41,0,0,1,28.37,28.37v65.91a6.55,6.55,0,0,0,13.09,0V272.18A41.51,41.51,0,0,0,525.44,230.72Z"/><path class="cls-8" d="M560.36,361.22a6.55,6.55,0,0,0-6.55,6.55V508.08c0,4.64-5.64,7.7-7.36,8.53-6.42,3.07-14.39,3.19-18.58.36l-28.77-37.6a6.64,6.64,0,0,0-.56-.63,24.13,24.13,0,0,0-17-7.09H430.73a6.55,6.55,0,1,0,0,13.09h50.78a11,11,0,0,1,7.47,3l29,37.95a6.85,6.85,0,0,0,1.1,1.12c4.71,3.79,10.7,5.31,16.67,5.31a38.82,38.82,0,0,0,16.31-3.67c9.27-4.44,14.8-12,14.8-20.34V367.77A6.54,6.54,0,0,0,560.36,361.22Z"/><path class="cls-8" d="M314.62,276.54a26.19,26.19,0,1,0-26.19,26.19A26.21,26.21,0,0,0,314.62,276.54Zm-39.28,0a13.1,13.1,0,1,1,13.09,13.1A13.1,13.1,0,0,1,275.34,276.54Z"/><path class="cls-8" d="M387,279c.08-.82.12-1.66.12-2.49a26.21,26.21,0,0,0-26.19-26.18c-.42,0-.83,0-1.24,0A26.18,26.18,0,1,0,387,279Zm-39.16-2.49a13.06,13.06,0,0,1,12.47-13.07l.62,0A13.1,13.1,0,0,1,374,276.54c0,.42,0,.85-.05,1.26a13.1,13.1,0,0,1-26.13-1.26Z"/><path class="cls-8" d="M242.17,276.54A26.19,26.19,0,1,0,216,302.73,26.21,26.21,0,0,0,242.17,276.54Zm-39.28,0A13.09,13.09,0,1,1,216,289.64,13.1,13.1,0,0,1,202.89,276.54Z"/></g></g></svg>