<svg xmlns="http://www.w3.org/2000/svg" viewBox="0 0 685.99 685.99"><defs><style>.cls-1{fill:#fff;}.cls-2{fill:#4dbdeb;}.cls-3{fill:#f0f7f7;}.cls-4{fill:#0075a8;}.cls-5{fill:#ffd262;}.cls-6{opacity:0.47;}.cls-7{fill:#00405c;}</style></defs><g id="Layer_2" data-name="Layer 2"><g id="Layer_1-2" data-name="Layer 1"><path class="cls-1" d="M343,676A333,333,0,0,1,107.53,107.53,333,333,0,0,1,578.46,578.46,330.85,330.85,0,0,1,343,676Z"/><path class="cls-2" d="M343,20c178.39,0,323,144.61,323,323S521.38,666,343,666,20,521.38,20,343,164.61,20,343,20m0-20A343.08,343.08,0,0,0,209.48,659,343.08,343.08,0,0,0,476.51,27,340.89,340.89,0,0,0,343,0Z"/><path class="cls-3" d="M550.55,462.52H116.33a16.69,16.69,0,0,1-16.69-16.69V178.48a16.69,16.69,0,0,1,16.69-16.69H550.55a16.69,16.69,0,0,1,16.69,16.69V445.83a16.69,16.69,0,0,1-16.69,16.69Z"/><path class="cls-4" d="M358.06,282a44.93,44.93,0,0,1,0,61.88,40.05,40.05,0,0,1-29.23,13.09,41.27,41.27,0,0,1-30-13.09,45.58,45.58,0,0,1,0-61.88,40.82,40.82,0,0,1,30-13.09A39.61,39.61,0,0,1,358.06,282Zm-1.59,30.94a31.64,31.64,0,0,0-8.32-21.4,26.39,26.39,0,0,0-39.13,0,31.08,31.08,0,0,0-8.32,21.4A30.57,30.57,0,0,0,309,334.19a26.15,26.15,0,0,0,39.13,0,31.11,31.11,0,0,0,8.32-21.28Z"/><path class="cls-5" d="M218,350.21V278.05a6.62,6.62,0,0,1,6.73-6.72h40a6.78,6.78,0,0,1,6.72,6.72,6.89,6.89,0,0,1-6.72,6.85H231.61v22.38H260.1a6.79,6.79,0,0,1,0,13.58H231.61v22.5h33.14a6.79,6.79,0,0,1,0,13.58H225.12c-.24,0-.24-.13-.24-.13l-.13.13a6.7,6.7,0,0,1-6.72-6.73Z"/><path class="cls-4" d="M133.77,335.66a6.37,6.37,0,0,1,8.92-.86c5.38,4.4,14.68,9.54,23.36,9.42a26.29,26.29,0,0,0,15.29-4.53c3.67-2.69,5.26-5.75,5.26-8.8a7.05,7.05,0,0,0-1.1-3.92,11.65,11.65,0,0,0-3.67-3.67c-3.55-2.32-9.54-4.4-16.76-5.74h-.24a66.71,66.71,0,0,1-15.78-4.77,26.34,26.34,0,0,1-11.37-9.54,18.74,18.74,0,0,1-2.82-10c0-7.34,4.16-13.7,9.79-17.86a36.16,36.16,0,0,1,21.16-6.48c11.74,0,20.42,5.75,26.66,9.78a6.3,6.3,0,0,1,1.71,8.69,6.17,6.17,0,0,1-8.68,1.83c-6.24-4.16-12.23-7.82-19.69-7.82a23.39,23.39,0,0,0-13.7,4.15c-3.31,2.45-4.65,5.14-4.65,7.71a5.94,5.94,0,0,0,.86,3.42,11.71,11.71,0,0,0,3.3,3.18c3.18,2.2,8.68,4.16,15.28,5.38h.25A72.57,72.57,0,0,1,184,310.34c5,2.45,9.41,5.63,12.23,10.15a19.9,19.9,0,0,1,2.93,10.4c0,7.82-4.4,14.55-10.52,18.95a38.19,38.19,0,0,1-22.62,7c-13.21-.13-24.34-6.73-31.31-12.23a6.51,6.51,0,0,1-1-8.93Z"/><g class="cls-6"><path class="cls-2" d="M550.55,161.79H531.7a16.68,16.68,0,0,1,16.68,16.69V445.83a16.69,16.69,0,0,1-16.68,16.69h18.85a16.69,16.69,0,0,0,16.69-16.69V178.48a16.69,16.69,0,0,0-16.69-16.69Z"/></g><path class="cls-1" d="M116.33,462.52h18.85a16.68,16.68,0,0,1-16.68-16.69V178.48a16.69,16.69,0,0,1,16.68-16.69H116.33a16.69,16.69,0,0,0-16.69,16.69V445.83a16.69,16.69,0,0,0,16.69,16.69Z"/><path class="cls-4" d="M486,524.47H180.9V502.12a16.68,16.68,0,0,1,16.69-16.68h271.7A16.69,16.69,0,0,1,486,502.12v22.35Z"/><path class="cls-4" d="M469.29,485.44H450.43a16.68,16.68,0,0,1,16.69,16.68v22.35H486V502.12A16.7,16.7,0,0,0,469.29,485.44Z"/><path class="cls-4" d="M197.59,485.44h18.85a16.68,16.68,0,0,0-16.68,16.68v22.35H180.9V502.12A16.68,16.68,0,0,1,197.59,485.44Z"/><path class="cls-4" d="M243.89,462.52H423v22.92H243.89Z"/><path class="cls-7" d="M114.73,232.56a3.93,3.93,0,0,1-3.93-3.93V205.08a3.93,3.93,0,0,1,7.85,0v23.55A3.93,3.93,0,0,1,114.73,232.56Z"/><path class="cls-7" d="M486,528.4H180.9a3.93,3.93,0,0,1-3.92-3.93V502.12a20.63,20.63,0,0,1,20.61-20.61h271.7a20.64,20.64,0,0,1,20.61,20.61v22.35A3.93,3.93,0,0,1,486,528.4Zm-301.14-7.85H482.05V502.12a12.78,12.78,0,0,0-12.76-12.76H197.59a12.78,12.78,0,0,0-12.76,12.76Z"/><path class="cls-7" d="M423,489.36H243.89a3.93,3.93,0,0,1-3.93-3.92V462.52a3.93,3.93,0,0,1,3.93-3.93H423a3.93,3.93,0,0,1,3.93,3.93v22.92A3.93,3.93,0,0,1,423,489.36Zm-175.18-7.85H419.07V466.44H247.81Z"/><path class="cls-7" d="M550.55,466.44H116.33a20.63,20.63,0,0,1-20.61-20.61V178.48a20.63,20.63,0,0,1,20.61-20.61H550.55a20.63,20.63,0,0,1,20.61,20.61V445.83A20.63,20.63,0,0,1,550.55,466.44ZM116.33,165.72a12.77,12.77,0,0,0-12.76,12.76V445.83a12.77,12.77,0,0,0,12.76,12.76H550.55a12.78,12.78,0,0,0,12.76-12.76V178.48a12.78,12.78,0,0,0-12.76-12.76Z"/><path class="cls-4" d="M486,575a30.72,30.72,0,0,1-30.55-33.9l14.74-141.66h31.63l14.74,141.66A30.72,30.72,0,0,1,486,575Z"/><path class="cls-4" d="M516.53,541.05,501.79,399.39h-9.5L507,541.05a30.74,30.74,0,0,1-25.81,33.53,30.71,30.71,0,0,0,35.3-33.53Z"/><path class="cls-4" d="M455.42,541.05l14.74-141.66h9.49L464.91,541.05a30.73,30.73,0,0,0,25.81,33.53,30.71,30.71,0,0,1-35.3-33.53Z"/><path class="cls-7" d="M486,578.87a34.64,34.64,0,0,1-34.45-38.23L466.26,399a3.92,3.92,0,0,1,3.9-3.52h31.63a3.92,3.92,0,0,1,3.9,3.52l14.74,141.65A34.64,34.64,0,0,1,486,578.87ZM473.7,403.32,459.32,541.45a26.8,26.8,0,1,0,53.31,0L498.25,403.32Z"/><circle class="cls-5" cx="485.89" cy="312.15" r="100.41"/><path class="cls-5" d="M483.64,412.21c1.73.14,3.47.23,5.23.29a100.39,100.39,0,0,0,0-200.69c-1.75.06-3.49.15-5.22.29a100.39,100.39,0,0,1,0,200.11Z"/><path class="cls-5" d="M488.31,212.1c-1.73-.14-3.48-.23-5.23-.29a100.39,100.39,0,0,0,0,200.69c1.75-.06,3.5-.15,5.22-.29a100.39,100.39,0,0,1,0-200.11Z"/><path class="cls-7" d="M486,416.45a104.3,104.3,0,1,1,73.78-30.51A104,104,0,0,1,486,416.45Zm0-200.74a96.45,96.45,0,1,0,68.23,28.21A96.21,96.21,0,0,0,486,215.71Z"/><circle class="cls-3" cx="485.97" cy="312.15" r="74.08"/><path class="cls-7" d="M486,390.13a78,78,0,1,1,55.17-22.81A77.81,77.81,0,0,1,486,390.13ZM486,242a70.13,70.13,0,1,0,49.62,20.51A70,70,0,0,0,486,242Z"/><path class="cls-7" d="M166.05,360.74c-14.37-.13-26.28-7.18-33.74-13.07a10.46,10.46,0,0,1-1.65-14.41l.07-.09a10.12,10.12,0,0,1,7-3.68,10.23,10.23,0,0,1,7.5,2.28c4.84,4,13.09,8.53,20.56,8.53H166c5,0,9.81-1.41,13-3.77,2.42-1.78,3.65-3.68,3.65-5.64a3.09,3.09,0,0,0-.53-1.89,7.52,7.52,0,0,0-2.49-2.42c-3.06-2-8.5-3.86-15-5.1a3.08,3.08,0,0,1-.61-.06,69.68,69.68,0,0,1-16.72-5.08,30,30,0,0,1-13-11,22.8,22.8,0,0,1-3.42-12.12c0-8,4.15-15.66,11.38-21A40.24,40.24,0,0,1,165.81,265c12.71,0,22.21,6.15,28.49,10.22l.3.19a10.38,10.38,0,0,1,4.36,6.54,10.36,10.36,0,0,1-7.87,12,10.08,10.08,0,0,1-7.77-1.49c-6.09-4.06-11.25-7.17-17.51-7.17a19.44,19.44,0,0,0-11.36,3.39c-1.4,1-3.06,2.66-3.06,4.55,0,.93.13,1.14.26,1.35a7.75,7.75,0,0,0,2.21,2c2.66,1.84,7.66,3.59,13.43,4.68a4.2,4.2,0,0,1,.62.08,74.11,74.11,0,0,1,17.81,5.44c6.43,3.14,11,6.94,13.87,11.62a23.77,23.77,0,0,1,3.53,12.47c0,8.51-4.43,16.58-12.15,22.15a42.38,42.38,0,0,1-24.92,7.7ZM136.84,338.1a2.61,2.61,0,0,0,.39,3.45c6.45,5.08,16.74,11.23,28.86,11.34a34.41,34.41,0,0,0,20.26-6.21c5.68-4.09,8.92-9.84,8.92-15.79a15.89,15.89,0,0,0-2.34-8.32c-2.11-3.4-5.59-6.25-10.62-8.7a66.9,66.9,0,0,0-15.56-4.74,3.73,3.73,0,0,1-.56-.07c-7.14-1.32-13.11-3.46-16.8-6a15.38,15.38,0,0,1-4.4-4.33,9.84,9.84,0,0,1-1.45-5.5c0-2.85,1.08-7.05,6.24-10.86a27.32,27.32,0,0,1,16-4.93c8.44,0,15.16,4,21.87,8.48a2.26,2.26,0,0,0,1.76.35,2.23,2.23,0,0,0,1.42-1,2.32,2.32,0,0,0,.41-1.8,2.54,2.54,0,0,0-1-1.58l-.19-.13c-5.84-3.78-13.84-8.95-24.23-8.95A32.32,32.32,0,0,0,147,278.54c-5.17,3.83-8.16,9.18-8.16,14.68a14.79,14.79,0,0,0,2.22,7.95,22.47,22.47,0,0,0,9.73,8.07,61.29,61.29,0,0,0,14.48,4.39,3.68,3.68,0,0,1,.58.07c7.69,1.43,14.15,3.68,18.19,6.32a15.57,15.57,0,0,1,4.88,4.93,11,11,0,0,1,1.66,5.94c0,3.16-1.19,7.81-6.86,12-4.66,3.42-11.28,5.27-18,5.29-9.48,0-19.36-5.3-25.49-10.31a2.44,2.44,0,0,0-1.79-.54,2.41,2.41,0,0,0-1.58.8Z"/><path class="cls-7" d="M264.75,360.86h-40a10.67,10.67,0,0,1-10.66-10.65V278.05a10.54,10.54,0,0,1,10.66-10.65h40a10.67,10.67,0,0,1,10.65,10.65,10.86,10.86,0,0,1-10.65,10.78H235.53v14.53H260.1a10.71,10.71,0,0,1,0,21.42H235.53v14.66h29.22a10.71,10.71,0,0,1,0,21.42ZM228.8,356.8Zm-3-3.72a5.08,5.08,0,0,1,.51.17,3.9,3.9,0,0,1,2.47,3.55A3.83,3.83,0,0,0,225.82,353.08Zm-.35-.07h39.28a2.86,2.86,0,0,0,0-5.72H231.6a3.93,3.93,0,0,1-3.92-3.93v-22.5a3.93,3.93,0,0,1,3.92-3.93h28.5a2.9,2.9,0,0,0,2.8-2.92,3,3,0,0,0-2.8-2.8H231.6a3.93,3.93,0,0,1-3.92-3.93V284.9A3.93,3.93,0,0,1,231.6,281h33.15a3,3,0,0,0,2.8-2.92,2.89,2.89,0,0,0-2.8-2.81H224.88a2.75,2.75,0,0,0-2.93,2.81v72.15a2.76,2.76,0,0,0,2.47,2.78,4.11,4.11,0,0,1,1.05,0Z"/><path class="cls-7" d="M328.83,360.86A45.27,45.27,0,0,1,296,346.54a49.52,49.52,0,0,1,0-67.26A44.85,44.85,0,0,1,328.83,265,43.73,43.73,0,0,1,361,279.32a48.86,48.86,0,0,1-.05,67.24,44.09,44.09,0,0,1-32.07,14.3Zm0-88.05a37,37,0,0,0-27.08,11.82,41,41,0,0,0-11.07,28.28,40.6,40.6,0,0,0,11,28.23A37.33,37.33,0,0,0,328.83,353a36.18,36.18,0,0,0,26.32-11.8,40.76,40.76,0,0,0,11.33-28.3,41.19,41.19,0,0,0-11.29-28.26l-.06-.07a35.8,35.8,0,0,0-26.3-11.77Zm0,74.11a30.82,30.82,0,0,1-22.68-10.05,34.44,34.44,0,0,1-9.38-24,35.1,35.1,0,0,1,9.41-24.11,30.3,30.3,0,0,1,44.84,0,35.62,35.62,0,0,1,9.37,24.08,35,35,0,0,1-9.4,24,30.26,30.26,0,0,1-22.16,10Zm0-60.17a22.67,22.67,0,0,0-16.94,7.44,27.2,27.2,0,0,0-7.26,18.72,26.62,26.62,0,0,0,7.19,18.54,22.82,22.82,0,0,0,17,7.62,22.51,22.51,0,0,0,16.45-7.56,27.05,27.05,0,0,0,7.26-18.6,27.7,27.7,0,0,0-7.26-18.73,22.43,22.43,0,0,0-16.45-7.43Z"/><path class="cls-5" d="M541.8,321.6V302.9H531.45a46,46,0,0,0-6.72-16.19l7.33-7.33-13.22-13.22-7.33,7.33a46,46,0,0,0-16.19-6.72V256.42h-18.7v10.35a46,46,0,0,0-16.18,6.72l-7.33-7.33-13.22,13.22,7.32,7.33a46.19,46.19,0,0,0-6.71,16.19H430.15v18.7H440.5a46.07,46.07,0,0,0,6.71,16.18l-7.32,7.33,13.22,13.22,7.33-7.32a46.22,46.22,0,0,0,16.18,6.71v10.35h18.7V357.72A46.19,46.19,0,0,0,511.51,351l7.33,7.32,13.22-13.22-7.33-7.33a46.05,46.05,0,0,0,6.72-16.18ZM486,340.23a28,28,0,1,1,28-28A28,28,0,0,1,486,340.23Z"/><path class="cls-7" d="M495.33,372h-18.7a3.93,3.93,0,0,1-3.93-3.93v-7.25A49.22,49.22,0,0,1,461,356l-5.14,5.14a3.93,3.93,0,0,1-5.55,0l-13.22-13.22a3.91,3.91,0,0,1,0-5.55l5.13-5.14a50.31,50.31,0,0,1-4.85-11.68h-7.25a3.92,3.92,0,0,1-3.93-3.92V302.9a3.93,3.93,0,0,1,3.93-3.93h7.25a49.64,49.64,0,0,1,4.85-11.67l-5.13-5.14a3.91,3.91,0,0,1,0-5.55l13.22-13.22a3.91,3.91,0,0,1,5.55,0l5.14,5.13a50.06,50.06,0,0,1,11.67-4.85v-7.25a3.93,3.93,0,0,1,3.93-3.92h18.7a3.93,3.93,0,0,1,3.92,3.92v7.25a50.31,50.31,0,0,1,11.68,4.85l5.13-5.13a3.91,3.91,0,0,1,5.55,0l13.23,13.22a3.93,3.93,0,0,1,0,5.55l-5.14,5.14A49.64,49.64,0,0,1,534.55,299h7.25a3.93,3.93,0,0,1,3.93,3.93v18.7a3.92,3.92,0,0,1-3.93,3.92h-7.25a49.88,49.88,0,0,1-4.85,11.68l5.14,5.14a3.93,3.93,0,0,1,0,5.55l-13.23,13.22a3.93,3.93,0,0,1-5.55,0L510.93,356a49.46,49.46,0,0,1-11.68,4.85v7.25A3.93,3.93,0,0,1,495.33,372Zm-14.78-7.85H491.4v-6.43a3.92,3.92,0,0,1,3.14-3.84,42.13,42.13,0,0,0,14.81-6.15,3.92,3.92,0,0,1,4.94.5l4.55,4.55,7.67-7.67L522,340.56a3.92,3.92,0,0,1-.5-4.94,42.17,42.17,0,0,0,6.15-14.81,3.92,3.92,0,0,1,3.84-3.13h6.43V306.83h-6.43a4,4,0,0,1-3.85-3.14,42,42,0,0,0-6.14-14.81,3.92,3.92,0,0,1,.5-4.94l4.55-4.55-7.67-7.68-4.55,4.56a3.94,3.94,0,0,1-4.94.5,42.06,42.06,0,0,0-14.81-6.15,3.92,3.92,0,0,1-3.14-3.85v-6.42H480.55v6.42a3.92,3.92,0,0,1-3.14,3.85,42.13,42.13,0,0,0-14.81,6.15,3.94,3.94,0,0,1-4.94-.5l-4.55-4.56-7.67,7.68,4.55,4.55a3.92,3.92,0,0,1,.5,4.94,42,42,0,0,0-6.15,14.81,3.93,3.93,0,0,1-3.84,3.14h-6.43v10.85h6.43a3.92,3.92,0,0,1,3.84,3.13,42,42,0,0,0,6.15,14.81,3.92,3.92,0,0,1-.5,4.94l-4.55,4.55,7.67,7.67,4.55-4.55a3.94,3.94,0,0,1,4.94-.5,42.06,42.06,0,0,0,14.81,6.15,3.92,3.92,0,0,1,3.14,3.84Zm5.42-20a31.91,31.91,0,1,1,31.92-31.91A32,32,0,0,1,486,344.16Zm0-56A24.06,24.06,0,1,0,510,312.25,24.09,24.09,0,0,0,486,288.19Z"/></g></g></svg>