<svg xmlns="http://www.w3.org/2000/svg" viewBox="0 0 685.99 685.99"><defs><style>.cls-1{fill:#fff;}.cls-2{fill:#4dbdeb;}.cls-3{fill:#ffd262;}.cls-4{fill:#0075a8;}.cls-5{fill:#00405c;}</style></defs><g id="Layer_2" data-name="Layer 2"><g id="Layer_1-2" data-name="Layer 1"><path class="cls-1" d="M343,676A333,333,0,0,1,107.53,107.53,333,333,0,0,1,578.46,578.46,330.85,330.85,0,0,1,343,676Z"/><path class="cls-2" d="M343,20c178.39,0,323,144.61,323,323S521.38,666,343,666,20,521.38,20,343,164.61,20,343,20m0-20A343.08,343.08,0,0,0,209.48,659,343.08,343.08,0,0,0,476.51,27,340.89,340.89,0,0,0,343,0Z"/><g id="Layer_1-2-2" data-name="Layer 1-2"><path class="cls-3" d="M520.76,405.45v98.68A32.89,32.89,0,0,1,487.87,537H159a32.9,32.9,0,0,1-32.89-32.89V405.45Z"/><path class="cls-3" d="M520.57,328.06H126.26A32.89,32.89,0,0,1,159,297.11H487.87A32.89,32.89,0,0,1,520.57,328.06Z"/><polygon class="cls-2" points="288.48 224.62 299.12 251.21 247.39 277.07 236.75 250.48 288.48 224.62"/><path class="cls-4" d="M557.71,260.5a34.17,34.17,0,0,1-19,43.73l-8.09,3.28a48.36,48.36,0,0,0-42.77-25.88h-215l39.54-19.76a7.73,7.73,0,0,0,3.73-9.8l-16.44-41h0a7.74,7.74,0,0,0-10.05-4.31l-.6.27-65.61,32.83a7.75,7.75,0,0,0-3.73,9.8l12.8,32H191.85l-9.15-24.45a33.86,33.86,0,0,1,18.83-43.34L461,106.28h0a34,34,0,0,1,44.42,18.38c.12.26.22.54.33.81Zm-40.55-31.31L510.87,215l-73.82,32.83L443.33,262Zm-16.28-32.87-6.48-14L387.76,231.51l6.49,14Z"/><path class="cls-5" d="M572.16,254.89a49.72,49.72,0,0,1-27.63,63.63l-9,3.64a45.8,45.8,0,0,1,.7,7.84V504.13a48.41,48.41,0,0,1-48.37,48.36H159a48.42,48.42,0,0,1-48.37-48.36V330A48.43,48.43,0,0,1,159,281.63h16.37l-7.13-19.06a49.33,49.33,0,0,1,27.39-63.07L455.1,91.92l1.1-.44a49.53,49.53,0,0,1,64,28.39Zm-33.43,49.34a34.17,34.17,0,0,0,19-43.73l-51.93-135c-.11-.27-.21-.55-.33-.81A34,34,0,0,0,461,106.28h0L201.53,213.84a33.86,33.86,0,0,0-18.83,43.34l9.15,24.45h40.68l-12.8-32a7.75,7.75,0,0,1,3.73-9.8L289.07,207l.6-.27a7.74,7.74,0,0,1,10.05,4.31h0l16.44,41a7.73,7.73,0,0,1-3.73,9.8L272.9,281.63h215a48.36,48.36,0,0,1,42.77,25.88Zm-18,199.9V405.45H126.07v98.68A32.9,32.9,0,0,0,159,537H487.87A32.89,32.89,0,0,0,520.76,504.13Zm0-114.16V343.54H126.07V390Zm-394.5-61.91H520.57a32.89,32.89,0,0,0-32.7-30.95H159A32.89,32.89,0,0,0,126.26,328.06Zm172.86-76.85-10.64-26.59-51.73,25.86,10.64,26.59Z"/><rect class="cls-5" x="126.07" y="343.54" width="394.69" height="46.43"/><rect class="cls-5" x="126.07" y="343.53" width="394.69" height="0.01"/><polygon class="cls-2" points="510.87 215.04 517.16 229.19 443.33 262.01 437.05 247.87 510.87 215.04"/><polygon class="cls-2" points="494.4 182.28 500.88 196.32 394.25 245.55 387.76 231.51 494.4 182.28"/></g></g></g></svg>