<svg xmlns="http://www.w3.org/2000/svg" viewBox="0 0 685.99 685.99"><defs><style>.cls-1{fill:#fff;}.cls-2{fill:#4dbdeb;}.cls-3{fill:#0075a8;}.cls-4{fill:#00405c;}.cls-5{fill:#f0f7f7;}.cls-6{fill:#ffd262;}.cls-7{fill:#e4b34f;}</style></defs><g id="Layer_2" data-name="Layer 2"><g id="Layer_1-2" data-name="Layer 1"><path class="cls-1" d="M343,676A333,333,0,0,1,107.53,107.53,333,333,0,0,1,578.46,578.46,330.85,330.85,0,0,1,343,676Z"/><path class="cls-2" d="M343,20c178.39,0,323,144.61,323,323S521.38,666,343,666,20,521.38,20,343,164.61,20,343,20m0-20A343.08,343.08,0,0,0,209.48,659,343.08,343.08,0,0,0,476.51,27,340.89,340.89,0,0,0,343,0Z"/><path class="cls-3" d="M535.65,552.55H150.33a16.9,16.9,0,0,1-16.9-16.9V150.33a16.9,16.9,0,0,1,16.9-16.9H535.65a16.9,16.9,0,0,1,16.9,16.9V535.65A16.89,16.89,0,0,1,535.65,552.55Z"/><path class="cls-2" d="M150.33,535.65V150.33a16.9,16.9,0,0,1,16.9-16.9h-16.9a16.9,16.9,0,0,0-16.9,16.9V535.65a16.9,16.9,0,0,0,16.9,16.9h16.9A16.9,16.9,0,0,1,150.33,535.65Z"/><path class="cls-3" d="M150.33,552.55H535.65a16.89,16.89,0,0,0,16.9-16.9V343H133.43V535.65A16.9,16.9,0,0,0,150.33,552.55Z"/><path class="cls-3" d="M343.22,552.55H535.65a16.89,16.89,0,0,0,16.9-16.9V150.33a16.9,16.9,0,0,0-16.9-16.9H343.22Z"/><path class="cls-2" d="M150.33,535.65V343h-16.9V535.65a16.9,16.9,0,0,0,16.9,16.9h16.9A16.9,16.9,0,0,1,150.33,535.65Z"/><path class="cls-3" d="M535.65,133.43h-16.9a16.9,16.9,0,0,1,16.9,16.9V535.65a16.89,16.89,0,0,1-16.9,16.9h16.9a16.89,16.89,0,0,0,16.9-16.9V150.33A16.9,16.9,0,0,0,535.65,133.43Z"/><path class="cls-3" d="M343.22,552.55H535.65a16.89,16.89,0,0,0,16.9-16.9V343H343.22Z"/><path class="cls-3" d="M535.65,343V535.65a16.89,16.89,0,0,1-16.9,16.9h16.9a16.89,16.89,0,0,0,16.9-16.9V343Z"/><path class="cls-4" d="M535.65,555.93H150.33a20.3,20.3,0,0,1-20.28-20.28V343a3.39,3.39,0,0,1,3.38-3.38H552.55a3.38,3.38,0,0,1,3.38,3.38V535.65A20.29,20.29,0,0,1,535.65,555.93ZM136.81,346.37V535.65a13.54,13.54,0,0,0,13.52,13.52H535.65a13.53,13.53,0,0,0,13.52-13.52V346.37Z"/><path class="cls-4" d="M535.65,555.93H150.33a20.3,20.3,0,0,1-20.28-20.28V150.33a20.31,20.31,0,0,1,20.28-20.28H535.65a20.3,20.3,0,0,1,20.28,20.28V535.65A20.29,20.29,0,0,1,535.65,555.93ZM150.33,136.81a13.54,13.54,0,0,0-13.52,13.52V535.65a13.54,13.54,0,0,0,13.52,13.52H535.65a13.53,13.53,0,0,0,13.52-13.52V150.33a13.54,13.54,0,0,0-13.52-13.52Z"/><path class="cls-5" d="M196.66,171h12.52V150.72H196.66a27.07,27.07,0,0,0-27,27v9.74H150.33v20.28h19.29v62.77H189.9V207.78h19.28V187.5H189.9v-9.75a6.76,6.76,0,0,1,6.76-6.75Z"/><path class="cls-5" d="M434.3,220.26s20.78,2.47,28.58-8.78c-11.7-2.29-17.21-14-17.21-14h6a35.55,35.55,0,0,1-14.47-20.43l8,2.07s-9.64-9.65-2.53-27.09c8.5,13.54,28,21.12,39.95,21.58-3.45-19.06,20.89-31.91,36.73-16.3,10.1-2.53,13.08-6,13.08-6l-3,11,6.19.92a30.76,30.76,0,0,1-10.33,9.64c-3,23.18-20.21,74.76-91,47.34Z"/><path class="cls-5" d="M515.79,515.24a8.39,8.39,0,0,1-8.38-8.38V478.71h26.2V458.43h-26.2V433.26H487.13v12.95a12.22,12.22,0,0,1-12.22,12.22h-4.25v20.28h16.47v33.66a23.16,23.16,0,0,0,23.15,23.15h8.31a44.78,44.78,0,0,0,17.06-3.38V511.86a44.78,44.78,0,0,1-17.06,3.38Z"/><path class="cls-5" d="M223.84,535.65H167.23a16.9,16.9,0,0,1-16.9-16.9V462.14a16.9,16.9,0,0,1,16.9-16.9h56.61a16.9,16.9,0,0,1,16.9,16.9v56.61A16.89,16.89,0,0,1,223.84,535.65Z"/><path class="cls-4" d="M535.65,555.93H343.22a3.38,3.38,0,0,1-3.38-3.38V343a3.39,3.39,0,0,1,3.38-3.38H552.55a3.38,3.38,0,0,1,3.38,3.38V535.65A20.29,20.29,0,0,1,535.65,555.93Zm-189-6.76h189a13.53,13.53,0,0,0,13.52-13.52V346.37H346.6Z"/><path class="cls-4" d="M535.65,555.93H343.22a3.38,3.38,0,0,1-3.38-3.38V133.43a3.39,3.39,0,0,1,3.38-3.38H535.65a20.3,20.3,0,0,1,20.28,20.28V535.65A20.29,20.29,0,0,1,535.65,555.93Zm-189-6.76h189a13.53,13.53,0,0,0,13.52-13.52V150.33a13.54,13.54,0,0,0-13.52-13.52h-189Z"/><path class="cls-4" d="M189.9,273.93H169.62a3.38,3.38,0,0,1-3.38-3.38V211.16H150.33a3.39,3.39,0,0,1-3.38-3.38V187.5a3.38,3.38,0,0,1,3.38-3.38h15.91v-6.37a30.45,30.45,0,0,1,30.42-30.42h12.52a3.38,3.38,0,0,1,3.38,3.38V171a3.38,3.38,0,0,1-3.38,3.38H196.66a3.38,3.38,0,0,0-3.38,3.38v6.37h15.9a3.38,3.38,0,0,1,3.38,3.38v20.28a3.38,3.38,0,0,1-3.38,3.38h-15.9v59.39A3.38,3.38,0,0,1,189.9,273.93ZM173,267.17h13.52V207.78a3.38,3.38,0,0,1,3.38-3.38h15.9V190.88H189.9a3.38,3.38,0,0,1-3.38-3.38v-9.75a10.15,10.15,0,0,1,10.14-10.14h9.14V154.09h-9.14A23.69,23.69,0,0,0,173,177.75v9.75a3.39,3.39,0,0,1-3.38,3.38H153.71V204.4h15.91a3.38,3.38,0,0,1,3.38,3.38Z"/><path class="cls-4" d="M470.86,231.48c-11.27,0-23.89-2.69-37.78-8.07a3.38,3.38,0,0,1,1.62-6.51c.16,0,13.86,1.53,21.91-3.94-9.36-4.4-13.79-13.58-14-14a3.36,3.36,0,0,1,.2-3.25,3.53,3.53,0,0,1,.61-.72,38.24,38.24,0,0,1-9.53-17.08,3.38,3.38,0,0,1,4.12-4.09l.28.07c-1.9-5.23-2.84-13,1.26-23.1a3.39,3.39,0,0,1,6-.52c7.2,11.49,22.81,18,33.37,19.62a22.75,22.75,0,0,1,12.48-20c9.42-5,20.55-3.48,28.88,3.7,7.25-2.07,9.64-4.48,9.67-4.5a3.32,3.32,0,0,1,4.11-.74,3.41,3.41,0,0,1,1.64,3.9l-2,7.35,2.44.36a3.38,3.38,0,0,1,2.38,5.12A34.32,34.32,0,0,1,528.45,175c-4.57,31.42-21.8,44.81-29.09,49.15-8.23,4.89-17.75,7.34-28.5,7.34Zm-18.95-9.19c17.68,4.23,32.42,2.92,44-4C516.17,206.27,521,180.19,522,172.49a3.4,3.4,0,0,1,1.72-2.53,25.4,25.4,0,0,0,5.55-4.22l-.28,0a3.38,3.38,0,0,1-2.77-4.22l.83-3.07a52.1,52.1,0,0,1-6.84,2.18,3.42,3.42,0,0,1-3.2-.87c-7.65-7.55-16.6-6.95-22.42-3.88-5.17,2.73-10.14,8.67-8.61,17.17a3.4,3.4,0,0,1-.77,2.82A3.34,3.34,0,0,1,482.5,177c-10.46-.4-27.9-6.16-38.52-17.73-2.27,11.18,3.36,17.2,3.64,17.49a3.4,3.4,0,0,1,.5,4.06,3.36,3.36,0,0,1-3.75,1.58l-1.87-.48a32.1,32.1,0,0,0,10.89,12.68,3.39,3.39,0,0,1,1.5,3.8,3.35,3.35,0,0,1-2.92,2.46,20.62,20.62,0,0,0,11.57,7.32,3.38,3.38,0,0,1,2.12,5.25C462.33,218.22,457.14,220.86,451.91,222.29Z"/><path class="cls-4" d="M518.59,538.89h-8.31a26.56,26.56,0,0,1-26.53-26.52V482.09H470.67a3.38,3.38,0,0,1-3.38-3.38V458.43a3.38,3.38,0,0,1,3.38-3.38h4.24a8.84,8.84,0,0,0,8.84-8.84V433.26a3.39,3.39,0,0,1,3.38-3.38h20.28a3.38,3.38,0,0,1,3.38,3.38v21.79h22.82a3.39,3.39,0,0,1,3.38,3.38v20.28a3.38,3.38,0,0,1-3.38,3.38H510.79v24.77a5,5,0,0,0,5,5h2.8a41.28,41.28,0,0,0,15.78-3.13,3.38,3.38,0,0,1,4.67,3.13v20.28a3.39,3.39,0,0,1-2.09,3.12,48,48,0,0,1-18.36,3.63Zm-44.54-63.56h13.08a3.38,3.38,0,0,1,3.38,3.38v33.66a19.79,19.79,0,0,0,19.77,19.77h8.31a41,41,0,0,0,13.68-2.33V516.63a47.76,47.76,0,0,1-13.68,2h-2.8A11.78,11.78,0,0,1,504,506.86V478.71a3.39,3.39,0,0,1,3.38-3.38h22.82V461.81H507.41a3.38,3.38,0,0,1-3.38-3.38V436.64H490.51v9.57a15.61,15.61,0,0,1-15.6,15.6h-.86Z"/><path class="cls-4" d="M223.84,539H167.23A20.3,20.3,0,0,1,147,518.75V462.14a20.31,20.31,0,0,1,20.28-20.28h56.61a20.3,20.3,0,0,1,20.28,20.28v56.61A20.29,20.29,0,0,1,223.84,539Zm-56.61-90.41a13.54,13.54,0,0,0-13.52,13.52v56.61a13.54,13.54,0,0,0,13.52,13.52h56.61a13.53,13.53,0,0,0,13.52-13.52V462.14a13.54,13.54,0,0,0-13.52-13.52Z"/><path class="cls-4" d="M195.54,514.49a24,24,0,1,1,24-24A24.06,24.06,0,0,1,195.54,514.49Zm0-41.32a17.28,17.28,0,1,0,17.28,17.28A17.3,17.3,0,0,0,195.54,473.17Z"/><path class="cls-4" d="M221.92,458.35a5.72,5.72,0,1,1-5.72,5.72A5.72,5.72,0,0,1,221.92,458.35Z"/><path class="cls-6" d="M466.28,325.47A123.29,123.29,0,1,0,321.67,446.88l5.8,10L343,483.81l15.53-26.89,5.79-10A123.31,123.31,0,0,0,466.28,325.47Z"/><path class="cls-7" d="M343,202.18c-3.61,0-7.19.19-10.72.5A127.21,127.21,0,0,1,376.68,444,123.27,123.27,0,0,0,343,202.18Z"/><path class="cls-6" d="M343,202.18c3.62,0,7.19.19,10.73.5A127.22,127.22,0,0,0,309.3,444,123.27,123.27,0,0,1,343,202.18Z"/><path class="cls-5" d="M272.51,342.09h12V293.38h-12a24.36,24.36,0,1,0,0,48.71Z"/><path class="cls-5" d="M353.07,290l63.31-33.54V379.05L353.07,345.5Z"/><path class="cls-5" d="M318.8,414.25a10.68,10.68,0,0,1-10.68-10.68V325.49h21.36v78.08A10.68,10.68,0,0,1,318.8,414.25Z"/><path class="cls-4" d="M318.8,417.63a14.07,14.07,0,0,1-14.06-14.05V325.49a3.39,3.39,0,0,1,3.38-3.38h21.36a3.39,3.39,0,0,1,3.38,3.38v78.09A14.07,14.07,0,0,1,318.8,417.63Zm-7.3-88.76v74.71a7.3,7.3,0,0,0,14.6,0V328.87Z"/><path class="cls-3" d="M343,354H294.61a10.07,10.07,0,0,1-10.08-10.07V291.53a10.08,10.08,0,0,1,10.08-10.08H343a10.08,10.08,0,0,1,10.08,10.08v52.41A10.07,10.07,0,0,1,343,354Z"/><path class="cls-5" d="M420.73,330.89h-4.35V304.58h4.35a13.16,13.16,0,1,1,0,26.31Z"/><path class="cls-4" d="M420.73,334.27h-4.35a3.38,3.38,0,0,1-3.38-3.38V304.58a3.38,3.38,0,0,1,3.38-3.38h4.35a16.54,16.54,0,1,1,0,33.07Zm-1-6.76h1a9.78,9.78,0,1,0,0-19.55h-1Z"/><path class="cls-4" d="M416.38,382.43a3.32,3.32,0,0,1-1.59-.4l-63.3-33.54a3.37,3.37,0,0,1-1.8-3V290a3.36,3.36,0,0,1,1.8-3l63.3-33.55a3.38,3.38,0,0,1,5,3V379.05a3.38,3.38,0,0,1-1.64,2.89,3.32,3.32,0,0,1-1.74.49Zm-59.93-39,56.55,30V262l-56.55,30Z"/><path class="cls-4" d="M284.53,345.47h-12a27.74,27.74,0,1,1,0-55.47h12a3.38,3.38,0,0,1,3.38,3.38v48.71A3.38,3.38,0,0,1,284.53,345.47Zm-12-48.71a21,21,0,1,0,0,41.95h8.64V296.76Z"/><path class="cls-4" d="M343,357.39H294.61a13.47,13.47,0,0,1-13.46-13.45V291.53a13.48,13.48,0,0,1,13.46-13.46H343a13.48,13.48,0,0,1,13.46,13.46v52.41A13.47,13.47,0,0,1,343,357.39Zm-48.38-72.56a6.71,6.71,0,0,0-6.7,6.7v52.41a6.7,6.7,0,0,0,6.7,6.69H343a6.7,6.7,0,0,0,6.7-6.69V291.53a6.71,6.71,0,0,0-6.7-6.7Z"/><path class="cls-4" d="M343,487.19a3.39,3.39,0,0,1-2.92-1.69l-20.54-35.57a126.67,126.67,0,1,1,46.93,0L345.92,485.5a3.39,3.39,0,0,1-2.93,1.69Zm0-281.63a119.9,119.9,0,0,0-20.74,238,3.36,3.36,0,0,1,2.35,1.64L343,477.05l18.4-31.86a3.37,3.37,0,0,1,2.34-1.64,119.9,119.9,0,0,0-20.74-238Z"/><path class="cls-4" d="M150.33,310.7a3.39,3.39,0,0,1-3.38-3.38V287a3.38,3.38,0,1,1,6.76,0v20.28A3.38,3.38,0,0,1,150.33,310.7Z"/></g></g></svg>