<svg xmlns="http://www.w3.org/2000/svg" viewBox="0 0 685.99 685.99"><defs><style>.cls-1{fill:#fff;}.cls-2{fill:#4dbdeb;}.cls-3{fill:#f0f7f7;}.cls-4{fill:#ffd262;}.cls-5{fill:#00405c;}.cls-6{fill:#0075a8;}.cls-7{fill:#ff9f70;}.cls-8{fill:#ffbd8e;}.cls-9{fill:#e18152;}</style></defs><g id="Layer_2" data-name="Layer 2"><g id="Layer_1-2" data-name="Layer 1"><path class="cls-1" d="M343,676A333,333,0,0,1,107.53,107.53,333,333,0,0,1,578.46,578.46,330.85,330.85,0,0,1,343,676Z"/><path class="cls-2" d="M343,20c178.39,0,323,144.61,323,323S521.38,666,343,666,20,521.38,20,343,164.61,20,343,20m0-20A343.08,343.08,0,0,0,209.48,659,343.08,343.08,0,0,0,476.51,27,340.89,340.89,0,0,0,343,0Z"/><path class="cls-3" d="M550.36,500.09H135.63a17.58,17.58,0,0,1-17.58-17.57v-311A17.58,17.58,0,0,1,135.63,154H550.36a17.58,17.58,0,0,1,17.58,17.57v311A17.58,17.58,0,0,1,550.36,500.09Z"/><path class="cls-4" d="M311.55,268.49v-27H296.61a66.84,66.84,0,0,0-9.7-23.37l10.58-10.58-19.1-19.09L267.81,199a66.71,66.71,0,0,0-23.36-9.7V174.39h-27v14.94a66.84,66.84,0,0,0-23.37,9.7l-10.58-10.58L164.4,207.54,175,218.12a66.84,66.84,0,0,0-9.7,23.37H150.34v27h14.94a66.76,66.76,0,0,0,9.7,23.37L164.4,302.44l19.1,19.09L194.08,311a66.31,66.31,0,0,0,23.37,9.7v15h27v-15a66.34,66.34,0,0,0,23.36-9.7l10.58,10.58,19.1-19.09-10.58-10.58a66.76,66.76,0,0,0,9.7-23.37ZM230.94,295.4A40.41,40.41,0,1,1,271.35,255,40.41,40.41,0,0,1,230.94,295.4Z"/><path class="cls-4" d="M311.55,268.49v-27H296.61a66.84,66.84,0,0,0-9.7-23.37l10.58-10.58-19.1-19.09L267.81,199a66.71,66.71,0,0,0-23.36-9.7V174.39h-27v14.94a66.84,66.84,0,0,0-23.37,9.7l-10.58-10.58L164.4,207.54,175,218.12a66.84,66.84,0,0,0-9.7,23.37H150.34v27h14.94a66.76,66.76,0,0,0,9.7,23.37L164.4,302.44l19.1,19.09L194.08,311a66.31,66.31,0,0,0,23.37,9.7v15h27v-15a66.34,66.34,0,0,0,23.36-9.7l10.58,10.58,19.1-19.09-10.58-10.58a66.76,66.76,0,0,0,9.7-23.37ZM230.94,295.4A40.41,40.41,0,1,1,271.35,255,40.41,40.41,0,0,1,230.94,295.4Z"/><path class="cls-5" d="M244.45,339.22h-27a3.62,3.62,0,0,1-3.62-3.62V323.55a69.75,69.75,0,0,1-19.23-8l-8.53,8.53a3.62,3.62,0,0,1-5.13,0L161.84,305a3.62,3.62,0,0,1,0-5.13l8.53-8.53a69.75,69.75,0,0,1-8-19.23h-12a3.63,3.63,0,0,1-3.63-3.63v-27a3.64,3.64,0,0,1,3.63-3.63h12a69.82,69.82,0,0,1,8-19.22l-8.53-8.53a3.62,3.62,0,0,1,0-5.13l19.09-19.1a3.74,3.74,0,0,1,5.13,0l8.53,8.53a70.06,70.06,0,0,1,19.23-8v-12a3.62,3.62,0,0,1,3.62-3.63h27a3.62,3.62,0,0,1,3.62,3.63v12a70.06,70.06,0,0,1,19.23,8l8.53-8.53a3.64,3.64,0,0,1,5.13,0L300.05,205a3.61,3.61,0,0,1,0,5.13l-8.53,8.53a69.69,69.69,0,0,1,8,19.22h12.05a3.64,3.64,0,0,1,3.63,3.63v27a3.63,3.63,0,0,1-3.63,3.63H299.5a69.88,69.88,0,0,1-8,19.23l8.53,8.53a3.61,3.61,0,0,1,0,5.13L281,324.1a3.62,3.62,0,0,1-5.13,0l-8.53-8.53a69.75,69.75,0,0,1-19.23,8V335.6a3.62,3.62,0,0,1-3.62,3.62ZM221.07,332h19.75V320.65a3.62,3.62,0,0,1,2.9-3.55,62.8,62.8,0,0,0,22.1-9.17,3.61,3.61,0,0,1,4.56.46l8,8,14-14-8-8a3.65,3.65,0,0,1-.46-4.57,62.77,62.77,0,0,0,9.18-22.09,3.62,3.62,0,0,1,3.55-2.9h11.31V245.12H296.61a3.62,3.62,0,0,1-3.55-2.9,62.82,62.82,0,0,0-9.18-22.1,3.63,3.63,0,0,1,.46-4.56l8-8-14-14-8,8a3.63,3.63,0,0,1-4.56.46,62.8,62.8,0,0,0-22.1-9.17,3.63,3.63,0,0,1-2.9-3.56V178H221.07v11.31a3.63,3.63,0,0,1-2.9,3.56,62.8,62.8,0,0,0-22.1,9.17,3.63,3.63,0,0,1-4.56-.46l-8-8-14,14,8,8a3.62,3.62,0,0,1,.47,4.56,62.82,62.82,0,0,0-9.18,22.1,3.62,3.62,0,0,1-3.55,2.9H154v19.74h11.31a3.64,3.64,0,0,1,3.56,2.9,62.72,62.72,0,0,0,9.17,22.1,3.63,3.63,0,0,1-.46,4.57l-8,8,14,14,8-8a3.62,3.62,0,0,1,4.56-.46,62.87,62.87,0,0,0,22.1,9.17,3.62,3.62,0,0,1,2.9,3.55V332ZM230.94,299a44,44,0,1,1,44-44A44.09,44.09,0,0,1,230.94,299Zm0-80.82A36.78,36.78,0,1,0,267.72,255,36.81,36.81,0,0,0,230.94,218.21Z"/><path class="cls-5" d="M244.45,339.22h-27a3.62,3.62,0,0,1-3.62-3.62V323.55a69.75,69.75,0,0,1-19.23-8l-8.53,8.53a3.62,3.62,0,0,1-5.13,0L161.84,305a3.62,3.62,0,0,1,0-5.13l8.53-8.53a69.75,69.75,0,0,1-8-19.23h-12a3.63,3.63,0,0,1-3.63-3.63v-27a3.64,3.64,0,0,1,3.63-3.63h12a69.82,69.82,0,0,1,8-19.22l-8.53-8.53a3.62,3.62,0,0,1,0-5.13l19.09-19.1a3.74,3.74,0,0,1,5.13,0l8.53,8.53a70.06,70.06,0,0,1,19.23-8v-12a3.62,3.62,0,0,1,3.62-3.63h27a3.62,3.62,0,0,1,3.62,3.63v12a70.06,70.06,0,0,1,19.23,8l8.53-8.53a3.64,3.64,0,0,1,5.13,0L300.05,205a3.61,3.61,0,0,1,0,5.13l-8.53,8.53a69.69,69.69,0,0,1,8,19.22h12.05a3.64,3.64,0,0,1,3.63,3.63v27a3.63,3.63,0,0,1-3.63,3.63H299.5a69.88,69.88,0,0,1-8,19.23l8.53,8.53a3.61,3.61,0,0,1,0,5.13L281,324.1a3.62,3.62,0,0,1-5.13,0l-8.53-8.53a69.75,69.75,0,0,1-19.23,8V335.6a3.62,3.62,0,0,1-3.62,3.62ZM221.07,332h19.75V320.65a3.62,3.62,0,0,1,2.9-3.55,62.8,62.8,0,0,0,22.1-9.17,3.61,3.61,0,0,1,4.56.46l8,8,14-14-8-8a3.65,3.65,0,0,1-.46-4.57,62.77,62.77,0,0,0,9.18-22.09,3.62,3.62,0,0,1,3.55-2.9h11.31V245.12H296.61a3.62,3.62,0,0,1-3.55-2.9,62.82,62.82,0,0,0-9.18-22.1,3.63,3.63,0,0,1,.46-4.56l8-8-14-14-8,8a3.63,3.63,0,0,1-4.56.46,62.8,62.8,0,0,0-22.1-9.17,3.63,3.63,0,0,1-2.9-3.56V178H221.07v11.31a3.63,3.63,0,0,1-2.9,3.56,62.8,62.8,0,0,0-22.1,9.17,3.63,3.63,0,0,1-4.56-.46l-8-8-14,14,8,8a3.62,3.62,0,0,1,.47,4.56,62.82,62.82,0,0,0-9.18,22.1,3.62,3.62,0,0,1-3.55,2.9H154v19.74h11.31a3.64,3.64,0,0,1,3.56,2.9,62.72,62.72,0,0,0,9.17,22.1,3.63,3.63,0,0,1-.46,4.57l-8,8,14,14,8-8a3.62,3.62,0,0,1,4.56-.46,62.87,62.87,0,0,0,22.1,9.17,3.62,3.62,0,0,1,2.9,3.55V332ZM230.94,299a44,44,0,1,1,44-44A44.09,44.09,0,0,1,230.94,299Zm0-80.82A36.78,36.78,0,1,0,267.72,255,36.81,36.81,0,0,0,230.94,218.21Z"/><path class="cls-6" d="M360.2,293.51V273.24H349a50,50,0,0,0-7.28-17.54l7.94-7.95-14.33-14.33-7.94,7.94a50.23,50.23,0,0,0-17.54-7.28V222.87H289.56v11.21A50.15,50.15,0,0,0,272,241.36l-7.95-7.94-14.33,14.34,7.94,7.94a50.15,50.15,0,0,0-7.28,17.54H239.18v20.27H250.4a50,50,0,0,0,7.28,17.54L249.74,319l14.33,14.33,7.95-7.94a50,50,0,0,0,17.54,7.28v11.22h20.27V332.66a50,50,0,0,0,17.54-7.28l7.94,7.94L349.64,319l-7.94-7.94A50,50,0,0,0,349,293.51Zm-60.51,20.2A30.34,30.34,0,1,1,330,283.37,30.33,30.33,0,0,1,299.69,313.71Z"/><path class="cls-5" d="M309.83,347.51H289.56a3.64,3.64,0,0,1-3.63-3.63v-8.34A52.89,52.89,0,0,1,272.55,330l-5.91,5.91a3.74,3.74,0,0,1-5.13,0l-14.33-14.33a3.61,3.61,0,0,1,0-5.13l5.9-5.91a53.23,53.23,0,0,1-5.55-13.38h-8.34a3.64,3.64,0,0,1-3.63-3.63V273.24a3.64,3.64,0,0,1,3.63-3.63h8.34a53.08,53.08,0,0,1,5.55-13.38l-5.9-5.91a3.61,3.61,0,0,1,0-5.13l14.33-14.33a3.74,3.74,0,0,1,5.13,0l5.91,5.9a53.23,53.23,0,0,1,13.38-5.55v-8.34a3.63,3.63,0,0,1,3.63-3.63h20.27a3.63,3.63,0,0,1,3.63,3.63v8.34a53.23,53.23,0,0,1,13.38,5.55l5.91-5.9a3.74,3.74,0,0,1,5.13,0l14.33,14.33a3.63,3.63,0,0,1,0,5.13l-5.91,5.91a53.48,53.48,0,0,1,5.56,13.38h8.34a3.64,3.64,0,0,1,3.63,3.63v20.27a3.63,3.63,0,0,1-3.63,3.62h-8.34a53.55,53.55,0,0,1-5.56,13.39l5.91,5.91a3.63,3.63,0,0,1,0,5.13l-14.33,14.33a3.74,3.74,0,0,1-5.13,0L326.84,330a53.63,53.63,0,0,1-13.38,5.56v8.34a3.64,3.64,0,0,1-3.63,3.63Zm-16.64-7.26h13v-7.59a3.62,3.62,0,0,1,2.9-3.55,46.31,46.31,0,0,0,16.27-6.75,3.62,3.62,0,0,1,4.57.46l5.37,5.37,9.21-9.2-5.38-5.37a3.63,3.63,0,0,1-.46-4.57,46.23,46.23,0,0,0,6.75-16.27,3.63,3.63,0,0,1,3.55-2.9h7.59v-13H349a3.63,3.63,0,0,1-3.55-2.9,46.31,46.31,0,0,0-6.75-16.27,3.63,3.63,0,0,1,.46-4.57l5.38-5.37-9.21-9.2-5.37,5.37a3.65,3.65,0,0,1-4.57.47,46.14,46.14,0,0,0-16.27-6.76,3.62,3.62,0,0,1-2.9-3.55v-7.6h-13v7.59a3.64,3.64,0,0,1-2.91,3.56A46.39,46.39,0,0,0,274,244.39a3.62,3.62,0,0,1-4.56-.46l-5.38-5.38-9.2,9.21,5.38,5.37a3.63,3.63,0,0,1,.46,4.57A46.23,46.23,0,0,0,254,274a3.64,3.64,0,0,1-3.56,2.9h-7.59v13h7.59a3.63,3.63,0,0,1,3.56,2.9,46.31,46.31,0,0,0,6.75,16.27,3.62,3.62,0,0,1-.46,4.56L254.87,319l9.2,9.2,5.38-5.38a3.65,3.65,0,0,1,4.57-.46,46.14,46.14,0,0,0,16.27,6.76,3.62,3.62,0,0,1,2.9,3.55v7.59Zm6.5-22.92a34,34,0,1,1,34-34A34,34,0,0,1,299.69,317.33Zm0-60.66a26.71,26.71,0,1,0,26.71,26.7A26.73,26.73,0,0,0,299.69,256.67Z"/><path class="cls-5" d="M309.83,347.51H289.56a3.64,3.64,0,0,1-3.63-3.63v-8.34A52.89,52.89,0,0,1,272.55,330l-5.91,5.91a3.74,3.74,0,0,1-5.13,0l-14.33-14.33a3.61,3.61,0,0,1,0-5.13l5.9-5.91a53.23,53.23,0,0,1-5.55-13.38h-8.34a3.64,3.64,0,0,1-3.63-3.63V273.24a3.64,3.64,0,0,1,3.63-3.63h8.34a53.08,53.08,0,0,1,5.55-13.38l-5.9-5.91a3.61,3.61,0,0,1,0-5.13l14.33-14.33a3.74,3.74,0,0,1,5.13,0l5.91,5.9a53.23,53.23,0,0,1,13.38-5.55v-8.34a3.63,3.63,0,0,1,3.63-3.63h20.27a3.63,3.63,0,0,1,3.63,3.63v8.34a53.23,53.23,0,0,1,13.38,5.55l5.91-5.9a3.74,3.74,0,0,1,5.13,0l14.33,14.33a3.63,3.63,0,0,1,0,5.13l-5.91,5.91a53.48,53.48,0,0,1,5.56,13.38h8.34a3.64,3.64,0,0,1,3.63,3.63v20.27a3.63,3.63,0,0,1-3.63,3.62h-8.34a53.55,53.55,0,0,1-5.56,13.39l5.91,5.91a3.63,3.63,0,0,1,0,5.13l-14.33,14.33a3.74,3.74,0,0,1-5.13,0L326.84,330a53.63,53.63,0,0,1-13.38,5.56v8.34a3.64,3.64,0,0,1-3.63,3.63Zm-16.64-7.26h13v-7.59a3.62,3.62,0,0,1,2.9-3.55,46.31,46.31,0,0,0,16.27-6.75,3.62,3.62,0,0,1,4.57.46l5.37,5.37,9.21-9.2-5.38-5.37a3.63,3.63,0,0,1-.46-4.57,46.23,46.23,0,0,0,6.75-16.27,3.63,3.63,0,0,1,3.55-2.9h7.59v-13H349a3.63,3.63,0,0,1-3.55-2.9,46.31,46.31,0,0,0-6.75-16.27,3.63,3.63,0,0,1,.46-4.57l5.38-5.37-9.21-9.2-5.37,5.37a3.65,3.65,0,0,1-4.57.47,46.14,46.14,0,0,0-16.27-6.76,3.62,3.62,0,0,1-2.9-3.55v-7.6h-13v7.59a3.64,3.64,0,0,1-2.91,3.56A46.39,46.39,0,0,0,274,244.39a3.62,3.62,0,0,1-4.56-.46l-5.38-5.38-9.2,9.21,5.38,5.37a3.63,3.63,0,0,1,.46,4.57A46.23,46.23,0,0,0,254,274a3.64,3.64,0,0,1-3.56,2.9h-7.59v13h7.59a3.63,3.63,0,0,1,3.56,2.9,46.31,46.31,0,0,0,6.75,16.27,3.62,3.62,0,0,1-.46,4.56L254.87,319l9.2,9.2,5.38-5.38a3.65,3.65,0,0,1,4.57-.46,46.14,46.14,0,0,0,16.27,6.76,3.62,3.62,0,0,1,2.9,3.55v7.59Zm6.5-22.92a34,34,0,1,1,34-34A34,34,0,0,1,299.69,317.33Zm0-60.66a26.71,26.71,0,1,0,26.71,26.7A26.73,26.73,0,0,0,299.69,256.67Z"/><path class="cls-1" d="M136.19,482.52v-311A17.58,17.58,0,0,1,153.77,154H135.63a17.58,17.58,0,0,0-17.58,17.57v311a17.58,17.58,0,0,0,17.58,17.57h18.14A17.58,17.58,0,0,1,136.19,482.52Z"/><path class="cls-3" d="M549.8,171.53v311a17.58,17.58,0,0,1-17.58,17.57h18.14a17.58,17.58,0,0,0,17.58-17.57v-311A17.58,17.58,0,0,0,550.36,154H532.22A17.58,17.58,0,0,1,549.8,171.53Z"/><path class="cls-5" d="M550.36,503.72H135.63a21.23,21.23,0,0,1-21.21-21.2v-311a21.23,21.23,0,0,1,21.21-21.2H550.36a21.23,21.23,0,0,1,21.21,21.2v311a21.23,21.23,0,0,1-21.21,21.2ZM135.63,157.59a14,14,0,0,0-13.95,13.94v311a14,14,0,0,0,13.95,13.94H550.36a14,14,0,0,0,13.95-13.94v-311a14,14,0,0,0-13.95-13.94Z"/><path class="cls-5" d="M136.19,233.64a3.64,3.64,0,0,1-3.63-3.63V208.24a3.63,3.63,0,0,1,7.26,0V230A3.64,3.64,0,0,1,136.19,233.64Z"/><path class="cls-5" d="M253.46,377.64H150.34a3.63,3.63,0,1,1,0-7.25H253.47a3.63,3.63,0,0,1,0,7.25Z"/><path class="cls-5" d="M253.46,416.06H150.34a3.63,3.63,0,1,1,0-7.26H253.47a3.63,3.63,0,0,1,0,7.26Z"/><path class="cls-5" d="M201.9,454.48H150.34a3.63,3.63,0,0,1,0-7.26H201.9a3.63,3.63,0,0,1,0,7.26Z"/><path class="cls-6" d="M438.11,426.71V378.42h51.46v48.29H536a32.73,32.73,0,0,1,32.55,32.8v66.78H358.86v-67a32.66,32.66,0,0,1,32.72-32.54Z"/><path class="cls-7" d="M438.11,415l25.49,31.71,26-31.71v-36.6H438.11Z"/><path class="cls-5" d="M536,426.71H524.6a32.72,32.72,0,0,1,32.55,32.79v66.79h11.44V459.51A32.73,32.73,0,0,0,536,426.71Z"/><path class="cls-2" d="M391.58,426.7H403a32.67,32.67,0,0,0-32.72,32.55v67H358.86v-67a32.66,32.66,0,0,1,32.72-32.54Z"/><path class="cls-5" d="M399.35,527.43a2.29,2.29,0,0,1-2.29-2.29V495.39a2.29,2.29,0,0,1,4.58,0v29.75A2.29,2.29,0,0,1,399.35,527.43Z"/><path class="cls-5" d="M528.1,527.43a2.29,2.29,0,0,1-2.29-2.29V495.39a2.29,2.29,0,0,1,4.58,0v29.75A2.29,2.29,0,0,1,528.1,527.43Z"/><path class="cls-5" d="M568.59,528.58H358.86a2.3,2.3,0,0,1-2.29-2.29v-67a35,35,0,0,1,35-34.83h44.28v-46a2.3,2.3,0,0,1,2.29-2.29h51.46a2.3,2.3,0,0,1,2.29,2.29v46H536a35,35,0,0,1,34.83,35.1v66.77A2.29,2.29,0,0,1,568.59,528.58ZM361.15,524H566.3V459.51A30.36,30.36,0,0,0,557.45,438,30,30,0,0,0,536,429H489.57a2.3,2.3,0,0,1-2.29-2.29v-46H440.4v46a2.29,2.29,0,0,1-2.29,2.29l-46.53,0h0a30.38,30.38,0,0,0-30.39,30.27V524Z"/><path class="cls-5" d="M511.19,283.85v-2A19.87,19.87,0,0,0,499,263.56a124.91,124.91,0,0,1-23.27-12.49l-12-8.47v0h0v0l-12,8.47a124.91,124.91,0,0,1-23.27,12.49,19.87,19.87,0,0,0-12.15,18.32v2a19.88,19.88,0,0,0-19.82,21.44l3.38,43.15H527.63L531,305.29A19.88,19.88,0,0,0,511.19,283.85Z"/><path class="cls-6" d="M511.19,283.85v-2A19.87,19.87,0,0,0,499,263.56a124.91,124.91,0,0,1-23.27-12.49l-12-8.46c4.68,9.61,16.17,17.51,24.3,20.95a19.88,19.88,0,0,1,12.14,18.32,2.07,2.07,0,0,0,1.89,2.05A19.9,19.9,0,0,1,520,305.29l-3.39,43.15h11L531,305.29a19.88,19.88,0,0,0-19.82-21.44Z"/><path class="cls-6" d="M416.26,283.85v-2a19.87,19.87,0,0,1,12.15-18.32,124.91,124.91,0,0,0,23.27-12.49l12-8.46c-4.69,9.61-16.17,17.51-24.3,20.95a19.87,19.87,0,0,0-12.14,18.32,2.07,2.07,0,0,1-1.89,2.05,19.9,19.9,0,0,0-17.94,21.36l3.39,43.15h-11l-3.38-43.15a19.88,19.88,0,0,1,19.82-21.44Z"/><path class="cls-5" d="M527.63,350.72H399.82a2.28,2.28,0,0,1-2.28-2.1l-3.39-43.15A22.18,22.18,0,0,1,414,281.68a22.14,22.14,0,0,1,13.55-20.23,120.86,120.86,0,0,0,22.84-12.25l11.88-8.37a2.42,2.42,0,0,1,.41-.27,2.31,2.31,0,0,1,1.28-.26,2.2,2.2,0,0,1,.86.26,2.36,2.36,0,0,1,.42.28l11.88,8.36a120.55,120.55,0,0,0,22.84,12.25,22.15,22.15,0,0,1,13.54,20.23,22.16,22.16,0,0,1,19.82,23.79l-3.38,43.15a2.29,2.29,0,0,1-2.28,2.1Zm-125.69-4.57H525.51l3.22-41a17.59,17.59,0,0,0-17.54-19,2.29,2.29,0,0,1-2.29-2.29v-2a17.59,17.59,0,0,0-10.75-16.22,125,125,0,0,1-23.7-12.72l-10.73-7.56L453,252.94a124.63,124.63,0,0,1-23.69,12.72,17.59,17.59,0,0,0-10.75,16.22v2a2.28,2.28,0,0,1-2.29,2.28,17.61,17.61,0,0,0-17.54,19Z"/><path class="cls-8" d="M412.76,334.37h-3.64a17,17,0,1,0,0,34.09h3.64Z"/><path class="cls-9" d="M518.42,334.37h-3.64v34.09h3.64a17,17,0,1,0,0-34.09Z"/><path class="cls-7" d="M463.77,421c-28.17,0-51-23.14-51-51.68V333.58c0-28.54,22.84-51.67,51-51.67s51,23.13,51,51.67v35.77C514.78,397.89,491.94,421,463.77,421Z"/><path class="cls-9" d="M463.77,281.91a50.29,50.29,0,0,0-5.79.34c25.44,2.92,45.21,24.78,45.21,51.33v35.77c0,26.56-19.77,48.42-45.21,51.34a52.64,52.64,0,0,0,5.79.34c28.17,0,51-23.14,51-51.67V333.58c0-28.54-22.84-51.67-51-51.67Z"/><path class="cls-8" d="M463.77,281.91a50.6,50.6,0,0,1,5.8.34c-25.44,2.92-45.21,24.78-45.21,51.33v35.77c0,26.56,19.77,48.42,45.21,51.34a53,53,0,0,1-5.8.34c-28.17,0-51-23.14-51-51.67V333.58c0-28.54,22.84-51.67,51-51.67Z"/><path class="cls-5" d="M463.77,423.32c-29.39,0-53.3-24.21-53.3-54V333.58c0-29.75,23.91-54,53.3-54s53.3,24.21,53.3,54v35.77C517.07,399.11,493.16,423.32,463.77,423.32Zm0-139.12c-26.86,0-48.72,22.15-48.72,49.38v35.77c0,27.23,21.86,49.39,48.72,49.39s48.72-22.16,48.72-49.39V333.58c0-27.23-21.85-49.38-48.72-49.38Z"/><path class="cls-5" d="M412.76,370.75h-3.64a19.34,19.34,0,1,1,0-38.67h3.64a2.3,2.3,0,0,1,2.29,2.29v34.09A2.28,2.28,0,0,1,412.76,370.75Zm-3.64-34.09a14.76,14.76,0,0,0,0,29.52h1.35V336.66Z"/><path class="cls-5" d="M518.42,370.75h-3.64a2.29,2.29,0,0,1-2.29-2.29V334.37a2.3,2.3,0,0,1,2.29-2.29h3.64a19.34,19.34,0,1,1,0,38.67Zm-1.35-4.57h1.35a14.76,14.76,0,0,0,0-29.52h-1.35Z"/><path class="cls-3" d="M489.57,415l-26,31.71,29.2,21.44,7.76-41.46Z"/><path class="cls-3" d="M438.11,415l25.49,31.71-29,21.44-7.76-41.46Z"/><path class="cls-5" d="M492.8,470.46a2.24,2.24,0,0,1-1.36-.45l-29.2-21.44a2.29,2.29,0,0,1-.91-1.56,2.26,2.26,0,0,1,.5-1.73l26-31.71a2.28,2.28,0,0,1,1.69-.84,2.38,2.38,0,0,1,1.75.72l11,11.69a2.31,2.31,0,0,1,.58,2L495,468.59a2.28,2.28,0,0,1-1.41,1.71,2.4,2.4,0,0,1-.83.16Zm-25.9-24.15,24.32,17.86,6.88-36.74-8.41-8.94Z"/><path class="cls-5" d="M434.65,470.46a2.4,2.4,0,0,1-.83-.16,2.31,2.31,0,0,1-1.42-1.71l-7.76-41.46a2.26,2.26,0,0,1,.6-2l11.22-11.69a2.29,2.29,0,0,1,3.43.15l25.49,31.71a2.26,2.26,0,0,1,.49,1.73,2.3,2.3,0,0,1-.91,1.54L436,470a2.36,2.36,0,0,1-1.37.45Zm-5.3-43,6.88,36.71,24.1-17.85L438,418.48Z"/><path class="cls-2" d="M445.24,460.32l18.36,20.42,18.48-20.44L463.6,446.73Z"/><path class="cls-2" d="M445.24,526.28l18.36-45.54,18.48,45.57H463.6Z"/><path class="cls-5" d="M463.6,483h0a2.29,2.29,0,0,1-1.7-.76l-18.36-20.42a2.29,2.29,0,0,1,.34-3.36l18.36-13.6a2.3,2.3,0,0,1,2.72,0l18.48,13.58a2.28,2.28,0,0,1,.92,1.61,2.32,2.32,0,0,1-.58,1.76L465.3,482.27A2.3,2.3,0,0,1,463.6,483Zm-15-22.37,15,16.66,15.08-16.68-15.07-11.07Z"/><path class="cls-5" d="M482.08,528.6h0l-36.84,0a2.29,2.29,0,0,1-2.12-3.14l18.36-45.55a2.3,2.3,0,0,1,2.12-1.43h0a2.3,2.3,0,0,1,2.12,1.43l18.48,45.57a2.29,2.29,0,0,1-2.12,3.15ZM448.63,524l30.05,0-15.07-37.18Z"/><path class="cls-5" d="M516.75,505.81H489.57a2.29,2.29,0,1,1,0-4.57h27.18a2.29,2.29,0,0,1,0,4.57Z"/></g></g></svg>