<svg xmlns="http://www.w3.org/2000/svg" viewBox="0 0 685.99 685.99"><defs><style>.cls-1{fill:#fff;}.cls-2{fill:#4dbdeb;}.cls-3{fill:#0075a8;}.cls-4{fill:#ffd262;}.cls-5{fill:#e4b34f;fill-rule:evenodd;}.cls-6{fill:#f0f7f7;}.cls-7{fill:#00405c;}</style></defs><g id="Layer_2" data-name="Layer 2"><g id="Layer_1-2" data-name="Layer 1"><path class="cls-1" d="M343,676A333,333,0,0,1,107.53,107.53,333,333,0,0,1,578.46,578.46,330.85,330.85,0,0,1,343,676Z"/><path class="cls-2" d="M343,20c178.39,0,323,144.61,323,323S521.38,666,343,666,20,521.38,20,343,164.61,20,343,20m0-20A343.08,343.08,0,0,0,209.48,659,343.08,343.08,0,0,0,476.51,27,340.89,340.89,0,0,0,343,0Z"/><path class="cls-3" d="M306.31,181.73l-73,35.58a31.58,31.58,0,0,0-14.74,15.51l-91.11,228.4a42.24,42.24,0,0,0,21.46,55.69l90.62,40.15h67.3Z"/><path class="cls-4" d="M509.31,492.73v44c0,24.5-20.49,45-45,45h-185c-24.51,0-44-20.5-44-45v-259a32.37,32.37,0,0,1,7.11-21L298,189.33c6.32-7.66,15.34-12.6,25.27-12.6h97c9.94,0,18.95,4.94,25.27,12.6l55.62,67.39c4.92,6,8.11,13.29,8.11,21v215Z"/><path class="cls-5" d="M356.74,352.25h0l-.26-.26c-.13-.14-.27-.28-.41-.41l-10.34-10.36-1.47,2.93a32.31,32.31,0,0,0-10.95-1.91h-1a32.54,32.54,0,0,0-32.5,32.5,32.15,32.15,0,0,0,1.79,10.61l-3,1.55,10.71,10.74.14.14.14.14h0a32.38,32.38,0,0,0,22.75,9.33h1a32.48,32.48,0,0,0,23.43-55Zm-23.43,40h-1a17.5,17.5,0,1,1,0-35h1a17.5,17.5,0,0,1,0,35Z"/><path class="cls-5" d="M450.61,345.43l-10-10L302,474l10,10a7.52,7.52,0,0,0,10.61,0l128-128a7.51,7.51,0,0,0,0-10.61Z"/><path class="cls-5" d="M452.58,429.19h0l-8.27-8.39.53,3.4a32.27,32.27,0,0,0-13.54-3h-1a32.54,32.54,0,0,0-32.5,32.5,32.18,32.18,0,0,0,2.74,13l-3.68-.53,10,9.93c.35.38.71.74,1.09,1.09l.23.23h0a32.36,32.36,0,0,0,22.16,8.77h1a32.48,32.48,0,0,0,21.27-57.05Zm-21.27,42h-1a17.5,17.5,0,1,1,0-35h1a17.5,17.5,0,0,1,0,35Z"/><path class="cls-6" d="M307.31,476.23a7.5,7.5,0,0,1-5.3-12.8l128-128A7.5,7.5,0,0,1,440.61,346l-128,128a7.47,7.47,0,0,1-5.3,2.19Z"/><path class="cls-6" d="M323.31,397.23h-1a32.5,32.5,0,1,1,0-65h1a32.5,32.5,0,0,1,0,65Zm-1-50a17.5,17.5,0,1,0,0,35h1a17.5,17.5,0,0,0,0-35Z"/><path class="cls-6" d="M421.31,476.23h-1a32.5,32.5,0,1,1,0-65h1a32.5,32.5,0,0,1,0,65Zm-1-50a17.5,17.5,0,1,0,0,35h1a17.5,17.5,0,0,0,0-35Z"/><path class="cls-2" d="M388.11,237.73A7.5,7.5,0,0,1,386,223c.85-.25,1.71-.52,2.55-.8a56.5,56.5,0,0,0,38.23-53.49v-84a7.5,7.5,0,1,1,15,0v84a71.48,71.48,0,0,1-48.39,67.68c-1.06.37-2.14.71-3.22,1a7.6,7.6,0,0,1-2.09.3Z"/><path class="cls-6" d="M372.31,256.23a23.5,23.5,0,1,1,23.5-23.5A23.52,23.52,0,0,1,372.31,256.23Z"/><path class="cls-7" d="M509.63,461.48a7.5,7.5,0,0,0,7.5-7.5V274c0-9-3.49-18.11-9.82-25.78l-55.63-67.39a43.65,43.65,0,0,0-9.9-8.88c.22-2.29.35-4.61.35-7V81a7.5,7.5,0,0,0-15,0s0,84.72,0,85.08a36.91,36.91,0,0,0-6.48-.58h-97a38.55,38.55,0,0,0-19.52,5.44,8.2,8.2,0,0,0-.76.32l-73.11,35.61A39.21,39.21,0,0,0,212,226l-.12.28L181.65,303a7.5,7.5,0,0,0,14,5.5L225.78,232a24.08,24.08,0,0,1,11.1-11.67l38.63-18.81L237,248.2A39.9,39.9,0,0,0,228.13,274V533a53.71,53.71,0,0,0,.75,8.84l-77.29-34.24A34.78,34.78,0,0,1,134,461.79c0-.08.07-.16.1-.23l48.88-121.49a7.5,7.5,0,0,0-13.92-5.6L120.18,455.84a49.81,49.81,0,0,0,25.34,65.46l90.62,40.16c.11,0,.23.08.34.12a51.24,51.24,0,0,0,43.15,23.9h185c28.46,0,52.5-24,52.5-52.5V489a7.5,7.5,0,0,0-15,0v44c0,20.33-17.17,37.5-37.5,37.5h-185c-20.13,0-36.5-16.82-36.5-37.5V274c0-6.43,1.81-11.9,5.39-16.23l55.63-67.4c5.17-6.27,12.28-9.87,19.48-9.87h97a22.1,22.1,0,0,1,4.21.42,56.45,56.45,0,0,1-32,36.06,23.49,23.49,0,1,0,3.14,14.9,71.48,71.48,0,0,0,42.28-43.59c.65.66,1.28,1.35,1.88,2.08l55.63,67.4c4.12,5,6.39,10.76,6.39,16.23V454a7.5,7.5,0,0,0,7.5,7.5Zm-137-224a8.5,8.5,0,1,1,8.5-8.5A8.51,8.51,0,0,1,372.63,237.48Z"/><path class="cls-7" d="M307.63,472.48a7.47,7.47,0,0,0,5.3-2.19l128-128a7.5,7.5,0,0,0-10.6-10.61l-128,128c-4.79,4.46-1.12,13,5.3,12.8Z"/><path class="cls-7" d="M323.63,393.48a32.5,32.5,0,0,0,0-65h-1a32.5,32.5,0,0,0,0,65ZM305.13,361a17.52,17.52,0,0,1,17.5-17.5h1a17.5,17.5,0,0,1,0,35h-1A17.52,17.52,0,0,1,305.13,361Z"/><path class="cls-7" d="M420.63,472.48h1a32.5,32.5,0,0,0,0-65h-1a32.5,32.5,0,0,0,0,65Zm0-50h1a17.5,17.5,0,0,1,0,35h-1a17.5,17.5,0,0,1,0-35Z"/></g></g></svg>