<svg xmlns="http://www.w3.org/2000/svg" viewBox="0 0 685.99 685.99"><defs><style>.cls-1{fill:#fff;}.cls-2{fill:#4dbdeb;}.cls-3{fill:#f0f7f7;}.cls-4{fill:#0075a8;}.cls-5{fill:#00405c;}.cls-6{fill:#ffd262;}</style></defs><g id="Layer_2" data-name="Layer 2"><g id="Layer_1-2" data-name="Layer 1"><path class="cls-1" d="M343,676A333,333,0,0,1,107.53,107.53,333,333,0,0,1,578.46,578.46,330.85,330.85,0,0,1,343,676Z"/><path class="cls-2" d="M343,20c178.39,0,323,144.61,323,323S521.38,666,343,666,20,521.38,20,343,164.61,20,343,20m0-20A343.08,343.08,0,0,0,209.48,659,343.08,343.08,0,0,0,476.51,27,340.89,340.89,0,0,0,343,0Z"/><path class="cls-3" d="M573.29,495.74H112.69A17.7,17.7,0,0,1,95,478V194.45a17.71,17.71,0,0,1,17.7-17.7h460.6a17.7,17.7,0,0,1,17.7,17.7V478A17.69,17.69,0,0,1,573.29,495.74Z"/><path class="cls-3" d="M573.29,176.75h-20a17.7,17.7,0,0,1,17.7,17.7V478a17.69,17.69,0,0,1-17.7,17.7h20A17.69,17.69,0,0,0,591,478V194.45A17.7,17.7,0,0,0,573.29,176.75Z"/><path class="cls-1" d="M112.69,495.74h20A17.7,17.7,0,0,1,115,478V194.45a17.71,17.71,0,0,1,17.7-17.7h-20A17.71,17.71,0,0,0,95,194.45V478A17.7,17.7,0,0,0,112.69,495.74Z"/><path class="cls-4" d="M504.8,561.46H181.19v-23.7a17.7,17.7,0,0,1,17.7-17.7H487.1a17.7,17.7,0,0,1,17.7,17.7Z"/><path class="cls-5" d="M487.1,520.06h-20a17.7,17.7,0,0,1,17.7,17.7v23.71h20V537.76A17.7,17.7,0,0,0,487.1,520.06Z"/><path class="cls-2" d="M198.89,520.06h20a17.7,17.7,0,0,0-17.7,17.7v23.71h-20V537.76A17.7,17.7,0,0,1,198.89,520.06Z"/><path class="cls-5" d="M248,495.74H438v24.32H248Z"/><path class="cls-5" d="M113,251.16a4,4,0,0,1-4-4v-24a4,4,0,0,1,8,0v24A4,4,0,0,1,113,251.16Z"/><path class="cls-5" d="M504.8,565.46H181.19a4,4,0,0,1-4-4v-23.7a21.73,21.73,0,0,1,21.7-21.71H487.1a21.73,21.73,0,0,1,21.7,21.71v23.7A4,4,0,0,1,504.8,565.46Zm-319.61-8H500.8v-19.7a13.72,13.72,0,0,0-13.7-13.71H198.89a13.72,13.72,0,0,0-13.7,13.71v19.7Z"/><path class="cls-5" d="M438,524.06H248a4,4,0,0,1-4-4V495.75a4,4,0,0,1,4-4H438a4,4,0,0,1,4,4v24.31A4,4,0,0,1,438,524.06Zm-186-8H434V499.75H252Z"/><path class="cls-5" d="M573.29,499.74H112.69A21.73,21.73,0,0,1,91,478V194.45a21.73,21.73,0,0,1,21.7-21.7h460.6a21.73,21.73,0,0,1,21.7,21.7V478a21.72,21.72,0,0,1-21.7,21.7Zm-460.6-319A13.72,13.72,0,0,0,99,194.45V478a13.72,13.72,0,0,0,13.7,13.71h460.6A13.72,13.72,0,0,0,587,478V194.45a13.71,13.71,0,0,0-13.7-13.7Z"/><path class="cls-6" d="M433.22,429.51a127.61,127.61,0,1,0-194.7-17l-3.11,11.58-8.32,31.05,31-8.32,11.59-3.11a127.61,127.61,0,0,0,163.49-14.23Z"/><path class="cls-5" d="M343,471a131.07,131.07,0,0,1-74-22.89L228.13,459a4,4,0,0,1-4.9-4.9l10.94-40.84a131.28,131.28,0,0,1,15.75-167.07c51.31-51.32,134.81-51.32,186.12,0S487.36,381,436,432.34A131.34,131.34,0,0,1,343,471Zm-73.25-31.24a4,4,0,0,1,2.3.73,123.61,123.61,0,1,0-30.24-30.24,4,4,0,0,1,.59,3.34l-9.63,35.94,35.94-9.63A4.07,4.07,0,0,1,269.73,439.74Zm163.49-10.23h0Z"/><path class="cls-5" d="M285.63,353.75a8.17,8.17,0,0,1,8.11,8.11,8.08,8.08,0,0,1-8.11,8,8,8,0,0,1-8-8A8.08,8.08,0,0,1,285.63,353.75Z"/><path class="cls-5" d="M342.94,353.75a8.17,8.17,0,0,1,8.11,8.11,8.08,8.08,0,0,1-8.11,8,8,8,0,0,1-8-8A8.08,8.08,0,0,1,342.94,353.75Z"/><path class="cls-5" d="M400.25,353.75a8.17,8.17,0,0,1,8.11,8.11,8.08,8.08,0,0,1-8.11,8,8,8,0,0,1-8-8A8.09,8.09,0,0,1,400.25,353.75Z"/></g></g></svg>