<svg xmlns="http://www.w3.org/2000/svg" viewBox="0 0 1513.17 1009"><defs><style>.cls-1{fill:#f0f7f7;}.cls-2{fill:#ffb27d;}.cls-3{fill:#00405c;}.cls-4{fill:#0075a8;}.cls-5{fill:#ffd262;}.cls-6{fill:#ddebfd;}.cls-7{fill:#739af0;}.cls-8{fill:#fff;}.cls-9{fill:#ffecc5;}.cls-10{fill:#4dbdeb;}.cls-11{fill:#409cc2;}</style></defs><g id="Layer_2" data-name="Layer 2"><g id="Layer_1-2" data-name="Layer 1"><path class="cls-1" d="M348.08,810.26q-46,.74-92,1c-54.62.16-126.21-8-167,22.95-20.52,15.55-13.77,46.58,18.79,52.08,9.22,1.56,19.14,1.39,27.78,4s15.49,9.86,10.7,15.38c-2.46,2.81-7.18,4.32-11.7,5.51-28.63,7.48-60.35,8.43-88.82,16.16-67.66,18.38-56,55.32,5.53,67.25,55.31,10.72,116.82,9.23,173.85,10,333.75,4.25,668.41,9.29,1000.31-5,71.58-3.09,142.74-7,214-10.62,32.61-1.67,73.44-6,73.57-15.72.09-6.76-21.45-11.81-42.67-14.45-37.17-4.62-85.7-8.65-78.67-23.78,2.56-5.51,14.66-10.58,31.47-13.16,13-2,27.91-2.53,42-3.73s28.5-3.42,34.41-7.35c15.94-10.6-24.19-16.91-52.43-17.88-33.83-1.16-61.41-8.61-49.75-19.85,8.12-7.83,34.56-13.13,42.6-21,3.24-3.16,3.23-6.55,1.08-9.78-21.47-32.27-133.64-29.51-175.44-31.92-77.34-4.47-155-5.33-232.6-5.73-176-.91-352,.61-527.92,3C452.87,808.26,400.47,809.43,348.08,810.26Z"/><polygon class="cls-2" points="967.41 779.27 967.79 824.29 958.09 835.14 958.15 842.97 981.61 837.88 992.34 833.87 999.64 771.16 967.41 779.27"/><path class="cls-3" d="M967.79,824.29,934.73,851l1.08,11.74,24.47-.21,34.09-19.86L996.19,826l-3-2.91s-31.2,14.94-33.17,14S967.79,824.29,967.79,824.29Z"/><polygon class="cls-4" points="1046.37 412 1018.37 599 1005.88 786.14 962.22 791.54 939.97 538.36 930.15 361.22 1046.37 412"/><polygon class="cls-2" points="1096.37 771 1108.02 825.39 1100.81 838.02 1102.51 845.67 1124.38 835.79 1134.04 829.63 1128.07 766.77 1096.37 771"/><path class="cls-3" d="M1109,824l-31.72,28.29,1.64,11.67,24.44-1.4L1136.47,841l1-16.73-3.1-2.76s-30.44,16.44-32.45,15.58S1109,824,1109,824Z"/><polygon class="cls-4" points="1008.37 451 1031.37 612 1095.37 780 1133.48 780 1108.37 588 1120.37 443 1115.37 395 1008.37 451"/><path class="cls-3" d="M1112.37,386c-15-44-10-132-10-175,0-16.93-4.39-35.92-17-48.06-14.17-13.67-33.51-11.49-51.71-10.92-31.13,1-50.82,11.12-69.37,36.28-.87,1.19-1.73,2.38-2.59,3.59-28.52,40.05-60.6,255.53-60.6,255.53s44.44,60.16,101.73,43.4c44.2-12.93,94.58-14.61,135.17-13.8C1147.68,474.05,1127.37,430,1112.37,386Z"/><polygon class="cls-4" points="1050.78 151.99 1061.37 162 992.37 271 998.37 200 1007.13 163.4 1012.91 155.14 1050.78 151.99"/><path class="cls-2" d="M1006.68,83.53c11.38-38.15,61.62-26.11,73.25,7,7.59,21.57-8.11,50.62-30.49,57.83a22.11,22.11,0,0,0-.08,2.36,74.24,74.24,0,0,1-.53,10.51c-.14,1.31-20.11-1.68-22.34-2a3,3,0,0,1-2.09-.92c-.85-1.21.29-4.93.38-6.32.1-1.64.21-3.28.31-4.92-11.39-5-18.92-16.3-21.38-28S1003.26,95,1006.68,83.53Z"/><path class="cls-3" d="M1037.67,48.2c2.77,2.59,4,6.32,4.89,9.91a15.78,15.78,0,0,1,.67,6.52c-1.49,8.62-10,8.52-16.42,11.55A43.69,43.69,0,0,0,1008,93.83c-6.62,11.56-2.83,25.93.56,38.24,1.19,4.34,3.5,10.77.26,14.82s-11.29,3.83-15.51,2c-3.85-1.71-7.1-5-11.28-5.56-4.42-.55-10.27,1.63-12.48-2.32-.62-1.09-.73-2.46-1.49-3.46-2.57-3.37-8.43,1-12-1.36-2.17-1.42-2.29-4.62-1.68-7.19s1.69-5.18,1.09-7.74c-.52-2.2-2.19-3.89-3.26-5.87a11.81,11.81,0,0,1,1.11-12.61C958.47,96.26,969,97,974.53,90.89c2.89-3.19,3.87-7.66,4.83-11.89s2.11-8.7,5.22-11.67C988.42,63.66,994.2,64,998,59.7c2.21-2.54,3.62-5.78,6.12-8,3.3-2.94,9.9-5.37,14.09-7A18.66,18.66,0,0,1,1037.67,48.2Z"/><path class="cls-3" d="M1071.57,106.92c.75,12.37-4.85,26,1.31,36.68s20.64,12.14,32.89,12.21c2,0,27.53.84,28,.67,15.26-5.26,5.58-16.71,7.4-25.34,2.62-12.4,20.16-3.49,20.07-15.24-2.5-.33-3.89-3.32-3.7-5.91s1.41-4.95,2.08-7.45a17.36,17.36,0,0,0-5.25-17.23c-9.48-8.13-25.89-3.91-34.12-13.36-5.1-5.86-4.89-14.67-7.74-22-5.51-14.1-21.3-16.45-33.27-22.42-12.64-6.31-24.43-9.56-38.6-6.6-17.56,3.69-30,22.23-22.43,38.89,9.65,21.36,44.54,18,52,39.82A27.4,27.4,0,0,1,1071.57,106.92Z"/><polygon class="cls-3" points="1005.25 156.51 970.37 163 886.37 283 785.37 271 778.37 300 891.37 332 921.73 324.9 974.37 255 1005.25 156.51"/><path class="cls-5" d="M1040.78,221.12a180.44,180.44,0,0,0-253.41-30c-78.25,61.7-91.54,175.86-29.56,253.9A179.78,179.78,0,0,0,877.66,512a204.94,204.94,0,0,1,98,38.65l44.74,33.25,92.88-73.24-20.74-48.55a205.3,205.3,0,0,1-14.44-106.55A179.87,179.87,0,0,0,1040.78,221.12Z"/><path class="cls-6" d="M1128.13,579.18l-45.28,35.7c-12.83,10.12-31.28,9.3-41.49-2.14L1001,569.35l102-81.53,32.73,50.51C1144.47,550.93,1141,569.06,1128.13,579.18Z"/><path class="cls-7" d="M1109.73,515.33c-27.69,23.81-57.59,45-85.24,68.87-2.45,2.12.66,5.68,3.22,3.8,29.42-21.66,56.77-46.1,86.16-67.8C1117.16,517.77,1112.87,512.62,1109.73,515.33Z"/><path class="cls-7" d="M1119.54,527.77c-27.68,23.82-57.59,45-85.24,68.87-2.45,2.12.67,5.69,3.23,3.8,29.42-21.65,56.76-46.1,86.15-67.79C1127,530.21,1122.69,525.06,1119.54,527.77Z"/><path class="cls-8" d="M1017.13,356.76a46.42,46.42,0,0,1-20.6-4.18c.13-10.4-4.33-20.71-9.64-29.39A180.8,180.8,0,0,0,976.2,308c-3.63-4.76-7.4-8.27-13.69-8.06-5.6.19-8.49,6.29-9.21,11-.84,5.4,1.41,11.38,3.34,16.32,3.89,10,10.73,18.57,18.74,25.55a62.3,62.3,0,0,0,9,6.52,27.64,27.64,0,0,1-4,9c-5.78,8.58-15.18,8.75-24,5-1.45-.62-2.91-1.33-4.38-2.11-.68-2.11-1.38-4.2-2.11-6.24a129.24,129.24,0,0,0-14.41-28c-4.83-7.26-11.07-15.56-20.82-14.43-3.13.37-4.73,3.22-4.61,6.1.91,20.87,15.36,38.1,32.48,49.09A128.14,128.14,0,0,1,946,393.89c.86,6,1.31,16.05-4.9,19.63-5.78,3.33-15.06.09-20.81-1.9a58.71,58.71,0,0,1-11.93-5.79c-.71-2.26-1.48-4.49-2.32-6.71a122.3,122.3,0,0,0-12.94-24.69c-4.31-6.46-10.84-15.15-19.78-12.82-2.61.68-5.39,3-4.62,6.11a77.53,77.53,0,0,0,29.06,43.58c.49.37,1,.71,1.5,1.07a114.52,114.52,0,0,1,4.35,41.72c-.48,6.26,9,7.44,9.71,1.14a120.63,120.63,0,0,0-1.53-35.8A78.29,78.29,0,0,0,921.5,423c9.08,2.58,19,3.92,27.11-1.81,7.6-5.36,8.69-16.17,8.44-24.62a72.82,72.82,0,0,0-1.48-12.21c8.06,2.87,16.78,3.32,24.57-1.23,7.18-4.19,11.85-11.13,14.35-18.85a68,68,0,0,0,22.77,4.65C1026.11,369.14,1026,356.44,1017.13,356.76Zm-95.4-20.61c3,3.16,5.5,8,6.93,10.17A102.59,102.59,0,0,1,935.59,359C929,352.42,923.74,344.53,921.73,336.15Zm49.94-4.75a51.76,51.76,0,0,1-5.77-12.19,27.55,27.55,0,0,1-1.3-5.89,10.85,10.85,0,0,1,0-1.36,9.32,9.32,0,0,1,1,.9c7.23,8.24,13.84,18.08,17.62,28.38a33.52,33.52,0,0,1,1.16,3.9A62,62,0,0,1,971.67,331.4Z"/><path class="cls-8" d="M1008.75,329.57c21.2,57.86,41.42,116.11,60.09,174.84,2.24,7,13.21,3.76,11-3.26-18.79-58.74-39.12-116.95-61.5-174.42C1016,320.8,1006.54,323.51,1008.75,329.57Z"/><path class="cls-8" d="M869.44,434.71q73.47,56.09,144.68,115.1c5.66,4.72,13.16-3.93,7.49-8.64-47.43-39.42-95.86-77.57-145.64-114C870.84,423.43,864.31,430.79,869.44,434.71Z"/><path class="cls-9" d="M785.52,240c78.25-61.71,191.7-48.29,253.41,30A179.44,179.44,0,0,1,1077,366.31c.28-3.59.61-7.18,1.07-10.77a180.39,180.39,0,1,0-358.45-4.86A179.67,179.67,0,0,1,785.52,240Z"/><polygon class="cls-3" points="1079 158 1120.37 188 1095.37 336 944.04 383.38 932.34 352.5 1061.37 288 1061.37 186 1079 158"/><polygon class="cls-2" points="935.59 358.96 911.37 352 886.67 366.31 891.37 383 916.37 380 942.6 377.63 935.59 358.96"/><polygon class="cls-3" points="535.8 153.63 555.48 184.73 563.37 268 632.37 204 655.37 230 568.37 338 520.37 347 524.65 238.17 535.8 153.63"/><path class="cls-3" d="M524.89,817l24.25,15.55,8.42,12.35s-8.63,4.32-13.47,5.53-43.27-2.9-43.27-2.9l-1-22.5Z"/><path class="cls-3" d="M403.73,834l12,13.44s9.75,18.21,4.86,17.93-31.45,1.15-33.24-1.9-15.89-13.66-17.74-15.72,0-19.16,0-19.16Z"/><path class="cls-4" d="M472.25,476.56,442.14,659.63,403.73,834l-34.22-2,6.59-184s-24.66-169.15-24.75-219.18Z"/><polygon class="cls-4" points="547.79 485.59 534.01 823.46 498.8 825.09 480.07 653.42 452.8 501.92 525.58 408.19 547.79 485.59"/><polygon class="cls-3" points="398.49 166.61 398.49 166.61 398.49 166.61 398.49 166.61"/><path class="cls-3" d="M533.38,309c-.49-91.74,31-129.63-3.75-162,0,0-61-30.64-108-9.34l-1.95.91-21.15,28.08L359.28,303.72S291,480.36,307.53,485.2c18.74,5.49,114.5-17.82,130.94-13.53S504,495.24,555.26,488.49C599.24,482.7,533.88,400.73,533.38,309Z"/><polygon class="cls-8" points="484.63 135.15 471.98 133.11 468.18 145.49 488.52 283.74 510.04 229.9 514.98 146.43 484.63 135.15"/><path class="cls-4" d="M506.1,239.75c.92-5.12,1.6-9.73,1.92-13.52C510.24,200,498.63,163,498.63,163a136.11,136.11,0,0,1,1.23-14l-14.7-5.5L483,159.56l5.18,8.16s3.76,64.15-.83,88.66c-.48,2.57-1.05,5.21-1.67,7.86l2.87,19.5Z"/><polygon class="cls-3" points="486.17 329.8 438.37 471.38 474.81 484.17 501.14 487.33 494.64 354.25 486.17 329.8"/><path class="cls-2" d="M501.75,142.77l-26.26-2.25a133.53,133.53,0,0,1,1.14-21c-7.32-2.47-15.79-6.19-17.16-13.79a21.91,21.91,0,0,1,.33-7.26c1.58-9.93.07-20.4,4.74-29.8,1.55-3.11,1.13-7,3-9.93,3.2-5.19,9.51-7.53,15.51-8.66,15.31-2.87,32.08.23,44.11,10.12,3.2,2.63,6.11,5.81,7.56,9.69,2.23,6,.71,12.65-.83,18.86q-2.13,8.58-4.27,17.17c-1.63,6.59-4,14.08-10.31,16.63-3.34,1.35-7.31,1-10.32,3C503.64,129.07,504.47,137,501.75,142.77Z"/><path class="cls-3" d="M555.67,18a25.75,25.75,0,0,1-5.88-1.89c-6.24-3-10.46-8.76-17.09-11.64-13.42-5.82-30.57-5.78-44.21-.7-13.05,4.85-30.64,6.19-42.43,13a35,35,0,0,0-11.83,12c-10.46,16.65-10.22,39.4.6,55.81a75.88,75.88,0,0,0,8.35,10.24c6.28,6.63,13.79,14.82,22.34,17.19.1-7.62-7.16-31.54-1.4-37.85,7.65-8.38,21.92-7.56,32.12-6.17,12.15,1.65,22.35-1.84,34.49-.72,6.19.57,13.14,2.11,18.06-1.68,5.68-4.38,17.91-18.55,20.94-24.86,2.64-5.53,1.33-12.53-2.68-17.17C563.6,19.48,559.71,18.87,555.67,18Z"/><path class="cls-10" d="M354.43,731.23A49.08,49.08,0,1,0,325,824.86a50.66,50.66,0,0,0,15.25,2.43,49.14,49.14,0,0,0,14.21-96.06Z"/><path class="cls-11" d="M383.34,755.29a47.63,47.63,0,0,0-28.91-24.06A51.75,51.75,0,0,0,342,728.9a47.1,47.1,0,0,1,19.09,19.85,49.27,49.27,0,0,1-43.11,72c-.94,0-1.88,0-2.82-.09a52.62,52.62,0,0,0,9.83,4.21,50.66,50.66,0,0,0,15.25,2.43,49.41,49.41,0,0,0,43.12-72Z"/><path class="cls-10" d="M627.48,411.15c-20.27-35.4-54.34-60.84-101.27-75.61s-89.64-13.5-127,3.75c-32.45,15-56.24,40.43-70.69,75.61a23,23,0,0,0,14.34,30.63l27.94,8.79a22.94,22.94,0,0,0,27.88-12.64c8.41-19,20.34-31.89,36.45-39.41,19.51-9.1,43.06-9.42,70-.95s45.69,22.44,56,41.61,11.34,42.13,3.06,68.44c-11.42,36.26-29.49,57.42-53.73,62.89C485,580,449.13,575.48,403.89,560.74l-12.09-3.8a23,23,0,0,0-28.78,15L329.88,677.26a23,23,0,0,0,15,28.78L373.22,715A22.94,22.94,0,0,0,402,700l21.47-68.21a1.64,1.64,0,0,1,2-1.09c53.27,15.2,97.53,16.24,131.58,3.09,36.2-14,62.41-46,77.88-95.18C650.35,489.61,647.84,446.74,627.48,411.15Z"/><path class="cls-11" d="M627.48,411.15c-20.27-35.4-54.34-60.84-101.27-75.61-29.06-9.14-56.5-12.13-82.05-9a222.16,222.16,0,0,1,41.45,9c46.93,14.77,81,40.21,101.28,75.61,20.35,35.59,22.86,78.46,7.45,127.42-15.47,49.16-41.67,81.18-77.88,95.18a136.44,136.44,0,0,1-34.23,8.1c28.68,2.75,53.72.06,74.83-8.1,36.2-14,62.41-46,77.88-95.18C650.35,489.61,647.84,446.74,627.48,411.15Z"/><polygon class="cls-3" points="419.84 138.49 295.37 222.32 295.37 267.02 429.83 351.36 445.25 326.18 357.37 246 426.37 214 436.28 157.5 419.84 138.49"/><polygon class="cls-2" points="442.75 331.25 464.26 332.83 479.67 348.25 474.53 359.55 455.7 352.36 453.65 357.25 433.3 346.7 442.75 331.25"/><polygon class="cls-2" points="633.71 205.48 651.95 187.21 671.62 182.38 672.16 189.97 663.22 197.46 694.51 198.77 693.06 215.2 657.18 227.12 641.7 224.87 633.71 205.48"/></g></g></svg>