<svg xmlns="http://www.w3.org/2000/svg" viewBox="0 0 685.99 685.99"><defs><style>.cls-1{fill:#fff;}.cls-2{fill:#4dbdeb;}.cls-3{fill:#f0f7f7;}.cls-4{fill:#00405c;}.cls-5{opacity:0.47;}.cls-6{fill:#0075a8;}.cls-7{fill:#ffd262;}.cls-8{fill:#f4efed;}.cls-9{fill:#fcd0be;}</style></defs><g id="Layer_2" data-name="Layer 2"><g id="Layer_1-2" data-name="Layer 1"><path class="cls-1" d="M343,676A333,333,0,0,1,107.53,107.53,333,333,0,0,1,578.46,578.46,330.85,330.85,0,0,1,343,676Z"/><path class="cls-2" d="M343,20c178.39,0,323,144.61,323,323S521.38,666,343,666,20,521.38,20,343,164.61,20,343,20m0-20A343.08,343.08,0,0,0,209.48,659,343.08,343.08,0,0,0,476.51,27,340.89,340.89,0,0,0,343,0Z"/><path class="cls-3" d="M563.91,485.35H122.08a17,17,0,0,1-17-17v-272a17,17,0,0,1,17-17H563.91a17,17,0,0,1,17,17v272A17,17,0,0,1,563.91,485.35Z"/><circle class="cls-2" cx="343.15" cy="317.67" r="117.1"/><path class="cls-4" d="M343,438.53c-32.78,0-58.47-53.11-58.47-120.9s25.69-120.9,58.47-120.9,58.48,53.11,58.48,120.9S375.78,438.53,343,438.53Zm0-234.12c-27.53,0-50.79,51.85-50.79,113.22S315.46,430.85,343,430.85s50.8-51.85,50.8-113.22S370.53,204.41,343,204.41Z"/><path class="cls-4" d="M343,438.51A120.88,120.88,0,1,1,463.88,317.63,121,121,0,0,1,343,438.51Zm0-234.09A113.21,113.21,0,1,0,456.2,317.63,113.34,113.34,0,0,0,343,204.42Z"/><path class="cls-4" d="M459.08,321.47H226.91a3.84,3.84,0,1,1,0-7.68H459.08a3.84,3.84,0,1,1,0,7.68Z"/><path class="cls-4" d="M343,437.55a3.84,3.84,0,0,1-3.83-3.84V201.54a3.84,3.84,0,0,1,7.67,0V433.71A3.84,3.84,0,0,1,343,437.55Z"/><g class="cls-5"><path class="cls-2" d="M563.91,179.36H544.73a17,17,0,0,1,17,17v272a17,17,0,0,1-17,17h19.18a17,17,0,0,0,17-17v-272A17,17,0,0,0,563.91,179.36Z"/></g><path class="cls-1" d="M122.08,485.35h19.18a17,17,0,0,1-17-17v-272a17,17,0,0,1,17-17H122.08a17,17,0,0,0-17,17v272A17,17,0,0,0,122.08,485.35Z"/><path class="cls-4" d="M563.91,489.19H122.08a20.84,20.84,0,0,1-20.82-20.82v-272a20.84,20.84,0,0,1,20.82-20.82H563.91a20.84,20.84,0,0,1,20.82,20.82v272A20.84,20.84,0,0,1,563.91,489.19Zm-441.83-306a13.15,13.15,0,0,0-13.14,13.14v272a13.16,13.16,0,0,0,13.14,13.15H563.91a13.16,13.16,0,0,0,13.14-13.15v-272a13.15,13.15,0,0,0-13.14-13.14Z"/><path class="cls-4" d="M122.36,250.73a3.83,3.83,0,0,1-3.83-3.83v-23a3.84,3.84,0,1,1,7.67,0v23A3.83,3.83,0,0,1,122.36,250.73Z"/><path class="cls-6" d="M498.2,548.4H187.78V525.65a17,17,0,0,1,17-17H481.22a17,17,0,0,1,17,17Z"/><path class="cls-6" d="M251.87,485.35H434.12v23.33H251.87Z"/><path class="cls-4" d="M498.2,552.23H187.78A3.84,3.84,0,0,1,184,548.4V525.65a20.83,20.83,0,0,1,20.81-20.81H481.22A20.84,20.84,0,0,1,502,525.65V548.4a3.83,3.83,0,0,1-3.84,3.83Zm-306.58-7.67H494.37V525.65a13.16,13.16,0,0,0-13.15-13.14H204.76a13.16,13.16,0,0,0-13.14,13.14Z"/><path class="cls-4" d="M434.12,512.51H251.87a3.84,3.84,0,0,1-3.84-3.83V485.36a3.84,3.84,0,0,1,3.84-3.84H434.12a3.83,3.83,0,0,1,3.83,3.84v23.32A3.83,3.83,0,0,1,434.12,512.51Zm-178.41-7.67H430.28V489.19H255.71Z"/><path class="cls-7" d="M420.27,286v2.88a147.3,147.3,0,0,0,58,117.14,147.28,147.28,0,0,0,58-117.14V286l-58-31.58Z"/><path class="cls-4" d="M478.26,409.89a3.78,3.78,0,0,1-2.32-.79,152,152,0,0,1-59.51-120.19V286a3.85,3.85,0,0,1,2-3.37l58-31.58a3.85,3.85,0,0,1,3.67,0l58,31.58a3.86,3.86,0,0,1,2,3.37v2.88A152,152,0,0,1,480.59,409.1,3.81,3.81,0,0,1,478.26,409.89ZM424.11,288.31v.6a144.34,144.34,0,0,0,54.15,112.28,144.32,144.32,0,0,0,54.16-112.28v-.6l-54.16-29.49Z"/><path class="cls-4" d="M473.65,344.74l-21.12-20,5.28-5.57,16,15.18,25.73-22.85,5.1,5.74Z"/><path class="cls-4" d="M343,275.65c-37.54,0-72.23-8.07-95.18-22.15a3.84,3.84,0,1,1,4-6.54c21.78,13.36,55,21,91.17,21s69.4-7.66,91.18-21a3.84,3.84,0,1,1,4,6.54C415.23,267.58,380.53,275.65,343,275.65Z"/><path class="cls-4" d="M249.79,388.88a3.84,3.84,0,0,1-2-7.11c23-14.08,57.66-22.16,95.21-22.16s72.26,8.08,95.21,22.16a3.84,3.84,0,1,1-4,6.54c-21.78-13.36-55-21-91.2-21s-69.42,7.67-91.2,21a3.82,3.82,0,0,1-2,.57Z"/><path class="cls-8" d="M325,406.37V372.43h36.17v33.94h25.3a23,23,0,0,1,22.87,23.06v30.5H276.66V429.24a23,23,0,0,1,23-22.88Z"/><path class="cls-4" d="M409.33,463.77H276.66a3.84,3.84,0,0,1-3.84-3.84V429.24a26.78,26.78,0,0,1,26.8-26.71h21.53v-30.1A3.84,3.84,0,0,1,325,368.6h36.17a3.84,3.84,0,0,1,3.84,3.83v30.1h21.46a26.84,26.84,0,0,1,26.71,26.9v30.5A3.84,3.84,0,0,1,409.33,463.77ZM280.49,456.1h125V429.43a19.15,19.15,0,0,0-19.05-19.22H361.16a3.84,3.84,0,0,1-3.84-3.84v-30.1H328.83v30.1a3.86,3.86,0,0,1-3.84,3.84H299.62a19.12,19.12,0,0,0-19.13,19V456.1Z"/><path class="cls-9" d="M325,372.43h36.17V408.8a18.09,18.09,0,0,1-36.17,0Z"/><path class="cls-4" d="M343.07,430.72a22,22,0,0,1-21.92-21.92V372.43A3.84,3.84,0,0,1,325,368.6h36.17a3.84,3.84,0,0,1,3.84,3.83V408.8A22,22,0,0,1,343.07,430.72Zm-14.24-54.45V408.8a14.25,14.25,0,1,0,28.49,0V376.27Z"/><path class="cls-9" d="M307.18,341.47h-2.56a12,12,0,1,0,0,24h2.56Z"/><path class="cls-9" d="M381.44,341.47h-2.56v24h2.56a12,12,0,1,0,0-24Z"/><path class="cls-9" d="M343,402.38a36.09,36.09,0,0,1-35.85-36.32V340.92a35.85,35.85,0,1,1,71.7,0v25.14A36.09,36.09,0,0,1,343,402.38Z"/><path class="cls-4" d="M343,406.21c-21.89,0-39.69-18-39.69-40.15V340.92c0-22.14,17.8-40.16,39.69-40.16s39.69,18,39.69,40.16v25.14C382.71,388.2,364.91,406.21,343,406.21Zm0-97.77c-17.65,0-32,14.57-32,32.48v25.14c0,17.91,14.37,32.48,32,32.48s32-14.57,32-32.48V340.92c0-17.91-14.36-32.48-32-32.48Z"/><path class="cls-4" d="M307.18,369.27h-2.56a15.82,15.82,0,1,1,0-31.63h2.56a3.82,3.82,0,0,1,3.83,3.83v24A3.83,3.83,0,0,1,307.18,369.27Zm-3.84-23.86a8.15,8.15,0,0,0,0,16.09Z"/><path class="cls-4" d="M381.44,369.27h-2.56a3.84,3.84,0,0,1-3.84-3.84v-24a3.83,3.83,0,0,1,3.84-3.83h2.56a15.82,15.82,0,1,1,0,31.63Zm1.27-23.86V361.5a8.15,8.15,0,0,0,0-16.09Z"/></g></g></svg>