<svg xmlns="http://www.w3.org/2000/svg" viewBox="0 0 685.99 685.98"><defs><style>.cls-1{fill:#4dbdeb;}.cls-2{fill:#f0f7f7;}.cls-3{fill:#00405c;}.cls-4{fill:#0075a8;}.cls-5{fill:#fff;}.cls-6{fill:#ffd262;}</style></defs><g id="Layer_2" data-name="Layer 2"><g id="Layer_1-2" data-name="Layer 1"><path class="cls-1" d="M659,209.48A343.08,343.08,0,0,1,27,476.5,343.08,343.08,0,0,1,659,209.48ZM666,343C666,164.61,521.38,20,343,20S20,164.61,20,343,164.61,666,343,666,666,521.37,666,343Z"/><path class="cls-2" d="M343,20c178.39,0,323,144.61,323,323S521.38,666,343,666,20,521.37,20,343,164.61,20,343,20Z"/><path class="cls-3" d="M343,520.56c-98.08,0-177.87-79.79-177.87-177.87S244.91,164.81,343,164.81s177.88,79.8,177.88,177.88S441.07,520.56,343,520.56Zm0-347.74c-93.67,0-169.87,76.2-169.87,169.87S249.32,512.56,343,512.56s169.88-76.2,169.88-169.87S436.66,172.82,343,172.82Z"/><circle class="cls-1" cx="481.18" cy="223.69" r="109.81"/><path class="cls-4" d="M481.18,113.88c-3.27,0-6.49.17-9.69.45a109.79,109.79,0,0,1,0,218.73c3.2.27,6.42.45,9.69.45a109.82,109.82,0,0,0,0-219.63Z"/><path class="cls-3" d="M481.18,337.51A113.82,113.82,0,1,1,595,223.7,113.95,113.95,0,0,1,481.18,337.51Zm0-219.63A105.81,105.81,0,1,0,587,223.69,105.93,105.93,0,0,0,481.18,117.88Z"/><circle class="cls-4" cx="204.8" cy="223.69" r="109.81"/><path class="cls-5" d="M217.3,183.36h12.14V163.71H217.3a26.22,26.22,0,0,0-26.19,26.2v9.43H172.43V219h18.68V279.8h19.64V219h18.68V199.34H210.75v-9.43A6.55,6.55,0,0,1,217.3,183.36Z"/><path class="cls-3" d="M210.75,283.8H191.11a4,4,0,0,1-4-4V223H172.42a4,4,0,0,1-4-4V199.34a4,4,0,0,1,4-4h14.69v-5.43a30.23,30.23,0,0,1,30.19-30.2h12.14a4,4,0,0,1,4,4v19.65a4,4,0,0,1-4,4H217.3a2.55,2.55,0,0,0-2.55,2.54v5.44h14.69a4,4,0,0,1,4,4V219a4,4,0,0,1-4,4H214.75V279.8a4,4,0,0,1-4,4Zm-15.64-8h11.64V219a4,4,0,0,1,4-4h14.68V203.34H210.75a4,4,0,0,1-4-4v-9.43a10.56,10.56,0,0,1,10.55-10.55h8.13V167.71H217.3a22.23,22.23,0,0,0-22.2,22.2v9.43a4,4,0,0,1-4,4H176.42V215H191.1a4,4,0,0,1,4,4V275.8Z"/><path class="cls-1" d="M204.8,333.51c3.27,0,6.5-.17,9.69-.45a109.79,109.79,0,0,1,0-218.73c-3.19-.28-6.42-.45-9.69-.45a109.82,109.82,0,0,0,0,219.63Z"/><path class="cls-5" d="M426.17,257.4s22.55,2.69,31-9.52c-12.71-2.5-18.69-15.21-18.69-15.21H445a38.48,38.48,0,0,1-15.7-22.18l8.72,2.25s-10.47-10.47-2.74-29.41c9.22,14.7,30.4,22.93,43.36,23.42-3.74-20.68,22.68-34.64,39.87-17.69,11-2.74,14.21-6.48,14.21-6.48l-3.24,12,6.73,1A33.5,33.5,0,0,1,525,206c-3.24,25.17-22,81.16-98.81,51.39Z"/><path class="cls-4" d="M465.85,269.91q-18.42,0-41.13-8.78a4,4,0,0,1,1.92-7.71c4.56.53,15.85.55,23-3.92-9.89-4.92-14.56-14.63-14.79-15.13a4,4,0,0,1,.24-3.84,4.11,4.11,0,0,1,.48-.62,41.74,41.74,0,0,1-10.21-18.45,4,4,0,0,1,4.58-4.91c-2-5.73-2.76-14.08,1.58-24.74a4,4,0,0,1,7.09-.61c7.69,12.25,24.25,19.25,35.63,21.09A25,25,0,0,1,488,180.68c10.3-5.43,22.46-3.85,31.59,3.95,7.62-2.21,10.15-4.73,10.17-4.76a4,4,0,0,1,4.87-.87,4,4,0,0,1,1.94,4.62l-2.06,7.62,2.27.34a4,4,0,0,1,2.83,6.06,37.9,37.9,0,0,1-10.93,10.82C526.75,221.28,520,248.18,497,261.9c-9,5.34-19.38,8-31.11,8Zm-19.27-10.34c18.56,4.23,34.08,2.71,46.29-4.55,21.88-13,27.07-41.2,28.14-49.52a4,4,0,0,1,2-3,26.55,26.55,0,0,0,5.49-4.07,4,4,0,0,1-2.93-4.93l.73-2.7a58.67,58.67,0,0,1-6.87,2.14,4,4,0,0,1-3.78-1c-8.18-8.07-17.74-7.44-24-4.15-5.51,2.9-10.81,9.23-9.18,18.28a4,4,0,0,1-.91,3.34,3.93,3.93,0,0,1-3.17,1.37c-11.27-.43-30-6.56-41.6-18.88-2.14,11.75,3.88,18,3.95,18a4,4,0,0,1-3.82,6.7l-1.32-.34a35.26,35.26,0,0,0,11.38,13,4,4,0,0,1-1.1,7.29,21.83,21.83,0,0,0,12,7.4,4,4,0,0,1,2.51,6.21c-3.41,4.91-8.58,7.78-13.9,9.41Z"/><path class="cls-3" d="M204.81,337.51A113.82,113.82,0,1,1,318.62,223.69,113.95,113.95,0,0,1,204.81,337.51Zm0-219.63A105.81,105.81,0,1,0,310.62,223.69,105.94,105.94,0,0,0,204.81,117.88Z"/><path class="cls-3" d="M112.09,229.87a4,4,0,0,1-4-4,148.15,148.15,0,0,1,2.06-24.66,4,4,0,1,1,7.89,1.33,139.75,139.75,0,0,0-2,23.33A4,4,0,0,1,112.09,229.87Z"/><circle class="cls-1" cx="204.8" cy="461.68" r="109.81"/><path class="cls-5" d="M238.47,514.91h-64.9a19.38,19.38,0,0,1-19.38-19.38v-64.9a19.38,19.38,0,0,1,19.38-19.37h64.9a19.37,19.37,0,0,1,19.37,19.37v64.9A19.37,19.37,0,0,1,238.47,514.91Z"/><path class="cls-4" d="M204.8,571.49c3.27,0,6.5-.17,9.69-.45a109.79,109.79,0,0,1,0-218.72c-3.19-.28-6.42-.45-9.69-.45a109.81,109.81,0,0,0,0,219.62Z"/><path class="cls-3" d="M204.81,575.49A113.81,113.81,0,1,1,318.62,461.68,113.94,113.94,0,0,1,204.81,575.49Zm0-219.62A105.81,105.81,0,1,0,310.62,461.68,105.93,105.93,0,0,0,204.81,355.87Z"/><path class="cls-4" d="M238.47,518.91h-64.9a23.41,23.41,0,0,1-23.38-23.38v-64.9a23.41,23.41,0,0,1,23.38-23.37h64.9a23.39,23.39,0,0,1,23.37,23.37v64.9A23.4,23.4,0,0,1,238.47,518.91Zm-64.9-103.65a15.4,15.4,0,0,0-15.38,15.38v64.9a15.4,15.4,0,0,0,15.38,15.37h64.9a15.39,15.39,0,0,0,15.37-15.37v-64.9a15.4,15.4,0,0,0-15.37-15.38Z"/><path class="cls-3" d="M206,490.77a27.69,27.69,0,1,1,27.68-27.68A27.72,27.72,0,0,1,206,490.77Zm0-47.37a19.69,19.69,0,1,0,19.68,19.69A19.71,19.71,0,0,0,206,443.4Z"/><path class="cls-3" d="M236.26,426.28a6.56,6.56,0,1,1-6.56,6.56A6.56,6.56,0,0,1,236.26,426.28Z"/><circle class="cls-4" cx="481.18" cy="461.68" r="109.81"/><path class="cls-1" d="M481.18,351.87c-3.27,0-6.49.17-9.69.45a109.79,109.79,0,0,1,0,218.72c3.2.28,6.42.45,9.69.45a109.81,109.81,0,0,0,0-219.62Z"/><path class="cls-3" d="M481.18,575.49A113.81,113.81,0,1,1,595,461.68,113.94,113.94,0,0,1,481.18,575.49Zm0-219.62A105.81,105.81,0,1,0,587,461.68,105.93,105.93,0,0,0,481.18,355.87Z"/><path class="cls-5" d="M495.66,497a9.6,9.6,0,0,1-9.6-9.6V455.17h30V431.92h-30V403.07H462.81v14.84a14,14,0,0,1-14,14h-4.87v23.25h18.88v38.59a26.53,26.53,0,0,0,26.54,26.53h9.52a51.26,51.26,0,0,0,19.56-3.87V493.17a51.27,51.27,0,0,1-19.56,3.88h-3.21Z"/><path class="cls-3" d="M498.87,524.29h-9.53a30.57,30.57,0,0,1-30.53-30.53V459.17H443.93a4,4,0,0,1-4-4V431.92a4,4,0,0,1,4-4h4.87a10,10,0,0,0,10-10V403.07a4,4,0,0,1,4-4h23.25a4,4,0,0,1,4,4v24.85h26a4,4,0,0,1,4,4v23.25a4,4,0,0,1-4,4h-26v28.27a5.6,5.6,0,0,0,5.6,5.6h3.21a47.11,47.11,0,0,0,18-3.57,4,4,0,0,1,5.53,3.7v23.25a4,4,0,0,1-2.48,3.7,55.08,55.08,0,0,1-21.09,4.17Zm-50.94-73.12h14.88a4,4,0,0,1,4,4v38.59a22.56,22.56,0,0,0,22.53,22.54h9.53a47.17,47.17,0,0,0,15.56-2.63V498.82a55.07,55.07,0,0,1-15.56,2.23h-3.21a13.62,13.62,0,0,1-13.6-13.61V455.17a4,4,0,0,1,4-4h26V435.92h-26a4,4,0,0,1-4-4V407.07H466.81v10.84a18,18,0,0,1-18,18h-.87Z"/><path class="cls-4" d="M316.9,526.64V477.57h52.3v49.07h36.58A33.27,33.27,0,0,1,438.86,560V604.1H247V559.71a33.21,33.21,0,0,1,33.26-33.08Z"/><path class="cls-1" d="M405.78,526.64H394.16A33.25,33.25,0,0,1,427.24,560V604.1h11.62V560a33.27,33.27,0,0,0-33.08-33.34Z"/><path class="cls-1" d="M280.26,526.63h11.62a33.21,33.21,0,0,0-33.26,33.08V604.1H247V559.71A33.2,33.2,0,0,1,280.26,526.63Z"/><path class="cls-3" d="M438.86,608.1H247a4,4,0,0,1-4-4V559.71a37.22,37.22,0,0,1,37.21-37.08H312.9V477.57a4,4,0,0,1,4-4h52.3a4,4,0,0,1,4,4v45.07h32.58A37.27,37.27,0,0,1,442.87,560V604.1a4,4,0,0,1-4,4ZM251,600.1H434.87V560a29.25,29.25,0,0,0-29.09-29.34H369.2a4,4,0,0,1-4-4V481.57H320.9v45.07a4,4,0,0,1-4,4H280.22A29.2,29.2,0,0,0,251,559.71Z"/><path class="cls-6" d="M316.9,477.57h52.3v52.59a26.15,26.15,0,1,1-52.3,0Z"/><path class="cls-3" d="M343.05,560.31a30.19,30.19,0,0,1-30.15-30.15V477.57a4,4,0,0,1,4-4h52.3a4,4,0,0,1,4,4v52.59A30.18,30.18,0,0,1,343.05,560.31ZM320.9,481.57v48.59a22.15,22.15,0,1,0,44.3,0V481.57Z"/><path class="cls-6" d="M291.14,432.79h-3.7a17.33,17.33,0,1,0,0,34.66h3.7Z"/><path class="cls-6" d="M398.53,432.79h-3.7v34.65h3.7a17.33,17.33,0,0,0,0-34.65Z"/><path class="cls-6" d="M343,520.87c-28.63,0-51.84-23.51-51.84-52.52V432c0-29,23.21-52.51,51.84-52.51S394.83,403,394.83,432v36.36C394.83,497.35,371.61,520.87,343,520.87Z"/><path class="cls-6" d="M343,379.48a52.18,52.18,0,0,0-5.89.34c25.86,3,46,25.19,46,52.17v36.36c0,27-20.09,49.21-46,52.17a52,52,0,0,0,5.89.35c28.63,0,51.85-23.51,51.85-52.52V432C394.83,403,371.61,379.48,343,379.48Z"/><path class="cls-6" d="M343,379.48a52,52,0,0,1,5.89.34C323,382.79,302.92,405,302.92,432v36.36c0,27,20.1,49.21,45.95,52.17a51.9,51.9,0,0,1-5.89.35c-28.63,0-51.84-23.51-51.84-52.52V432C291.14,403,314.35,379.48,343,379.48Z"/><path class="cls-3" d="M343,524.87c-30.79,0-55.84-25.36-55.84-56.52V432c0-31.16,25.05-56.52,55.84-56.52s55.84,25.36,55.84,56.52v36.36C398.83,499.51,373.77,524.87,343,524.87Zm0-141.39c-26.38,0-47.84,21.76-47.84,48.51v36.36c0,26.75,21.46,48.52,47.84,48.52s47.84-21.77,47.84-48.52V432C390.83,405.24,369.36,383.48,343,383.48Z"/><path class="cls-3" d="M291.14,471.45h-3.7a21.33,21.33,0,1,1,0-42.65h3.7a4,4,0,0,1,4,4v34.65A4,4,0,0,1,291.14,471.45Zm-4-34.65a13.32,13.32,0,0,0,0,26.64Z"/><path class="cls-3" d="M398.53,471.45h-3.71a4,4,0,0,1-4-4V432.8a4,4,0,0,1,4-4h3.71a21.33,21.33,0,0,1,0,42.65Zm.3-34.65v26.64a13.32,13.32,0,0,0,0-26.64Z"/></g></g></svg>