<svg xmlns="http://www.w3.org/2000/svg" viewBox="0 0 685.99 685.99"><defs><style>.cls-1{fill:#fff;}.cls-2{fill:#4dbdeb;}.cls-3{fill:#f0f7f7;}.cls-4{fill:#0075a8;}.cls-5{fill:#00405c;}.cls-6{fill:#ffd262;}.cls-7{fill:#e4b34f;}</style></defs><g id="Layer_2" data-name="Layer 2"><g id="Layer_1-2" data-name="Layer 1"><path class="cls-1" d="M343,676A333,333,0,0,1,107.53,107.53,333,333,0,0,1,578.46,578.46,330.85,330.85,0,0,1,343,676Z"/><path class="cls-2" d="M343,20c178.39,0,323,144.61,323,323S521.38,666,343,666,20,521.38,20,343,164.61,20,343,20m0-20A343.08,343.08,0,0,0,209.48,659,343.08,343.08,0,0,0,476.51,27,340.89,340.89,0,0,0,343,0Z"/><path class="cls-3" d="M120.52,250.19H565.46V544.6H120.52Z"/><path class="cls-4" d="M120.52,250.19,343,451.79l222.47-201.6Z"/><path class="cls-3" d="M565.46,250.19,343,48.6,120.52,250.19Z"/><path class="cls-3" d="M547.52,266.45V532.73l17.94,11.87V250.19Z"/><path class="cls-1" d="M120.52,250.19V544.6l18-11.87V266.45Z"/><path class="cls-5" d="M343,455.79a4,4,0,0,1-2.68-1L117.84,253.16a4,4,0,0,1,2.69-7H565.46a4,4,0,0,1,2.69,7L345.68,454.75a4,4,0,0,1-2.69,1ZM130.9,254.19,343,446.39l212.1-192.2Z"/><path class="cls-5" d="M565.46,254.19H120.53a4,4,0,0,1-2.69-7L340.31,45.63a4,4,0,0,1,5.37,0l222.47,201.6a4,4,0,0,1-2.69,7Zm-434.56-8H555.09L343,54Z"/><path class="cls-5" d="M565.46,548.6H120.53a4,4,0,0,1-4-4V250.19a4,4,0,0,1,4-4H565.46a4,4,0,0,1,4,4V544.6a4,4,0,0,1-4,4Zm-440.93-8H561.46V254.19H124.53Z"/><path class="cls-5" d="M136.94,333.08a4,4,0,0,1-4-4v-24a4,4,0,0,1,8,0v24A4,4,0,0,1,136.94,333.08Z"/><path class="cls-3" d="M120.52,544.6,343,397.4,565.46,544.6Z"/><path class="cls-5" d="M565.46,548.6H120.53a4,4,0,0,1-2.21-7.34l222.47-147.2a4,4,0,0,1,4.41,0l222.47,147.2a4,4,0,0,1-2.21,7.34Zm-431.64-8H552.17L343,402.19Z"/><path class="cls-6" d="M473.13,210A130.14,130.14,0,1,0,320.49,338.16l6.12,10.59L343,377.14l16.39-28.39,6.12-10.6A130.14,130.14,0,0,0,473.13,210Z"/><path class="cls-7" d="M343,79.85c-3.81,0-7.58.2-11.32.52a134.29,134.29,0,0,1,46.89,254.77A130.12,130.12,0,0,0,343,79.85Z"/><path class="cls-6" d="M343,79.85c3.82,0,7.59.2,11.33.52a134.29,134.29,0,0,0-46.89,254.77A130.12,130.12,0,0,1,343,79.85Z"/><path class="cls-3" d="M268.59,227.54h12.69V176.12H268.59a25.71,25.71,0,1,0,0,51.42Z"/><path class="cls-3" d="M353.63,172.51l66.83-35.41V266.56l-66.83-35.42Z"/><path class="cls-3" d="M317.45,303.72a11.28,11.28,0,0,1-11.27-11.27V210h22.55v82.43a11.28,11.28,0,0,1-11.28,11.27Z"/><path class="cls-5" d="M317.45,307.72a15.29,15.29,0,0,1-15.27-15.27V210a4,4,0,0,1,4-4h22.55a4,4,0,0,1,4,4v82.42a15.31,15.31,0,0,1-15.28,15.28ZM310.18,214v78.42a7.27,7.27,0,0,0,14.54,0V214Z"/><path class="cls-4" d="M343,240.13H291.91a10.63,10.63,0,0,1-10.63-10.64V174.17a10.63,10.63,0,0,1,10.63-10.64H343a10.64,10.64,0,0,1,10.64,10.64v55.32A10.64,10.64,0,0,1,343,240.13Z"/><path class="cls-3" d="M425.06,215.72h-4.6V187.94h4.6a13.89,13.89,0,0,1,0,27.78Z"/><path class="cls-5" d="M425.06,219.72h-4.6a4,4,0,0,1-4-4V187.94a4,4,0,0,1,4-4h4.6a17.89,17.89,0,0,1,0,35.78Zm-.6-8h.6a9.89,9.89,0,0,0,0-19.78h-.6Z"/><path class="cls-5" d="M420.46,270.56a4,4,0,0,1-1.88-.47l-66.83-35.41a4,4,0,0,1-2.12-3.53V172.51a4,4,0,0,1,2.12-3.53l66.83-35.41a4,4,0,0,1,5.88,3.53V266.55a4,4,0,0,1-4,4Zm-62.83-41.82,58.83,31.17V143.75l-58.83,31.17Z"/><path class="cls-5" d="M281.28,231.54H268.59a29.71,29.71,0,1,1,0-59.42h12.69a4,4,0,0,1,4,4v51.42a4,4,0,0,1-4,4Zm-12.69-51.42a21.71,21.71,0,1,0,0,43.42h8.69V180.12Z"/><path class="cls-5" d="M343,244.13H291.92a14.65,14.65,0,0,1-14.64-14.64V174.17a14.65,14.65,0,0,1,14.64-14.64H343a14.66,14.66,0,0,1,14.64,14.64v55.32A14.66,14.66,0,0,1,343,244.13Zm-51.07-76.6a6.65,6.65,0,0,0-6.64,6.64v55.32a6.65,6.65,0,0,0,6.64,6.64H343a6.65,6.65,0,0,0,6.64-6.64V174.17a6.65,6.65,0,0,0-6.64-6.64Z"/><path class="cls-5" d="M343,381.14a4,4,0,0,1-3.46-2L318,341.76A133.81,133.81,0,0,1,208.85,210C208.85,136,269,75.85,343,75.85S477.13,136,477.13,210A133.81,133.81,0,0,1,368,341.76l-21.58,37.38a4,4,0,0,1-3.47,2Zm0-297.29a126.13,126.13,0,0,0-21.81,250.36,4,4,0,0,1,2.77,1.94l19,33,19.05-33a4,4,0,0,1,2.77-1.94A126.14,126.14,0,0,0,343,83.85Z"/></g></g></svg>