<svg xmlns="http://www.w3.org/2000/svg" viewBox="0 0 456.26 485.8"><defs><style>.cls-1{fill:#f0f7f7;}.cls-2{fill:#d8efee;}.cls-11,.cls-3{fill:#0075a8;}.cls-4{opacity:0.2;}.cls-24,.cls-25,.cls-5,.cls-8{fill:#fff;}.cls-6{fill:#00405c;}.cls-7{opacity:0.15;}.cls-11,.cls-13,.cls-14,.cls-15,.cls-17,.cls-21,.cls-22,.cls-23,.cls-24,.cls-25,.cls-7,.cls-8{isolation:isolate;}.cls-8{opacity:0.7;}.cls-9{fill:#f0f0f0;}.cls-10{fill:#e0e0e0;}.cls-11,.cls-17{opacity:0.8;}.cls-12{fill:#ebebeb;}.cls-13,.cls-20,.cls-21,.cls-24{opacity:0.3;}.cls-14,.cls-25{opacity:0.4;}.cls-15{opacity:0.5;}.cls-16,.cls-17{fill:#fafafa;}.cls-18,.cls-21,.cls-22{fill:#ffd262;}.cls-19{fill:#4dbdeb;}.cls-23{opacity:0.1;}.cls-26{fill:#eaa6a6;}.cls-27{fill:#f5f5f5;}.cls-28{fill:#db8e8e;}</style></defs><g id="Layer_2" data-name="Layer 2"><g id="Layer_1-2" data-name="Layer 1"><path class="cls-1" d="M446.07,277.65a362.23,362.23,0,0,1-11.42,49.89c-31,99.53-123.22,153-223.92,157.86-38.41,1.86-77.65-2.49-113-17.53s-66.75-41.43-83.37-76.11C-12,336.91,1.7,271.23,25.06,215.06c24.87-59.83,61-116.22,111.77-156.5S254.11-4.54,318.13,5.49C374,14.24,426.56,48.73,446.29,103.27c13.7,37.87,10.54,79.51,6.54,119.59C451,241.15,449,259.51,446.07,277.65Z"/><path id="Shadow" class="cls-2" d="M298.17,363.11a12.72,12.72,0,0,0-1.85-6.5h0a14.23,14.23,0,0,0-.8-1.22l0-.05a12.7,12.7,0,0,0-.87-1.07l-.08-.09a9.88,9.88,0,0,0-.93-.9l-.09-.07a9.42,9.42,0,0,0-1-.76,6.08,6.08,0,0,0-.6-.34l-.27-.12-.31-.13-.44-.15-.12,0a3,3,0,0,0-.52-.1h0a3.23,3.23,0,0,0-1.91.29h0c-5.29,2.66-35.77,22.05-49.8,30.79l-6.95,4.22a1.53,1.53,0,0,0-.52.49l-.05.08a2.69,2.69,0,0,0-.16.29,1.72,1.72,0,0,0-.07.21,2.76,2.76,0,0,0-.08.27l0,.19-1.15.63-1,.55a40.46,40.46,0,0,0-7.93-5.88c-9.61-5.55-22.35-8.6-35.87-8.6s-26.26,3-35.88,8.6c-10,5.76-15.44,13.52-15.44,21.87s5.48,16.12,15.44,21.87c9.62,5.55,22.36,8.61,35.88,8.61s26.26-3.06,35.87-8.61c10-5.75,15.45-13.52,15.45-21.87a20.12,20.12,0,0,0-3.26-10.8l.92-.5a2,2,0,0,0,2,.19l.05,0c4.76-2.62,51.16-22.39,60.65-27.48h0C297.38,366.36,298.1,365,298.17,363.11Zm-82.05,56.74c-8.3,4.79-19.49,7.43-31.49,7.43s-23.19-2.64-31.49-7.43c-7.14-4.12-11.06-9.19-11.06-14.28s3.92-10.15,11.06-14.27c8.3-4.79,19.48-7.43,31.49-7.43s23.19,2.64,31.49,7.43c7.13,4.12,11.06,9.19,11.06,14.27S223.25,415.73,216.12,419.85Z"/><path id="Shadow-2" class="cls-2" d="M305.25,245.64l-47.06-27.23a9.6,9.6,0,0,0-8.67,0l-239.08,138c-2.39,1.39-2.39,3.62,0,5L57.5,388.68a9.57,9.57,0,0,0,8.66,0L155.76,337l13.77,8c7.3,4.21,19.12,4.21,26.42,0L237,321.42c7.3-4.2,7.3-11,0-15.24l-13.76-8,82-47.54C307.64,249.26,307.64,247,305.25,245.64Z"/><ellipse id="Shadow-3" class="cls-2" cx="384.21" cy="347.89" rx="46.15" ry="26.65"/><g id="Plants"><path class="cls-3" d="M410.43,317.81c0-6.25-1.24-17.77,4-28.57,3.83-7.82,10.69-15.42,17.07-14.67,5.93.71,6.47,9.84.79,16.09s-12.9,14.89-14.48,28.71l-4.09,10.25Z"/><g class="cls-4"><path d="M410.43,317.81c0-6.25-1.24-17.77,4-28.57,3.83-7.82,10.69-15.42,17.07-14.67,5.93.71,6.47,9.84.79,16.09s-12.9,14.89-14.48,28.71l-4.09,10.25Z"/></g><path class="cls-5" d="M412.56,322.19a.42.42,0,0,0,.35-.44c-.72-17.76,5.07-32.51,16.72-42.64a.44.44,0,0,0,0-.62.45.45,0,0,0-.61,0c-11.86,10.31-17.74,25.3-17,43.33a.43.43,0,0,0,.44.42Z"/><path class="cls-3" d="M409.3,340.14a22.09,22.09,0,0,0,11,3.06c6.69.16,9.15-3.36,9.15-3.36s-3.4-5.8-7.34-7a36.67,36.67,0,0,1,12,3.14s4-.48,4.78-6.79c0,0-2.86-3.35-11.07-4.27a26.39,26.39,0,0,1,11.87-1c.55.13,1.72-8.05,1.91-11.78s-1.27-3.5-4.21-3.87-12.66.44-14.23,2.24-1.75,7.25-1.75,7.25-2.11-2.79-2.06-5.54a10.25,10.25,0,0,0-6,.95c-3,1.54-4,2.77-4.16,5.11s-.35,5.82.59,8.53c0,0-2.77-4.46-2.63-8.35a42.27,42.27,0,0,0-2.83,5.92C403,327.74,404.51,336,409.3,340.14Z"/><path class="cls-5" d="M409.41,340.56a.46.46,0,0,0,.3-.29c3.8-11.66,21.71-27,28.55-29.33a.43.43,0,0,0,.27-.55.41.41,0,0,0-.52-.28h0c-7,2.35-25.22,18-29.1,29.89a.44.44,0,0,0,.53.55Z"/></g><g id="Device"><g id="Monitor"><path class="cls-6" d="M196,341l35.37-20.45c3.65-2.11,5.47-4.86,5.47-7.62s0-4.92,0-4.92l-33.29-18.9A7.79,7.79,0,0,1,200,283V239.38l-61.79,35.7V318.7a7.82,7.82,0,0,0,3.52,6.1L169.54,341C176.83,345.19,188.66,345.19,196,341Z"/><path class="cls-6" d="M153.05,326.42v4.9l-11.33-6.53a7.77,7.77,0,0,1-3.51-6.1v-43.6l11.77-6.8c.24,3,.51,6.08.75,9.09l-8.25,4.78v34.07a7.72,7.72,0,0,0,3.51,6.1Z"/><path class="cls-3" d="M142.47,316.24a7.8,7.8,0,0,0,3.53,6.1l23.53,13.72c7.3,4.22,19.12,4.22,26.42,0l35.39-20.45c7.29-4.21,7.29-11,0-15.25l-23.56-13.73a7.83,7.83,0,0,1-3.52-6.1V246.46l-61.79,35.7Z"/><path class="cls-7" d="M215,290.78h0l-7.18-4.14a7.83,7.83,0,0,1-3.52-6.1V246.46l-61.79,35.7v34.08a7.8,7.8,0,0,0,3.53,6.1l7,4.07Z"/><path class="cls-6" d="M236.8,308v4.92c0,2.76-1.83,5.51-5.47,7.62L196,341a26.61,26.61,0,0,1-12.6,3.13v-4.9a26.49,26.49,0,0,0,12.6-3.13l35.38-20.47C235,313.52,236.8,310.75,236.8,308Z"/><path class="cls-3" d="M43.27,363.29a9.43,9.43,0,0,0,8.53-.16l239-137.95a9.73,9.73,0,0,0,4.4-7.62V8.41A9.43,9.43,0,0,0,291,.94a9.43,9.43,0,0,0-8.53.16l-238.95,138a9.75,9.75,0,0,0-4.4,7.63V355.83A9.43,9.43,0,0,0,43.27,363.29Z"/><path class="cls-6" d="M51.8,363.13l239-137.95a9.75,9.75,0,0,0,4.4-7.63V8.4c0-2.8-2-3.94-4.4-2.54L51.8,143.82a9.71,9.71,0,0,0-4.4,7.62V360.59C47.4,363.39,49.37,364.53,51.8,363.13Z"/><path class="cls-3" d="M55.65,333V154.18a5.81,5.81,0,0,1,2.64-4.57L284.24,19.15c1.46-.84,2.65-.15,2.65,1.53V199.46a5.85,5.85,0,0,1-2.64,4.58L58.3,334.48C56.84,335.33,55.65,334.64,55.65,333Z"/><path class="cls-8" d="M55.65,333V154.18a5.81,5.81,0,0,1,2.64-4.57L284.24,19.15c1.46-.84,2.65-.15,2.65,1.53V199.46a5.85,5.85,0,0,1-2.64,4.58L58.3,334.48C56.84,335.33,55.65,334.64,55.65,333Z"/><path class="cls-3" d="M170.82,285.69a2.66,2.66,0,0,1-1.32-.35,3.35,3.35,0,0,1-1.46-3.1,9.54,9.54,0,0,1,4.38-7.59h0a3,3,0,0,1,4.88,2.82,9.55,9.55,0,0,1-4.38,7.58A4.23,4.23,0,0,1,170.82,285.69ZM174.51,275a3.24,3.24,0,0,0-1.59.5h0a8.58,8.58,0,0,0-3.88,6.72,2,2,0,0,0,3.38,1.95,8.59,8.59,0,0,0,3.88-6.72,2.43,2.43,0,0,0-1-2.24A1.6,1.6,0,0,0,174.51,275Z"/></g></g><path class="cls-9" d="M326.14,52.8,93.43,187V358.51a3,3,0,0,0,3,3,3.09,3.09,0,0,0,1.48-.39l4.14-2.4L321.8,232a9.6,9.6,0,0,0,4.34-7.51Z"/><path class="cls-10" d="M325.14,54.53V224.46a8.62,8.62,0,0,1-3.84,6.64L101.52,357.83l-4.14,2.39a2,2,0,0,1-1,.27,2.05,2.05,0,0,1-1.37-.56,1.92,1.92,0,0,1-.6-1.42V187.57l230.71-133m1-1.73L93.43,187V358.51a3,3,0,0,0,4.45,2.58l4.14-2.4L321.8,232a9.6,9.6,0,0,0,4.34-7.51Z"/><polygon class="cls-11" points="320.62 49.61 87.89 183.8 93.43 187 326.14 52.8 320.62 49.61"/><path class="cls-12" d="M95,361.13a3,3,0,0,1-1.56-2.62V187l-5.54-3.19V354.36a4.49,4.49,0,0,0,0,.64,4.59,4.59,0,0,0,2.26,3.36L94.76,361Z"/><path class="cls-3" d="M87.89,183.87V172.3a4.86,4.86,0,0,1,2.16-3.76L318.46,36.87a4.74,4.74,0,0,1,4.32,0l1.19.69a4.79,4.79,0,0,1,2.17,3.75V52.89L93.43,187.07Z"/><path class="cls-13" d="M87.89,183.87V172.3a4.86,4.86,0,0,1,2.16-3.76L318.46,36.87a4.74,4.74,0,0,1,4.32,0l1.19.69a4.79,4.79,0,0,1,2.17,3.75V52.89L93.43,187.07Z"/><path class="cls-3" d="M93.43,175.5a4.8,4.8,0,0,1,2.15-3.76L324,40.06c1.19-.7,2.16-.15,2.16,1.24V52.89L93.43,187.07Z"/><path class="cls-14" d="M93.43,175.5a4.8,4.8,0,0,1,2.15-3.76L324,40.06c1.19-.7,2.16-.15,2.16,1.24V52.89L93.43,187.07Z"/><path class="cls-3" d="M94.06,173.36a4.37,4.37,0,0,0-.63,2.14v11.57l-5.53-3.19V172.3a4.33,4.33,0,0,1,.63-2.13Z"/><path class="cls-15" d="M94.06,173.36a4.37,4.37,0,0,0-.63,2.14v11.57l-5.53-3.19V172.3a4.33,4.33,0,0,1,.63-2.13Z"/><path class="cls-16" d="M316,52.36c0,1.3.91,1.82,2,1.17A4.45,4.45,0,0,0,320,50c0-1.3-.91-1.82-2-1.18A4.51,4.51,0,0,0,316,52.36Z"/><path class="cls-16" d="M307.86,57.05c0,1.3.91,1.82,2,1.17a4.47,4.47,0,0,0,2-3.51c0-1.3-.91-1.82-2-1.18A4.51,4.51,0,0,0,307.86,57.05Z"/><path class="cls-16" d="M299.73,61.74c0,1.3.91,1.82,2,1.17a4.49,4.49,0,0,0,2-3.51c0-1.3-.91-1.82-2-1.18A4.54,4.54,0,0,0,299.73,61.74Z"/><path class="cls-16" d="M93.43,187.07V358.51a3,3,0,0,0,3,3,3.09,3.09,0,0,0,1.48-.39l4.14-2.4,50.86-29.32V152.79L93.43,187.07Z"/><polygon class="cls-16" points="156.94 155.68 156.94 322.19 321.26 227.33 321.26 60.82 156.94 155.68"/><path class="cls-3" d="M139.27,172.91l-37.93,21.91a2.82,2.82,0,0,0-1.27,2.2V201c0,.81.57,1.14,1.27.74l37.93-21.92a2.82,2.82,0,0,0,1.27-2.2v-4C140.54,172.83,140,172.5,139.27,172.91Z"/><path class="cls-17" d="M139.27,172.91l-37.93,21.91a2.82,2.82,0,0,0-1.27,2.2V201c0,.81.57,1.14,1.27.74l37.93-21.92a2.82,2.82,0,0,0,1.27-2.2v-4C140.54,172.83,140,172.5,139.27,172.91Z"/><path class="cls-3" d="M147.71,174.47l-1.11-1.07a5.23,5.23,0,0,0,.35-1.79,2.13,2.13,0,0,0-.83-1.92,1.35,1.35,0,0,0-1.37.06,4.44,4.44,0,0,0-1.75,3.63,2.11,2.11,0,0,0,.83,1.92,1.19,1.19,0,0,0,.6.17,1.54,1.54,0,0,0,.76-.23,3,3,0,0,0,1-1l.91.88a.45.45,0,0,0,.31.12.44.44,0,0,0,.44-.44.45.45,0,0,0-.14-.32Zm-3,0a.46.46,0,0,1-.48.06c-.18-.1-.39-.47-.39-1.16a3.66,3.66,0,0,1,1.31-2.87.75.75,0,0,1,.32-.1.34.34,0,0,1,.17.05c.18.1.39.47.39,1.15a3.62,3.62,0,0,1-1.32,2.87Z"/><path class="cls-18" d="M101,213.29l-.85.49c-.06,0-.1,0-.1-.06v-2.31a.23.23,0,0,1,.1-.17l.85-.49s.09,0,.09.07v2.3A.22.22,0,0,1,101,213.29Z"/><path class="cls-18" d="M102.27,212.56l-.85.49s-.09,0-.09-.07v-2.3a.21.21,0,0,1,.09-.18l.85-.49s.09,0,.09.07v2.3A.21.21,0,0,1,102.27,212.56Z"/><path class="cls-18" d="M103.55,211.82l-.86.49s-.09,0-.09-.07v-2.3a.26.26,0,0,1,.09-.17l.86-.49s.09,0,.09.06v2.31A.22.22,0,0,1,103.55,211.82Z"/><path class="cls-18" d="M101,216.26l-.85.49c-.06,0-.1,0-.1-.06v-2.31a.23.23,0,0,1,.1-.17l.85-.49s.09,0,.09.07v2.3A.22.22,0,0,1,101,216.26Z"/><path class="cls-18" d="M102.27,215.53l-.85.49s-.09,0-.09-.07v-2.3a.21.21,0,0,1,.09-.18l.85-.49s.09,0,.09.07v2.3A.21.21,0,0,1,102.27,215.53Z"/><path class="cls-18" d="M103.55,214.79l-.86.49s-.09,0-.09-.07v-2.3a.26.26,0,0,1,.09-.17l.86-.49s.09,0,.09.06v2.31A.22.22,0,0,1,103.55,214.79Z"/><path class="cls-18" d="M101.13,224.11l-1-.64s0-.12,0-.19l1-1.84c.05-.09.13-.08.13,0v2.48C101.26,224,101.18,224.14,101.13,224.11Z"/><path class="cls-18" d="M100.69,222.7l1.38-.8v.66l-1.38.79c-.12.07-.21,0-.21-.2A.55.55,0,0,1,100.69,222.7Z"/><polygon class="cls-18" points="102.33 221.75 102.8 221.48 102.8 222.14 102.33 222.41 102.33 221.75"/><path class="cls-18" d="M104.07,221.08v2.41a.58.58,0,0,1-.22.45c-.11.07-.21,0-.21-.21v-2.08l-.58.34v-.66l.79-.46C104,220.81,104.07,220.9,104.07,221.08Z"/><path class="cls-18" d="M101.54,229.51a4.57,4.57,0,0,0-1.45,3.9c.17,1.26.91,1.21,1,1.79,0,.06,0,.09.1.06l.93-.53a.23.23,0,0,0,.1-.17c.09-.77,1.05-1.69,1.05-3.56C103.27,229.56,102.48,228.86,101.54,229.51Z"/><path class="cls-18" d="M102.1,236.23l-.9.52c-.07,0-.12,0-.12-.08v-.83a.3.3,0,0,1,.12-.21l.9-.52c.06,0,.11,0,.11.08V236A.27.27,0,0,1,102.1,236.23Z"/><path class="cls-18" d="M101.76,210.06a5.48,5.48,0,0,0-1.64,3.45,3.7,3.7,0,0,0,.24,1.89l-.3,1.57c0,.13,0,.2.12.12l.91-1a1.42,1.42,0,0,0,1.32-.39,5.46,5.46,0,0,0,1.63-3.45C104.25,210.05,103.1,209,101.76,210.06Zm.32,5.16c-.83.48-1.51-.18-1.51-1.46a4,4,0,0,1,1.51-3.2c.84-.48,1.51.17,1.51,1.45a4,4,0,0,1-1.51,3.21Z"/><path class="cls-18" d="M101.76,240.41a5.48,5.48,0,0,0-1.64,3.45,3.7,3.7,0,0,0,.24,1.89l-.3,1.57c0,.13,0,.2.12.12l.91-1a1.42,1.42,0,0,0,1.32-.39A5.47,5.47,0,0,0,104,242.6C104.25,240.4,103.1,239.3,101.76,240.41Zm.32,5.15c-.83.49-1.51-.17-1.51-1.45a4,4,0,0,1,1.51-3.21c.84-.48,1.51.18,1.51,1.46A3.94,3.94,0,0,1,102.08,245.56Z"/><path class="cls-18" d="M103,251.53a2.09,2.09,0,0,1-.79,1.69c-.44.25-.8-.09-.8-.77a2.1,2.1,0,0,1,.8-1.69C102.68,250.51,103,250.85,103,251.53Z"/><path class="cls-18" d="M104.41,251.77a1.43,1.43,0,0,1-.54,1.13c-.29.17-.53-.06-.53-.52a1.4,1.4,0,0,1,.53-1.12C104.17,251.09,104.41,251.32,104.41,251.77Z"/><path class="cls-18" d="M103.18,256.37l-1.89,1.09v-2.39a1.63,1.63,0,0,1,.69-1.3l.52-.3c.37-.22.68,0,.68.52Z"/><path class="cls-18" d="M104,253.17l-.52.3v2.75l1-.56v-2.14C104.42,253.18,104.21,253,104,253.17Z"/><path class="cls-18" d="M100.07,254.28c0,.45.23.68.53.51a1.41,1.41,0,0,0,.53-1.13c0-.45-.24-.68-.53-.51A1.41,1.41,0,0,0,100.07,254.28Z"/><path class="cls-18" d="M100.51,255.16l.52-.3v2.75l-1,.57V256A1.12,1.12,0,0,1,100.51,255.16Z"/><path class="cls-10" d="M109.28,207.9l22.21-12.82c.59-.35,1.08-.1,1.08.54a2.35,2.35,0,0,1-1.08,1.8l-22.21,12.82c-.6.35-1.08.1-1.08-.55A2.29,2.29,0,0,1,109.28,207.9Z"/><path class="cls-10" d="M109.28,218.35l22.21-12.82c.59-.35,1.08-.1,1.08.55a2.35,2.35,0,0,1-1.08,1.79l-22.21,12.82c-.6.35-1.08.1-1.08-.54A2.3,2.3,0,0,1,109.28,218.35Z"/><path class="cls-10" d="M109.28,228.8,131.49,216c.59-.34,1.08-.1,1.08.55a2.36,2.36,0,0,1-1.08,1.8l-22.21,12.82c-.6.34-1.08.1-1.08-.55A2.3,2.3,0,0,1,109.28,228.8Z"/><path class="cls-10" d="M109.28,239.26l22.21-12.83c.59-.34,1.08-.1,1.08.55a2.35,2.35,0,0,1-1.08,1.8L109.28,241.6c-.6.35-1.08.1-1.08-.55A2.29,2.29,0,0,1,109.28,239.26Z"/><path class="cls-10" d="M109.28,249.71l22.21-12.82c.59-.35,1.08-.1,1.08.54a2.35,2.35,0,0,1-1.08,1.8l-22.21,12.82c-.6.35-1.08.1-1.08-.54A2.3,2.3,0,0,1,109.28,249.71Z"/><path class="cls-19" d="M113.34,258.24l22.21-12.82c.6-.34,1.08-.1,1.08.55a2.34,2.34,0,0,1-1.08,1.8l-22.21,12.82c-.6.34-1.08.1-1.08-.55A2.31,2.31,0,0,1,113.34,258.24Z"/><path class="cls-10" d="M113.34,265.3l22.21-12.82c.6-.34,1.08-.1,1.08.55a2.32,2.32,0,0,1-1.08,1.8l-22.21,12.82c-.6.34-1.08.1-1.08-.55A2.31,2.31,0,0,1,113.34,265.3Z"/><path class="cls-10" d="M113.34,272.37l22.21-12.83c.6-.34,1.08-.1,1.08.55a2.32,2.32,0,0,1-1.08,1.8l-22.21,12.82c-.6.35-1.08.1-1.08-.55A2.29,2.29,0,0,1,113.34,272.37Z"/><path class="cls-10" d="M117.66,276.85,139.87,264c.6-.34,1.08-.1,1.08.55a2.3,2.3,0,0,1-1.08,1.8L117.66,279.2c-.59.34-1.08.1-1.08-.55A2.34,2.34,0,0,1,117.66,276.85Z"/><path class="cls-18" d="M112.47,282.93l1.81-3.18c.06-.12.06-.28,0-.33l-1.81-1.1c-.08-.05-.21.12-.21.29v4.28C112.26,283.06,112.39,283.08,112.47,282.93Z"/><path class="cls-10" d="M117.66,283.89l22.21-12.82c.6-.35,1.08-.1,1.08.55a2.29,2.29,0,0,1-1.08,1.79l-22.21,12.83c-.59.34-1.08.1-1.08-.55A2.32,2.32,0,0,1,117.66,283.89Z"/><path class="cls-18" d="M112.47,290l1.81-3.19c.06-.12.06-.28,0-.32l-1.81-1.1c-.08-.05-.21.12-.21.29v4.28C112.26,290.1,112.39,290.12,112.47,290Z"/><path class="cls-10" d="M117.66,290.93l22.21-12.82c.6-.35,1.08-.1,1.08.54a2.3,2.3,0,0,1-1.08,1.8l-22.21,12.82c-.59.35-1.08.1-1.08-.55A2.32,2.32,0,0,1,117.66,290.93Z"/><path class="cls-18" d="M112.47,297l1.81-3.18c.06-.12.06-.28,0-.32l-1.81-1.1c-.08-.06-.21.11-.21.28V297C112.26,297.13,112.39,297.16,112.47,297Z"/><path class="cls-10" d="M117.66,298l22.21-12.82c.6-.34,1.08-.1,1.08.55a2.31,2.31,0,0,1-1.08,1.8l-22.21,12.82c-.59.34-1.08.1-1.08-.55A2.34,2.34,0,0,1,117.66,298Z"/><path class="cls-18" d="M112.47,304l1.81-3.18c.06-.13.06-.29,0-.33l-1.81-1.1c-.08-.05-.21.12-.21.29V304C112.26,304.17,112.39,304.19,112.47,304Z"/><path class="cls-10" d="M117.66,305l22.21-12.82c.6-.35,1.08-.1,1.08.55a2.29,2.29,0,0,1-1.08,1.79l-22.21,12.82c-.59.35-1.08.1-1.08-.54A2.32,2.32,0,0,1,117.66,305Z"/><path class="cls-18" d="M112.47,311.07l1.81-3.18c.06-.12.06-.28,0-.32l-1.81-1.1c-.08-.05-.21.12-.21.28V311C112.26,311.21,112.39,311.23,112.47,311.07Z"/><path class="cls-10" d="M117.66,312l22.21-12.83c.6-.34,1.08-.1,1.08.55a2.3,2.3,0,0,1-1.08,1.8l-22.21,12.82c-.59.35-1.08.1-1.08-.55A2.32,2.32,0,0,1,117.66,312Z"/><path class="cls-18" d="M112.47,318.11l1.81-3.18c.06-.12.06-.28,0-.32l-1.81-1.1c-.08-.06-.21.11-.21.28v4.28C112.26,318.24,112.39,318.26,112.47,318.11Z"/><path class="cls-10" d="M117.66,319.07l22.21-12.82c.6-.34,1.08-.1,1.08.55a2.31,2.31,0,0,1-1.08,1.8l-22.21,12.82c-.59.34-1.08.1-1.08-.55A2.34,2.34,0,0,1,117.66,319.07Z"/><path class="cls-18" d="M112.47,325.15l1.81-3.18c.06-.13.06-.29,0-.33l-1.81-1.1c-.08-.05-.21.12-.21.29v4.28C112.26,325.28,112.39,325.3,112.47,325.15Z"/><path class="cls-10" d="M117.66,326.11l22.21-12.82c.6-.35,1.08-.1,1.08.55a2.29,2.29,0,0,1-1.08,1.79l-22.21,12.82c-.59.35-1.08.1-1.08-.54A2.32,2.32,0,0,1,117.66,326.11Z"/><path class="cls-18" d="M112.47,332.18l1.81-3.18c.06-.12.06-.28,0-.32l-1.81-1.1c-.08-.05-.21.11-.21.28v4.29C112.26,332.32,112.39,332.34,112.47,332.18Z"/><path class="cls-9" d="M162.09,178.52l73-42.14a2.41,2.41,0,0,0,1.08-1.88V115.9c0-.69-.49-1-1.08-.63l-73,42.13a2.41,2.41,0,0,0-1.09,1.88v18.61C161,178.58,161.49,178.86,162.09,178.52Z"/><path class="cls-3" d="M168.45,165.39a.09.09,0,0,1,0,0l.48-2-.67.39s0,0,0,0a.08.08,0,0,1,0-.05v-.36a.19.19,0,0,1,0-.08l0,0,1.06-.61h0a.08.08,0,0,1,0,.05v.32a1.42,1.42,0,0,1,0,.2l-.48,2,0,.07a.07.07,0,0,1,0,0l-.31.18h0A.06.06,0,0,1,168.45,165.39Z"/><path class="cls-3" d="M170.22,162a.5.5,0,0,1,.29-.09.25.25,0,0,1,.19.09.46.46,0,0,1,.12.23,1.13,1.13,0,0,1,.05.32v.61a2.32,2.32,0,0,1-.05.38,1.09,1.09,0,0,1-.12.36,1.29,1.29,0,0,1-.19.32,1,1,0,0,1-.29.24.48.48,0,0,1-.29.09.25.25,0,0,1-.19-.09.48.48,0,0,1-.12-.22,1.88,1.88,0,0,1-.05-.33v-.61a2.47,2.47,0,0,1,.05-.38,1.18,1.18,0,0,1,.12-.36,1.29,1.29,0,0,1,.19-.32A1.13,1.13,0,0,1,170.22,162Zm.24,1.38v-.57a.77.77,0,0,0,0-.15.18.18,0,0,0,0-.1s0,0-.07-.05a.21.21,0,0,0-.11,0,.31.31,0,0,0-.11.09.54.54,0,0,0-.07.13.83.83,0,0,0,0,.15.88.88,0,0,0,0,.16v.57a.77.77,0,0,0,0,.15.21.21,0,0,0,0,.11.08.08,0,0,0,.07,0,.15.15,0,0,0,.11,0,.31.31,0,0,0,.11-.09.33.33,0,0,0,.07-.13.33.33,0,0,0,0-.14,1,1,0,0,0,0-.17Z"/><path class="cls-3" d="M171.76,161.64v.26l0,.2a1.06,1.06,0,0,1-.06.19,1,1,0,0,1-.11.17.57.57,0,0,1-.15.12.3.3,0,0,1-.15,0,.15.15,0,0,1-.11,0,.23.23,0,0,1-.06-.12.47.47,0,0,1,0-.17s0-.09,0-.13,0-.08,0-.13a.76.76,0,0,1,0-.21.7.7,0,0,1,.06-.19.57.57,0,0,1,.11-.16.64.64,0,0,1,.15-.13.33.33,0,0,1,.15,0,.12.12,0,0,1,.1,0,.19.19,0,0,1,.07.11A1.13,1.13,0,0,1,171.76,161.64Zm.55-.73,0-.06,0,0,.18-.1h0l0,0v.05l-1.1,2.85,0,.07a.1.1,0,0,1-.05,0l-.18.11s0,0,0,0a.05.05,0,0,1,0,0v0Zm-1,1.22a.23.23,0,0,0,0,.12s0,0,.07,0a.15.15,0,0,0,.06-.09.32.32,0,0,0,0-.14v-.23a.27.27,0,0,0,0-.12s0,0-.06,0a.18.18,0,0,0-.07.08.77.77,0,0,0,0,.15.81.81,0,0,0,0,.22Zm1.47.11v.26l0,.2a1.06,1.06,0,0,1-.06.19,1,1,0,0,1-.11.17.57.57,0,0,1-.15.12.3.3,0,0,1-.15,0,.12.12,0,0,1-.11,0,.23.23,0,0,1-.06-.12.47.47,0,0,1,0-.17s0-.09,0-.12,0-.09,0-.14a.64.64,0,0,1,0-.2.76.76,0,0,1,.06-.2.57.57,0,0,1,.11-.16.64.64,0,0,1,.15-.13.24.24,0,0,1,.15,0,.1.1,0,0,1,.1,0,.19.19,0,0,1,.07.11l0,.18Zm-.44.49a.22.22,0,0,0,0,.12s0,0,.07,0a.16.16,0,0,0,.06-.08.4.4,0,0,0,0-.15v-.23a.27.27,0,0,0,0-.12s0,0-.06,0a.18.18,0,0,0-.07.08.77.77,0,0,0,0,.15.81.81,0,0,0,0,.22Z"/><path class="cls-3" d="M168.44,159.65l-.73-1.13a14.81,14.81,0,0,0-1.74,4.67l1.19-.09A11,11,0,0,1,168.44,159.65Z"/><path class="cls-3" d="M170.51,157.42V155.5a8.28,8.28,0,0,0-2.8,3l.73,1.13A6.15,6.15,0,0,1,170.51,157.42Z"/><path class="cls-3" d="M167,164.87a9.56,9.56,0,0,1,.17-1.77l-1.19.09a12.92,12.92,0,0,0-.23,2.4,9.05,9.05,0,0,0,.23,2.14l1.19-1.28A6.48,6.48,0,0,1,167,164.87Z"/><path class="cls-3" d="M175,158a4,4,0,0,0-1.73-2.67,2.78,2.78,0,0,0-2.8.21v1.92a2,2,0,0,1,2.06-.15,2.87,2.87,0,0,1,1.28,2,7,7,0,0,1,.18,1.58,9.57,9.57,0,0,1-.18,1.77,10.65,10.65,0,0,1-1.28,3.45,6.13,6.13,0,0,1-2.06,2.23,2.05,2.05,0,0,1-2.07.16,2.89,2.89,0,0,1-1.28-2L166,167.73a3.93,3.93,0,0,0,1.74,2.66,2.79,2.79,0,0,0,2.8-.21,8.45,8.45,0,0,0,2.8-3,15,15,0,0,0,1.73-4.67,12.84,12.84,0,0,0,.23-2.4A9,9,0,0,0,175,158Z"/><path class="cls-3" d="M182.4,152.71l22.2-12.82c.6-.34,1.09-.1,1.09.55a2.35,2.35,0,0,1-1.09,1.8l-22.2,12.82c-.6.34-1.09.1-1.09-.55A2.35,2.35,0,0,1,182.4,152.71Z"/><path class="cls-10" d="M182.4,157.44l38.45-22.2c.6-.34,1.08-.1,1.08.55a2.3,2.3,0,0,1-1.08,1.8l-38.45,22.2c-.6.34-1.09.1-1.09-.55A2.33,2.33,0,0,1,182.4,157.44Z"/><path class="cls-9" d="M241.29,132.78l73-42.14a2.37,2.37,0,0,0,1.08-1.87V70.16c0-.69-.48-1-1.08-.62l-73,42.13a2.37,2.37,0,0,0-1.08,1.87v18.62C240.21,132.85,240.69,133.13,241.29,132.78Z"/><path class="cls-3" d="M248,118a1.23,1.23,0,0,1,.06-.39,1.35,1.35,0,0,1,.14-.35,1.27,1.27,0,0,1,.21-.29.91.91,0,0,1,.24-.2.53.53,0,0,1,.24-.08.3.3,0,0,1,.21,0,.34.34,0,0,1,.15.18.86.86,0,0,1,.05.32,1.34,1.34,0,0,1,0,.2c0,.06,0,.12,0,.17s0,.12,0,.18l-.06.16-.42,1.14,0,.06,0,.05-.35.2a0,0,0,0,1,0,0h0a.09.09,0,0,1,0,0,0,0,0,0,1,0,0v0l.29-.78a.39.39,0,0,1-.21,0,.4.4,0,0,1-.18-.07.45.45,0,0,1-.11-.19A.71.71,0,0,1,248,118Zm.89-.52a.36.36,0,0,0,0-.11.18.18,0,0,0,0-.07.11.11,0,0,0-.08,0,.16.16,0,0,0-.09,0l-.09.07a1,1,0,0,0-.08.11.61.61,0,0,0-.05.12.68.68,0,0,0,0,.14.36.36,0,0,0,0,.11.18.18,0,0,0,.05.07.11.11,0,0,0,.08,0,.16.16,0,0,0,.09,0l.09-.07a.44.44,0,0,0,.08-.11.61.61,0,0,0,0-.12.68.68,0,0,0,0-.14Z"/><path class="cls-3" d="M250.15,115.86a.55.55,0,0,1,.28-.09.25.25,0,0,1,.2.09.46.46,0,0,1,.12.23,1.12,1.12,0,0,1,0,.32c0,.1,0,.2,0,.31a2.81,2.81,0,0,1,0,.3,2.33,2.33,0,0,1,0,.38,2.29,2.29,0,0,1-.12.37,1.27,1.27,0,0,1-.2.31.92.92,0,0,1-.28.24.52.52,0,0,1-.29.09.28.28,0,0,1-.2-.08.57.57,0,0,1-.12-.23,1.86,1.86,0,0,1,0-.33,2.81,2.81,0,0,1,0-.3c0-.11,0-.21,0-.31a2.45,2.45,0,0,1,0-.38,2.53,2.53,0,0,1,.12-.36,1.55,1.55,0,0,1,.2-.32A1.13,1.13,0,0,1,250.15,115.86Zm.23,1.38a5.42,5.42,0,0,0,0-.57.76.76,0,0,0,0-.15.3.3,0,0,0,0-.1.08.08,0,0,0-.07,0,.14.14,0,0,0-.11,0,.24.24,0,0,0-.11.09.35.35,0,0,0-.08.13c0,.05,0,.1,0,.15s0,.11,0,.16a5.61,5.61,0,0,0,0,.58.61.61,0,0,0,0,.14.36.36,0,0,0,0,.11.12.12,0,0,0,.08,0,.19.19,0,0,0,.11,0,.31.31,0,0,0,.11-.09.75.75,0,0,0,.07-.12.83.83,0,0,0,0-.15,1,1,0,0,0,0-.17Z"/><path class="cls-3" d="M251.68,115.48a1.13,1.13,0,0,1,0,.26,1.36,1.36,0,0,1,0,.2,1.07,1.07,0,0,1-.07.19.62.62,0,0,1-.11.17.44.44,0,0,1-.15.12.25.25,0,0,1-.15,0,.12.12,0,0,1-.1,0,.24.24,0,0,1-.07-.12l0-.17v-.26l0-.21c0-.06,0-.12.07-.19a.54.54,0,0,1,.1-.16.93.93,0,0,1,.15-.13.44.44,0,0,1,.15,0,.16.16,0,0,1,.11,0,.41.41,0,0,1,.07.11A1.1,1.1,0,0,1,251.68,115.48Zm.56-.73s0,0,0-.06a.12.12,0,0,1,0,0l.18-.1h0a.09.09,0,0,1,0,0h0a0,0,0,0,1,0,0l-1.09,2.85a.16.16,0,0,1,0,.07.08.08,0,0,1,0,0l-.19.11a0,0,0,0,1,0,0s0,0,0,0v0s0,0,0,0Zm-1,1.22a.21.21,0,0,0,0,.12s0,0,.06,0a.13.13,0,0,0,.07-.08.77.77,0,0,0,0-.15.89.89,0,0,0,0-.23.25.25,0,0,0,0-.12s0,0-.07,0a.16.16,0,0,0-.06.08.4.4,0,0,0,0,.15V116Zm1.47.11a1.13,1.13,0,0,1,0,.26,1.23,1.23,0,0,1,0,.2,1.07,1.07,0,0,1-.07.19.62.62,0,0,1-.11.17.44.44,0,0,1-.15.12.25.25,0,0,1-.15,0,.1.1,0,0,1-.1,0,.19.19,0,0,1-.07-.11l0-.18v-.26l0-.2a1.07,1.07,0,0,1,.07-.19.59.59,0,0,1,.1-.17.93.93,0,0,1,.15-.13.42.42,0,0,1,.15,0,.12.12,0,0,1,.11,0,.23.23,0,0,1,.06.12.47.47,0,0,1,0,.17Zm-.44.5a.27.27,0,0,0,0,.12s0,0,.06,0a.13.13,0,0,0,.07-.08.77.77,0,0,0,0-.15.88.88,0,0,0,0-.23.2.2,0,0,0,0-.11s0,0-.07,0a.16.16,0,0,0-.06.08.4.4,0,0,0,0,.15v.23Z"/><path class="cls-3" d="M250.37,111.3v-1.92a8.36,8.36,0,0,0-2.8,3l.73,1.13A6.15,6.15,0,0,1,250.37,111.3Z"/><path class="cls-3" d="M254.9,111.84a4,4,0,0,0-1.73-2.67,2.78,2.78,0,0,0-2.8.21v1.92a2.06,2.06,0,0,1,2.06-.16,3,3,0,0,1,1.29,2,7.64,7.64,0,0,1,.17,1.58,9.56,9.56,0,0,1-.17,1.77,10.83,10.83,0,0,1-1.28,3.44,6.27,6.27,0,0,1-2.07,2.24,2.07,2.07,0,0,1-2.07.16,2.91,2.91,0,0,1-1.28-2,6.48,6.48,0,0,1-.17-1.58A9.56,9.56,0,0,1,247,117a11,11,0,0,1,1.28-3.45l-.73-1.13a14.55,14.55,0,0,0-1.73,4.67,12.93,12.93,0,0,0-.24,2.4,9,9,0,0,0,.24,2.13,3.88,3.88,0,0,0,1.73,2.67,2.79,2.79,0,0,0,2.8-.21,8.45,8.45,0,0,0,2.8-3h0a14.79,14.79,0,0,0,1.73-4.67,12.92,12.92,0,0,0,.23-2.4A9,9,0,0,0,254.9,111.84Z"/><path class="cls-3" d="M262.24,106.59l22.21-12.82c.59-.34,1.08-.1,1.08.55a2.36,2.36,0,0,1-1.08,1.8l-22.21,12.82c-.6.34-1.08.1-1.08-.55A2.3,2.3,0,0,1,262.24,106.59Z"/><path class="cls-10" d="M262.24,111.32l38.45-22.2c.6-.34,1.09-.1,1.09.55a2.33,2.33,0,0,1-1.09,1.8l-38.45,22.19c-.6.35-1.08.1-1.08-.54A2.3,2.3,0,0,1,262.24,111.32Z"/><path class="cls-3" d="M169.52,183.62l15.58-9c.6-.34,1.08-.1,1.08.55a2.34,2.34,0,0,1-1.08,1.8l-15.58,9c-.6.34-1.08.1-1.08-.55A2.3,2.3,0,0,1,169.52,183.62Z"/><path class="cls-10" d="M314.36,105.82v119a1.43,1.43,0,0,1-.58,1L162,313.42v-119a1.42,1.42,0,0,1,.59-1l1.89-1.1a3.4,3.4,0,0,0,1.59-2.74v-6.88a1.43,1.43,0,0,1,.58-1l21.79-12.57v6.39a1.64,1.64,0,0,0,1.49,1.77H190a1.92,1.92,0,0,0,1-.28l123.34-71.21m.4-1.25a.9.9,0,0,0-.48.14L190.52,176.17a.92.92,0,0,1-.48.14c-.36,0-.6-.28-.6-.77v-6.88c0-.49-.25-.77-.6-.77a1,1,0,0,0-.49.14l-22.2,12.83a2.37,2.37,0,0,0-1.08,1.87v6.88a2.44,2.44,0,0,1-1.09,1.88l-1.89,1.09a2.41,2.41,0,0,0-1.09,1.88V313.91c0,.49.25.77.6.77a1,1,0,0,0,.49-.15l152.19-87.86a2.4,2.4,0,0,0,1.08-1.88V105.34c0-.49-.24-.77-.6-.77Z"/><path class="cls-10" d="M170.79,199.65a1.08,1.08,0,0,1-.53-.14,1.26,1.26,0,0,1-.57-1.13v-4.54a2.93,2.93,0,0,1,1.33-2.31l12.07-6.95a1.15,1.15,0,0,1,1.62.23,1.19,1.19,0,0,1,.22.82v4.54a2.91,2.91,0,0,1-1.34,2.31l-12.07,7A1.55,1.55,0,0,1,170.79,199.65Zm.73-7.25a1.91,1.91,0,0,0-.83,1.44v4.54a.4.4,0,0,0,.07.27.36.36,0,0,0,.26-.08l12.07-7a1.9,1.9,0,0,0,.84-1.44v-4.54c0-.17-.05-.25-.07-.26s-.12,0-.27.07Z"/><path class="cls-10" d="M172.24,194.27l7.87-4.57c.4-.23.72-.06.72.37a1.58,1.58,0,0,1-.72,1.2l-7.87,4.56c-.4.23-.72.07-.72-.36A1.55,1.55,0,0,1,172.24,194.27Z"/><path class="cls-3" d="M181.94,189l.65.92s.07,0,.1-.06l.65-1.67c0-.08,0-.16-.05-.13l-1.3.75A.16.16,0,0,0,181.94,189Z"/><path class="cls-3" d="M169.13,243.6c.57-.34,1-.07,1,.6a2.33,2.33,0,0,1-1,1.81c-.58.33-1,.06-1-.61A2.29,2.29,0,0,1,169.13,243.6Z"/><path class="cls-3" d="M177.25,234.22c.58-.34,1.05-.07,1.05.6a2.33,2.33,0,0,1-1.05,1.81c-.57.33-1,.06-1-.61A2.31,2.31,0,0,1,177.25,234.22Z"/><path class="cls-3" d="M185.38,229.53c.57-.34,1-.07,1,.6a2.34,2.34,0,0,1-1,1.81c-.58.33-1,.06-1-.61A2.29,2.29,0,0,1,185.38,229.53Z"/><path class="cls-3" d="M193.5,226.89c.58-.33,1-.06,1,.61a2.32,2.32,0,0,1-1,1.81c-.58.33-1,.06-1-.61A2.32,2.32,0,0,1,193.5,226.89Z"/><path class="cls-3" d="M201.63,218.45c.58-.33,1.05-.06,1.05.6a2.3,2.3,0,0,1-1.05,1.81c-.57.33-1,.06-1-.6A2.31,2.31,0,0,1,201.63,218.45Z"/><path class="cls-3" d="M209.75,215.45c.57-.33,1-.06,1,.61a2.31,2.31,0,0,1-1,1.8c-.58.34-1.05.07-1.05-.6A2.33,2.33,0,0,1,209.75,215.45Z"/><path class="cls-3" d="M217.87,206.07c.58-.33,1-.06,1,.6a2.29,2.29,0,0,1-1,1.81c-.58.34-1,.07-1-.6A2.3,2.3,0,0,1,217.87,206.07Z"/><path class="cls-3" d="M226,203.73c.57-.34,1-.07,1,.6a2.31,2.31,0,0,1-1,1.81c-.58.33-1.05.06-1.05-.6A2.3,2.3,0,0,1,226,203.73Z"/><path class="cls-3" d="M234.12,177.93c.58-.33,1-.06,1,.6a2.29,2.29,0,0,1-1,1.81c-.58.33-1,.06-1-.6A2.29,2.29,0,0,1,234.12,177.93Z"/><path class="cls-3" d="M242.24,192c.58-.33,1-.06,1,.6a2.3,2.3,0,0,1-1,1.81c-.57.34-1,.07-1-.6A2.31,2.31,0,0,1,242.24,192Z"/><path class="cls-3" d="M250.37,192c.57-.33,1-.06,1,.6a2.31,2.31,0,0,1-1,1.81c-.58.34-1.05.07-1.05-.6A2.3,2.3,0,0,1,250.37,192Z"/><path class="cls-3" d="M258.49,192c.58-.33,1.05-.06,1.05.6a2.3,2.3,0,0,1-1.05,1.81c-.57.34-1,.07-1-.6A2.33,2.33,0,0,1,258.49,192Z"/><path class="cls-3" d="M266.62,177.93c.57-.33,1-.06,1,.6a2.31,2.31,0,0,1-1,1.81c-.58.33-1.05.06-1.05-.6A2.3,2.3,0,0,1,266.62,177.93Z"/><path class="cls-3" d="M274.74,175.23c.58-.33,1-.06,1,.61a2.32,2.32,0,0,1-1,1.81c-.58.33-1,.06-1-.61A2.32,2.32,0,0,1,274.74,175.23Z"/><path class="cls-3" d="M282.89,163.86c.58-.33,1.05-.06,1.05.6a2.3,2.3,0,0,1-1.05,1.81c-.57.33-1,.06-1-.6A2.31,2.31,0,0,1,282.89,163.86Z"/><ellipse class="cls-3" cx="290.99" cy="165.06" rx="1.48" ry="0.85" transform="translate(2.55 334.55) rotate(-60)"/><ellipse class="cls-3" cx="299.11" cy="165.06" rx="1.48" ry="0.85" transform="translate(6.62 341.59) rotate(-60)"/><path class="cls-3" d="M307.24,159.17c.57-.33,1-.06,1,.6a2.31,2.31,0,0,1-1,1.81c-.58.33-1.05.06-1.05-.6A2.3,2.3,0,0,1,307.24,159.17Z"/><path class="cls-3" d="M169.11,245.06a.25.25,0,0,1-.19-.41l8.2-9.43.06-.05,8.07-4.66,8.11-2.63,8.08-8.4a.21.21,0,0,1,.1-.06l8.06-3,8.08-9.34a.37.37,0,0,1,.12-.07l8-2.31,8.08-25.67a.25.25,0,0,1,.21-.17.27.27,0,0,1,.25.12l8,14h16l8-14a.26.26,0,0,1,.14-.11l8-2.67,8.08-11.31a.24.24,0,0,1,.2-.11H299l8.07-4.65a.25.25,0,0,1,.25.43l-8.12,4.69a.28.28,0,0,1-.13,0H283l-8.05,11.28a.27.27,0,0,1-.12.09l-8,2.66-8.07,14a.26.26,0,0,1-.22.13H242.24a.23.23,0,0,1-.21-.13l-7.84-13.58-8,25.26a.22.22,0,0,1-.16.16L218,207.5l-8.07,9.32a.19.19,0,0,1-.11.07l-8.07,3-8.08,8.4a.23.23,0,0,1-.1.07L185.45,231l-8,4.61-8.18,9.4A.23.23,0,0,1,169.11,245.06Z"/><path class="cls-18" d="M169.13,250a.5.5,0,0,1-.5-.5.48.48,0,0,1,.25-.43L307,169.32a.51.51,0,0,1,.68.19.51.51,0,0,1-.18.68L169.38,249.93A.54.54,0,0,1,169.13,250Z"/><path class="cls-18" d="M169.13,238.91c.57-.34,1-.07,1,.6a2.34,2.34,0,0,1-1,1.81c-.58.33-1,.06-1-.61A2.29,2.29,0,0,1,169.13,238.91Z"/><path class="cls-18" d="M177.25,224.83c.58-.33,1.05-.06,1.05.61a2.33,2.33,0,0,1-1.05,1.81c-.58.33-1,.06-1-.61A2.32,2.32,0,0,1,177.25,224.83Z"/><ellipse class="cls-18" cx="185.38" cy="224.28" rx="1.48" ry="0.85" transform="translate(-101.55 272.7) rotate(-60)"/><path class="cls-18" d="M193.5,206.07c.58-.33,1-.06,1,.6a2.29,2.29,0,0,1-1,1.81c-.58.34-1,.07-1-.6A2.3,2.3,0,0,1,193.5,206.07Z"/><path class="cls-18" d="M201.63,210.76c.58-.33,1.05-.06,1.05.61a2.29,2.29,0,0,1-1.05,1.8c-.57.34-1,.07-1-.6A2.34,2.34,0,0,1,201.63,210.76Z"/><path class="cls-18" d="M209.75,208.42c.58-.33,1-.06,1,.6a2.29,2.29,0,0,1-1,1.81c-.58.33-1,.06-1-.6A2.29,2.29,0,0,1,209.75,208.42Z"/><path class="cls-18" d="M217.87,201.38c.58-.33,1-.06,1,.61a2.28,2.28,0,0,1-1,1.8c-.58.34-1,.07-1-.6A2.3,2.3,0,0,1,217.87,201.38Z"/><path class="cls-18" d="M226,192c.57-.33,1-.06,1,.6a2.31,2.31,0,0,1-1,1.81c-.58.34-1.05.07-1.05-.6A2.3,2.3,0,0,1,226,192Z"/><path class="cls-18" d="M234.12,189.66c.58-.34,1-.07,1,.6a2.3,2.3,0,0,1-1,1.81c-.58.33-1,.06-1-.61A2.28,2.28,0,0,1,234.12,189.66Z"/><path class="cls-18" d="M242.24,182.62c.58-.33,1-.06,1,.6a2.3,2.3,0,0,1-1,1.81c-.57.33-1,.06-1-.6A2.31,2.31,0,0,1,242.24,182.62Z"/><path class="cls-18" d="M250.37,182.62c.57-.33,1-.06,1,.6a2.31,2.31,0,0,1-1,1.81c-.58.33-1.05.06-1.05-.6A2.3,2.3,0,0,1,250.37,182.62Z"/><path class="cls-18" d="M258.49,163.86c.58-.33,1.05-.06,1.05.6a2.3,2.3,0,0,1-1.05,1.81c-.57.33-1,.06-1-.6A2.31,2.31,0,0,1,258.49,163.86Z"/><path class="cls-18" d="M266.62,173.17c.57-.33,1-.06,1,.61a2.31,2.31,0,0,1-1,1.8c-.58.34-1.05.07-1.05-.6A2.33,2.33,0,0,1,266.62,173.17Z"/><path class="cls-18" d="M274.74,163.86c.58-.33,1-.06,1,.6a2.29,2.29,0,0,1-1,1.81c-.58.33-1,.06-1-.6A2.29,2.29,0,0,1,274.74,163.86Z"/><path class="cls-18" d="M282.86,159.17c.58-.33,1.05-.06,1.05.6a2.3,2.3,0,0,1-1.05,1.81c-.57.33-1,.06-1-.6A2.31,2.31,0,0,1,282.86,159.17Z"/><path class="cls-18" d="M291,159.17c.57-.33,1-.06,1,.6a2.31,2.31,0,0,1-1,1.81c-.58.33-1.05.06-1.05-.6A2.3,2.3,0,0,1,291,159.17Z"/><path class="cls-18" d="M299.11,154.48c.58-.33,1.05-.06,1.05.6a2.3,2.3,0,0,1-1.05,1.81c-.57.33-1,.06-1-.6A2.31,2.31,0,0,1,299.11,154.48Z"/><path class="cls-18" d="M307.24,154.48c.57-.33,1-.06,1,.6a2.31,2.31,0,0,1-1,1.81c-.58.33-1.05.06-1.05-.6A2.3,2.3,0,0,1,307.24,154.48Z"/><path class="cls-18" d="M169.13,240.36a.28.28,0,0,1-.13,0,.25.25,0,0,1-.09-.34h0l8.18-14.11a.3.3,0,0,1,.17-.12l7.94-1.69,8.07-16.9a.26.26,0,0,1,.34-.12h0l8,4.64,8-2.3,8.07-7,8.11-9.37a.24.24,0,0,1,.12-.07l8.07-2.33,8.08-7a.25.25,0,0,1,.16-.06h8L258.26,165a.26.26,0,0,1,.33-.14.22.22,0,0,1,.09.07l7.94,9.16,7.93-9.16a.18.18,0,0,1,.07-.05l8.15-4.71.12,0H291l8-4.64a.28.28,0,0,1,.12,0h8.13a.25.25,0,0,1,.25.25.25.25,0,0,1-.25.25h-8.06l-8,4.64a.19.19,0,0,1-.12,0H283l-8.06,4.65-8.09,9.35a.27.27,0,0,1-.37,0h0l-7.87-9.08-8,18.4a.25.25,0,0,1-.23.15h-8l-8.06,7-.09,0-8.05,2.33-8.09,9.33-8.14,7.05a.2.2,0,0,1-.09.05l-8.12,2.35a.25.25,0,0,1-.19,0l-7.9-4.56-8,16.76a.26.26,0,0,1-.17.14l-8,1.7-8.13,14A.24.24,0,0,1,169.13,240.36Z"/><g class="cls-20"><path class="cls-18" d="M169.13,238.91c.57-.34,1-.07,1,.6a2.34,2.34,0,0,1-1,1.81c-.58.33-1,.06-1-.61A2.29,2.29,0,0,1,169.13,238.91Z"/><path class="cls-18" d="M177.25,224.83c.58-.33,1.05-.06,1.05.61a2.33,2.33,0,0,1-1.05,1.81c-.58.33-1,.06-1-.61A2.32,2.32,0,0,1,177.25,224.83Z"/><ellipse class="cls-18" cx="185.38" cy="224.28" rx="1.48" ry="0.85" transform="translate(-101.55 272.7) rotate(-60)"/><path class="cls-18" d="M193.5,206.07c.58-.33,1-.06,1,.6a2.29,2.29,0,0,1-1,1.81c-.58.34-1,.07-1-.6A2.3,2.3,0,0,1,193.5,206.07Z"/><path class="cls-18" d="M201.63,210.76c.58-.33,1.05-.06,1.05.61a2.29,2.29,0,0,1-1.05,1.8c-.57.34-1,.07-1-.6A2.34,2.34,0,0,1,201.63,210.76Z"/><path class="cls-18" d="M209.75,208.42c.58-.33,1-.06,1,.6a2.29,2.29,0,0,1-1,1.81c-.58.33-1,.06-1-.6A2.29,2.29,0,0,1,209.75,208.42Z"/><path class="cls-18" d="M217.87,201.38c.58-.33,1-.06,1,.61a2.28,2.28,0,0,1-1,1.8c-.58.34-1,.07-1-.6A2.3,2.3,0,0,1,217.87,201.38Z"/><path class="cls-18" d="M226,192c.57-.33,1-.06,1,.6a2.31,2.31,0,0,1-1,1.81c-.58.34-1.05.07-1.05-.6A2.3,2.3,0,0,1,226,192Z"/><path class="cls-18" d="M234.12,189.66c.58-.34,1-.07,1,.6a2.3,2.3,0,0,1-1,1.81c-.58.33-1,.06-1-.61A2.28,2.28,0,0,1,234.12,189.66Z"/><path class="cls-18" d="M242.24,182.62c.58-.33,1-.06,1,.6a2.3,2.3,0,0,1-1,1.81c-.57.33-1,.06-1-.6A2.31,2.31,0,0,1,242.24,182.62Z"/><path class="cls-18" d="M250.37,182.62c.57-.33,1-.06,1,.6a2.31,2.31,0,0,1-1,1.81c-.58.33-1.05.06-1.05-.6A2.3,2.3,0,0,1,250.37,182.62Z"/><path class="cls-18" d="M258.49,163.86c.58-.33,1.05-.06,1.05.6a2.3,2.3,0,0,1-1.05,1.81c-.57.33-1,.06-1-.6A2.31,2.31,0,0,1,258.49,163.86Z"/><path class="cls-18" d="M266.62,173.17c.57-.33,1-.06,1,.61a2.31,2.31,0,0,1-1,1.8c-.58.34-1.05.07-1.05-.6A2.33,2.33,0,0,1,266.62,173.17Z"/><path class="cls-18" d="M274.74,163.86c.58-.33,1-.06,1,.6a2.29,2.29,0,0,1-1,1.81c-.58.33-1,.06-1-.6A2.29,2.29,0,0,1,274.74,163.86Z"/><path class="cls-18" d="M282.86,159.17c.58-.33,1.05-.06,1.05.6a2.3,2.3,0,0,1-1.05,1.81c-.57.33-1,.06-1-.6A2.31,2.31,0,0,1,282.86,159.17Z"/><path class="cls-18" d="M291,159.17c.57-.33,1-.06,1,.6a2.31,2.31,0,0,1-1,1.81c-.58.33-1.05.06-1.05-.6A2.3,2.3,0,0,1,291,159.17Z"/><path class="cls-18" d="M299.11,154.48c.58-.33,1.05-.06,1.05.6a2.3,2.3,0,0,1-1.05,1.81c-.57.33-1,.06-1-.6A2.31,2.31,0,0,1,299.11,154.48Z"/><path class="cls-18" d="M307.24,154.48c.57-.33,1-.06,1,.6a2.31,2.31,0,0,1-1,1.81c-.58.33-1.05.06-1.05-.6A2.3,2.3,0,0,1,307.24,154.48Z"/><path class="cls-18" d="M169.13,240.36a.28.28,0,0,1-.13,0,.25.25,0,0,1-.09-.34h0l8.18-14.11a.3.3,0,0,1,.17-.12l7.94-1.69,8.07-16.9a.26.26,0,0,1,.34-.12h0l8,4.64,8-2.3,8.07-7,8.11-9.37a.24.24,0,0,1,.12-.07l8.07-2.33,8.08-7a.25.25,0,0,1,.16-.06h8L258.26,165a.26.26,0,0,1,.33-.14.22.22,0,0,1,.09.07l7.94,9.16,7.93-9.16a.18.18,0,0,1,.07-.05l8.15-4.71.12,0H291l8-4.64a.28.28,0,0,1,.12,0h8.13a.25.25,0,0,1,.25.25.25.25,0,0,1-.25.25h-8.06l-8,4.64a.19.19,0,0,1-.12,0H283l-8.06,4.65-8.09,9.35a.27.27,0,0,1-.37,0h0l-7.87-9.08-8,18.4a.25.25,0,0,1-.23.15h-8l-8.06,7-.09,0-8.05,2.33-8.09,9.33-8.14,7.05a.2.2,0,0,1-.09.05l-8.12,2.35a.25.25,0,0,1-.19,0l-7.9-4.56-8,16.76a.26.26,0,0,1-.17.14l-8,1.7-8.13,14A.24.24,0,0,1,169.13,240.36Z"/></g><path class="cls-18" d="M173.38,204.1l7.87-4.56c.4-.23.72-.07.72.36a1.55,1.55,0,0,1-.72,1.2l-7.87,4.56c-.4.23-.72.07-.72-.36A1.58,1.58,0,0,1,173.38,204.1Z"/><path class="cls-18" d="M169.13,206.07c.57-.33,1-.06,1,.61a2.31,2.31,0,0,1-1,1.8c-.58.34-1,.07-1-.6A2.31,2.31,0,0,1,169.13,206.07Z"/><path class="cls-21" d="M169.13,206.07c.57-.33,1-.06,1,.61a2.31,2.31,0,0,1-1,1.8c-.58.34-1,.07-1-.6A2.31,2.31,0,0,1,169.13,206.07Z"/><path class="cls-18" d="M173.38,208.78l7.87-4.57c.4-.23.72-.06.72.37a1.55,1.55,0,0,1-.72,1.2l-7.87,4.56c-.4.23-.72.07-.72-.36A1.58,1.58,0,0,1,173.38,208.78Z"/><path class="cls-18" d="M169.13,210.76c.57-.33,1-.06,1,.61a2.31,2.31,0,0,1-1,1.8c-.58.34-1,.07-1-.6A2.33,2.33,0,0,1,169.13,210.76Z"/><path class="cls-3" d="M169.13,273.26a.25.25,0,0,1-.25-.25.23.23,0,0,1,.07-.17l4.12-4.24,4.05-.51,4.08-5.28,4.09.56,4-3.59,4.06-2.43,4.13-5.74,4.11,1.29,4-3.53a.25.25,0,0,1,.35,0,.25.25,0,0,1,0,.36l-4.16,3.71-4-1.26-4,5.55-4.06,2.43-4.11,3.72-4-.56-4,5.22-4.08.51-4,4.12A.29.29,0,0,1,169.13,273.26Z"/><path class="cls-3" d="M170.73,259.54l.11-.09a.41.41,0,0,1,.11-.07,1.1,1.1,0,0,1,.61-.19.73.73,0,0,1,.49.19,1.14,1.14,0,0,1,.32.51,2.72,2.72,0,0,1,.12.8,3.73,3.73,0,0,1-.12.94,4,4,0,0,1-.32.88,3.34,3.34,0,0,1-.49.75,2.38,2.38,0,0,1-.61.53,1.24,1.24,0,0,1-.62.18.74.74,0,0,1-.49-.18,1.17,1.17,0,0,1-.32-.52,2.42,2.42,0,0,1-.11-.8,3.12,3.12,0,0,1,0-.52,2.73,2.73,0,0,1,.1-.48c0-.16.09-.32.14-.47l.15-.44,1.08-3.07c0-.05.05-.1.07-.16a.25.25,0,0,1,.12-.13l.34-.2a.05.05,0,0,1,.08,0h0a.19.19,0,0,1,0,.12s0,.06,0,.08a.14.14,0,0,0,0,.06Zm-.76,2.6a1.61,1.61,0,0,0,.07.49.8.8,0,0,0,.19.32.48.48,0,0,0,.31.13A.75.75,0,0,0,171,263a1.48,1.48,0,0,0,.4-.35,1.88,1.88,0,0,0,.31-.48,2.76,2.76,0,0,0,.19-.55,2.1,2.1,0,0,0,.07-.56,1.55,1.55,0,0,0-.07-.48.69.69,0,0,0-.19-.33.44.44,0,0,0-.31-.13.72.72,0,0,0-.4.12,1.39,1.39,0,0,0-.41.35,3,3,0,0,0-.31.48,3.58,3.58,0,0,0-.19.55A2.77,2.77,0,0,0,170,262.14Z"/><path class="cls-3" d="M173.5,260.68a1.13,1.13,0,0,0,.08.24.37.37,0,0,0,.16.17.45.45,0,0,0,.28,0,1.52,1.52,0,0,0,.46-.18,1.87,1.87,0,0,0,.35-.28,1.82,1.82,0,0,0,.29-.38,2,2,0,0,0,.2-.48,1.76,1.76,0,0,0,.07-.56,1,1,0,0,0-.07-.45.35.35,0,0,0-.19-.22.41.41,0,0,0-.29,0,1.14,1.14,0,0,0-.36.15L174,259a.1.1,0,0,1-.12,0,.27.27,0,0,1-.05-.15v-.33a.53.53,0,0,1,0-.17l.06-.16,1.07-2.39-1.71,1a.11.11,0,0,1-.12,0,.19.19,0,0,1,0-.15v-.33a.48.48,0,0,1,0-.2.53.53,0,0,1,.12-.14l2.34-1.35a.09.09,0,0,1,.11,0,.2.2,0,0,1,.05.15v.33a.47.47,0,0,1,0,.17,1.19,1.19,0,0,1-.08.2l-1,2.35a1.48,1.48,0,0,1,.54-.17.65.65,0,0,1,.43.13,1,1,0,0,1,.27.43,2.16,2.16,0,0,1,.1.72,3.42,3.42,0,0,1-.12.9,3.34,3.34,0,0,1-.32.81,3,3,0,0,1-.47.66,2.6,2.6,0,0,1-.57.47,1.69,1.69,0,0,1-.69.25.66.66,0,0,1-.47-.1.71.71,0,0,1-.28-.36,1.39,1.39,0,0,1-.1-.53.35.35,0,0,1,0-.17.31.31,0,0,1,.09-.11l.27-.16a.11.11,0,0,1,.11,0A.37.37,0,0,1,173.5,260.68Z"/><path class="cls-3" d="M177,258.63a1.06,1.06,0,0,0,.09.25.37.37,0,0,0,.16.17.45.45,0,0,0,.28,0,1.32,1.32,0,0,0,.46-.19,1.73,1.73,0,0,0,.35-.27,1.82,1.82,0,0,0,.29-.38,2.55,2.55,0,0,0,.2-.48,2.1,2.1,0,0,0,.07-.56,1.23,1.23,0,0,0-.07-.46.39.39,0,0,0-.19-.21.42.42,0,0,0-.29,0,1.14,1.14,0,0,0-.36.15l-.5.28a.08.08,0,0,1-.11,0,.21.21,0,0,1,0-.15v-.33a.47.47,0,0,1,0-.17l.07-.16,1.07-2.39-1.72,1a.09.09,0,0,1-.11,0,.27.27,0,0,1,0-.15v-.33a.46.46,0,0,1,0-.2.3.3,0,0,1,.11-.14l2.35-1.35a.08.08,0,0,1,.11,0,.24.24,0,0,1,0,.14V253a.57.57,0,0,1,0,.18,1.67,1.67,0,0,1-.08.2l-1.05,2.35a1.27,1.27,0,0,1,.54-.17.64.64,0,0,1,.42.13,1,1,0,0,1,.28.43,2.46,2.46,0,0,1,.1.72,3.42,3.42,0,0,1-.12.9,4,4,0,0,1-.32.81,3.43,3.43,0,0,1-.47.66,2.85,2.85,0,0,1-.57.47,1.74,1.74,0,0,1-.69.25.73.73,0,0,1-.48-.1.77.77,0,0,1-.28-.36,1.6,1.6,0,0,1-.09-.53.47.47,0,0,1,0-.17.35.35,0,0,1,.1-.11l.27-.16a.09.09,0,0,1,.1,0A.16.16,0,0,1,177,258.63Z"/><path class="cls-10" d="M169.86,276.49,205,256.15c.4-.23.73-.07.73.36a1.55,1.55,0,0,1-.73,1.2l-35.1,20.34c-.4.23-.72.07-.72-.36A1.58,1.58,0,0,1,169.86,276.49Z"/><path class="cls-10" d="M169.86,253l7.87-4.57c.4-.23.72-.07.72.37a1.54,1.54,0,0,1-.72,1.19l-7.87,4.57c-.4.23-.72.07-.72-.37A1.56,1.56,0,0,1,169.86,253Z"/><path class="cls-3" d="M169.13,301.38a.25.25,0,0,1-.25-.25A.22.22,0,0,1,169,301l4.12-4.24,4.07-.52,4.11-3.58,3.95-1.08,4.13-8.21,4.13,2,4-3.51h.06l4-.75,4-6.92a.25.25,0,1,1,.43.25h0l-4.11,7.12-4.11.78L193.54,286l-4-1.95-4,8-4.11,1.12-4.08,3.6-4.05.51-4,4.11A.25.25,0,0,1,169.13,301.38Z"/><g class="cls-20"><path d="M169.13,301.38a.25.25,0,0,1-.25-.25A.22.22,0,0,1,169,301l4.12-4.24,4.07-.52,4.11-3.58,3.95-1.08,4.13-8.21,4.13,2,4-3.51h.06l4-.75,4-6.92a.25.25,0,1,1,.43.25h0l-4.11,7.12-4.11.78L193.54,286l-4-1.95-4,8-4.11,1.12-4.08,3.6-4.05.51-4,4.11A.25.25,0,0,1,169.13,301.38Z"/></g><path class="cls-3" d="M171.2,291.42a.45.45,0,0,1,0,.2.33.33,0,0,1-.12.14l-.24.14a.08.08,0,0,1-.11,0,.16.16,0,0,1-.05-.14V286.7l-1,1.68a.3.3,0,0,1-.12.13.11.11,0,0,1-.11,0l-.14-.2a.33.33,0,0,1,0-.17.48.48,0,0,1,.07-.2l1.27-2.23a.38.38,0,0,1,.09-.12l.1-.07.24-.14a.1.1,0,0,1,.12,0,.19.19,0,0,1,0,.15Z"/><path class="cls-3" d="M173.8,286.8a3.81,3.81,0,0,0,.27-.66,2.84,2.84,0,0,0,.09-.72,1.08,1.08,0,0,0-.19-.7c-.12-.15-.31-.14-.58,0a1.64,1.64,0,0,0-.35.29,2.06,2.06,0,0,0-.25.4,3.39,3.39,0,0,0-.15.45,4,4,0,0,0-.09.48.44.44,0,0,1-.07.19.24.24,0,0,1-.09.11l-.27.16a.06.06,0,0,1-.09,0,.13.13,0,0,1,0-.12,3.07,3.07,0,0,1,.1-.74,3.69,3.69,0,0,1,.27-.79,3.75,3.75,0,0,1,.44-.72,2,2,0,0,1,.59-.52,1,1,0,0,1,.58-.18.59.59,0,0,1,.41.18,1.07,1.07,0,0,1,.26.48,2.42,2.42,0,0,1,.08.71,4.89,4.89,0,0,1,0,.54,2.71,2.71,0,0,1-.1.51,3.16,3.16,0,0,1-.17.52c-.07.18-.16.36-.26.56l-1.33,2.67,1.82-1a.09.09,0,0,1,.11,0,.17.17,0,0,1,.05.15v.33a.46.46,0,0,1-.05.2.36.36,0,0,1-.11.14l-2.56,1.47a.08.08,0,0,1-.11,0,.17.17,0,0,1,0-.15v-.33a.63.63,0,0,1,0-.19,1.6,1.6,0,0,1,.1-.23Z"/><path class="cls-3" d="M178.5,283.48c0,.27,0,.53,0,.77s0,.5,0,.78a5.33,5.33,0,0,1-.1,1.05,4,4,0,0,1-.27,1,3.81,3.81,0,0,1-.47.8,2.34,2.34,0,0,1-.67.58,1.26,1.26,0,0,1-.68.2.67.67,0,0,1-.46-.27,1.48,1.48,0,0,1-.28-.64,4.14,4.14,0,0,1-.1-.93v-1.55a6.22,6.22,0,0,1,.1-1.05,4.59,4.59,0,0,1,.28-1,3,3,0,0,1,.46-.8,2.39,2.39,0,0,1,.68-.59,1.07,1.07,0,0,1,.67-.19.66.66,0,0,1,.47.26,1.51,1.51,0,0,1,.27.64A4.29,4.29,0,0,1,178.5,283.48Zm-2.47,3a1.87,1.87,0,0,0,.25,1.13c.16.18.4.18.71,0a1.63,1.63,0,0,0,.7-.81,3.69,3.69,0,0,0,.25-1.43c0-.28,0-.54,0-.78s0-.49,0-.77a1.91,1.91,0,0,0-.25-1.14c-.16-.18-.39-.19-.7,0a1.7,1.7,0,0,0-.71.83,3.85,3.85,0,0,0-.25,1.43c0,.27,0,.53,0,.78S176,286.18,176,286.46Z"/><path class="cls-10" d="M169.86,304.61,205,284.27c.4-.23.73-.07.73.36a1.56,1.56,0,0,1-.73,1.2l-35.1,20.34c-.4.23-.72.07-.72-.36A1.58,1.58,0,0,1,169.86,304.61Z"/><path class="cls-10" d="M169.86,281.14l7.87-4.56c.4-.23.72-.07.72.36a1.54,1.54,0,0,1-.72,1.2l-7.87,4.57c-.4.23-.72.06-.72-.37A1.6,1.6,0,0,1,169.86,281.14Z"/><path class="cls-3" d="M217.87,245.06a.25.25,0,0,1-.25-.25.24.24,0,0,1,.1-.19l4.06-3.24,4.09-4.68,4.15-.6,4-.89,4.1-4.85,4,.72,4-6.42,4.11.07,4-3.56a.25.25,0,0,1,.34.38h0l-4.13,3.68-4-.06-4.07,6.46-4.09-.73-4,4.76-4.15.93-4,.58-4,4.57L218,245A.3.3,0,0,1,217.87,245.06Z"/><path class="cls-3" d="M219.48,231.34l.1-.09.11-.07a1.16,1.16,0,0,1,.62-.19.71.71,0,0,1,.48.19,1.25,1.25,0,0,1,.33.51,2.42,2.42,0,0,1,.11.8,4.24,4.24,0,0,1-.11.94,4.67,4.67,0,0,1-.33.88,3.68,3.68,0,0,1-.48.75,2.42,2.42,0,0,1-.62.53,1.2,1.2,0,0,1-.61.18.72.72,0,0,1-.49-.18,1.17,1.17,0,0,1-.32-.52,2.43,2.43,0,0,1-.12-.8,3.12,3.12,0,0,1,0-.52c0-.16.06-.32.1-.48s.09-.32.14-.47.1-.3.16-.44l1.08-3.07.06-.16a.37.37,0,0,1,.12-.13l.34-.2a.06.06,0,0,1,.09,0h0a.27.27,0,0,1,0,.12.19.19,0,0,1,0,.08.14.14,0,0,1,0,.06Zm-.76,2.6a1.61,1.61,0,0,0,.06.49.83.83,0,0,0,.2.32.43.43,0,0,0,.3.13.73.73,0,0,0,.41-.12,1.53,1.53,0,0,0,.41-.35,2.63,2.63,0,0,0,.31-.48,3.58,3.58,0,0,0,.19-.55,2.6,2.6,0,0,0,.07-.56,1.55,1.55,0,0,0-.07-.48.78.78,0,0,0-.19-.33.48.48,0,0,0-.31-.13.73.73,0,0,0-.41.12,1.69,1.69,0,0,0-.41.35,2.41,2.41,0,0,0-.3.48,3.62,3.62,0,0,0-.2.55A2.74,2.74,0,0,0,218.72,233.94Z"/><path class="cls-3" d="M223.6,229.87a4.06,4.06,0,0,0,.27-.65,2.53,2.53,0,0,0,.08-.72,1.12,1.12,0,0,0-.18-.71c-.12-.14-.32-.14-.58,0a1.31,1.31,0,0,0-.36.3,1.58,1.58,0,0,0-.24.39,2.51,2.51,0,0,0-.16.46l-.09.48a.7.7,0,0,1-.06.19.31.31,0,0,1-.09.11l-.28.15a.07.07,0,0,1-.09,0,.19.19,0,0,1,0-.12,3.86,3.86,0,0,1,.1-.75,4.65,4.65,0,0,1,.28-.79,3.86,3.86,0,0,1,.44-.72,2,2,0,0,1,.59-.52,1.16,1.16,0,0,1,.57-.18.64.64,0,0,1,.42.18,1.11,1.11,0,0,1,.25.48,2.82,2.82,0,0,1,.09.71,5.07,5.07,0,0,1,0,.55,3.06,3.06,0,0,1-.1.51,5.76,5.76,0,0,1-.44,1.08L222.63,233l1.82-1a.07.07,0,0,1,.11,0,.19.19,0,0,1,.05.14v.33a.46.46,0,0,1-.05.2.26.26,0,0,1-.11.14l-2.57,1.48a.08.08,0,0,1-.11,0,.25.25,0,0,1-.05-.15v-.32a.58.58,0,0,1,0-.19,2.56,2.56,0,0,1,.11-.24Z"/><path class="cls-3" d="M227.64,224.5a.09.09,0,0,1,.11,0,.19.19,0,0,1,.05.14V225a1.11,1.11,0,0,1,0,.19c0,.07,0,.14,0,.22l-1.33,6a.64.64,0,0,1-.06.18.24.24,0,0,1-.11.13l-.27.16a.08.08,0,0,1-.1,0,.18.18,0,0,1,0-.14v0s0-.05,0-.08l1.33-6-1.95,1.12a.08.08,0,0,1-.11,0,.16.16,0,0,1-.05-.14v-.33a.46.46,0,0,1,.05-.2.26.26,0,0,1,.11-.14Z"/><path class="cls-10" d="M218.61,248.29,253.71,228c.4-.23.72-.07.72.36a1.54,1.54,0,0,1-.72,1.2l-35.1,20.34c-.4.23-.72.07-.72-.36A1.53,1.53,0,0,1,218.61,248.29Z"/><path class="cls-10" d="M218.61,224.83l7.86-4.57c.4-.23.72-.07.72.37a1.51,1.51,0,0,1-.72,1.19l-7.86,4.57c-.4.23-.72.07-.72-.37A1.51,1.51,0,0,1,218.61,224.83Z"/><path class="cls-3" d="M217.87,273.18a.25.25,0,0,1-.25-.25.2.2,0,0,1,0-.13l4.15-6.81,4.18.77,3.92-1.07,4.07-5,4-1,4.1-7.31,4.2,1.22,3.94-.75,4-3.56a.25.25,0,0,1,.36,0,.25.25,0,0,1,0,.35l-4.11,3.65-.07,0-4.13.78L242.37,253l-4,7.15-4.09,1-4.06,4.95-.08,0L226,267.27H226l-3.89-.72-4,6.51A.27.27,0,0,1,217.87,273.18Z"/><g class="cls-20"><path d="M217.87,273.18a.25.25,0,0,1-.25-.25.2.2,0,0,1,0-.13l4.15-6.81,4.18.77,3.92-1.07,4.07-5,4-1,4.1-7.31,4.2,1.22,3.94-.75,4-3.56a.25.25,0,0,1,.36,0,.25.25,0,0,1,0,.35l-4.11,3.65-.07,0-4.13.78L242.37,253l-4,7.15-4.09,1-4.06,4.95-.08,0L226,267.27H226l-3.89-.72-4,6.51A.27.27,0,0,1,217.87,273.18Z"/></g><path class="cls-3" d="M219.75,261.38a.21.21,0,0,1-.08.06s-.06.05-.08.05a1.12,1.12,0,0,1-.55.18.75.75,0,0,1-.48-.14,1.07,1.07,0,0,1-.33-.48,2.29,2.29,0,0,1-.13-.85,3.59,3.59,0,0,1,.12-.93,4,4,0,0,1,.32-.87,3.54,3.54,0,0,1,.48-.73,2.1,2.1,0,0,1,.57-.5,1.25,1.25,0,0,1,.62-.19.67.67,0,0,1,.47.18,1.15,1.15,0,0,1,.3.51,2.7,2.7,0,0,1,.1.8,2,2,0,0,1-.05.49c0,.18-.07.35-.11.52s-.1.35-.16.51-.11.32-.15.46l-1.08,3.08a.52.52,0,0,0-.07.15.24.24,0,0,1-.12.14L219,264a.05.05,0,0,1-.08,0h0a.17.17,0,0,1,0-.12s0-.05,0-.08l0-.06Zm.77-2.58a1.61,1.61,0,0,0-.07-.49.7.7,0,0,0-.19-.32.46.46,0,0,0-.3-.11.81.81,0,0,0-.37.12,1.44,1.44,0,0,0-.38.32,2,2,0,0,0-.29.45,3,3,0,0,0-.19.53,2.78,2.78,0,0,0-.07.57,1.61,1.61,0,0,0,.07.49.8.8,0,0,0,.19.32.46.46,0,0,0,.29.11.81.81,0,0,0,.38-.12,1.26,1.26,0,0,0,.37-.32,1.77,1.77,0,0,0,.3-.45,2.39,2.39,0,0,0,.19-.53A2.17,2.17,0,0,0,220.52,258.8Z"/><path class="cls-3" d="M222.06,260.7a1.17,1.17,0,0,0,.09.24.3.3,0,0,0,.16.17.45.45,0,0,0,.28,0A1.65,1.65,0,0,0,223,261a1.91,1.91,0,0,0,.35-.27,1.85,1.85,0,0,0,.3-.39,2.11,2.11,0,0,0,.19-.47,1.85,1.85,0,0,0,.08-.56,1.17,1.17,0,0,0-.07-.46.46.46,0,0,0-.19-.22.42.42,0,0,0-.29,0,1.31,1.31,0,0,0-.37.15l-.49.29a.09.09,0,0,1-.11,0,.17.17,0,0,1-.05-.15v-.33a.55.55,0,0,1,0-.17c0-.06,0-.11.07-.16l1.07-2.39-1.72,1a.09.09,0,0,1-.11,0,.25.25,0,0,1,0-.15v-.32a.54.54,0,0,1,0-.21.28.28,0,0,1,.11-.13l2.35-1.36a.09.09,0,0,1,.11,0,.25.25,0,0,1,0,.15v.33l0,.17c0,.07,0,.14-.08.2l-1.05,2.36a1.28,1.28,0,0,1,.54-.18.64.64,0,0,1,.42.13,1,1,0,0,1,.28.43,2.19,2.19,0,0,1,.09.72,4,4,0,0,1-.11.91,4.31,4.31,0,0,1-.32.8,3.43,3.43,0,0,1-.47.66,2.39,2.39,0,0,1-.58.47,1.65,1.65,0,0,1-.68.25.67.67,0,0,1-.48-.1.72.72,0,0,1-.28-.36,1.91,1.91,0,0,1-.1-.53,1,1,0,0,1,0-.17.26.26,0,0,1,.1-.11l.27-.15s.08,0,.1,0A.16.16,0,0,1,222.06,260.7Z"/><path class="cls-10" d="M218.61,276.41l35.1-20.34c.4-.23.72-.07.72.36a1.55,1.55,0,0,1-.72,1.2L218.61,278c-.4.23-.72.07-.72-.36A1.53,1.53,0,0,1,218.61,276.41Z"/><path class="cls-10" d="M218.61,252.94l7.86-4.56c.4-.23.72-.07.72.36a1.51,1.51,0,0,1-.72,1.2l-7.86,4.57c-.4.23-.72.06-.72-.37A1.54,1.54,0,0,1,218.61,252.94Z"/><path class="cls-3" d="M270.68,199.42a4.58,4.58,0,0,1,4.63-.35l-4.63,12.49Z"/><path class="cls-3" d="M266.05,204.42a13.72,13.72,0,0,1,4.63-5v12.14Z"/><path class="cls-3" d="M263.18,212.13a24.27,24.27,0,0,1,2.87-7.71l4.63,7.14Z"/><path class="cls-22" d="M266.05,204.42a24.27,24.27,0,0,0-2.87,7.71l7.5-.57V199.42A13.72,13.72,0,0,0,266.05,204.42Z"/><path class="cls-3" d="M275.31,199.07a6.54,6.54,0,0,1,2.87,4.41l-7.5,8.08Z"/><path class="cls-3" d="M263.18,219.63a14.9,14.9,0,0,1-.39-3.52,22.09,22.09,0,0,1,.39-4l7.5-.57Z"/><path class="cls-3" d="M278.18,211a24.27,24.27,0,0,1-2.87,7.71l-4.63-7.13Z"/><path class="cls-3" d="M270.68,223.7a4.6,4.6,0,0,1-4.63.34l4.63-12.48Z"/><path class="cls-3" d="M263.18,219.63l7.5-8.07L266.05,224A6.47,6.47,0,0,1,263.18,219.63Z"/><path class="cls-3" d="M278.18,203.48a15.43,15.43,0,0,1,.38,3.52,21.21,21.21,0,0,1-.38,4l-7.5.58Z"/><path class="cls-3" d="M275.31,218.69a13.83,13.83,0,0,1-4.63,5V211.56Z"/><path class="cls-3" d="M266.75,229.89l7.86-4.57c.4-.23.72-.06.72.37a1.51,1.51,0,0,1-.72,1.19l-7.86,4.57c-.4.23-.73.07-.73-.37A1.55,1.55,0,0,1,266.75,229.89Z"/><path class="cls-10" d="M265,235.59,276.35,229c.39-.23.72-.07.72.36a1.58,1.58,0,0,1-.72,1.2L265,237.16c-.4.23-.72.06-.72-.37A1.55,1.55,0,0,1,265,235.59Z"/><path class="cls-10" d="M265,240.29l11.34-6.57c.39-.23.72-.07.72.36a1.58,1.58,0,0,1-.72,1.2L265,241.86c-.4.23-.72.06-.72-.37A1.57,1.57,0,0,1,265,240.29Z"/><path class="cls-10" d="M265,245l11.34-6.58c.39-.23.72-.07.72.36a1.56,1.56,0,0,1-.72,1.2L265,246.56c-.4.23-.72.06-.72-.37A1.54,1.54,0,0,1,265,245Z"/><path class="cls-3" d="M299.11,182.94a4.58,4.58,0,0,1,4.63-.35l-4.63,12.49Z"/><path class="cls-3" d="M294.48,187.94a13.72,13.72,0,0,1,4.63-5v12.14Z"/><path class="cls-3" d="M291.62,195.66a24.46,24.46,0,0,1,2.86-7.72l4.63,7.14Z"/><path class="cls-3" d="M303.74,182.59a6.47,6.47,0,0,1,2.87,4.41l-7.5,8.08Z"/><path class="cls-3" d="M291.62,203.16a15,15,0,0,1-.39-3.53,20.39,20.39,0,0,1,.39-4l7.49-.58Z"/><path class="cls-3" d="M306.61,194.5a24.24,24.24,0,0,1-2.87,7.72l-4.63-7.14Z"/><path class="cls-3" d="M299.11,207.22a4.58,4.58,0,0,1-4.63.34l4.63-12.48Z"/><path class="cls-3" d="M291.62,203.16l7.49-8.08-4.63,12.48A6.5,6.5,0,0,1,291.62,203.16Z"/><path class="cls-22" d="M294.48,187.94a24.46,24.46,0,0,0-2.86,7.72,20.39,20.39,0,0,0-.39,4,15,15,0,0,0,.39,3.53,6.5,6.5,0,0,0,2.86,4.4l4.63-12.48V182.94A13.72,13.72,0,0,0,294.48,187.94Z"/><path class="cls-3" d="M306.61,187a15,15,0,0,1,.39,3.53,22.07,22.07,0,0,1-.39,4l-7.5.58Z"/><path class="cls-3" d="M303.74,202.22a13.8,13.8,0,0,1-4.63,5V195.08Z"/><path class="cls-3" d="M295.18,213.47l7.87-4.56c.39-.23.72-.07.72.36a1.58,1.58,0,0,1-.72,1.2L295.18,215c-.4.23-.72.07-.72-.36A1.53,1.53,0,0,1,295.18,213.47Z"/><path class="cls-10" d="M293.45,219.18l11.33-6.58c.4-.23.72-.07.72.36a1.51,1.51,0,0,1-.72,1.2l-11.34,6.58c-.39.23-.72.07-.72-.37A1.55,1.55,0,0,1,293.45,219.18Z"/><path class="cls-10" d="M293.45,223.88l11.33-6.58c.4-.23.72-.07.72.37a1.51,1.51,0,0,1-.72,1.19l-11.34,6.58c-.39.23-.72.07-.72-.36A1.55,1.55,0,0,1,293.45,223.88Z"/><path class="cls-10" d="M293.45,228.58,304.78,222c.4-.23.72-.06.72.37a1.54,1.54,0,0,1-.72,1.2l-11.34,6.57c-.39.23-.72.07-.72-.36A1.56,1.56,0,0,1,293.45,228.58Z"/><g id="Glass"><path class="cls-3" d="M299,345.71a13.37,13.37,0,0,0-5.69-10.66c-1.61-1-3.1-1.15-4.21-.58h0c-6.69,3.36-53.7,33.5-56.71,35l0,0a2.14,2.14,0,0,0-.95,1.94,6.71,6.71,0,0,0,2.86,5.37,2.16,2.16,0,0,0,2.15.28l0,0c4.76-2.63,51.16-22.4,60.65-27.49h0C298.18,349,298.9,347.63,299,345.71Z"/><path class="cls-23" d="M297.11,339.21a12,12,0,0,0-3.84-4.16c-1.6-1-3.09-1.15-4.2-.58l-.13.07c-6.11,3.12-41.1,25.45-52.87,32.7l-.08.05-.48.29-.14.09-.27.17-.32.19h0c-1.25.76-2.09,1.26-2.41,1.42l0,0a1.86,1.86,0,0,0-.28.21,2.36,2.36,0,0,0-.67,1.73,3.76,3.76,0,0,0,0,.67c0,.09,0,.17,0,.26s0,.28.08.41l.09.33c0,.13.08.26.13.39s.06.19.1.29l0,0Z"/><path class="cls-3" d="M234.21,376.79a6.69,6.69,0,0,1-2.85-5.35c.06-1.93,1.44-2.67,3.08-1.65a6.72,6.72,0,0,1,2.86,5.35C237.23,377.07,235.85,377.81,234.21,376.79Z"/><path class="cls-6" d="M220.16,378.08a5.15,5.15,0,0,0,2.19,4.11,1.64,1.64,0,0,0,1.64.22h0l11.38-6.06h0a1.64,1.64,0,0,0,.72-1.48,5.15,5.15,0,0,0-2.19-4.11,1.65,1.65,0,0,0-1.64-.22h0l-11.37,6h0A1.62,1.62,0,0,0,220.16,378.08Z"/><path class="cls-6" d="M220.9,376.6a1.62,1.62,0,0,0-.74,1.48,4.45,4.45,0,0,0,.34,1.76L235.17,372a4.41,4.41,0,0,0-1.26-1.25,1.65,1.65,0,0,0-1.64-.22l-11.37,6Z"/><path class="cls-3" d="M234.75,388.18c0-7.29-4.82-14.58-14.45-20.14-19.26-11.12-50.49-11.12-69.75,0-9.63,5.56-14.45,12.85-14.45,20.14h0V401.6c0,7.29,4.82,14.58,14.45,20.14,19.26,11.12,50.49,11.12,69.75,0,9.63-5.56,14.45-12.85,14.45-20.14Zm-81.82-16c8.61-5,20.14-7.7,32.5-7.7s23.89,2.74,32.49,7.7c7.78,4.49,12.06,10.18,12.06,16s-4.29,11.51-12.06,16c-8.6,5-20.14,7.7-32.49,7.7s-23.89-2.73-32.5-7.7c-7.77-4.49-12.06-10.17-12.06-16s4.29-11.52,12.06-16Z"/><path class="cls-24" d="M150.55,408.31c19.26,11.12,50.49,11.12,69.75,0s19.26-29.15,0-40.27-50.49-11.12-69.75,0S131.28,397.19,150.55,408.31Zm-9.68-20.13c0-5.83,4.28-11.52,12.06-16,8.6-5,20.14-7.7,32.49-7.7s23.89,2.74,32.49,7.7c7.78,4.49,12.06,10.18,12.06,16s-4.28,11.51-12.06,16c-8.6,5-20.14,7.7-32.49,7.7s-23.89-2.73-32.49-7.7c-7.78-4.49-12.06-10.17-12.06-16Z"/><path class="cls-3" d="M140.87,388.18a13.22,13.22,0,0,0,1.92,6.71c2-3.38,5.4-6.56,10.14-9.29,8.6-5,20.14-7.71,32.5-7.71s23.88,2.74,32.48,7.71c4.74,2.73,8.19,5.91,10.15,9.29a13.25,13.25,0,0,0,1.92-6.71c0-5.83-4.29-11.52-12.07-16-8.6-5-20.14-7.7-32.48-7.7s-23.9,2.74-32.5,7.7C145.15,376.66,140.87,382.35,140.87,388.18Z"/><path class="cls-23" d="M140.87,388.18a13.22,13.22,0,0,0,1.92,6.71c2-3.38,5.4-6.56,10.14-9.29,8.6-5,20.14-7.71,32.5-7.71s23.88,2.74,32.48,7.71c4.74,2.73,8.19,5.91,10.15,9.29a13.25,13.25,0,0,0,1.92-6.71c0-5.83-4.29-11.52-12.07-16-8.6-5-20.14-7.7-32.48-7.7s-23.9,2.74-32.5,7.7C145.15,376.66,140.87,382.35,140.87,388.18Z"/><path class="cls-25" d="M152.93,378.25c8.6-5,20.14-7.7,32.49-7.7s23.89,2.73,32.49,7.7c6.42,3.71,10.45,8.22,11.67,13-1.22,4.74-5.25,9.26-11.67,13-8.6,5-20.14,7.7-32.49,7.7s-23.89-2.73-32.49-7.7c-6.42-3.7-10.45-8.22-11.66-13C142.48,386.47,146.51,382,152.93,378.25Z"/><path class="cls-23" d="M173.8,415.86v13.41a64.56,64.56,0,0,1-23.25-7.53c-9.63-5.56-14.45-12.85-14.45-20.14V388.18a16.73,16.73,0,0,1,.59-4.4h0c-2.34,8.67,2.28,17.85,13.85,24.53A64.79,64.79,0,0,0,173.8,415.86Z"/></g><g id="Character-2"><path class="cls-6" d="M408.88,333.9c.59.23.71,1.36.75,3.59,0,1.69.32,4.64-1.67,5.18s-4.87.18-6.1-1.44c-1.54-2-2.57-3.79-4.77-6.26-1.91-2.15-4-4.16-4.71-7.12-.65-2.68,0-3.82,1.8-4.55,2.53-1,6.37,2.56,8.32,3.15C404.17,327,408.3,333.66,408.88,333.9Z"/><path class="cls-26" d="M408.93,331.83l-.06,2.74a6.72,6.72,0,0,1-6.92,0c-.12-.27-.63-3.93-.63-3.93Z"/><path class="cls-6" d="M386.36,349.17s.73,2.4,1.11,4.49c.29,1.67.71,4.44.11,5.67s-2.89,2-6.39,1.88c-2.27-.06-5.85,1.4-8.3,2.69s-7.75,1.78-10.39,1.41c-3.11-.43-6.3-2.32-6.77-3.62s.22-2.63,7.64-5.59c.07,0,10.29-3.1,13.94-7Z"/><path class="cls-26" d="M386.42,346.21s-.05,2-.07,3.2-1.42,2.86-5,2.65c-2.49-.15-4.22-.85-4.07-2.91l.07-2.95Z"/><path class="cls-6" d="M411.53,295.54a74.5,74.5,0,0,0-2.91-14.33s1.25-12.28,2-23.93c.79-12.59,1.53-19.07-1-37.25,0,0-38.59-3.46-39.64,11.08s.44,51.67.78,58.08,1.31,12.09,2.4,22.49,4.19,34.52,4.19,34.52a9.59,9.59,0,0,0,9,0s3.52-29,3.39-36.44a63.23,63.23,0,0,0-2.44-16.17s1-12,2-22.42,1.75-15.43,2-20l.88-.42s.49,18,.82,24.45,1.22,12.56,2.8,24.49c1.38,10.34,5.67,32.26,5.67,32.26,4.58,2.62,7.42-.16,7.42-.16S412.58,304.52,411.53,295.54Z"/><path class="cls-6" d="M391.34,251.21s10-4.64,15-8.91c0,0-4.73,6.35-10.81,9.08,0,0-2.64,22.33-2.62,21.89l-.74-22.08Z"/><polygon class="cls-26" points="384.43 168.18 385.93 181.51 398.51 180.87 397.11 165.32 384.43 168.18"/><path class="cls-6" d="M403.26,173.28c4.68-.21,7.06.49,9.16,4.53s2.93,16.12,3.66,22.34.92,10.62-1.64,11.26-12.54.91-12.54.91Z"/><path class="cls-3" d="M411.16,180.19c-.68-3.73-5.58-7.65-10.17-6.9-1.06.17-2.1.35-3.11.53-.55,2.24-6.7,3.64-12.56,2.26-1.77.46-7.59,1.55-9.07,2-4.21,1.4-6,5.55-6.61,19.31,0,0,.34,31.14.17,37.35,10.41,4.39,21.34,4.51,27.41,3.33,12.64-2.47,14.27-7.65,14.27-7.65l-1.88-14.25S412.7,188.62,411.16,180.19Z"/><path class="cls-6" d="M384.92,172.58l.1.84a18.94,18.94,0,0,0,7.72,0c4.09-.91,4.92-2.07,4.92-2.07l-.09-.95s1-.38,1.55,1.19a15.63,15.63,0,0,1,.59,1.91s.48,2.86-4.33,4.32a14.85,14.85,0,0,1-12-1.31l-1.88.4s1.63-3.76,2.12-4.52a1.24,1.24,0,0,1,1.18-.65Z"/><polygon class="cls-3" points="346.51 158.29 321.56 171.31 333.96 205.21 357.24 192.17 346.51 158.29"/><polygon class="cls-27" points="345.37 161.61 324.43 172.53 335.4 201.68 354.94 190.73 345.37 161.61"/><path class="cls-7" d="M341,164.75l-.41-1c-.22-.58-2-.23-3.89.76l-3.68,1.9c-1.93,1-3.31,2.27-3.09,2.84l.41,1Z"/><path class="cls-3" d="M340.54,160.61c-.14-.36-.89-.3-1.69.13l-1.44.77s-.89-2.23-4.21-.68-2.56,4.14-2.56,4.14l-1.54.85c-.84.46-1.44,1.13-1.34,1.5l.18.66,12.86-6.71Z"/><path class="cls-3" d="M339.16,162.11c-1.2.59-1.67.87-1.33,1.75s.76,1.74.76,1.74l-5.68,3s-.48-1.28-.68-1.78-.63-.73-1.53-.25l-.34-.36,9-4.57Z"/><path class="cls-13" d="M339.16,162.11c-1.2.59-1.67.87-1.33,1.75s.76,1.74.76,1.74l-5.68,3s-.48-1.28-.68-1.78-.63-.73-1.53-.25l-.34-.36,9-4.57Z"/><path class="cls-3" d="M341.19,164.81l-.4-1c-.23-.57-2-.23-3.89.76l-3.69,1.91c-1.93,1-3.31,2.26-3.08,2.83l.4,1Z"/><path class="cls-26" d="M376.25,178.12c-5.76.5-8.21,1.55-12.54,9.35-4.69,8.46-13.71,23.78-14.85,25.71-1.59,2.69-1.9,6.78-.52,9.25,1.28,2.31,5.35,3.37,10-1.85,5.48-6.2,15.7-21.34,15.7-21.34S382.68,187.8,376.25,178.12Z"/><path class="cls-26" d="M350.73,224.21c-4.42-.54-14.73-14.53-17.67-19.1a32.63,32.63,0,0,0-8.93-9.43c-4.67-3.45-4-8.75-1.95-13.62.7-1.68,3.1-.58,3.1-.58l.84,2.3,1.46,4c1,.92,1.56,1.22,1.62.94.13-.51-.73-2.66-.7-4.9,0-2.69,1.91-.92,2.47,0a32.82,32.82,0,0,1,2,4.45c.94,2.41.55,4.85,1.7,6.5s16.53,16.38,16.53,16.38Z"/><path class="cls-6" d="M377.36,177.82c-3.49-.09-7.68.47-10.93,4.69s-16.25,27.17-16.25,27.17l-7.29-6.54a12.69,12.69,0,0,0-5.61,7.93,79.18,79.18,0,0,0,6.6,9c3.09,3.39,6.53,5.73,9.35,4.7S358.92,221.45,365,213s12.7-18.43,12.7-18.43S381.88,184.82,377.36,177.82Z"/><path class="cls-28" d="M375.56,151.87s-3.14,4.77-2.78,5.24,2.67.89,2.67.89Z"/><path class="cls-6" d="M377,154.93a3.74,3.74,0,1,1,3.74-3.74h0A3.73,3.73,0,0,1,377,154.93Zm0-6.65a2.91,2.91,0,1,0,2.91,2.91h0A2.91,2.91,0,0,0,377,148.28Z"/><path class="cls-26" d="M384.28,138.69c-6.35,1.34-8.19,4.13-8.79,14.23-.62,10.55.45,13.87,1.84,15.29.94,1,6.14,1.13,8.76.41,3.28-.91,10.7-3.54,14.18-8.84,4.09-6.25,5.16-14.71.78-18.18C394.9,136.71,386.87,138.14,384.28,138.69Z"/><path class="cls-28" d="M384.51,168.92l-.3-1.95a12.62,12.62,0,0,1-6.51,1.48C378.91,169.05,382.07,169.22,384.51,168.92Z"/><polygon class="cls-6" points="373.64 150.41 384.94 151.87 384.49 152.67 373.64 151.26 373.64 150.41"/><path class="cls-6" d="M374.41,142.76a3.44,3.44,0,0,0,1.43-.09,2.27,2.27,0,0,0,.78,2.65,3.21,3.21,0,0,0,2.85.38,2.72,2.72,0,0,0-.31,2,3.18,3.18,0,0,0,3.29,2.37c.07,1.48.09,2.93,1.66,3.6,0,0,1-3.9,4.3-3.41s3.75,4.71,1.67,7.27-4,1.6-4,1.58c.19.1.26,1.34.32,1.58a11.54,11.54,0,0,0,.85,2.13,10.2,10.2,0,0,0,3,3.49,7.35,7.35,0,0,0,6,1.66,6.41,6.41,0,0,0,4.34-3.5,4,4,0,0,1,.71-1.26,4.1,4.1,0,0,1,1.62-.7,4.76,4.76,0,0,0,3-6,3.39,3.39,0,0,0-.29-.68,4.36,4.36,0,0,0,1.67-7.62,5.24,5.24,0,0,0,2.26-5.68,5.33,5.33,0,0,0-3.76-3.6c-1.29-.37-.79-.58-1.19-1.83a4.62,4.62,0,0,0-5.76-3.06l-.09,0a4.58,4.58,0,0,0-5.42-3.51c-.53.14-1.62.63-1.81,1.13-.67-.65-.89-1.52-1.71-2.12a4.82,4.82,0,0,0-6.74,1,4.62,4.62,0,0,0-.35.55,6,6,0,0,0-4.44-1.87,4.87,4.87,0,0,0-4.05,2.47,4.15,4.15,0,0,0,.54,4.63,4.67,4.67,0,0,0-2.45,2.12,3,3,0,0,0,.35,3.32,2.48,2.48,0,0,0,1.24.92A2.92,2.92,0,0,0,374.41,142.76Z"/><path class="cls-6" d="M384.05,155.86l.11-4.41a2.21,2.21,0,0,0-.11,4.41Z"/></g></g></g></svg>