<svg xmlns="http://www.w3.org/2000/svg" viewBox="0 0 685.99 685.99"><defs><style>.cls-1{fill:#fff;}.cls-2{fill:#4dbdeb;}.cls-3{fill:#ffd262;}.cls-4{fill:#00405c;}.cls-5{fill:#0075a8;}.cls-6{fill:#ff9f70;}.cls-7{fill:#f0f7f7;}.cls-8{fill:#ffbd8e;}.cls-9{fill:#e18152;}.cls-10{fill:#e4b34f;}</style></defs><g id="Layer_2" data-name="Layer 2"><g id="Layer_1-2" data-name="Layer 1"><path class="cls-1" d="M343,676A333,333,0,0,1,107.53,107.53,333,333,0,0,1,578.46,578.46,330.85,330.85,0,0,1,343,676Z"/><path class="cls-2" d="M343,20c178.39,0,323,144.61,323,323S521.38,666,343,666,20,521.38,20,343,164.61,20,343,20m0-20A343.08,343.08,0,0,0,209.48,659,343.08,343.08,0,0,0,476.51,27,340.89,340.89,0,0,0,343,0Z"/><path class="cls-3" d="M452.55,120.82a55.75,55.75,0,0,0-55.76,55.76v25.59H508.3V176.58a55.75,55.75,0,0,0-55.75-55.76Z"/><path class="cls-4" d="M508.3,206.79H396.79a4.62,4.62,0,0,1-4.62-4.61v-25.6a60.38,60.38,0,0,1,120.75,0v25.6a4.62,4.62,0,0,1-4.62,4.61Zm-106.9-9.23H503.69v-21a51.15,51.15,0,0,0-102.29,0Z"/><path class="cls-5" d="M430.63,273.45V229.67h46.66v43.78h42.13a29.68,29.68,0,0,1,29.51,29.74v60.54H358.78V303a29.6,29.6,0,0,1,29.66-29.51Z"/><path class="cls-6" d="M430.63,262.85l23.11,28.75,23.55-28.75V229.67H430.63Z"/><path class="cls-4" d="M519.42,273.45H509.06a29.67,29.67,0,0,1,29.51,29.73v60.55h10.36V303.19A29.68,29.68,0,0,0,519.42,273.45Z"/><path class="cls-4" d="M395.49,367.31a4.62,4.62,0,0,1-4.62-4.62v-27a4.62,4.62,0,0,1,9.23,0v27A4.61,4.61,0,0,1,395.49,367.31Z"/><path class="cls-4" d="M512.22,367.31a4.62,4.62,0,0,1-4.61-4.62v-27a4.62,4.62,0,0,1,9.23,0v27A4.62,4.62,0,0,1,512.22,367.31Z"/><path class="cls-4" d="M548.93,368.35H358.78a4.62,4.62,0,0,1-4.62-4.62V302.94a34.24,34.24,0,0,1,34.24-34.12H426V229.66a4.62,4.62,0,0,1,4.61-4.61h46.66a4.62,4.62,0,0,1,4.62,4.61v39.17h37.51a34.3,34.3,0,0,1,34.13,34.36v60.54A4.62,4.62,0,0,1,548.93,368.35ZM363.4,359.12H544.32V303.19A25,25,0,0,0,537,285.45a24.7,24.7,0,0,0-17.62-7.39H477.29a4.61,4.61,0,0,1-4.61-4.61V234.28H435.25v39.17a4.63,4.63,0,0,1-4.62,4.61H388.41a25,25,0,0,0-25,24.9Z"/><path class="cls-7" d="M477.29,262.85,453.74,291.6,480.22,311l7-37.59Z"/><path class="cls-7" d="M430.63,262.85l23.11,28.75L427.5,311l-7-37.6Z"/><path class="cls-4" d="M480.22,315.65a4.59,4.59,0,0,1-2.74-.9L451,295.31a4.61,4.61,0,0,1-.84-6.64l23.55-28.75a4.62,4.62,0,0,1,6.93-.23l10,10.6a4.61,4.61,0,0,1,1.17,4l-7,37.59a4.61,4.61,0,0,1-2.84,3.44,4.53,4.53,0,0,1-1.69.32ZM460.4,290.76,477,303l5.26-28.07-4.76-5.06Z"/><path class="cls-4" d="M427.5,315.65a4.53,4.53,0,0,1-1.69-.32,4.62,4.62,0,0,1-2.85-3.45l-7-37.59a4.62,4.62,0,0,1,1.21-4l10.17-10.6a4.63,4.63,0,0,1,6.93.3l23.11,28.75a4.62,4.62,0,0,1-.85,6.6l-26.24,19.44a4.63,4.63,0,0,1-2.75.91Zm-2.07-40.72,5.25,28,16.46-12.19-16.81-20.92Z"/><path class="cls-5" d="M437.1,303.92l16.64,18.51L470.5,303.9l-16.76-12.3Z"/><path class="cls-5" d="M437.1,363.73l16.64-41.3,16.76,41.32H437.1Z"/><path class="cls-4" d="M453.74,327.05h0a4.67,4.67,0,0,1-3.43-1.53L433.67,307a4.62,4.62,0,0,1,.69-6.8L451,287.89a4.61,4.61,0,0,1,5.48,0l16.75,12.3a4.61,4.61,0,0,1,.7,6.82l-16.76,18.53a4.62,4.62,0,0,1-3.43,1.52Zm-9.81-22.44,9.82,10.93,9.9-11-9.89-7.26Z"/><path class="cls-4" d="M470.5,368.37h0l-33.4,0a4.62,4.62,0,0,1-4.28-6.34l16.64-41.29a4.62,4.62,0,0,1,4.28-2.89h0A4.61,4.61,0,0,1,458,320.7L474.78,362a4.62,4.62,0,0,1-4.28,6.35Zm-26.56-9.25h19.71l-9.89-24.39Z"/><path class="cls-8" d="M406.19,186.68h-3.31a15.5,15.5,0,0,0,0,31h3.31Z"/><path class="cls-9" d="M502.21,186.68h-3.3v31h3.3a15.5,15.5,0,0,0,0-31Z"/><path class="cls-6" d="M452.55,265.44c-25.61,0-46.36-21-46.36-47V186c0-25.94,20.75-47,46.36-47s46.35,21,46.35,47v32.51C498.9,244.41,478.15,265.44,452.55,265.44Z"/><path class="cls-9" d="M452.55,139a45.76,45.76,0,0,0-5.27.31A46.75,46.75,0,0,1,488.37,186v32.51a46.75,46.75,0,0,1-41.09,46.65,45.76,45.76,0,0,0,5.27.31c25.6,0,46.35-21,46.35-47V186C498.9,160,478.15,139,452.55,139Z"/><path class="cls-8" d="M452.55,139a45.72,45.72,0,0,1,5.26.31C434.69,142,416.73,161.84,416.73,186v32.51c0,24.13,18,44,41.08,46.65a45.72,45.72,0,0,1-5.26.31c-25.61,0-46.36-21-46.36-47V186C406.19,160,426.94,139,452.55,139Z"/><path class="cls-4" d="M452.55,270.05c-28.11,0-51-23.13-51-51.57V186c0-28.44,22.87-51.58,51-51.58s51,23.14,51,51.58v32.51C503.52,246.91,480.65,270.05,452.55,270.05Zm0-126.43c-23,0-41.75,19-41.75,42.35v32.51c0,23.34,18.73,42.34,41.75,42.34s41.74-19,41.74-42.34V186c0-23.35-18.73-42.35-41.74-42.35Z"/><path class="cls-4" d="M406.19,222.28h-3.31a20.11,20.11,0,1,1,0-40.21h3.31a4.61,4.61,0,0,1,4.61,4.62v31A4.6,4.6,0,0,1,406.19,222.28Zm-4.62-30.9a10.88,10.88,0,0,0,0,21.6Z"/><path class="cls-4" d="M502.21,222.28H498.9a4.61,4.61,0,0,1-4.61-4.61v-31a4.62,4.62,0,0,1,4.61-4.61h3.31a20.11,20.11,0,1,1,0,40.21Zm1.31-30.9V213a10.87,10.87,0,0,0,0-21.59Z"/><path class="cls-3" d="M230.82,120.82a55.76,55.76,0,0,0-55.76,55.76v25.59H286.58V176.58a55.75,55.75,0,0,0-55.76-55.76Z"/><path class="cls-4" d="M286.58,206.79H175.06a4.62,4.62,0,0,1-4.61-4.61v-25.6a60.37,60.37,0,0,1,120.74,0v25.6A4.61,4.61,0,0,1,286.58,206.79Zm-106.9-9.23H282v-21a51.14,51.14,0,1,0-102.28,0Z"/><path class="cls-5" d="M208.91,273.45V229.67h46.65v43.78h42.13a29.69,29.69,0,0,1,29.52,29.74v60.54H137.05V303a29.62,29.62,0,0,1,29.67-29.51Z"/><path class="cls-6" d="M208.91,262.85,232,291.6l23.55-28.75V229.67H208.91Z"/><path class="cls-2" d="M166.72,273.43l10.36,0A29.62,29.62,0,0,0,147.42,303v60.77H137.05V302.94A29.63,29.63,0,0,1,166.72,273.43Z"/><path class="cls-4" d="M173.76,367.31a4.62,4.62,0,0,1-4.61-4.62v-27a4.62,4.62,0,0,1,9.23,0v27A4.62,4.62,0,0,1,173.76,367.31Z"/><path class="cls-4" d="M290.5,367.31a4.62,4.62,0,0,1-4.62-4.62v-27a4.62,4.62,0,0,1,9.23,0v27A4.61,4.61,0,0,1,290.5,367.31Z"/><path class="cls-4" d="M327.21,368.35H137.05a4.62,4.62,0,0,1-4.61-4.62V302.94a34.23,34.23,0,0,1,34.24-34.12h37.61V229.66a4.62,4.62,0,0,1,4.62-4.61h46.66a4.62,4.62,0,0,1,4.61,4.61v39.17H297.7A33.83,33.83,0,0,1,321.86,279a34.19,34.19,0,0,1,10,24.23v60.54A4.61,4.61,0,0,1,327.21,368.35Zm-185.54-9.23H322.59V303.19a25,25,0,0,0-7.29-17.74,24.66,24.66,0,0,0-17.61-7.39H255.57a4.62,4.62,0,0,1-4.62-4.61V234.28H213.52v39.17a4.61,4.61,0,0,1-4.61,4.61H166.69a25,25,0,0,0-25,24.9v56.17Z"/><path class="cls-7" d="M255.57,262.85,232,291.6,258.49,311l7-37.59Z"/><path class="cls-7" d="M208.91,262.85,232,291.6,205.77,311l-7-37.6Z"/><path class="cls-4" d="M258.49,315.65a4.54,4.54,0,0,1-2.73-.9l-26.47-19.44a4.62,4.62,0,0,1-1.85-3.14,4.66,4.66,0,0,1,1-3.5L252,259.92a4.62,4.62,0,0,1,6.94-.24l10,10.61a4.61,4.61,0,0,1,1.18,4l-7,37.58a4.66,4.66,0,0,1-2.85,3.45,4.49,4.49,0,0,1-1.69.32Zm-19.82-24.89L255.31,303l5.25-28.07-4.76-5.06Z"/><path class="cls-4" d="M205.77,315.65a4.44,4.44,0,0,1-1.68-.32,4.58,4.58,0,0,1-2.85-3.45l-7.05-37.59a4.62,4.62,0,0,1,1.21-4l10.18-10.6a4.62,4.62,0,0,1,6.92.3l23.12,28.75a4.62,4.62,0,0,1-.85,6.6l-26.25,19.44a4.61,4.61,0,0,1-2.75.91Zm-2.06-40.72,5.24,28,16.46-12.19L208.6,269.83Z"/><path class="cls-5" d="M215.38,303.92,232,322.43l16.76-18.53L232,291.6Z"/><path class="cls-5" d="M215.38,363.73,232,322.43l16.76,41.32h-33.4Z"/><path class="cls-4" d="M232,327.05h0a4.65,4.65,0,0,1-3.42-1.53L211.94,307a4.64,4.64,0,0,1,.69-6.8l16.64-12.32a4.62,4.62,0,0,1,5.49,0l16.75,12.3a4.62,4.62,0,0,1,.69,6.82l-16.75,18.53a4.64,4.64,0,0,1-3.43,1.52Zm-9.82-22.44L232,315.54l9.89-11L232,297.33Z"/><path class="cls-4" d="M248.77,368.37h0l-33.4,0a4.62,4.62,0,0,1-4.28-6.34l16.65-41.29a4.59,4.59,0,0,1,4.27-2.89h0a4.62,4.62,0,0,1,4.28,2.88L253.05,362a4.61,4.61,0,0,1-4.28,6.35Zm-26.56-9.25h19.71L232,334.74Z"/><path class="cls-8" d="M184.46,186.68h-3.31a15.5,15.5,0,0,0,0,31h3.31Z"/><path class="cls-9" d="M280.49,186.68h-3.31v31h3.31a15.5,15.5,0,0,0,0-31Z"/><path class="cls-6" d="M230.82,265.44c-25.6,0-46.36-21-46.36-47V186c0-25.94,20.76-47,46.36-47s46.36,21,46.36,47v32.51c0,25.93-20.76,47-46.36,47Z"/><path class="cls-9" d="M230.82,139a45.89,45.89,0,0,0-5.27.31A46.75,46.75,0,0,1,266.64,186v32.51a46.75,46.75,0,0,1-41.09,46.65,45.89,45.89,0,0,0,5.27.31c25.6,0,46.36-21,46.36-47V186c0-25.94-20.76-47-46.36-47Z"/><path class="cls-8" d="M230.82,139a45.89,45.89,0,0,1,5.27.31A46.75,46.75,0,0,0,195,186v32.51a46.75,46.75,0,0,0,41.09,46.65,45.89,45.89,0,0,1-5.27.31c-25.6,0-46.36-21-46.36-47V186C184.46,160,205.22,139,230.82,139Z"/><path class="cls-4" d="M230.82,270.05c-28.11,0-51-23.13-51-51.57V186c0-28.44,22.86-51.58,51-51.58s51,23.14,51,51.58v32.51c0,28.43-22.86,51.57-51,51.57Zm0-126.43c-23,0-41.74,19-41.74,42.35v32.51c0,23.34,18.72,42.34,41.74,42.34s41.74-19,41.74-42.34V186c0-23.35-18.72-42.35-41.74-42.35Z"/><path class="cls-4" d="M184.46,222.28h-3.31a20.11,20.11,0,0,1,0-40.21h3.31a4.62,4.62,0,0,1,4.62,4.62v31A4.61,4.61,0,0,1,184.46,222.28Zm-4.61-30.9a10.88,10.88,0,0,0,0,21.6Z"/><path class="cls-4" d="M280.49,222.28h-3.31a4.61,4.61,0,0,1-4.62-4.61v-31a4.62,4.62,0,0,1,4.62-4.61h3.31a20.11,20.11,0,0,1,0,40.21Zm1.3-30.9V213a10.87,10.87,0,0,0,0-21.59Z"/><path class="cls-3" d="M277.63,179.1V114.92a34.42,34.42,0,0,1,34.43-34.43h58.7a23.58,23.58,0,0,1,23.58,23.58v8.55a11.05,11.05,0,0,1,11,11v55.42H277.63Z"/><path class="cls-4" d="M405.3,183.71H277.63A4.62,4.62,0,0,1,273,179.1V114.92a39.1,39.1,0,0,1,39.05-39h58.7A28.22,28.22,0,0,1,399,104.07v4.67a15.72,15.72,0,0,1,11,14.94V179.1a4.61,4.61,0,0,1-4.62,4.61Zm-123.06-9.23H400.69v-50.8a6.46,6.46,0,0,0-6.39-6.44,4.61,4.61,0,0,1-4.58-4.62v-8.55a19,19,0,0,0-19-19h-58.7a29.86,29.86,0,0,0-29.82,29.82Z"/><path class="cls-5" d="M315.91,258.45v-51h54.41v51h49.12a34.61,34.61,0,0,1,34.41,34.68v70.6H232.13V292.85a34.53,34.53,0,0,1,34.59-34.41Z"/><path class="cls-6" d="M315.91,246.09l26.95,33.52,27.46-33.52V207.4H315.91Z"/><path class="cls-4" d="M419.45,258.45H407.36a34.6,34.6,0,0,1,34.41,34.67v70.61h12.09v-70.6A34.62,34.62,0,0,0,419.45,258.45Z"/><path class="cls-2" d="M266.72,258.44h12.09a34.54,34.54,0,0,0-34.59,34.41v70.87H232.13V292.85A34.54,34.54,0,0,1,266.72,258.44Z"/><path class="cls-4" d="M274.93,367.13a4.61,4.61,0,0,1-4.61-4.61V331.07a4.62,4.62,0,1,1,9.23,0v31.45A4.61,4.61,0,0,1,274.93,367.13Z"/><path class="cls-4" d="M411.05,367.13a4.6,4.6,0,0,1-4.61-4.61V331.07a4.62,4.62,0,1,1,9.23,0v31.45A4.61,4.61,0,0,1,411.05,367.13Z"/><path class="cls-4" d="M453.86,368.34H232.13a4.6,4.6,0,0,1-4.61-4.61V292.85a39.16,39.16,0,0,1,39.16-39h.05l44.57,0V207.4a4.6,4.6,0,0,1,4.61-4.61h54.41a4.61,4.61,0,0,1,4.62,4.61v46.44h44.51a39.21,39.21,0,0,1,39,39.3v70.59a4.61,4.61,0,0,1-4.61,4.61Zm-217.11-9.23H449.24v-66a30,30,0,0,0-8.72-21.22,29.56,29.56,0,0,0-21.08-8.84H370.32a4.61,4.61,0,0,1-4.61-4.62V212H320.53v46.43a4.61,4.61,0,0,1-4.62,4.62l-49.19,0h0a29.91,29.91,0,0,0-29.93,29.81v66.25Z"/><path class="cls-7" d="M370.32,246.09l-27.46,33.52,30.87,22.67,8.21-43.83Z"/><path class="cls-7" d="M315.91,246.09l26.95,33.52-30.6,22.67-8.21-43.83Z"/><path class="cls-4" d="M373.73,306.9A4.6,4.6,0,0,1,371,306l-30.87-22.66a4.62,4.62,0,0,1-.84-6.65l27.46-33.52a4.61,4.61,0,0,1,3.41-1.69,4.7,4.7,0,0,1,3.52,1.45l11.62,12.36a4.62,4.62,0,0,1,1.18,4l-8.21,43.83a4.62,4.62,0,0,1-4.54,3.77Zm-24.21-28.12,21,15.44L377,259.91l-6.41-6.82Z"/><path class="cls-4" d="M312.26,306.9a4.53,4.53,0,0,1-1.69-.32,4.62,4.62,0,0,1-2.85-3.45l-8.21-43.83a4.64,4.64,0,0,1,1.21-4.05l11.86-12.35a4.61,4.61,0,0,1,6.93.3l26.95,33.53a4.62,4.62,0,0,1-.85,6.6L315,306a4.58,4.58,0,0,1-2.74.91Zm-3.24-47,6.42,34.25,20.82-15.42L315.6,253.08Z"/><path class="cls-5" d="M323.46,294l19.4,21.58L362.4,294l-19.54-14.35Z"/><path class="cls-5" d="M323.46,363.72l19.4-48.15,19.54,48.18H342.86Z"/><path class="cls-4" d="M342.86,320.19h0a4.67,4.67,0,0,1-3.43-1.53L320,297.07a4.63,4.63,0,0,1,.69-6.79l19.41-14.38a4.61,4.61,0,0,1,5.47,0l19.54,14.35a4.61,4.61,0,0,1,.7,6.82l-19.54,21.61a4.66,4.66,0,0,1-3.43,1.52Zm-12.58-25.51,12.59,14,12.68-14-12.67-9.31Z"/><path class="cls-4" d="M362.4,368.37h0l-38.95,0a4.62,4.62,0,0,1-3.82-2,4.58,4.58,0,0,1-.45-4.3l19.4-48.15a4.62,4.62,0,0,1,4.28-2.89h0a4.62,4.62,0,0,1,4.28,2.88L366.68,362a4.61,4.61,0,0,1-4.28,6.35Zm-32.11-9.26,25.26,0-12.67-31.25Z"/><path class="cls-8" d="M287.41,157.29h-3.86a18.06,18.06,0,1,0,0,36.12h3.86Z"/><path class="cls-9" d="M399.38,157.29h-3.86v36.12h3.86a18.06,18.06,0,0,0,0-36.12Z"/><path class="cls-6" d="M341.47,249.11c-29.86,0-54.06-24.51-54.06-54.75V156.45c0-30.24,24.2-54.76,54.06-54.76s54,24.52,54,54.76v37.91C395.52,224.6,371.32,249.11,341.47,249.11Z"/><path class="cls-9" d="M341.47,101.69a54.3,54.3,0,0,0-6.15.37c27,3.09,47.92,26.25,47.92,54.39v37.91c0,28.14-21,51.3-47.92,54.39a54.3,54.3,0,0,0,6.15.37c29.85,0,54-24.52,54-54.76V156.45c0-30.24-24.2-54.76-54-54.76Z"/><path class="cls-8" d="M341.47,101.69a54.27,54.27,0,0,1,6.14.37c-27,3.09-47.91,26.25-47.91,54.39v37.91c0,28.14,20.95,51.3,47.91,54.39a54.13,54.13,0,0,1-6.14.37c-29.86,0-54.06-24.52-54.06-54.76V156.45c0-30.24,24.2-54.76,54.06-54.76Z"/><path class="cls-4" d="M341.47,253.73c-32.35,0-58.67-26.64-58.67-59.37V156.45c0-32.74,26.32-59.37,58.67-59.37s58.67,26.63,58.67,59.37v37.91C400.14,227.09,373.82,253.73,341.47,253.73Zm0-147.42c-27.26,0-49.44,22.49-49.44,50.14v37.91c0,27.64,22.17,50.14,49.44,50.14s49.44-22.5,49.44-50.14V156.45C390.91,128.8,368.73,106.31,341.47,106.31Z"/><path class="cls-4" d="M287.41,198h-3.86a22.68,22.68,0,0,1,0-45.36h3.86a4.62,4.62,0,0,1,4.62,4.62v36.12a4.62,4.62,0,0,1-4.62,4.62Zm-4.61-36.11a13.45,13.45,0,0,0,0,26.86Z"/><path class="cls-4" d="M399.38,198h-3.86a4.61,4.61,0,0,1-4.61-4.62V157.29a4.61,4.61,0,0,1,4.61-4.62h3.86a22.68,22.68,0,0,1,0,45.36Zm.76-36.11v26.86a13.45,13.45,0,0,0,0-26.86Z"/><path class="cls-4" d="M248.35,332.13a4.61,4.61,0,0,1-4.61-4.62V299.82a4.62,4.62,0,0,1,9.23,0v27.69A4.62,4.62,0,0,1,248.35,332.13Z"/><path class="cls-3" d="M559.34,481.22H126.65a58.74,58.74,0,0,1,0-117.47H559.33a58.74,58.74,0,0,1,0,117.47Z"/><path class="cls-10" d="M559.34,363.75H537.15a58.74,58.74,0,1,1,0,117.47h22.19a58.74,58.74,0,0,0,0-117.47Z"/><path class="cls-3" d="M126.65,481.22h22.18a58.74,58.74,0,0,1,0-117.47H126.65a58.74,58.74,0,0,0,0,117.47Z"/><path class="cls-7" d="M151.87,446.74l-24,12.59,4.58-26.66-19.37-18.88,26.77-3.89,12-24.26,12,24.26,26.77,3.89-19.37,18.88,4.57,26.66Z"/><path class="cls-7" d="M247.43,446.74l-23.94,12.59,4.57-26.66-19.37-18.88,26.77-3.89,12-24.26,12,24.26,26.77,3.89L266.8,432.67l4.57,26.66Z"/><path class="cls-7" d="M343,446.74l-23.94,12.59,4.57-26.66-19.37-18.88L331,409.9l12-24.26,12,24.26,26.77,3.89-19.38,18.88,4.58,26.66Z"/><path class="cls-7" d="M438.56,446.74l-23.95,12.59,4.58-26.66-19.37-18.88,26.77-3.89,12-24.26,12,24.26,26.77,3.89-19.37,18.88,4.57,26.66Z"/><path class="cls-7" d="M534.12,446.74l-23.94,12.59,4.57-26.66-19.37-18.88,26.77-3.89,12-24.26,12,24.26,26.77,3.89-19.37,18.88,4.57,26.66Z"/><path class="cls-4" d="M559.34,485.83H126.65a63.35,63.35,0,1,1,0-126.69H559.34a63.35,63.35,0,0,1,0,126.69ZM126.65,368.37a54.12,54.12,0,0,0,0,108.23H559.34a54.12,54.12,0,0,0,0-108.23Z"/><path class="cls-4" d="M127.92,464a4.62,4.62,0,0,1-4.54-5.4l4.16-24.27L109.9,417.09a4.62,4.62,0,0,1,2.56-7.87l24.37-3.54,10.9-22.08a4.61,4.61,0,0,1,8.28,0l10.9,22.08,24.36,3.54a4.61,4.61,0,0,1,2.56,7.87L176.2,434.28l4.16,24.27a4.62,4.62,0,0,1-6.69,4.87L151.87,452l-21.8,11.46a4.65,4.65,0,0,1-2.15.53ZM123,417l12.68,12.35a4.64,4.64,0,0,1,1.33,4.09l-3,17.44,15.67-8.23a4.61,4.61,0,0,1,4.3,0l15.66,8.23-3-17.44a4.62,4.62,0,0,1,1.33-4.09L180.69,417l-17.51-2.55a4.6,4.6,0,0,1-3.48-2.52l-7.83-15.87L144,411.94a4.59,4.59,0,0,1-3.47,2.52Z"/><path class="cls-4" d="M271.37,464a4.64,4.64,0,0,1-2.14-.53L247.43,452l-21.79,11.46a4.62,4.62,0,0,1-6.7-4.87l4.16-24.27-17.63-17.19a4.61,4.61,0,0,1,2.56-7.87l24.37-3.54,10.9-22.08a4.6,4.6,0,0,1,8.27,0l10.9,22.08,24.37,3.54a4.61,4.61,0,0,1,2.56,7.87l-17.64,17.19,4.17,24.27a4.63,4.63,0,0,1-4.56,5.4Zm-23.94-21.82a4.65,4.65,0,0,1,2.15.53l15.66,8.23-3-17.44a4.64,4.64,0,0,1,1.33-4.09L276.26,417l-17.52-2.55a4.62,4.62,0,0,1-3.48-2.52l-7.83-15.87-7.83,15.87a4.6,4.6,0,0,1-3.48,2.52L218.61,417l12.67,12.35a4.61,4.61,0,0,1,1.33,4.09l-3,17.44,15.66-8.23a4.56,4.56,0,0,1,2.15-.53Z"/><path class="cls-4" d="M366.94,464a4.68,4.68,0,0,1-2.15-.53L343,452,321.2,463.41a4.62,4.62,0,0,1-6.7-4.86l4.17-24.27L301,417.09a4.61,4.61,0,0,1,2.55-7.87L328,405.68l10.9-22.09a4.62,4.62,0,0,1,8.28,0L358,405.68l24.37,3.54a4.61,4.61,0,0,1,2.55,7.87l-17.63,17.19,4.16,24.27a4.62,4.62,0,0,1-4.55,5.4ZM343,442.13a4.65,4.65,0,0,1,2.15.53l15.67,8.23-3-17.44a4.63,4.63,0,0,1,1.32-4.09L371.82,417l-17.52-2.55a4.59,4.59,0,0,1-3.47-2.52L343,396.07l-7.83,15.87a4.59,4.59,0,0,1-3.48,2.52L314.17,417l12.67,12.36a4.6,4.6,0,0,1,1.33,4.08l-3,17.45,15.67-8.24A4.52,4.52,0,0,1,343,442.13Z"/><path class="cls-4" d="M462.5,464a4.71,4.71,0,0,1-2.15-.53L438.56,452l-21.8,11.46a4.62,4.62,0,0,1-6.69-4.87l4.16-24.27-17.64-17.19a4.62,4.62,0,0,1,2.56-7.87l24.37-3.54,10.9-22.08a4.61,4.61,0,0,1,8.28,0l10.9,22.08L478,409.22a4.61,4.61,0,0,1,2.55,7.87l-17.63,17.19,4.16,24.27a4.62,4.62,0,0,1-4.55,5.4Zm-23.94-21.82a4.71,4.71,0,0,1,2.15.53l15.66,8.23-3-17.44a4.64,4.64,0,0,1,1.33-4.09L467.38,417l-17.52-2.55a4.59,4.59,0,0,1-3.47-2.52l-7.83-15.87-7.84,15.87a4.59,4.59,0,0,1-3.47,2.52L409.73,417l12.67,12.35a4.61,4.61,0,0,1,1.33,4.09l-3,17.44,15.66-8.23A4.6,4.6,0,0,1,438.56,442.13Z"/><path class="cls-4" d="M558.06,464a4.64,4.64,0,0,1-2.14-.53L534.12,452l-21.79,11.46a4.62,4.62,0,0,1-6.7-4.87l4.16-24.27-17.63-17.19a4.61,4.61,0,0,1,2.55-7.87l24.37-3.54L530,383.6a4.6,4.6,0,0,1,8.27,0l10.9,22.08,24.37,3.54a4.62,4.62,0,0,1,2.56,7.87l-17.64,17.19,4.17,24.27a4.63,4.63,0,0,1-4.56,5.4ZM505.3,417,518,429.36a4.61,4.61,0,0,1,1.33,4.09l-3,17.44L532,442.66a4.61,4.61,0,0,1,4.3,0l15.66,8.23-3-17.44a4.64,4.64,0,0,1,1.32-4.09L562.94,417l-17.52-2.55a4.59,4.59,0,0,1-3.47-2.52l-7.83-15.87-7.84,15.87a4.59,4.59,0,0,1-3.47,2.52Z"/></g></g></svg>