<svg xmlns="http://www.w3.org/2000/svg" viewBox="0 0 685.99 685.99"><defs><style>.cls-1{fill:#fff;}.cls-2{fill:#4dbdeb;}.cls-3{fill:#00405c;}.cls-4{fill:#0075a8;}.cls-5{fill:#ffd262;}.cls-6{fill:#e4b34f;}.cls-7{fill:#ff9f70;}.cls-8{fill:#ffbd8e;}.cls-9{fill:#e18152;}.cls-10{fill:#f0f7f7;}</style></defs><g id="Layer_2" data-name="Layer 2"><g id="Layer_1-2" data-name="Layer 1"><path class="cls-1" d="M343,676A333,333,0,0,1,107.53,107.53,333,333,0,0,1,578.46,578.46,330.85,330.85,0,0,1,343,676Z"/><path class="cls-2" d="M343,20c178.39,0,323,144.61,323,323S521.38,666,343,666,20,521.38,20,343,164.61,20,343,20m0-20A343.08,343.08,0,0,0,209.48,659,343.08,343.08,0,0,0,476.51,27,340.89,340.89,0,0,0,343,0Z"/><path class="cls-3" d="M573.58,462.88H535.5a4.7,4.7,0,0,1-4.69-4.69V227.8a4.69,4.69,0,0,1,4.69-4.69h38.08a4.69,4.69,0,0,1,0,9.38H540.19v221h33.39a4.69,4.69,0,0,1,0,9.38Z"/><path class="cls-3" d="M150.48,462.88H112.4a4.69,4.69,0,0,1,0-9.38h33.4v-221H112.4a4.69,4.69,0,0,1,0-9.38h38.08a4.69,4.69,0,0,1,4.69,4.69V458.19A4.7,4.7,0,0,1,150.48,462.88Z"/><path class="cls-3" d="M612.29,347.68H73.7a4.69,4.69,0,0,1,0-9.38H612.29a4.69,4.69,0,1,1,0,9.38Z"/><circle class="cls-4" cx="74.18" cy="343.09" r="21.81" transform="translate(-58.87 18.27) rotate(-10.07)"/><circle class="cls-4" cx="112.61" cy="457.96" r="21.8"/><circle class="cls-4" cx="112.63" cy="227.93" r="21.8"/><circle class="cls-4" cx="611.7" cy="343.05" r="21.8"/><circle class="cls-4" cx="573.2" cy="458.09" r="21.8"/><circle class="cls-4" cx="573.25" cy="227.99" r="21.8"/><path class="cls-3" d="M74.05,369.48A26.49,26.49,0,1,1,100.54,343,26.52,26.52,0,0,1,74.05,369.48Zm0-43.6A17.11,17.11,0,1,0,91.16,343,17.14,17.14,0,0,0,74.05,325.88Z"/><path class="cls-3" d="M112.66,484.52A26.49,26.49,0,1,1,139.15,458,26.52,26.52,0,0,1,112.66,484.52Zm0-43.6A17.12,17.12,0,1,0,129.77,458,17.14,17.14,0,0,0,112.66,440.92Z"/><path class="cls-3" d="M112.66,254.44A26.49,26.49,0,1,1,139.15,228,26.52,26.52,0,0,1,112.66,254.44Zm0-43.6A17.12,17.12,0,1,0,129.77,228,17.14,17.14,0,0,0,112.66,210.84Z"/><path class="cls-3" d="M611.94,369.48A26.49,26.49,0,1,1,638.43,343,26.52,26.52,0,0,1,611.94,369.48Zm0-43.6A17.11,17.11,0,1,0,629.05,343,17.14,17.14,0,0,0,611.94,325.88Z"/><path class="cls-3" d="M573.33,484.52A26.49,26.49,0,1,1,599.82,458,26.52,26.52,0,0,1,573.33,484.52Zm0-43.6A17.12,17.12,0,1,0,590.44,458,17.14,17.14,0,0,0,573.33,440.92Z"/><path class="cls-3" d="M573.33,254.44A26.49,26.49,0,1,1,599.82,228,26.52,26.52,0,0,1,573.33,254.44Zm0-43.6A17.12,17.12,0,1,0,590.44,228,17.14,17.14,0,0,0,573.33,210.84Z"/><path class="cls-5" d="M507.65,319.59A164.66,164.66,0,1,0,314.52,481.73l7.74,13.41L343,531.06l20.74-35.92,7.74-13.4A164.67,164.67,0,0,0,507.65,319.59Z"/><path class="cls-6" d="M343,154.93c-4.83,0-9.6.25-14.32.66,87.07,7.37,155.45,80.32,155.45,169.3a169.88,169.88,0,0,1-96.13,153,164.63,164.63,0,0,0-45-323Z"/><path class="cls-5" d="M343,154.93c4.83,0,9.6.25,14.33.66-87.07,7.37-155.45,80.32-155.45,169.3a169.88,169.88,0,0,0,96.13,153,164.63,164.63,0,0,1,45-323Z"/><path class="cls-3" d="M343,535.75a4.7,4.7,0,0,1-4.06-2.35L311.54,486A168.91,168.91,0,0,1,173.65,319.59c0-93.38,76-169.35,169.34-169.35s169.35,76,169.35,169.35A168.91,168.91,0,0,1,374.44,486L347.06,533.4a4.71,4.71,0,0,1-4.07,2.35Zm0-376.13c-88.2,0-160,71.76-160,160A159.57,159.57,0,0,0,315.32,477.12a4.68,4.68,0,0,1,3.26,2.27L343,521.68l24.42-42.29a4.66,4.66,0,0,1,3.25-2.27A159.56,159.56,0,0,0,503,319.59c0-88.21-71.76-160-160-160Z"/><path class="cls-4" d="M318.88,345V299.56h48.44V345h43.74a30.82,30.82,0,0,1,30.64,30.88v62.86H244.28V375.64A30.76,30.76,0,0,1,275.08,345Z"/><path class="cls-7" d="M318.88,334l24,29.84L367.32,334V299.56H318.88Z"/><path class="cls-3" d="M411.06,345H400.3a30.81,30.81,0,0,1,30.64,30.87v62.87H441.7V375.89A30.82,30.82,0,0,0,411.06,345Z"/><path class="cls-2" d="M275.08,345h10.76a30.75,30.75,0,0,0-30.79,30.64v63.1H244.28V375.64A30.76,30.76,0,0,1,275.08,345Z"/><path class="cls-3" d="M282.4,439.82a2.16,2.16,0,0,1-2.16-2.15v-28a2.16,2.16,0,1,1,4.31,0v28A2.15,2.15,0,0,1,282.4,439.82Z"/><path class="cls-3" d="M403.59,439.82a2.15,2.15,0,0,1-2.15-2.15v-28a2.15,2.15,0,1,1,4.3,0v28A2.15,2.15,0,0,1,403.59,439.82Z"/><path class="cls-3" d="M441.7,440.9H244.28a2.15,2.15,0,0,1-2.15-2.15V375.64A32.9,32.9,0,0,1,275,342.85h41.69v-43.3a2.15,2.15,0,0,1,2.15-2.15h48.44a2.16,2.16,0,0,1,2.16,2.15v43.3h41.58a32.55,32.55,0,0,1,23.22,9.73,32.91,32.91,0,0,1,9.58,23.3v62.86A2.16,2.16,0,0,1,441.7,440.9Zm-195.26-4.31H439.55v-60.7a28.57,28.57,0,0,0-8.34-20.27,28.23,28.23,0,0,0-20.15-8.45H367.32a2.16,2.16,0,0,1-2.15-2.16v-43.3H321V345a2.15,2.15,0,0,1-2.15,2.16l-43.8,0h0a28.6,28.6,0,0,0-28.61,28.49v60.95Z"/><path class="cls-3" d="M387.67,210.53v-1.85a18.74,18.74,0,0,0-11.44-17.25,117.39,117.39,0,0,1-21.9-11.75l-11.32-8v0h0v0l-11.33,8a117.07,117.07,0,0,1-21.9,11.75,18.73,18.73,0,0,0-11.43,17.25v1.85a18.73,18.73,0,0,0-18.67,20.19l3.19,40.61H403.15l3.18-40.61A18.72,18.72,0,0,0,387.67,210.53Z"/><path class="cls-4" d="M387.67,210.53v-1.85a18.74,18.74,0,0,0-11.44-17.25,117.39,117.39,0,0,1-21.9-11.75l-11.31-8c4.42,9,15.23,16.48,22.88,19.71a18.73,18.73,0,0,1,11.43,17.25,2,2,0,0,0,1.77,1.94A18.71,18.71,0,0,1,396,230.72l-3.18,40.61h10.33l3.19-40.61a18.72,18.72,0,0,0-18.66-20.19Z"/><path class="cls-4" d="M298.32,210.53v-1.85a18.73,18.73,0,0,1,11.43-17.25,117.07,117.07,0,0,0,21.9-11.75l11.31-8c-4.41,9-15.22,16.48-22.87,19.71a18.73,18.73,0,0,0-11.43,17.25,2,2,0,0,1-1.78,1.94A18.71,18.71,0,0,0,290,230.72l3.19,40.61H282.84l-3.19-40.61a18.73,18.73,0,0,1,18.67-20.19Z"/><path class="cls-3" d="M403.14,273.49H282.84a2.17,2.17,0,0,1-2.15-2l-3.18-40.61a20.87,20.87,0,0,1,18.65-22.4,20.86,20.86,0,0,1,12.75-19,113.09,113.09,0,0,0,21.5-11.53L341.6,170a2.08,2.08,0,0,1,.38-.25,2.22,2.22,0,0,1,2,0,2.7,2.7,0,0,1,.39.27l11.18,7.87a113.09,113.09,0,0,0,21.5,11.53,20.83,20.83,0,0,1,12.75,19,20.88,20.88,0,0,1,18.66,22.4l-3.19,40.61a2.16,2.16,0,0,1-2.15,2Zm-118.31-4.31H401.15l3-38.63a16.58,16.58,0,0,0-16.52-17.86,2.15,2.15,0,0,1-2.15-2.15v-1.86a16.55,16.55,0,0,0-10.12-15.26,117.88,117.88,0,0,1-22.31-12L343,174.33l-10.1,7.11a117.46,117.46,0,0,1-22.3,12,16.54,16.54,0,0,0-10.12,15.26v1.85a2.16,2.16,0,0,1-2.15,2.16,16.56,16.56,0,0,0-16.52,17.86Z"/><path class="cls-8" d="M295,258.09h-3.43a16.05,16.05,0,0,0,0,32.1H295Z"/><path class="cls-9" d="M394.48,258.09h-3.43v32.1h3.43a16.05,16.05,0,0,0,0-32.1Z"/><path class="cls-7" d="M343,339.66c-26.52,0-48-21.77-48-48.64V257.35c0-26.86,21.5-48.64,48-48.64s48,21.78,48,48.64V291C391.05,317.89,369.56,339.66,343,339.66Z"/><path class="cls-9" d="M343,208.71a49.12,49.12,0,0,0-5.46.32c23.95,2.75,42.56,23.33,42.56,48.32V291c0,25-18.61,45.58-42.56,48.32a46.81,46.81,0,0,0,5.46.33c26.52,0,48-21.78,48-48.64V257.35c0-26.86-21.49-48.64-48-48.64Z"/><path class="cls-8" d="M343,208.71a49.08,49.08,0,0,1,5.45.32c-23.94,2.75-42.56,23.33-42.56,48.32V291c0,25,18.62,45.58,42.56,48.32a46.77,46.77,0,0,1-5.45.33c-26.52,0-48-21.78-48-48.64V257.35c0-26.86,21.5-48.64,48-48.64Z"/><path class="cls-3" d="M343,341.82c-27.67,0-50.17-22.79-50.17-50.8V257.35c0-28,22.5-50.79,50.17-50.79s50.17,22.78,50.17,50.79V291C393.21,319,370.7,341.82,343,341.82Zm0-131c-25.29,0-45.86,20.86-45.86,46.49V291c0,25.64,20.57,46.49,45.86,46.49S388.9,316.66,388.9,291V257.35c0-25.63-20.57-46.49-45.86-46.49Z"/><path class="cls-3" d="M295,292.34h-3.43a18.2,18.2,0,0,1,0-36.4H295a2.15,2.15,0,0,1,2.15,2.15v32.1A2.15,2.15,0,0,1,295,292.34Zm-3.43-32.09a13.89,13.89,0,0,0,0,27.78h1.28V260.25Z"/><path class="cls-3" d="M394.48,292.34h-3.43a2.15,2.15,0,0,1-2.15-2.15v-32.1a2.15,2.15,0,0,1,2.15-2.15h3.43a18.2,18.2,0,0,1,0,36.4ZM393.21,288h1.27a13.89,13.89,0,0,0,0-27.78h-1.27Z"/><path class="cls-10" d="M367.32,334l-24.44,29.84L370.36,384l7.31-39Z"/><path class="cls-10" d="M318.88,334l24,29.84L315.63,384l-7.31-39Z"/><path class="cls-3" d="M370.36,386.19a2.16,2.16,0,0,1-1.28-.42L341.6,365.59a2.12,2.12,0,0,1-.86-1.46,2.2,2.2,0,0,1,.47-1.64l24.45-29.85a2.13,2.13,0,0,1,1.59-.78,2.18,2.18,0,0,1,1.64.67l10.35,11a2.13,2.13,0,0,1,.54,1.87l-7.31,39a2.13,2.13,0,0,1-1.32,1.61,2.17,2.17,0,0,1-.79.15ZM346,363.46l22.89,16.81,6.48-34.58-7.92-8.42Z"/><path class="cls-3" d="M315.63,386.19a2.13,2.13,0,0,1-.79-.15,2.16,2.16,0,0,1-1.33-1.61l-7.31-39a2.14,2.14,0,0,1,.56-1.88l10.57-11a2.15,2.15,0,0,1,3.23.14l24,29.84a2.18,2.18,0,0,1,.45,1.63,2.11,2.11,0,0,1-.85,1.45l-27.25,20.19a2.16,2.16,0,0,1-1.28.42Zm-5-40.49,6.47,34.56,22.68-16.8-21.05-26.19Z"/><path class="cls-2" d="M325.6,376.65l17.28,19.22,17.39-19.24-17.39-12.78Z"/><path class="cls-2" d="M325.6,438.74l17.28-42.87,17.39,42.9H342.88Z"/><path class="cls-3" d="M342.88,398h0a2.13,2.13,0,0,1-1.59-.71L324,378.09a2.09,2.09,0,0,1-.54-1.65,2.14,2.14,0,0,1,.86-1.52l17.28-12.79a2.13,2.13,0,0,1,2.55,0l17.4,12.78a2.14,2.14,0,0,1,.32,3.18l-17.39,19.24A2.16,2.16,0,0,1,342.88,398Zm-14.1-21,14.1,15.67L357.08,377l-14.2-10.43Z"/><path class="cls-3" d="M360.27,440.92h0l-34.67,0a2.15,2.15,0,0,1-2-3l17.28-42.87a2.15,2.15,0,0,1,2-1.35h0a2.15,2.15,0,0,1,2,1.34l17.4,42.9a2.15,2.15,0,0,1-2,3Zm-31.48-4.33,28.29,0-14.2-35Z"/><path class="cls-3" d="M392.9,419.47H367.32a2.15,2.15,0,1,1,0-4.3H392.9a2.15,2.15,0,1,1,0,4.3Z"/></g></g></svg>