<svg xmlns="http://www.w3.org/2000/svg" viewBox="0 0 685.99 685.99"><defs><style>.cls-1{fill:#fff;}.cls-2{fill:#4dbdeb;}.cls-3{fill:#f0f7f7;}.cls-4{fill:#ceeae9;}.cls-5{fill:#0075a8;}.cls-6{fill:#00405c;}.cls-7{fill:#ffd262;}.cls-8{fill:#e4b34f;}</style></defs><g id="Layer_2" data-name="Layer 2"><g id="Layer_1-2" data-name="Layer 1"><path class="cls-1" d="M343,676A333,333,0,0,1,107.53,107.53,333,333,0,0,1,578.46,578.46,330.85,330.85,0,0,1,343,676Z"/><path class="cls-2" d="M343,20c178.39,0,323,144.61,323,323S521.38,666,343,666,20,521.38,20,343,164.61,20,343,20m0-20A343.08,343.08,0,0,0,209.48,659,343.08,343.08,0,0,0,476.51,27,340.89,340.89,0,0,0,343,0Z"/><path class="cls-3" d="M568.6,489H117.39a17.34,17.34,0,0,1-17.34-17.34V193.86a17.34,17.34,0,0,1,17.34-17.34H568.6a17.34,17.34,0,0,1,17.34,17.34V471.67A17.34,17.34,0,0,1,568.6,489Z"/><path class="cls-4" d="M568.6,176.52H549a17.34,17.34,0,0,1,17.34,17.34V471.67A17.34,17.34,0,0,1,549,489H568.6a17.34,17.34,0,0,0,17.34-17.34V193.86A17.34,17.34,0,0,0,568.6,176.52Z"/><path class="cls-1" d="M117.39,489H137a17.34,17.34,0,0,1-17.34-17.34V193.86A17.34,17.34,0,0,1,137,176.52H117.39a17.34,17.34,0,0,0-17.34,17.34V471.67A17.34,17.34,0,0,0,117.39,489Z"/><path class="cls-5" d="M501.5,553.39h-317V530.17a17.34,17.34,0,0,1,17.34-17.34H484.16a17.34,17.34,0,0,1,17.34,17.34Z"/><path class="cls-5" d="M484.16,512.83H464.57a17.34,17.34,0,0,1,17.34,17.34v23.22H501.5V530.17A17.34,17.34,0,0,0,484.16,512.83Z"/><path class="cls-5" d="M201.83,512.83h19.59a17.34,17.34,0,0,0-17.34,17.34v23.22H184.49V530.17A17.34,17.34,0,0,1,201.83,512.83Z"/><path class="cls-5" d="M249.94,489H436.05v23.82H249.94Z"/><path class="cls-6" d="M115.72,249.41a3.93,3.93,0,0,1-3.92-3.92V222a3.92,3.92,0,0,1,7.84,0v23.51A3.93,3.93,0,0,1,115.72,249.41Z"/><path class="cls-6" d="M501.5,557.31h-317a3.93,3.93,0,0,1-3.92-3.92V530.17a21.28,21.28,0,0,1,21.26-21.26H484.16a21.28,21.28,0,0,1,21.26,21.26v23.22A3.92,3.92,0,0,1,501.5,557.31Zm-313.09-7.84H497.58v-19.3a13.43,13.43,0,0,0-13.42-13.42H201.83a13.44,13.44,0,0,0-13.43,13.42v19.3Z"/><path class="cls-6" d="M436.05,516.75H249.94a3.92,3.92,0,0,1-3.92-3.92V489a3.92,3.92,0,0,1,3.92-3.92H436.05A3.92,3.92,0,0,1,440,489v23.82A3.92,3.92,0,0,1,436.05,516.75Zm-182.2-7.84H432.13v-16H253.85Z"/><path class="cls-6" d="M568.6,492.93H117.39a21.29,21.29,0,0,1-21.26-21.26V193.86a21.27,21.27,0,0,1,21.26-21.26H568.6a21.28,21.28,0,0,1,21.26,21.26V471.67A21.29,21.29,0,0,1,568.6,492.93ZM117.39,180.43A13.45,13.45,0,0,0,104,193.86V471.67a13.44,13.44,0,0,0,13.43,13.42H568.6A13.43,13.43,0,0,0,582,471.67V193.86a13.44,13.44,0,0,0-13.42-13.43Z"/><path class="cls-2" d="M210.44,356.28h28.44v28.43H210.44Z"/><path class="cls-2" d="M447.11,356.28h28.43v28.43H447.11Z"/><path class="cls-7" d="M343,258.4,282,324l23.31,106.19h75.45L404,324Z"/><path class="cls-6" d="M380.72,434.15H305.27a3.93,3.93,0,0,1-3.83-3.07l-23.31-106.2a3.89,3.89,0,0,1,1-3.51l61-65.64a4,4,0,0,1,5.74,0l61,65.64a4,4,0,0,1,1,3.51l-23.32,106.2A3.91,3.91,0,0,1,380.72,434.15Zm-72.3-7.83h69.15L399.76,325.2l-56.77-61-56.77,61Z"/><circle class="cls-5" cx="192.45" cy="237.95" r="20.46"/><circle class="cls-5" cx="493.54" cy="237.95" r="20.46"/><path class="cls-6" d="M192.45,262.32A24.38,24.38,0,1,1,216.83,238a24.39,24.39,0,0,1-24.38,24.37Zm0-40.91A16.54,16.54,0,1,0,209,238,16.55,16.55,0,0,0,192.45,221.41Z"/><path class="cls-6" d="M493.54,262.32A24.38,24.38,0,1,1,517.91,238a24.4,24.4,0,0,1-24.37,24.37Zm0-40.91A16.54,16.54,0,1,0,510.07,238,16.56,16.56,0,0,0,493.54,221.41Z"/><circle class="cls-5" cx="342.93" cy="340.29" r="14.48" transform="translate(-88.3 558.08) rotate(-71.57)"/><path class="cls-6" d="M343,358.71a18.41,18.41,0,1,1,18.41-18.4A18.43,18.43,0,0,1,343,358.71Zm0-29a10.57,10.57,0,1,0,10.57,10.57A10.58,10.58,0,0,0,343,329.74Z"/><path class="cls-6" d="M461.33,360.2a3.92,3.92,0,0,1-3.92-3.92,114.42,114.42,0,0,0-228.83,0,3.92,3.92,0,0,1-7.84,0,122.25,122.25,0,0,1,244.5,0,3.92,3.92,0,0,1-3.91,3.92Z"/><path class="cls-6" d="M473.08,241.87H212.91a3.92,3.92,0,1,1,0-7.84H473.08a3.92,3.92,0,1,1,0,7.84Z"/><path class="cls-6" d="M238.88,388.63H210.44a3.91,3.91,0,0,1-3.91-3.91V356.28a3.92,3.92,0,0,1,3.91-3.92h28.44a3.93,3.93,0,0,1,3.92,3.92v28.44A3.92,3.92,0,0,1,238.88,388.63Zm-24.52-7.83H235V360.2h-20.6Z"/><path class="cls-6" d="M475.54,388.63H447.11a3.92,3.92,0,0,1-3.92-3.91V356.28a3.93,3.93,0,0,1,3.92-3.92h28.44a3.92,3.92,0,0,1,3.91,3.92v28.44a3.91,3.91,0,0,1-3.92,3.91ZM451,380.8h20.6V360.2H451Z"/><path class="cls-6" d="M343,329.74a3.92,3.92,0,0,1-3.91-3.92V258.4a3.92,3.92,0,0,1,7.83,0v67.42A3.91,3.91,0,0,1,343,329.74Z"/><path class="cls-8" d="M386.07,455.88H299.92a12.83,12.83,0,0,1,0-25.65h86.15a12.83,12.83,0,0,1,0,25.65Z"/><path class="cls-6" d="M386.07,459.8H299.92a16.74,16.74,0,0,1,0-33.48h86.15a16.74,16.74,0,0,1,0,33.48Zm-86.15-25.65a8.91,8.91,0,0,0,0,17.81h86.15a8.91,8.91,0,0,0,0-17.81Z"/></g></g></svg>