<svg xmlns="http://www.w3.org/2000/svg" viewBox="0 0 685.99 685.99"><defs><style>.cls-1{fill:#fff;}.cls-2{fill:#4dbdeb;}.cls-3{fill:#0075a8;}.cls-4{fill:#ffd262;}.cls-5{fill:#e4b34f;}.cls-6{fill:#00405c;}.cls-7{fill:#f0f7f7;}</style></defs><g id="Layer_2" data-name="Layer 2"><g id="Layer_1-2" data-name="Layer 1"><path class="cls-1" d="M343,676A333,333,0,0,1,107.53,107.53,333,333,0,0,1,578.46,578.46,330.85,330.85,0,0,1,343,676Z"/><path class="cls-2" d="M343,20c178.39,0,323,144.61,323,323S521.38,666,343,666,20,521.38,20,343,164.61,20,343,20m0-20A343.08,343.08,0,0,0,209.48,659,343.08,343.08,0,0,0,476.51,27,340.89,340.89,0,0,0,343,0Z"/><path class="cls-3" d="M191.54,112.12a32.9,32.9,0,0,0-32.9,32.9V158.1h65.8V145A32.9,32.9,0,0,0,191.54,112.12Z"/><path class="cls-3" d="M494.45,112.12a32.9,32.9,0,0,0-32.9,32.9V158.1h65.8V145A32.9,32.9,0,0,0,494.45,112.12Z"/><path class="cls-4" d="M231.06,573.87H152V561a18.75,18.75,0,0,1,18.76-18.75H212.3A18.75,18.75,0,0,1,231.06,561Z"/><path class="cls-4" d="M534,573.87h-79V561a18.75,18.75,0,0,1,18.76-18.75h41.52A18.75,18.75,0,0,1,534,561Z"/><path class="cls-3" d="M472.39,462.62H516.5v79.67H472.39Z"/><path class="cls-5" d="M515.21,542.29H498.33A18.75,18.75,0,0,1,517.09,561v12.83H534V561A18.75,18.75,0,0,0,515.21,542.29Z"/><path class="cls-4" d="M170.78,542.29h16.88A18.75,18.75,0,0,0,168.9,561v12.83H152V561A18.75,18.75,0,0,1,170.78,542.29Z"/><path class="cls-3" d="M169.48,462.62h44.11v79.67H169.48Z"/><path class="cls-6" d="M503.38,462.62H516.5v79.67H503.38Z"/><path class="cls-2" d="M169.48,462.62h13.13v79.67H169.48Z"/><path class="cls-4" d="M482,158.1h24.82v18.75H482Z"/><path class="cls-4" d="M179.13,158.1H204v18.75H179.13Z"/><path class="cls-6" d="M494.45,112.12a33,33,0,0,0-7.5.89,32.9,32.9,0,0,1,25.4,32V158.1h15V145A32.9,32.9,0,0,0,494.45,112.12Z"/><path class="cls-2" d="M191.54,112.12a33.11,33.11,0,0,1,7.5.89,32.9,32.9,0,0,0-25.4,32V158.1h-15V145A32.9,32.9,0,0,1,191.54,112.12Z"/><path class="cls-7" d="M556.81,462.62H129.18a18.75,18.75,0,0,1-18.75-18.76V195.61a18.75,18.75,0,0,1,18.75-18.76H556.81a18.76,18.76,0,0,1,18.75,18.76V443.86a18.76,18.76,0,0,1-18.75,18.76Z"/><path class="cls-7" d="M556.81,176.85H538.05a18.76,18.76,0,0,1,18.76,18.76V443.86a18.76,18.76,0,0,1-18.76,18.76h18.76a18.76,18.76,0,0,0,18.75-18.76V195.61A18.76,18.76,0,0,0,556.81,176.85Z"/><path class="cls-1" d="M129.18,462.62h18.76a18.76,18.76,0,0,1-18.76-18.76V195.61a18.76,18.76,0,0,1,18.76-18.76H129.18a18.75,18.75,0,0,0-18.75,18.76V443.86a18.75,18.75,0,0,0,18.75,18.76Z"/><path class="cls-4" d="M440.14,311A97.15,97.15,0,1,0,326.19,406.7l4.57,7.91L343,435.8l12.24-21.19,4.56-7.91A97.16,97.16,0,0,0,440.14,311Z"/><path class="cls-7" d="M287.46,324.13h9.47V285.75h-9.47a19.19,19.19,0,1,0,0,38.38Z"/><path class="cls-7" d="M350.93,283.06l49.89-26.43v96.63l-49.89-26.44Z"/><path class="cls-7" d="M323.93,381a8.41,8.41,0,0,1-8.41-8.41V311.06h16.82v61.52A8.4,8.4,0,0,1,323.93,381Z"/><path class="cls-6" d="M323.93,384.74a12.17,12.17,0,0,1-12.16-12.16V311.06a3.75,3.75,0,0,1,3.75-3.76h16.82a3.76,3.76,0,0,1,3.76,3.76v61.52A12.18,12.18,0,0,1,323.93,384.74Zm-4.66-69.93v57.77a4.66,4.66,0,0,0,9.32,0V314.81Z"/><path class="cls-3" d="M343,333.53H304.87a7.94,7.94,0,0,1-7.94-7.94V284.3a7.93,7.93,0,0,1,7.94-7.94H343a7.93,7.93,0,0,1,7.94,7.94v41.29A7.94,7.94,0,0,1,343,333.53Z"/><path class="cls-7" d="M404.25,315.31h-3.43V294.57h3.43a10.37,10.37,0,0,1,0,20.74Z"/><path class="cls-6" d="M404.25,319.06h-3.43a3.75,3.75,0,0,1-3.76-3.75V294.57a3.75,3.75,0,0,1,3.76-3.75h3.43a14.12,14.12,0,0,1,0,28.24Zm.32-20.73v13.22a6.62,6.62,0,0,0,0-13.22Z"/><path class="cls-6" d="M400.82,357a3.76,3.76,0,0,1-1.76-.44l-49.88-26.43a3.76,3.76,0,0,1-2-3.32V283.06a3.76,3.76,0,0,1,2-3.32l49.88-26.43a3.75,3.75,0,0,1,5.51,3.32v96.63a3.75,3.75,0,0,1-1.82,3.21A3.7,3.7,0,0,1,400.82,357Zm-46.14-32.44L397.06,347V262.86l-42.38,22.46Z"/><path class="cls-6" d="M296.93,327.88h-9.48a22.94,22.94,0,0,1,0-45.88h9.48a3.75,3.75,0,0,1,3.75,3.75v38.39a3.74,3.74,0,0,1-3.75,3.74Zm-9.47-38.38a15.44,15.44,0,1,0,0,30.88h5.72V289.5Z"/><path class="cls-6" d="M343,337.28H304.87a11.7,11.7,0,0,1-11.69-11.69v-41.3a11.7,11.7,0,0,1,11.69-11.69H343a11.7,11.7,0,0,1,11.69,11.69v41.3A11.7,11.7,0,0,1,343,337.28Zm-38.12-57.17a4.19,4.19,0,0,0-4.19,4.18v41.3a4.2,4.2,0,0,0,4.19,4.19H343a4.2,4.2,0,0,0,4.19-4.19v-41.3a4.19,4.19,0,0,0-4.19-4.18Z"/><path class="cls-6" d="M343,439.55a3.74,3.74,0,0,1-3.24-1.88l-15.94-27.6a100.9,100.9,0,1,1,38.37,0l-15.93,27.6a3.78,3.78,0,0,1-3.26,1.88Zm0-221.91A93.38,93.38,0,0,0,326.84,403a3.79,3.79,0,0,1,2.61,1.82L343,428.29l13.55-23.47a3.76,3.76,0,0,1,2.61-1.82A93.38,93.38,0,0,0,343,217.64Z"/><path class="cls-6" d="M556.81,466.37H129.18a22.53,22.53,0,0,1-22.5-22.51V195.61a22.53,22.53,0,0,1,22.5-22.51H556.81a22.53,22.53,0,0,1,22.5,22.51V443.86A22.53,22.53,0,0,1,556.81,466.37ZM129.18,180.6a15,15,0,0,0-15,15V443.86a15,15,0,0,0,15,15H556.81a15,15,0,0,0,15-15V195.61a15,15,0,0,0-15-15Z"/><path class="cls-6" d="M527.35,161.85h-65.8a3.75,3.75,0,0,1-3.76-3.75V145a36.66,36.66,0,0,1,73.31,0V158.1A3.75,3.75,0,0,1,527.35,161.85Zm-62.05-7.51h58.3V145a29.15,29.15,0,0,0-58.3,0Z"/><path class="cls-6" d="M506.86,180.6H482a3.75,3.75,0,0,1-3.75-3.75V158.1a3.75,3.75,0,0,1,3.75-3.76h24.82a3.75,3.75,0,0,1,3.75,3.76v18.75A3.75,3.75,0,0,1,506.86,180.6Zm-21.07-7.5h17.32V161.85H485.79Z"/><path class="cls-6" d="M534,577.62h-79a3.75,3.75,0,0,1-3.75-3.75V561a22.52,22.52,0,0,1,22.5-22.5h41.53A22.53,22.53,0,0,1,537.72,561v12.83A3.75,3.75,0,0,1,534,577.62Zm-75.29-7.5h71.54V561a15,15,0,0,0-15-15H473.69a15,15,0,0,0-15,15Z"/><path class="cls-6" d="M224.44,161.85h-65.8a3.75,3.75,0,0,1-3.76-3.75V145a36.66,36.66,0,0,1,73.31,0V158.1A3.74,3.74,0,0,1,224.44,161.85Zm-62.05-7.51h58.3V145a29.15,29.15,0,0,0-58.3,0Z"/><path class="cls-6" d="M204,180.6H179.13a3.75,3.75,0,0,1-3.75-3.75V158.1a3.75,3.75,0,0,1,3.75-3.76H204a3.75,3.75,0,0,1,3.75,3.76v18.75A3.75,3.75,0,0,1,204,180.6Zm-21.07-7.5H200.2V161.85H182.88Z"/><path class="cls-6" d="M213.59,546H169.48a3.75,3.75,0,0,1-3.75-3.75V462.62a3.75,3.75,0,0,1,3.75-3.75h44.11a3.75,3.75,0,0,1,3.76,3.75v79.67A3.75,3.75,0,0,1,213.59,546Zm-40.36-7.5h36.61V466.37H173.23Z"/><path class="cls-6" d="M516.5,546H472.39a3.75,3.75,0,0,1-3.75-3.75V462.62a3.75,3.75,0,0,1,3.75-3.75H516.5a3.76,3.76,0,0,1,3.76,3.75v79.67A3.76,3.76,0,0,1,516.5,546Zm-40.36-7.5h36.61V466.37H476.14Z"/><path class="cls-6" d="M231.06,577.62H152a3.75,3.75,0,0,1-3.75-3.75V561a22.53,22.53,0,0,1,22.51-22.5H212.3A22.53,22.53,0,0,1,234.81,561v12.83A3.75,3.75,0,0,1,231.06,577.62Zm-75.29-7.5h71.54V561a15,15,0,0,0-15-15H170.78a15,15,0,0,0-15,15Z"/><path class="cls-6" d="M129.18,267.75a3.75,3.75,0,0,1-3.75-3.75V241.49a3.75,3.75,0,0,1,7.5,0V264A3.75,3.75,0,0,1,129.18,267.75Z"/></g></g></svg>