<svg xmlns="http://www.w3.org/2000/svg" viewBox="0 0 691.91 691.91"><defs><style>.cls-1{fill:#fff;}.cls-2{fill:#4dbdeb;}.cls-3{fill:#f0f7f7;}.cls-4{fill:#ffd262;}.cls-5{fill:#0075a8;}.cls-6{fill:#00405c;}</style></defs><g id="Layer_2" data-name="Layer 2"><g id="Layer_1-2" data-name="Layer 1"><path class="cls-1" d="M346,681.91A336,336,0,0,1,108.4,108.4,336,336,0,1,1,583.51,583.51,333.72,333.72,0,0,1,346,681.91Z"/><path class="cls-2" d="M346,20c180,0,326,145.94,326,326S526,671.91,346,671.91,20,526,20,346,165.94,20,346,20m0-20A345.86,345.86,0,0,0,101.33,590.58,346,346,0,1,0,480.62,27.2,343.7,343.7,0,0,0,346,0Z"/><path class="cls-3" d="M571.56,480.28H120.35A17.34,17.34,0,0,1,103,462.94V185.12a17.34,17.34,0,0,1,17.34-17.34H571.56a17.34,17.34,0,0,1,17.34,17.34V462.94A17.34,17.34,0,0,1,571.56,480.28Z"/><path class="cls-4" d="M139.94,193.69H552V454.37h-412Z"/><path class="cls-5" d="M375.85,253l29.59-3-58.62,58.63,14.51,14.51L420,264.54l-3,29.59,20.42,2.06,7.12-70.72L373.8,232.6Z"/><path class="cls-5" d="M316.06,395.05l-29.59,3,58.62-58.63-14.51-14.51L272,383.52l3-29.59-20.42-2.06-7.12,70.72,70.71-7.13Z"/><path class="cls-3" d="M571.56,167.78H552a17.34,17.34,0,0,1,17.34,17.34V462.94A17.34,17.34,0,0,1,552,480.28h19.59a17.34,17.34,0,0,0,17.34-17.34V185.12A17.34,17.34,0,0,0,571.56,167.78Z"/><path class="cls-1" d="M120.35,480.28h19.59a17.34,17.34,0,0,1-17.34-17.34V185.12a17.34,17.34,0,0,1,17.34-17.34H120.35A17.34,17.34,0,0,0,103,185.12V462.94A17.34,17.34,0,0,0,120.35,480.28Z"/><path class="cls-5" d="M504.46,544.66h-317V521.43a17.34,17.34,0,0,1,17.34-17.34H487.12a17.34,17.34,0,0,1,17.34,17.34Z"/><path class="cls-6" d="M487.12,504.09H467.53a17.34,17.34,0,0,1,17.34,17.34v23.23h19.59V521.43A17.34,17.34,0,0,0,487.12,504.09Z"/><path class="cls-2" d="M204.79,504.09h19.59A17.34,17.34,0,0,0,207,521.43v23.23H187.45V521.43A17.34,17.34,0,0,1,204.79,504.09Z"/><path class="cls-6" d="M252.9,480.28H439v23.81H252.9Z"/><path class="cls-6" d="M118.68,240.68a3.93,3.93,0,0,1-3.92-3.92V213.25a3.92,3.92,0,1,1,7.84,0v23.51A3.93,3.93,0,0,1,118.68,240.68Z"/><path class="cls-6" d="M504.46,548.58h-317a3.93,3.93,0,0,1-3.92-3.92V521.43a21.28,21.28,0,0,1,21.26-21.25H487.12a21.27,21.27,0,0,1,21.26,21.25v23.23A3.92,3.92,0,0,1,504.46,548.58Zm-313.09-7.84H500.54V521.43A13.43,13.43,0,0,0,487.12,508H204.79a13.43,13.43,0,0,0-13.42,13.42v19.31Z"/><path class="cls-6" d="M439,508H252.9a3.91,3.91,0,0,1-3.92-3.92V480.28a3.92,3.92,0,0,1,3.92-3.92H439a3.92,3.92,0,0,1,3.92,3.92v23.81A3.91,3.91,0,0,1,439,508Zm-182.19-7.83H435.1v-16H256.82Z"/><path class="cls-6" d="M571.56,484.2H120.35a21.29,21.29,0,0,1-21.26-21.26V185.12a21.28,21.28,0,0,1,21.26-21.26H571.56a21.29,21.29,0,0,1,21.26,21.26V462.94A21.28,21.28,0,0,1,571.56,484.2ZM120.35,171.7a13.43,13.43,0,0,0-13.42,13.42V462.94a13.43,13.43,0,0,0,13.42,13.42H571.56A13.44,13.44,0,0,0,585,462.94V185.12a13.44,13.44,0,0,0-13.43-13.42Z"/><path class="cls-6" d="M552,458.29h-412a3.93,3.93,0,0,1-3.92-3.92V193.69a3.93,3.93,0,0,1,3.92-3.92H552a3.93,3.93,0,0,1,3.92,3.92V454.37A3.92,3.92,0,0,1,552,458.29Zm-408.11-7.84H548.05V197.61H143.86Z"/><path class="cls-6" d="M361.33,327.08a3.92,3.92,0,0,1-2.77-1.14l-14.51-14.51a3.92,3.92,0,0,1,0-5.54L394.9,255l-18.65,1.88A3.92,3.92,0,0,1,372,253.4L369.9,233a4,4,0,0,1,.86-2.87,3.89,3.89,0,0,1,2.65-1.42l70.71-7.13a3.92,3.92,0,0,1,3.16,1.13,3.88,3.88,0,0,1,1.13,3.16l-7.12,70.72a3.85,3.85,0,0,1-1.42,2.64,3.94,3.94,0,0,1-2.87.87L416.58,298a3.93,3.93,0,0,1-3.51-4.29L415,275.08,364.1,325.94a3.92,3.92,0,0,1-2.77,1.14Zm-9-18.42,9,9,55.85-55.85a3.92,3.92,0,0,1,6.67,3.16l-2.58,25.7,12.62,1.27,6.24-62-62,6.25,1.27,12.62,25.69-2.59a3.92,3.92,0,0,1,3.16,6.67Z"/><path class="cls-6" d="M247.4,426.51a3.93,3.93,0,0,1-3.9-4.32l7.12-70.71a3.93,3.93,0,0,1,4.29-3.51L275.33,350a3.89,3.89,0,0,1,2.65,1.42,4,4,0,0,1,.86,2.87L277,373l50.85-50.85a3.91,3.91,0,0,1,5.54,0l14.51,14.51a3.92,3.92,0,0,1,0,5.54L297,393l18.66-1.88a3.91,3.91,0,0,1,4.29,3.51L322,415.07a3.9,3.9,0,0,1-.86,2.88,4,4,0,0,1-2.64,1.42l-70.72,7.12-.39,0ZM258,356.16l-6.25,62,62-6.25-1.27-12.62-25.69,2.59a3.92,3.92,0,0,1-3.16-6.67l55.85-55.86-9-9-55.86,55.85a3.92,3.92,0,0,1-6.67-3.16l2.59-25.7Z"/><path class="cls-3" d="M579.67,544.66H444.93a9.24,9.24,0,0,1-9.24-9.24V324.83a9.24,9.24,0,0,1,9.24-9.23H579.67a9.23,9.23,0,0,1,9.23,9.23V535.42a9.24,9.24,0,0,1-9.23,9.24Z"/><circle class="cls-6" cx="512.3" cy="520.71" r="9.13"/><path class="cls-3" d="M579.67,315.6H566.51a9.23,9.23,0,0,1,9.24,9.23V535.42a9.24,9.24,0,0,1-9.24,9.24h13.16a9.24,9.24,0,0,0,9.23-9.24V324.83a9.23,9.23,0,0,0-9.23-9.23Z"/><path class="cls-1" d="M444.93,544.66h13.15a9.24,9.24,0,0,1-9.23-9.24V324.83a9.23,9.23,0,0,1,9.23-9.23H444.93a9.24,9.24,0,0,0-9.24,9.23V535.42A9.24,9.24,0,0,0,444.93,544.66Z"/><path class="cls-5" d="M541.72,337.4H482.88a9.23,9.23,0,0,1-8.51-5.63l-6.85-16.17h89.55l-6.85,16.17a9.23,9.23,0,0,1-8.5,5.63Z"/><path class="cls-6" d="M579.67,548.58H444.93a13.18,13.18,0,0,1-13.16-13.16V324.83a13.17,13.17,0,0,1,13.16-13.15H579.67a13.17,13.17,0,0,1,13.15,13.15V535.42a13.17,13.17,0,0,1-13.15,13.16ZM444.93,319.51a5.33,5.33,0,0,0-5.32,5.32V535.42a5.33,5.33,0,0,0,5.32,5.32H579.67a5.33,5.33,0,0,0,5.32-5.32V324.83a5.33,5.33,0,0,0-5.32-5.32Z"/><path class="cls-6" d="M541.72,341.32H482.88a13.14,13.14,0,0,1-12.12-8l-6.85-16.18a3.92,3.92,0,0,1,3.61-5.44h89.55a3.93,3.93,0,0,1,3.27,1.75,3.88,3.88,0,0,1,.34,3.69l-6.85,16.18a13.13,13.13,0,0,1-12.11,8Zm-68.28-21.81L478,330.24a5.31,5.31,0,0,0,4.9,3.25h58.84a5.3,5.3,0,0,0,4.89-3.25l4.55-10.73Z"/><path class="cls-4" d="M452.24,370.07H572.36V490.19H452.24Z"/><path class="cls-6" d="M572.36,494.1H452.24a3.92,3.92,0,0,1-3.92-3.92V370.07a3.92,3.92,0,0,1,3.92-3.92H572.36a3.92,3.92,0,0,1,3.92,3.92V490.18A3.92,3.92,0,0,1,572.36,494.1Zm-116.2-7.83H568.44V374H456.16Z"/><path class="cls-6" d="M525.74,398.19l13.31-1.35-26.36,26.37,6.52,6.53,26.37-26.37-1.34,13.31,9.18.93,3.21-31.81L524.82,389Z"/><path class="cls-6" d="M498.85,462.07l-13.31,1.34L511.91,437l-6.53-6.52L479,456.88l1.34-13.31-9.19-.92L468,474.46l31.81-3.21Z"/></g></g></svg>