<svg xmlns="http://www.w3.org/2000/svg" viewBox="0 0 685.99 685.99"><defs><style>.cls-1{fill:#fff;}.cls-2{fill:#4dbdeb;}.cls-3{fill:#0075a8;}.cls-4{fill:#f44336;}.cls-5{fill:#e53935;}.cls-6{fill:#6bb7bf;}.cls-7{fill:#599dad;}.cls-8{fill:#ffd262;}.cls-9{fill:#e4b34f;}</style></defs><g id="Layer_2" data-name="Layer 2"><g id="Layer_1-2" data-name="Layer 1"><path class="cls-1" d="M343,676A333,333,0,0,1,107.53,107.53,333,333,0,0,1,578.46,578.46,330.85,330.85,0,0,1,343,676Z"/><path class="cls-2" d="M343,20c178.39,0,323,144.61,323,323S521.38,666,343,666,20,521.38,20,343,164.61,20,343,20m0-20A343.08,343.08,0,0,0,209.48,659,343.08,343.08,0,0,0,476.51,27,340.89,340.89,0,0,0,343,0Z"/><path class="cls-3" d="M587.49,297a4,4,0,0,1,4,4v42a249,249,0,0,1-4.26,46c-21.66,115.82-123.69,203.34-246,202.5A247.92,247.92,0,0,1,94.49,342.43C94.8,205.45,205.94,94.49,343,94.49a247.74,247.74,0,0,1,172.8,69.91,4,4,0,0,1,.07,5.73l-59.42,59.41a4,4,0,0,1-5.57.08A156.48,156.48,0,1,0,492.61,389H347a4,4,0,0,1-4-4V301a4,4,0,0,1,4-4Z"/><path class="cls-2" d="M587.49,297h-30a4,4,0,0,1,4,4v42a249,249,0,0,1-4.26,46C536.57,499.48,442.75,584.22,328,591.05c4.39.25,8.81.41,13.26.44,122.3.84,224.33-86.68,246-202.5a249,249,0,0,0,4.26-46V301A4,4,0,0,0,587.49,297Z"/><path class="cls-4" d="M200.84,277.45l-75.47-54.53A248.56,248.56,0,0,1,515.79,164.4a4,4,0,0,1,.07,5.73l-59.42,59.41a4,4,0,0,1-5.56.09,156.53,156.53,0,0,0-250,47.82Z"/><path class="cls-5" d="M179.06,261.71l21.78,15.74a156.59,156.59,0,0,1,125.87-90.1l1.26-.14c-4.93-.47-9.92-.72-15-.72a156,156,0,0,0-133.93,75.22Z"/><path class="cls-5" d="M485.79,164.4a4,4,0,0,1,.07,5.73l-48.23,48.22a158.41,158.41,0,0,1,13.24,11.27,4,4,0,0,0,5.57-.08l59.42-59.41a4,4,0,0,0-.07-5.73A247.74,247.74,0,0,0,343,94.49c-5,0-10,.17-15,.47A247.69,247.69,0,0,1,485.79,164.4Z"/><path class="cls-6" d="M525.28,511.87a248.54,248.54,0,0,1-404.6-57.74l77-52.8a156.52,156.52,0,0,0,252.08,56Z"/><path class="cls-7" d="M197.73,401.33,175,416.9a156.49,156.49,0,0,0,138,82.59q7.58,0,15-.71A156.63,156.63,0,0,1,197.73,401.33Z"/><path class="cls-7" d="M343,591.49a247.81,247.81,0,0,0,182.29-79.62L506.8,498.52A248,248,0,0,1,328,591Q335.46,591.49,343,591.49Z"/><path class="cls-8" d="M186.49,343a156,156,0,0,0,11.24,58.34l-77,52.8a248.89,248.89,0,0,1,4.69-231.21l75.47,54.53A155.86,155.86,0,0,0,186.49,343Z"/><path class="cls-9" d="M175,416.9l22.72-15.57a156.93,156.93,0,0,1,3.11-123.88l-21.78-15.74A157.26,157.26,0,0,0,175,416.9Z"/><path d="M587.49,289.49h-52a7.5,7.5,0,0,0,0,15H584V343a242.49,242.49,0,0,1-4.13,44.62,239.75,239.75,0,0,1-55.53,114.32l-63-45.49a164.9,164.9,0,0,0,38.42-65.25,7.51,7.51,0,0,0-7.17-9.7H350.49v-77H503.07a7.5,7.5,0,0,0,0-15H347a11.51,11.51,0,0,0-11.5,11.5v84a11.51,11.51,0,0,0,11.5,11.5H482.11A149.06,149.06,0,0,1,253.29,462a7.5,7.5,0,0,0-9,12,164,164,0,0,0,197.1.29q4.62-3.47,9-7.26L514,513a240.84,240.84,0,0,1-171,71h-1.7c-91.08-.63-170.35-52.23-210.77-127.5l64-43.85a163.11,163.11,0,0,0,25.21,38.51A7.5,7.5,0,1,0,231,441.26,148.8,148.8,0,0,1,194,342c.55-81.59,67.39-148,149-148A148.36,148.36,0,0,1,445.7,235.05a11.44,11.44,0,0,0,16.05-.2l59.41-59.42A11.51,11.51,0,0,0,521,159a256.2,256.2,0,0,0-289-46.76,7.5,7.5,0,1,0,6.51,13.51A241.2,241.2,0,0,1,508,167.36l-54.49,54.49a164,164,0,0,0-255.61,44.24L135.2,220.77A241.35,241.35,0,0,1,211.48,141a7.5,7.5,0,1,0-8.19-12.57A255.49,255.49,0,0,0,87,342.42c-.15,68.37,26.12,132.62,74,180.93S272.83,598.52,341.19,599H343A255.74,255.74,0,0,0,599,343V301a11.51,11.51,0,0,0-11.5-11.5ZM127.94,234l63.49,45.87a165.32,165.32,0,0,0-2.78,118.56l-64.87,44.46A240.92,240.92,0,0,1,127.94,234Z"/></g></g></svg>