<svg xmlns="http://www.w3.org/2000/svg" viewBox="0 0 685.99 685.99"><defs><style>.cls-1{fill:#ffd262;}.cls-2{fill:#00405c;}.cls-3{fill:#0075a8;}.cls-4{fill:#4dbdeb;}</style></defs><g id="Layer_2" data-name="Layer 2"><g id="Layer_1-2" data-name="Layer 1"><path class="cls-1" d="M430.62,148.91v-28.8H414.69a71.07,71.07,0,0,0-10.34-24.92l11.28-11.28L395.27,63.55,384,74.83a71.07,71.07,0,0,0-24.92-10.34V48.56h-28.8V64.49a71,71,0,0,0-24.92,10.34L294.07,63.55,273.71,83.91,285,95.19a71.07,71.07,0,0,0-10.34,24.92H258.71v28.8h15.94A71,71,0,0,0,285,173.83l-11.28,11.28,20.36,20.36,11.28-11.28a71,71,0,0,0,24.92,10.34v15.94h28.8V204.53A71.07,71.07,0,0,0,384,194.19l11.28,11.28,20.36-20.36-11.28-11.28a71,71,0,0,0,10.34-24.92ZM344.67,177.6a43.09,43.09,0,1,1,43.09-43.09A43.09,43.09,0,0,1,344.67,177.6Z"/><path class="cls-1" d="M430.62,148.91v-28.8H414.69a71.07,71.07,0,0,0-10.34-24.92l11.28-11.28L395.27,63.55,384,74.83a71.07,71.07,0,0,0-24.92-10.34V48.56h-28.8V64.49a71,71,0,0,0-24.92,10.34L294.07,63.55,273.71,83.91,285,95.19a71.07,71.07,0,0,0-10.34,24.92H258.71v28.8h15.94A71,71,0,0,0,285,173.83l-11.28,11.28,20.36,20.36,11.28-11.28a71,71,0,0,0,24.92,10.34v15.94h28.8V204.53A71.07,71.07,0,0,0,384,194.19l11.28,11.28,20.36-20.36-11.28-11.28a71,71,0,0,0,10.34-24.92ZM344.67,177.6a43.09,43.09,0,1,1,43.09-43.09A43.09,43.09,0,0,1,344.67,177.6Z"/><path class="cls-2" d="M359.07,224.46h-28.8a4,4,0,0,1-4-4V207.72a74.41,74.41,0,0,1-20.35-8.45l-9,9a4,4,0,0,1-5.66,0l-20.36-20.36a4,4,0,0,1,0-5.66l9-9a74.41,74.41,0,0,1-8.45-20.35H258.72a4,4,0,0,1-4-4v-28.8a4,4,0,0,1,4-4h12.74a74.41,74.41,0,0,1,8.45-20.35l-9-9a4,4,0,0,1,0-5.66l20.36-20.36a4,4,0,0,1,5.66,0l9,9a74.41,74.41,0,0,1,20.35-8.45V48.56a4,4,0,0,1,4-4h28.8a4,4,0,0,1,4,4V61.3a74.41,74.41,0,0,1,20.35,8.45l9-9a4.12,4.12,0,0,1,5.66,0l20.36,20.36a4,4,0,0,1,0,5.66l-9,9a74.41,74.41,0,0,1,8.45,20.35h12.74a4,4,0,0,1,4,4v28.8a4,4,0,0,1-4,4H417.88a74.41,74.41,0,0,1-8.45,20.35l9,9a4,4,0,0,1,0,5.66L398.1,208.3a4,4,0,0,1-5.66,0l-9-9a74.41,74.41,0,0,1-20.35,8.45v12.74a4,4,0,0,1-4,4Zm-24.8-8h20.8V204.53a4,4,0,0,1,3.19-3.92,66.65,66.65,0,0,0,23.52-9.76,4,4,0,0,1,5,.51l8.45,8.45,14.7-14.7-8.45-8.46a4,4,0,0,1-.51-5,66.84,66.84,0,0,0,9.76-23.52,4,4,0,0,1,3.92-3.19h11.93v-20.8H414.69a4,4,0,0,1-3.92-3.19A66.84,66.84,0,0,0,401,97.4a4,4,0,0,1,.51-5L410,83.91l-14.7-14.7-8.45,8.45a4,4,0,0,1-5,.51,66.86,66.86,0,0,0-23.51-9.76,4,4,0,0,1-3.2-3.92V52.56H334.28V64.49a4,4,0,0,1-3.2,3.92,66.65,66.65,0,0,0-23.52,9.76,4,4,0,0,1-5-.51l-8.46-8.45-14.7,14.7,8.45,8.45a4,4,0,0,1,.51,5,66.86,66.86,0,0,0-9.76,23.51,4,4,0,0,1-3.92,3.2H262.72V144.9h11.93a4,4,0,0,1,3.92,3.2,66.84,66.84,0,0,0,9.76,23.52,4,4,0,0,1-.51,5l-8.45,8.46,14.7,14.7,8.46-8.45a4,4,0,0,1,5-.51,66.91,66.91,0,0,0,23.52,9.76,4,4,0,0,1,3.2,3.92v11.93Zm10.4-34.86a47.09,47.09,0,1,1,47.09-47.09A47.14,47.14,0,0,1,344.67,181.6Zm0-86.18a39.09,39.09,0,1,0,39.09,39.09A39.14,39.14,0,0,0,344.67,95.42Z"/><path class="cls-1" d="M402.85,86.35,396,93.21a3.47,3.47,0,0,0-.55,4.25,70.75,70.75,0,0,1,8.3,20,3.48,3.48,0,0,0,3.36,2.7h7.59A71,71,0,0,0,404.35,95.2l11.28-11.29L395.27,63.55l-5.17,5.18,12.75,12.75a3.45,3.45,0,0,1,0,4.87Z"/><path class="cls-1" d="M420.28,120.11h10.34v28.8H420.28Z"/><path class="cls-1" d="M414.69,148.91H407.1a3.47,3.47,0,0,0-3.36,2.69,70.75,70.75,0,0,1-8.3,20,3.47,3.47,0,0,0,.55,4.25l6.86,6.86a3.46,3.46,0,0,1,0,4.88L390.1,200.3l5.17,5.17,20.36-20.36-11.29-11.28a70.83,70.83,0,0,0,10.35-24.92Z"/><path class="cls-1" d="M286.49,86.35l6.86,6.86a3.47,3.47,0,0,1,.55,4.25,70.75,70.75,0,0,0-8.3,20,3.48,3.48,0,0,1-3.36,2.7h-7.59A71,71,0,0,1,285,95.2L273.71,83.91l20.36-20.36,5.17,5.18L286.49,81.48A3.45,3.45,0,0,0,286.49,86.35Z"/><path class="cls-1" d="M258.72,120.11h10.34v28.8H258.72Z"/><path class="cls-1" d="M274.65,148.91h7.59a3.47,3.47,0,0,1,3.36,2.69,70.75,70.75,0,0,0,8.3,20,3.47,3.47,0,0,1-.55,4.25l-6.86,6.86a3.46,3.46,0,0,0,0,4.88l12.75,12.75-5.17,5.17-20.36-20.36L285,173.83A71,71,0,0,1,274.65,148.91Z"/><path class="cls-2" d="M359.07,224.46h-28.8a4,4,0,0,1-4-4V207.72a74.41,74.41,0,0,1-20.35-8.45l-9,9a4,4,0,0,1-5.66,0l-20.36-20.36a4,4,0,0,1,0-5.66l9-9a74.41,74.41,0,0,1-8.45-20.35H258.72a4,4,0,0,1-4-4v-28.8a4,4,0,0,1,4-4h12.74a74.41,74.41,0,0,1,8.45-20.35l-9-9a4,4,0,0,1,0-5.66l20.36-20.36a4,4,0,0,1,5.66,0l9,9a74.41,74.41,0,0,1,20.35-8.45V48.56a4,4,0,0,1,4-4h28.8a4,4,0,0,1,4,4V61.3a74.41,74.41,0,0,1,20.35,8.45l9-9a4.12,4.12,0,0,1,5.66,0l20.36,20.36a4,4,0,0,1,0,5.66l-9,9a74.41,74.41,0,0,1,8.45,20.35h12.74a4,4,0,0,1,4,4v28.8a4,4,0,0,1-4,4H417.88a74.41,74.41,0,0,1-8.45,20.35l9,9a4,4,0,0,1,0,5.66L398.1,208.3a4,4,0,0,1-5.66,0l-9-9a74.41,74.41,0,0,1-20.35,8.45v12.74a4,4,0,0,1-4,4Zm-24.8-8h20.8V204.53a4,4,0,0,1,3.19-3.92,66.65,66.65,0,0,0,23.52-9.76,4,4,0,0,1,5,.51l8.45,8.45,14.7-14.7-8.45-8.46a4,4,0,0,1-.51-5,66.84,66.84,0,0,0,9.76-23.52,4,4,0,0,1,3.92-3.19h11.93v-20.8H414.69a4,4,0,0,1-3.92-3.19A66.84,66.84,0,0,0,401,97.4a4,4,0,0,1,.51-5L410,83.91l-14.7-14.7-8.45,8.45a4,4,0,0,1-5,.51,66.86,66.86,0,0,0-23.51-9.76,4,4,0,0,1-3.2-3.92V52.56H334.28V64.49a4,4,0,0,1-3.2,3.92,66.65,66.65,0,0,0-23.52,9.76,4,4,0,0,1-5-.51l-8.46-8.45-14.7,14.7,8.45,8.45a4,4,0,0,1,.51,5,66.86,66.86,0,0,0-9.76,23.51,4,4,0,0,1-3.92,3.2H262.72V144.9h11.93a4,4,0,0,1,3.92,3.2,66.84,66.84,0,0,0,9.76,23.52,4,4,0,0,1-.51,5l-8.45,8.46,14.7,14.7,8.46-8.45a4,4,0,0,1,5-.51,66.91,66.91,0,0,0,23.52,9.76,4,4,0,0,1,3.2,3.92v11.93Zm10.4-34.86a47.09,47.09,0,1,1,47.09-47.09A47.14,47.14,0,0,1,344.67,181.6Zm0-86.18a39.09,39.09,0,1,0,39.09,39.09A39.14,39.14,0,0,0,344.67,95.42Z"/><path class="cls-2" d="M464.72,278.35a61.09,61.09,0,0,0-61.1,61.1V367.5h122.2V339.45a61.1,61.1,0,0,0-61.1-61.1Z"/><path class="cls-2" d="M525.82,371.5H403.62a4,4,0,0,1-4-4V339.45a65.1,65.1,0,0,1,130.2,0V367.5A4,4,0,0,1,525.82,371.5Zm-118.2-8h114.2V339.45a57.1,57.1,0,0,0-114.2,0Z"/><path class="cls-3" d="M440.71,445.6v-48h51.13v48H538a32.52,32.52,0,0,1,32.34,32.59v66.34H362V477.92a32.45,32.45,0,0,1,32.51-32.34Z"/><path class="cls-1" d="M440.71,434,466,465.49,491.84,434V397.62H440.71Z"/><path class="cls-3" d="M538,445.6H526.65A32.51,32.51,0,0,1,559,478.17v66.36h11.36V478.19A32.53,32.53,0,0,0,538,445.6Z"/><path class="cls-3" d="M394.48,445.58l11.36,0a32.45,32.45,0,0,0-32.51,32.34v66.59H362V477.92A32.45,32.45,0,0,1,394.48,445.58Z"/><path class="cls-2" d="M402.2,547.4a4,4,0,0,1-4-4V513.84a4,4,0,1,1,8,0V543.4A4,4,0,0,1,402.2,547.4Z"/><path class="cls-2" d="M530.12,547.4a4,4,0,0,1-4-4V513.84a4,4,0,1,1,8,0V543.4A4,4,0,0,1,530.12,547.4Z"/><path class="cls-2" d="M570.34,548.53H362a4,4,0,0,1-4-4V477.92a36.46,36.46,0,0,1,36.46-36.34h.05l42.22,0v-44a4,4,0,0,1,4-4h51.14a4,4,0,0,1,4,4v44H538a36.5,36.5,0,0,1,36.34,36.59v66.34a4,4,0,0,1-4,4Zm-204.37-8H566.34V478.19A28.49,28.49,0,0,0,538,449.6H491.84a4,4,0,0,1-4-4v-44H444.71v44a4,4,0,0,1-4,4l-46.23,0h0A28.46,28.46,0,0,0,366,477.93Z"/><path class="cls-4" d="M491.84,434,466,465.49l29,21.3,7.71-41.19Z"/><path class="cls-4" d="M440.71,434,466,465.49l-28.76,21.3-7.71-41.2Z"/><path class="cls-2" d="M495,490.79a4,4,0,0,1-2.37-.78l-29-21.3a4,4,0,0,1-.73-5.76l25.8-31.5a4,4,0,0,1,6-.21l10.92,11.62a4,4,0,0,1,1,3.47L499,487.53a4,4,0,0,1-3.93,3.26Zm-23.24-26,20.48,15,6.17-32.94L492,440Z"/><path class="cls-2" d="M437.27,490.79a3.91,3.91,0,0,1-1.46-.28,4,4,0,0,1-2.47-3l-7.71-41.2a4,4,0,0,1,1-3.51l11.15-11.61a4,4,0,0,1,6,.27L469.15,463a4,4,0,0,1-.73,5.72L439.65,490a4,4,0,0,1-2.38.79Zm-3.4-43.91L440,479.77l20.28-15L440.44,440Z"/><path class="cls-2" d="M447.79,479,466,499.28,484.39,479,466,465.49Z"/><path class="cls-2" d="M447.79,544.53,466,499.28l18.36,45.28-18.36,0Z"/><path class="cls-2" d="M466,503.28h0a4,4,0,0,1-3-1.33l-18.24-20.28a4,4,0,0,1,.6-5.89l18.23-13.51a4,4,0,0,1,4.75,0l18.37,13.49a4,4,0,0,1,.6,5.9L469,502A4,4,0,0,1,466,503.28Zm-12.32-23.69L466,493.3l12.42-13.73L466,470.46Z"/><path class="cls-2" d="M484.39,548.56h0l-36.6,0a4,4,0,0,1-3.31-1.76,4,4,0,0,1-.4-3.74l18.24-45.25a4,4,0,0,1,3.71-2.5h0a4,4,0,0,1,3.71,2.5l18.36,45.28a4,4,0,0,1-.39,3.74,4,4,0,0,1-3.32,1.76Zm-30.67-8,24.73,0L466,510Z"/><path class="cls-1" d="M413.92,350.52h-3.63a17,17,0,0,0,0,34h3.63Z"/><path class="cls-1" d="M519.15,350.52h-3.63v34h3.63a17,17,0,0,0,0-34Z"/><path class="cls-1" d="M464.72,436.82c-28.06,0-50.8-23-50.8-51.46V349.74c0-28.42,22.74-51.46,50.8-51.46s50.8,23,50.8,51.46v35.62c0,28.42-22.74,51.46-50.8,51.46Z"/><path class="cls-1" d="M464.72,298.28a49.94,49.94,0,0,0-5.77.34c25.33,2.9,45,24.67,45,51.11v35.63c0,26.44-19.69,48.21-45,51.12a49.94,49.94,0,0,0,5.77.34c28.06,0,50.8-23,50.8-51.46V349.74c0-28.42-22.74-51.46-50.8-51.46Z"/><path class="cls-1" d="M464.72,298.28a49.94,49.94,0,0,1,5.77.34c-25.33,2.9-45,24.67-45,51.11v35.63c0,26.44,19.69,48.21,45,51.12a49.94,49.94,0,0,1-5.77.34c-28.06,0-50.8-23-50.8-51.46V349.74c0-28.42,22.74-51.46,50.8-51.46Z"/><path class="cls-2" d="M464.72,440.82c-30.22,0-54.8-24.88-54.8-55.46V349.74c0-30.58,24.58-55.46,54.8-55.46s54.8,24.88,54.8,55.46v35.62C519.52,415.94,494.94,440.82,464.72,440.82Zm0-138.54c-25.81,0-46.8,21.29-46.8,47.45v35.63c0,26.17,21,47.46,46.8,47.46s46.8-21.29,46.8-47.46V349.74c0-26.17-21-47.46-46.8-47.46Z"/><path class="cls-2" d="M413.92,388.47h-3.63a21,21,0,0,1,0-42h3.63a4,4,0,0,1,4,4v34a4,4,0,0,1-4,4Zm-4-33.94a13,13,0,0,0,0,25.94Z"/><path class="cls-2" d="M519.15,388.47h-3.63a4,4,0,0,1-4-4v-34a4,4,0,0,1,4-4h3.63a21,21,0,0,1,0,42Zm.37-33.94v25.94a13,13,0,0,0,0-25.94Z"/><path class="cls-2" d="M221.75,278.35a61.09,61.09,0,0,0-61.1,61.1V367.5h122.2V339.45a61.1,61.1,0,0,0-61.1-61.1Z"/><path class="cls-2" d="M282.85,371.5H160.65a4,4,0,0,1-4-4V339.45a65.1,65.1,0,0,1,130.2,0V367.5a4,4,0,0,1-4,4Zm-118.2-8h114.2V339.45a57.1,57.1,0,0,0-114.2,0V363.5Z"/><path class="cls-3" d="M197.73,445.6v-48h51.14v48H295a32.52,32.52,0,0,1,32.34,32.59v66.34H119V477.92a32.45,32.45,0,0,1,32.5-32.34Z"/><path class="cls-1" d="M197.73,434l25.33,31.51L248.87,434V397.62H197.73Z"/><path class="cls-3" d="M295,445.6H283.67A32.5,32.5,0,0,1,316,478.17v66.36h11.36V478.19A32.52,32.52,0,0,0,295,445.6Z"/><path class="cls-3" d="M151.5,445.58l11.36,0a32.45,32.45,0,0,0-32.5,32.34v66.59H119V477.92A32.45,32.45,0,0,1,151.5,445.58Z"/><path class="cls-2" d="M159.22,547.4a4,4,0,0,1-4-4V513.84a4,4,0,1,1,8,0V543.4A4,4,0,0,1,159.22,547.4Z"/><path class="cls-2" d="M287.14,547.4a4,4,0,0,1-4-4V513.84a4,4,0,0,1,8,0V543.4A4,4,0,0,1,287.14,547.4Z"/><path class="cls-2" d="M327.37,548.53H119a4,4,0,0,1-4-4V477.92a36.45,36.45,0,0,1,36.51-36.34l42.22,0v-44a4,4,0,0,1,4-4h51.14a4,4,0,0,1,4,4v44H295a36.5,36.5,0,0,1,36.34,36.59v66.34A4,4,0,0,1,327.37,548.53Zm-204.37-8H323.37V478.19A28.49,28.49,0,0,0,295,449.6H248.87a4,4,0,0,1-4-4v-44H201.73v44a4,4,0,0,1-4,4l-46.23,0h0A28.46,28.46,0,0,0,123,477.93v62.6Z"/><path class="cls-4" d="M248.87,434l-25.81,31.51,29,21.3,7.71-41.19Z"/><path class="cls-4" d="M197.73,434l25.33,31.51-28.76,21.3-7.72-41.2Z"/><path class="cls-2" d="M252.07,490.79a4,4,0,0,1-2.37-.78l-29-21.3A4,4,0,0,1,220,463l25.8-31.5a4,4,0,0,1,6-.21l10.92,11.62a4,4,0,0,1,1,3.47L256,487.53a4,4,0,0,1-3.93,3.26Zm-23.24-26,20.48,15,6.17-32.94L249.07,440Z"/><path class="cls-2" d="M194.3,490.79a3.91,3.91,0,0,1-1.46-.28,4,4,0,0,1-2.47-3l-7.72-41.2a4,4,0,0,1,1-3.51l11.15-11.61a4,4,0,0,1,6,.27L226.18,463a4,4,0,0,1-.74,5.72L196.68,490a4,4,0,0,1-2.38.79Zm-3.4-43.91,6.16,32.89,20.28-15L197.47,440Z"/><path class="cls-2" d="M204.82,479l18.24,20.29L241.42,479l-18.36-13.48Z"/><path class="cls-2" d="M204.82,544.53l18.24-45.25,18.36,45.28-18.36,0Z"/><path class="cls-2" d="M223.06,503.28h0a4,4,0,0,1-3-1.33l-18.24-20.28a4,4,0,0,1,.59-5.89l18.24-13.51a4,4,0,0,1,4.75,0l18.36,13.49a4,4,0,0,1,.6,5.9L226,502a4,4,0,0,1-3,1.32Zm-12.32-23.69,12.33,13.71,12.42-13.73-12.42-9.11Z"/><path class="cls-2" d="M241.42,548.56h0l-36.6,0a4,4,0,0,1-3.71-5.5l18.24-45.25a4,4,0,0,1,3.71-2.5h0a4,4,0,0,1,3.71,2.5l18.36,45.28a4,4,0,0,1-3.71,5.5Zm-30.67-8,24.73,0L223.07,510Z"/><path class="cls-1" d="M171,350.52h-3.63a17,17,0,0,0,0,34H171Z"/><path class="cls-1" d="M276.17,350.52h-3.62v34h3.62a17,17,0,1,0,0-34Z"/><path class="cls-1" d="M221.75,436.82c-28.06,0-50.8-23-50.8-51.46V349.74c0-28.42,22.74-51.46,50.8-51.46s50.8,23,50.8,51.46v35.62c0,28.42-22.75,51.46-50.8,51.46Z"/><path class="cls-1" d="M221.75,298.28a49.81,49.81,0,0,0-5.77.34c25.33,2.9,45,24.67,45,51.11v35.63c0,26.44-19.69,48.21-45,51.12a49.94,49.94,0,0,0,5.77.34c28.05,0,50.8-23,50.8-51.46V349.74c0-28.42-22.75-51.46-50.8-51.46Z"/><path class="cls-1" d="M221.75,298.28a50.08,50.08,0,0,1,5.77.34c-25.34,2.9-45,24.67-45,51.11v35.63c0,26.44,19.69,48.21,45,51.12a50.08,50.08,0,0,1-5.77.34c-28.06,0-50.8-23-50.8-51.46V349.74c0-28.42,22.74-51.46,50.8-51.46Z"/><path class="cls-2" d="M221.75,440.82c-30.22,0-54.8-24.88-54.8-55.46V349.74c0-30.58,24.58-55.46,54.8-55.46s54.8,24.88,54.8,55.46v35.62C276.55,415.94,252,440.82,221.75,440.82Zm0-138.54c-25.81,0-46.8,21.29-46.8,47.45v35.63c0,26.17,21,47.46,46.8,47.46s46.8-21.29,46.8-47.46V349.74c0-26.17-21-47.46-46.8-47.46Z"/><path class="cls-2" d="M171,388.47h-3.63a21,21,0,0,1,0-42H171a4,4,0,0,1,4,4v34a4,4,0,0,1-4,4Zm-4-33.94a13,13,0,0,0,0,25.94Z"/><path class="cls-2" d="M276.17,388.47h-3.62a4,4,0,0,1-4-4v-34a4,4,0,0,1,4-4h3.62a21,21,0,1,1,0,42Zm.38-33.94v25.94a13,13,0,0,0,0-25.94Z"/><path class="cls-2" d="M273,342.21V271.88a37.73,37.73,0,0,1,37.73-37.73H375.1A25.84,25.84,0,0,1,400.94,260v9.38a12.11,12.11,0,0,1,12,12.11v60.73Z"/><path class="cls-2" d="M400.94,269.36V260a25.84,25.84,0,0,0-25.84-25.84H366A25.84,25.84,0,0,1,391.88,260v3.39a7.49,7.49,0,0,0,4.57,6.92,12.11,12.11,0,0,1,7.44,11.18v60.73H413V281.48a12.12,12.12,0,0,0-12-12.12Z"/><path class="cls-2" d="M319.83,234.15h-9.06A37.73,37.73,0,0,0,273,271.88v70.33h9.06V271.88a37.73,37.73,0,0,1,37.73-37.73Z"/><path class="cls-2" d="M413,346.21H273a4,4,0,0,1-4-4V271.88a41.78,41.78,0,0,1,41.73-41.73H375.1A29.88,29.88,0,0,1,404.94,260v5.91a16.18,16.18,0,0,1,12,15.58v60.73a4,4,0,0,1-4,4Zm-135.91-8H409V281.48a8.13,8.13,0,0,0-8.05-8.11,4,4,0,0,1-4-4V260a21.87,21.87,0,0,0-21.84-21.84H310.77A33.77,33.77,0,0,0,277,271.88Z"/><path class="cls-3" d="M315,429.17V373.22h59.62v55.95h53.84a37.91,37.91,0,0,1,37.7,38v77.36h-243V466.86a37.85,37.85,0,0,1,37.91-37.71Z"/><path class="cls-1" d="M315,415.62l29.54,36.74,30.08-36.74V373.23H315Z"/><path class="cls-3" d="M428.45,429.17H415.2a37.9,37.9,0,0,1,37.71,38v77.38h13.24V467.17A37.92,37.92,0,0,0,428.45,429.17Z"/><path class="cls-3" d="M261.09,429.15l13.24,0a37.84,37.84,0,0,0-37.9,37.71v77.65H223.19V466.86a37.84,37.84,0,0,1,37.9-37.71Z"/><path class="cls-2" d="M270.09,547.21a4,4,0,0,1-4-4V508.74a4,4,0,0,1,8,0v34.47A4,4,0,0,1,270.09,547.21Z"/><path class="cls-2" d="M419.25,547.21a4,4,0,0,1-4-4V508.74a4,4,0,0,1,8,0v34.47A4,4,0,0,1,419.25,547.21Z"/><path class="cls-2" d="M466.16,548.53h-243a4,4,0,0,1-4-4V466.86A41.86,41.86,0,0,1,261,425.15h0l49.9,0V373.22a4,4,0,0,1,4-4h59.62a4,4,0,0,1,4,4v51.95h49.84a41.91,41.91,0,0,1,41.7,42v77.36a4,4,0,0,1-4,4Zm-239-8h235V467.17a33.82,33.82,0,0,0-9.86-24,33.41,33.41,0,0,0-23.85-10H374.61a4,4,0,0,1-4-4V377.22H319v51.95a4,4,0,0,1-4,4l-53.9,0h0a33.84,33.84,0,0,0-33.86,33.71v73.67Z"/><path class="cls-4" d="M374.61,415.62l-30.08,36.74,33.82,24.84,9-48Z"/><path class="cls-4" d="M315,415.62l29.54,36.74L311,477.2l-9-48Z"/><path class="cls-2" d="M378.35,481.2a4,4,0,0,1-2.37-.78l-33.82-24.84a4,4,0,0,1-.73-5.76l30.09-36.73a4,4,0,0,1,3-1.46,4.1,4.1,0,0,1,3,1.25l12.73,13.55a4,4,0,0,1,1,3.47l-9,48a4,4,0,0,1-3.93,3.27Zm-28.06-29.57,25.3,18.58L383,430.43l-8.22-8.75Z"/><path class="cls-2" d="M311,481.2a3.91,3.91,0,0,1-1.46-.28,4,4,0,0,1-2.47-3l-9-48a4,4,0,0,1,1.05-3.51l13-13.54a4,4,0,0,1,3.06-1.22,4,4,0,0,1,2.94,1.49l29.54,36.73a4,4,0,0,1-.74,5.72l-33.54,24.84a4,4,0,0,1-2.38.79Zm-4.69-50.75,7.44,39.73,25.06-18.56-24.07-29.94Z"/><path class="cls-2" d="M323.26,468.11l21.27,23.65,21.41-23.68-21.41-15.72Z"/><path class="cls-2" d="M323.26,544.52l21.27-52.76,21.41,52.8-21.41,0Z"/><path class="cls-2" d="M344.53,495.76h0a4,4,0,0,1-3-1.33l-21.26-23.65a4,4,0,0,1,.59-5.88l21.27-15.76a4,4,0,0,1,4.75,0l21.41,15.73a4,4,0,0,1,.6,5.9L347.5,494.44a4,4,0,0,1-3,1.32Zm-15.35-27.05,15.36,17.08L360,468.68l-15.46-11.35Z"/><path class="cls-2" d="M365.94,548.56h0l-42.67,0a4,4,0,0,1-3.71-5.49l21.27-52.76a4,4,0,0,1,3.7-2.51h0a4,4,0,0,1,3.7,2.5l21.41,52.8a4,4,0,0,1-3.7,5.5Zm-36.76-8,30.82,0-15.46-38.12Z"/><path class="cls-1" d="M283.76,318.31h-4.23a19.79,19.79,0,1,0,0,39.58h4.23Z"/><path class="cls-1" d="M406.46,318.31h-4.23V357.9h4.23a19.8,19.8,0,0,0,0-39.59Z"/><path class="cls-1" d="M343,418.93c-32.72,0-59.24-26.86-59.24-60V317.39c0-33.14,26.52-60,59.24-60s59.23,26.86,59.23,60v41.54c0,33.14-26.52,60-59.23,60Z"/><path class="cls-1" d="M343,257.39a60.09,60.09,0,0,0-6.74.39c29.55,3.39,52.51,28.78,52.51,59.61v41.54c0,30.83-23,56.22-52.51,59.6a57.68,57.68,0,0,0,6.74.4c32.71,0,59.23-26.86,59.23-60V317.39c0-33.14-26.52-60-59.23-60Z"/><path class="cls-1" d="M343,257.39a59.91,59.91,0,0,1,6.73.39c-29.55,3.39-52.51,28.78-52.51,59.61v41.54c0,30.83,23,56.22,52.51,59.6a57.63,57.63,0,0,1-6.73.4c-32.72,0-59.24-26.86-59.24-60V317.39c0-33.14,26.52-60,59.24-60Z"/><path class="cls-2" d="M343,422.93c-34.87,0-63.24-28.71-63.24-64V317.39c0-35.29,28.37-64,63.24-64s63.23,28.71,63.23,64v41.54c0,35.29-28.37,64-63.23,64Zm0-161.54c-30.46,0-55.24,25.12-55.24,56v41.54c0,30.88,24.78,56,55.24,56s55.23-25.12,55.23-56V317.39c0-30.88-24.78-56-55.23-56Z"/><path class="cls-2" d="M283.76,361.9h-4.23a23.8,23.8,0,0,1,0-47.59h4.23a4,4,0,0,1,4,4V357.9A4,4,0,0,1,283.76,361.9Zm-4.23-39.59a15.79,15.79,0,1,0,0,31.58h.23V322.31Z"/><path class="cls-2" d="M406.46,361.9h-4.23a4,4,0,0,1-4-4V318.31a4,4,0,0,1,4-4h4.23a23.8,23.8,0,0,1,0,47.59Zm-.23-8h.23a15.8,15.8,0,0,0,0-31.59h-.23Z"/><path class="cls-2" d="M238.43,505.68a4,4,0,0,1-4-4v-24a4,4,0,0,1,8,0v24A4,4,0,0,1,238.43,505.68Z"/><path class="cls-4" d="M343,20c178.39,0,323,144.61,323,323S521.38,666,343,666,20,521.38,20,343,164.61,20,343,20m0-20A343.08,343.08,0,0,0,209.48,659,343.08,343.08,0,0,0,476.51,27,340.89,340.89,0,0,0,343,0Z"/></g></g></svg>