<svg xmlns="http://www.w3.org/2000/svg" viewBox="0 0 685.99 685.99"><defs><style>.cls-1{fill:#fff;}.cls-2{fill:#4dbdeb;}.cls-3{fill:#f0f7f7;}.cls-4{fill:#b6d6d6;}.cls-5{fill:#00405c;}.cls-6{fill:#ffd262;}.cls-7{fill:#e4b34f;}.cls-8{fill:#ffebba;}.cls-9{fill:#0075a8;}.cls-10{fill:#005275;}</style></defs><g id="Layer_2" data-name="Layer 2"><g id="Layer_1-2" data-name="Layer 1"><path class="cls-1" d="M343,676A333,333,0,0,1,107.53,107.53,333,333,0,0,1,578.46,578.46,330.85,330.85,0,0,1,343,676Z"/><path class="cls-2" d="M343,20c178.39,0,323,144.61,323,323S521.38,666,343,666,20,521.38,20,343,164.61,20,343,20m0-20A343.08,343.08,0,0,0,209.48,659,343.08,343.08,0,0,0,476.51,27,340.89,340.89,0,0,0,343,0Z"/><path class="cls-3" d="M570.64,165.86H115.35L229.17,352.23l74.28,121.62v142l79.09-55.7v-86.3l74.28-121.62Z"/><path class="cls-1" d="M321.81,602.92V479a18.35,18.35,0,0,0-2.69-9.57L247.53,352.23,133.7,165.86H115.35L229.17,352.22l74.28,121.62v142Z"/><path class="cls-4" d="M552.28,165.86,438.46,352.22,366.87,469.44a18.35,18.35,0,0,0-2.69,9.57v94.07l18.36-12.93V473.84l74.28-121.61L570.64,165.86Z"/><path class="cls-5" d="M303.45,619.52a3.6,3.6,0,0,1-1.69-.41,3.67,3.67,0,0,1-2-3.26v-141L112.21,167.78a3.68,3.68,0,0,1,3.14-5.59H570.64a3.68,3.68,0,0,1,3.14,5.59L386.21,474.88v85.27a3.64,3.64,0,0,1-1.56,3l-79.09,55.7a3.62,3.62,0,0,1-2.11.67Zm-181.56-450L306.58,471.93a3.62,3.62,0,0,1,.54,1.92V608.77l71.75-50.52v-84.4a3.7,3.7,0,0,1,.53-1.92L564.1,169.54Z"/><path class="cls-5" d="M196.41,272.2a3.69,3.69,0,0,1-3.14-1.76l-10.92-17.88a3.67,3.67,0,0,1,6.27-3.83l10.92,17.88a3.67,3.67,0,0,1-1.22,5.05A3.71,3.71,0,0,1,196.41,272.2Z"/><circle class="cls-6" cx="472" cy="462.13" r="98.77"/><path class="cls-7" d="M471.89,363.27c-2.07,0-4.12.09-6.16.22a98.73,98.73,0,0,1,0,197.07c2,.13,4.09.21,6.16.21a98.75,98.75,0,0,0,0-197.5Z"/><path class="cls-8" d="M471.89,560.77c2.08,0,4.13-.08,6.17-.21a98.73,98.73,0,0,1,0-197.08c-2-.12-4.09-.21-6.17-.21a98.75,98.75,0,0,0,0,197.5Z"/><path class="cls-5" d="M474.61,406.19a5.51,5.51,0,0,1,5.55,5.56v2.84a47,47,0,0,1,20,7.11,6.94,6.94,0,0,1,3.88,6.21,7.12,7.12,0,0,1-7.24,7.11,7.43,7.43,0,0,1-3.87-1.17,47.38,47.38,0,0,0-13.31-5.69V453c19.64,4.91,28,12.79,28,26.62,0,14.21-11.11,23.65-27.53,25.2v7.75a5.51,5.51,0,0,1-5.55,5.56,5.62,5.62,0,0,1-5.69-5.56v-8a55.89,55.89,0,0,1-26.5-10.08,7.12,7.12,0,0,1-3.49-6.2,7,7,0,0,1,7.11-7.11,7.09,7.09,0,0,1,4.27,1.42c6.07,4.39,12,7.37,19.13,8.66V465.77c-18.87-4.91-27.66-12-27.66-26.62,0-13.83,11-23.4,27.14-24.69v-2.71A5.63,5.63,0,0,1,474.61,406.19Zm-5.17,44.07V427.39c-8.28.77-12.41,5.17-12.41,10.85,0,5.43,2.46,8.79,12.41,12Zm10.21,18v23.52c8.27-.91,12.79-5,12.79-11.24C492.44,474.82,489.6,471.33,479.65,468.23Z"/><path class="cls-5" d="M471.89,564.45A102.42,102.42,0,1,1,574.31,462,102.54,102.54,0,0,1,471.89,564.45Zm0-197.5A95.08,95.08,0,1,0,567,462,95.18,95.18,0,0,0,471.89,367Z"/><path class="cls-9" d="M250.86,254.64h37.08V335H250.86Z"/><path class="cls-9" d="M299.93,229.52H337V335H299.93Z"/><path class="cls-9" d="M349,236h37.07v99H349Z"/><path class="cls-9" d="M398.05,191.57h37.07V335H398.05Z"/><path class="cls-10" d="M421.43,191.85h13.69V335H421.43Z"/><path class="cls-2" d="M250.86,254.64h13.7V335h-13.7Z"/><path class="cls-5" d="M287.94,338.66H250.86a3.68,3.68,0,0,1-3.67-3.67V254.64a3.67,3.67,0,0,1,3.67-3.67h37.08a3.67,3.67,0,0,1,3.67,3.67V335A3.67,3.67,0,0,1,287.94,338.66Zm-33.4-7.35h29.73v-73H254.54Z"/><path class="cls-5" d="M337,338.66H299.93a3.68,3.68,0,0,1-3.68-3.67V229.52a3.68,3.68,0,0,1,3.68-3.67H337a3.67,3.67,0,0,1,3.67,3.67V335A3.67,3.67,0,0,1,337,338.66Zm-33.4-7.35h29.73V233.2H303.6Z"/><path class="cls-5" d="M386.06,338.66H349a3.68,3.68,0,0,1-3.68-3.67V236a3.68,3.68,0,0,1,3.68-3.68h37.07a3.68,3.68,0,0,1,3.68,3.68v99A3.68,3.68,0,0,1,386.06,338.66Zm-33.4-7.35h29.73V239.62H352.66Z"/><path class="cls-5" d="M435.12,338.66H398.05a3.67,3.67,0,0,1-3.67-3.67V191.57a3.67,3.67,0,0,1,3.67-3.68h37.07a3.68,3.68,0,0,1,3.68,3.68V335a3.68,3.68,0,0,1-3.68,3.67Zm-33.4-7.35h29.73V195.24H401.72Z"/></g></g></svg>