<svg xmlns="http://www.w3.org/2000/svg" viewBox="0 0 685.99 685.99"><defs><style>.cls-1{fill:#4dbdeb;}.cls-2{fill:#fff;}.cls-3{fill:#0075a8;}.cls-4{fill:#00405c;}.cls-5{fill:#ffd262;}</style></defs><g id="Layer_2" data-name="Layer 2"><g id="Layer_1-2" data-name="Layer 1"><path class="cls-1" d="M568.6,496.42H117.39a17.34,17.34,0,0,1-17.34-17.34V201.27a17.34,17.34,0,0,1,17.34-17.34H568.6a17.34,17.34,0,0,1,17.34,17.34V479.08A17.34,17.34,0,0,1,568.6,496.42Z"/><path class="cls-1" d="M568.6,183.93H549a17.34,17.34,0,0,1,17.34,17.34V479.08A17.34,17.34,0,0,1,549,496.42H568.6a17.34,17.34,0,0,0,17.34-17.34V201.27A17.34,17.34,0,0,0,568.6,183.93Z"/><path class="cls-2" d="M117.39,496.42H137a17.34,17.34,0,0,1-17.34-17.34V201.27A17.34,17.34,0,0,1,137,183.93H117.39a17.34,17.34,0,0,0-17.34,17.34V479.08A17.34,17.34,0,0,0,117.39,496.42Z"/><path class="cls-3" d="M501.5,560.8h-317V537.58a17.34,17.34,0,0,1,17.34-17.34H484.16a17.34,17.34,0,0,1,17.34,17.34Z"/><path class="cls-3" d="M484.16,520.24H464.57a17.34,17.34,0,0,1,17.34,17.34V560.8H501.5V537.58A17.34,17.34,0,0,0,484.16,520.24Z"/><path class="cls-3" d="M201.83,520.24h19.59a17.34,17.34,0,0,0-17.34,17.34V560.8H184.49V537.58A17.34,17.34,0,0,1,201.83,520.24Z"/><path class="cls-3" d="M249.94,496.42H436.05v23.82H249.94Z"/><path class="cls-4" d="M115.72,256.82a3.93,3.93,0,0,1-3.92-3.92V229.39a3.92,3.92,0,0,1,7.84,0V252.9A3.93,3.93,0,0,1,115.72,256.82Z"/><path class="cls-4" d="M501.5,564.72h-317a3.92,3.92,0,0,1-3.92-3.92V537.58a21.29,21.29,0,0,1,21.26-21.26H484.16a21.29,21.29,0,0,1,21.26,21.26V560.8A3.92,3.92,0,0,1,501.5,564.72Zm-313.09-7.84H497.58v-19.3a13.43,13.43,0,0,0-13.42-13.42H201.83a13.44,13.44,0,0,0-13.43,13.42v19.3Z"/><path class="cls-4" d="M436.05,524.16H249.94a3.92,3.92,0,0,1-3.92-3.92V496.42a3.92,3.92,0,0,1,3.92-3.92H436.05a3.92,3.92,0,0,1,3.92,3.92v23.82A3.92,3.92,0,0,1,436.05,524.16Zm-182.2-7.84H432.13v-16H253.85Z"/><path class="cls-4" d="M568.6,500.34H117.39a21.29,21.29,0,0,1-21.26-21.26V201.27A21.27,21.27,0,0,1,117.39,180H568.6a21.28,21.28,0,0,1,21.26,21.26V479.08A21.29,21.29,0,0,1,568.6,500.34ZM117.39,187.85A13.44,13.44,0,0,0,104,201.27V479.08a13.44,13.44,0,0,0,13.43,13.42H568.6A13.43,13.43,0,0,0,582,479.08V201.27a13.43,13.43,0,0,0-13.42-13.42Z"/><path class="cls-5" d="M210.44,363.69h28.44v28.43H210.44Z"/><path class="cls-5" d="M447.11,363.69h28.43v28.43H447.11Z"/><path class="cls-5" d="M343,265.81l-61,65.64,23.31,106.2h75.45L404,331.45Z"/><path class="cls-4" d="M380.72,441.56H305.27a3.93,3.93,0,0,1-3.83-3.07l-23.31-106.2a3.89,3.89,0,0,1,1-3.51l61-65.64a4,4,0,0,1,5.74,0l61,65.64a4,4,0,0,1,1,3.51l-23.32,106.2A3.91,3.91,0,0,1,380.72,441.56Zm-72.3-7.83h69.15l22.19-101.12-56.77-61-56.77,61Z"/><circle class="cls-3" cx="192.45" cy="245.36" r="20.46"/><circle class="cls-3" cx="493.54" cy="245.36" r="20.46"/><path class="cls-4" d="M192.45,269.73a24.38,24.38,0,1,1,24.38-24.37,24.39,24.39,0,0,1-24.38,24.37Zm0-40.91A16.54,16.54,0,1,0,209,245.36,16.55,16.55,0,0,0,192.45,228.82Z"/><path class="cls-4" d="M493.54,269.73a24.38,24.38,0,1,1,24.37-24.37,24.4,24.4,0,0,1-24.37,24.37Zm0-40.91a16.54,16.54,0,1,0,16.53,16.54A16.56,16.56,0,0,0,493.54,228.82Z"/><circle class="cls-3" cx="342.93" cy="347.7" r="14.48" transform="translate(-95.34 563.15) rotate(-71.57)"/><path class="cls-4" d="M343,366.12a18.41,18.41,0,1,1,18.41-18.4A18.43,18.43,0,0,1,343,366.12Zm0-29a10.57,10.57,0,1,0,10.57,10.57A10.58,10.58,0,0,0,343,337.15Z"/><path class="cls-4" d="M461.33,367.61a3.92,3.92,0,0,1-3.92-3.92,114.42,114.42,0,0,0-228.83,0,3.92,3.92,0,0,1-7.84,0,122.25,122.25,0,0,1,244.5,0,3.92,3.92,0,0,1-3.91,3.92Z"/><path class="cls-4" d="M473.08,249.28H212.91a3.92,3.92,0,0,1,0-7.84H473.08a3.92,3.92,0,1,1,0,7.84Z"/><path class="cls-4" d="M238.88,396H210.44a3.91,3.91,0,0,1-3.91-3.91V363.69a3.92,3.92,0,0,1,3.91-3.92h28.44a3.93,3.93,0,0,1,3.92,3.92v28.44A3.92,3.92,0,0,1,238.88,396Zm-24.52-7.83H235v-20.6h-20.6Z"/><path class="cls-4" d="M475.54,396H447.11a3.92,3.92,0,0,1-3.92-3.91V363.69a3.93,3.93,0,0,1,3.92-3.92h28.44a3.92,3.92,0,0,1,3.91,3.92v28.44a3.91,3.91,0,0,1-3.92,3.91ZM451,388.21h20.6v-20.6H451Z"/><path class="cls-4" d="M343,337.15a3.91,3.91,0,0,1-3.91-3.92V265.81a3.92,3.92,0,0,1,7.83,0v67.42A3.91,3.91,0,0,1,343,337.15Z"/><path class="cls-5" d="M386.07,463.29H299.92a12.82,12.82,0,1,1,0-25.64h86.15a12.82,12.82,0,0,1,0,25.64Z"/><path class="cls-4" d="M386.07,467.21H299.92a16.74,16.74,0,0,1,0-33.48h86.15a16.74,16.74,0,1,1,0,33.48Zm-86.15-25.65a8.91,8.91,0,0,0,0,17.81h86.15a8.91,8.91,0,0,0,0-17.81Z"/><path class="cls-1" d="M343,20c178.39,0,323,144.61,323,323S521.38,666,343,666,20,521.38,20,343,164.61,20,343,20m0-20A343.08,343.08,0,0,0,209.48,659,343.08,343.08,0,0,0,476.51,27,340.89,340.89,0,0,0,343,0Z"/></g></g></svg>