<svg xmlns="http://www.w3.org/2000/svg" xmlns:xlink="http://www.w3.org/1999/xlink" viewBox="0 0 641.3 615.77"><defs><style>.cls-1{fill:none;}.cls-2{fill:#f0f7f7;}.cls-3{fill:#ffd262;}.cls-4{fill:#fff;}.cls-5{opacity:0.5;}.cls-6{fill:#00405c;}.cls-7{clip-path:url(#clip-path);}.cls-8{fill:#0075a8;}.cls-9{opacity:0.2;}.cls-10{opacity:0.4;}.cls-11{fill:#2b4a48;}.cls-12{fill:#efc8b9;}.cls-13{opacity:0.3;}.cls-14{fill:#c67a60;}.cls-15{fill:#4dbdeb;}.cls-16{clip-path:url(#clip-path-2);}.cls-17{clip-path:url(#clip-path-3);}.cls-18{opacity:0.8;}.cls-19{opacity:0.7;}</style><clipPath id="clip-path"><path class="cls-1" d="M315.63,239.24s-13.31-.18-16.23,4.17-15,31.42-15,31.42l18.86,9.83,4.07-11.61,6.62,24.25c-7.58,6-18.32,60.63-16.19,83.64l70.88.23s.49-63.84-18.68-84.83l4.5-25.35,4.32,12.37,20-8.29L363.7,248A14.57,14.57,0,0,0,351,240.51l-4.91,0s-2.07,18.12-15.24,17.77S315.63,239.24,315.63,239.24Z"/></clipPath><clipPath id="clip-path-2"><path class="cls-1" d="M172.74,286.66l16.85-12.25,21.89,25.93a11.06,11.06,0,0,1,2.25,10l-7.37,28a9.39,9.39,0,0,1-9.73,7h0a9.39,9.39,0,0,1-8.71-10c0-.18,0-.36.06-.54l3.25-25.27Z"/></clipPath><clipPath id="clip-path-3"><path class="cls-1" d="M181.44,277.69l16.85-12.24,21.89,25.93a11.07,11.07,0,0,1,2.26,10l-7.38,28a9.38,9.38,0,0,1-9.73,7h0a9.38,9.38,0,0,1-8.71-10c0-.18,0-.36.06-.54l3.25-25.27Z"/></clipPath></defs><g id="Layer_2" data-name="Layer 2"><g id="Layer_1-2" data-name="Layer 1"><path class="cls-2" d="M580.71,350.22a464.24,464.24,0,0,1-14.57,63.63c-39.6,127-157.21,195.16-285.67,201.4-49,2.38-99.06-3.18-144.22-22.36S51.1,540,29.9,495.79C-3.64,425.81,13.8,342,43.59,270.37,75.33,194,121.44,122.09,186.19,70.7S335.81-9.79,417.49,3C488.76,14.17,555.82,58.17,581,127.74c17.48,48.32,13.45,101.44,8.35,152.57C587,303.65,584.47,327.06,580.71,350.22Z"/><path class="cls-3" d="M539.59,323.08,380,294.63a7.54,7.54,0,0,1-6.1-8.75l17.58-98.6a7.54,7.54,0,0,1,8.75-6.1l159.61,28.46a7.53,7.53,0,0,1,6.1,8.74h0L548.33,317a7.53,7.53,0,0,1-8.74,6.1Z"/><path class="cls-4" d="M536.83,232.77a12.23,12.23,0,1,1-9.9-14.19,12.23,12.23,0,0,1,9.9,14.19Z"/><path class="cls-4" d="M539.32,245.94A12.73,12.73,0,1,1,552,233.18a13.1,13.1,0,0,1-.2,2.26A12.73,12.73,0,0,1,539.32,245.94Zm0-24.46a11.73,11.73,0,1,0,11.56,13.79h0a11.74,11.74,0,0,0-9.5-13.61A11.86,11.86,0,0,0,539.29,221.48Z"/><path class="cls-4" d="M395.28,255.2l-1.72,9.68-1-.17,1.57-8.8-2.28-.41.16-.89Z"/><path class="cls-4" d="M403.68,265.77l-.16.89-6.8-1.21.13-.71,4.73-3.22c1.28-.89,1.61-1.5,1.73-2.16.2-1.13-.47-2-1.95-2.22a3.3,3.3,0,0,0-2.83.61l-.6-.74a4.44,4.44,0,0,1,3.68-.77c2,.35,3,1.57,2.74,3.19-.16.92-.6,1.7-2.13,2.74l-3.87,2.65Z"/><path class="cls-4" d="M414.17,265.93l-1.94-.34-.45,2.54-1-.18.45-2.54-5.46-1,.13-.72,6.28-5.5,1.1.2-6.07,5.37,4.21.75.4-2.24,1,.17-.4,2.24,1.94.35Z"/><path class="cls-4" d="M429,268.58l-1.94-.35-.45,2.55-1-.18.46-2.55-5.47-1,.13-.72,6.28-5.5,1.1.19-6.06,5.37,4.2.75.4-2.24,1,.18-.4,2.24,1.94.34Z"/><path class="cls-4" d="M437.53,269.78c-.29,1.65-1.67,2.73-4,2.31a5.09,5.09,0,0,1-3.25-1.87l.63-.7a4.23,4.23,0,0,0,2.77,1.65c1.65.3,2.66-.35,2.87-1.53s-.42-2.16-2.88-2.59l-2.06-.37,1.37-4.77,5.29.95-.15.88-4.43-.79-.88,3,1.24.22C436.93,266.72,437.83,268.07,437.53,269.78Z"/><path class="cls-4" d="M447.11,271.45a3.06,3.06,0,0,1-3.58,2.44,1.22,1.22,0,0,1-.26-.06c-2.57-.46-3.65-2.49-3.11-5.55.59-3.29,2.69-4.69,5.32-4.22a4.5,4.5,0,0,1,2.21.94l-.55.73a3.42,3.42,0,0,0-1.8-.79c-2.09-.38-3.67.73-4.14,3.36,0,.22-.07.5-.1.79a3.15,3.15,0,0,1,3.26-1.13C446.28,268.3,447.42,269.68,447.11,271.45Zm-1-.15c.23-1.27-.57-2.26-2.06-2.52a2.27,2.27,0,0,0-2.83,1.53.74.74,0,0,0,0,.14c-.19,1.06.52,2.23,2.19,2.53a2.15,2.15,0,0,0,2.68-1.44,1.05,1.05,0,0,0,.06-.24Z"/><path class="cls-4" d="M460.34,273.92c-.29,1.62-1.69,2.65-4,2.24a5.16,5.16,0,0,1-3.27-1.87l.63-.7a4.25,4.25,0,0,0,2.8,1.65c1.6.29,2.62-.3,2.84-1.5s-.48-2.07-2.28-2.39l-.69-.13.13-.73,3.29-2.88-5-.88.16-.89L461.2,267l-.13.7-3.35,3C459.77,271.09,460.62,272.37,460.34,273.92Z"/><path class="cls-4" d="M470.07,275.54a3.07,3.07,0,0,1-3.58,2.45l-.26-.06c-2.57-.46-3.65-2.5-3.1-5.56.58-3.29,2.69-4.68,5.32-4.21a4.5,4.5,0,0,1,2.2.93l-.55.73a3.42,3.42,0,0,0-1.8-.79c-2.08-.37-3.66.73-4.13,3.36a7.36,7.36,0,0,0-.1.79,3.14,3.14,0,0,1,3.25-1.13C469.25,272.4,470.39,273.77,470.07,275.54Zm-1-.15c.23-1.27-.57-2.25-2.06-2.52a2.28,2.28,0,0,0-2.83,1.53c0,.05,0,.09,0,.14-.19,1.07.52,2.24,2.19,2.53a2.16,2.16,0,0,0,2.69-1.43,2.21,2.21,0,0,0,.05-.25Z"/><path class="cls-4" d="M480.19,270.33l-.13.71-5.65,8.26-1.08-.2,5.55-8.08-5-.89-.32,1.81-1-.18.48-2.69Z"/><path class="cls-4" d="M494,272.8l-.13.71-5.65,8.26-1.08-.2,5.55-8.09-5-.88-.32,1.81-1-.18.49-2.69Z"/><path class="cls-4" d="M502.32,281.49c-.31,1.71-1.95,2.52-4.26,2.11s-3.54-1.73-3.24-3.45a2.45,2.45,0,0,1,2.29-2A2.23,2.23,0,0,1,496,275.7c.28-1.57,1.8-2.32,3.85-1.95s3.24,1.59,3,3.17a2.23,2.23,0,0,1-1.93,1.85A2.49,2.49,0,0,1,502.32,281.49Zm-1-.2c.21-1.19-.68-2.12-2.4-2.42s-2.85.26-3.07,1.45.67,2.13,2.38,2.43,2.88-.25,3.09-1.46Zm-2.25-3.21c1.5.27,2.52-.25,2.71-1.3s-.64-1.93-2.09-2.19-2.51.24-2.71,1.32.58,1.9,2.09,2.17Z"/><path class="cls-4" d="M512.12,280.94c-.58,3.29-2.69,4.69-5.32,4.22a4.51,4.51,0,0,1-2.2-.94l.54-.73a3.45,3.45,0,0,0,1.8.79c2.09.38,3.68-.73,4.14-3.36a7.36,7.36,0,0,0,.1-.79,3.14,3.14,0,0,1-3.25,1.13c-1.93-.34-3.07-1.72-2.75-3.49a3.06,3.06,0,0,1,3.58-2.44,1.14,1.14,0,0,1,.25.06C511.59,275.85,512.67,277.88,512.12,280.94Zm-1-2.17c.19-1.06-.52-2.23-2.19-2.53a2.16,2.16,0,0,0-2.69,1.44,2,2,0,0,0-.05.24c-.23,1.27.56,2.26,2.06,2.52a2.28,2.28,0,0,0,2.83-1.53C511.07,278.86,511.09,278.82,511.1,278.77Z"/><path class="cls-4" d="M522.79,277.93l-1.72,9.68-1-.17,1.57-8.8-2.28-.41.15-.89Z"/><path class="cls-4" d="M531.18,288.5l-.15.89-6.8-1.21.13-.71,4.73-3.22c1.28-.89,1.61-1.5,1.72-2.16.2-1.12-.46-2-1.94-2.22a3.33,3.33,0,0,0-2.84.61l-.59-.74a4.42,4.42,0,0,1,3.67-.77c2,.35,3,1.57,2.75,3.19-.17.93-.61,1.7-2.13,2.74l-3.87,2.65Z"/><path class="cls-4" d="M540.21,288.16c-.29,1.62-1.69,2.65-4,2.24a5.16,5.16,0,0,1-3.26-1.87l.62-.7a4.34,4.34,0,0,0,2.81,1.65c1.6.29,2.62-.3,2.83-1.51s-.47-2.06-2.27-2.38l-.69-.13.13-.73,3.29-2.88-5-.89.16-.88,6.23,1.11-.13.7-3.35,3C539.64,285.33,540.48,286.61,540.21,288.16Z"/><rect class="cls-4" x="500.34" y="254.46" width="4.27" height="78.8" transform="translate(125.01 736.98) rotate(-79.89)"/><rect class="cls-4" x="517.73" y="285.42" width="4.27" height="40.41" transform="translate(127.77 763.81) rotate(-79.89)"/><g class="cls-5"><path class="cls-4" d="M400.09,222.35l22.77,4.06a5,5,0,0,1,4,5.76l-2.59,14.54a5,5,0,0,1-5.76,4l-22.78-4.06a5,5,0,0,1-4-5.76h0l2.59-14.54a5,5,0,0,1,5.76-4Z"/></g><path class="cls-3" d="M392.06,239.06l.28-1.56,16.76,3a3.56,3.56,0,1,0,1.26-7h0l-16.76-3,.28-1.56,16.76,3a5.15,5.15,0,1,1-1.81,10.13Z"/><rect class="cls-3" x="418.97" y="232.93" width="1.58" height="11.68" transform="translate(110.69 609.83) rotate(-79.84)"/><rect class="cls-4" x="440.18" y="170.7" width="7.3" height="85.03" transform="translate(156.01 612.72) rotate(-79.89)"/><path class="cls-3" d="M114.13,125.84,234.85,96.51A8.74,8.74,0,0,1,245.42,103L275.82,228a8.75,8.75,0,0,1-6.44,10.57L148.66,268a8.76,8.76,0,0,1-10.57-6.44h0l-30.4-125.1a8.75,8.75,0,0,1,6.44-10.57Z"/><path class="cls-4" d="M226.17,203.1a1.48,1.48,0,0,1-.27.1l-.81.22-3.12.82-11.59,2.92-38.95,9.57-.27.06-.1-.25-2.47-6.24c-7.2-18.29-13.62-34.62-17.8-45.25l.23.12-10.4,2.44-2.78.62-.71.14a.72.72,0,0,1-.25,0,.63.63,0,0,1,.23-.08l.71-.2,2.75-.73,10.36-2.61.17,0,.06.16,18,45.16c.84,2.14,1.68,4.25,2.47,6.24l-.37-.19,39-9.37L221.91,204l3.15-.7.82-.17A1,1,0,0,1,226.17,203.1Z"/><path class="cls-4" d="M167,205.45a1.07,1.07,0,0,1,.27-.09l.8-.22,3.12-.82,11.71-2.93,40.43-9.94-.24.31c-.45-7.1-.94-14.77-1.45-22.72-.26-4.09-.52-8.1-.76-11.93l.39.28-47.7,11.49-14.14,3.33-3.82.87-1,.21a1.86,1.86,0,0,1-.34.06,1.17,1.17,0,0,1,.33-.11l1-.27,3.79-1,14.09-3.52,47.65-11.69.37-.09,0,.38c.24,3.83.5,7.84.76,11.93.5,7.95,1,15.63,1.43,22.73l0,.25-.25.06L183,201.76l-11.75,2.76-3.15.72-.81.17A1.35,1.35,0,0,1,167,205.45Z"/><path class="cls-4" d="M188.67,228c-.06,0-.17-.48-.6-1.24a5.68,5.68,0,0,0-2.71-2.39,5.37,5.37,0,1,0,2,8.37,5.63,5.63,0,0,0,1.31-3.36c0-.88-.09-1.37,0-1.38s.07.11.13.34a4.58,4.58,0,0,1,.15,1,5.57,5.57,0,0,1-1.21,3.64,5.83,5.83,0,0,1-5.2,2.2,5.91,5.91,0,0,1-2.63-10.83,5.85,5.85,0,0,1,5.63-.43,5.58,5.58,0,0,1,2.74,2.68,4,4,0,0,1,.35,1C188.68,227.84,188.69,228,188.67,228Z"/><path class="cls-4" d="M224,219.4c-.06,0-.17-.48-.61-1.24a5.64,5.64,0,0,0-2.71-2.39,5.37,5.37,0,1,0,2,8.37,5.7,5.7,0,0,0,1.31-3.37c0-.87-.09-1.36,0-1.37s.06.11.13.34a4.58,4.58,0,0,1,.15,1,5.67,5.67,0,0,1-1.21,3.64,5.84,5.84,0,0,1-5.2,2.2,5.91,5.91,0,0,1-2.63-10.83,5.85,5.85,0,0,1,5.63-.43,5.58,5.58,0,0,1,2.74,2.68,4.49,4.49,0,0,1,.35,1C224,219.27,224,219.39,224,219.4Z"/><path class="cls-4" d="M232.5,148.47a16.1,16.1,0,1,1-19.44-11.84,16.09,16.09,0,0,1,19.44,11.84Z"/><path class="cls-3" d="M223.69,146.25a16.83,16.83,0,0,1-1.45,3c-1,1.81-2.34,4.29-3.89,7-.59,1-1.15,2-1.67,2.89l-.15.25-.26-.13c-2.05-1.08-3.81-2-5-2.74a9.52,9.52,0,0,1-1.92-1.2,9.82,9.82,0,0,1,2.09.87c1.29.6,3.08,1.48,5.15,2.53l-.4.12,1.64-2.91c1.56-2.71,3-5.16,4.06-6.91A17.08,17.08,0,0,1,223.69,146.25Z"/><path class="cls-6" d="M641.3,532c0,.15-143.57.26-320.64.26S0,532.18,0,532s143.54-.26,320.66-.26S641.3,531.89,641.3,532Z"/><path class="cls-6" d="M396.35,532.23l-132.87-.61a29,29,0,0,1-28.8-29.07l1.4-333.09a29,29,0,0,1,29.07-28.82h0l132.86.62a28.94,28.94,0,0,1,28.81,29.06l-1.41,333.09a28.94,28.94,0,0,1-29.06,28.82Z"/><path class="cls-4" d="M397.83,152.75l-25.76-.12a6.4,6.4,0,0,0-6.28,6.51l0,4.68a6.4,6.4,0,0,1-6.28,6.51l-50.21-.23a6.41,6.41,0,0,1-6.23-6.57l0-4.67a6.4,6.4,0,0,0-6.23-6.57l-9.06,0-22.54-.11a20.27,20.27,0,0,0-20.37,20.18h0L243.5,497.44a20.26,20.26,0,0,0,20.17,20.36l132.6.61a20.26,20.26,0,0,0,20.36-20.17h0L418,173.11A20.28,20.28,0,0,0,397.83,152.75Z"/><path class="cls-6" d="M400.73,184.75a23,23,0,0,1-3.32.18c-2.07,0-5,.08-8.19.08H389l0-.22c-.06-.43-.12-.89-.19-1.36-.56-4-1-7.54-1.28-9.84l.17.14a18.49,18.49,0,0,1-3-.16,18.5,18.5,0,0,1,3-.17h.13l0,.14c.38,2.29.91,5.84,1.47,9.82.06.47.12.92.18,1.36l-.25-.23c3.24,0,6.12,0,8.19.09A21.66,21.66,0,0,1,400.73,184.75Z"/><path class="cls-6" d="M388.88,182.37a3.37,3.37,0,0,1,.89-.09l2.47-.07c2.1,0,5.06-.08,8.49-.09l-.24.2.8-4.57c.14-.83.29-1.64.42-2.41l.26.3c-4,0-7.5,0-10-.08l-3-.08a4.83,4.83,0,0,1-1.08-.09,4.83,4.83,0,0,1,1.08-.1l3-.07c2.52-.05,6-.08,10-.09h.3l0,.3c-.14.77-.28,1.58-.42,2.41-.29,1.59-.56,3.14-.82,4.57l0,.21h-.21c-3.43,0-6.39-.05-8.49-.09l-2.47-.08A3.83,3.83,0,0,1,388.88,182.37Z"/><path class="cls-6" d="M392.1,187.88c-.09,0-.09-.45-.57-.77a1,1,0,0,0-.9-.09.92.92,0,0,0-.51,1.2.91.91,0,0,0,.51.51,1,1,0,0,0,.9-.08c.48-.32.48-.79.57-.77s.07.1.06.3a1.13,1.13,0,0,1-.41.76,1.32,1.32,0,0,1-1.28.25,1.38,1.38,0,0,1-.86-1.75,1.36,1.36,0,0,1,.86-.87,1.32,1.32,0,0,1,1.28.25,1.13,1.13,0,0,1,.41.75C392.17,187.77,392.13,187.88,392.1,187.88Z"/><path class="cls-6" d="M399.51,187.88c-.08,0-.09-.45-.57-.77a1,1,0,0,0-.89-.09.92.92,0,0,0-.52,1.2.9.9,0,0,0,.52.51,1,1,0,0,0,.89-.08c.48-.32.49-.79.57-.77s.08.1.06.3a1.13,1.13,0,0,1-.41.76,1.32,1.32,0,0,1-1.28.25,1.38,1.38,0,0,1-.86-1.75,1.36,1.36,0,0,1,.86-.87,1.32,1.32,0,0,1,1.28.25,1.13,1.13,0,0,1,.41.75C399.59,187.77,399.54,187.88,399.51,187.88Z"/><path class="cls-6" d="M282.59,186a93.55,93.55,0,0,1-9.91.26,93.69,93.69,0,0,1-9.91-.26,93.69,93.69,0,0,1,9.91-.26A93.55,93.55,0,0,1,282.59,186Z"/><path class="cls-6" d="M282.59,182.23a96.3,96.3,0,0,1-9.91.26,96.45,96.45,0,0,1-9.91-.26,93.69,93.69,0,0,1,9.91-.26A93.55,93.55,0,0,1,282.59,182.23Z"/><path class="cls-6" d="M282.59,178.48a93.55,93.55,0,0,1-9.91.26,93.69,93.69,0,0,1-9.91-.26,96.45,96.45,0,0,1,9.91-.26A96.3,96.3,0,0,1,282.59,178.48Z"/><g class="cls-7"><path class="cls-8" d="M315.63,239.24s-13.31-.18-16.23,4.17-15,31.42-15,31.42l18.86,9.83,4.07-11.61,6.62,24.25c-7.58,6-18.32,60.63-16.19,83.64l70.88.23s.49-63.84-18.68-84.83l4.5-25.35,4.32,12.37,20-8.29L363.7,248A14.57,14.57,0,0,0,351,240.51l-4.91,0s-2.07,18.12-15.24,17.77S315.63,239.24,315.63,239.24Z"/><path class="cls-4" d="M383.8,325.32a1.65,1.65,0,0,1,0-.32c0-.24,0-.55-.07-.94a9.7,9.7,0,0,0-.18-1.52,15.7,15.7,0,0,0-.42-2,19.14,19.14,0,0,0-2.21-5.23,19.64,19.64,0,0,0-23.58-8.35,18.44,18.44,0,0,0-5,2.67,18,18,0,0,0-4.14,4.16,19.66,19.66,0,0,0-3.8,11.57,20.61,20.61,0,0,0,1,6.18,18.93,18.93,0,0,0,2.79,5.39,17.77,17.77,0,0,0,4.14,4.16,18.44,18.44,0,0,0,5,2.67,19.69,19.69,0,0,0,23.58-8.35,19.14,19.14,0,0,0,2.21-5.23,14.2,14.2,0,0,0,.42-2,9.7,9.7,0,0,0,.18-1.52c0-.39.05-.7.07-.94a1.75,1.75,0,0,1,0-.32,1.16,1.16,0,0,1,0,.32l0,.95a8.78,8.78,0,0,1-.13,1.53,13.23,13.23,0,0,1-.38,2.07,18.87,18.87,0,0,1-2.15,5.33,20,20,0,0,1-24,8.65,18.58,18.58,0,0,1-5.08-2.72,18.14,18.14,0,0,1-4.26-4.26,19.44,19.44,0,0,1-2.88-5.53,21.35,21.35,0,0,1-1-6.34,20.12,20.12,0,0,1,3.91-11.87,18.14,18.14,0,0,1,4.26-4.26,18.85,18.85,0,0,1,5.08-2.72,20,20,0,0,1,24,8.65,19,19,0,0,1,2.15,5.33,13.23,13.23,0,0,1,.38,2.07,8.78,8.78,0,0,1,.13,1.53l0,.95A1.15,1.15,0,0,1,383.8,325.32Z"/><path class="cls-4" d="M321.35,280.78a25.2,25.2,0,0,0-.56-3.55,14.47,14.47,0,0,0-25.69-5,14.33,14.33,0,0,0,0,17,14.48,14.48,0,0,0,25.31-3.69c.15-.41.28-.84.39-1.27a24.75,24.75,0,0,0,.56-3.55,1,1,0,0,1,0,.24c0,.19,0,.42,0,.7a7.08,7.08,0,0,1-.09,1.13,11.14,11.14,0,0,1-.28,1.53,13.76,13.76,0,0,1-1.59,4,14.84,14.84,0,1,1-17.78-21.55,15,15,0,0,1,7.82-.62,14.81,14.81,0,0,1,10,7.05,13.87,13.87,0,0,1,1.59,4,11.14,11.14,0,0,1,.28,1.53,7.08,7.08,0,0,1,.09,1.13c0,.29,0,.51,0,.7A1,1,0,0,1,321.35,280.78Z"/><path class="cls-4" d="M321.34,367.1s0-.4-.24-1.07a4.47,4.47,0,0,0-1.64-2.36,4.27,4.27,0,1,0,0,6.85,4.45,4.45,0,0,0,1.64-2.35c.19-.67.19-1.07.24-1.07s0,.1,0,.29a3.29,3.29,0,0,1-.08.83,4.43,4.43,0,0,1-1.62,2.59,4.65,4.65,0,0,1-4.44.73,4.71,4.71,0,1,1,4.44-8.16,4.49,4.49,0,0,1,1.62,2.6,3.29,3.29,0,0,1,.08.83C321.37,367,321.36,367.1,321.34,367.1Z"/><path class="cls-4" d="M313.55,252c-.05,0-.05-.4-.24-1.08a4.46,4.46,0,0,0-1.65-2.35,4.27,4.27,0,1,0,0,6.85,4.46,4.46,0,0,0,1.65-2.35c.19-.67.19-1.08.24-1.07s0,.09,0,.29a3.34,3.34,0,0,1-.08.83,4.46,4.46,0,0,1-1.62,2.59,4.65,4.65,0,0,1-4.44.73,4.71,4.71,0,1,1,4.44-8.16,4.49,4.49,0,0,1,1.62,2.59,3.42,3.42,0,0,1,.08.84C313.58,251.86,313.57,252,313.55,252Z"/><path class="cls-4" d="M328.19,345.57a3,3,0,0,1-.09-.43c-.05-.31-.12-.7-.21-1.2-.19-1.08-.45-2.59-.77-4.5-.64-3.88-1.54-9.36-2.62-15.9l.26.18-22.06,3.51.21-.29h0v.17l0,.19.06.38.12.75c.08.5.16,1,.23,1.5.16,1,.31,2,.47,2.95.3,1.94.6,3.85.89,5.7.57,3.71,1.11,7.2,1.61,10.42l-.26-.19,16-2.39,4.51-.66,1.21-.16a3.13,3.13,0,0,1,.43,0,1.53,1.53,0,0,1-.37.08l-1.16.21-4.45.76-16,2.64-.22,0,0-.22c-.52-3.21-1.08-6.71-1.67-10.41q-.44-2.78-.9-5.7c-.16-1-.31-2-.47-3-.08-.5-.16-1-.23-1.5l-.12-.75-.06-.38,0-.19,0-.09V327h0c-.2.26.26-.37.22-.3l22.07-3.44.22,0,0,.23c1,6.62,1.83,12.15,2.42,16.08.27,1.89.49,3.39.64,4.47.07.48.12.86.16,1.16A1.71,1.71,0,0,1,328.19,345.57Z"/><path class="cls-4" d="M355.16,287.85a3.18,3.18,0,0,1,.26-.44l.75-1.22,2.89-4.53,10.27-16,.07.31-22.07-14.33.36-.07h0l0,0,0,0-.06.1-.12.19-.25.38-.49.75-1,1.49-1.92,2.95-3.72,5.69-6.8,10.39-.06-.31c6.54,4.31,12,7.92,15.86,10.46l4.46,3,1.19.81a3.91,3.91,0,0,1,.41.3c-.14-.07-.27-.15-.4-.23l-1.17-.74L349.1,284,333,273.67l-.19-.12.13-.19L339.68,263l3.7-5.7,1.92-2.95,1-1.5.49-.75.24-.38.12-.19.07-.09,0,0v0h0l.37-.08,22,14.39.19.13-.12.18-10.55,16-3,4.43-.78,1.15A3.18,3.18,0,0,1,355.16,287.85Z"/><path class="cls-4" d="M340.26,355.14a.89.89,0,0,1-.08.17l-.26.46c-.24.43-.56,1-1,1.75L335.31,364c-3.07,5.46-7.54,13.24-12.75,22.31l-.22-.37h35.84l-.21.37c-5.21-9.07-9.68-16.85-12.76-22.31l-3.63-6.47-1-1.75-.25-.46-.09-.17s.12.18.34.55l1,1.67,3.78,6.38c3.27,5.53,7.76,13.27,13,22.32l.22.36h-.43l-17.92,0-17.92,0h-.42l.21-.36c5.25-9.05,9.74-16.79,13-22.32l3.78-6.38,1-1.67Z"/><path class="cls-4" d="M326.05,298a3,3,0,0,1,.13.39l.32,1.1c.29,1,.68,2.33,1.16,4,1,3.34,2.29,8.21,3.84,13.88l-.42-.11,7.11-7.13,7.12-7.1.11.41c-5.67-1.54-10.53-2.86-13.88-3.83l-4-1.16-1.09-.32-.4-.13a1.28,1.28,0,0,1,.34.07l1.05.25,4,1c3.54.88,8.39,2.16,14.07,3.66l.41.11-.3.3-7.11,7.12-7.12,7.1-.3.3-.11-.41c-1.5-5.67-2.78-10.53-3.65-14.06-.42-1.68-.75-3-1-4-.1-.42-.18-.77-.25-1.05A2.05,2.05,0,0,1,326.05,298Z"/></g><path class="cls-6" d="M350.32,296.45c0,.14-8,.45-17.95.7s-18,.32-18,.17,8-.45,18-.7S350.32,296.3,350.32,296.45Z"/><path class="cls-6" d="M301.39,256.62a84.74,84.74,0,0,1,3.35,8.83,86.11,86.11,0,0,1,2.86,9,83.73,83.73,0,0,1-3.35-8.82A86.28,86.28,0,0,1,301.39,256.62Z"/><path class="cls-6" d="M356.34,257.86a14.53,14.53,0,0,1-.19,2.87c-.19,1.77-.5,4.21-.93,6.89s-.9,5.09-1.27,6.83a14.85,14.85,0,0,1-.72,2.79,17.21,17.21,0,0,1,.36-2.86l1.11-6.85c.41-2.58.78-4.93,1.09-6.85A16,16,0,0,1,356.34,257.86Z"/><path class="cls-6" d="M318.21,309.17a5,5,0,0,1-.38-1.9,14.62,14.62,0,0,1,2.22-9,4.94,4.94,0,0,1,1.22-1.5A19.83,19.83,0,0,0,318.21,309.17Z"/><path class="cls-6" d="M323.6,303.58a8.89,8.89,0,0,1,.1-6.48,31.92,31.92,0,0,1-.14,3.24A31.84,31.84,0,0,1,323.6,303.58Z"/><path class="cls-6" d="M354.66,364.45a3.2,3.2,0,0,1-.6-.26,18.48,18.48,0,0,1-1.66-.86,30.29,30.29,0,0,1-5.55-4.06,38.66,38.66,0,0,1-6.54-7.83A49.63,49.63,0,0,1,335,340.13a90.47,90.47,0,0,1-3.72-22.33c-.18-2.89-.26-5.23-.31-6.85,0-.77,0-1.39,0-1.87a2.81,2.81,0,0,1,0-.65,2.82,2.82,0,0,1,.08.65c0,.48.08,1.09.14,1.86.11,1.68.27,4,.46,6.84.47,5.75,1.16,13.78,3.85,22.19a50.8,50.8,0,0,0,5.21,11.21A39.33,39.33,0,0,0,347.1,359a33,33,0,0,0,5.4,4.16C353.88,364,354.68,364.4,354.66,364.45Z"/><g class="cls-9"><path d="M331.7,315.3a40.62,40.62,0,0,0,14.95,26.26c3,2.34,6.48,4.51,7.73,8.09,1,2.88.3,6.11-.95,8.91a4.2,4.2,0,0,1-2.4,2.63c-1.21.32-2.44-.4-3.45-1.16-6.57-4.94-10.8-12.49-13.16-20.37s-3-16.14-3.62-24.34"/></g><path class="cls-6" d="M371,420c0,.14-16.89.26-37.73.26s-37.73-.12-37.73-.26,16.89-.26,37.73-.26S371,419.85,371,420Z"/><path class="cls-6" d="M371,212c0,.15-16.89.26-37.73.26s-37.73-.11-37.73-.26,16.89-.26,37.73-.26S371,211.81,371,212Z"/><path class="cls-6" d="M371,426.22c0,.15-16.89.26-37.73.26s-37.73-.11-37.73-.26,16.89-.26,37.73-.26S371,426.08,371,426.22Z"/><path d="M328.14,444.36v10.86h-2.51v-8.84h-2.17v-2Z"/><path d="M330,449.79c0-3.58,2-5.62,4.65-5.62s4.66,2,4.66,5.62-2,5.62-4.66,5.62S330,453.38,330,449.79Zm6.78,0c0-2.47-.87-3.49-2.13-3.49s-2.11,1-2.11,3.49.87,3.49,2.11,3.49S336.82,452.26,336.82,449.79Z"/><path class="cls-6" d="M346.28,446.74a2.15,2.15,0,0,1-1.9,2.37,2.08,2.08,0,0,1-.35,0,2.39,2.39,0,0,1-1.23-.3l.38-.75a1.5,1.5,0,0,0,.83.22,1.17,1.17,0,0,0,1.24-1.11.54.54,0,0,0,0-.18,1.53,1.53,0,0,1-1.1.4,1.42,1.42,0,0,1-1.52-1.28V446a1.52,1.52,0,0,1,1.56-1.48h.11C345.53,444.55,346.28,445.31,346.28,446.74Zm-1.14-.77a.68.68,0,0,0-.77-.66.66.66,0,1,0-.15,1.32h.16a.67.67,0,0,0,.75-.61.09.09,0,0,0,0,0Z"/><path class="cls-6" d="M350.3,446.74a2.15,2.15,0,0,1-1.9,2.37,2.08,2.08,0,0,1-.35,0,2.39,2.39,0,0,1-1.23-.3l.38-.75a1.52,1.52,0,0,0,.83.22,1.18,1.18,0,0,0,1.25-1.11,1.09,1.09,0,0,0,0-.18,1.53,1.53,0,0,1-1.1.4,1.42,1.42,0,0,1-1.52-1.28V446a1.52,1.52,0,0,1,1.56-1.48h.12C349.55,444.55,350.3,445.31,350.3,446.74Zm-1.14-.77a.68.68,0,0,0-.77-.66.66.66,0,1,0-.15,1.32h.16a.68.68,0,0,0,.75-.61.09.09,0,0,0,0,0Z"/><rect class="cls-6" x="342.5" y="450.63" width="7.76" height="0.98"/><path class="cls-8" d="M354.86,412c0,.15-9.35.26-20.89.26s-20.89-.11-20.89-.26,9.36-.26,20.89-.26S354.86,411.89,354.86,412Z"/><circle class="cls-8" cx="389.16" cy="449.05" r="15.08"/><path class="cls-4" d="M385.35,457.51a4.24,4.24,0,0,1,.83-.75c.55-.45,1.36-1.09,2.37-1.88,2-1.57,4.84-3.71,8-6v.41h0l0,0-.08-.05-.14-.11-.29-.22-.58-.43-1.12-.85-2.12-1.6-3.57-2.73c-1-.78-1.82-1.43-2.37-1.88a3.94,3.94,0,0,1-.83-.75,4.87,4.87,0,0,1,.95.59l2.47,1.74,3.64,2.65,2.14,1.58,1.12.83.58.43.29.22.15.11.07,0,0,0h0v.42c-3.13,2.34-6,4.43-8.05,5.93l-2.48,1.74A4.44,4.44,0,0,1,385.35,457.51Z"/><circle class="cls-8" cx="275" cy="449.05" r="15.08"/><path class="cls-4" d="M278.8,440.58a4.15,4.15,0,0,1-.82.75c-.56.45-1.37,1.1-2.38,1.88-2,1.57-4.84,3.71-8,6,0-.83,0-.23,0-.41h0l0,0,.08.06.14.1.29.22.58.43,1.12.85,2.12,1.6,3.57,2.73,2.38,1.88a4.48,4.48,0,0,1,.82.75,5,5,0,0,1-.95-.59l-2.47-1.74-3.64-2.65L269.61,451l-1.13-.84-.58-.43-.29-.22-.14-.11-.08-.05,0,0h0v-.42c3.13-2.34,6-4.43,8.06-5.92l2.47-1.75A5.55,5.55,0,0,1,278.8,440.58Z"/><rect class="cls-3" x="264.44" y="474.74" width="30.13" height="30.13"/><rect class="cls-3" x="302.67" y="474.74" width="30.13" height="30.13"/><rect class="cls-3" x="340.89" y="474.74" width="30.13" height="30.13"/><rect class="cls-3" x="379.11" y="474.74" width="30.13" height="30.13"/><rect class="cls-8" x="304.5" y="201.49" width="56.22" height="3.2"/><path class="cls-6" d="M546.93,475.07a2.32,2.32,0,0,1,0-.59c0-.45,0-1,0-1.7,0-1.55-.05-3.67-.08-6.26q0-2,0-4.32c0-.78,0-1.58,0-2.41a20.22,20.22,0,0,1,.08-2.58,8.57,8.57,0,0,1,16.74-1.16,9,9,0,0,1,.32,2.59c0,.82,0,1.62,0,2.4,0,1.55,0,3,0,4.32,0,2.59-.07,4.71-.09,6.26l-.05,1.7a.31.31,0,0,1,.25.35.3.3,0,0,1-.35.24.3.3,0,0,1,0-.59c0-.44,0-1,0-1.7,0-1.55,0-3.67-.08-6.26,0-1.32,0-2.77,0-4.32a19.32,19.32,0,0,0-.34-4.86,8.1,8.1,0,0,0-15.8,1.1,19.09,19.09,0,0,0-.1,2.51c0,.83,0,1.63,0,2.41q0,2.32,0,4.32c0,2.59-.07,4.71-.09,6.26l0,1.7A2.32,2.32,0,0,1,546.93,475.07Z"/><path class="cls-6" d="M557.25,475.07a2.32,2.32,0,0,1,0-.59c0-.45,0-1-.05-1.7,0-1.55,0-3.67-.08-6.26q0-2,0-4.32c0-.78,0-1.58,0-2.41a20.22,20.22,0,0,1,.08-2.58,8.57,8.57,0,0,1,16.74-1.16,9,9,0,0,1,.32,2.59V461c0,1.55,0,3,0,4.32,0,2.59-.06,4.71-.08,6.26l0,1.7a.3.3,0,0,1,.24.35.29.29,0,0,1-.34.24.3.3,0,0,1-.24-.35.29.29,0,0,1,.24-.24c0-.44,0-1,0-1.7,0-1.55-.05-3.67-.08-6.26,0-1.32,0-2.77,0-4.32a18.86,18.86,0,0,0-.33-4.86,8.1,8.1,0,0,0-15.8,1.1,19.09,19.09,0,0,0-.1,2.51c0,.83,0,1.63,0,2.41,0,1.55,0,3,0,4.32,0,2.59-.07,4.71-.09,6.26l-.05,1.7A2.32,2.32,0,0,1,557.25,475.07Z"/><polygon class="cls-8" points="534.42 470.67 527.47 532.06 575.19 532.06 581.22 470.67 534.42 470.67"/><polygon class="cls-8" points="581.22 470.67 591.18 470.67 599.6 532.06 575.19 532.06 581.22 470.67"/><g class="cls-10"><polygon points="581.22 470.67 591.18 470.67 599.6 532.06 575.19 532.06 581.22 470.67"/></g><polygon class="cls-11" points="532.47 487.94 578.33 500.15 575.99 523.94 529.72 512.18 532.47 487.94"/><path class="cls-6" d="M460.1,376.44a31,31,0,0,0-.33,18.8c1.13,3.74,3,7.49,2.43,11.36-.46,3.16-2.52,5.93-2.92,9.09-.83,6.44,5.29,12.54,3.65,18.82a10,10,0,0,1-5.87,6.36,18.34,18.34,0,0,1-8.8,1.1c-4.39-.38-9.14-2.05-11.17-6-1.61-3.12-1.11-6.86-.55-10.33,2.48-15.32,5.34-30.75,11.56-45"/><path class="cls-6" d="M462.05,423.8a3,3,0,0,1-.51.16,5.06,5.06,0,0,1-1.55.13,5.9,5.9,0,0,1-2.35-.68,5.28,5.28,0,0,1-2.27-2.31,5.83,5.83,0,0,1-.44-3.9,5.59,5.59,0,0,1,.93-2,8.65,8.65,0,0,1,1.67-1.64,45.7,45.7,0,0,0,4-2.95,8,8,0,0,0,2.22-4.63,13.33,13.33,0,0,0-.38-5.22,29.59,29.59,0,0,0-1.74-4.62,38.13,38.13,0,0,1-3-7.85,11.86,11.86,0,0,1,0-5.65,6.4,6.4,0,0,1,.82-1.92,12.25,12.25,0,0,0-.7,2,12,12,0,0,0,.07,5.57,38.67,38.67,0,0,0,3.08,7.78,30.82,30.82,0,0,1,1.77,4.66A13.56,13.56,0,0,1,464,406a8.16,8.16,0,0,1-2.32,4.8,41.41,41.41,0,0,1-4,3,6.2,6.2,0,0,0-2.52,3.48,5.67,5.67,0,0,0,.39,3.74,5.16,5.16,0,0,0,2.15,2.26A6,6,0,0,0,460,424,6.73,6.73,0,0,0,462.05,423.8Z"/><path class="cls-12" d="M401.58,522.44l-2.5,9.57-25.75-.24s1.9-4.5,16-4.29l1-5Z"/><path class="cls-6" d="M495.33,378.8c-.25.49-6.78,34.09-6.78,34.09l15.41.72,6-28.89Z"/><polygon class="cls-6" points="488.55 412.89 486.78 412.14 493.45 379.03 495.54 378.89 488.55 412.89"/><path class="cls-6" d="M501.52,386.15a.81.81,0,0,0,.7.89.8.8,0,1,0,.19-1.59h0A.81.81,0,0,0,501.52,386.15Z"/><path class="cls-12" d="M504.71,409.73l.22-4.4-6.58-2.71,2.57-6.1a5.31,5.31,0,0,1,7-2.72l.39.19,2.64,1.44a7.48,7.48,0,0,1,3.75,4.87A97.07,97.07,0,0,1,516.23,411"/><path class="cls-8" d="M522.33,521.73s27.08,7.49,28.16,7.88c1.64.57,1.36,6.55-1.18,6.45-1.2,0-20.8.73-23.28.58s-9.94-3.1-9.94-3.1Z"/><path class="cls-6" d="M533.61,532.06a11.82,11.82,0,0,1,3.11-5.4A6,6,0,0,0,533.61,532.06Z"/><path class="cls-6" d="M530.78,530.78c.14,0,.41-1.26,1.13-2.67s1.57-2.41,1.48-2.5A6.82,6.82,0,0,0,530.78,530.78Z"/><path class="cls-6" d="M528.14,530.07a9.49,9.49,0,0,1,2.1-5.39A5.09,5.09,0,0,0,528.14,530.07Z"/><path class="cls-6" d="M528.62,526.57a4.75,4.75,0,0,0,.29-2,9.63,9.63,0,0,0-.28-2.21,9.22,9.22,0,0,0-.4-1.26,1.52,1.52,0,0,0-.43-.66.74.74,0,0,0-.93,0,1.27,1.27,0,0,0-.37.77,5.78,5.78,0,0,0,0,.72,5.9,5.9,0,0,0,.17,1.32,8.08,8.08,0,0,0,.83,2.07,5.28,5.28,0,0,0,1.22,1.63c.06,0-.4-.67-.94-1.78a9.41,9.41,0,0,1-.71-2,6.44,6.44,0,0,1-.13-1.24c0-.41,0-.93.25-1.13a.25.25,0,0,1,.36,0,1.12,1.12,0,0,1,.3.47,10.46,10.46,0,0,1,.41,1.19,10.93,10.93,0,0,1,.36,2.12C528.67,525.8,528.54,526.56,528.62,526.57Z"/><path class="cls-6" d="M528.58,526.3a3.71,3.71,0,0,0-1.74-.28,7.39,7.39,0,0,0-1.93.23,4.07,4.07,0,0,0-1.1.41,1.13,1.13,0,0,0-.61,1.24,1.33,1.33,0,0,0,1,1,2.52,2.52,0,0,0,1.22,0,5.86,5.86,0,0,0,3-2.1,12.51,12.51,0,0,0-1.44,1,4.74,4.74,0,0,1-1.66.72,2.11,2.11,0,0,1-1,0,.92.92,0,0,1-.66-.65.69.69,0,0,1,.4-.75,4.36,4.36,0,0,1,1-.39,9.46,9.46,0,0,1,1.83-.31C527.91,526.26,528.57,526.37,528.58,526.3Z"/><path class="cls-6" d="M537.77,532.35a7.28,7.28,0,0,1,1.86-4.56A3.87,3.87,0,0,0,537.77,532.35Z"/><path class="cls-6" d="M518.87,533.6a5,5,0,0,0,1,.49,22.8,22.8,0,0,0,3,.94,43.33,43.33,0,0,0,10.34,1c4.06,0,7.72-.23,10.37-.34l3.14-.16a6.43,6.43,0,0,0,1.15-.13,6.4,6.4,0,0,0-1.16,0l-3.14,0-10.36.2a48.5,48.5,0,0,1-10.27-.83C520.42,534.18,518.9,533.52,518.87,533.6Z"/><path class="cls-6" d="M518.07,534.22c0,.06.78-.37,2-.92a9.44,9.44,0,0,1,5.13-.85,8.11,8.11,0,0,1,4.42,2.63,16.94,16.94,0,0,0,1.57,1.6,8.76,8.76,0,0,0-1.33-1.82,10.19,10.19,0,0,0-1.8-1.67A6.37,6.37,0,0,0,525.3,532a9,9,0,0,0-5.33,1A7.14,7.14,0,0,0,518.07,534.22Z"/><path class="cls-8" d="M493.58,514.25S468,531,467,531.72c-1.38,1,.2,6,2.59,5.15,1.13-.4,22.63-6.39,24.95-7.29s8.53-6,8.53-6Z"/><path class="cls-6" d="M486,527.52a6,6,0,0,0-4.6-4.2A11.92,11.92,0,0,1,486,527.52Z"/><path class="cls-6" d="M488.27,525.44a6.79,6.79,0,0,0-4-4.13c-.06.12,1.06.79,2.17,1.93S488.15,525.51,488.27,525.44Z"/><path class="cls-6" d="M490.58,524a5.07,5.07,0,0,0-3.65-4.49A9.46,9.46,0,0,1,490.58,524Z"/><path class="cls-6" d="M489.06,520.78c.07,0-.28-.73-.58-1.92a10.94,10.94,0,0,1-.3-2.12,8.94,8.94,0,0,1,0-1.27,1,1,0,0,1,.14-.54.27.27,0,0,1,.35-.08c.29.12.44.62.58,1a6.29,6.29,0,0,1,.25,1.22,8.93,8.93,0,0,1-.07,2.13c-.17,1.22-.42,2-.34,2a5.48,5.48,0,0,0,.66-1.92A8.33,8.33,0,0,0,490,517a6.32,6.32,0,0,0-.25-1.31,4.86,4.86,0,0,0-.25-.67,1.19,1.19,0,0,0-.57-.62.73.73,0,0,0-.9.23,1.52,1.52,0,0,0-.22.77,9.6,9.6,0,0,0,.41,3.51A4.87,4.87,0,0,0,489.06,520.78Z"/><path class="cls-6" d="M489,520.5c0,.07.63-.23,1.66-.49a9.47,9.47,0,0,1,1.84-.25,4.13,4.13,0,0,1,1.05.07.69.69,0,0,1,.61.6.89.89,0,0,1-.43.81,2.15,2.15,0,0,1-.95.32,5,5,0,0,1-1.8-.18,11.34,11.34,0,0,0-1.67-.49,4.86,4.86,0,0,0,1.57.8,4.75,4.75,0,0,0,1.94.29,2.52,2.52,0,0,0,1.16-.37,1.37,1.37,0,0,0,.64-1.22,1.16,1.16,0,0,0-1-1,4.25,4.25,0,0,0-1.18,0,7.6,7.6,0,0,0-1.9.36A3.69,3.69,0,0,0,489,520.5Z"/><path class="cls-6" d="M472.89,535.94s.43-.26.63-1a3.77,3.77,0,0,0-.48-2.78,9.87,9.87,0,0,0-.86-1.28,4.51,4.51,0,0,0-.87-.93,1.54,1.54,0,0,0-.82-.34c-.21,0-.32,0-.32.07a2.4,2.4,0,0,1,.94.51,6.06,6.06,0,0,1,.73.94,12.61,12.61,0,0,1,.8,1.25,4,4,0,0,1,.57,2.5C473.11,535.54,472.83,535.89,472.89,535.94Z"/><path class="cls-6" d="M482.09,529.06a3.87,3.87,0,0,0-3.15-3.78A7.32,7.32,0,0,1,482.09,529.06Z"/><path class="cls-6" d="M500.48,524.51a8.73,8.73,0,0,0-1.13.78,31.74,31.74,0,0,1-3.16,1.93,41.73,41.73,0,0,1-5,2.24c-1.94.72-4.11,1.4-6.42,2.07-4.61,1.33-8.78,2.54-11.79,3.45l-3.56,1.09a8.24,8.24,0,0,0-1.29.46,7.82,7.82,0,0,0,1.34-.29l3.6-1c3-.83,7.22-2,11.83-3.32,2.31-.67,4.49-1.37,6.44-2.12a37.68,37.68,0,0,0,5-2.35,25.45,25.45,0,0,0,3.11-2.07A6.84,6.84,0,0,0,500.48,524.51Z"/><path class="cls-6" d="M501.43,524.86a7.12,7.12,0,0,0-2.17-.58,9,9,0,0,0-5.39.66,6.4,6.4,0,0,0-2.31,2,11.26,11.26,0,0,0-1.2,2.14,8.47,8.47,0,0,0-.71,2.13,14.81,14.81,0,0,0,1-2,8.18,8.18,0,0,1,3.42-3.86,9.48,9.48,0,0,1,5.15-.74C500.57,524.74,501.41,524.93,501.43,524.86Z"/><path class="cls-8" d="M432.13,414.29l21,2,8.54,2.41a23.14,23.14,0,0,1,9.72,5.58l27.51,26.4,5-41,13.75,1.2-2.3,52.8a15.71,15.71,0,0,1-15,10.94A16.21,16.21,0,0,1,489.34,470l-19.59-18.41-.59,26.31,13.6,11-52.42,29.2s-2.84-11.15-1.55-36c.24-4.56-8.12-18.39-8.76-22.47-2.45-15.64-2.07-38.54-2.07-38.54Z"/><path class="cls-8" d="M419.21,420.67s-10.63,3.94-13.2,12.27c-2.28,7.38-9.89,48.91-9.89,48.91l-7.54,43.95,15.8.6,18.2-74.91Z"/><path class="cls-6" d="M418.5,469.21a3.34,3.34,0,0,0,.32-.9c.18-.58.42-1.43.71-2.48.56-2.1,1.3-5,2-8.26s1.31-6.2,1.7-8.34c.2-1.08.34-1.94.43-2.55a3.75,3.75,0,0,0,.09-.94,4,4,0,0,0-.26.91c-.16.69-.35,1.53-.57,2.51-.5,2.24-1.13,5.12-1.84,8.31s-1.38,6-1.89,8.28q-.33,1.49-.57,2.52A4.85,4.85,0,0,0,418.5,469.21Z"/><path class="cls-6" d="M515.25,414.78a10,10,0,0,0,.35-4.18A9.7,9.7,0,0,0,515.25,414.78Z"/><path class="cls-6" d="M511.23,414.91a11.08,11.08,0,0,0,.22-4.44A11.08,11.08,0,0,0,511.23,414.91Z"/><path class="cls-6" d="M507.23,414.65a13.68,13.68,0,0,0,.27-4.94A13.69,13.69,0,0,0,507.23,414.65Z"/><path class="cls-6" d="M499.5,457a29.24,29.24,0,0,0-.75-7.22A29.19,29.19,0,0,0,499.5,457Z"/><path class="cls-6" d="M401.78,521.82a11.44,11.44,0,0,0-.77,4.48A11.59,11.59,0,0,0,401.78,521.82Z"/><path class="cls-6" d="M396.58,521.82a9.44,9.44,0,0,0-.67,4.07A9.44,9.44,0,0,0,396.58,521.82Z"/><path class="cls-6" d="M391.65,521.32a19.5,19.5,0,0,0-.76,4.56A8.62,8.62,0,0,0,391.65,521.32Z"/><path class="cls-6" d="M410.68,425.79c0,.08,1.1,0,2.82.37a13.12,13.12,0,0,1,9.79,8.55c.59,1.65.67,2.75.75,2.74a2.21,2.21,0,0,0,0-.77,11,11,0,0,0-.43-2.07,12.63,12.63,0,0,0-10-8.76,10.65,10.65,0,0,0-2.11-.15A2,2,0,0,0,410.68,425.79Z"/><path class="cls-6" d="M467.45,462.87c-.09,0,.41-1.3.91-3.41a29.87,29.87,0,0,0-.89-16.7c-.72-2.05-1.35-3.25-1.26-3.29a3.08,3.08,0,0,1,.51.81,20.24,20.24,0,0,1,1.1,2.36,27,27,0,0,1,.9,16.91,19.32,19.32,0,0,1-.85,2.46A3,3,0,0,1,467.45,462.87Z"/><path class="cls-6" d="M468.8,477.38a2.8,2.8,0,0,1-.91.06c-.59,0-1.44,0-2.48-.11a42,42,0,0,1-15.65-4.48c-.93-.48-1.66-.9-2.16-1.22a3.23,3.23,0,0,1-.74-.53c.05-.07,1.18.55,3.06,1.42A51.6,51.6,0,0,0,465.45,477C467.51,477.22,468.8,477.3,468.8,477.38Z"/><g class="cls-9"><path d="M445.59,470.07c1.65,1.47,4.2,1.68,6.41,1.64s4.4-.48,6.6-.44a8.15,8.15,0,0,1,6,2.28,2.94,2.94,0,0,1,.86,1.8,1.6,1.6,0,0,1-1,1.61,2.45,2.45,0,0,1-1.26,0c-6.18-1.27-12.84-2.72-17.63-6.84"/></g><g class="cls-9"><path d="M425.34,472c1.63-.48,1.9-2.38,2.06-4.08a37,37,0,0,0-3.93-20.29c-.78,4.59-2.05,9.38-3,14.06Z"/></g><path class="cls-4" d="M422.49,452.88a4.19,4.19,0,0,0-1.33-.6,4.56,4.56,0,0,0-3.7,1.06c-1.34,1-2.08,3.05-2.49,5.26s-.65,4.88-2.35,7.11a5.48,5.48,0,0,1-3.39,2,27.15,27.15,0,0,1-3.61.27,7.71,7.71,0,0,0-5.35,2.2,8.2,8.2,0,0,0-2.12,3.38c-.28.91-.31,1.45-.36,1.44a1,1,0,0,1,0-.39,5.25,5.25,0,0,1,.18-1.11,8.09,8.09,0,0,1,4.4-5.25,8.43,8.43,0,0,1,3.23-.75,28.16,28.16,0,0,0,3.55-.29,5,5,0,0,0,3.07-1.85,9.72,9.72,0,0,0,1.57-3.39c.31-1.18.48-2.37.72-3.5.44-2.23,1.24-4.35,2.73-5.45a4.71,4.71,0,0,1,4-1,2.8,2.8,0,0,1,1,.51C422.41,452.77,422.51,452.87,422.49,452.88Z"/><path class="cls-4" d="M481.89,433.53a6.57,6.57,0,0,1-1.31,2,9.89,9.89,0,0,1-5.77,3.09,9.34,9.34,0,0,1-4.57-.36,15.14,15.14,0,0,1-4.45-2.78,25.91,25.91,0,0,0-4.6-3.33,7.5,7.5,0,0,0-2.82-.77,8.48,8.48,0,0,0-3,.37,20,20,0,0,0-5.39,2.8,33.61,33.61,0,0,1-5,3,13,13,0,0,1-5.14,1.09,14.47,14.47,0,0,1-4.52-.75,13.56,13.56,0,0,1-5.53-3.54,10,10,0,0,1-1.1-1.42,2.48,2.48,0,0,1-.32-.54s.49.72,1.56,1.82a14.05,14.05,0,0,0,5.51,3.33,13,13,0,0,0,9.35-.43,33.71,33.71,0,0,0,4.87-3,20.49,20.49,0,0,1,5.53-2.87,9,9,0,0,1,3.18-.39,7.86,7.86,0,0,1,3,.83,25.43,25.43,0,0,1,4.68,3.42,14.51,14.51,0,0,0,4.3,2.74,9.13,9.13,0,0,0,4.37.41,10,10,0,0,0,5.67-2.86A17.64,17.64,0,0,0,481.89,433.53Z"/><path class="cls-4" d="M507.78,473.17a14.89,14.89,0,0,1-.4-1.85,23.17,23.17,0,0,0-1.44-4.9,11.05,11.05,0,0,0-1.89-2.93,7.34,7.34,0,0,0-3.26-2.16,13.91,13.91,0,0,0-4.4-.44,17.85,17.85,0,0,1-4.89-.35,10.6,10.6,0,0,1-4.26-2.45,44.16,44.16,0,0,1-3.18-3.24c-1.92-2.11-4-3.8-6-4.31a6.14,6.14,0,0,0-4.84.73,5.86,5.86,0,0,0-1.3,1.33,1.85,1.85,0,0,1,.21-.45,4.17,4.17,0,0,1,1-1,6.18,6.18,0,0,1,5-.92c2.22.48,4.36,2.23,6.31,4.33,1,1.05,2,2.17,3.16,3.19a10.24,10.24,0,0,0,4.07,2.33c3.14.79,6.43-.14,9.29.83a7.85,7.85,0,0,1,3.45,2.33,11.59,11.59,0,0,1,1.9,3.07,21.74,21.74,0,0,1,1.3,5c.09.61.14,1.08.18,1.4A1.6,1.6,0,0,1,507.78,473.17Z"/><path class="cls-4" d="M468.77,458a1.82,1.82,0,0,1-.52.08,5.65,5.65,0,0,1-1.48-.05,18.37,18.37,0,0,1-5.12-1.85,22.2,22.2,0,0,0-3.45-1.34,9.28,9.28,0,0,0-4.16-.14,17.62,17.62,0,0,0-8.28,4.82c-2.51,2.4-4.69,5-7.12,6.83a16,16,0,0,1-7.35,3.3,15.35,15.35,0,0,1-5.45-.07,12,12,0,0,1-1.43-.37,2,2,0,0,1-.48-.2s.69.17,1.95.37a16.5,16.5,0,0,0,5.34-.09,15.73,15.73,0,0,0,7.12-3.32c2.37-1.85,4.53-4.4,7.07-6.83s5.47-4.34,8.55-4.91a9.56,9.56,0,0,1,4.35.2,20.05,20.05,0,0,1,3.5,1.42,20.06,20.06,0,0,0,5,2A18.47,18.47,0,0,0,468.77,458Z"/><path class="cls-4" d="M459.58,475.62c0,.15-1.05.08-2,.83s-1.16,1.73-1.31,1.7-.11-.28,0-.71a2.88,2.88,0,0,1,2.59-2C459.34,475.44,459.59,475.56,459.58,475.62Z"/><path class="cls-4" d="M468.16,471.55a8.93,8.93,0,0,1-3.58,5.37A61.85,61.85,0,0,0,468.16,471.55Z"/><path class="cls-4" d="M433.21,485.67a22.65,22.65,0,0,1-2.47-.16c-1.35,0-2.43.27-2.48.13A5,5,0,0,1,433.21,485.67Z"/><path class="cls-4" d="M404.51,437.13s.23.12.66.24a3,3,0,0,0,1.81-.16,5,5,0,0,0,2.11-1.74,23.73,23.73,0,0,1,2.22-2.78,12,12,0,0,1,5.67-3.11,10.72,10.72,0,0,1,1.95-.24,1.74,1.74,0,0,1,.72.06c0,.09-1,.1-2.58.54a12.63,12.63,0,0,0-5.39,3.12,30.46,30.46,0,0,0-2.22,2.71,5.18,5.18,0,0,1-2.36,1.79,3,3,0,0,1-2,0C404.66,437.37,404.49,437.15,404.51,437.13Z"/><path class="cls-4" d="M458,417.41a3.68,3.68,0,0,1-1.13,1.32A9.55,9.55,0,0,1,449,420.8a3.82,3.82,0,0,1-1.63-.59,12,12,0,0,1,1.69.22,10.93,10.93,0,0,0,7.63-2A12.33,12.33,0,0,1,458,417.41Z"/><path class="cls-4" d="M413.14,492c0,.05-.43,0-1.15.2a7.42,7.42,0,0,0-2.81,1.36,11.75,11.75,0,0,0-3,3.55c-.89,1.52-1.64,3.34-2.58,5.19a14,14,0,0,1-3.57,4.68,6.58,6.58,0,0,1-4.54,1.55,5,5,0,0,1-3-1.12,2.89,2.89,0,0,1-.6-.66c-.12-.16-.17-.26-.15-.27s.28.33.87.77a5,5,0,0,0,2.93.91,6.34,6.34,0,0,0,4.22-1.55,14.07,14.07,0,0,0,3.4-4.55c.94-1.82,1.7-3.65,2.64-5.2a11.31,11.31,0,0,1,3.19-3.59,6.81,6.81,0,0,1,3-1.26,3.72,3.72,0,0,1,.88-.05C413,491.93,413.14,491.94,413.14,492Z"/><g class="cls-13"><path d="M498.46,450.12a9,9,0,0,0-1.8,7.84c.11.44.32.93.75,1.06a1,1,0,0,0,1-.37,2.45,2.45,0,0,0,.42-1,16,16,0,0,0-.13-7.72"/></g><path class="cls-4" d="M517.19,427a15.21,15.21,0,0,0-2.52,3,23.29,23.29,0,0,0-1.81,3.89c-.58,1.52-1.14,3.23-1.94,5a12.7,12.7,0,0,1-3.11,4.39,8,8,0,0,1-4,1.81,5.38,5.38,0,0,1-2.94-.38,3.77,3.77,0,0,1-.7-.41c-.15-.11-.22-.17-.21-.19s.35.18,1,.42a5.59,5.59,0,0,0,2.81.19,7.79,7.79,0,0,0,3.75-1.81,12.51,12.51,0,0,0,2.95-4.24c.78-1.69,1.35-3.39,2-4.91a21.62,21.62,0,0,1,2-3.91,10.06,10.06,0,0,1,1.93-2.23A3.18,3.18,0,0,1,517.19,427Z"/><path class="cls-4" d="M518,415.9a6.29,6.29,0,0,1-1.75,1.54,14.47,14.47,0,0,1-10.84,2.14,6.38,6.38,0,0,1-2.2-.75c0-.09.87.19,2.26.39a16.35,16.35,0,0,0,10.58-2.09C517.3,416.41,518,415.84,518,415.9Z"/><path class="cls-6" d="M525.4,521.41S462.56,480.19,460,479.33s-8.8-4.93-15-3.21-11.79,7.29-14.58,15.44-3,26.37-3,26.37S432.32,532.3,442,535.3a24.47,24.47,0,0,0,2.52.64,29.69,29.69,0,0,0,30.35-13.12l1.4-2.14s41.11,15.11,41.75,14.89Z"/><path class="cls-6" d="M546.84,473.33a12.29,12.29,0,0,1,7.72,11.37c.06,16.51-33.37,34.71-33.37,34.71l-44.48-29.47v-3.1S534,466.25,546.84,473.33Z"/><path class="cls-6" d="M447.65,510.07l.35.15,1,.41,4,1.53,14.81,5.58c6.29,2.35,13.82,5.14,22.27,8.21s17.83,6.45,27.83,9.84l.18.06.09-.17,4.91-9.38,2.5-4.78.1-.19-.17-.11-47.94-30.43-14.4-9.08-3.91-2.44-1-.62a4,4,0,0,0-.36-.2l.33.23,1,.66,3.87,2.51,14.32,9.21,47.86,30.54-.08-.29-2.5,4.78-4.91,9.38.27-.11c-10-3.38-19.37-6.74-27.83-9.78l-22.31-8.12L453.07,512l-4-1.46-1.05-.37Z"/><path class="cls-6" d="M499.24,504.82a8.4,8.4,0,0,0,1.16-.78c.73-.53,1.77-1.32,3-2.3,2.55-2,6-4.76,9.74-8s7-6.2,9.34-8.42c1.17-1.11,2.1-2,2.74-2.66a9.28,9.28,0,0,0,1-1,8.45,8.45,0,0,0-1.08.9l-2.82,2.55c-2.39,2.16-5.7,5.12-9.42,8.32s-7.15,6-9.64,8.05l-3,2.41A9.1,9.1,0,0,0,499.24,504.82Z"/><path class="cls-6" d="M534.28,479.5a11,11,0,0,0-8.1,2.39c.08.12,1.7-.91,3.94-1.56S534.28,479.64,534.28,479.5Z"/><path class="cls-6" d="M530.45,476.9a6.76,6.76,0,0,0-4,5c.13,0,.61-1.34,1.73-2.71S530.52,477,530.45,476.9Z"/><path class="cls-6" d="M549.28,529.18s-.53-.16-1.14.35a4.16,4.16,0,0,0-1.29,2.58,5.16,5.16,0,0,0,.4,2.85c.32.67.67,1,.7,1s-.18-.42-.4-1.08a5.73,5.73,0,0,1-.25-2.66,4.49,4.49,0,0,1,1.05-2.41A3.13,3.13,0,0,1,549.28,529.18Z"/><path class="cls-6" d="M420.5,382a6.32,6.32,0,0,0-8.93.1,3.58,3.58,0,0,0-.27.29,10.81,10.81,0,0,0-2.12,5.58,27.7,27.7,0,0,1-1.16,5.92,6.11,6.11,0,0,1-4.21,4c-1.5.28-3.27-.19-4.42.82a2.85,2.85,0,0,0-.27,3.57,6.66,6.66,0,0,0,3.08,2.31c.47.21,1,.51,1,1,0,.67-.85.92-1.47,1.18-1.87.78-2.4,3.44-1.37,5.18a6,6,0,0,0,5.19,2.59,17.57,17.57,0,0,0,5.88-1.36,2.29,2.29,0,0,0-.06,2.9,3.12,3.12,0,0,0,2.84,1.06,5,5,0,0,0,2.76-1.43,10,10,0,0,0,2.72-5.45,35.27,35.27,0,0,0,.36-6.16,163.59,163.59,0,0,1,1.56-22"/><path class="cls-12" d="M441.74,367.83A15.2,15.2,0,0,1,456.24,383c0,6.29-.08,13.13-.48,17.19-.93,9.44-8,11.05-8,11.05s.23,5.87.54,11.43c.3,5.3-4,10-9.71,10.42h0c-5.61.46-10.42-3.39-10.81-8.63l-1.9-40.74a15.2,15.2,0,0,1,14.48-15.89q.71,0,1.41,0Z"/><path class="cls-6" d="M454.09,387.13a1.21,1.21,0,0,1-1.08,1.28,1.16,1.16,0,0,1-1.3-1v0a1.19,1.19,0,0,1,1.08-1.28,1.15,1.15,0,0,1,1.3,1Z"/><path class="cls-6" d="M454.07,385.27c-.14.16-1.09-.46-2.38-.38s-2.2.79-2.35.64.06-.36.46-.69a3.22,3.22,0,0,1,1.86-.69,3.15,3.15,0,0,1,1.91.49C454,384.92,454.13,385.19,454.07,385.27Z"/><path class="cls-6" d="M440.65,387.83a1.19,1.19,0,0,1-1.08,1.28,1.15,1.15,0,0,1-1.3-1v0a1.19,1.19,0,0,1,1.08-1.28,1.15,1.15,0,0,1,1.3,1Z"/><path class="cls-6" d="M440.63,386.54c-.14.16-1.09-.46-2.38-.38s-2.2.78-2.35.63.06-.35.46-.68a3.33,3.33,0,0,1,1.87-.7,3.13,3.13,0,0,1,1.9.5C440.54,386.19,440.7,386.46,440.63,386.54Z"/><path class="cls-6" d="M445.88,395.83a8.23,8.23,0,0,1,2.07-.5c.33-.06.64-.14.68-.37a1.64,1.64,0,0,0-.28-1c-.36-.78-.73-1.6-1.12-2.46a43.59,43.59,0,0,1-2.58-6.43,43.8,43.8,0,0,1,3.09,6.21l1.08,2.47a1.92,1.92,0,0,1,.25,1.28.8.8,0,0,1-.51.52,2.14,2.14,0,0,1-.56.11A8.38,8.38,0,0,1,445.88,395.83Z"/><path class="cls-14" d="M447.77,411.26A25.68,25.68,0,0,1,435,408.45s3.49,6.72,12.89,5.5Z"/><path class="cls-6" d="M436.37,383c.15.22,1.09-.17,2.26-.42s2.19-.32,2.23-.6-1.06-.66-2.44-.35S436.21,382.74,436.37,383Z"/><path class="cls-6" d="M449.15,380.62c.06.27,1.12.23,2.39.25s2.33.08,2.4-.19-1-.76-2.39-.78S449.08,380.37,449.15,380.62Z"/><path class="cls-6" d="M428.25,419.56c-.09-1.94,2.08-10.36,2.95-15.53s-2.52-6-3.05-9a10.49,10.49,0,0,1,1-6c4.94,1.77,6.89-1.74,9.59-3.83,2.87-2.21,3.49-4.93,4.67-8.36s2.53-5.57,6.14-5.9a10.62,10.62,0,0,1,4.8,5.51c1.11,3.21,2,15.73,2,15.73.5-6,5.37-8.53,4.05-17.36-.57-3.82-3.74-9-8.62-9.79-1.41-.22-4.09-.39-4.09-.39-2.92-2.63-4.34-2.55-7.13-3.79-6-2.67-13.25,2.1-17.25,7.33-3.08,4-4.57,9.47-5.4,14.59a42,42,0,0,0-.24,10.74c.2,2.13-.06,4.84-2.15,6.47-3,2.33-3.79,6.77-1.71,12.7s-5.56,16-5.56,16a45.83,45.83,0,0,1,6.79-4.61C418.12,422.47,428.25,419.56,428.25,419.56Z"/><path class="cls-14" d="M444.33,398.91a1.93,1.93,0,0,0-1.79-.58,1.71,1.71,0,0,0-1.16.74,1.11,1.11,0,0,0,0,1.28,1.28,1.28,0,0,0,1.43.25,4.1,4.1,0,0,0,1.3-.92,1,1,0,0,0,.28-.34.35.35,0,0,0,0-.4"/><path class="cls-6" d="M441.49,397.28c.17,0,.26,1.13,1.32,1.88s2.28.53,2.3.7-.26.24-.78.29a2.86,2.86,0,0,1-1.92-.51,2.54,2.54,0,0,1-1-1.59C441.3,397.57,441.41,397.28,441.49,397.28Z"/><path class="cls-6" d="M400.7,394.63a11.2,11.2,0,0,0,.1,1.3,4.51,4.51,0,0,0,.5,1.43,3.17,3.17,0,0,0,1.4,1.36,2.78,2.78,0,0,0,2.29.12,3,3,0,0,0,1.54-2.13,11.77,11.77,0,0,0,.17-3.08c0-1.09-.11-2.22-.11-3.38a13.45,13.45,0,0,1,1.26-6.4,6.38,6.38,0,0,1,4-3.44,5,5,0,0,1,3.56.27,3.19,3.19,0,0,1,1.05.81,7.05,7.05,0,0,0-1.1-.7,5.06,5.06,0,0,0-3.45-.17,6.16,6.16,0,0,0-3.79,3.36,13.39,13.39,0,0,0-1.21,6.27c0,1.15.07,2.27.1,3.37a11.55,11.55,0,0,1-.19,3.16,3.18,3.18,0,0,1-1.72,2.29,2.94,2.94,0,0,1-2.49-.15,3.37,3.37,0,0,1-1.46-1.48,4.53,4.53,0,0,1-.46-1.49A3.9,3.9,0,0,1,400.7,394.63Z"/><path class="cls-6" d="M414.49,414.91a2.53,2.53,0,0,1-.49-.49,3.88,3.88,0,0,1-.73-1.85,5.38,5.38,0,0,1,.55-3.1,11.88,11.88,0,0,1,2.59-3.27,22.3,22.3,0,0,0,3.4-3.67A8.71,8.71,0,0,0,421,397a56.89,56.89,0,0,1-.49-6.39,8.59,8.59,0,0,1,.78-3.34,6.06,6.06,0,0,1,2.45-2.54c2.09-1.19,4.44-1.51,6.36-2.58a10.38,10.38,0,0,0,4.12-4.65c.92-1.81,1.58-3.64,2.43-5.26a11.24,11.24,0,0,1,3.16-3.95A6.06,6.06,0,0,1,443.7,367a4.9,4.9,0,0,1,2.91,1.17,3.68,3.68,0,0,1,1.13,1.64,4.05,4.05,0,0,1,.12.5,1.09,1.09,0,0,1,0,.18s0-.24-.19-.66a3.7,3.7,0,0,0-1.15-1.56,4.76,4.76,0,0,0-2.84-1.09,5.9,5.9,0,0,0-3.78,1.34,11.3,11.3,0,0,0-3.06,3.9c-.83,1.6-1.48,3.44-2.4,5.27a10.63,10.63,0,0,1-4.23,4.79c-2,1.1-4.34,1.43-6.36,2.58a5.74,5.74,0,0,0-2.32,2.41,8.29,8.29,0,0,0-.75,3.21,58.94,58.94,0,0,0,.46,6.37,8.93,8.93,0,0,1-1.22,5.64,21.66,21.66,0,0,1-3.47,3.69,12.26,12.26,0,0,0-2.59,3.19,5.38,5.38,0,0,0-.58,3A3.83,3.83,0,0,0,414.49,414.91Z"/><path class="cls-4" d="M417,386.54a4.81,4.81,0,0,1,1.19-5.68,21.12,21.12,0,0,0-1,2.74A20.69,20.69,0,0,0,417,386.54Z"/><path class="cls-6" d="M420.25,415.38a22.3,22.3,0,0,0,2.91,14.46,11.57,11.57,0,0,0,3.57,4,5.94,5.94,0,0,0,5.13.72,4,4,0,0,0,2.66-4.18c-.41-2.51-3.49-4.08-3.51-6.62,1.12.68,2.64,1.33,3.62.47a2.21,2.21,0,0,0,.37-2.47,9.59,9.59,0,0,0-1.51-2.17,13.55,13.55,0,0,1-2.73-10.35c.15-1,.42-4.13.44-5.16s-.27,0-1.05-.67a3.14,3.14,0,0,0-2.85-.52,6.07,6.07,0,0,0-2.54,1.58,11.66,11.66,0,0,0-3.47,8.88"/><path class="cls-15" d="M150.66,356.56a1,1,0,0,0-.09-.21l-.32-.59c-.29-.51-.74-1.25-1.39-2.17A23.36,23.36,0,0,0,142,347.1a17.09,17.09,0,0,0-6.17-2.27,15.16,15.16,0,0,0-7.49.79,12.12,12.12,0,0,0-6.41,5.25c-1.47,2.57-2,5.59-2.81,8.47a15.23,15.23,0,0,1-1.79,4,12.2,12.2,0,0,1-3,3c-1.15.85-2.35,1.61-3.43,2.5a14.54,14.54,0,0,0-2.79,3,18.62,18.62,0,0,0-2.86,7,25.32,25.32,0,0,0-.38,6.56,49.92,49.92,0,0,0,1.68,9.32c.28,1.08.52,1.92.69,2.48a5.39,5.39,0,0,0,.28.86,6.23,6.23,0,0,0-.18-.88c-.15-.62-.34-1.45-.59-2.51a53.09,53.09,0,0,1-1.51-9.29,24.49,24.49,0,0,1,.44-6.45,18.29,18.29,0,0,1,2.82-6.79,14.68,14.68,0,0,1,2.71-2.91c1.06-.86,2.25-1.61,3.42-2.47a12.53,12.53,0,0,0,3.17-3.12,15.53,15.53,0,0,0,1.86-4.18c.87-2.93,1.35-5.91,2.75-8.37a11.7,11.7,0,0,1,6.14-5.05,14.83,14.83,0,0,1,7.26-.81,16.69,16.69,0,0,1,6,2.15,24.13,24.13,0,0,1,6.9,6.3c.66.89,1.14,1.61,1.46,2.11A6.39,6.39,0,0,0,150.66,356.56Z"/><path class="cls-15" d="M112.93,367.14c.8-.74,1.18-.22,2.25,0a6.68,6.68,0,0,1,2.89,1.44A12.16,12.16,0,0,1,122,381.3a9.47,9.47,0,0,1-8.7-14.24"/><path class="cls-15" d="M145.57,352.29c.4-1,1-.71,2-1a6.75,6.75,0,0,1,3.22.06,12.16,12.16,0,0,1,9,9.82,9.49,9.49,0,0,1-14-9.12"/><path class="cls-15" d="M105.75,387.25a10.94,10.94,0,0,1,15.43-1.12,11.37,11.37,0,0,1,1.77,2A13.53,13.53,0,0,1,114,391.6a13.82,13.82,0,0,1-9-3.63"/><path class="cls-15" d="M108.43,372.23A11.09,11.09,0,0,1,97,361.47a11.34,11.34,0,0,1,.2-2.47,9.95,9.95,0,0,1,11.57,13.12"/><path class="cls-15" d="M119.91,354.58a11.1,11.1,0,0,1-15-8.76,10,10,0,0,1,15.27,8.54"/><path class="cls-15" d="M123.76,348.82a11.1,11.1,0,0,1,14.34,6.36,11.6,11.6,0,0,1,.62,2.4,10,10,0,0,1-15.27-8.53"/><path class="cls-15" d="M128.35,345.72a11.09,11.09,0,0,1-6.95-14.06,10.89,10.89,0,0,1,1-2.24,9.94,9.94,0,0,1,6.28,16.32"/><path class="cls-15" d="M140.11,346.28a11.1,11.1,0,0,1,6.65-14.21,11.76,11.76,0,0,1,2.41-.58,9.95,9.95,0,0,1-8.84,15.1"/><polyline class="cls-6" points="92.69 425.79 86.43 386.46 134.46 387.04 129.72 425.28"/><path class="cls-8" d="M113.42,379.27a8.19,8.19,0,0,0,8,.68,8.66,8.66,0,0,0,4.36-6.89,9.21,9.21,0,0,0-12.5,3.69,10,10,0,0,0-.75,1.82"/><path class="cls-8" d="M135.37,387.74a8.19,8.19,0,0,0,8,.68,8.65,8.65,0,0,0,4.37-6.89,9.22,9.22,0,0,0-12.5,3.69,8.73,8.73,0,0,0-.75,1.82"/><path class="cls-8" d="M123.05,368.83a8.18,8.18,0,0,0,6.29,4.94,8.6,8.6,0,0,0,7.43-3.36,9.23,9.23,0,0,0-12.47-3.79,9.56,9.56,0,0,0-1.63,1.11"/><path class="cls-8" d="M131.06,378.63a8.21,8.21,0,0,0-7.17,3.54,8.67,8.67,0,0,0-.16,8.16,9.22,9.22,0,0,0,8.48-11.58"/><path class="cls-8" d="M138.8,394.11a8.2,8.2,0,0,0,.19,8,8.66,8.66,0,0,0,7.32,3.59,9.82,9.82,0,0,0-.45-8c-1.26-2.29-3.54-3.43-6.39-4.07"/><path class="cls-8" d="M151.56,395.93a5.71,5.71,0,0,0-1.89-1.21,8.28,8.28,0,0,0-2.61-.46,34.84,34.84,0,0,0-3.54.21,10.41,10.41,0,0,1-4.37-.37,6.73,6.73,0,0,1-3.6-3.48A20.07,20.07,0,0,1,134,385.3a15.38,15.38,0,0,0-1.85-5.45,19.34,19.34,0,0,0-4.06-4.12,19.67,19.67,0,0,1-3.89-4,13,13,0,0,1-1.93-9,12.61,12.61,0,0,1,2.35-5.81,10,10,0,0,1,1.16-1.27,2.74,2.74,0,0,1,.45-.38,2.73,2.73,0,0,1-.38.46,12.14,12.14,0,0,0-1.06,1.31,12.92,12.92,0,0,0-2.16,5.74,12.72,12.72,0,0,0,2,8.72,19.42,19.42,0,0,0,3.81,3.82,19.55,19.55,0,0,1,4.18,4.24,15.65,15.65,0,0,1,1.91,5.64A19.51,19.51,0,0,0,136,390.4a6.2,6.2,0,0,0,3.33,3.29,10,10,0,0,0,4.18.41,30.6,30.6,0,0,1,3.58-.13,8.38,8.38,0,0,1,2.67.56,4.33,4.33,0,0,1,1.44.94,2.35,2.35,0,0,1,.3.33C151.54,395.88,151.57,395.92,151.56,395.93Z"/><path class="cls-8" d="M151.56,395.93a5.71,5.71,0,0,0-1.89-1.21,8.28,8.28,0,0,0-2.61-.46,34.84,34.84,0,0,0-3.54.21,10.41,10.41,0,0,1-4.37-.37,6.73,6.73,0,0,1-3.6-3.48A20.07,20.07,0,0,1,134,385.3a15.38,15.38,0,0,0-1.85-5.45,19.34,19.34,0,0,0-4.06-4.12,19.67,19.67,0,0,1-3.89-4,13,13,0,0,1-1.93-9,12.61,12.61,0,0,1,2.35-5.81,10,10,0,0,1,1.16-1.27,2.74,2.74,0,0,1,.45-.38,2.73,2.73,0,0,1-.38.46,12.14,12.14,0,0,0-1.06,1.31,12.92,12.92,0,0,0-2.16,5.74,12.72,12.72,0,0,0,2,8.72,19.42,19.42,0,0,0,3.81,3.82,19.55,19.55,0,0,1,4.18,4.24,15.65,15.65,0,0,1,1.91,5.64A19.51,19.51,0,0,0,136,390.4a6.2,6.2,0,0,0,3.33,3.29,10,10,0,0,0,4.18.41,30.6,30.6,0,0,1,3.58-.13,8.38,8.38,0,0,1,2.67.56,4.33,4.33,0,0,1,1.44.94,2.35,2.35,0,0,1,.3.33C151.54,395.88,151.57,395.92,151.56,395.93Z"/><path class="cls-8" d="M59.89,400a12.16,12.16,0,0,0-16.45-12,20.28,20.28,0,0,0,16,11.82"/><path class="cls-8" d="M56.71,401.64c-2.35,2.57-2.19,6.72-.51,9.78s4.57,5.23,7.47,7.17a15.78,15.78,0,0,0-6.8-17.89"/><path class="cls-8" d="M68.09,389.54A14,14,0,0,0,83.43,402.1L84,402c-.91-3.77-2.42-7.58-5.34-10.14s-7.51-3.52-10.74-1.36"/><path class="cls-8" d="M68,385.69c-.59-3.44-4-5.93-7.45-6.25s-6.91,1.16-9.69,3.26a12.6,12.6,0,0,0,17.17,1.69"/><path class="cls-8" d="M50.12,414.92c-3.29,2.81-4.12,7.83-2.75,11.94s4.58,7.4,8.19,9.8c1.38-4.07,2.25-8.45,1.52-12.69s-3.29-8.35-7.23-10.08"/><path class="cls-8" d="M67.48,376.05a10.14,10.14,0,0,1,14.08-2.7,10.3,10.3,0,0,1,2,1.76,8.76,8.76,0,0,1-15.8.41"/><path class="cls-8" d="M71.52,366.14a13.19,13.19,0,0,1-16.8-10.3,30.59,30.59,0,0,1,7.94.11,12.86,12.86,0,0,1,7,3.47,6.94,6.94,0,0,1,1.84,6.72"/><path class="cls-8" d="M79.14,363.58a10.78,10.78,0,0,1-1.52-15.16A11.11,11.11,0,0,1,79.07,347a22.54,22.54,0,0,1,4.71,10,8.45,8.45,0,0,1,0,4.15,3.84,3.84,0,0,1-2.91,2.72"/><g class="cls-10"><path d="M59.89,400a12.16,12.16,0,0,0-16.45-12,20.28,20.28,0,0,0,16,11.82"/></g><g class="cls-10"><path d="M56.71,401.64c-2.35,2.57-2.19,6.72-.51,9.78s4.57,5.23,7.47,7.17a15.78,15.78,0,0,0-6.8-17.89"/></g><g class="cls-10"><path d="M68.09,389.54A14,14,0,0,0,83.43,402.1L84,402c-.91-3.77-2.42-7.58-5.34-10.14s-7.51-3.52-10.74-1.36"/></g><g class="cls-10"><path d="M68,385.69c-.59-3.44-4-5.93-7.45-6.25s-6.91,1.16-9.69,3.26a12.6,12.6,0,0,0,17.17,1.69"/></g><g class="cls-10"><path d="M50.12,414.92c-3.29,2.81-4.12,7.83-2.75,11.94s4.58,7.4,8.19,9.8c1.38-4.07,2.25-8.45,1.52-12.69s-3.29-8.35-7.23-10.08"/></g><g class="cls-10"><path d="M67.48,376.05a10.14,10.14,0,0,1,14.08-2.7,10.3,10.3,0,0,1,2,1.76,8.76,8.76,0,0,1-15.8.41"/></g><g class="cls-10"><path d="M71.52,366.14a13.19,13.19,0,0,1-16.8-10.3,30.59,30.59,0,0,1,7.94.11,12.86,12.86,0,0,1,7,3.47,6.94,6.94,0,0,1,1.84,6.72"/></g><g class="cls-10"><path d="M79.14,363.58a10.78,10.78,0,0,1-1.52-15.16A11.11,11.11,0,0,1,79.07,347a22.54,22.54,0,0,1,4.71,10,8.45,8.45,0,0,1,0,4.15,3.84,3.84,0,0,1-2.91,2.72"/></g><path class="cls-8" d="M92.31,387.72a1.22,1.22,0,0,1,0-.27c0-.21,0-.47,0-.79,0-.69.11-1.72.14-3a27.28,27.28,0,0,0-1.79-10.91,16.7,16.7,0,0,0-4.39-6.18,11.71,11.71,0,0,0-8-2.93,10,10,0,0,0-4.51,1.12,8.91,8.91,0,0,0-3.48,3.33c-1.74,2.87-2.17,6.48-2,10s.64,7.12.24,10.56a16,16,0,0,1-1.32,4.89,10.32,10.32,0,0,1-3,3.88,14.79,14.79,0,0,1-4.11,2.1,21.18,21.18,0,0,0-3.88,1.76,14,14,0,0,0-5.1,5.55,13.49,13.49,0,0,0-1.47,6.07,14.11,14.11,0,0,0,.77,4.69,17.36,17.36,0,0,0,1.82,3.66,1.18,1.18,0,0,1-.18-.21,7.59,7.59,0,0,1-.46-.65,13.16,13.16,0,0,1-1.37-2.73,14.27,14.27,0,0,1-.87-4.76,13.72,13.72,0,0,1,1.43-6.23,14.44,14.44,0,0,1,5.2-5.76c2.37-1.58,5.51-2,7.92-3.87s3.69-5.14,4.06-8.45-.12-6.86-.25-10.48.28-7.32,2.1-10.32a9.48,9.48,0,0,1,3.69-3.5,10.49,10.49,0,0,1,4.73-1.16,12.06,12.06,0,0,1,8.27,3.09,16.79,16.79,0,0,1,4.45,6.36,23,23,0,0,1,1.51,6.23,33.85,33.85,0,0,1,.14,4.83c-.06,1.32-.15,2.35-.23,3,0,.32-.08.58-.1.79A1.1,1.1,0,0,1,92.31,387.72Z"/><g class="cls-10"><path d="M92.31,387.72a1.22,1.22,0,0,1,0-.27c0-.21,0-.47,0-.79,0-.69.11-1.72.14-3a27.28,27.28,0,0,0-1.79-10.91,16.7,16.7,0,0,0-4.39-6.18,11.71,11.71,0,0,0-8-2.93,10,10,0,0,0-4.51,1.12,8.91,8.91,0,0,0-3.48,3.33c-1.74,2.87-2.17,6.48-2,10s.64,7.12.24,10.56a16,16,0,0,1-1.32,4.89,10.32,10.32,0,0,1-3,3.88,14.79,14.79,0,0,1-4.11,2.1,21.18,21.18,0,0,0-3.88,1.76,14,14,0,0,0-5.1,5.55,13.49,13.49,0,0,0-1.47,6.07,14.11,14.11,0,0,0,.77,4.69,17.36,17.36,0,0,0,1.82,3.66,1.18,1.18,0,0,1-.18-.21,7.59,7.59,0,0,1-.46-.65,13.16,13.16,0,0,1-1.37-2.73,14.27,14.27,0,0,1-.87-4.76,13.72,13.72,0,0,1,1.43-6.23,14.44,14.44,0,0,1,5.2-5.76c2.37-1.58,5.51-2,7.92-3.87s3.69-5.14,4.06-8.45-.12-6.86-.25-10.48.28-7.32,2.1-10.32a9.48,9.48,0,0,1,3.69-3.5,10.49,10.49,0,0,1,4.73-1.16,12.06,12.06,0,0,1,8.27,3.09,16.79,16.79,0,0,1,4.45,6.36,23,23,0,0,1,1.51,6.23,33.85,33.85,0,0,1,.14,4.83c-.06,1.32-.15,2.35-.23,3,0,.32-.08.58-.1.79A1.1,1.1,0,0,1,92.31,387.72Z"/></g><path class="cls-8" d="M162.24,379.14a10.1,10.1,0,0,0,.72-3.52,8.79,8.79,0,0,0-.93-4.06,8.7,8.7,0,0,0-7-4.62,9.85,9.85,0,0,0-3.45.41c-2.35.61-4.68,1.95-7.46,2.51a8.94,8.94,0,0,1-4.33-.11,6.5,6.5,0,0,1-3.53-2.82c-1.67-2.6-2.15-5.86-4.17-8.26a8.27,8.27,0,0,0-3.8-2.48,10.73,10.73,0,0,0-4.43-.45,11.32,11.32,0,0,0-7.37,3.84,17.31,17.31,0,0,0-3.66,6.77,20.51,20.51,0,0,0-.82,6.7,73.29,73.29,0,0,0,1.25,9.81c.19,1.12.34,2,.46,2.66,0,.28.07.51.1.7a.12.12,0,0,1,.12.12.13.13,0,0,1-.13.12.12.12,0,0,1-.12-.13.16.16,0,0,1,.08-.1l-.16-.69c-.13-.64-.32-1.52-.55-2.64a66.52,66.52,0,0,1-1.42-9.83,21,21,0,0,1,.77-6.84,17.75,17.75,0,0,1,3.72-7,13.27,13.27,0,0,1,3.37-2.69,11.59,11.59,0,0,1,9-.86,8.66,8.66,0,0,1,4,2.63c2.15,2.57,2.6,5.86,4.21,8.33a6,6,0,0,0,3.25,2.61,8.21,8.21,0,0,0,4.09.11c2.68-.51,5-1.83,7.44-2.45a10.38,10.38,0,0,1,3.59-.39,9.06,9.06,0,0,1,3.22.9,8.64,8.64,0,0,1,4.89,8.18,8.06,8.06,0,0,1-.52,2.66A4,4,0,0,1,162.24,379.14Z"/><path class="cls-8" d="M134.16,361.71a9.3,9.3,0,0,0,8.56.56,8.61,8.61,0,0,0,4.36-6.89,9.22,9.22,0,0,0-12.5,3.69,9.77,9.77,0,0,0-.75,1.83"/><path class="cls-8" d="M143.26,370a9.32,9.32,0,0,0,4,7.61,8.62,8.62,0,0,0,8.15.13,9.22,9.22,0,0,0-9.66-8.75,9.69,9.69,0,0,0-1.94.31"/><path class="cls-8" d="M159.06,368.14a9.34,9.34,0,0,0,8.57-.35,8.64,8.64,0,0,0,3.6-7.32,9.22,9.22,0,0,0-12,5,9.07,9.07,0,0,0-.55,1.89"/><path class="cls-8" d="M120.89,356.24c-2.3-2-3.84-5.47-3.4-8.08a8.62,8.62,0,0,1,5.29-6.2,9.22,9.22,0,0,1,.17,13,9.11,9.11,0,0,1-1.52,1.25"/><path class="cls-8" d="M59.22,344.93a1,1,0,0,1,.09-.21l.32-.59c.29-.51.74-1.25,1.39-2.17a23.36,23.36,0,0,1,6.87-6.49,17.09,17.09,0,0,1,6.17-2.27,15.4,15.4,0,0,1,7.49.79A12.12,12.12,0,0,1,88,339.24c1.47,2.57,2,5.59,2.81,8.47a15.23,15.23,0,0,0,1.79,4,12.2,12.2,0,0,0,3,3c1.15.85,2.35,1.61,3.43,2.5a14.54,14.54,0,0,1,2.79,3,18.62,18.62,0,0,1,2.86,7,25.32,25.32,0,0,1,.38,6.56,49.92,49.92,0,0,1-1.68,9.32c-.28,1.08-.52,1.92-.69,2.48a5.39,5.39,0,0,1-.28.86,6.54,6.54,0,0,1,.18-.88c.15-.62.34-1.45.59-2.51a53.09,53.09,0,0,0,1.51-9.29,24.49,24.49,0,0,0-.44-6.45,18.29,18.29,0,0,0-2.82-6.79,14.68,14.68,0,0,0-2.71-2.91c-1.06-.86-2.25-1.61-3.42-2.47A12.53,12.53,0,0,1,92.13,352a15.53,15.53,0,0,1-1.86-4.18c-.87-2.93-1.35-5.91-2.75-8.37a11.7,11.7,0,0,0-6.14-5.05,14.83,14.83,0,0,0-7.26-.81,16.52,16.52,0,0,0-6,2.16,24,24,0,0,0-6.9,6.29c-.66.89-1.14,1.62-1.46,2.11A6.39,6.39,0,0,1,59.22,344.93Z"/><path class="cls-8" d="M97,355.51c-.8-.74-1.18-.22-2.25,0a6.68,6.68,0,0,0-2.89,1.44,12.16,12.16,0,0,0-3.93,12.75,9.47,9.47,0,0,0,8.7-14.24"/><path class="cls-8" d="M64.31,340.66c-.4-1-1-.71-2-1a6.75,6.75,0,0,0-3.22.06,12.16,12.16,0,0,0-9,9.82,9.49,9.49,0,0,0,14-9.11"/><path class="cls-8" d="M104.13,375.62A10.94,10.94,0,0,0,88.7,374.5a11.37,11.37,0,0,0-1.77,2A13.53,13.53,0,0,0,95.85,380a13.77,13.77,0,0,0,9-3.63"/><path class="cls-8" d="M101.46,360.6a11.08,11.08,0,0,0,11.4-10.76,11.34,11.34,0,0,0-.2-2.47,9.95,9.95,0,0,0-11.57,13.12"/><path class="cls-8" d="M90,343a11.1,11.1,0,0,0,15-8.76,10,10,0,0,0-13.73,3.1,9.86,9.86,0,0,0-1.54,5.44"/><path class="cls-8" d="M86.12,337.19a11.1,11.1,0,0,0-14.34,6.36,11.6,11.6,0,0,0-.62,2.4,10,10,0,0,0,15.27-8.53"/><path class="cls-8" d="M81.53,334.09a11.09,11.09,0,0,0,7-14.06,10.89,10.89,0,0,0-1-2.24,9.94,9.94,0,0,0-6.28,16.32"/><path class="cls-8" d="M69.77,334.65a11.1,11.1,0,0,0-6.65-14.21,11.76,11.76,0,0,0-2.41-.58A9.95,9.95,0,0,0,69.55,335"/><polygon class="cls-6" points="85.82 421.24 89.49 425.79 134.69 425.79 137.77 421.24 85.82 421.24"/><path class="cls-6" d="M136.78,421.19c0,.15-11.11.26-24.81.26s-24.8-.11-24.8-.26,11.1-.26,24.8-.26S136.78,421.05,136.78,421.19Z"/><path class="cls-6" d="M131.7,404a1.92,1.92,0,0,1-.29.37,8.44,8.44,0,0,1-.92,1,16.72,16.72,0,0,1-4,2.8A17.7,17.7,0,0,1,119.4,410a16.5,16.5,0,0,1-4.32-.36,25.51,25.51,0,0,1-4.4-1.46c-2.91-1.24-5.56-2.65-8.14-3.47a14,14,0,0,0-7-.68,9.2,9.2,0,0,0-4.31,2c-.86.75-1.19,1.32-1.23,1.28a1.56,1.56,0,0,1,.22-.4,6.67,6.67,0,0,1,.87-1,9,9,0,0,1,4.38-2.21,14.2,14.2,0,0,1,7.25.58c2.64.81,5.32,2.23,8.2,3.45a25.07,25.07,0,0,0,4.31,1.44,16.78,16.78,0,0,0,4.18.38,17.8,17.8,0,0,0,6.92-1.66A21.64,21.64,0,0,0,131.7,404Z"/><path class="cls-6" d="M132.15,400.5s-.1.14-.31.35-.65.62-1,.9a18.69,18.69,0,0,1-4.19,2.6,19.37,19.37,0,0,1-11.43,1.41,29.16,29.16,0,0,1-4.47-1.27c-3-1.08-5.72-2.32-8.34-3.05a16.51,16.51,0,0,0-7.09-.65,10.76,10.76,0,0,0-4.47,1.71c-.94.66-1.35,1.16-1.39,1.13s.08-.14.28-.38a7.13,7.13,0,0,1,1-.91,10.31,10.31,0,0,1,4.53-1.91,16.59,16.59,0,0,1,7.28.54c2.67.72,5.44,2,8.39,3a30.41,30.41,0,0,0,4.38,1.26,19.5,19.5,0,0,0,11.2-1.25A24.92,24.92,0,0,0,132.15,400.5Z"/><rect class="cls-8" x="26.89" y="467.82" width="96.13" height="64.34"/><g class="cls-10"><rect x="26.89" y="467.82" width="96.13" height="64.34"/></g><rect class="cls-8" x="103.52" y="467.91" width="7.63" height="13.05"/><rect class="cls-8" x="102.69" y="519.12" width="7.63" height="13.05"/><path class="cls-6" d="M54.4,532c-.14,0-.26-14.42-.26-32.21s.12-32.21.26-32.21.26,14.42.26,32.21S54.55,532,54.4,532Z"/><path class="cls-6" d="M88.49,502.87c0,.14-13.86.26-30.95.26s-30.95-.12-30.95-.26,13.85-.26,31-.26S88.49,502.72,88.49,502.87Z"/><path class="cls-6" d="M55.93,467.67A18.17,18.17,0,0,1,58.16,466a25,25,0,0,1,12.78-4,4.83,4.83,0,0,1,1.61.12,1.49,1.49,0,0,1,1.06,1.34,2.12,2.12,0,0,1-.68,1.65,4.61,4.61,0,0,1-1.56.91,30.49,30.49,0,0,1-15.83,1.53l-.19,0v-.2a38.72,38.72,0,0,1,2.31-10,37.56,37.56,0,0,1,2.32-5,6.62,6.62,0,0,1,1.9-2.17,3.53,3.53,0,0,1,2.92-.54,3,3,0,0,1,2,2.26,5,5,0,0,1-.3,3,26,26,0,0,1-3.16,5.16,33.45,33.45,0,0,1-9.23,8.31l-.1.06-.09,0-1.1-.29-1.12-.37a19.52,19.52,0,0,1-8.07-5.69A18.49,18.49,0,0,1,41,458a4.57,4.57,0,0,1-.62-2.39,1.31,1.31,0,0,1,.8-1.12,1.88,1.88,0,0,1,1.32.06,19.44,19.44,0,0,1,11.1,13.3l-.44.14a52.32,52.32,0,0,1-3.84-19.77,6,6,0,0,1,.4-2.26,2.47,2.47,0,0,1,.69-.94,1.8,1.8,0,0,1,1.11-.38,2.22,2.22,0,0,1,1.81,1.19,6.18,6.18,0,0,1,.77,1.9,56.26,56.26,0,0,1,.7,17.37c-.14,1.17-.28,2.07-.39,2.67-.05.28-.09.51-.13.68a1.89,1.89,0,0,1,0,.23,1,1,0,0,1,0-.24c0-.17.06-.4.1-.68.08-.61.2-1.51.31-2.68a58.32,58.32,0,0,0,.12-10.15,55.19,55.19,0,0,0-1-7.12A5.52,5.52,0,0,0,53,446a1.84,1.84,0,0,0-1.51-1,1.58,1.58,0,0,0-1.45,1.1,5.61,5.61,0,0,0-.36,2.11,52.23,52.23,0,0,0,3.88,19.59l-.45.15A19,19,0,0,0,42.34,455a1.44,1.44,0,0,0-1-.07.83.83,0,0,0-.49.71,4.25,4.25,0,0,0,.59,2.11,18.05,18.05,0,0,0,2.54,4,19.05,19.05,0,0,0,7.86,5.53l1.08.36,1.07.28-.19,0a33.33,33.33,0,0,0,9.09-8.18,25.75,25.75,0,0,0,3.09-5,4.32,4.32,0,0,0,.29-2.72,2.55,2.55,0,0,0-1.64-1.91,3,3,0,0,0-2.5.48,6.07,6.07,0,0,0-1.76,2,35.15,35.15,0,0,0-2.3,4.89,37.84,37.84,0,0,0-2.31,9.9l-.18-.24a30.11,30.11,0,0,0,15.62-1.43,4.32,4.32,0,0,0,1.46-.83,1.79,1.79,0,0,0,.58-1.38,1.15,1.15,0,0,0-.83-1.06,4.47,4.47,0,0,0-1.5-.12,24.55,24.55,0,0,0-5.53.75,25.32,25.32,0,0,0-7.19,3c-.77.47-1.34.87-1.72,1.15S55.93,467.67,55.93,467.67Z"/><rect class="cls-8" x="88.29" y="426.08" width="158.6" height="106.15"/><g class="cls-9"><rect x="191.76" y="426.08" width="55.14" height="106.15"/></g><rect class="cls-8" x="214.72" y="426.23" width="12.59" height="21.53"/><rect class="cls-8" x="213.34" y="510.71" width="12.59" height="21.53"/><path class="cls-6" d="M133.69,532c-.15,0-.26-23.79-.26-53.14s.11-53.14.26-53.14.26,23.79.26,53.14S133.83,532,133.69,532Z"/><g class="cls-16"><path class="cls-8" d="M172.74,286.66l16.85-12.25,21.89,25.93a11.06,11.06,0,0,1,2.25,10l-7.37,28a9.39,9.39,0,0,1-9.73,7h0a9.39,9.39,0,0,1-8.71-10c0-.18,0-.36.06-.54l3.25-25.27Z"/><path class="cls-4" d="M188.9,308a6.92,6.92,0,0,1-.44-1,24.66,24.66,0,0,1-1-2.74,33.63,33.63,0,0,1,0-18.89,26,26,0,0,1,1-2.73,6.54,6.54,0,0,1,.44-1,6,6,0,0,1-.33,1c-.23.64-.53,1.58-.85,2.75a35.79,35.79,0,0,0,0,18.77c.32,1.17.62,2.11.85,2.75A6.27,6.27,0,0,1,188.9,308Z"/><path class="cls-4" d="M189.27,295.83a11.6,11.6,0,0,0-1.83,8.24,3.59,3.59,0,0,1-.31-1.25,9,9,0,0,1,1.33-6A3.56,3.56,0,0,1,189.27,295.83Z"/><path class="cls-4" d="M183.65,290.24a3.19,3.19,0,0,1,.78.86,9.8,9.8,0,0,1,1.85,5.24,3.23,3.23,0,0,1-.07,1.16,14,14,0,0,0-2.56-7.26Z"/><path class="cls-4" d="M189.66,287.12a10,10,0,0,0-3.16,5.76A6.66,6.66,0,0,1,189.66,287.12Z"/><path class="cls-4" d="M187,282.06a6.29,6.29,0,0,1-.09,5.25c-.09,0,.29-1.17.31-2.62S187,282.09,187,282.06Z"/><path class="cls-4" d="M207.25,343.66a7,7,0,0,1-.44-1,26.72,26.72,0,0,1-.95-2.73,33.54,33.54,0,0,1,0-18.89,24.66,24.66,0,0,1,1-2.74,6.92,6.92,0,0,1,.44-1,7.39,7.39,0,0,1-.32,1c-.24.63-.54,1.57-.86,2.75a35.79,35.79,0,0,0,0,18.77c.32,1.17.62,2.11.86,2.75A7,7,0,0,1,207.25,343.66Z"/><path class="cls-4" d="M207.63,331.46a11.52,11.52,0,0,0-1.83,8.25,3.45,3.45,0,0,1-.32-1.25,9.18,9.18,0,0,1,1.33-6A3.43,3.43,0,0,1,207.63,331.46Z"/><path class="cls-4" d="M202,325.88a3.24,3.24,0,0,1,.79.86,9.87,9.87,0,0,1,1.84,5.24,3,3,0,0,1-.07,1.15A13.85,13.85,0,0,0,202,325.88Z"/><path class="cls-4" d="M208,322.76a10,10,0,0,0-3.17,5.75A6.64,6.64,0,0,1,208,322.76Z"/><path class="cls-4" d="M205.39,317.7a6.23,6.23,0,0,1-.09,5.24c-.09,0,.29-1.16.31-2.62S205.3,317.72,205.39,317.7Z"/><path class="cls-4" d="M198.67,329.39a6.92,6.92,0,0,1-.44-1,24.66,24.66,0,0,1-.95-2.74,33.63,33.63,0,0,1,0-18.89,26,26,0,0,1,1-2.73,6.54,6.54,0,0,1,.44-1,6.27,6.27,0,0,1-.33,1c-.23.64-.53,1.58-.85,2.75a35.79,35.79,0,0,0,0,18.77c.32,1.17.62,2.11.85,2.75A7.44,7.44,0,0,1,198.67,329.39Z"/><path class="cls-4" d="M199,317.2a11.55,11.55,0,0,0-1.83,8.24,3.38,3.38,0,0,1-.31-1.25,9,9,0,0,1,1.33-6A3.4,3.4,0,0,1,199,317.2Z"/><path class="cls-4" d="M193.42,311.61a3.19,3.19,0,0,1,.78.86,9.8,9.8,0,0,1,1.85,5.24,3.23,3.23,0,0,1-.07,1.16,14,14,0,0,0-2.56-7.26Z"/><path class="cls-4" d="M199.43,308.49a10.12,10.12,0,0,0-3.17,5.75A6.69,6.69,0,0,1,199.43,308.49Z"/><path class="cls-4" d="M180.44,296.91a7,7,0,0,1-.44-1,26.08,26.08,0,0,1-.95-2.74,33.5,33.5,0,0,1,0-18.88,24,24,0,0,1,.95-2.74,6.92,6.92,0,0,1,.44-1,7.39,7.39,0,0,1-.32,1c-.24.63-.54,1.57-.86,2.75a35.79,35.79,0,0,0,0,18.77c.32,1.17.62,2.11.86,2.75A7,7,0,0,1,180.44,296.91Z"/><path class="cls-4" d="M180.82,284.71A11.52,11.52,0,0,0,179,293a3.45,3.45,0,0,1-.32-1.25,9.17,9.17,0,0,1,1.33-6A3.43,3.43,0,0,1,180.82,284.71Z"/><path class="cls-4" d="M175.19,279.13a3.1,3.1,0,0,1,.79.86,9.87,9.87,0,0,1,1.84,5.23,3,3,0,0,1-.07,1.16,13.85,13.85,0,0,0-2.56-7.25Z"/><path class="cls-4" d="M181.21,276a10,10,0,0,0-3.17,5.75A6.64,6.64,0,0,1,181.21,276Z"/><path class="cls-4" d="M195.62,280a7.47,7.47,0,0,1,.63.85,27.28,27.28,0,0,1,1.52,2.47,33.58,33.58,0,0,1,4,18.45,27.6,27.6,0,0,1-.34,2.88,7.43,7.43,0,0,1-.23,1,7.46,7.46,0,0,1,.1-1.06c.1-.67.19-1.65.25-2.87a35.68,35.68,0,0,0-4-18.33c-.56-1.08-1-1.94-1.42-2.51A6.46,6.46,0,0,1,195.62,280Z"/><path class="cls-4" d="M197.87,292a11.55,11.55,0,0,0,0-8.44,3.54,3.54,0,0,1,.57,1.15,9.06,9.06,0,0,1,0,6.14A3.46,3.46,0,0,1,197.87,292Z"/><path class="cls-4" d="M204.56,296.27a3.28,3.28,0,0,1-.95-.67,9.9,9.9,0,0,1-2.93-4.72,3.22,3.22,0,0,1-.18-1.15,14,14,0,0,0,4.06,6.54Z"/><path class="cls-4" d="M199.36,300.61a10.05,10.05,0,0,0,1.86-6.3,6.68,6.68,0,0,1-1.86,6.3Z"/><path class="cls-4" d="M203,305a6.29,6.29,0,0,1-1-5.15c.1,0,0,1.21.26,2.63S203.09,305,203,305Z"/><path class="cls-4" d="M206.66,300.35a6.44,6.44,0,0,1,.63.85,25.2,25.2,0,0,1,1.52,2.47,33.58,33.58,0,0,1,4,18.45,25.14,25.14,0,0,1-.34,2.88,6.24,6.24,0,0,1-.23,1,7.47,7.47,0,0,1,.11-1.06c.09-.67.18-1.66.24-2.87a35.83,35.83,0,0,0-4-18.34c-.57-1.07-1.06-1.93-1.43-2.5A6.46,6.46,0,0,1,206.66,300.35Z"/><path class="cls-4" d="M208.91,312.34a11.55,11.55,0,0,0,0-8.44,3.46,3.46,0,0,1,.58,1.15,9.12,9.12,0,0,1,0,6.14A3.29,3.29,0,0,1,208.91,312.34Z"/><path class="cls-4" d="M215.6,316.59a3.28,3.28,0,0,1-.95-.67,9.9,9.9,0,0,1-2.93-4.72,3.21,3.21,0,0,1-.17-1.15,13.91,13.91,0,0,0,4,6.54Z"/><path class="cls-4" d="M210.4,320.93a10.05,10.05,0,0,0,1.86-6.3A6.68,6.68,0,0,1,210.4,320.93Z"/><path class="cls-4" d="M214.05,325.31a6.29,6.29,0,0,1-1-5.15c.1,0,0,1.21.26,2.63S214.13,325.26,214.05,325.31Z"/><path class="cls-4" d="M181.44,315.74a6.9,6.9,0,0,1,.87.63,26.12,26.12,0,0,1,2.18,1.89,33.69,33.69,0,0,1,9.39,16.4,24.5,24.5,0,0,1,.53,2.84,6.24,6.24,0,0,1,.1,1.06,7.4,7.4,0,0,1-.22-1c-.11-.67-.32-1.63-.62-2.81a35.87,35.87,0,0,0-9.33-16.29c-.86-.86-1.59-1.52-2.11-2A7.66,7.66,0,0,1,181.44,315.74Z"/><path class="cls-4" d="M187.19,326.51a11.52,11.52,0,0,0-2.52-8.06,3.42,3.42,0,0,1,.9.92,9.11,9.11,0,0,1,1.83,5.86A3.48,3.48,0,0,1,187.19,326.51Z"/><path class="cls-4" d="M194.85,328.55a3.15,3.15,0,0,1-1.11-.36,9.79,9.79,0,0,1-4.21-3.62,3.06,3.06,0,0,1-.51-1,13.85,13.85,0,0,0,5.83,5Z"/><path class="cls-4" d="M191.19,334.25a10,10,0,0,0-.12-6.57A6.66,6.66,0,0,1,191.19,334.25Z"/><path class="cls-4" d="M196,337.33a6.26,6.26,0,0,1-2.53-4.6c.09,0,.32,1.16,1,2.43S196.05,337.26,196,337.33Z"/><path class="cls-4" d="M205.44,345.1a11.24,11.24,0,0,0-18.25-8.52l2.08,7.08,9.08,4.43Z"/><path class="cls-4" d="M217.55,318.24a11.09,11.09,0,0,1-6.34-19.65l9.33,6Z"/></g><g class="cls-10"><path d="M172.74,286.66l16.85-12.25,21.89,25.93a11.06,11.06,0,0,1,2.25,10l-7.37,28a9.39,9.39,0,0,1-9.73,7h0a9.39,9.39,0,0,1-8.71-10c0-.18,0-.36.06-.54l3.25-25.27Z"/></g><g class="cls-17"><path class="cls-8" d="M181.44,277.69l16.85-12.24,21.89,25.93a11.07,11.07,0,0,1,2.26,10l-7.38,28a9.38,9.38,0,0,1-9.73,7h0a9.38,9.38,0,0,1-8.71-10c0-.18,0-.36.06-.54l3.25-25.27Z"/><path class="cls-4" d="M197.6,299.06a7,7,0,0,1-.44-1,26.72,26.72,0,0,1-.95-2.73,33.63,33.63,0,0,1,0-18.89,27,27,0,0,1,1-2.74,6.92,6.92,0,0,1,.44-1,6.27,6.27,0,0,1-.33,1c-.23.63-.53,1.57-.85,2.75a35.79,35.79,0,0,0,0,18.77c.32,1.17.62,2.11.85,2.75A6,6,0,0,1,197.6,299.06Z"/><path class="cls-4" d="M198,286.86a11.62,11.62,0,0,0-1.83,8.25,3.65,3.65,0,0,1-.31-1.25,9.18,9.18,0,0,1,1.33-6A3.56,3.56,0,0,1,198,286.86Z"/><path class="cls-4" d="M192.35,281.28a3.05,3.05,0,0,1,.78.86,9.8,9.8,0,0,1,1.85,5.24,3.18,3.18,0,0,1-.07,1.15,13.93,13.93,0,0,0-2.56-7.25Z"/><path class="cls-4" d="M198.36,278.16a10,10,0,0,0-3.16,5.75A6.66,6.66,0,0,1,198.36,278.16Z"/><path class="cls-4" d="M195.74,273.1a6.23,6.23,0,0,1-.09,5.24c-.09,0,.29-1.16.31-2.62S195.65,273.12,195.74,273.1Z"/><path class="cls-4" d="M216,334.7a7.62,7.62,0,0,1-.44-1,26.89,26.89,0,0,1-.95-2.74,33.63,33.63,0,0,1,0-18.89,23.82,23.82,0,0,1,.95-2.73,8.47,8.47,0,0,1,.44-1,7,7,0,0,1-.32,1c-.24.64-.54,1.58-.86,2.75a35.79,35.79,0,0,0,0,18.77c.32,1.17.62,2.12.86,2.75A7.1,7.1,0,0,1,216,334.7Z"/><path class="cls-4" d="M216.33,322.5a11.5,11.5,0,0,0-1.83,8.24,3.55,3.55,0,0,1-.32-1.25,9.14,9.14,0,0,1,1.33-6A3.6,3.6,0,0,1,216.33,322.5Z"/><path class="cls-4" d="M210.7,316.91a3.4,3.4,0,0,1,.79.86,9.87,9.87,0,0,1,1.84,5.24,3,3,0,0,1-.07,1.16,13.91,13.91,0,0,0-2.56-7.26Z"/><path class="cls-4" d="M216.72,313.79a10.06,10.06,0,0,0-3.17,5.76A6.66,6.66,0,0,1,216.72,313.79Z"/><path class="cls-4" d="M214.09,308.73A6.26,6.26,0,0,1,214,314c-.09,0,.29-1.17.31-2.62S214,308.76,214.09,308.73Z"/><path class="cls-4" d="M207.37,320.43a7,7,0,0,1-.44-1,24.51,24.51,0,0,1-1-2.73,33.63,33.63,0,0,1,0-18.89,26.13,26.13,0,0,1,1-2.74,6.92,6.92,0,0,1,.44-1,6.27,6.27,0,0,1-.33,1c-.23.63-.53,1.57-.85,2.75a35.79,35.79,0,0,0,0,18.77c.32,1.17.62,2.11.85,2.75A7,7,0,0,1,207.37,320.43Z"/><path class="cls-4" d="M207.74,308.23a11.57,11.57,0,0,0-1.83,8.25,3.43,3.43,0,0,1-.31-1.25,9,9,0,0,1,1.33-6A3.56,3.56,0,0,1,207.74,308.23Z"/><path class="cls-4" d="M202.12,302.65a2.92,2.92,0,0,1,.78.86,9.8,9.8,0,0,1,1.85,5.23,3.22,3.22,0,0,1-.07,1.16A13.93,13.93,0,0,0,202.12,302.65Z"/><path class="cls-4" d="M208.13,299.53a10,10,0,0,0-3.16,5.75A6.66,6.66,0,0,1,208.13,299.53Z"/><path class="cls-4" d="M189.14,287.94a6.92,6.92,0,0,1-.44-1,26.89,26.89,0,0,1-.95-2.74,33.63,33.63,0,0,1,0-18.89,23.82,23.82,0,0,1,.95-2.73,8.47,8.47,0,0,1,.44-1,7,7,0,0,1-.32,1c-.24.64-.54,1.58-.86,2.75a35.79,35.79,0,0,0,0,18.77c.32,1.17.62,2.12.86,2.75A7.39,7.39,0,0,1,189.14,287.94Z"/><path class="cls-4" d="M189.52,275.75a11.5,11.5,0,0,0-1.83,8.24,3.55,3.55,0,0,1-.32-1.25,9.14,9.14,0,0,1,1.33-6A3.6,3.6,0,0,1,189.52,275.75Z"/><path class="cls-4" d="M183.89,270.16a3.4,3.4,0,0,1,.79.86,9.87,9.87,0,0,1,1.84,5.24,3,3,0,0,1-.07,1.16,13.88,13.88,0,0,0-2.56-7.26Z"/><path class="cls-4" d="M189.91,267a10.06,10.06,0,0,0-3.17,5.76A6.66,6.66,0,0,1,189.91,267Z"/><path class="cls-4" d="M204.32,271.07a6.68,6.68,0,0,1,.63.85,26,26,0,0,1,1.52,2.47,33.58,33.58,0,0,1,4,18.45,25.68,25.68,0,0,1-.34,2.88,7.29,7.29,0,0,1-.23,1,6.24,6.24,0,0,1,.11-1.05c.09-.68.18-1.66.24-2.87a35.74,35.74,0,0,0-4-18.34c-.56-1.08-1.05-1.93-1.42-2.5A7.06,7.06,0,0,1,204.32,271.07Z"/><path class="cls-4" d="M206.57,283.06a11.57,11.57,0,0,0,0-8.45,3.59,3.59,0,0,1,.57,1.16,9.06,9.06,0,0,1,0,6.14A3.46,3.46,0,0,1,206.57,283.06Z"/><path class="cls-4" d="M213.26,287.31a3.48,3.48,0,0,1-.95-.67,9.9,9.9,0,0,1-2.93-4.72,3.22,3.22,0,0,1-.18-1.15,14,14,0,0,0,4.06,6.54Z"/><path class="cls-4" d="M208.06,291.65a10.07,10.07,0,0,0,1.86-6.3A6.68,6.68,0,0,1,208.06,291.65Z"/><path class="cls-4" d="M211.71,296a6.3,6.3,0,0,1-1-5.15c.1,0,0,1.2.26,2.63S211.79,296,211.71,296Z"/><path class="cls-4" d="M215.36,291.39a6.75,6.75,0,0,1,.64.85,25.87,25.87,0,0,1,1.51,2.47,33.56,33.56,0,0,1,4,18.45,25.24,25.24,0,0,1-.34,2.87,7.11,7.11,0,0,1-.22,1,6.22,6.22,0,0,1,.1-1.05c.09-.68.18-1.66.24-2.87a35.73,35.73,0,0,0-4-18.34c-.57-1.08-1.06-1.93-1.43-2.51A6.35,6.35,0,0,1,215.36,291.39Z"/><path class="cls-4" d="M217.61,303.38a11.57,11.57,0,0,0,0-8.45,3.61,3.61,0,0,1,.58,1.16,9.12,9.12,0,0,1,0,6.14A3.47,3.47,0,0,1,217.61,303.38Z"/><path class="cls-4" d="M224.3,307.62a3.45,3.45,0,0,1-1-.66,9.9,9.9,0,0,1-2.93-4.72,3.21,3.21,0,0,1-.17-1.15,13.88,13.88,0,0,0,4.05,6.53Z"/><path class="cls-4" d="M219.1,312a10,10,0,0,0,1.86-6.29A6.65,6.65,0,0,1,219.1,312Z"/><path class="cls-4" d="M222.75,316.35a6.31,6.31,0,0,1-1-5.15c.1,0,0,1.2.26,2.62S222.83,316.3,222.75,316.35Z"/><path class="cls-4" d="M190.14,306.78a6,6,0,0,1,.87.62,26.24,26.24,0,0,1,2.18,1.9,33.62,33.62,0,0,1,9.39,16.39,25.08,25.08,0,0,1,.53,2.85,6.22,6.22,0,0,1,.1,1,7,7,0,0,1-.22-1c-.11-.67-.32-1.64-.62-2.82A35.84,35.84,0,0,0,193,309.46c-.86-.86-1.59-1.53-2.11-2A7.66,7.66,0,0,1,190.14,306.78Z"/><path class="cls-4" d="M195.9,317.54a11.59,11.59,0,0,0-2.53-8.06,3.46,3.46,0,0,1,.9.93,9.08,9.08,0,0,1,1.83,5.86A3.63,3.63,0,0,1,195.9,317.54Z"/><path class="cls-4" d="M203.55,319.58a3.22,3.22,0,0,1-1.1-.35,9.83,9.83,0,0,1-4.22-3.62,3.15,3.15,0,0,1-.51-1A14,14,0,0,0,203.55,319.58Z"/><path class="cls-4" d="M199.89,325.29a10,10,0,0,0-.12-6.57A6.66,6.66,0,0,1,199.89,325.29Z"/><path class="cls-4" d="M204.69,328.37a6.26,6.26,0,0,1-2.53-4.6c.09,0,.32,1.16,1,2.43S204.76,328.3,204.69,328.37Z"/><g class="cls-18"><path class="cls-4" d="M214.14,336.13a11.23,11.23,0,0,0-18.25-8.51L198,334.7l9.08,4.42Z"/></g><g class="cls-18"><path class="cls-4" d="M226.25,309.27a11.08,11.08,0,0,1-6.34-19.64l9.33,5.94Z"/></g></g><path class="cls-8" d="M455.48,312.32,464,291.41a3.59,3.59,0,0,1,4.67-2h0l34.6,14.08a3.58,3.58,0,0,1,2,4.67l-8.51,20.91a3.58,3.58,0,0,1-4.66,2h0L457.45,317A3.59,3.59,0,0,1,455.48,312.32Z"/><g class="cls-10"><path d="M455.48,312.32,464,291.41a3.59,3.59,0,0,1,4.67-2h0l34.6,14.08a3.58,3.58,0,0,1,2,4.67l-8.51,20.91a3.58,3.58,0,0,1-4.66,2h0L457.45,317A3.59,3.59,0,0,1,455.48,312.32Z"/></g><path class="cls-6" d="M493.29,305.39a2.2,2.2,0,0,1,.22-.53l.69-1.46a34.62,34.62,0,0,0,2.2-5.53,13.38,13.38,0,0,0-.18-8.57,8.69,8.69,0,0,0-3.14-3.92,24.47,24.47,0,0,0-4.94-2.52c-3.52-1.42-7.28-2.14-10.43-1.16a9.52,9.52,0,0,0-3.94,2.36,14,14,0,0,0-2.45,3.23,29.52,29.52,0,0,0-2.24,5.5l-.49,1.55a.28.28,0,0,1,.13.38.29.29,0,0,1-.38.14.3.3,0,0,1-.13-.39.29.29,0,0,1,.28-.16c.08-.36.21-.89.4-1.58a26.47,26.47,0,0,1,2.11-5.62,14,14,0,0,1,2.47-3.36,9.92,9.92,0,0,1,4.09-2.51,12.34,12.34,0,0,1,5.3-.37,23.24,23.24,0,0,1,5.47,1.5,25.09,25.09,0,0,1,5.05,2.59,9.28,9.28,0,0,1,3.29,4.16,13.69,13.69,0,0,1,.09,8.85,32.44,32.44,0,0,1-2.37,5.52c-.34.62-.6,1.1-.79,1.42A2.46,2.46,0,0,1,493.29,305.39Z"/><path class="cls-8" d="M450.34,310.05l8.51-20.91a3.59,3.59,0,0,1,4.67-2h0l34.59,14.08a3.59,3.59,0,0,1,2,4.67h0l-8.51,20.91a3.59,3.59,0,0,1-4.67,2l-34.59-14.08a3.58,3.58,0,0,1-2-4.67Z"/><g class="cls-19"><path class="cls-4" d="M455.07,298.43a73,73,0,0,0,8.51,4.75c3,1.24.2,2,5.17,1.46s5.39-.56,6.5.34,1.62,2.21,2.46,2.66a25.32,25.32,0,0,0,2.39,1s3.61,1.51,4.44,1.74c5.84,1.62,7.16.22,8.83,2.67s2.74,2.59,2.74,2.59l1.13-2.78L492,310.75s-2.43-2-3.14-2.46-1-1.46-2.28-.93a7.52,7.52,0,0,1-3.15.49c-.74,0-3.36-.45-3.36-.45l-2.28-.93-.51-2L475.16,303l-1.11-.16-2.82-.7-3.91-.55-4-1-2.28-.93-3.46-.22Z"/></g><g class="cls-19"><path class="cls-4" d="M454.26,303.7l5.94,4.64,2.95,2.53s4,2.21,5.33,2.16a11.78,11.78,0,0,1,3.5.84l2,1.66,2.79,1.13,3.08.41,2.77.07,2.41,1,3.17,1.29,2.91,1.19,1.78.72.45,1.22,1-2.52-8.26-5.61-6.2-.72-5.13-2.09-2.35-2.76-4.15-.33-3.88-1-4.21-2-4.43-1.81Z"/></g><g class="cls-19"><polygon class="cls-4" points="451.78 306.5 454.45 313.38 456.72 316.51 463.94 319.45 459.46 312.32 455.97 310.01 453.12 306.49 452.23 305.39 451.78 306.5"/></g><g class="cls-19"><polygon class="cls-4" points="463.01 313.03 467.84 317.5 468.63 321.36 473.32 323.27 478.77 325.49 482.36 323.92 486.83 323.46 488.73 323.49 485.06 322 480.54 322.23 477.03 321.76 473.42 318.66 469.37 317.01 468.21 315.14 466.26 313.76 463.01 313.03"/></g><g class="cls-19"><path class="cls-4" d="M458.4,294l6.9,1.19,5.73-1.36,4-1.05,4.33,2.8,5,2.34,6.23,1.21,4,.43,3.08,2.58L499,307l.09,1.24-.56,1.38-3.48-5.26a35.11,35.11,0,0,0-2.83-2.48c-.38-.15-2.12-1.31-2.91-1.19a15.09,15.09,0,0,1-5-.71c-1.82-.6-5.06-1.47-5.06-1.47l-3-1.83-1.78-.72-4.29,0-2.44.93L465.48,298l-3.67-1.5-5.3-1.64.78-1.93Z"/></g><g class="cls-19"><polygon class="cls-4" points="466.21 288.75 458.28 290.54 457.69 292 462.24 292.04 466.54 291.67 469.35 290.03 466.21 288.75"/></g><path class="cls-6" d="M486.9,328.8a4.82,4.82,0,0,0,1.41.21,3.75,3.75,0,0,0,1.64-.47,3.52,3.52,0,0,0,1.51-1.72l5.68-14.16L499,308c.31-.8.69-1.66,1-2.48a3.36,3.36,0,0,0-.3-2.54,3.64,3.64,0,0,0-2.09-1.66l-2.77-1.12-5.76-2.33-25.67-10.42a3.3,3.3,0,0,0-3.22.4,3.21,3.21,0,0,0-1.05,1.29c-.23.55-.46,1.11-.68,1.66q-1.37,3.32-2.67,6.54l-5.05,12.37a4.5,4.5,0,0,0-.43,1.45,3.5,3.5,0,0,0,.2,1.43,3.35,3.35,0,0,0,2,2l5.43,2.23,9.74,4,14.1,5.82,3.82,1.61,1,.43a1.71,1.71,0,0,1,.33.17,2.06,2.06,0,0,1-.35-.12l-1-.38-3.86-1.52-14.16-5.67-9.76-3.94-5.44-2.2a3.84,3.84,0,0,1-2.24-2.24,4,4,0,0,1-.23-1.64,4.91,4.91,0,0,1,.45-1.59c1.6-3.95,3.28-8.09,5-12.38l2.66-6.55c.23-.56.44-1.1.69-1.68a3.81,3.81,0,0,1,1.21-1.49,3.87,3.87,0,0,1,3.73-.47l25.65,10.46,5.76,2.36,2.76,1.13a4,4,0,0,1,2.3,1.87,3.8,3.8,0,0,1,.32,2.86c-.32.9-.68,1.69-1,2.52l-1.92,4.67-5.83,14.1a3.63,3.63,0,0,1-3.34,2.21A2.88,2.88,0,0,1,486.9,328.8Z"/><path class="cls-6" d="M607.25,360.81s0-.22,0-.66.12-1.08.21-1.9c0-.42.12-.89.14-1.41s0-1.08,0-1.7,0-1.28,0-2-.12-1.45-.19-2.25a36.79,36.79,0,0,0-3-11.19,36.14,36.14,0,0,0-9-12.32L593.82,326c-.58-.44-1.19-.86-1.79-1.29a35,35,0,0,0-13-5.69,37.58,37.58,0,0,0-5-.78c-.86-.1-1.73-.06-2.61-.09l-1.32,0c-.44,0-.88.07-1.33.1a34.74,34.74,0,0,0-10.69,2.36,36.49,36.49,0,0,0-17.88,14.77A37,37,0,0,0,535,359.61q.12.84.27,1.65l0,.11-.07.09-11.77,16.36-.25-.4,17.38-2.69.16,0,.09.13a36.19,36.19,0,0,0,21.36,15.05,27.5,27.5,0,0,0,4,.75l2,.24c.66.08,1.32.05,2,.08a36.4,36.4,0,0,0,14.44-2.58,37.51,37.51,0,0,0,10.74-6.61l2.05-1.93,1.75-2a17.14,17.14,0,0,0,1.53-2c.46-.67,1-1.27,1.34-1.93a38.31,38.31,0,0,0,3.39-6.89c.33-1,.63-1.87.89-2.64s.34-1.44.47-2l.3-1.2c.07-.28.11-.41.11-.41s0,.14-.07.41l-.26,1.22c-.11.54-.26,1.21-.42,2l-.87,2.66a37.51,37.51,0,0,1-3.34,7A22.49,22.49,0,0,1,601,376a19.62,19.62,0,0,1-1.52,2l-1.76,2-2.06,2a37.44,37.44,0,0,1-10.8,6.72,36.66,36.66,0,0,1-14.59,2.66c-.67,0-1.34,0-2-.07l-2-.25a27.08,27.08,0,0,1-4.08-.74,36.61,36.61,0,0,1-21.66-15.2l.24.1-17.38,2.71-.6.09.35-.5,11.77-16.36,0,.2c-.11-.55-.2-1.11-.28-1.67a37.52,37.52,0,0,1,5.23-24.64,36.93,36.93,0,0,1,18.14-14.95,35,35,0,0,1,10.83-2.37c.45,0,.9-.08,1.35-.09l1.34,0c.88,0,1.77,0,2.64.09a39.8,39.8,0,0,1,5.1.81,36.4,36.4,0,0,1,9.18,3.36,38.69,38.69,0,0,1,3.92,2.43c.61.45,1.22.87,1.81,1.32l1.64,1.44a36.26,36.26,0,0,1,12,23.76c.06.8.12,1.56.17,2.27s0,1.38,0,2,0,1.19-.05,1.71-.11,1-.16,1.41c-.11.82-.19,1.46-.25,1.9S607.25,360.81,607.25,360.81Z"/><polygon class="cls-6" points="583.05 340.51 587.44 373.76 554.93 373.76 559.66 340.51 583.05 340.51"/><path class="cls-4" d="M562.3,345.34a15.73,15.73,0,0,0,1.66,3.14,8.81,8.81,0,0,0,2.83,2.5,9.32,9.32,0,0,0,4.48,1.08,9.58,9.58,0,0,0,4.5-1,7.71,7.71,0,0,0,2.8-2.52,14,14,0,0,0,1.49-3.21,2.26,2.26,0,0,1-.13,1,8.75,8.75,0,0,1-1.06,2.45,7.7,7.7,0,0,1-2.87,2.74,10.38,10.38,0,0,1-9.44-.09,8.75,8.75,0,0,1-2.9-2.71,9.37,9.37,0,0,1-1.17-2.4A2.41,2.41,0,0,1,562.3,345.34Z"/></g></g></svg>