<svg xmlns="http://www.w3.org/2000/svg" viewBox="0 0 685.99 685.99"><defs><style>.cls-1{fill:#fff;}.cls-2{fill:#4dbdeb;}.cls-3{fill:#00405c;}.cls-4{fill:#ffd262;}.cls-5{fill:#0075a8;}.cls-6{fill:#f0f7f7;}</style></defs><g id="Layer_2" data-name="Layer 2"><g id="Layer_1-2" data-name="Layer 1"><path class="cls-1" d="M343,676A333,333,0,0,1,107.53,107.53,333,333,0,0,1,578.46,578.46,330.85,330.85,0,0,1,343,676Z"/><path class="cls-2" d="M343,20c178.39,0,323,144.61,323,323S521.38,666,343,666,20,521.38,20,343,164.61,20,343,20m0-20A343.08,343.08,0,0,0,209.48,659,343.08,343.08,0,0,0,476.51,27,340.89,340.89,0,0,0,343,0Z"/><g id="Layer_1-2-2" data-name="Layer 1-2"><path class="cls-3" d="M579.88,402.33a38.4,38.4,0,0,1-12.75,28.61l-74.74,67a174.81,174.81,0,0,1-116.88,44.72H252.81L218.74,577a9.25,9.25,0,0,1-13.85-12.27,9.93,9.93,0,0,1,.72-.73l36.79-37a9.21,9.21,0,0,1,6.56-2.73H375.51a156.35,156.35,0,0,0,104.56-40l74.74-67a19.84,19.84,0,0,0-26.2-29.81l-78.57,68a100.21,100.21,0,0,1-65.62,24.4H368.33a5.68,5.68,0,0,1-.93-.05c-.63,0-1.26.05-1.85.05h-62.5a9.26,9.26,0,0,1,0-18.51H365.5a20.36,20.36,0,0,0,0-40.71H268.09a101.37,101.37,0,0,0-62.92,22l-84,67A9.26,9.26,0,1,1,109.59,495l84-66.95c1.05-.84,2.11-1.65,3.19-2.45V218.22a30.91,30.91,0,0,1,30.88-30.88H458.33a30.91,30.91,0,0,1,30.87,30.88v178.7l27.23-23.59a38.36,38.36,0,0,1,63.45,29ZM470.69,412.94V218.22a12.39,12.39,0,0,0-12.36-12.38H395.5v65.7a9.26,9.26,0,0,1-15.8,6.55L364.62,263l-15.09,15.08a9.25,9.25,0,0,1-13.08,0L321.38,263l-15.09,15.08a9.26,9.26,0,0,1-15.79-6.55v-65.7H227.67a12.4,12.4,0,0,0-12.38,12.38V414.39A120,120,0,0,1,268.09,402H365.5a38.87,38.87,0,0,1,33.94,57.83,81.71,81.71,0,0,0,38.45-18.5ZM377,249.21V205.84H309v43.37l5.83-5.83a9.25,9.25,0,0,1,13.09,0L343,258.46l15.08-15.08a9.25,9.25,0,0,1,13.09,0Z"/><path class="cls-4" d="M561.37,324.29a9.26,9.26,0,1,1,0,18.51H519.73a9.26,9.26,0,0,1,0-18.51Z"/><path class="cls-4" d="M540.23,136.31a9.26,9.26,0,0,1,0,13.09l-36.36,36.36a9.26,9.26,0,0,1-13.09-13.09l36.36-36.36a9.24,9.24,0,0,1,13.08,0Z"/><path class="cls-5" d="M470.69,218.22V412.94l-32.8,28.41a81.71,81.71,0,0,1-38.45,18.5A38.87,38.87,0,0,0,365.5,402H268.09a120,120,0,0,0-52.8,12.37V218.22a12.4,12.4,0,0,1,12.38-12.38H290.5v65.7a9.26,9.26,0,0,0,15.79,6.55L321.38,263l15.07,15.08a9.25,9.25,0,0,0,13.08,0L364.62,263l15.08,15.08a9.26,9.26,0,0,0,15.8-6.55v-65.7h62.83A12.39,12.39,0,0,1,470.69,218.22ZM449.41,327.85a9.26,9.26,0,0,0-9.26-9.25H365.58a9.25,9.25,0,0,0,0,18.5h74.57A9.26,9.26,0,0,0,449.41,327.85Zm0,37a9.26,9.26,0,0,0-9.26-9.26H348.43a9.26,9.26,0,0,0,0,18.51h91.72A9.26,9.26,0,0,0,449.41,364.87ZM318,371.4a9.26,9.26,0,0,0,0-13.09,9.38,9.38,0,0,0-6.55-2.7A9.25,9.25,0,1,0,318,371.4Z"/><path class="cls-6" d="M440.15,318.6a9.25,9.25,0,1,1,0,18.5H365.58a9.25,9.25,0,0,1,0-18.5Z"/><path class="cls-6" d="M440.15,355.61a9.26,9.26,0,1,1,0,18.51H348.43a9.26,9.26,0,0,1,0-18.51Z"/><path class="cls-2" d="M377,205.84v43.37l-5.83-5.83a9.25,9.25,0,0,0-13.09,0L343,258.46l-15.07-15.08a9.25,9.25,0,0,0-13.09,0L309,249.21V205.84Z"/><path class="cls-4" d="M352.25,115.16V156.8a9.26,9.26,0,0,1-18.51,0V115.16a9.26,9.26,0,0,1,18.51,0Z"/><path class="cls-6" d="M318,358.31a9.26,9.26,0,1,1-6.55-2.7A9.38,9.38,0,0,1,318,358.31Z"/><path class="cls-3" d="M272.57,464a9.25,9.25,0,1,1-6.53-2.71A9.26,9.26,0,0,1,272.57,464Z"/><path class="cls-4" d="M195.21,172.67a9.26,9.26,0,0,1-13.09,13.09L145.76,149.4a9.26,9.26,0,0,1,13.09-13.09Z"/><path class="cls-4" d="M166.25,324.29a9.26,9.26,0,0,1,0,18.51H124.61a9.26,9.26,0,0,1,0-18.51Z"/></g></g></g></svg>