<svg xmlns="http://www.w3.org/2000/svg" viewBox="0 0 685.99 685.99"><defs><style>.cls-1{fill:#fff;}.cls-2{fill:#4dbdeb;}.cls-3{fill:#0075a8;}.cls-4{fill:#00405c;}.cls-5{fill:#ffd262;}.cls-6{fill:#e4b34f;}</style></defs><g id="Layer_2" data-name="Layer 2"><g id="Layer_1-2" data-name="Layer 1"><path class="cls-1" d="M343,676A333,333,0,0,1,107.53,107.53,333,333,0,0,1,578.46,578.46,330.85,330.85,0,0,1,343,676Z"/><path class="cls-2" d="M343,20c178.39,0,323,144.61,323,323S521.38,666,343,666,20,521.38,20,343,164.61,20,343,20m0-20A343.08,343.08,0,0,0,209.48,659,343.08,343.08,0,0,0,476.51,27,340.89,340.89,0,0,0,343,0Z"/><circle class="cls-3" cx="342.94" cy="288.01" r="178.58" transform="translate(-103.21 326.85) rotate(-45)"/><path class="cls-4" d="M343,470.49c-100.62,0-182.48-81.86-182.48-182.48S242.37,105.52,343,105.52,525.48,187.38,525.48,288,443.61,470.49,343,470.49Zm0-357.21c-96.34,0-174.72,78.38-174.72,174.73S246.65,462.73,343,462.73,517.72,384.35,517.72,288,439.34,113.28,343,113.28Z"/><path class="cls-5" d="M342.46,349l-60.21,31.65,11.5-67L245,266.13l67.32-9.78,30.1-61,30.11,61,67.32,9.78-48.71,47.49,11.5,67Z"/><path class="cls-6" d="M439.89,266.13l-12.49-1.81L379.51,311l10.83,63.18,12.34,6.48-11.5-67Z"/><path class="cls-5" d="M245,266.13l12.49-1.81L305.42,311l-10.84,63.18-12.33,6.48,11.5-67Z"/><path class="cls-4" d="M402.68,384.54a3.88,3.88,0,0,1-1.81-.45l-58.41-30.7-58.41,30.7a3.87,3.87,0,0,1-5.62-4.08l11.15-65-47.25-46.06a3.88,3.88,0,0,1,2.15-6.61l65.3-9.49L339,193.63a3.88,3.88,0,0,1,7,0l29.2,59.18,65.3,9.49a3.88,3.88,0,0,1,2.15,6.61L395.34,315l11.15,65a3.87,3.87,0,0,1-3.81,4.53ZM253.37,268.84l43.09,42a3.87,3.87,0,0,1,1.11,3.43L287.4,373.58l53.26-28a3.85,3.85,0,0,1,3.61,0l53.26,28-10.17-59.31a3.87,3.87,0,0,1,1.11-3.43l43.09-42L372,260.19a3.89,3.89,0,0,1-2.92-2.12l-26.63-54-26.62,54a3.89,3.89,0,0,1-2.92,2.12Z"/><path class="cls-4" d="M304.22,343a4.87,4.87,0,0,1-.65-.05,3.88,3.88,0,0,1-3.17-4.48l4-23.26a3.88,3.88,0,0,1,7.64,1.31l-4,23.26A3.87,3.87,0,0,1,304.22,343Z"/><path class="cls-4" d="M456,450.55a3.87,3.87,0,0,1-2.82-6.54,231.86,231.86,0,0,0,46.2-245.89l7.19-2.92a239.65,239.65,0,0,1-47.76,254.14,3.86,3.86,0,0,1-2.81,1.21Z"/><path class="cls-5" d="M477.86,368.89A45.62,45.62,0,0,0,435,353.77a3.88,3.88,0,0,0-3,2.53,45.47,45.47,0,0,0,51.18,59.78,3.87,3.87,0,0,0,2.95-2.52,45.62,45.62,0,0,0-8.33-44.67Z"/><path class="cls-5" d="M494,314.63a45.59,45.59,0,0,0-45.27-3.87,3.86,3.86,0,0,0-2.22,3.19A45.47,45.47,0,0,0,511,359a3.86,3.86,0,0,0,2.22-3.18A45.62,45.62,0,0,0,494,314.63Z"/><path class="cls-5" d="M497.44,257.14a45.6,45.6,0,0,0-45.21,4.52,3.86,3.86,0,0,0-1.6,3.54,45.46,45.46,0,0,0,71.73,32.37A3.87,3.87,0,0,0,524,294a45.6,45.6,0,0,0-26.52-36.89Z"/><path class="cls-5" d="M518.57,233.69A45.44,45.44,0,0,0,442.91,212a3.88,3.88,0,0,0-1.07,3.74,45.62,45.62,0,0,0,31.58,32.67,45.14,45.14,0,0,0,12.42,1.74,45.69,45.69,0,0,0,31.66-12.76A3.86,3.86,0,0,0,518.57,233.69Z"/><path class="cls-5" d="M514,154.68a45.62,45.62,0,0,0-34.85-29.16,3.88,3.88,0,0,0-3.65,1.34,45.43,45.43,0,0,0,27,73.91,3.79,3.79,0,0,0,.67.06,3.89,3.89,0,0,0,3-1.39A45.61,45.61,0,0,0,514,154.68Z"/><path class="cls-4" d="M485.84,250.18a45.14,45.14,0,0,1-12.42-1.74,45.62,45.62,0,0,1-31.58-32.67,3.88,3.88,0,0,1,1.07-3.74,45.44,45.44,0,0,1,75.66,21.66,3.86,3.86,0,0,1-1.07,3.73A45.67,45.67,0,0,1,485.84,250.18ZM450,216.08a37.68,37.68,0,0,0,60.44,17.3A37.66,37.66,0,0,0,450,216.08Z"/><path class="cls-4" d="M503.14,200.83a3.88,3.88,0,0,1-.67-.06,45.44,45.44,0,0,1-27-73.92,3.9,3.9,0,0,1,3.65-1.33,45.43,45.43,0,0,1,27,73.91,3.9,3.9,0,0,1-3,1.4ZM480,133.62a37.68,37.68,0,0,0,21.58,59,37.68,37.68,0,0,0-21.58-59Z"/><path class="cls-4" d="M495.79,306.09a45.37,45.37,0,0,1-45.16-40.9,3.89,3.89,0,0,1,1.59-3.54A45.44,45.44,0,0,1,524,294a3.89,3.89,0,0,1-1.6,3.54,45.56,45.56,0,0,1-26.57,8.53Zm-37.15-39.41a37.67,37.67,0,0,0,57.3,25.86,37.67,37.67,0,0,0-57.3-25.86Z"/><path class="cls-4" d="M491.76,363.22A45.37,45.37,0,0,1,446.46,314a3.9,3.9,0,0,1,2.22-3.19,45.44,45.44,0,0,1,64.56,45A3.87,3.87,0,0,1,511,359,45.47,45.47,0,0,1,491.76,363.22Zm-37.69-46.34a37.66,37.66,0,0,0,51.57,35.95,37.68,37.68,0,0,0-51.57-35.95Z"/><path class="cls-4" d="M475,416.84a45.41,45.41,0,0,1-42.92-60.54,3.9,3.9,0,0,1,2.95-2.53,45.43,45.43,0,0,1,51.17,59.79,3.84,3.84,0,0,1-2.95,2.52A45.07,45.07,0,0,1,475,416.84Zm7.55-4.57h0Zm-43.85-51.22a37.68,37.68,0,0,0,40.89,47.76,37.67,37.67,0,0,0-40.89-47.76Z"/><path class="cls-6" d="M576.28,191a3.9,3.9,0,0,0-2.33-3.1,45.44,45.44,0,0,0-63,47.18,3.89,3.89,0,0,0,2.33,3.11,45.44,45.44,0,0,0,63-47.19Z"/><path class="cls-6" d="M585.38,256.75a45.44,45.44,0,0,0-69.16,37.57,3.9,3.9,0,0,0,1.86,3.41,45.43,45.43,0,0,0,69.15-37.57A3.87,3.87,0,0,0,585.38,256.75Z"/><path class="cls-6" d="M580.47,330.4a45.44,45.44,0,0,0-74.88,24.22,3.87,3.87,0,0,0,1.2,3.7,45.42,45.42,0,0,0,74.87-24.22A3.89,3.89,0,0,0,580.47,330.4Z"/><path class="cls-6" d="M557.63,405.91a45.43,45.43,0,0,0-78.56,4.62,3.88,3.88,0,0,0,.22,3.88,45.62,45.62,0,0,0,38,20.45c.87,0,1.76,0,2.64-.08a45.59,45.59,0,0,0,37.94-25A3.88,3.88,0,0,0,557.63,405.91Z"/><path class="cls-4" d="M531.13,241.84a45.44,45.44,0,0,1-17.84-3.64,3.89,3.89,0,0,1-2.33-3.11,45.44,45.44,0,0,1,63-47.18,3.9,3.9,0,0,1,2.33,3.1,45.41,45.41,0,0,1-45.15,50.83Zm-12.67-9.94a37.68,37.68,0,0,0,50.31-37.69,37.67,37.67,0,0,0-50.31,37.69Z"/><path class="cls-4" d="M541.83,304.39a45.56,45.56,0,0,1-23.75-6.66,3.9,3.9,0,0,1-1.86-3.41,45.44,45.44,0,0,1,69.16-37.57,3.87,3.87,0,0,1,1.85,3.41,45.36,45.36,0,0,1-45.4,44.23Zm-17.72-12.15a37.67,37.67,0,0,0,55.24-30,37.67,37.67,0,0,0-55.24,30Z"/><path class="cls-4" d="M537.31,370a45.64,45.64,0,0,1-30.52-11.7,3.87,3.87,0,0,1-1.2-3.7,45.44,45.44,0,0,1,74.88-24.22,3.86,3.86,0,0,1,1.19,3.7,45.59,45.59,0,0,1-30.44,33.72,45,45,0,0,1-13.91,2.2Zm-23.59-16a37.67,37.67,0,0,0,59.81-19.35A37.67,37.67,0,0,0,513.72,354Z"/><path class="cls-4" d="M517.27,434.86a45.65,45.65,0,0,1-38-20.45,3.88,3.88,0,0,1-.22-3.88,45.43,45.43,0,0,1,78.56-4.62,3.88,3.88,0,0,1,.22,3.88,45.59,45.59,0,0,1-37.94,25C519,434.83,518.14,434.86,517.27,434.86ZM487.08,412a37.68,37.68,0,0,0,62.76-3.69A37.67,37.67,0,0,0,487.08,412Z"/><path class="cls-5" d="M206.92,410.53a45.43,45.43,0,0,0-78.56-4.62,3.9,3.9,0,0,0-.23,3.88,45.62,45.62,0,0,0,38,25c.88.05,1.76.08,2.64.08a45.63,45.63,0,0,0,38-20.45A3.85,3.85,0,0,0,206.92,410.53Z"/><path class="cls-5" d="M180.4,354.62a45.44,45.44,0,0,0-74.88-24.22,3.89,3.89,0,0,0-1.2,3.7,45.6,45.6,0,0,0,30.45,33.72A44.91,44.91,0,0,0,148.68,370a45.65,45.65,0,0,0,30.52-11.69,3.89,3.89,0,0,0,1.2-3.7Z"/><path class="cls-5" d="M146,255.57a45.58,45.58,0,0,0-45.42,1.18,3.87,3.87,0,0,0-1.85,3.41,45.47,45.47,0,0,0,69.15,37.57,3.87,3.87,0,0,0,1.85-3.41A45.57,45.57,0,0,0,146,255.57Z"/><path class="cls-5" d="M157.16,193.31a45.63,45.63,0,0,0-45.12-5.4,3.88,3.88,0,0,0-2.33,3.1,45.48,45.48,0,0,0,63,47.18,3.88,3.88,0,0,0,2.33-3.1,45.63,45.63,0,0,0-17.87-41.78Z"/><path class="cls-4" d="M154.86,241.84A45.39,45.39,0,0,1,109.71,191a3.9,3.9,0,0,1,2.33-3.1,45.44,45.44,0,0,1,63,47.18,3.91,3.91,0,0,1-2.33,3.11A45.44,45.44,0,0,1,154.86,241.84Zm-37.65-47.63a37.68,37.68,0,0,0,50.32,37.69,37.67,37.67,0,0,0-50.32-37.69Z"/><path class="cls-4" d="M144.16,304.39a45.36,45.36,0,0,1-45.4-44.23,3.87,3.87,0,0,1,1.85-3.41,45.43,45.43,0,0,1,69.15,37.57,3.87,3.87,0,0,1-1.85,3.41A45.56,45.56,0,0,1,144.16,304.39Zm-37.52-42.16a37.67,37.67,0,0,0,55.24,30,37.67,37.67,0,0,0-55.24-30Z"/><path class="cls-4" d="M148.68,370a45.37,45.37,0,0,1-44.36-35.92,3.87,3.87,0,0,1,1.2-3.69,45.43,45.43,0,0,1,74.88,24.22,3.88,3.88,0,0,1-1.2,3.69A45.66,45.66,0,0,1,148.68,370Zm-36.23-35.33A37.68,37.68,0,0,0,172.27,354a37.68,37.68,0,0,0-59.82-19.35Z"/><path class="cls-4" d="M168.72,434.86c-.88,0-1.76,0-2.64-.08a45.62,45.62,0,0,1-38-25,3.9,3.9,0,0,1,.23-3.88,45.43,45.43,0,0,1,78.56,4.62,3.85,3.85,0,0,1-.23,3.88A45.63,45.63,0,0,1,168.72,434.86Zm-32.57-26.54A37.68,37.68,0,0,0,198.91,412a37.67,37.67,0,0,0-62.76-3.69Z"/><path class="cls-4" d="M230,450.55a3.9,3.9,0,0,1-2.82-1.21A239.67,239.67,0,0,1,179.47,195.2a3.88,3.88,0,0,1,7.19,2.91A231.88,231.88,0,0,0,232.86,444a3.87,3.87,0,0,1-2.82,6.54Z"/><path class="cls-5" d="M210.53,126.85a3.89,3.89,0,0,0-3.64-1.33,45.43,45.43,0,0,0-27,73.91,4,4,0,0,0,3.65,1.34,45.43,45.43,0,0,0,27-73.92Z"/><path class="cls-4" d="M182.85,200.83a3.93,3.93,0,0,1-3-1.39,45.44,45.44,0,0,1,27-73.92,3.88,3.88,0,0,1,3.65,1.34,45.43,45.43,0,0,1-27,73.91,3.88,3.88,0,0,1-.67.06ZM206,133.62a37.68,37.68,0,0,0-21.58,59,37.68,37.68,0,0,0,21.58-59Z"/><path class="cls-5" d="M243.08,212a45.44,45.44,0,0,0-75.66,21.66,3.86,3.86,0,0,0,1.07,3.73,45.65,45.65,0,0,0,31.65,12.76,45.16,45.16,0,0,0,12.43-1.74,45.62,45.62,0,0,0,31.58-32.67,3.88,3.88,0,0,0-1.07-3.74Z"/><path class="cls-5" d="M233.76,261.65A45.44,45.44,0,0,0,162,294a3.87,3.87,0,0,0,1.6,3.54,45.44,45.44,0,0,0,71.73-32.38,3.87,3.87,0,0,0-1.6-3.54Z"/><path class="cls-5" d="M239.52,314a3.86,3.86,0,0,0-2.22-3.19,45.44,45.44,0,0,0-64.56,45A3.89,3.89,0,0,0,175,359a45.43,45.43,0,0,0,64.56-45Z"/><path class="cls-5" d="M253.93,356.3a3.9,3.9,0,0,0-3-2.53,45.44,45.44,0,0,0-51.17,59.79,3.87,3.87,0,0,0,2.95,2.52,45.44,45.44,0,0,0,51.18-59.78Z"/><path class="cls-4" d="M200.14,250.18a45.65,45.65,0,0,1-31.65-12.76,3.86,3.86,0,0,1-1.07-3.73A45.44,45.44,0,0,1,243.08,212a3.88,3.88,0,0,1,1.07,3.74,45.62,45.62,0,0,1-31.58,32.67A45.16,45.16,0,0,1,200.14,250.18Zm-24.58-16.8A37.68,37.68,0,0,0,236,216.08a37.67,37.67,0,0,0-60.44,17.3Zm24.51-28.63h0Z"/><path class="cls-4" d="M190.2,306.09a45.62,45.62,0,0,1-26.57-8.52A3.87,3.87,0,0,1,162,294a45.44,45.44,0,0,1,71.73-32.38,3.87,3.87,0,0,1,1.6,3.54,45.37,45.37,0,0,1-45.16,40.9ZM170,292.54a37.68,37.68,0,0,0,57.31-25.86A37.68,37.68,0,0,0,170,292.54Z"/><path class="cls-4" d="M194.23,363.22A45.47,45.47,0,0,1,175,359a3.86,3.86,0,0,1-2.22-3.18,45.43,45.43,0,0,1,64.55-45,3.86,3.86,0,0,1,2.22,3.19,45.36,45.36,0,0,1-45.29,49.27Zm-13.88-10.39a37.68,37.68,0,0,0,51.57-35.95,37.66,37.66,0,0,0-51.57,35.95Z"/><path class="cls-4" d="M211,416.84a45.26,45.26,0,0,1-8.26-.76,3.87,3.87,0,0,1-2.95-2.52A45.44,45.44,0,0,1,251,353.77a3.87,3.87,0,0,1,2.95,2.53A45.41,45.41,0,0,1,211,416.84Zm-4.59-8a37.67,37.67,0,0,0,40.88-47.76,37.67,37.67,0,0,0-40.88,47.76Z"/><path class="cls-6" d="M583.35,512.22H475.68V447.09H583.35l-32.93,32.57Z"/><path class="cls-5" d="M102.63,447.09H210.31v65.13H102.63l32.93-32.56Z"/><path class="cls-6" d="M150.73,479.66l59.58,32.56V479.66Z"/><path class="cls-6" d="M475.68,479.66h59.58l-59.58,32.56Z"/><path class="cls-4" d="M583.35,516.1H475.68a3.88,3.88,0,0,1-3.88-3.88V447.09a3.88,3.88,0,0,1,3.88-3.88H583.35a3.88,3.88,0,0,1,2.73,6.64l-30.14,29.81,30.14,29.81a3.87,3.87,0,0,1-2.73,6.63Zm-103.79-7.75h94.36L547.7,482.41a3.88,3.88,0,0,1,0-5.51L573.92,451H479.56Z"/><path class="cls-4" d="M210.31,516.1H102.63a3.87,3.87,0,0,1-2.72-6.63l30.14-29.81L99.91,449.85a3.87,3.87,0,0,1,2.72-6.63H210.31a3.88,3.88,0,0,1,3.88,3.87v65.14a3.88,3.88,0,0,1-3.88,3.87Zm-98.24-7.75h94.36V451H112.07l26.22,25.93a3.88,3.88,0,0,1,0,5.51Z"/><path class="cls-4" d="M210.31,516.1a4,4,0,0,1-1.86-.47l-59.58-32.57a3.88,3.88,0,0,1,1.86-7.28h59.58a3.88,3.88,0,0,1,3.88,3.88v32.56a3.87,3.87,0,0,1-3.88,3.88ZM165.9,483.53l40.53,22.16V483.53Z"/><path class="cls-4" d="M475.68,516.1a3.87,3.87,0,0,1-3.88-3.88V479.66a3.88,3.88,0,0,1,3.88-3.88h59.58a3.88,3.88,0,0,1,1.86,7.28l-59.58,32.57A4,4,0,0,1,475.68,516.1Zm3.88-32.57v22.16l40.52-22.16Z"/><path class="cls-5" d="M150.73,414.52H535.26v65.14H150.73Z"/><path class="cls-4" d="M535.26,483.53H150.73a3.88,3.88,0,0,1-3.88-3.87V414.52a3.88,3.88,0,0,1,3.88-3.87H535.26a3.88,3.88,0,0,1,3.88,3.87v65.14a3.88,3.88,0,0,1-3.88,3.87Zm-380.65-7.75H531.38V418.4H154.61Z"/></g></g></svg>