<svg xmlns="http://www.w3.org/2000/svg" viewBox="0 0 63.07 39.97"><defs><style>.cls-1{fill:#ebe7f2;}.cls-2{fill:#00405c;}.cls-3{fill:#4dbdeb;}</style></defs><g id="Layer_2" data-name="Layer 2"><g id="Layer_1-2" data-name="Layer 1"><path class="cls-1" d="M9,28.57H54.07v2.54H9Z"/><path class="cls-2" d="M5.23,32.81a.71.71,0,0,0,.71-.71v-30a.71.71,0,0,1,.71-.71H56.43a.7.7,0,0,1,.7.71v30a.71.71,0,0,0,1.42,0v-30A2.13,2.13,0,0,0,56.43,0H6.65A2.12,2.12,0,0,0,4.53,2.12v30A.7.7,0,0,0,5.23,32.81Z"/><path class="cls-2" d="M9,3.54a.7.7,0,0,0-.7.7V31.11a.7.7,0,0,0,.7.71H54.07a.71.71,0,0,0,.71-.71V4.24a.7.7,0,0,0-.71-.7ZM53.36,30.4H9.71V5H53.36V30.4Z"/><path class="cls-2" d="M60.05,33.94H3a3,3,0,1,0,0,6h57a3,3,0,0,0,0-6Zm0,4.62H3a1.61,1.61,0,1,1,0-3.21h57a1.61,1.61,0,0,1,0,3.21Z"/><path class="cls-3" d="M38.56,15.15l-1.17-.3.61-1a1.39,1.39,0,0,0-.22-1.69L36.69,11A1.39,1.39,0,0,0,35,10.81l-1,.61-.3-1.17a1.4,1.4,0,0,0-1.35-1H30.76a1.38,1.38,0,0,0-1.34,1l-.31,1.17-1-.61a1.39,1.39,0,0,0-1.69.21l-1.09,1.1a1.38,1.38,0,0,0-.22,1.68l.62,1-1.18.3a1.39,1.39,0,0,0-1,1.35v1.55a1.39,1.39,0,0,0,1,1.34l1.18.3-.62,1a1.38,1.38,0,0,0,.22,1.68l1.09,1.1a1.38,1.38,0,0,0,1.69.21l1-.61.31,1.17a1.37,1.37,0,0,0,1.34,1h1.55a1.37,1.37,0,0,0,1.34-1L34,23.12l1,.61a1.38,1.38,0,0,0,1.69-.21l1.09-1.1A1.38,1.38,0,0,0,38,20.74l-.61-1,1.17-.3a1.39,1.39,0,0,0,1-1.34V16.5a1.39,1.39,0,0,0-1-1.35ZM38.18,18l-2,.52a.73.73,0,0,0-.54.42.72.72,0,0,0,.08.68l1.05,1.79L35.7,22.51l-1.78-1.06a.72.72,0,0,0-.68-.07.69.69,0,0,0-.43.53l-.52,2H30.78l-.52-2a.69.69,0,0,0-.43-.53.7.7,0,0,0-.67.07l-1.79,1.06L26.3,21.44l1.05-1.79a.72.72,0,0,0,.08-.68.69.69,0,0,0-.53-.42l-2-.52V16.52l2-.52a.7.7,0,0,0,.54-.43.72.72,0,0,0-.08-.68L26.3,13.1,27.37,12l1.78,1.05a.72.72,0,0,0,1.11-.46l.52-2h1.51l.52,2a.72.72,0,0,0,.43.54.7.7,0,0,0,.67-.08L35.7,12l1.07,1.06-1.05,1.79a.72.72,0,0,0-.08.68.73.73,0,0,0,.54.43l2,.52V18Z"/><path class="cls-3" d="M31.54,14.06a3.21,3.21,0,1,0,3.21,3.21A3.22,3.22,0,0,0,31.54,14.06Zm0,5a1.8,1.8,0,1,1,1.79-1.8A1.81,1.81,0,0,1,31.54,19.07Z"/></g></g></svg>