<svg xmlns="http://www.w3.org/2000/svg" viewBox="0 0 75.1 47.59"><defs><style>.cls-1{fill:#4dbdeb;}.cls-2{fill:#ebe7f2;}.cls-3{fill:#00405c;}</style></defs><g id="Layer_2" data-name="Layer 2"><g id="Layer_1-2" data-name="Layer 1"><path class="cls-1" d="M31.55,17A3.89,3.89,0,0,1,33.72,16a.85.85,0,0,0,.71-1,.82.82,0,0,0-1-.7,5.48,5.48,0,0,0-3.12,1.56l-4.85,4.86a5.56,5.56,0,0,0,7.87,7.87l4.85-4.86a5.48,5.48,0,0,0,1.55-3,.84.84,0,1,0-1.66-.28A3.81,3.81,0,0,1,37,22.53l-4.85,4.86A3.88,3.88,0,0,1,26.7,21.9Z"/><path class="cls-1" d="M42.63,18a.84.84,0,1,0-1.65.35,6.82,6.82,0,0,1-1.85,6.25l-4.85,4.85a6.83,6.83,0,1,1-9.67-9.66L29.47,15A6.84,6.84,0,0,1,36,13.18a.84.84,0,0,0,1-.61.83.83,0,0,0-.6-1,8.55,8.55,0,0,0-8.17,2.21l-4.86,4.86a8.52,8.52,0,0,0,12,12.05l4.85-4.86A8.49,8.49,0,0,0,42.63,18Z"/><path class="cls-1" d="M43.54,24.84a3.87,3.87,0,0,1-2,1.07.84.84,0,0,0,.16,1.66h.16A5.51,5.51,0,0,0,44.73,26l4.86-4.85a5.56,5.56,0,0,0-7.87-7.87l-4.86,4.85a5.64,5.64,0,0,0-1.44,2.49.84.84,0,1,0,1.63.43,3.83,3.83,0,0,1,1-1.73l4.86-4.85A3.88,3.88,0,1,1,48.4,20Z"/><path class="cls-1" d="M51.67,11.22a8.52,8.52,0,0,0-12,0l-4.86,4.85A8.51,8.51,0,0,0,32.49,24a.85.85,0,0,0,1,.64.83.83,0,0,0,.63-1A6.83,6.83,0,0,1,36,17.26l4.86-4.85a6.83,6.83,0,0,1,9.66,9.66l-4.85,4.86a6.83,6.83,0,0,1-6.42,1.81.84.84,0,1,0-.38,1.64,8.53,8.53,0,0,0,8-2.26l4.85-4.85a8.53,8.53,0,0,0,0-12Z"/><path class="cls-2" d="M10.72,34H64.38v3H10.72Z"/><path class="cls-3" d="M6.23,39.06a.84.84,0,0,0,.84-.84V2.53a.85.85,0,0,1,.84-.85H67.18a.84.84,0,0,1,.84.85V38.22a.85.85,0,0,0,1.69,0V2.53A2.53,2.53,0,0,0,67.18,0H7.91A2.52,2.52,0,0,0,5.39,2.53V38.22A.83.83,0,0,0,6.23,39.06Z"/><path class="cls-3" d="M10.72,4.21a.84.84,0,0,0-.84.84V37a.83.83,0,0,0,.84.84H64.38a.84.84,0,0,0,.84-.84v-32a.85.85,0,0,0-.84-.84Zm52.81,32h-52V5.89h52V36.2Z"/><path class="cls-3" d="M71.5,40.41H3.59a3.59,3.59,0,0,0,0,7.18H71.5a3.59,3.59,0,1,0,0-7.18Zm0,5.5H3.59a1.91,1.91,0,0,1,0-3.82H71.5a1.91,1.91,0,0,1,0,3.82Z"/></g></g></svg>