<svg xmlns="http://www.w3.org/2000/svg" viewBox="0 0 80 80"><defs><style>.cls-1{fill:#4dbdeb;}.cls-2{fill:#ffd262;}</style></defs><g id="Layer_2" data-name="Layer 2"><g id="Layer_1-2" data-name="Layer 1"><g id="Calendar"><path class="cls-1" d="M73.33,8H66.67V5.33A5.34,5.34,0,0,0,56,5.33V8H45.33V5.33a5.33,5.33,0,1,0-10.66,0V8H24V5.33a5.34,5.34,0,0,0-10.67,0V8H6.67A6.66,6.66,0,0,0,0,14.67V68a6.67,6.67,0,0,0,6.67,6.67H44A1.34,1.34,0,0,0,44,72H6.67a4,4,0,0,1-4-4V26.67H77.33V49.33a1.34,1.34,0,1,0,2.67,0V14.67A6.66,6.66,0,0,0,73.33,8ZM58.67,5.33a2.67,2.67,0,0,1,5.33,0v8a2.67,2.67,0,1,1-5.33,0Zm-21.34,0a2.67,2.67,0,0,1,5.34,0v8a2.67,2.67,0,0,1-5.34,0ZM16,5.33a2.67,2.67,0,0,1,5.33,0v8a2.67,2.67,0,1,1-5.33,0ZM77.33,24H2.67V14.67a4,4,0,0,1,4-4h6.66v2.66a5.34,5.34,0,1,0,10.67,0V10.67H34.67v2.66a5.33,5.33,0,1,0,10.66,0V10.67H56v2.66a5.34,5.34,0,1,0,10.67,0V10.67h6.66a4,4,0,0,1,4,4Z"/><path class="cls-1" d="M37.33,36a2.67,2.67,0,0,0-2.66-2.67H29.33A2.67,2.67,0,0,0,26.67,36v4a2.67,2.67,0,0,0,2.66,2.67h5.34A2.67,2.67,0,0,0,37.33,40Zm-8,4V36h5.34v4Z"/><path class="cls-1" d="M21.33,36a2.67,2.67,0,0,0-2.66-2.67H13.33A2.67,2.67,0,0,0,10.67,36v4a2.67,2.67,0,0,0,2.66,2.67h5.34A2.67,2.67,0,0,0,21.33,40Zm-8,4V36h5.34v4Z"/><path class="cls-1" d="M66.67,42.67A2.67,2.67,0,0,0,69.33,40V36a2.67,2.67,0,0,0-2.66-2.67H61.33A2.67,2.67,0,0,0,58.67,36v4a2.67,2.67,0,0,0,2.66,2.67ZM61.33,36h5.34v4H61.33Z"/><path class="cls-1" d="M37.33,48a2.67,2.67,0,0,0-2.66-2.67H29.33A2.67,2.67,0,0,0,26.67,48v4a2.67,2.67,0,0,0,2.66,2.67h5.34A2.67,2.67,0,0,0,37.33,52Zm-8,4V48h5.34v4Z"/><path class="cls-1" d="M21.33,48a2.67,2.67,0,0,0-2.66-2.67H13.33A2.67,2.67,0,0,0,10.67,48v4a2.67,2.67,0,0,0,2.66,2.67h5.34A2.67,2.67,0,0,0,21.33,52Zm-8,4V48h5.34v4Z"/><path class="cls-1" d="M34.67,57.33H29.33A2.67,2.67,0,0,0,26.67,60v4a2.67,2.67,0,0,0,2.66,2.67h5.34A2.67,2.67,0,0,0,37.33,64V60A2.67,2.67,0,0,0,34.67,57.33ZM29.33,64V60h5.34v4Z"/><path class="cls-1" d="M45.33,42.67h5.34A2.67,2.67,0,0,0,53.33,40V36a2.67,2.67,0,0,0-2.66-2.67H45.33A2.67,2.67,0,0,0,42.67,36v4A2.67,2.67,0,0,0,45.33,42.67Zm0-6.67h5.34v4H45.33Z"/><path class="cls-1" d="M42.67,52a2.67,2.67,0,0,0,2.66,2.67,1.34,1.34,0,1,0,0-2.67V48h5.34a1.34,1.34,0,0,0,0-2.67H45.33A2.67,2.67,0,0,0,42.67,48Z"/><path class="cls-1" d="M18.67,57.33H13.33A2.67,2.67,0,0,0,10.67,60v4a2.67,2.67,0,0,0,2.66,2.67h5.34A2.67,2.67,0,0,0,21.33,64V60A2.67,2.67,0,0,0,18.67,57.33ZM13.33,64V60h5.34v4Z"/><path class="cls-1" d="M62.67,45.33A17.34,17.34,0,1,0,80,62.67,17.34,17.34,0,0,0,62.67,45.33Zm0,32A14.67,14.67,0,1,1,77.33,62.67,14.66,14.66,0,0,1,62.67,77.33Z"/><path class="cls-2" d="M70.37,57.08,60,67.45l-4.71-4.72a1.34,1.34,0,0,0-1.89,1.89l5.66,5.66a1.33,1.33,0,0,0,1.88,0L72.26,59a1.33,1.33,0,0,0-1.89-1.88Z"/></g></g></g></svg>