<svg xmlns="http://www.w3.org/2000/svg" viewBox="0 0 70.61 46.2"><defs><style>.cls-1{fill:#ebe7f2;}.cls-2{fill:#00405c;}.cls-3{fill:#4dbdeb;}.cls-4{fill:#ffd262;}</style></defs><g id="Layer_2" data-name="Layer 2"><g id="Layer_1-2" data-name="Layer 1"><path class="cls-1" d="M33.15,30.59H9.64v2.73H36.23A15.7,15.7,0,0,1,33.15,30.59Z"/><path class="cls-1" d="M66.11,43.12l-7-7a2.24,2.24,0,0,1,0-3.13s0,0,0,0l-1.58,1.58a2.23,2.23,0,0,0,0,3.17l7,7a2.23,2.23,0,0,0,3.17,0L69.2,43.2l0,0A2.23,2.23,0,0,1,66.11,43.12Z"/><path class="cls-1" d="M26.33,14.63a2.08,2.08,0,0,1-.45-1.38,2,2,0,0,0-1.49-2.05,2.06,2.06,0,0,1-1.17-.85,2,2,0,0,0-2.42-.79,2,2,0,0,1-1.44,0,2,2,0,0,0-2.42.79,2.06,2.06,0,0,1-1.17.85,2,2,0,0,0-1.5,2.05,2,2,0,0,1-.44,1.38,2,2,0,0,0,0,2.54,2,2,0,0,1,.44,1.38,2,2,0,0,0,1.5,2.05,2.06,2.06,0,0,1,1.17.85,2,2,0,0,0,2.42.79,2,2,0,0,1,1.44,0,2,2,0,0,0,2.42-.79,2.06,2.06,0,0,1,1.17-.85,2,2,0,0,0,1.49-2.05,2.08,2.08,0,0,1,.45-1.38,2,2,0,0,0,0-2.54Zm-1.7,2.2a1.43,1.43,0,0,0-.32,1,1.49,1.49,0,0,1-1.09,1.5,1.46,1.46,0,0,0-.85.61,1.49,1.49,0,0,1-1.77.58,1.46,1.46,0,0,0-1.05,0,1.48,1.48,0,0,1-1.76-.58,1.46,1.46,0,0,0-.85-.61,1.49,1.49,0,0,1-1.09-1.5,1.48,1.48,0,0,0-.32-1,1.48,1.48,0,0,1,0-1.86,1.48,1.48,0,0,0,.32-1,1.49,1.49,0,0,1,1.09-1.5,1.46,1.46,0,0,0,.85-.61,1.49,1.49,0,0,1,1.76-.58,1.46,1.46,0,0,0,1.05,0,1.5,1.5,0,0,1,1.77.58,1.46,1.46,0,0,0,.85.61A1.49,1.49,0,0,1,24.31,14a1.43,1.43,0,0,0,.32,1A1.48,1.48,0,0,1,24.63,16.83Z"/><path class="cls-1" d="M16.58,26.46v2l3.5-2.83,3.5,2.83v-2L20.2,23.73a.18.18,0,0,0-.24,0Z"/><path class="cls-2" d="M61.94,24.65a.76.76,0,0,0-.76.76V30a.76.76,0,0,0,.76.75.75.75,0,0,0,.75-.75V25.41A.75.75,0,0,0,61.94,24.65Z"/><path class="cls-2" d="M5.6,35.13a.76.76,0,0,0,.76-.75V2.27a.76.76,0,0,1,.76-.76h53.3a.76.76,0,0,1,.76.76V16.15a.75.75,0,0,0,.76.75.74.74,0,0,0,.75-.75V2.27A2.27,2.27,0,0,0,60.42,0H7.12A2.27,2.27,0,0,0,4.85,2.27V34.38A.75.75,0,0,0,5.6,35.13Z"/><path class="cls-2" d="M57.9,8.76A.76.76,0,0,0,58.66,8V4.54a.75.75,0,0,0-.76-.75H53a.74.74,0,0,0-.75.75A.75.75,0,0,0,53,5.3h4.14V8a.76.76,0,0,0,.76.76Z"/><path class="cls-2" d="M37.61,4.54a.75.75,0,0,0-.76-.75H9.64a.75.75,0,0,0-.76.75V33.32a.76.76,0,0,0,.76.75H32.18a.76.76,0,1,0,0-1.51H10.4V5.3H36.85a.76.76,0,0,0,.76-.76Z"/><path class="cls-2" d="M50.2,36.34a.76.76,0,1,0,0,1.52h4a.76.76,0,0,0,0-1.52Z"/><path class="cls-2" d="M58.23,41.29h-55a1.72,1.72,0,1,1,0-3.43H37.9a.76.76,0,0,0,0-1.52H3.23a3.24,3.24,0,0,0,0,6.47h55a.76.76,0,0,0,0-1.52Z"/><path class="cls-2" d="M69.74,39.49l-7-7a3,3,0,0,0-2.12-.88,3,3,0,0,0-2.12.88L57,34.12a3,3,0,0,0-.88,2.12A3,3,0,0,0,57,38.36l7,7a3,3,0,0,0,4.24,0l1.59-1.59A3,3,0,0,0,69.74,39.49Zm-1.07,3.17-1.59,1.59a1.47,1.47,0,0,1-1,.43,1.48,1.48,0,0,1-1-.43l-7-7a1.48,1.48,0,0,1,0-2.09l1.59-1.59a1.48,1.48,0,0,1,1-.43,1.44,1.44,0,0,1,1,.43l7,7a1.48,1.48,0,0,1,0,2.1Z"/><path class="cls-2" d="M44.86,4.18a16.26,16.26,0,0,0,0,32.52A16.12,16.12,0,0,0,54,33.86l.56.56a.76.76,0,1,0,1.07-1.07l-1-1a.76.76,0,0,0-1-.08,14.73,14.73,0,1,1,3-3,.76.76,0,0,0,.08,1l1,1a.76.76,0,1,0,1.07-1.07l-.56-.56a16.12,16.12,0,0,0,2.84-9.18A16.28,16.28,0,0,0,44.86,4.18Z"/><path class="cls-2" d="M44.86,8.18A12.27,12.27,0,1,0,57.13,20.44,12.27,12.27,0,0,0,44.86,8.18Zm0,23A10.75,10.75,0,1,1,55.61,20.44,10.76,10.76,0,0,1,44.86,31.19Z"/><path class="cls-3" d="M51.6,19.85H49.93a.77.77,0,0,0-.69.44l-1.92,4.3-1.76-4.27h0l-2.42-5.91a.78.78,0,0,0-.69-.47.76.76,0,0,0-.7.45L39.3,19.85H38.12a.76.76,0,0,0,0,1.51h1.67a.74.74,0,0,0,.69-.45l1.93-4.29,1.75,4.27h0l2.42,5.91a.78.78,0,0,0,.69.47h0a.78.78,0,0,0,.7-.45l2.44-5.46H51.6a.76.76,0,1,0,0-1.51Z"/><path class="cls-2" d="M26.92,14.15a1.27,1.27,0,0,1-.28-.86,2.79,2.79,0,0,0-2.05-2.82,1.33,1.33,0,0,1-.74-.54,2.81,2.81,0,0,0-3.32-1.08,1.27,1.27,0,0,1-.9,0A2.82,2.82,0,0,0,16.3,9.93a1.28,1.28,0,0,1-.73.54,2.79,2.79,0,0,0-2.05,2.82,1.33,1.33,0,0,1-.28.86,2.8,2.8,0,0,0,0,3.5,1.33,1.33,0,0,1,.28.86,2.8,2.8,0,0,0,2.05,2.83,1.06,1.06,0,0,1,.25.09v7a.76.76,0,0,0,1.23.59l3-2.44,3,2.44a.73.73,0,0,0,.47.17.8.8,0,0,0,.33-.08.75.75,0,0,0,.43-.68v-7a1.06,1.06,0,0,1,.25-.09,2.81,2.81,0,0,0,2.05-2.83,1.22,1.22,0,0,1,.28-.86,2.8,2.8,0,0,0,0-3.5ZM20.55,25a.77.77,0,0,0-.95,0l-2.27,1.84V22.8a2.9,2.9,0,0,0,1.32.33,2.83,2.83,0,0,0,1-.18,1.27,1.27,0,0,1,.9,0,2.77,2.77,0,0,0,2.29-.15v4.05Zm5.19-8.31a2.73,2.73,0,0,0-.61,1.88,1.27,1.27,0,0,1-.94,1.29A2.79,2.79,0,0,0,22.59,21a1.28,1.28,0,0,1-1.52.49,2.81,2.81,0,0,0-2,0A1.28,1.28,0,0,1,17.57,21,2.79,2.79,0,0,0,16,19.87,1.26,1.26,0,0,1,15,18.58a2.78,2.78,0,0,0-.61-1.88,1.27,1.27,0,0,1,0-1.6A2.78,2.78,0,0,0,15,13.22,1.26,1.26,0,0,1,16,11.93a2.79,2.79,0,0,0,1.6-1.17,1.29,1.29,0,0,1,1.07-.57,1.19,1.19,0,0,1,.45.08,2.81,2.81,0,0,0,2,0,1.28,1.28,0,0,1,1.52.49,2.79,2.79,0,0,0,1.6,1.17,1.27,1.27,0,0,1,.94,1.29,2.73,2.73,0,0,0,.61,1.88A1.29,1.29,0,0,1,25.74,16.7Z"/><path class="cls-4" d="M22.74,15.58l-1.18.86a.3.3,0,0,0-.11.34l.45,1.39a.3.3,0,0,1-.46.34l-1.18-.86a.3.3,0,0,0-.36,0l-1.18.86a.3.3,0,0,1-.46-.34l.45-1.39a.32.32,0,0,0-.11-.34l-1.18-.86a.3.3,0,0,1,.17-.54h1.46a.29.29,0,0,0,.29-.21l.45-1.39a.31.31,0,0,1,.58,0l.45,1.39a.29.29,0,0,0,.28.21h1.47A.3.3,0,0,1,22.74,15.58Z"/></g></g></svg>