<svg xmlns="http://www.w3.org/2000/svg" viewBox="0 0 55.43 70.98"><defs><style>.cls-1{fill:#ebe7f2;}.cls-2{fill:#4dbdeb;}.cls-3{fill:#00405c;}</style></defs><g id="Layer_2" data-name="Layer 2"><g id="Layer_1-2" data-name="Layer 1"><path class="cls-1" d="M31.21,64.05c0,1.93-3.5,6.09-3.5,6.09S24.22,66,24.22,64.05a3.5,3.5,0,0,1,7,0Z"/><path class="cls-1" d="M.84,40.91H12.49v3.48H.84Z"/><path class="cls-1" d="M42.94,40.91H54.59v3.48H42.94Z"/><path class="cls-1" d="M19.14,52.88H36.29V56.2H19.14Z"/><path class="cls-2" d="M27.71,23.57a4.81,4.81,0,1,1,4.82-4.81A4.82,4.82,0,0,1,27.71,23.57Zm0-8a3.14,3.14,0,1,0,3.14,3.14A3.15,3.15,0,0,0,27.71,15.62Z"/><path class="cls-3" d="M30.22.93a3.84,3.84,0,0,0-5,0,28.19,28.19,0,0,0-9.93,21.5v26.4a.83.83,0,0,0,.83.83h23.2a.83.83,0,0,0,.84-.83V22.43A28.19,28.19,0,0,0,30.22.93ZM38.48,48H17V22.43A26.56,26.56,0,0,1,26.29,2.2a2.18,2.18,0,0,1,2.84,0,26.54,26.54,0,0,1,9.35,20.23Z"/><path class="cls-3" d="M36.29,51.62a.83.83,0,0,0-.83.83v2.91H20V52.45a.84.84,0,0,0-1.67,0V56.2a.83.83,0,0,0,.84.83h4.69a5.86,5.86,0,0,0-2,4.37c0,3,4.68,8.64,5.21,9.28a.85.85,0,0,0,.64.3.82.82,0,0,0,.64-.3c.54-.64,5.21-6.3,5.21-9.28a5.86,5.86,0,0,0-2-4.37h4.69a.84.84,0,0,0,.84-.83V52.45A.84.84,0,0,0,36.29,51.62Zm-4.4,9.77c0,1.6-2.35,5.11-4.18,7.43-1.83-2.32-4.17-5.83-4.17-7.43a4.18,4.18,0,0,1,8.35,0Z"/><path class="cls-3" d="M12.49,43.55H1.67v-7.2l11.22-6.06a.84.84,0,0,0-.8-1.47L.44,35.12a.85.85,0,0,0-.44.74v8.53a.83.83,0,0,0,.84.83H12.49a.84.84,0,0,0,.84-.83.85.85,0,0,0-.84-.84Z"/><path class="cls-3" d="M55,35.12l-11.65-6.3a.84.84,0,1,0-.8,1.47l11.22,6.06v7.2H42.94a.84.84,0,1,0,0,1.67H54.59a.84.84,0,0,0,.84-.83V35.86a.85.85,0,0,0-.44-.74Z"/><path class="cls-3" d="M27.71,28.72a.84.84,0,0,0-.83.84V44.39a.84.84,0,0,0,1.67,0V29.56a.84.84,0,0,0-.84-.84Z"/></g></g></svg>