<svg xmlns="http://www.w3.org/2000/svg" viewBox="0 0 68.5 62.51"><defs><style>.cls-1{fill:#ebe7f2;}.cls-2{fill:#4dbdeb;}.cls-3{fill:#00405c;}</style></defs><g id="Layer_2" data-name="Layer 2"><g id="Layer_1-2" data-name="Layer 1"><path class="cls-1" d="M29.21,31.26A12.76,12.76,0,0,1,16.6,20.48a12.08,12.08,0,0,0-.16,2,12.77,12.77,0,1,0,25.53,0,13.27,13.27,0,0,0-.15-2A12.77,12.77,0,0,1,29.21,31.26Z"/><path class="cls-2" d="M32.54,23.15a5,5,0,0,0-1.2-.81c-.44-.2-.94-.4-1.47-.58a8.14,8.14,0,0,1-1.26-.51,2.77,2.77,0,0,1-.68-.47,1.1,1.1,0,0,1-.28-.43,2.33,2.33,0,0,1-.08-.62,1.76,1.76,0,0,1,.11-.66,1.28,1.28,0,0,1,.31-.5,1.63,1.63,0,0,1,.56-.35,2.57,2.57,0,0,1,.89-.13,2.09,2.09,0,0,1,.83.15,1.54,1.54,0,0,1,.57.43,1.93,1.93,0,0,1,.36.68,3.16,3.16,0,0,1,.14.95.61.61,0,0,0,.61.61h1a.61.61,0,0,0,.62-.61,5.5,5.5,0,0,0-.24-1.68,3.86,3.86,0,0,0-.71-1.33,3.52,3.52,0,0,0-1.16-.9,5.38,5.38,0,0,0-.51-.2.61.61,0,0,1-.43-.58v-.67a.62.62,0,0,0-.61-.62H29a.62.62,0,0,0-.61.62v.65a.62.62,0,0,1-.43.59,3.24,3.24,0,0,0-.47.16,3.81,3.81,0,0,0-1.16.78,3.35,3.35,0,0,0-.75,1.17,4,4,0,0,0-.26,1.45,3.83,3.83,0,0,0,.28,1.53,3.23,3.23,0,0,0,.82,1.15,4.92,4.92,0,0,0,1.21.81,10.9,10.9,0,0,0,1.48.57,8.72,8.72,0,0,1,1.18.5,3.06,3.06,0,0,1,.69.47,1.27,1.27,0,0,1,.3.45,1.57,1.57,0,0,1,.1.6,1.53,1.53,0,0,1-.13.64,1.4,1.4,0,0,1-.36.51,1.88,1.88,0,0,1-.64.36,2.76,2.76,0,0,1-.91.14,3.15,3.15,0,0,1-.85-.11,1.77,1.77,0,0,1-.69-.33,1.93,1.93,0,0,1-.5-.64,2.42,2.42,0,0,1-.19-1.06.62.62,0,0,0-.62-.61h-1a.61.61,0,0,0-.61.61,4.82,4.82,0,0,0,.34,1.88,3.77,3.77,0,0,0,.94,1.31,3.88,3.88,0,0,0,1.33.75,2.77,2.77,0,0,0,.41.12.62.62,0,0,1,.46.6v.51a.61.61,0,0,0,.61.62h.83a.62.62,0,0,0,.62-.62V30a.61.61,0,0,1,.44-.59,3.86,3.86,0,0,0,.48-.16,3.72,3.72,0,0,0,1.2-.76,3.34,3.34,0,0,0,.78-1.17,3.89,3.89,0,0,0,.27-1.47,4,4,0,0,0-.28-1.52,3.29,3.29,0,0,0-.82-1.14Z"/><path class="cls-2" d="M34.21,9.72l2.27-8.54a.94.94,0,0,0-.17-.81A.93.93,0,0,0,35.57,0H22.84a.91.91,0,0,0-.74.37.91.91,0,0,0-.16.81l2.27,8.54a13.7,13.7,0,1,0,10,0ZM24.06,1.87h4.21v3.3a.94.94,0,1,0,1.87,0V1.87h4.22l-1.94,7.3a16,16,0,0,0-3.27-.33A14.41,14.41,0,0,0,26,9.19Zm5.15,32.44a11.83,11.83,0,0,1-3.77-23h.06a13.19,13.19,0,0,1,7.3,0,11.83,11.83,0,0,1-3.59,23.1Z"/><path class="cls-1" d="M15,46.56l4.62,15H23l-4.62-15Z"/><path class="cls-1" d="M59.42,34v7.49a8.15,8.15,0,0,0,8.15-8.15V33a8.09,8.09,0,0,0-.83-3.58A8.16,8.16,0,0,1,59.42,34Z"/><path class="cls-1" d="M.94,33v3.74A2.21,2.21,0,0,0,3.15,39h6V35.21h-6A2.21,2.21,0,0,1,.94,33Z"/><path class="cls-1" d="M56.86,49.53,28.46,39.07H11.07a1.9,1.9,0,0,1-1.9-1.89v7.48a1.9,1.9,0,0,0,1.9,1.9H28.46L56.86,57a1.91,1.91,0,0,0,2.56-1.79V47.75A1.9,1.9,0,0,1,56.86,49.53Z"/><path class="cls-3" d="M60.35,24V11.07a2.83,2.83,0,0,0-3.81-2.66L43.62,13.16a.94.94,0,1,0,.64,1.76l12.93-4.76a.93.93,0,0,1,.88.12,1,1,0,0,1,.41.79V55.23a1,1,0,0,1-.41.79.93.93,0,0,1-.88.12L28.62,45.64H11.07a1,1,0,0,1-1-1v-23a1,1,0,0,1,1-1h1.78a.94.94,0,1,0,0-1.87H11.07a2.84,2.84,0,0,0-2.84,2.84v4.77H3.15A3.15,3.15,0,0,0,0,29.55v7.19a3.15,3.15,0,0,0,3.15,3.15H8.23v4.77a2.84,2.84,0,0,0,2.83,2.84h3.26l4.42,14.35a.93.93,0,0,0,.89.66H24.9a.92.92,0,0,0,.72-.34,1,1,0,0,0,.21-.76L23.39,47.5h4.9L56.54,57.89a2.78,2.78,0,0,0,1,.18,2.88,2.88,0,0,0,1.62-.51,2.84,2.84,0,0,0,1.21-2.33V42.34a9.09,9.09,0,0,0,8.15-9V33a9.1,9.1,0,0,0-8.15-9ZM3.15,38a1.28,1.28,0,0,1-1.28-1.28V29.55a1.27,1.27,0,0,1,1.28-1.27H8.23V38ZM23.79,60.64H20.33l-4-13.14h5.21ZM66.63,33.31a7.22,7.22,0,0,1-6.28,7.15V25.84A7.22,7.22,0,0,1,66.63,33Z"/></g></g></svg>