<svg xmlns="http://www.w3.org/2000/svg" viewBox="0 0 62.83 42.04"><defs><style>.cls-1{fill:#ebe7f2;}.cls-2{fill:#4dbdeb;}.cls-3{fill:#00405c;}</style></defs><g id="Layer_2" data-name="Layer 2"><g id="Layer_1-2" data-name="Layer 1"><path class="cls-1" d="M58.87,17v8a1,1,0,1,1-2,0V17a1,1,0,0,1,2,0Z"/><path class="cls-1" d="M29.45,34.19a.73.73,0,0,1-.73-.73V8.87a.73.73,0,0,1,.73-.73.73.73,0,0,1,.72.73V33.46A.73.73,0,0,1,29.45,34.19Z"/><path class="cls-2" d="M24.54,16H10.12a.58.58,0,0,1-.58-.58V9.89a.58.58,0,0,1,.58-.58H24.54a.58.58,0,0,1,.58.58v5.54A.58.58,0,0,1,24.54,16Z"/><path class="cls-3" d="M60.22,0H2.61A2.61,2.61,0,0,0,0,2.61V39.44A2.6,2.6,0,0,0,2.61,42H60.22a2.6,2.6,0,0,0,2.61-2.6V2.61A2.61,2.61,0,0,0,60.22,0Zm1.15,39.44a1.15,1.15,0,0,1-1.15,1.15H2.61a1.16,1.16,0,0,1-1.16-1.15V2.61A1.16,1.16,0,0,1,2.61,1.45H60.22a1.15,1.15,0,0,1,1.15,1.16V39.44Z"/><path class="cls-3" d="M53,4.84H6A1.48,1.48,0,0,0,4.54,6.32V35.73A1.48,1.48,0,0,0,6,37.21H53a1.39,1.39,0,0,0,1.39-1.39V6.23A1.39,1.39,0,0,0,53,4.84ZM52.9,35.75H6s0,0,0,0V6.32a0,0,0,0,1,0,0H52.9V35.75Z"/><path class="cls-3" d="M33.93,11.2H48.16a.73.73,0,0,0,0-1.46H33.93a.73.73,0,1,0,0,1.46Z"/><path class="cls-3" d="M33.93,14.68H48.16a.73.73,0,1,0,0-1.45H33.93a.73.73,0,1,0,0,1.45Z"/><path class="cls-3" d="M33.93,18.17H48.16a.73.73,0,1,0,0-1.46H33.93a.73.73,0,0,0,0,1.46Z"/><path class="cls-3" d="M33.93,23.86H48.16a.73.73,0,0,0,.73-.73.73.73,0,0,0-.73-.72H33.93a.73.73,0,0,0-.73.72A.73.73,0,0,0,33.93,23.86Z"/><path class="cls-3" d="M33.93,27.34H48.16a.73.73,0,0,0,.73-.72.73.73,0,0,0-.73-.73H33.93a.73.73,0,0,0-.73.73A.73.73,0,0,0,33.93,27.34Z"/><path class="cls-3" d="M33.93,30.83H48.16a.73.73,0,0,0,.73-.73.73.73,0,0,0-.73-.72H33.93a.73.73,0,0,0-.73.72A.73.73,0,0,0,33.93,30.83Z"/><path class="cls-3" d="M10.21,23.86H24.44a.73.73,0,0,0,.73-.73.73.73,0,0,0-.73-.72H10.21a.72.72,0,0,0-.72.72A.73.73,0,0,0,10.21,23.86Z"/><path class="cls-3" d="M10.21,27.34H24.44a.73.73,0,0,0,.73-.72.73.73,0,0,0-.73-.73H10.21a.73.73,0,0,0-.72.73A.72.72,0,0,0,10.21,27.34Z"/><path class="cls-3" d="M10.21,30.83H24.44a.73.73,0,0,0,.73-.73.73.73,0,0,0-.73-.72H10.21a.72.72,0,0,0-.72.72A.73.73,0,0,0,10.21,30.83Z"/><path class="cls-3" d="M10.41,19.38h5.51a.73.73,0,1,0,0-1.46H10.41a.73.73,0,1,0,0,1.46Z"/></g></g></svg>