<svg xmlns="http://www.w3.org/2000/svg" viewBox="0 0 287.42 343.42"><defs><style>.cls-1{fill:#fff;}.cls-2,.cls-3{fill:#1e2c41;}.cls-2{opacity:0.81;}.cls-4{fill:none;stroke:#1e2c41;stroke-miterlimit:10;}.cls-5{fill:#1d2e42;}.cls-6{fill:#192838;}</style></defs><g id="Layer_2" data-name="Layer 2"><g id="Layer_1-2" data-name="Layer 1"><path class="cls-1" d="M79.92,145.46s-23.18-6.74-7.15,25.82c0,0,5,5.48,4.75,11.74,0,0,2.09,9.66,10.57,8.77a76.55,76.55,0,0,0,11.39,28.54S99,287.69,144.92,343.42c0,0,44.69-85.41,46-124.74a49.54,49.54,0,0,0,11-27.38s5.6,5.31,11.24-10.55c0,0,6.76-17.27,14-35.48Z"/><path class="cls-2" d="M201.09,191.07s6.65,3.61,10.11-3.83l2.59-9.08,5.63-11.29-16.81,2.69Z"/><path class="cls-3" d="M90.75,168.3c-1.18,2.55-1.83,6.83-2.44,9.64-.55-3.35-1.93-8-2.1-11.37a5.46,5.46,0,0,1,.49-2.91c.87-1.57,2.74-1.85,4.32-1.59,1.17.2,3.07.25,4.1.87-.71.82-1.74,1.38-2.48,2.28A15,15,0,0,0,90.75,168.3Z"/><path class="cls-4" d="M144.92,80.08V80h-14a44.72,44.72,0,0,0-44.7,46L88,189a44.45,44.45,0,0,0,3,14.94l1.56,4a44.75,44.75,0,0,0,16.27,20.6l23.64,16.31a21.5,21.5,0,0,0,24.45,0l23.48-16.3a44.71,44.71,0,0,0,16.23-20.64l1.55-4a44.75,44.75,0,0,0,3-14.94l1.64-63A44.72,44.72,0,0,0,158,80Z"/><path class="cls-3" d="M79.92,160.16s6.38,21.91,8.67,34.18l-.93-35.47Z"/><path class="cls-3" d="M212.7,158.18a13.8,13.8,0,0,1,3-.68A5.87,5.87,0,0,1,219,158a4.47,4.47,0,0,1,2.23,2.76,7.39,7.39,0,0,1,.08,3.43,18.46,18.46,0,0,1-2.42,5.87c-1,1.78-2.18,3.43-3.07,5.18a21.38,21.38,0,0,0-1.91,5.56,30,30,0,0,1-1.75,5.94,9.74,9.74,0,0,1-4.18,4.74,6.66,6.66,0,0,1-3.1.73,4.74,4.74,0,0,1-2.94-.94,6.36,6.36,0,0,0,5.58-.63,9.19,9.19,0,0,0,3.48-4.41,33.28,33.28,0,0,0,1.49-5.74,26.3,26.3,0,0,1,1.81-6c1.67-3.81,4-7.21,5-10.76a6.24,6.24,0,0,0,.2-2.59,3.18,3.18,0,0,0-1.23-2,5.44,5.44,0,0,0-2.58-.89A23,23,0,0,0,212.7,158.18Z"/><path class="cls-3" d="M210,160.16s-6.37,21.91-8.66,34.18l.93-35.47Z"/><path class="cls-3" d="M76.35,169.22A10,10,0,0,1,74.12,166a8.37,8.37,0,0,1-.78-3.9,6.8,6.8,0,0,1,.13-1l.28-1a7.17,7.17,0,0,1,1-1.73A8.11,8.11,0,0,1,76.22,157a15.87,15.87,0,0,1,1.69-1c-.44.48-1,.85-1.36,1.33a9.61,9.61,0,0,0-1.12,1.46,6.51,6.51,0,0,0-1.1,3.34,10.17,10.17,0,0,0,.51,3.56A19.84,19.84,0,0,0,76.35,169.22Z"/><path class="cls-3" d="M81.53,165.86a17.85,17.85,0,0,1-.12,6.44,15,15,0,0,0-.78,3.07,4.16,4.16,0,0,0,1.28,3.16,14.62,14.62,0,0,1,.56-4.51c.14-.48.36-1,.84-1.18s1.23.31,1.61.72c.37-1.2-.55-2.61-1-3.65S82,167,81.53,165.86Z"/><path class="cls-3" d="M82.83,176.08a10.86,10.86,0,0,0,2.09,6.37c.17.2.37.39.58.33.36-.1.38-.78.32-1.28a47.64,47.64,0,0,0-1.5-7.77C83.15,169.94,82.75,174.12,82.83,176.08Z"/><path class="cls-3" d="M208.22,165.86a17.63,17.63,0,0,0,.11,6.44,15,15,0,0,1,.78,3.07,4.09,4.09,0,0,1-1.28,3.16,14.62,14.62,0,0,0-.56-4.51c-.14-.48-.36-1-.84-1.18s-1.22.31-1.61.72c-.36-1.2.55-2.61,1.05-3.65S207.73,167,208.22,165.86Z"/><path class="cls-3" d="M206.92,176.08a10.87,10.87,0,0,1-2.1,6.37c-.16.2-.37.39-.57.33-.36-.1-.39-.78-.32-1.28a46.59,46.59,0,0,1,1.49-7.77C206.59,169.94,207,174.12,206.92,176.08Z"/><path class="cls-3" d="M88.79,191.3a4.65,4.65,0,0,1-3,1,7.37,7.37,0,0,1-3.2-.65,9.73,9.73,0,0,1-4.44-4.76,23.77,23.77,0,0,1-1.68-6,22,22,0,0,0-1.58-5.64c-1.6-3.59-4.18-6.92-5.12-11.12a7,7,0,0,1,0-3.25,4.16,4.16,0,0,1,2-2.61,5.86,5.86,0,0,1,3.1-.59,15.34,15.34,0,0,1,3,.5,17,17,0,0,0-3-.08,5.4,5.4,0,0,0-2.72.82,3.38,3.38,0,0,0-1.44,2.19,6.85,6.85,0,0,0,.14,2.77,22.88,22.88,0,0,0,2.41,5.36c1,1.74,2.08,3.47,3,5.33a26,26,0,0,1,2.13,5.89,52.3,52.3,0,0,0,1.57,5.64,9.34,9.34,0,0,0,3.22,4.39,7.34,7.34,0,0,0,2.59,1A5.06,5.06,0,0,0,88.79,191.3Z"/><path class="cls-3" d="M72.31,157.33s-8.29.33-2.54,10.85c0,0,4.67,6.13,5.94,11.78,0,0,1.3,15,12.38,11.83,0,0-8,.44-9.56-6.09,0,0-1-9.25-4.49-14C74,171.68,65.51,162.06,72.31,157.33Z"/><path class="cls-2" d="M204.5,164.18c-4.32-4.65-11.24-5.7-17.59-5.76-12.11-.11-17.55,2.3-28.54,7.44a19,19,0,0,0-7.24,5.67,8.29,8.29,0,0,0-1-2.31c-2.29-3.68-7.19-4.48-11.49-5.06-13.38-1.81-26.8-4.86-40.24-3.56-3.07.3-6.25.88-8.71,2.73a12.63,12.63,0,0,0-4.51,8.07c-.37,2.23-1.07,7.25,1,8.91s5.8-.65,7.44-2.09c2-1.75,3.68-3.89,6.07-5a12.31,12.31,0,0,1,8.11-.26c2.67.69,5.2,1.84,7.85,2.59,6.65,1.88,14,1.38,20.84,1.61a27,27,0,0,1,6.23.72c.59.68,1.61.92,2.35,1.54a8.9,8.9,0,0,1,2.65,4l.06.2c.92,4,.62,8,.54,10.68-.16,5.93-2.36,12.25-2.7,18.18a8.25,8.25,0,0,1-.46,2.71c-.44,1.06-1.34,2.13-.94,3.21.26.73,1,1.12,1.51,1.73,1,1.35.33,3.46-1.08,4.41l0,0-.6.21a28.81,28.81,0,0,1-4.47,1.08c-.24,0-.46,0-.67,0s-.23.11-.18.16c-1.65.22-4.91-.85-5,.22-.05.64,4.53,1.31,6.82.87,1-.18,2.17-.39,2.68.43a5.79,5.79,0,0,1,.37,1.11,2,2,0,0,0,.53.79h0l0,0a11.27,11.27,0,0,0,2.76,1.36A6.36,6.36,0,0,1,150,234.1a37,37,0,0,1-1.22,7.08c-.83,1.14-1.78,2.23-2.62,3.38-1.14.79-2.34,1.59-2.69,2.89a6.16,6.16,0,0,0,1.11.26.43.43,0,0,1,0,0c-.08.57.7.21,1.37.06a4.39,4.39,0,0,1-1.4,1.18l2.81-1.35a13.13,13.13,0,0,0,5.76-2.85h0l1.28-.65a25.24,25.24,0,0,0,5-2.64c6.56-3.59,12.34-7.18,19.8-11.92,8.27-5.25,15.59-17.29,19-25.67,3.25-7.9,5.56-16.83,5.35-25.38C203.42,173.24,208.1,168.06,204.5,164.18Z"/><path class="cls-2" d="M132.36,225.48a.51.51,0,0,1,.72.49.66.66,0,0,1-.51.49,2.1,2.1,0,0,1-.75,0,.67.67,0,0,1-.37-.14.43.43,0,0,1,.09-.59,1.25,1.25,0,0,1,.61-.22"/><path class="cls-5" d="M124.69,239.9s8.4,10.81,22.49,9.42c0,0,13.32-2.33,21.37-13.07,0,0-18,11.11-24.8,11.47C143.75,247.72,132.51,246.33,124.69,239.9Z"/><path class="cls-3" d="M130.58,245.09S119.9,239,112.21,233.48c-7.91-5.7-12.89-11-16.95-19.92,0,0,11.71,16.32,21.81,20.6C117.07,234.16,129.55,243,130.58,245.09Z"/><path class="cls-3" d="M88.3,185s2.53,26.66,13.08,36.14C101.38,221.14,86.09,203,88.3,185Z"/><path class="cls-5" d="M186.4,224c-3.51,1.86-16.51,11.91-19.71,14.25-.66.48-1.3,1-1.92,1.51s-9.51,6.24-9.78,6.87c2-1.21,9.34-5.59,9.74-5.78C165.33,240.54,180.55,231.07,186.4,224Z"/><path class="cls-3" d="M199.1,205.18C192.24,222,185,223.93,183.93,225.54c9.4-11.27,12.73-18.94,13.71-22,.84-2.61,2.79-7.69,3.48-10.33a8.07,8.07,0,0,1,.78-2.14,22,22,0,0,1-.19,2.8q-.12,1.41-.3,2.82a32.64,32.64,0,0,1-1.15,5.54C199.94,203.24,199.5,204.21,199.1,205.18Z"/><path class="cls-3" d="M191,219.58l37.95,51.76s-19.67-3.71-28.69-9.62l2.32,7.9s-30.18,49.11-57.63,73.8C144.92,343.42,180,271.61,191,219.58Z"/><path class="cls-3" d="M98.87,219.58,60.92,271.34s19.67-3.71,28.68-9.62l-2.32,7.9s30.19,49.11,57.64,73.8C144.92,343.42,109.88,271.61,98.87,219.58Z"/><path class="cls-3" d="M142.52,265.41c.2,5.86.3,11.72.38,17.58s.07,11.71.11,17.57,0,11.72-.11,17.58l-.14,8.78c-.08,2.93-.13,5.86-.24,8.79-.12-2.93-.17-5.86-.25-8.79l-.14-8.78c-.08-5.86-.08-11.72-.11-17.58s0-11.71.11-17.57S142.31,271.27,142.52,265.41Z"/><path class="cls-3" d="M148.32,265.41c.21,5.86.31,11.72.39,17.58s.07,11.71.11,17.57,0,11.72-.11,17.58l-.14,8.78c-.09,2.93-.13,5.86-.25,8.79-.11-2.93-.16-5.86-.24-8.79l-.14-8.78c-.08-5.86-.08-11.72-.12-17.58s0-11.71.12-17.57S148.12,271.27,148.32,265.41Z"/><path class="cls-3" d="M164.88,272.59a8.65,8.65,0,0,0,1.8.9,4.07,4.07,0,0,0,3.23-.12c1.62-.86,2.1-2.92,2.39-4.74a144.48,144.48,0,0,0,1.81-20.76,1.48,1.48,0,0,0-1.93-1.42l-26.13,8.15c-.08,1.22-.54,5.56.58,6.28.21.13.74-.12,1-.06a5.24,5.24,0,0,1,1.41.89c2.73,1.88,5.47,3.75,8.18,5.67C159.73,269.16,162.26,271,164.88,272.59Z"/><path class="cls-3" d="M124.18,271.58a9.19,9.19,0,0,1-1.9.69,4.12,4.12,0,0,1-3.19-.48c-1.51-1.05-1.76-3.14-1.84-5a144,144,0,0,1,.46-19.92,2.15,2.15,0,0,1,3-1.74l24.2,10.69c-.06,1.22-.09,5.58-1.29,6.17-.22.11-.72-.21-1-.17a5.06,5.06,0,0,0-1.5.72c-2.93,1.56-5.86,3.11-8.77,4.71C129.68,268.75,127,270.24,124.18,271.58Z"/><path class="cls-1" d="M140.78,261.74a2,2,0,0,0,.22,1.07,2,2,0,0,0,1.58.68,21.33,21.33,0,0,0,6.67-.36,1.56,1.56,0,0,0,.6-.23,1.14,1.14,0,0,0,.37-1,16.17,16.17,0,0,1-.06-5.94,2.8,2.8,0,0,0-1-2.34,1.21,1.21,0,0,0-.67-.27c-2.77-.3-3.44-.71-6.11-.54-.63,0-1.66-.26-1.72.34a7,7,0,0,0,0,1.8c0,1.19.2,2.07.22,3.26S140.75,260.43,140.78,261.74Z"/><path class="cls-3" d="M141.46,261.33a1.75,1.75,0,0,0,.17.85,1.57,1.57,0,0,0,1.27.54,19.8,19.8,0,0,0,5.75-.33,1.13,1.13,0,0,0,.48-.19,1.07,1.07,0,0,0,.3-.82,37.15,37.15,0,0,0,0-5.06,2.74,2.74,0,0,0-.78-2.07,2.7,2.7,0,0,0-1.3-.42,26.31,26.31,0,0,0-5.54-.22c-.51,0-.52.08-.5.56s0,.79.05,1.19c0,.95,0,1.89,0,2.84S141.43,260.28,141.46,261.33Z"/><path class="cls-1" d="M151.62,257.13s4.33-1.15,6.75-1.94C158.37,255.19,154.9,257.31,151.62,257.13Z"/><path class="cls-1" d="M158.1,258.66a61.94,61.94,0,0,0,6.27-1,3.69,3.69,0,0,1-2.07,1.14,15.59,15.59,0,0,1-2.68.34,35,35,0,0,1-4.1.14,11.19,11.19,0,0,1-3.9-.78c.16-.34.82-.05,1.24,0a17.59,17.59,0,0,0,1.78.18A25,25,0,0,0,158.1,258.66Z"/><path class="cls-1" d="M162.77,265c-1.16-1.6-3.23-2.61-5.33-3.34-1-.36-2.07-.68-3.11-1-.53-.17-1.06-.35-1.58-.56-.37-.14-.9-.49-1.29-.42a41.72,41.72,0,0,0,5.48,2.85C158.84,263.36,160.79,264.19,162.77,265Z"/><path class="cls-1" d="M128.15,264.21a5.94,5.94,0,0,0,2.28-.57,68.48,68.48,0,0,0,6.76-3.35L133,262.1a18.53,18.53,0,0,1-3.37,1.2,6.93,6.93,0,0,1-1.75.17,5.28,5.28,0,0,1-.9-.1,4.35,4.35,0,0,0-.81-.2c0,.31.53.64.78.76A2.72,2.72,0,0,0,128.15,264.21Z"/><path class="cls-1" d="M131.16,259.82a26.36,26.36,0,0,1-3.2-.25.44.44,0,0,0,.25.31,1.34,1.34,0,0,0,.39.11,13.22,13.22,0,0,0,4.61.05c.28-.05,1.11-.26,1.06-.66a3.26,3.26,0,0,0-.71.19c-.26.06-.53.11-.8.15A10.66,10.66,0,0,1,131.16,259.82Z"/><path class="cls-1" d="M131.52,255.43l-5.06-2.28a1.21,1.21,0,0,0,.45.87,3.37,3.37,0,0,0,.88.51,37.18,37.18,0,0,0,5.47,2.15c.5.13,1.86,1.05,2.75,1.05-.74-.38-1.43-.85-2.18-1.23S132.29,255.77,131.52,255.43Z"/><path class="cls-1" d="M98.11,227.64q2,7.38,4.17,14.69l2.22,7.3,2.35,7.27q4.77,14.49,10.32,28.72c.94,2.36,1.82,4.75,2.8,7.1l2.93,7c1,2.36,2,4.66,3.07,7s2,4.66,3.15,6.95l3.25,6.9,3.46,6.81,1.71,3.41,1.83,3.35,3.65,6.71c-5.25-8.73-10.23-17.64-14.59-26.85s-8.49-18.55-12.19-28-7.09-19.12-10.12-28.85S100.33,237.58,98.11,227.64Z"/><path class="cls-1" d="M192.92,227.93c-2.29,9.94-5.13,19.76-8.24,29.48s-6.64,19.31-10.4,28.8-8,18.82-12.5,28a302.2,302.2,0,0,1-15,26.71l3.75-6.67,1.87-3.33,1.77-3.4,3.54-6.77,3.34-6.87c1.14-2.28,2.18-4.61,3.24-6.93s2.16-4.61,3.15-7l3-7c1-2.34,1.91-4.72,2.88-7.08,3.82-9.44,7.32-19,10.59-28.67l2.41-7.26,2.28-7.3Q190.92,235.32,192.92,227.93Z"/><path class="cls-3" d="M287.42,115.53c0,30.2-55.63,59.9-134.4,59.9S0,132.78,0,102.57,63.39,53.76,142.16,53.76,287.42,85.32,287.42,115.53Z"/><path class="cls-1" d="M81.83,63.41c-3.64.49-7.26,1.11-10.87,1.79s-7.21,1.38-10.79,2.2a171.67,171.67,0,0,0-21.12,6.11,91.85,91.85,0,0,0-10.12,4.28,48.21,48.21,0,0,0-9.26,5.85,20.64,20.64,0,0,0-6.53,8.61,13.48,13.48,0,0,0-.81,5.38A16.93,16.93,0,0,0,13.59,103a16.92,16.92,0,0,1-1.38-5.32,13.58,13.58,0,0,1,.7-5.47,20.77,20.77,0,0,1,6.55-8.78,48.44,48.44,0,0,1,9.28-6A92.81,92.81,0,0,1,38.88,73a174.09,174.09,0,0,1,21.22-6A213.26,213.26,0,0,1,81.83,63.41Z"/><path class="cls-1" d="M79.92,69.66c-2.8.36-5.59.8-8.37,1.29S66,72,63.23,72.53a161.92,161.92,0,0,0-16.38,4.22,69.15,69.15,0,0,0-15.46,6.7A23.42,23.42,0,0,0,25,88.9a10.86,10.86,0,0,0-2.44,7.85,11,11,0,0,1,2.24-8,23.88,23.88,0,0,1,6.35-5.63A68,68,0,0,1,46.7,76.27a152.72,152.72,0,0,1,16.45-4.12C68.7,71.07,74.3,70.22,79.92,69.66Z"/><path class="cls-1" d="M35.09,91.39a15.71,15.71,0,0,1,4.53-4.13,40.67,40.67,0,0,1,5.44-2.92,83,83,0,0,1,11.69-4c4-1,8-1.83,12.09-2.45,2-.29,4.07-.63,6.11-.86l6.14-.63C77,77,73,77.55,68.91,78.27c-2,.33-4,.78-6,1.16s-4,.94-6,1.4a88.31,88.31,0,0,0-11.65,3.86,40.66,40.66,0,0,0-5.47,2.77A15.5,15.5,0,0,0,35.09,91.39Z"/><path class="cls-1" d="M223.76,109.94s13.87-11.17-10.37-21.46l3.89,17Z"/><path class="cls-1" d="M278.54,134.12a54.94,54.94,0,0,1-13.8,11.55,118.29,118.29,0,0,1-16.09,8.22,213.68,213.68,0,0,1-34.48,10.8,285.22,285.22,0,0,1-35.69,5.76q-9,.87-18,1.18c-6,.18-12.07.2-18.09-.13A263.72,263.72,0,0,1,106.46,167a285.35,285.35,0,0,1-35-9,211.45,211.45,0,0,1-33.32-14,129.73,129.73,0,0,1-15.31-9.61A74.93,74.93,0,0,1,9.59,122.16,74.67,74.67,0,0,0,23,134.2a128.6,128.6,0,0,0,15.4,9.38,213.49,213.49,0,0,0,33.29,13.77,288.46,288.46,0,0,0,35,8.86,264.12,264.12,0,0,0,35.78,4.31,256.25,256.25,0,0,0,36-.91A285.8,285.8,0,0,0,214,164a213.14,213.14,0,0,0,34.43-10.61,119.38,119.38,0,0,0,16.16-8A54.84,54.84,0,0,0,278.54,134.12Z"/><path class="cls-1" d="M83.75,88.57S36.68,91.34,76,118.68L89.13,87.24Z"/><path class="cls-6" d="M71.8,94.77c-11.92,5.63-2.63,14.65-2.63,14.65Z"/><path class="cls-6" d="M218.66,110.32c10.13-9.17-2.91-15.55-2.91-15.55Z"/><path class="cls-5" d="M220.72,107.78c-.8,1.74-4.53,1.32-5.84,3a137.84,137.84,0,0,1-34.43,20.47,128.28,128.28,0,0,1-36.21,5.07,125.71,125.71,0,0,1-41.78-6.88c-10.77-5.52-22.67-8.61-33.46-20.18,0,0,1-4.68,1-4.7,0-.37,1.07-8.5,3.56-19.64,5.94-26.47,20.12-72.08,49-82.8,0,0,14-4.79,26,.08A24.76,24.76,0,0,1,151,3.36a23.39,23.39,0,0,1,5.83,4.43c4.3,4.47,8.65,9.57,21.18,11.71a28.41,28.41,0,0,1,11.31,4.27q.81.54,1.59,1.17c6.82,5.42,12.72,15.84,16.59,36.43l4.94,20.83Z"/><path class="cls-1" d="M144.26,135.28a163,163,0,0,1-46-6.36c-11.38-3.41-21.53-8.7-29.47-15.77l1.76-2.32c7.74,7,17.79,11.46,28.72,14.73a159.12,159.12,0,0,0,45,6.22,164.69,164.69,0,0,0,39-4.58c16.46-4.09,29.81-10.71,36.65-18.19.53-.57,1.73-1.94,2.89-3.49l2.91,2.26a40.3,40.3,0,0,1-3.22,3.61c-7.39,8.08-21,14.9-38.38,19.21A168.16,168.16,0,0,1,144.26,135.28Z"/><path class="cls-1" d="M116.06,15.69a28,28,0,0,0-1.1,12,19.26,19.26,0,0,0,5.16,10.48,30.7,30.7,0,0,0,9.78,6.68,47.35,47.35,0,0,0,11.46,3.51c1,.18,2,.31,2.94.4s2,.06,3,.06c2,0,4.06-.08,6.08-.17,4.06-.18,8.1-.61,12.12-1.17a140.68,140.68,0,0,0,23.76-5.61A103.72,103.72,0,0,1,165.73,49a109.75,109.75,0,0,1-12.26,1.52q-3.08.21-6.17.24c-1,0-2.06,0-3.15-.05s-2.1-.22-3.13-.4a48.41,48.41,0,0,1-11.91-3.76A31.17,31.17,0,0,1,119,39.21a19.81,19.81,0,0,1-5-11.41,23,23,0,0,1,.34-6.2,27.45,27.45,0,0,1,.71-3C115.33,17.6,115.72,16.65,116.06,15.69Z"/><path class="cls-1" d="M86.62,84a11.68,11.68,0,0,0,.85,4.58A4.69,4.69,0,0,0,91,91.37a4.84,4.84,0,0,0,4.24-2.16,14.11,14.11,0,0,0,1.92-4.59c2.35-8.17,4.71-16.4,5.64-24.86,1-9.46-6.44-14.63-10.4-4.21C89,64.56,86.3,74.27,86.62,84Z"/><path class="cls-6" d="M189.34,23.77c-1.57,1.59-4,2.46-6.23,3.07a105.39,105.39,0,0,1-15.57,3,36.4,36.4,0,0,1-12.19-.21,16,16,0,0,1-10-6.47,15.18,15.18,0,0,1-1.65-11.58,18.84,18.84,0,0,1,4.85-9.38A24.76,24.76,0,0,1,151,3.36a23.39,23.39,0,0,1,5.83,4.43c4.3,4.47,8.65,9.57,21.18,11.71A28.41,28.41,0,0,1,189.34,23.77Z"/></g></g></svg>