<svg xmlns="http://www.w3.org/2000/svg" viewBox="0 0 396.16 504"><defs><style>.cls-1{fill:#ffd262;}.cls-2{fill:#e4b34f;}.cls-3{fill:#00405c;}.cls-4{fill:#0075a8;}.cls-5{opacity:0.47;}.cls-6{fill:#4dbdeb;}</style></defs><g id="Layer_2" data-name="Layer 2"><g id="Layer_1-2" data-name="Layer 1"><path class="cls-1" d="M115.67,500,198,317.17,87.45,267.34,5.08,450.18l80.48-31Z"/><path class="cls-1" d="M280.49,500,198.12,317.17l110.59-49.83,82.37,182.84-80.48-31Z"/><path class="cls-2" d="M366.88,440.86l24.2,9.32L308.71,267.34l-16.62,7.49Z"/><path class="cls-1" d="M29.28,440.86l-24.2,9.32L87.45,267.34l16.62,7.49Z"/><path class="cls-3" d="M280.49,504a4,4,0,0,1-3.65-2.36L194.47,318.81a4,4,0,0,1,2-5.29L307.07,263.7a4,4,0,0,1,5.29,2l82.37,182.83a4,4,0,0,1-5.08,5.38l-76.72-29.55-28.69,77a4,4,0,0,1-3.62,2.6ZM203.41,319.17l76.72,170.31,26.72-71.7a4,4,0,0,1,5.18-2.34L383.44,443,306.71,272.64Z"/><path class="cls-3" d="M115.67,504h-.13a4,4,0,0,1-3.61-2.6l-28.7-77L6.52,453.91a4,4,0,0,1-5.09-5.38L83.8,265.7a4,4,0,0,1,5.29-2l110.6,49.83a4,4,0,0,1,2,5.29L119.32,501.64a4,4,0,0,1-3.65,2.36ZM85.56,415.17a4,4,0,0,1,1.65.36,4,4,0,0,1,2.1,2.25L116,489.48l76.73-170.31L89.45,272.63,12.72,442.94l71.41-27.5a3.94,3.94,0,0,1,1.43-.27Z"/><circle class="cls-4" cx="198.03" cy="198.09" r="194.05"/><path class="cls-3" d="M198.08,4c-3.35,0-6.69.09-10,.25,102.54,5.21,184.08,90,184.08,193.83S290.62,386.7,188.08,391.91c3.31.17,6.65.25,10,.25,107.19,0,194.08-86.89,194.08-194.08S305.27,4,198.08,4Z"/><g class="cls-5"><path class="cls-6" d="M198.08,392.16c3.35,0,6.69-.08,10-.25C105.54,386.7,24,301.91,24,198.08S105.54,9.46,208.08,4.25c-3.31-.16-6.65-.25-10-.25C90.89,4,4,90.89,4,198.08S90.89,392.16,198.08,392.16Z"/></g><path class="cls-3" d="M198.08,396.16C88.86,396.16,0,307.3,0,198.08S88.86,0,198.08,0,396.16,88.86,396.16,198.08,307.3,396.16,198.08,396.16ZM198.08,8C93.27,8,8,93.27,8,198.08S93.27,388.16,198.08,388.16s190.08-85.27,190.08-190.08S302.89,8,198.08,8Z"/><path class="cls-1" d="M198.08,288.29,109,335.1,126,236,54,165.73l99.55-14.46,44.52-90.21,44.52,90.21,99.55,14.46-72,70.22,17,99.15Z"/><path class="cls-2" d="M342.15,165.73l-18.47-2.68-70.82,69,16,93.42,18.24,9.59-17-99.15Z"/><path class="cls-1" d="M54,165.73l18.47-2.68,70.82,69-16,93.42L109,335.1,126,236Z"/><path class="cls-3" d="M287.12,339.1a4,4,0,0,1-1.86-.46l-87.18-45.83L110.9,338.64a4,4,0,0,1-5.8-4.21l16.64-97.08L51.21,168.6a4,4,0,0,1,2.22-6.82l97.47-14.17,43.59-88.32a4,4,0,0,1,7.18,0l43.59,88.32,97.46,14.17a4,4,0,0,1,2.22,6.82l-70.53,68.75,16.65,97.08a4,4,0,0,1-3.94,4.67ZM62.6,168.53l66.24,64.56a4,4,0,0,1,1.15,3.54l-15.64,91.16,81.87-43a4,4,0,0,1,3.72,0l81.87,43-15.64-91.16a4,4,0,0,1,1.15-3.54l66.24-64.56L242,155.23a4,4,0,0,1-3-2.19L198.08,70.1,157.15,153a4,4,0,0,1-3,2.19Z"/><path class="cls-3" d="M138.42,274.46a5.31,5.31,0,0,1-.68,0,4,4,0,0,1-3.27-4.62l4.12-24a4,4,0,0,1,7.89,1.35l-4.12,24a4,4,0,0,1-3.94,3.32Z"/></g></g></svg>