<svg xmlns="http://www.w3.org/2000/svg" viewBox="0 0 266.03 363.92"><defs><style>.cls-1{fill:#f0f7f7;}.cls-2{fill:#0092d1;}.cls-3{fill:#0075a8;}.cls-4{fill:#ffd262;}.cls-5{fill:#ffb280;}.cls-6{fill:#264b72;}.cls-7{fill:#002b59;}.cls-8{fill:#637f9a;}.cls-9{fill:#4dbdeb;}.cls-10{fill:#333;}</style></defs><g id="Layer_2" data-name="Layer 2"><g id="Layer_1-2" data-name="Layer 1"><path class="cls-1" d="M84.22,63.76c8.09-13.16,16.85-26.94,31.2-34.06,7.47-3.7,16-5.31,24.45-6.2,13.44-1.4,27.4-1,40.35,3.24,30.27,9.92,49,38.2,63.71,65,5.42,9.85,10.67,19.82,14.32,30.31a144.45,144.45,0,0,1,6.94,34.59c3.2,35.72-2.68,72.1-19,104-9.14,17.84-21.38,34.07-31,51.68-9.11,16.72-17,35.86-34.63,44.77-7,3.55-15.06,5.11-23.07,6-38.16,4.26-78.49-6.36-109.45-28.84C30,321,14.93,303.81,6.55,284c-12.36-29.21-5.3-56.31,5.28-84.11C23.4,169.47,38.61,140.49,55,112.25,64.46,95.94,74.34,79.85,84.22,63.76Z"/><path class="cls-2" d="M248.11,111.83s4.8,4.8-2.06,10.28-9.6,10.29-9.6,15.77,4.8,8.91,4.8,8.91-10.28.69-11-13.71,6.86-24,5.49-34.28S248.11,111.83,248.11,111.83Z"/><path class="cls-3" d="M189.15,113.2s2.74,4.11,11,2.06,13.71-8.23,23.31-9.6,24.68,6.17,24.68,6.17L237.83,51.5s0-6.86-15.09-9.6S191.21,44,191.21,44Z"/><path class="cls-2" d="M203.55,84.4s-.69,4.8-7.55,14.4-6.85,14.4-6.85,14.4l-7.54-41.14S198.75,65.89,203.55,84.4Z"/><path class="cls-3" d="M58.89,10.36S118.53,3.5,155.55.76s35,2.74,38.4,3.43,9.6,80.21,9.6,80.21-25.37-7.54-48.68-4.79-83.64,13-83.64,13S82.88,44,58.89,10.36Z"/><path class="cls-4" d="M144,37.74l-1.1-8.49a20.46,20.46,0,0,1,8,1.6l1.7-6.46A22.78,22.78,0,0,0,142,22.66l-.7-5.45-5,.65.72,5.55c-7.77,1.92-11,7-10.34,12.26.93,7.14,7.36,8.18,13.08,8.81l1.08,8.34a20.43,20.43,0,0,1-10.14-2.29l-2,6.45c3,1.79,8,2.72,13,2.38l.71,5.44,5-.65-.72-5.59c7.72-2,10.93-7,10.25-12.15C156,39.37,149.66,38.31,144,37.74Zm-9.29-3.52c-.21-1.65.65-3.23,3.22-4.17l.92,7.09C136.51,36.72,134.89,36,134.66,34.22ZM145.8,52l-.89-6.89c2.24.47,3.81,1.23,4,3C149.16,49.65,148.23,51.09,145.8,52Z"/><path class="cls-4" d="M141.16,9.68A31.54,31.54,0,1,0,172.7,41.21,31.57,31.57,0,0,0,141.16,9.68Zm0,58.26a26.73,26.73,0,1,1,26.72-26.73A26.76,26.76,0,0,1,141.16,67.94Z"/><path class="cls-5" d="M110.24,87.52s2,2.3,3.61,4.27a39.31,39.31,0,0,1,3.61,5.9l11.82-10.17s-3.28-6.9-3.61-10.18Z"/><path class="cls-5" d="M118.44,60.27s-6.48-.15-8.51,3.91a66.45,66.45,0,0,0-2.65,6.69L103.12,74a1.49,1.49,0,0,0,.14,2.46l1.95,1.17c-1,4.06-1.58,7.69-.7,8.87,2,2.71,11.9,2,13.93.65s6.4-8.1,6.4-8.1,6.09,1.35,6.77-5.42S127.25,59.59,118.44,60.27Z"/><polygon class="cls-6" points="126.76 176.27 136.77 216.13 164.27 254.08 172.48 253.42 148.92 210.88 154.37 160.59 126.76 176.27"/><path class="cls-7" d="M124.68,152.52,123,165.65a16.74,16.74,0,0,1,3.61,4.6c1.32,2.62,17.73,3.28,23,1.31s7.55-9.85,5.58-15.76-3.94-13.13-3.94-13.13S130.59,153.18,124.68,152.52Z"/><path class="cls-8" d="M90.57,247.33A1.49,1.49,0,0,1,89.09,246L57.74,2.94a1.5,1.5,0,1,1,3-.38L92.06,245.64a1.5,1.5,0,0,1-1.3,1.68Z"/><polygon class="cls-1" points="89.59 131.48 83.81 130.52 83.81 135.87 90.56 137.67 89.59 131.48"/><polyline class="cls-7" points="119.47 124.45 114.48 134.79 89.59 131.48 88.96 141.18 124.16 149.91 129.1 139.79 120.9 124.1"/><path class="cls-9" d="M112.15,107.64a6.11,6.11,0,0,0,1.82,6.08c2.92,2.92,13.15-1,22.64-6.81s10.58-13.5,18.24-15,11,.73,17.52,1.46a31.37,31.37,0,0,0,12-1.09l9.12,4-9.85,4s-4.38,2.19-12.78,0-11.31-5.11-16.79-2.56-5.65,6.35-14.57,12.88c-7,5.11-9.88,7.19-20.1,7.19S112.15,107.64,112.15,107.64Z"/><path class="cls-1" d="M116.47,100.32s-2.29,14.77-1.31,18.71,6.24,16.42,6.24,18.06,2.95,16.74,2.95,16.74,9.2,2.63,17.08.66,10.17-10.18,10.17-10.18-5.91-36.44-7.55-42-12.8-13.46-12.8-13.46Z"/><polygon class="cls-9" points="114.34 101.08 112.15 107.64 119.09 101.08 114.34 101.08"/><polygon class="cls-1" points="129.61 85.88 112.86 99.01 113.52 103.93 132.89 89.16 129.61 85.88"/><path class="cls-7" d="M192.9,152.7s-5.11-7.36-9.27-11.2-9.28-6.07-16-9.91a45,45,0,0,1-10-7.73c-7.54-14.18-17.17-29.37-27.08-37,0,0-11.56,12.6-12.16,26.87-.32,7.67.64,16.63,5.44,24,16.82,25.78,36.14,34.86,40,35.5s21.43-18.23,21.43-18.23l0,0A16.35,16.35,0,0,1,192.9,152.7Z"/><path class="cls-6" d="M136.46,153.55s10.23,5.44,16.95,6.72,21.43,1,21.43,1-5.44,2.56-8,5.75a13.1,13.1,0,0,0-2.56,7.36S144.93,165.81,136.46,153.55Z"/><path class="cls-7" d="M120.41,67.49l-4.92,3.61,3.28,2.63L116.16,77l2.12.93L125,76l2,4.59s5.6-2.1,6.57-4.27c2.53-5.68.32-12.38-1-14.67S122.55,56,118.28,55s-10.67,2.61-10.34,5.24a6.12,6.12,0,0,0,2,3.91S122.38,62.57,120.41,67.49Z"/><path class="cls-7" d="M123.7,163.35,86.84,187.5a3.34,3.34,0,0,0-.44,4.11L97,195.06c1,1.56-1.14,5.79.42,4.79l4.66-1.66c4.35-1.35,10.83-3.93,18.67-7,12.55-4.91,24.71-16.59,28.84-19.61l0,0"/><path class="cls-10" d="M109.58,253.31l-14.85,7.77a1.36,1.36,0,0,0-.74,1.21h0a1.37,1.37,0,0,0,1.32,1.37l24.44,1s.8,0,.54-3.22-2.83-8.48-2.83-8.48Z"/><path class="cls-7" d="M92.09,184.52s-6.11,3.22-7.75,5.19-1,5.58,0,7.55,25.24,56.05,25.24,56.05l12.85,1.21-19-63.09"/><polygon class="cls-1" points="162.52 161.01 162.97 168.67 169.39 168.67 169.56 161.33 162.52 161.01"/><path class="cls-6" d="M126.6,99.49a15.65,15.65,0,0,0-1.78,9.63c.71,5.71,3.92,12.13,5.35,12.84s24.6,12.12,24.6,12.12l6.77,30.77,9.61-.32-7.41-39.18-25.37-22.29a6.56,6.56,0,0,0-5-4.28"/><polygon class="cls-5" points="83.81 130.52 80.25 127.66 73.12 128.38 73.47 136.22 83.81 135.87 83.81 130.52"/><polygon class="cls-5" points="73.12 126.24 73.47 136.22 79.53 136.22 79.18 126.24 73.12 126.24"/><polygon class="cls-5" points="162.97 168.67 160.28 173.88 162.3 180.23 165.77 180.52 166.34 179.07 171.25 178.78 169.39 168.67 162.97 168.67"/><path class="cls-5" d="M119.65,77.71s3.13-5.87,4.77-3.25,1.32,4.93-.65,5.91-3.52,2.44-4.51.47"/><path class="cls-6" d="M130.54,86.81S119,99.41,118.38,113.68a47,47,0,0,0,2.24,17.43,17.32,17.32,0,0,1,0-2.4c.28-4.61,1.92-17.59,1.92-17.59L120,108.56l3.84-1s2.56-10.23,8-15c1-.88,1.85-1.67,2.58-2.38A48.86,48.86,0,0,0,130.54,86.81Z"/><path class="cls-9" d="M176.83,297.05a.65.65,0,0,1-.19-.77,30.07,30.07,0,0,1,10.61-12.85c10.18-6.82,21.56-4.86,26.59-3.47a.66.66,0,0,0,.64-1.1A103.94,103.94,0,0,0,200,266.68c-6.65-4.62-23.67-16.14-45.7-16.46-8.21-.11-12.84,1.39-15.06,2.24A37.25,37.25,0,0,0,123,264.93a.67.67,0,0,1-.63.25,119.34,119.34,0,0,0-75,11.7.64.64,0,0,0-.31.36,11.82,11.82,0,0,0,.86,10.05,13.75,13.75,0,0,0,3.41,4c.3.2.62.05.91-.16.74-.54,6.82-5.86,7.78-6.41.42-.24,1,9,1.47,8.8,3.05-1.69,6-3.29,9.1-5,.45-.26-.46,10,0,9.68,2.38-1.61,5.3-3.69,7.68-5.3a.66.66,0,0,1,.61-.06c.64.25,1.51.59,2.53,1,2.18.82,3,1.08,4.73,1.74,4.79,1.81,5.26,2.39,5.3,2.9s-.34.51-1.14,2.14c-.69,1.38-.67,1.88-1.16,2.13s-1.39-.16-2.49-.78c-5.32-3-6.26-2.57-6.54-2.41s-.48.51-.93,1.25a2.88,2.88,0,0,0-.64,1.76c.11.76,1.12,1.16,4.27,2.33,2.91,1.09,3.88,1.44,4,2.16a9.39,9.39,0,0,1-.85,2c-.48,1-.57,1.15-.77,1.26-.56.35-1.29,0-2.5-.52-1.5-.66-3-1.24-4.57-1.88s-2.26-1.05-2.91-.75a4.91,4.91,0,0,0-1.84,2.72c.05,1.1,2.39,1.75,8,3.4,4,1.17,4.55,1.36,5.48,1,2.5-.87,3.61-4.1,4.19-5.79,1.13-3.32.71-6,3.15-8.13a4.26,4.26,0,0,1,.35-.28,8.1,8.1,0,0,1,9.87,1.33,7.14,7.14,0,0,1,1.64,7,7,7,0,0,1-2.5,3.09h0a.66.66,0,0,0,.15,1.18,4.9,4.9,0,0,1,1.57.86,5.74,5.74,0,0,1,1.62,6.29c-1.25,3.31-5.73,3.95-6.3,4-4.21.61-7.54-1.8-8.63-.37a1.42,1.42,0,0,0-.24,1.12c.58,2.59,9.29,2.54,10.07,2.53,3.06,0,3.59-.47,8.15-.77,2.67-.17,4.87-.17,6.31-.14a82,82,0,0,1,18.5,2.4c4.61,1.24,14.48,4.76,24.61,16.13a.66.66,0,0,0,1.15-.47,31.47,31.47,0,0,0-4.43-14.62c-5.84-9.65-15.14-12.87-18.35-13.93a37.18,37.18,0,0,0-24.39.67.66.66,0,0,1-.86-.81c3.52-11.49,7.68-14.82,11-15.61,1.85-.44,4.3-.33,6.68-2.16a9.43,9.43,0,0,0,3.12-4.69.66.66,0,0,1,1.28.07,14,14,0,0,1,0,4.6,13.79,13.79,0,0,1-2.43,5.87.66.66,0,0,0,.78,1,12.53,12.53,0,0,0,4.28-2.72,12.29,12.29,0,0,0,2.88-4.37.66.66,0,0,1,1.27.28,25,25,0,0,1-.53,4.28,24.13,24.13,0,0,1-2.28,6.24.66.66,0,0,0,.91.88,16.15,16.15,0,0,0,7.85-9.9.66.66,0,0,1,1.29.1,18,18,0,0,1-.14,5.52,17.74,17.74,0,0,1-1.43,4.43.66.66,0,0,0,.9.86,22.43,22.43,0,0,1,6.07-2.2c3.75-.75,10.93-1.15,23.79,7.21,13.17,8.56,22.38,19.87,28.41,29.1a.66.66,0,0,0,1.18-.54,92.36,92.36,0,0,0-30.51-46.92ZM96.32,277.16c-2.19,1.47-2.49,1.92-4.49,3.32-2.91,2.06-3.87,2.74-5,2.95a5.29,5.29,0,0,1-1.74-.12c-2.4-.47-4.28-1-5.53-1.28A47.84,47.84,0,0,1,73.16,280a3.46,3.46,0,0,1-.8-.42,3,3,0,0,1-.6-.55,2.31,2.31,0,0,1-.6-1.62,2.38,2.38,0,0,1,.86-1.49,11.25,11.25,0,0,1,2.9-2.13.64.64,0,0,1,.47-.06,32.53,32.53,0,0,0,3.55.69H79a51.8,51.8,0,0,0,7.54.22c2.35,0,4.71.12,7.07.09a8.61,8.61,0,0,1,3,.45l.52.2a.66.66,0,0,1,.1,1.16C97,276.71,96.67,276.92,96.32,277.16Zm62.09,71.53a80.89,80.89,0,0,0-11.6-9.77s-3.48-2.37-6.82-4.12c-12.1-6.34-33.75-4.68-36.47-4.46-.56,0-11.23.72-14.09-3.21a4.65,4.65,0,0,1-1.05-2.79,4.89,4.89,0,0,1,2.61-4.1c2.78-1.35,5.41,1.49,9.46.4a3.59,3.59,0,0,0,2.09-1.31,3,3,0,0,0,.39-2.66c-.86-2.07-4.67-1.32-5.44-3.4a2.4,2.4,0,0,1,.12-1.87c.38-.74,1-1,2.31-1.64a4.53,4.53,0,0,0,2.51-2.18,3.2,3.2,0,0,0-.4-3.11c-1.07-1.35-3.41-1.47-4.89-.71s-1.53,2.13-3.87,8.81c-1,2.74-1.17,3.14-1.58,3.62-2,2.33-5.34,2.72-7.47,2.59-2.39-.14-2.75-.22-13.86-4.46a3.12,3.12,0,0,1-2-1.84c-.37-1.18.34-2.42,1.08-3.42s3.06-5.12,4.4-7.3c.39-.62-11.08,7.12-11,6.57a50.85,50.85,0,0,1,3.09-11.47c.29-.67-6.77,5.14-9.09,7.33-.42.4-.72-7.69-.71-10.29,0-.13-.45-.46-1-.56-1.29-.25-2.54,1.16-3,1.67-1.67,1.89-2.72,7.41-.88,13.21,4.18,13.24,20.76,19.6,27.65,22.25,5.79,2.22,13.66,4.29,16.94,5.17,15.59,4.16,17.86,3.49,27.25,6.18,14.66,4.22,14,7.3,30.24,12.83,12.89,4.4,28.88,7,29.19,5.76S169,358.61,158.41,348.69Z"/></g></g></svg>