<svg xmlns="http://www.w3.org/2000/svg" viewBox="0 0 84.54 55.49"><defs><style>.cls-1{fill:#4dbdeb;}</style></defs><g id="Layer_2" data-name="Layer 2"><g id="Layer_1-2" data-name="Layer 1"><path class="cls-1" d="M65.54,23.52a.33.33,0,0,1-.1-.39,15.13,15.13,0,0,1,5.33-6.45c5.12-3.43,10.83-2.44,13.35-1.74a.33.33,0,0,0,.33-.55,51.44,51.44,0,0,0-7.28-6.12C73.83,6,65.28.16,54.22,0a19.66,19.66,0,0,0-7.56,1.13,18.77,18.77,0,0,0-8.17,6.26.32.32,0,0,1-.32.12A60,60,0,0,0,.53,13.39a.35.35,0,0,0-.16.18A6,6,0,0,0,.8,18.62a6.92,6.92,0,0,0,1.72,2c.15.11.31,0,.46-.08.37-.27,3.42-2.94,3.9-3.21.22-.12.53,4.54.74,4.42l4.57-2.51c.23-.12-.23,5,0,4.87,1.19-.81,2.66-1.86,3.86-2.66a.32.32,0,0,1,.3,0l1.27.49,2.38.87c2.4.91,2.64,1.2,2.66,1.46s-.17.26-.57,1.08-.34.94-.58,1.07-.7-.08-1.26-.39c-2.67-1.51-3.14-1.29-3.28-1.21s-.24.25-.46.62a1.45,1.45,0,0,0-.33.89c.06.38.57.58,2.15,1.17s1.94.72,2,1.08a4,4,0,0,1-.42,1c-.24.5-.29.57-.39.63-.28.17-.65,0-1.25-.26-.76-.34-1.54-.62-2.3-1s-1.13-.53-1.46-.37a1.53,1.53,0,0,0-.59.62,1.51,1.51,0,0,0-.33.74c0,.55,1.2.88,4,1.71,2,.58,2.29.68,2.75.52,1.26-.44,1.82-2.06,2.11-2.9.57-1.67.36-3,1.58-4.09a1.63,1.63,0,0,1,.18-.14,4,4,0,0,1,5,.67A3.58,3.58,0,0,1,30,29.28a3.48,3.48,0,0,1-1.26,1.54h0a.33.33,0,0,0,.08.59,2.53,2.53,0,0,1,.78.43A2.87,2.87,0,0,1,30.41,35c-.63,1.66-2.88,2-3.16,2-2.12.31-3.79-.9-4.34-.18a.7.7,0,0,0-.12.56c.29,1.3,4.67,1.27,5.06,1.27,1.53,0,1.8-.24,4.09-.39,1.34-.08,2.44-.08,3.17-.07a41.35,41.35,0,0,1,9.29,1.21c2.32.62,7.27,2.39,12.36,8.1a.33.33,0,0,0,.57-.24A15.82,15.82,0,0,0,55.11,40a16.54,16.54,0,0,0-9.21-7,18.68,18.68,0,0,0-12.25.34.33.33,0,0,1-.43-.4c1.76-5.78,3.85-7.45,5.51-7.84A7.15,7.15,0,0,0,42.08,24a4.66,4.66,0,0,0,1.56-2.36.34.34,0,0,1,.65,0,7,7,0,0,1-1.21,5.26.33.33,0,0,0,.39.5,6.15,6.15,0,0,0,3.6-3.56.33.33,0,0,1,.64.14,12.62,12.62,0,0,1-.27,2.15,12.08,12.08,0,0,1-1.14,3.13.33.33,0,0,0,.45.45,8.26,8.26,0,0,0,2.62-2.27,8.14,8.14,0,0,0,1.33-2.71.33.33,0,0,1,.64.05,9.11,9.11,0,0,1-.07,2.78,9.2,9.2,0,0,1-.71,2.22.33.33,0,0,0,.45.43,11.15,11.15,0,0,1,3.05-1.1c1.88-.38,5.48-.58,11.94,3.62A49.86,49.86,0,0,1,80.27,47.35a.33.33,0,0,0,.59-.27A46.27,46.27,0,0,0,65.54,23.52Zm-40.43-10c-1.1.74-1.25,1-2.25,1.67a7.56,7.56,0,0,1-2.52,1.48,2.63,2.63,0,0,1-.87-.06c-1.21-.24-2.15-.51-2.78-.64a24.49,24.49,0,0,1-3.21-1,1.73,1.73,0,0,1-.4-.21,1.3,1.3,0,0,1-.3-.28,1.16,1.16,0,0,1-.31-.81,1.25,1.25,0,0,1,.44-.75,5.64,5.64,0,0,1,1.46-1.07.31.31,0,0,1,.23,0,14.17,14.17,0,0,0,1.79.35h0a29.23,29.23,0,0,0,3.79.1c1.18,0,2.36.06,3.55.05a4,4,0,0,1,1.52.23l.26.1a.33.33,0,0,1,.05.58ZM56.29,49.45a41.67,41.67,0,0,0-5.82-4.91S48.72,43.35,47,42.47C41,39.29,30.09,40.12,28.73,40.24c-.29,0-5.64.36-7.08-1.61a2.34,2.34,0,0,1-.52-1.41,2.45,2.45,0,0,1,1.31-2.06c1.39-.67,2.71.75,4.74.2a1.74,1.74,0,0,0,1.05-.65,1.52,1.52,0,0,0,.2-1.34c-.43-1-2.35-.66-2.73-1.71a1.22,1.22,0,0,1,.06-.94c.19-.37.48-.48,1.16-.82a2.3,2.3,0,0,0,1.26-1.09,1.62,1.62,0,0,0-.2-1.57,2.11,2.11,0,0,0-2.46-.35c-.73.36-.77,1.07-1.94,4.42a5.69,5.69,0,0,1-.79,1.82A4.67,4.67,0,0,1,19,34.43c-1.2-.07-1.37-.11-7-2.24a1.54,1.54,0,0,1-1-.92,2,2,0,0,1,.54-1.72C12,29,13.13,27,13.81,25.88c.19-.31-5.57,3.58-5.53,3.3a26.13,26.13,0,0,1,1.55-5.76c.15-.34-3.4,2.58-4.56,3.69-.22.2-.37-3.87-.36-5.17,0-.07-.23-.23-.5-.29-.65-.12-1.28.59-1.51.85-.83.94-1.36,3.72-.44,6.63C4.56,35.78,12.89,39,16.35,40.3c2.91,1.12,6.86,2.15,8.51,2.6,7.82,2.09,9,1.75,13.68,3.1,7.36,2.12,7,3.67,15.18,6.45,6.47,2.2,14.51,3.49,14.66,2.89S61.63,54.43,56.29,49.45Z"/></g></g></svg>