<svg xmlns="http://www.w3.org/2000/svg" viewBox="0 0 82.58 50"><defs><style>.cls-1{fill:#ebe7f2;}.cls-2{fill:#4dbdeb;}.cls-3{fill:#00405c;}</style></defs><g id="Layer_2" data-name="Layer 2"><g id="Layer_1-2" data-name="Layer 1"><path class="cls-1" d="M41,44.38a7,7,0,0,1-6.66-4.9A7.1,7.1,0,0,0,34,41.55a7,7,0,1,0,13.95,0,7.1,7.1,0,0,0-.31-2.07A7,7,0,0,1,41,44.38Z"/><path class="cls-1" d="M24.8,28.17a7,7,0,0,1-6.67-4.9,7.05,7.05,0,0,0-.31,2.07,7,7,0,1,0,14,0,7.05,7.05,0,0,0-.31-2.07A7,7,0,0,1,24.8,28.17Z"/><path class="cls-1" d="M8,44.88A7,7,0,0,1,1.29,40,6.74,6.74,0,0,0,1,42.05a7,7,0,1,0,14,0A7.05,7.05,0,0,0,14.61,40,7,7,0,0,1,8,44.88Z"/><circle class="cls-1" cx="65.8" cy="16.78" r="5.78"/><path class="cls-2" d="M80.3,27.86,74.46,22,78,19.68a.69.69,0,0,0-.22-1.24L65.83,15.59a.69.69,0,0,0-.83.83l2.86,11.91a.68.68,0,0,0,1.23.22l2.35-3.5,5.83,5.83a.68.68,0,0,0,1,0l2.06-2.06A.69.69,0,0,0,80.3,27.86Z"/><path class="cls-3" d="M65.8,0A16.78,16.78,0,0,0,53.27,27.94L45.9,35.31a7.92,7.92,0,0,0-9.78,0l-5.07-5.07a7.87,7.87,0,0,0,1.69-4.88,7.95,7.95,0,1,0-15.89,0,7.85,7.85,0,0,0,1.63,4.8l-5.65,5.65a8,8,0,1,0,1.38,1.38l5.62-5.63a7.91,7.91,0,0,0,9.85.06l5.06,5.06a7.95,7.95,0,1,0,12.53,0l7.38-7.38a16.74,16.74,0,0,0,19.59,2,1,1,0,1,0-1-1.68,14.83,14.83,0,0,1-17.93-2.32l0,0,0,0A14.84,14.84,0,1,1,78.79,24a1,1,0,1,0,1.7.94A16.78,16.78,0,0,0,65.8,0ZM8,48.05a6,6,0,1,1,0-12A6,6,0,0,1,12,37.65a1.25,1.25,0,0,0,.15.19.85.85,0,0,0,.19.14A6,6,0,0,1,8,48.05ZM18.79,25.34a6,6,0,1,1,6,6A6,6,0,0,1,18.79,25.34ZM41,47.56a6,6,0,1,1,6-6,6,6,0,0,1-6,6Z"/><path class="cls-3" d="M65.8,6.38a10.4,10.4,0,0,0-.89,20.77H65a1,1,0,0,0,.08-1.94,8.46,8.46,0,1,1,9.12-9.51,1,1,0,1,0,1.93-.24A10.42,10.42,0,0,0,65.8,6.38Z"/></g></g></svg>