<svg xmlns="http://www.w3.org/2000/svg" viewBox="0 0 380.48 336.37"><defs><style>.cls-1{fill:#f0f7f7;}.cls-2{fill:#e1e8e8;}.cls-3{fill:#0075a8;}.cls-4{opacity:0.2;}.cls-10,.cls-22,.cls-23,.cls-5{fill:#fff;}.cls-6{fill:#37474f;}.cls-7{fill:#263238;}.cls-13,.cls-8{fill:#455a64;}.cls-9{opacity:0.15;}.cls-10{opacity:0.7;}.cls-11{fill:#f0f0f0;}.cls-12{fill:#e1e1e1;}.cls-13,.cls-19{opacity:0.8;}.cls-14{fill:#ececec;}.cls-15,.cls-20,.cls-22{opacity:0.3;}.cls-16,.cls-23{opacity:0.4;}.cls-17{opacity:0.5;}.cls-18,.cls-19{fill:#fafafa;}.cls-21{opacity:0.1;}.cls-24{fill:#ffa8a7;}.cls-25{fill:#f5f5f5;}.cls-26{fill:#f28f8f;}</style></defs><g id="Layer_2" data-name="Layer 2"><g id="Layer_1-2" data-name="Layer 1"><path class="cls-1" d="M87.46,43.46c51-3.7,103,24.62,127.8,69.64,9.12,16.57,15.19,35.59,29.25,48.19C262,177,287.44,178.9,310.79,181.49s49.19,8.3,62.27,27.94c12.53,18.81,8.31,45.6-6,63.09s-36.63,26.68-58.92,29.88-44.93,1.09-67.4-.29-45.4-2-67.07,4.17c-26.84,7.58-50.59,25.15-78.16,29.23A84,84,0,0,1,33.87,320,84.89,84.89,0,0,1,1,265.26C-6,218.66,26.14,172.11,16.71,125.94c-1.65-8-4.55-15.88-5-24.08C11,86.77,26.37,71,37.34,61.88,51.22,50.31,69.71,44.75,87.46,43.46Z"/><path id="Shadow" class="cls-2" d="M207.8,244.22a8.52,8.52,0,0,0-1.25-4.38h0A8.67,8.67,0,0,0,206,239l0,0c-.18-.25-.38-.49-.58-.72l-.06-.06a7.23,7.23,0,0,0-.63-.61l-.06,0a4.72,4.72,0,0,0-.69-.51,4.1,4.1,0,0,0-.4-.23l-.18-.08a1.89,1.89,0,0,0-.21-.09l-.3-.1-.08,0a2.17,2.17,0,0,0-.35-.07h0a2.18,2.18,0,0,0-1.28.2h0c-3.56,1.79-24.06,14.83-33.5,20.71L163,260.2a1,1,0,0,0-.35.33l0,.05a1,1,0,0,0-.11.2s0,.09,0,.14a1,1,0,0,0-.05.18s0,.08,0,.12l-.77.43-.69.37a26.81,26.81,0,0,0-5.34-3.95c-6.46-3.74-15-5.79-24.13-5.79s-17.66,2.05-24.12,5.79c-6.7,3.87-10.39,9.09-10.39,14.71s3.69,10.84,10.38,14.7c6.47,3.74,15,5.79,24.13,5.79s17.67-2,24.13-5.79c6.7-3.86,10.39-9.09,10.39-14.7a13.49,13.49,0,0,0-2.19-7.27l.61-.33a1.41,1.41,0,0,0,1.33.12h0c3.2-1.76,34.41-15.06,40.79-18.49h0A2.86,2.86,0,0,0,207.8,244.22Zm-55.19,38.15c-5.58,3.23-13.1,5-21.18,5s-15.59-1.77-21.18-5c-4.79-2.76-7.43-6.17-7.43-9.59s2.64-6.83,7.43-9.6c5.59-3.23,13.11-5,21.18-5s15.6,1.77,21.18,5c4.8,2.77,7.44,6.17,7.44,9.6S157.41,279.61,152.61,282.37Z"/><path id="Shadow-2" data-name="Shadow" class="cls-2" d="M212.56,165.21l-31.65-18.32a6.5,6.5,0,0,0-5.83,0L14.28,239.73c-1.61.93-1.61,2.44,0,3.37l31.65,18.31a6.44,6.44,0,0,0,5.83,0L112,226.62l9.26,5.38c4.91,2.84,12.86,2.84,17.77,0l27.61-15.83c4.91-2.83,4.91-7.42,0-10.25l-9.26-5.38,55.16-32C214.17,167.64,214.17,166.14,212.56,165.21Z"/><ellipse id="Shadow-3" data-name="Shadow" class="cls-2" cx="265.67" cy="233.98" rx="31.04" ry="17.92"/><g id="Plants"><path class="cls-3" d="M283.3,213.75c0-4.21-.84-11.95,2.72-19.21,2.58-5.27,7.19-10.38,11.48-9.87,4,.47,4.35,6.61.53,10.82s-8.68,10-9.74,19.31l-2.75,6.89Z"/><g class="cls-4"><path d="M283.3,213.75c0-4.21-.84-11.95,2.72-19.21,2.58-5.27,7.19-10.38,11.48-9.87,4,.47,4.35,6.61.53,10.82s-8.68,10-9.74,19.31l-2.75,6.89Z"/></g><path class="cls-5" d="M284.73,216.7a.29.29,0,0,0,.24-.3c-.48-12,3.41-21.87,11.25-28.68a.29.29,0,0,0,0-.41.28.28,0,0,0-.41,0c-8,6.93-11.93,17-11.44,29.14a.28.28,0,0,0,.3.28Z"/><path class="cls-3" d="M282.54,228.77a14.79,14.79,0,0,0,7.39,2c4.49.11,6.15-2.26,6.15-2.26s-2.28-3.89-4.94-4.72A24.93,24.93,0,0,1,299.2,226s2.69-.31,3.21-4.56c0,0-1.92-2.26-7.44-2.87a17.65,17.65,0,0,1,8-.69c.37.09,1.16-5.41,1.29-7.92s-.86-2.35-2.83-2.61-8.52.3-9.57,1.51-1.18,4.88-1.18,4.88a7.16,7.16,0,0,1-1.39-3.73,6.9,6.9,0,0,0-4,.64c-2.05,1-2.7,1.87-2.81,3.44a15.65,15.65,0,0,0,.4,5.74s-1.86-3-1.77-5.62a27.92,27.92,0,0,0-1.9,4C278.28,220.43,279.32,226,282.54,228.77Z"/><path class="cls-5" d="M282.61,229.05a.31.31,0,0,0,.21-.19c2.55-7.85,14.6-18.18,19.2-19.73a.29.29,0,0,0,.18-.37.29.29,0,0,0-.37-.19c-4.69,1.59-17,12.11-19.57,20.11a.29.29,0,0,0,.19.37Z"/></g><g id="Device"><g id="Monitor"><path class="cls-6" d="M139.05,229.33l23.79-13.75c2.45-1.42,3.68-3.27,3.68-5.13s0-3.31,0-3.31l-22.39-12.71a5.22,5.22,0,0,1-2.37-4.1V161l-41.55,24v29.34a5.25,5.25,0,0,0,2.36,4.1l18.71,10.88C126.19,232.17,134.14,232.17,139.05,229.33Z"/><path class="cls-7" d="M110.19,219.54v3.29l-7.61-4.38a5.26,5.26,0,0,1-2.37-4.11V185l7.92-4.56c.16,2,.34,4.09.51,6.11l-5.56,3.21v22.92a5.2,5.2,0,0,0,2.37,4.1Z"/><path class="cls-8" d="M103.08,212.69a5.25,5.25,0,0,0,2.37,4.11L121.28,226c4.91,2.83,12.86,2.83,17.77,0l23.8-13.76c4.91-2.83,4.91-7.42,0-10.25L147,192.78a5.22,5.22,0,0,1-2.37-4.1V165.76l-41.56,24Z"/><path class="cls-9" d="M151.83,195.57h0L147,192.78a5.22,5.22,0,0,1-2.37-4.1V165.76l-41.56,24v22.92a5.25,5.25,0,0,0,2.37,4.11l4.74,2.73Z"/><path class="cls-6" d="M166.52,207.14v3.31c0,1.86-1.23,3.71-3.67,5.13l-23.8,13.75a17.84,17.84,0,0,1-8.48,2.11v-3.3a17.72,17.72,0,0,0,8.48-2.11l23.8-13.76C165.29,210.86,166.52,209,166.52,207.14Z"/><path class="cls-8" d="M36.36,244.34a6.35,6.35,0,0,0,5.74-.11l160.71-92.78a6.55,6.55,0,0,0,3-5.13V5.66a6.38,6.38,0,0,0-2.78-5,6.38,6.38,0,0,0-5.74.11L36.55,93.52a6.55,6.55,0,0,0-3,5.13V239.32A6.36,6.36,0,0,0,36.36,244.34Z"/><path class="cls-6" d="M42.1,244.23l160.71-92.78a6.57,6.57,0,0,0,3-5.13V5.65c0-1.89-1.33-2.65-3-1.71L42.1,96.73a6.55,6.55,0,0,0-3,5.12V242.52C39.14,244.41,40.46,245.17,42.1,244.23Z"/><path class="cls-3" d="M44.69,223.94V103.7a3.93,3.93,0,0,1,1.78-3.08l152-87.74c1-.56,1.78-.1,1.78,1V134.15a3.92,3.92,0,0,1-1.77,3.08L46.47,225C45.49,225.53,44.69,225.07,44.69,223.94Z"/><path class="cls-10" d="M44.69,223.94V103.7a3.93,3.93,0,0,1,1.78-3.08l152-87.74c1-.56,1.78-.1,1.78,1V134.15a3.92,3.92,0,0,1-1.77,3.08L46.47,225C45.49,225.53,44.69,225.07,44.69,223.94Z"/><path class="cls-3" d="M122.15,192.15a1.72,1.72,0,0,1-.89-.24,2.24,2.24,0,0,1-1-2.09,6.44,6.44,0,0,1,2.94-5.1h0a2,2,0,0,1,3.28,1.9,6.42,6.42,0,0,1-2.94,5.1A2.9,2.9,0,0,1,122.15,192.15Zm2.48-7.18a2.19,2.19,0,0,0-1.07.33h0a5.79,5.79,0,0,0-2.61,4.52,1.37,1.37,0,0,0,2.27,1.32,5.78,5.78,0,0,0,2.61-4.52,1.66,1.66,0,0,0-.64-1.51A1.16,1.16,0,0,0,124.63,185Z"/></g></g><g id="Window"><path class="cls-11" d="M226.61,35.51,70.09,125.77V241.12a2,2,0,0,0,3,1.74l2.79-1.62L223.69,156a6.45,6.45,0,0,0,2.92-5.06Z"/><path class="cls-12" d="M225.94,36.67V151a5.79,5.79,0,0,1-2.59,4.47L75.54,240.66l-2.79,1.61a1.25,1.25,0,0,1-.65.18,1.36,1.36,0,0,1-.93-.38,1.28,1.28,0,0,1-.4-.95v-115L225.94,36.67m.67-1.16L70.09,125.77V241.12a2,2,0,0,0,3,1.74l2.79-1.62L223.69,156a6.45,6.45,0,0,0,2.92-5.06V35.51Z"/><polygon class="cls-13" points="222.9 33.37 66.37 123.62 70.09 125.77 226.61 35.51 222.9 33.37"/><path class="cls-14" d="M71.14,242.88a2,2,0,0,1-1-1.76V125.77l-3.72-2.15V238.33a3,3,0,0,0,0,.43A3.07,3.07,0,0,0,67.92,241L71,242.8l.15.08Z"/><path class="cls-3" d="M66.37,123.67v-7.78a3.23,3.23,0,0,1,1.45-2.53L221.44,24.8a3.21,3.21,0,0,1,2.91,0l.8.46a3.23,3.23,0,0,1,1.46,2.52v7.8L70.09,125.82Z"/><path class="cls-15" d="M66.37,123.67v-7.78a3.23,3.23,0,0,1,1.45-2.53L221.44,24.8a3.21,3.21,0,0,1,2.91,0l.8.46a3.23,3.23,0,0,1,1.46,2.52v7.8L70.09,125.82Z"/><path class="cls-3" d="M70.09,118a3.21,3.21,0,0,1,1.46-2.52L225.16,26.94c.8-.47,1.45-.09,1.45.83v7.8L70.09,125.82Z"/><path class="cls-16" d="M70.09,118a3.21,3.21,0,0,1,1.46-2.52L225.16,26.94c.8-.47,1.45-.09,1.45.83v7.8L70.09,125.82Z"/><path class="cls-3" d="M70.52,116.6A3,3,0,0,0,70.1,118v7.79l-3.72-2.15v-7.79a3,3,0,0,1,.42-1.43Z"/><path class="cls-17" d="M70.52,116.6A3,3,0,0,0,70.1,118v7.79l-3.72-2.15v-7.79a3,3,0,0,1,.42-1.43Z"/><path class="cls-18" d="M219.78,35.22c0,.87.61,1.22,1.36.79a3,3,0,0,0,1.37-2.37c0-.87-.61-1.22-1.37-.79A3,3,0,0,0,219.78,35.22Z"/><path class="cls-18" d="M214.31,38.37c0,.87.62,1.23,1.37.79a3,3,0,0,0,1.37-2.37c0-.87-.62-1.22-1.37-.78A3,3,0,0,0,214.31,38.37Z"/><path class="cls-18" d="M208.85,41.53c0,.87.61,1.22,1.37.79A3,3,0,0,0,211.58,40c0-.87-.61-1.22-1.36-.79A3,3,0,0,0,208.85,41.53Z"/><path class="cls-18" d="M70.1,125.82v115.3a2,2,0,0,0,3,1.74l2.79-1.62,34.2-19.72V102.76l-40,23.06Z"/><polygon class="cls-18" points="112.81 104.71 112.81 216.7 223.33 152.89 223.33 40.9 112.81 104.71"/><path class="cls-3" d="M100.93,116.29,75.42,131a1.9,1.9,0,0,0-.86,1.48v2.66c0,.54.39.76.86.49l25.51-14.74a1.88,1.88,0,0,0,.85-1.48v-2.65C101.78,116.24,101.4,116,100.93,116.29Z"/><path class="cls-19" d="M100.93,116.29,75.42,131a1.9,1.9,0,0,0-.86,1.48v2.66c0,.54.39.76.86.49l25.51-14.74a1.88,1.88,0,0,0,.85-1.48v-2.65C101.78,116.24,101.4,116,100.93,116.29Z"/><path class="cls-8" d="M106.61,117.35l-.76-.73a3.29,3.29,0,0,0,.24-1.2,1.42,1.42,0,0,0-.56-1.29.88.88,0,0,0-.91,0,3,3,0,0,0-1.18,2.44,1.4,1.4,0,0,0,.56,1.29.71.71,0,0,0,.4.11,1,1,0,0,0,.51-.15,2,2,0,0,0,.67-.68l.62.59a.27.27,0,0,0,.2.09.28.28,0,0,0,.21-.1A.29.29,0,0,0,106.61,117.35Zm-2,0a.32.32,0,0,1-.33,0c-.12-.07-.26-.32-.26-.78a2.45,2.45,0,0,1,.88-1.93.51.51,0,0,1,.22-.07.23.23,0,0,1,.11,0c.12.07.26.32.26.78A2.45,2.45,0,0,1,104.62,117.35Z"/><path class="cls-8" d="M75.19,143.45l-.58.33s-.06,0-.06,0v-1.55a.16.16,0,0,1,.06-.12l.58-.33s.06,0,.06,0v1.55A.15.15,0,0,1,75.19,143.45Z"/><path class="cls-8" d="M76,143l-.57.33s-.06,0-.06,0v-1.55a.15.15,0,0,1,.06-.11l.57-.33s.06,0,.06,0v1.55A.13.13,0,0,1,76,143Z"/><path class="cls-8" d="M76.9,142.46l-.57.33s-.06,0-.06,0V141.2a.13.13,0,0,1,.06-.12l.57-.33s.06,0,.06.05v1.55A.15.15,0,0,1,76.9,142.46Z"/><path class="cls-8" d="M75.19,145.45l-.58.33s-.06,0-.06,0v-1.55a.16.16,0,0,1,.06-.12l.58-.33s.06,0,.06,0v1.55A.15.15,0,0,1,75.19,145.45Z"/><path class="cls-8" d="M76,145l-.57.33s-.06,0-.06,0v-1.55a.14.14,0,0,1,.06-.11l.57-.34s.06,0,.06,0v1.55A.14.14,0,0,1,76,145Z"/><path class="cls-8" d="M76.9,144.46l-.57.33s-.06,0-.06,0V143.2a.13.13,0,0,1,.06-.12l.57-.33s.06,0,.06.05v1.54A.16.16,0,0,1,76.9,144.46Z"/><path class="cls-8" d="M75.28,150.73l-.71-.43a.14.14,0,0,1,0-.13l.71-1.24c0-.06.08-.05.08,0v1.67C75.36,150.68,75.31,150.75,75.28,150.73Z"/><path class="cls-8" d="M75,149.78l.93-.53v.44l-.93.53c-.08.05-.14,0-.14-.14A.38.38,0,0,1,75,149.78Z"/><polygon class="cls-8" points="76.08 149.15 76.4 148.96 76.4 149.4 76.08 149.59 76.08 149.15"/><path class="cls-8" d="M77.25,148.69v1.62a.38.38,0,0,1-.14.31c-.08,0-.15,0-.15-.14v-1.4l-.39.22v-.44l.54-.31C77.19,148.51,77.25,148.57,77.25,148.69Z"/><path class="cls-8" d="M75.55,154.36a3.08,3.08,0,0,0-1,2.62c.12.85.62.82.67,1.21,0,0,0,.06.07,0l.63-.36s0-.06.06-.11a7.27,7.27,0,0,0,.71-2.4C76.71,154.4,76.19,153.93,75.55,154.36Z"/><path class="cls-8" d="M75.93,158.88l-.61.35s-.08,0-.08,0v-.56a.17.17,0,0,1,.08-.14l.61-.35s.07,0,.07.05v.56A.16.16,0,0,1,75.93,158.88Z"/><path class="cls-8" d="M75.7,141.28a3.66,3.66,0,0,0-1.1,2.32,2.43,2.43,0,0,0,.16,1.27l-.2,1.06c0,.09,0,.13.08.08l.61-.67a.93.93,0,0,0,.88-.26,3.66,3.66,0,0,0,1.1-2.32C77.38,141.28,76.6,140.53,75.7,141.28Zm.22,3.47c-.57.32-1-.12-1-1a2.68,2.68,0,0,1,1-2.16c.56-.32,1,.12,1,1A2.7,2.7,0,0,1,75.92,144.75Z"/><path class="cls-8" d="M75.7,161.69A3.66,3.66,0,0,0,74.6,164a2.43,2.43,0,0,0,.16,1.27l-.2,1.06c0,.09,0,.13.08.08l.61-.67a.93.93,0,0,0,.88-.26,3.66,3.66,0,0,0,1.1-2.32C77.38,161.69,76.6,160.94,75.7,161.69Zm.22,3.47c-.57.32-1-.12-1-1a2.66,2.66,0,0,1,1-2.15c.56-.33,1,.11,1,1A2.7,2.7,0,0,1,75.92,165.16Z"/><path class="cls-8" d="M76.56,169.17a1.41,1.41,0,0,1-.54,1.14c-.3.17-.54-.06-.54-.52a1.41,1.41,0,0,1,.54-1.14C76.32,168.48,76.56,168.71,76.56,169.17Z"/><path class="cls-8" d="M77.48,169.33a.93.93,0,0,1-.36.76c-.2.11-.36,0-.36-.34a.93.93,0,0,1,.36-.76C77.32,168.87,77.48,169,77.48,169.33Z"/><path class="cls-8" d="M76.65,172.43l-1.26.73v-1.61a1.07,1.07,0,0,1,.46-.87l.34-.2c.26-.15.46,0,.46.34Z"/><path class="cls-8" d="M77.18,170.28l-.35.2v1.85l.66-.38v-1.44C77.49,170.28,77.35,170.18,77.18,170.28Z"/><path class="cls-8" d="M74.56,171c0,.3.16.46.36.34a.93.93,0,0,0,.36-.76c0-.3-.16-.45-.36-.34A.93.93,0,0,0,74.56,171Z"/><path class="cls-8" d="M74.86,171.61l.35-.2v1.85l-.66.38V172.2A.76.76,0,0,1,74.86,171.61Z"/><path class="cls-12" d="M80.76,139.82l14.93-8.62c.4-.23.73-.07.73.37a1.56,1.56,0,0,1-.73,1.21L80.76,141.4c-.41.23-.73.07-.73-.37A1.57,1.57,0,0,1,80.76,139.82Z"/><path class="cls-12" d="M80.76,146.86l14.93-8.63c.4-.23.73-.07.73.37a1.56,1.56,0,0,1-.73,1.21l-14.93,8.62c-.41.23-.73.07-.73-.37A1.53,1.53,0,0,1,80.76,146.86Z"/><path class="cls-12" d="M80.76,153.89l14.93-8.63c.4-.23.73-.06.73.37a1.56,1.56,0,0,1-.73,1.21l-14.93,8.62c-.41.24-.73.07-.73-.37A1.53,1.53,0,0,1,80.76,153.89Z"/><path class="cls-12" d="M80.76,160.92l14.93-8.63c.4-.23.73-.06.73.37a1.56,1.56,0,0,1-.73,1.21l-14.93,8.62c-.41.24-.73.07-.73-.37A1.53,1.53,0,0,1,80.76,160.92Z"/><path class="cls-12" d="M80.76,168l14.93-8.63c.4-.23.73-.06.73.37a1.56,1.56,0,0,1-.73,1.21l-14.93,8.62c-.41.24-.73.07-.73-.36A1.53,1.53,0,0,1,80.76,168Z"/><path class="cls-8" d="M83.49,173.69l14.93-8.63c.41-.23.73-.06.73.37a1.53,1.53,0,0,1-.73,1.21l-14.93,8.62c-.4.24-.73.07-.73-.36A1.56,1.56,0,0,1,83.49,173.69Z"/><path class="cls-12" d="M83.49,178.44l14.93-8.63c.41-.23.73-.07.73.37a1.53,1.53,0,0,1-.73,1.21L83.49,180c-.4.23-.73.07-.73-.37A1.56,1.56,0,0,1,83.49,178.44Z"/><path class="cls-12" d="M83.49,183.18l14.93-8.62c.41-.23.73-.07.73.37a1.53,1.53,0,0,1-.73,1.21l-14.93,8.62c-.4.23-.73.07-.73-.37A1.59,1.59,0,0,1,83.49,183.18Z"/><path class="cls-12" d="M86.4,186.2l14.93-8.62c.4-.23.73-.07.73.37a1.58,1.58,0,0,1-.73,1.21L86.4,187.78c-.41.23-.73.07-.73-.37A1.57,1.57,0,0,1,86.4,186.2Z"/><path class="cls-8" d="M82.9,190.29l1.22-2.14c0-.08,0-.19,0-.22l-1.22-.74c-.05,0-.14.08-.14.19v2.88C82.76,190.38,82.85,190.39,82.9,190.29Z"/><path class="cls-12" d="M86.4,190.94l14.93-8.63c.4-.23.73-.06.73.37a1.56,1.56,0,0,1-.73,1.21L86.4,192.51c-.41.24-.73.07-.73-.37A1.53,1.53,0,0,1,86.4,190.94Z"/><path class="cls-8" d="M82.9,195l1.22-2.14c0-.08,0-.19,0-.22l-1.22-.74c-.05,0-.14.08-.14.2V195C82.76,195.11,82.85,195.12,82.9,195Z"/><path class="cls-12" d="M86.4,195.67,101.33,187c.4-.23.73-.06.73.37a1.56,1.56,0,0,1-.73,1.21L86.4,197.25c-.41.23-.73.06-.73-.37A1.53,1.53,0,0,1,86.4,195.67Z"/><path class="cls-8" d="M82.9,199.75l1.22-2.14c0-.08,0-.19,0-.21l-1.22-.74c-.05,0-.14.07-.14.19v2.88C82.76,199.84,82.85,199.86,82.9,199.75Z"/><path class="cls-12" d="M86.4,200.4l14.93-8.62c.4-.23.73-.07.73.37a1.56,1.56,0,0,1-.73,1.2L86.4,202c-.41.23-.73.07-.73-.37A1.53,1.53,0,0,1,86.4,200.4Z"/><path class="cls-8" d="M82.9,204.49l1.22-2.14c0-.09,0-.19,0-.22l-1.22-.74c-.05,0-.14.08-.14.19v2.88C82.76,204.57,82.85,204.59,82.9,204.49Z"/><path class="cls-12" d="M86.4,205.13l14.93-8.62c.4-.23.73-.07.73.37a1.58,1.58,0,0,1-.73,1.21L86.4,206.71c-.41.23-.73.07-.73-.37A1.57,1.57,0,0,1,86.4,205.13Z"/><path class="cls-8" d="M82.9,209.22l1.22-2.14c0-.08,0-.19,0-.22l-1.22-.74c-.05,0-.14.08-.14.19v2.88C82.76,209.31,82.85,209.32,82.9,209.22Z"/><path class="cls-12" d="M86.4,209.87l14.93-8.63c.4-.23.73-.06.73.37a1.56,1.56,0,0,1-.73,1.21L86.4,211.44c-.41.24-.73.07-.73-.37A1.53,1.53,0,0,1,86.4,209.87Z"/><path class="cls-8" d="M82.9,214l1.22-2.14c0-.08,0-.19,0-.22l-1.22-.74c-.05,0-.14.08-.14.2v2.88C82.76,214,82.85,214.06,82.9,214Z"/><path class="cls-12" d="M86.4,214.6,101.33,206c.4-.23.73-.06.73.37a1.56,1.56,0,0,1-.73,1.21L86.4,216.18c-.41.23-.73.06-.73-.37A1.53,1.53,0,0,1,86.4,214.6Z"/><path class="cls-8" d="M82.9,218.68l1.22-2.14c0-.08,0-.19,0-.21l-1.22-.74c-.05,0-.14.07-.14.19v2.88C82.76,218.77,82.85,218.79,82.9,218.68Z"/><path class="cls-12" d="M86.4,219.33l14.93-8.62c.4-.23.73-.07.73.37a1.56,1.56,0,0,1-.73,1.2L86.4,220.91c-.41.23-.73.07-.73-.37A1.53,1.53,0,0,1,86.4,219.33Z"/><path class="cls-8" d="M82.9,223.42l1.22-2.14c0-.09,0-.19,0-.22l-1.22-.74c-.05,0-.14.08-.14.19v2.88C82.76,223.5,82.85,223.52,82.9,223.42Z"/><path class="cls-11" d="M116.27,120.07l49.09-28.35a1.6,1.6,0,0,0,.73-1.26V78c0-.47-.33-.65-.73-.42l-49.09,28.34a1.6,1.6,0,0,0-.73,1.26v12.52C115.54,120.11,115.87,120.3,116.27,120.07Z"/><path class="cls-8" d="M120.55,111.23a.08.08,0,0,1,0,0l.32-1.34-.45.26h0a.05.05,0,0,1,0,0v-.24a.14.14,0,0,1,0-.06s0,0,0,0l.72-.41a0,0,0,0,1,0,0s0,0,0,0v.21a.53.53,0,0,1,0,.13l-.32,1.35a.43.43,0,0,0,0,.05l0,0-.21.12h0S120.55,111.25,120.55,111.23Z"/><path class="cls-8" d="M121.74,109a.45.45,0,0,1,.2-.06.18.18,0,0,1,.13.06.36.36,0,0,1,.08.15.78.78,0,0,1,0,.22v.41a1.15,1.15,0,0,1,0,.26,1.13,1.13,0,0,1-.08.24,1.07,1.07,0,0,1-.13.21.82.82,0,0,1-.2.17.38.38,0,0,1-.19.06.26.26,0,0,1-.13-.06.34.34,0,0,1-.08-.16.69.69,0,0,1,0-.22c0-.06,0-.12,0-.2s0-.14,0-.2a1.15,1.15,0,0,1,0-.26.85.85,0,0,1,.08-.24,1,1,0,0,1,.13-.22A1,1,0,0,1,121.74,109Zm.16.93a2.54,2.54,0,0,0,0-.39.34.34,0,0,0,0-.1.14.14,0,0,0,0-.07l-.05,0a.09.09,0,0,0-.08,0l-.07.06a.41.41,0,0,0,0,.09l0,.1s0,.07,0,.11v.38s0,.07,0,.1a.24.24,0,0,0,0,.07.05.05,0,0,0,0,0l.07,0a.27.27,0,0,0,.08-.07.56.56,0,0,0,.05-.08.3.3,0,0,0,0-.1A.41.41,0,0,0,121.9,109.9Z"/><path class="cls-8" d="M122.78,108.71v.18s0,.09,0,.13a.5.5,0,0,1,0,.13.44.44,0,0,1-.08.11.28.28,0,0,1-.1.09l-.1,0a.09.09,0,0,1-.07,0,.15.15,0,0,1,0-.08.36.36,0,0,1,0-.11s0-.06,0-.09,0,0,0-.09a.78.78,0,0,1,0-.14.56.56,0,0,1,0-.12.41.41,0,0,1,.07-.11.28.28,0,0,1,.1-.09l.1,0a.08.08,0,0,1,.07,0,.16.16,0,0,1,.05.08S122.77,108.67,122.78,108.71Zm.37-.48s0,0,0,0l0,0,.13-.07s0,0,0,0,0,0,0,0h0l-.74,1.92,0,0,0,0-.12.07h0s0,0,0,0h0Zm-.67.82a.19.19,0,0,0,0,.08s0,0,0,0a.1.1,0,0,0,0-.06.22.22,0,0,0,0-.09.43.43,0,0,0,0-.16.19.19,0,0,0,0-.08h0a.09.09,0,0,0,0,.06.2.2,0,0,0,0,.09Zm1,.07v.17a.68.68,0,0,1,0,.14.65.65,0,0,1,0,.13l-.07.11-.11.08a.14.14,0,0,1-.1,0,.09.09,0,0,1-.07,0,.2.2,0,0,1,0-.08.37.37,0,0,1,0-.12v-.17a.59.59,0,0,1,0-.14.5.5,0,0,1,0-.13.41.41,0,0,1,.07-.11l.1-.08a.19.19,0,0,1,.11,0,.11.11,0,0,1,.07,0,.2.2,0,0,1,0,.08A.37.37,0,0,1,123.47,109.12Zm-.3.33s0,.07,0,.08,0,0,0,0a.08.08,0,0,0,0,0s0-.06,0-.1v-.15s0-.07,0-.08,0,0,0,0a.21.21,0,0,0,0,.06.87.87,0,0,0,0,.1Z"/><path class="cls-8" d="M120.55,107.38l-.5-.76a9.93,9.93,0,0,0-1.16,3.14l.79-.06A7.43,7.43,0,0,1,120.55,107.38Z"/><path class="cls-8" d="M121.94,105.88v-1.29a5.49,5.49,0,0,0-1.89,2l.5.76A4.15,4.15,0,0,1,121.94,105.88Z"/><path class="cls-8" d="M119.57,110.89a6.84,6.84,0,0,1,.11-1.19l-.79.06a8.87,8.87,0,0,0-.16,1.61,6.21,6.21,0,0,0,.16,1.44l.79-.86A4.86,4.86,0,0,1,119.57,110.89Z"/><path class="cls-3" d="M125,106.24a2.67,2.67,0,0,0-1.16-1.8,1.87,1.87,0,0,0-1.88.15v1.29a1.38,1.38,0,0,1,1.39-.11,2,2,0,0,1,.86,1.33,4.8,4.8,0,0,1,.11,1.06,6.93,6.93,0,0,1-.11,1.19,7.41,7.41,0,0,1-.86,2.32,4.15,4.15,0,0,1-1.39,1.5,1.38,1.38,0,0,1-1.39.1,1.94,1.94,0,0,1-.87-1.32l-.79.86a2.62,2.62,0,0,0,1.16,1.79,1.89,1.89,0,0,0,1.89-.14,5.72,5.72,0,0,0,1.88-2,9.93,9.93,0,0,0,1.16-3.14,8.16,8.16,0,0,0,.16-1.62A5.69,5.69,0,0,0,125,106.24Z"/><path class="cls-8" d="M129.93,102.71l14.94-8.62c.4-.23.73-.07.73.37a1.56,1.56,0,0,1-.73,1.2l-14.94,8.63c-.4.23-.73.07-.73-.37A1.56,1.56,0,0,1,129.93,102.71Z"/><path class="cls-12" d="M129.93,105.89,155.8,91c.4-.23.72-.07.72.37a1.55,1.55,0,0,1-.72,1.21l-25.87,14.93c-.4.23-.73.06-.73-.37A1.56,1.56,0,0,1,129.93,105.89Z"/><path class="cls-11" d="M169.54,89.31,218.63,61a1.6,1.6,0,0,0,.73-1.26V47.19c0-.47-.33-.65-.73-.42L169.54,75.1a1.64,1.64,0,0,0-.73,1.27V88.89C168.81,89.35,169.14,89.54,169.54,89.31Z"/><path class="cls-8" d="M174.06,79.33a.75.75,0,0,1,0-.26.87.87,0,0,1,.1-.24.67.67,0,0,1,.14-.19.52.52,0,0,1,.16-.14.37.37,0,0,1,.16,0,.17.17,0,0,1,.14,0,.24.24,0,0,1,.1.12.48.48,0,0,1,0,.22c0,.05,0,.09,0,.13l0,.12,0,.12a.42.42,0,0,0,0,.1l-.28.77a.08.08,0,0,0,0,0s0,0,0,0l-.24.14s0,0,0,0a0,0,0,0,1,0,0v0l.19-.52a.36.36,0,0,1-.14,0,.21.21,0,0,1-.12,0,.36.36,0,0,1-.08-.12A.56.56,0,0,1,174.06,79.33Zm.6-.35a.15.15,0,0,0,0-.07.1.1,0,0,0,0,0h-.05l-.06,0-.06,0a.18.18,0,0,0-.05.07.36.36,0,0,0,0,.09.28.28,0,0,0,0,.09.15.15,0,0,0,0,.07.1.1,0,0,0,0,.05h.05l.06,0,.06,0,.05-.07a.36.36,0,0,0,0-.09A.28.28,0,0,0,174.66,79Z"/><path class="cls-8" d="M175.5,77.93a.26.26,0,0,1,.19-.06.17.17,0,0,1,.13,0,.27.27,0,0,1,.08.16.73.73,0,0,1,0,.22,1.27,1.27,0,0,1,0,.2,1.48,1.48,0,0,1,0,.21,1.07,1.07,0,0,1,0,.25.73.73,0,0,1-.08.25.8.8,0,0,1-.13.21.74.74,0,0,1-.19.16.45.45,0,0,1-.19.06.18.18,0,0,1-.14-.06.42.42,0,0,1-.08-.15l0-.22V78.8l0-.26a2.25,2.25,0,0,1,.08-.24.77.77,0,0,1,.14-.21A.49.49,0,0,1,175.5,77.93Zm.16.92v-.38s0-.07,0-.1l0-.07a.05.05,0,0,0-.05,0l-.07,0a.27.27,0,0,0-.08.07.2.2,0,0,0,0,.08.29.29,0,0,0,0,.1.41.41,0,0,0,0,.11,2.54,2.54,0,0,0,0,.39.31.31,0,0,0,0,.1.09.09,0,0,0,0,.07l0,0,.08,0s.05,0,.07-.06a.26.26,0,0,0,.05-.09l0-.1S175.66,78.89,175.66,78.85Z"/><path class="cls-8" d="M176.53,77.67v.17a.68.68,0,0,1,0,.14.65.65,0,0,1,0,.13.41.41,0,0,1-.07.11.39.39,0,0,1-.1.08.19.19,0,0,1-.1,0,.11.11,0,0,1-.08,0,.59.59,0,0,1,0-.08s0-.07,0-.12v-.17s0-.09,0-.14l0-.13a.44.44,0,0,1,.08-.11.27.27,0,0,1,.1-.08.16.16,0,0,1,.1,0,.09.09,0,0,1,.07,0,.2.2,0,0,1,0,.08A.37.37,0,0,1,176.53,77.67Zm.37-.49,0,0a0,0,0,0,1,0,0l.12-.07h0s0,0,0,0h0v0L176.37,79a.05.05,0,0,1,0,0s0,0,0,0l-.12.07h0a0,0,0,0,1,0,0h0v0Zm-.66.82s0,.07,0,.08,0,0,.05,0l0-.06a.3.3,0,0,0,0-.1v-.15a.13.13,0,0,0,0-.08s0,0,0,0l-.05.06a.31.31,0,0,0,0,.1A.38.38,0,0,0,176.24,78Zm1,.07a.54.54,0,0,1,0,.18.57.57,0,0,1,0,.13.5.5,0,0,1-.05.13.41.41,0,0,1-.07.11.28.28,0,0,1-.1.09l-.1,0a.09.09,0,0,1-.07,0,.16.16,0,0,1,0-.08.37.37,0,0,1,0-.11.28.28,0,0,1,0-.09.34.34,0,0,1,0-.09.71.71,0,0,1,0-.14.61.61,0,0,1,0-.12.41.41,0,0,1,.07-.11.28.28,0,0,1,.1-.09l.1,0a.09.09,0,0,1,.07,0,.18.18,0,0,1,.05.07A.49.49,0,0,1,177.22,78.07Zm-.29.34s0,.06,0,.08a0,0,0,0,0,.05,0,.1.1,0,0,0,0-.06s0-.05,0-.1v-.15s0-.06,0-.08h0a.1.1,0,0,0-.05.06s0,0,0,.09Z"/><path class="cls-8" d="M175.65,74.86V73.57a5.49,5.49,0,0,0-1.89,2l.5.76A4.15,4.15,0,0,1,175.65,74.86Z"/><path class="cls-3" d="M178.7,75.22a2.68,2.68,0,0,0-1.17-1.8,1.87,1.87,0,0,0-1.88.15v1.29a1.38,1.38,0,0,1,1.39-.11,2,2,0,0,1,.86,1.33,4.76,4.76,0,0,1,.12,1.06,7,7,0,0,1-.12,1.19,7.26,7.26,0,0,1-.86,2.31,4.1,4.1,0,0,1-1.39,1.51,1.38,1.38,0,0,1-1.39.1,1.9,1.9,0,0,1-.86-1.32,4.29,4.29,0,0,1-.12-1.06,6,6,0,0,1,.12-1.19,7.17,7.17,0,0,1,.86-2.32l-.5-.76a9.93,9.93,0,0,0-1.16,3.14,8.87,8.87,0,0,0-.16,1.61,6.21,6.21,0,0,0,.16,1.44,2.62,2.62,0,0,0,1.16,1.79,1.89,1.89,0,0,0,1.89-.14,5.72,5.72,0,0,0,1.88-2h0a9.94,9.94,0,0,0,1.17-3.14,9,9,0,0,0,.15-1.62A6.22,6.22,0,0,0,178.7,75.22Z"/><path class="cls-8" d="M183.63,71.69l14.94-8.62c.4-.23.73-.07.73.37a1.56,1.56,0,0,1-.73,1.2l-14.94,8.63c-.4.23-.73.07-.73-.37A1.56,1.56,0,0,1,183.63,71.69Z"/><path class="cls-12" d="M183.63,74.87,209.5,59.94c.4-.23.72-.07.72.37a1.55,1.55,0,0,1-.72,1.21L183.63,76.45c-.4.23-.73.06-.73-.37A1.56,1.56,0,0,1,183.63,74.87Z"/><path class="cls-8" d="M121.27,123.5l10.48-6.07c.4-.23.73-.07.73.37a1.56,1.56,0,0,1-.73,1.21l-10.48,6.07c-.4.23-.72.06-.72-.37A1.55,1.55,0,0,1,121.27,123.5Z"/><path class="cls-12" d="M219,71h0m-.31.17v80a1,1,0,0,1-.39.68L116.22,210.8v-80a.92.92,0,0,1,.39-.68l1.27-.74a2.28,2.28,0,0,0,1.07-1.84V122.9a1,1,0,0,1,.39-.68L134,113.76v4.3a1.1,1.1,0,0,0,1.07,1.2,1.38,1.38,0,0,0,.66-.19l83-47.9M134.3,113.58h0M219,70.33a.65.65,0,0,0-.33.1L135.4,118.48a.65.65,0,0,1-.33.1c-.24,0-.4-.19-.4-.52v-4.62c0-.33-.17-.52-.4-.52a.65.65,0,0,0-.33.1L119,121.64a1.61,1.61,0,0,0-.72,1.26v4.63a1.62,1.62,0,0,1-.73,1.26l-1.28.73a1.64,1.64,0,0,0-.73,1.27v80.34c0,.32.17.51.41.51a.68.68,0,0,0,.32-.09l102.36-59.1a1.62,1.62,0,0,0,.73-1.26V70.85c0-.33-.16-.52-.4-.52Z"/><path class="cls-12" d="M122.13,134.28a.74.74,0,0,1-.36-.09.85.85,0,0,1-.38-.77v-3a2,2,0,0,1,.89-1.55l8.12-4.68a.84.84,0,0,1,.85,0,.83.83,0,0,1,.38.76v3.05a2,2,0,0,1-.89,1.55l-8.12,4.68A.93.93,0,0,1,122.13,134.28Zm.49-4.88a1.29,1.29,0,0,0-.56,1v3c0,.12,0,.18,0,.18s.08,0,.17,0l8.12-4.68a1.26,1.26,0,0,0,.56-1v-3.05a.31.31,0,0,0,0-.18s-.08,0-.18,0Z"/><path class="cls-12" d="M123.1,130.66l5.29-3.07c.27-.16.49,0,.49.24a1,1,0,0,1-.49.81l-5.29,3.07c-.27.16-.48,0-.48-.25A1,1,0,0,1,123.1,130.66Z"/><path class="cls-8" d="M129.62,127.09l.44.62s.05,0,.07,0l.44-1.13c0-.05,0-.1,0-.08l-.87.5A.11.11,0,0,0,129.62,127.09Z"/><path class="cls-3" d="M121,163.84c.39-.23.7-.05.7.4a1.56,1.56,0,0,1-.7,1.22c-.39.22-.7,0-.7-.41A1.52,1.52,0,0,1,121,163.84Z"/><path class="cls-3" d="M126.47,157.53c.39-.23.7-.05.7.4a1.56,1.56,0,0,1-.7,1.22c-.39.22-.7,0-.7-.41A1.52,1.52,0,0,1,126.47,157.53Z"/><path class="cls-3" d="M131.94,154.37c.38-.22.7,0,.7.41a1.57,1.57,0,0,1-.7,1.21c-.39.23-.71,0-.71-.4A1.57,1.57,0,0,1,131.94,154.37Z"/><path class="cls-3" d="M137.4,152.6c.39-.22.7,0,.7.41a1.52,1.52,0,0,1-.7,1.21c-.39.23-.7.05-.7-.4A1.56,1.56,0,0,1,137.4,152.6Z"/><path class="cls-3" d="M142.87,146.92c.39-.22.7,0,.7.41a1.54,1.54,0,0,1-.7,1.21c-.39.23-.7.05-.7-.4A1.56,1.56,0,0,1,142.87,146.92Z"/><path class="cls-3" d="M148.33,144.91c.39-.23.7,0,.7.4a1.54,1.54,0,0,1-.7,1.22c-.39.22-.7,0-.7-.41A1.54,1.54,0,0,1,148.33,144.91Z"/><path class="cls-3" d="M153.79,138.6c.39-.23.7,0,.7.4a1.54,1.54,0,0,1-.7,1.22c-.39.22-.7,0-.7-.41A1.54,1.54,0,0,1,153.79,138.6Z"/><path class="cls-3" d="M159.26,137c.38-.22.7,0,.7.41a1.57,1.57,0,0,1-.7,1.21c-.39.23-.71,0-.71-.4A1.57,1.57,0,0,1,159.26,137Z"/><path class="cls-3" d="M164.72,119.67c.39-.22.7,0,.7.41a1.54,1.54,0,0,1-.7,1.21c-.39.23-.7,0-.7-.4A1.54,1.54,0,0,1,164.72,119.67Z"/><path class="cls-3" d="M170.18,129.13c.39-.22.71,0,.71.41a1.57,1.57,0,0,1-.71,1.22c-.38.22-.7,0-.7-.41A1.58,1.58,0,0,1,170.18,129.13Z"/><path class="cls-3" d="M175.65,129.13c.39-.22.7,0,.7.41a1.56,1.56,0,0,1-.7,1.22c-.39.22-.7,0-.7-.41A1.56,1.56,0,0,1,175.65,129.13Z"/><path class="cls-3" d="M181.11,129.13c.39-.22.7,0,.7.41a1.56,1.56,0,0,1-.7,1.22c-.39.22-.7,0-.7-.41A1.56,1.56,0,0,1,181.11,129.13Z"/><path class="cls-3" d="M186.58,119.67c.38-.22.7,0,.7.41a1.57,1.57,0,0,1-.7,1.21c-.39.23-.71,0-.71-.4A1.55,1.55,0,0,1,186.58,119.67Z"/><path class="cls-3" d="M192,117.86c.39-.23.7,0,.7.4a1.54,1.54,0,0,1-.7,1.22c-.39.22-.7,0-.7-.41A1.54,1.54,0,0,1,192,117.86Z"/><path class="cls-3" d="M197.52,110.21c.39-.23.71,0,.71.4a1.57,1.57,0,0,1-.71,1.22c-.38.22-.7,0-.7-.41A1.57,1.57,0,0,1,197.52,110.21Z"/><ellipse class="cls-3" cx="202.97" cy="111.02" rx="0.99" ry="0.57" transform="translate(5.35 231.29) rotate(-60)"/><ellipse class="cls-3" cx="208.43" cy="111.02" rx="0.99" ry="0.57" transform="translate(8.08 236.03) rotate(-60)"/><path class="cls-3" d="M213.9,107.05c.38-.22.7,0,.7.41a1.55,1.55,0,0,1-.7,1.21c-.39.23-.71,0-.71-.4A1.57,1.57,0,0,1,213.9,107.05Z"/><path class="cls-3" d="M121,164.82a.19.19,0,0,1-.11,0,.17.17,0,0,1,0-.24l5.51-6.34.05,0,5.42-3.13,5.46-1.77,5.43-5.65a.18.18,0,0,1,.07-.05l5.42-2,5.44-6.28a.14.14,0,0,1,.08-.05l5.37-1.55,5.44-17.27a.19.19,0,0,1,.14-.12.21.21,0,0,1,.17.09l5.41,9.38H181l5.41-9.38a.14.14,0,0,1,.09-.08l5.42-1.79,5.43-7.61a.17.17,0,0,1,.13-.07h10.89l5.42-3.13a.17.17,0,0,1,.17.29l-5.46,3.15a.16.16,0,0,1-.09,0H197.59l-5.41,7.58a.15.15,0,0,1-.09.06l-5.4,1.79L181.26,130a.18.18,0,0,1-.15.08H170.18A.16.16,0,0,1,170,130l-5.27-9.13-5.35,17a.15.15,0,0,1-.12.11l-5.41,1.57-5.43,6.27-.07,0-5.43,2-5.44,5.65-.07,0L132,155.34l-5.37,3.11-5.5,6.31A.16.16,0,0,1,121,164.82Z"/><path class="cls-12" d="M121,168.14a.32.32,0,0,1-.29-.17.33.33,0,0,1,.12-.46l92.89-53.63a.34.34,0,0,1,.46.12.33.33,0,0,1-.13.46l-92.88,53.63A.37.37,0,0,1,121,168.14Z"/><path class="cls-3" d="M121,160.68c.39-.22.7,0,.7.41a1.54,1.54,0,0,1-.7,1.21c-.39.23-.7,0-.7-.4A1.54,1.54,0,0,1,121,160.68Z"/><path class="cls-3" d="M126.47,151.22c.39-.23.7-.05.7.4a1.56,1.56,0,0,1-.7,1.22c-.39.22-.7,0-.7-.41A1.54,1.54,0,0,1,126.47,151.22Z"/><ellipse class="cls-3" cx="131.94" cy="150.85" rx="0.99" ry="0.57" transform="translate(-64.67 189.69) rotate(-60)"/><path class="cls-3" d="M137.4,138.6c.39-.23.7,0,.7.4a1.54,1.54,0,0,1-.7,1.22c-.39.22-.7,0-.7-.41A1.54,1.54,0,0,1,137.4,138.6Z"/><path class="cls-3" d="M142.87,141.75c.39-.22.7,0,.7.41a1.52,1.52,0,0,1-.7,1.21c-.39.23-.7,0-.7-.4A1.56,1.56,0,0,1,142.87,141.75Z"/><path class="cls-3" d="M148.33,140.18c.39-.23.7-.05.7.4a1.56,1.56,0,0,1-.7,1.22c-.39.22-.7,0-.7-.41A1.52,1.52,0,0,1,148.33,140.18Z"/><path class="cls-3" d="M153.79,135.44c.39-.22.7,0,.7.41a1.56,1.56,0,0,1-.7,1.22c-.39.22-.7,0-.7-.41A1.56,1.56,0,0,1,153.79,135.44Z"/><path class="cls-3" d="M159.26,129.13c.38-.22.7,0,.7.41a1.58,1.58,0,0,1-.7,1.22c-.39.22-.71,0-.71-.41A1.57,1.57,0,0,1,159.26,129.13Z"/><path class="cls-3" d="M164.72,127.56c.39-.23.7,0,.7.4a1.56,1.56,0,0,1-.7,1.22c-.39.22-.7,0-.7-.41A1.54,1.54,0,0,1,164.72,127.56Z"/><path class="cls-3" d="M170.18,122.83c.39-.23.71,0,.71.4a1.57,1.57,0,0,1-.71,1.22c-.38.22-.7,0-.7-.41A1.55,1.55,0,0,1,170.18,122.83Z"/><path class="cls-3" d="M175.65,122.83c.39-.23.7,0,.7.4a1.56,1.56,0,0,1-.7,1.22c-.39.22-.7,0-.7-.41A1.52,1.52,0,0,1,175.65,122.83Z"/><path class="cls-3" d="M181.11,110.21c.39-.23.7,0,.7.4a1.56,1.56,0,0,1-.7,1.22c-.39.22-.7,0-.7-.41A1.54,1.54,0,0,1,181.11,110.21Z"/><path class="cls-3" d="M186.58,116.47c.38-.22.7,0,.7.41a1.57,1.57,0,0,1-.7,1.21c-.39.23-.71,0-.71-.4A1.57,1.57,0,0,1,186.58,116.47Z"/><path class="cls-3" d="M192,110.21c.39-.23.7,0,.7.4a1.56,1.56,0,0,1-.7,1.22c-.39.22-.7,0-.7-.41A1.54,1.54,0,0,1,192,110.21Z"/><path class="cls-3" d="M197.5,107.05c.39-.22.71,0,.71.41a1.53,1.53,0,0,1-.71,1.21c-.38.23-.7,0-.7-.4A1.58,1.58,0,0,1,197.5,107.05Z"/><path class="cls-3" d="M203,107.05c.39-.22.7,0,.7.41a1.52,1.52,0,0,1-.7,1.21c-.39.23-.7,0-.7-.4A1.56,1.56,0,0,1,203,107.05Z"/><path class="cls-3" d="M208.43,103.9c.39-.23.7,0,.7.4a1.54,1.54,0,0,1-.7,1.22c-.39.22-.7,0-.7-.41A1.54,1.54,0,0,1,208.43,103.9Z"/><path class="cls-3" d="M213.9,103.9c.38-.23.7,0,.7.4a1.57,1.57,0,0,1-.7,1.22c-.39.22-.71,0-.71-.41A1.55,1.55,0,0,1,213.9,103.9Z"/><path class="cls-3" d="M121,161.66l-.09,0a.18.18,0,0,1-.06-.23l5.51-9.49a.15.15,0,0,1,.11-.08l5.34-1.14,5.43-11.36a.17.17,0,0,1,.23-.08l5.41,3.13,5.36-1.55,5.42-4.71,5.46-6.29a.16.16,0,0,1,.08-.06l5.43-1.56,5.43-4.71a.15.15,0,0,1,.11,0h5.36L181,111a.17.17,0,0,1,.13-.1.16.16,0,0,1,.15.06l5.34,6.16,5.33-6.16.05,0,5.48-3.16a.11.11,0,0,1,.08,0h5.42l5.41-3.12.08,0h5.47a.17.17,0,0,1,0,.34h-5.42L203.07,108l-.08,0h-5.42l-5.42,3.13-5.45,6.29a.18.18,0,0,1-.25,0l-5.29-6.11L175.8,123.7a.15.15,0,0,1-.15.1h-5.4l-5.42,4.7-.06,0-5.42,1.56-5.44,6.28-5.47,4.74-.06,0-5.46,1.58a.15.15,0,0,1-.13,0l-5.32-3.06-5.38,11.27a.16.16,0,0,1-.12.09l-5.35,1.14-5.47,9.43A.16.16,0,0,1,121,161.66Z"/><g class="cls-20"><path d="M121,160.68c.39-.22.7,0,.7.41a1.54,1.54,0,0,1-.7,1.21c-.39.23-.7,0-.7-.4A1.54,1.54,0,0,1,121,160.68Z"/><path d="M126.47,151.22c.39-.23.7-.05.7.4a1.56,1.56,0,0,1-.7,1.22c-.39.22-.7,0-.7-.41A1.54,1.54,0,0,1,126.47,151.22Z"/><ellipse cx="131.94" cy="150.85" rx="0.99" ry="0.57" transform="translate(-64.67 189.69) rotate(-60)"/><path d="M137.4,138.6c.39-.23.7,0,.7.4a1.54,1.54,0,0,1-.7,1.22c-.39.22-.7,0-.7-.41A1.54,1.54,0,0,1,137.4,138.6Z"/><path d="M142.87,141.75c.39-.22.7,0,.7.41a1.52,1.52,0,0,1-.7,1.21c-.39.23-.7,0-.7-.4A1.56,1.56,0,0,1,142.87,141.75Z"/><path d="M148.33,140.18c.39-.23.7-.05.7.4a1.56,1.56,0,0,1-.7,1.22c-.39.22-.7,0-.7-.41A1.52,1.52,0,0,1,148.33,140.18Z"/><path d="M153.79,135.44c.39-.22.7,0,.7.41a1.56,1.56,0,0,1-.7,1.22c-.39.22-.7,0-.7-.41A1.56,1.56,0,0,1,153.79,135.44Z"/><path d="M159.26,129.13c.38-.22.7,0,.7.41a1.58,1.58,0,0,1-.7,1.22c-.39.22-.71,0-.71-.41A1.57,1.57,0,0,1,159.26,129.13Z"/><path d="M164.72,127.56c.39-.23.7,0,.7.4a1.56,1.56,0,0,1-.7,1.22c-.39.22-.7,0-.7-.41A1.54,1.54,0,0,1,164.72,127.56Z"/><path d="M170.18,122.83c.39-.23.71,0,.71.4a1.57,1.57,0,0,1-.71,1.22c-.38.22-.7,0-.7-.41A1.55,1.55,0,0,1,170.18,122.83Z"/><path d="M175.65,122.83c.39-.23.7,0,.7.4a1.56,1.56,0,0,1-.7,1.22c-.39.22-.7,0-.7-.41A1.52,1.52,0,0,1,175.65,122.83Z"/><path d="M181.11,110.21c.39-.23.7,0,.7.4a1.56,1.56,0,0,1-.7,1.22c-.39.22-.7,0-.7-.41A1.54,1.54,0,0,1,181.11,110.21Z"/><path d="M186.58,116.47c.38-.22.7,0,.7.41a1.57,1.57,0,0,1-.7,1.21c-.39.23-.71,0-.71-.4A1.57,1.57,0,0,1,186.58,116.47Z"/><path d="M192,110.21c.39-.23.7,0,.7.4a1.56,1.56,0,0,1-.7,1.22c-.39.22-.7,0-.7-.41A1.54,1.54,0,0,1,192,110.21Z"/><path d="M197.5,107.05c.39-.22.71,0,.71.41a1.53,1.53,0,0,1-.71,1.21c-.38.23-.7,0-.7-.4A1.58,1.58,0,0,1,197.5,107.05Z"/><path d="M203,107.05c.39-.22.7,0,.7.41a1.52,1.52,0,0,1-.7,1.21c-.39.23-.7,0-.7-.4A1.56,1.56,0,0,1,203,107.05Z"/><path d="M208.43,103.9c.39-.23.7,0,.7.4a1.54,1.54,0,0,1-.7,1.22c-.39.22-.7,0-.7-.41A1.54,1.54,0,0,1,208.43,103.9Z"/><path d="M213.9,103.9c.38-.23.7,0,.7.4a1.57,1.57,0,0,1-.7,1.22c-.39.22-.71,0-.71-.41A1.55,1.55,0,0,1,213.9,103.9Z"/><path d="M121,161.66l-.09,0a.18.18,0,0,1-.06-.23l5.51-9.49a.15.15,0,0,1,.11-.08l5.34-1.14,5.43-11.36a.17.17,0,0,1,.23-.08l5.41,3.13,5.36-1.55,5.42-4.71,5.46-6.29a.16.16,0,0,1,.08-.06l5.43-1.56,5.43-4.71a.15.15,0,0,1,.11,0h5.36L181,111a.17.17,0,0,1,.13-.1.16.16,0,0,1,.15.06l5.34,6.16,5.33-6.16.05,0,5.48-3.16a.11.11,0,0,1,.08,0h5.42l5.41-3.12.08,0h5.47a.17.17,0,0,1,0,.34h-5.42L203.07,108l-.08,0h-5.42l-5.42,3.13-5.45,6.29a.18.18,0,0,1-.25,0l-5.29-6.11L175.8,123.7a.15.15,0,0,1-.15.1h-5.4l-5.42,4.7-.06,0-5.42,1.56-5.44,6.28-5.47,4.74-.06,0-5.46,1.58a.15.15,0,0,1-.13,0l-5.32-3.06-5.38,11.27a.16.16,0,0,1-.12.09l-5.35,1.14-5.47,9.43A.16.16,0,0,1,121,161.66Z"/></g><path class="cls-12" d="M123.87,137.27l5.29-3.07c.27-.15.49,0,.49.25a1,1,0,0,1-.49.8l-5.29,3.07c-.27.16-.48.05-.48-.24A1,1,0,0,1,123.87,137.27Z"/><path class="cls-3" d="M121,138.6c.39-.23.7,0,.7.4a1.54,1.54,0,0,1-.7,1.22c-.39.22-.7,0-.7-.41A1.54,1.54,0,0,1,121,138.6Z"/><path class="cls-15" d="M121,138.6c.39-.23.7,0,.7.4a1.54,1.54,0,0,1-.7,1.22c-.39.22-.7,0-.7-.41A1.54,1.54,0,0,1,121,138.6Z"/><path class="cls-12" d="M123.87,140.42l5.29-3.07c.27-.16.49,0,.49.24a1,1,0,0,1-.49.81l-5.29,3.07c-.27.15-.48,0-.48-.25A1,1,0,0,1,123.87,140.42Z"/><path class="cls-3" d="M121,141.75c.39-.22.7,0,.7.41a1.52,1.52,0,0,1-.7,1.21c-.39.23-.7,0-.7-.4A1.56,1.56,0,0,1,121,141.75Z"/><path class="cls-3" d="M121,183.79a.18.18,0,0,1-.12,0,.17.17,0,0,1,0-.24l2.77-2.85,2.72-.34,2.75-3.55,2.75.37,2.68-2.41,2.72-1.64,2.79-3.85,2.76.86,2.65-2.37a.18.18,0,0,1,.24,0,.17.17,0,0,1,0,.24l-2.8,2.5-2.71-.85-2.71,3.73L134.75,175l-2.76,2.5-2.71-.37-2.72,3.5-2.74.35-2.69,2.77A.18.18,0,0,1,121,183.79Z"/><path class="cls-8" d="M122.09,174.56l.07-.06.07-.05a.82.82,0,0,1,.42-.13.54.54,0,0,1,.32.13.7.7,0,0,1,.22.34,1.8,1.8,0,0,1,.08.54,2.72,2.72,0,0,1-.08.63,2.83,2.83,0,0,1-.54,1.1,1.75,1.75,0,0,1-.42.36.86.86,0,0,1-.41.12.48.48,0,0,1-.33-.12.92.92,0,0,1-.22-.35,1.73,1.73,0,0,1-.07-.54c0-.12,0-.24,0-.35s0-.22.07-.33.06-.21.1-.31a2.47,2.47,0,0,1,.1-.29l.73-2.07a.66.66,0,0,0,0-.11.23.23,0,0,1,.08-.09l.23-.13a0,0,0,0,1,.06,0,.15.15,0,0,1,0,.08.07.07,0,0,1,0,.05s0,0,0,0Zm-.51,1.75a1,1,0,0,0,0,.32.63.63,0,0,0,.13.23.32.32,0,0,0,.21.08.44.44,0,0,0,.27-.08,1.49,1.49,0,0,0,.28-.23,1.38,1.38,0,0,0,.2-.33,1.63,1.63,0,0,0,.13-.37,1.65,1.65,0,0,0,0-.38,1,1,0,0,0,0-.32.48.48,0,0,0-.13-.22.29.29,0,0,0-.2-.09.52.52,0,0,0-.28.08,1,1,0,0,0-.27.24,1.77,1.77,0,0,0-.21.32,2.32,2.32,0,0,0-.13.37A1.69,1.69,0,0,0,121.58,176.31Z"/><path class="cls-8" d="M124,175.32a.84.84,0,0,0,0,.17.23.23,0,0,0,.11.11.37.37,0,0,0,.19,0,1.38,1.38,0,0,0,.31-.13,1.3,1.3,0,0,0,.23-.18,1.28,1.28,0,0,0,.2-.26,1.13,1.13,0,0,0,.13-.32,1.17,1.17,0,0,0,0-.38.8.8,0,0,0,0-.3.26.26,0,0,0-.14-.15.3.3,0,0,0-.19,0,1.12,1.12,0,0,0-.24.1l-.33.2a.08.08,0,0,1-.08,0,.13.13,0,0,1,0-.1v-.22a.22.22,0,0,1,0-.11s0-.08,0-.11L125,172l-1.15.66a.06.06,0,0,1-.08,0,.13.13,0,0,1,0-.1v-.22a.35.35,0,0,1,0-.14.36.36,0,0,1,.08-.09l1.58-.91a0,0,0,0,1,.07,0,.12.12,0,0,1,0,.09v.23a.3.3,0,0,1,0,.12,1.12,1.12,0,0,1,0,.13l-.71,1.58a.85.85,0,0,1,.37-.11.39.39,0,0,1,.28.08.7.7,0,0,1,.19.29,1.65,1.65,0,0,1,.06.48,2,2,0,0,1-.08.61,2.41,2.41,0,0,1-.21.55,2.36,2.36,0,0,1-.32.44,1.52,1.52,0,0,1-.38.31,1.23,1.23,0,0,1-.46.18.53.53,0,0,1-.32-.07.5.5,0,0,1-.19-.24,1,1,0,0,1-.07-.36.2.2,0,0,1,0-.11.18.18,0,0,1,.06-.08l.18-.11h.07A.16.16,0,0,1,124,175.32Z"/><path class="cls-8" d="M126.33,174a1.09,1.09,0,0,0,0,.17.29.29,0,0,0,.11.11.3.3,0,0,0,.19,0,1,1,0,0,0,.31-.12,1.3,1.3,0,0,0,.23-.18,1.64,1.64,0,0,0,.2-.26,1.79,1.79,0,0,0,.13-.32,1.17,1.17,0,0,0,0-.38.69.69,0,0,0,0-.31.23.23,0,0,0-.13-.14.25.25,0,0,0-.19,0,1,1,0,0,0-.24.1l-.34.19a0,0,0,0,1-.07,0,.15.15,0,0,1,0-.1v-.22a.25.25,0,0,1,0-.12,1,1,0,0,1,0-.1l.72-1.61-1.15.66a.06.06,0,0,1-.08,0,.17.17,0,0,1,0-.1V171a.35.35,0,0,1,0-.14.18.18,0,0,1,.08-.09l1.57-.91a.06.06,0,0,1,.08,0,.15.15,0,0,1,0,.1v.22a.5.5,0,0,1,0,.12.69.69,0,0,1,0,.13l-.71,1.59a.88.88,0,0,1,.37-.12.45.45,0,0,1,.28.09.64.64,0,0,1,.19.29,1.65,1.65,0,0,1,.06.48,2.09,2.09,0,0,1-.08.61,2.17,2.17,0,0,1-.21.54,2.44,2.44,0,0,1-.32.45,1.79,1.79,0,0,1-.38.31,1.23,1.23,0,0,1-.47.17.48.48,0,0,1-.32-.07.45.45,0,0,1-.18-.24.8.8,0,0,1-.07-.36.26.26,0,0,1,0-.11A.14.14,0,0,1,126,174l.18-.11s.06,0,.07,0A.16.16,0,0,1,126.33,174Z"/><path class="cls-12" d="M121.5,186l23.61-13.68c.27-.16.49-.05.49.24a1.06,1.06,0,0,1-.49.81L121.5,187c-.26.16-.48.05-.48-.25A1,1,0,0,1,121.5,186Z"/><path class="cls-12" d="M121.5,170.18l5.29-3.07c.27-.16.49-.05.49.24a1.06,1.06,0,0,1-.49.81l-5.29,3.07c-.26.15-.48,0-.48-.25A1,1,0,0,1,121.5,170.18Z"/><path class="cls-3" d="M121,202.7a.18.18,0,0,1-.12,0,.17.17,0,0,1,0-.24l2.77-2.85,2.74-.34,2.76-2.42,2.66-.72,2.77-5.52,2.78,1.36,2.69-2.36h0l2.66-.51,2.69-4.65a.18.18,0,0,1,.23-.06.17.17,0,0,1,.06.23L143,189.34l-2.77.53-2.78,2.45L134.74,191l-2.69,5.35-2.76.76-2.74,2.42-2.73.34-2.69,2.77A.18.18,0,0,1,121,202.7Z"/><g class="cls-20"><path d="M121,202.7a.18.18,0,0,1-.12,0,.17.17,0,0,1,0-.24l2.77-2.85,2.74-.34,2.76-2.42,2.66-.72,2.77-5.52,2.78,1.36,2.69-2.36h0l2.66-.51,2.69-4.65a.18.18,0,0,1,.23-.06.17.17,0,0,1,.06.23L143,189.34l-2.77.53-2.78,2.45L134.74,191l-2.69,5.35-2.76.76-2.74,2.42-2.73.34-2.69,2.77A.18.18,0,0,1,121,202.7Z"/></g><path class="cls-8" d="M122.4,196a.31.31,0,0,1,0,.13.2.2,0,0,1-.07.1l-.17.09s0,0-.07,0a.15.15,0,0,1,0-.1v-3.39l-.64,1.13s0,.07-.08.08a.08.08,0,0,1-.08,0l-.09-.13a.14.14,0,0,1,0-.11.33.33,0,0,1,0-.14l.85-1.5a.3.3,0,0,1,.07-.08l.06-.05.17-.09s0,0,.07,0a.17.17,0,0,1,0,.1Z"/><path class="cls-8" d="M124.15,192.89a2.27,2.27,0,0,0,.18-.44,1.75,1.75,0,0,0,.06-.48.77.77,0,0,0-.12-.48c-.08-.1-.22-.09-.39,0a.68.68,0,0,0-.24.2,1.45,1.45,0,0,0-.17.26,2.81,2.81,0,0,0-.1.31c0,.11-.05.21-.06.32a.5.5,0,0,1,0,.13.12.12,0,0,1-.07.07l-.18.11a0,0,0,0,1-.06,0s0,0,0-.08a2.4,2.4,0,0,1,.07-.5,2.76,2.76,0,0,1,.18-.53,2.41,2.41,0,0,1,.3-.48,1.21,1.21,0,0,1,.4-.35.62.62,0,0,1,.38-.12.35.35,0,0,1,.28.12.58.58,0,0,1,.17.32,1.75,1.75,0,0,1,.06.48c0,.13,0,.25,0,.36a2.14,2.14,0,0,1-.06.35c0,.11-.07.23-.12.35s-.11.24-.18.37l-.89,1.8,1.22-.71a.08.08,0,0,1,.08,0,.13.13,0,0,1,0,.1v.22a.31.31,0,0,1,0,.13.21.21,0,0,1-.08.1l-1.72,1a.06.06,0,0,1-.08,0,.15.15,0,0,1,0-.1v-.22a.51.51,0,0,1,0-.13l.07-.16Z"/><path class="cls-8" d="M127.31,190.66c0,.18,0,.36,0,.52s0,.33,0,.52a4.17,4.17,0,0,1-.06.71,2.64,2.64,0,0,1-.19.64,2.38,2.38,0,0,1-.31.54,1.57,1.57,0,0,1-.46.39.71.71,0,0,1-.45.13.42.42,0,0,1-.31-.17,1,1,0,0,1-.19-.43,3.06,3.06,0,0,1-.06-.63c0-.19,0-.36,0-.52s0-.34,0-.52a4.17,4.17,0,0,1,.06-.71,2.51,2.51,0,0,1,.19-.64,2.11,2.11,0,0,1,.31-.55,1.67,1.67,0,0,1,.45-.39.76.76,0,0,1,.46-.13.46.46,0,0,1,.31.18,1,1,0,0,1,.19.43A2.93,2.93,0,0,1,127.31,190.66Zm-1.66,2a1.25,1.25,0,0,0,.17.76c.11.13.27.13.47,0a1.18,1.18,0,0,0,.48-.55,2.58,2.58,0,0,0,.17-1v-1a1.29,1.29,0,0,0-.17-.77c-.11-.12-.27-.13-.48,0a1.19,1.19,0,0,0-.47.56,2.58,2.58,0,0,0-.17,1v1Z"/><path class="cls-12" d="M121.5,204.87l23.61-13.68c.27-.16.49-.05.49.24a1,1,0,0,1-.49.81L121.5,205.92c-.26.16-.48.05-.48-.24A1.07,1.07,0,0,1,121.5,204.87Z"/><path class="cls-12" d="M121.5,189.09l5.29-3.07c.27-.16.49-.05.49.24a1,1,0,0,1-.49.81l-5.29,3.07c-.26.15-.48,0-.48-.25A1,1,0,0,1,121.5,189.09Z"/><path class="cls-3" d="M153.79,164.82a.16.16,0,0,1-.13-.06.17.17,0,0,1,0-.24l2.73-2.18,2.75-3.14,2.79-.41,2.67-.6,2.76-3.26,2.71.48,2.72-4.31,2.77.05,2.68-2.4a.17.17,0,1,1,.22.26l-2.77,2.48-2.71-.05-2.74,4.34-2.75-.48-2.71,3.2-2.79.62-2.68.39-2.69,3.07-2.75,2.2A.15.15,0,0,1,153.79,164.82Z"/><path class="cls-8" d="M154.87,155.6l.07-.07.08-.05a.76.76,0,0,1,.41-.12.48.48,0,0,1,.33.12.8.8,0,0,1,.21.35,1.46,1.46,0,0,1,.08.54,2.27,2.27,0,0,1-.08.63,2.75,2.75,0,0,1-.21.59,2.23,2.23,0,0,1-.33.51,1.91,1.91,0,0,1-.41.35.8.8,0,0,1-.42.12.52.52,0,0,1-.33-.12.8.8,0,0,1-.21-.35,1.71,1.71,0,0,1-.08-.54,1.87,1.87,0,0,1,0-.34,2.79,2.79,0,0,1,.06-.33c0-.11.06-.21.1-.32s.07-.2.1-.29l.73-2.07a1,1,0,0,0,0-.1.24.24,0,0,1,.08-.09l.23-.14s.05,0,.06,0a.11.11,0,0,1,0,.08V154s0,0,0,0Zm-.51,1.74a1,1,0,0,0,0,.33.54.54,0,0,0,.13.22.34.34,0,0,0,.2.09.57.57,0,0,0,.28-.09.83.83,0,0,0,.27-.23,1.85,1.85,0,0,0,.21-.33,2,2,0,0,0,.13-.37,1.55,1.55,0,0,0,0-.37,1.11,1.11,0,0,0,0-.33.67.67,0,0,0-.13-.22.32.32,0,0,0-.21-.08.44.44,0,0,0-.27.08.86.86,0,0,0-.28.23,1.38,1.38,0,0,0-.2.33,1.47,1.47,0,0,0-.13.37A1.64,1.64,0,0,0,154.36,157.34Z"/><path class="cls-8" d="M157.64,154.61a2.63,2.63,0,0,0,.18-.45,1.7,1.7,0,0,0,.06-.48.72.72,0,0,0-.12-.47q-.12-.15-.39,0a.8.8,0,0,0-.24.2.92.92,0,0,0-.16.27,1.54,1.54,0,0,0-.11.3l-.06.33a.34.34,0,0,1,0,.12.28.28,0,0,1-.06.08l-.19.1a0,0,0,0,1-.06,0,.11.11,0,0,1,0-.08,3.16,3.16,0,0,1,.07-.5,2.58,2.58,0,0,1,.19-.53A2.18,2.18,0,0,1,157,153a1.46,1.46,0,0,1,.4-.35.79.79,0,0,1,.39-.12.42.42,0,0,1,.27.12.62.62,0,0,1,.17.32,1.75,1.75,0,0,1,.06.48,2.23,2.23,0,0,1,0,.37,2,2,0,0,1-.06.34,2.42,2.42,0,0,1-.12.35c-.05.12-.11.24-.18.38l-.89,1.79,1.22-.7a.06.06,0,0,1,.08,0,.15.15,0,0,1,0,.1v.22a.35.35,0,0,1,0,.14.24.24,0,0,1-.08.09l-1.72,1a.06.06,0,0,1-.07,0,.11.11,0,0,1,0-.1v-.22a.51.51,0,0,1,0-.13l.07-.15Z"/><path class="cls-8" d="M160.36,151a.08.08,0,0,1,.08,0,.13.13,0,0,1,0,.1v.22a.53.53,0,0,1,0,.12l0,.15-.89,4s0,.08,0,.12a.15.15,0,0,1-.08.09l-.18.11a.06.06,0,0,1-.07,0,.12.12,0,0,1,0-.09v0a.07.07,0,0,0,0-.05l.9-4.05-1.32.76a.06.06,0,0,1-.07,0,.13.13,0,0,1,0-.1v-.22a.39.39,0,0,1,0-.14.35.35,0,0,1,.07-.09Z"/><path class="cls-12" d="M154.29,167l23.61-13.68c.26-.15.48,0,.48.25a1,1,0,0,1-.48.8L154.29,168c-.27.16-.49.05-.49-.24A1.06,1.06,0,0,1,154.29,167Z"/><path class="cls-12" d="M154.29,151.21l5.29-3.07c.27-.15.48,0,.48.25a1,1,0,0,1-.48.8l-5.29,3.07c-.27.16-.49.05-.49-.24A1.06,1.06,0,0,1,154.29,151.21Z"/><path class="cls-3" d="M153.79,183.73l-.08,0a.17.17,0,0,1-.06-.23l2.79-4.58,2.81.52,2.64-.73,2.74-3.33,2.71-.69,2.76-4.92,2.83.82,2.65-.5,2.69-2.39a.16.16,0,0,1,.24,0,.17.17,0,0,1,0,.24l-2.76,2.45h0l-2.78.53-2.64-.77L167.56,175l-2.75.7L162.08,179H162l-2.77.76h0l-2.62-.48-2.67,4.38A.19.19,0,0,1,153.79,183.73Z"/><g class="cls-20"><path d="M153.79,183.73l-.08,0a.17.17,0,0,1-.06-.23l2.79-4.58,2.81.52,2.64-.73,2.74-3.33,2.71-.69,2.76-4.92,2.83.82,2.65-.5,2.69-2.39a.16.16,0,0,1,.24,0,.17.17,0,0,1,0,.24l-2.76,2.45h0l-2.78.53-2.64-.77L167.56,175l-2.75.7L162.08,179H162l-2.77.76h0l-2.62-.48-2.67,4.38A.19.19,0,0,1,153.79,183.73Z"/></g><path class="cls-8" d="M155.06,175.8l-.06,0-.05,0a.7.7,0,0,1-.37.12.45.45,0,0,1-.32-.09.7.7,0,0,1-.23-.33,1.55,1.55,0,0,1-.09-.57,2.16,2.16,0,0,1,.09-.62,2.57,2.57,0,0,1,.53-1.08A1.49,1.49,0,0,1,155,173a.73.73,0,0,1,.42-.13.43.43,0,0,1,.31.12.67.67,0,0,1,.2.34,1.73,1.73,0,0,1,.07.54,2,2,0,0,1,0,.33c0,.12,0,.23-.08.35s-.07.23-.1.34l-.11.31-.73,2.07,0,.1a.18.18,0,0,1-.08.09l-.23.14a0,0,0,0,1-.06,0,.19.19,0,0,1,0-.08.13.13,0,0,1,0-.06s0,0,0,0Zm.51-1.74a1.06,1.06,0,0,0,0-.33.54.54,0,0,0-.13-.21.36.36,0,0,0-.2-.08.52.52,0,0,0-.25.08,1.32,1.32,0,0,0-.26.22,1.53,1.53,0,0,0-.19.3,1.4,1.4,0,0,0-.13.36,1.58,1.58,0,0,0,0,.38,1.06,1.06,0,0,0,0,.33.4.4,0,0,0,.13.21.27.27,0,0,0,.19.08.56.56,0,0,0,.26-.08,1,1,0,0,0,.25-.21,1.65,1.65,0,0,0,.2-.31,2.09,2.09,0,0,0,.13-.35A1.72,1.72,0,0,0,155.57,174.06Z"/><path class="cls-8" d="M156.61,175.34a.44.44,0,0,0,.06.16.25.25,0,0,0,.11.12.37.37,0,0,0,.19,0,.79.79,0,0,0,.3-.13.94.94,0,0,0,.24-.18,1,1,0,0,0,.19-.26,1.34,1.34,0,0,0,.14-.32,1.44,1.44,0,0,0,0-.37.83.83,0,0,0,0-.31.32.32,0,0,0-.13-.15.44.44,0,0,0-.2,0,1.22,1.22,0,0,0-.24.11l-.33.19a.06.06,0,0,1-.08,0,.17.17,0,0,1,0-.1v-.22a.5.5,0,0,1,0-.12l.05-.11.72-1.61-1.16.67a0,0,0,0,1-.07,0,.13.13,0,0,1,0-.1v-.22a.31.31,0,0,1,0-.13.2.2,0,0,1,.07-.1l1.58-.91a.06.06,0,0,1,.07,0,.11.11,0,0,1,0,.1v.22a.5.5,0,0,1,0,.12.75.75,0,0,1-.06.13l-.7,1.59a.7.7,0,0,1,.36-.12.48.48,0,0,1,.29.09.56.56,0,0,1,.18.29,1.52,1.52,0,0,1,.07.48,2.49,2.49,0,0,1-.08.61,2.9,2.9,0,0,1-.22.54,2.32,2.32,0,0,1-.31.44,1.45,1.45,0,0,1-.39.32,1.19,1.19,0,0,1-.46.17.46.46,0,0,1-.32-.07.51.51,0,0,1-.19-.24,1,1,0,0,1-.06-.36.22.22,0,0,1,0-.11.28.28,0,0,1,.06-.08l.19-.1s.05,0,.07,0A.08.08,0,0,1,156.61,175.34Z"/><path class="cls-12" d="M154.29,185.9l23.61-13.68c.26-.15.48,0,.48.25a1,1,0,0,1-.48.8L154.29,187c-.27.16-.49.05-.49-.24A1.06,1.06,0,0,1,154.29,185.9Z"/><path class="cls-12" d="M154.29,170.12l5.29-3.07c.27-.15.48,0,.48.25a1,1,0,0,1-.48.8l-5.29,3.07c-.27.16-.49.05-.49-.24A1.06,1.06,0,0,1,154.29,170.12Z"/><path class="cls-3" d="M189.31,134.12a3.07,3.07,0,0,1,3.11-.23l-3.11,8.4Z"/><path class="cls-3" d="M186.19,137.48a9.28,9.28,0,0,1,3.12-3.36v8.17Z"/><path class="cls-3" d="M184.27,142.67a16.55,16.55,0,0,1,1.92-5.19l3.12,4.81Z"/><path class="cls-15" d="M186.19,137.48a16.55,16.55,0,0,0-1.92,5.19l5-.38v-8.17A9.28,9.28,0,0,0,186.19,137.48Z"/><path class="cls-3" d="M192.42,133.89a4.37,4.37,0,0,1,1.93,3l-5,5.44Z"/><path class="cls-3" d="M184.27,147.72a10.06,10.06,0,0,1-.26-2.37,14.48,14.48,0,0,1,.26-2.68l5-.38Z"/><path class="cls-3" d="M194.35,141.9a16.32,16.32,0,0,1-1.93,5.19l-3.11-4.8Z"/><path class="cls-3" d="M189.31,150.45a3.09,3.09,0,0,1-3.12.23l3.12-8.39Z"/><path class="cls-3" d="M184.27,147.72l5-5.43-3.12,8.39A4.37,4.37,0,0,1,184.27,147.72Z"/><path class="cls-3" d="M194.35,136.85a10.06,10.06,0,0,1,.26,2.37,14.4,14.4,0,0,1-.26,2.68l-5,.39Z"/><path class="cls-3" d="M192.42,147.09a9.26,9.26,0,0,1-3.11,3.36v-8.16Z"/><path class="cls-8" d="M186.66,154.61l5.29-3.07c.27-.15.49,0,.49.25a1.06,1.06,0,0,1-.49.81l-5.29,3.07c-.26.15-.48,0-.48-.25A1.07,1.07,0,0,1,186.66,154.61Z"/><path class="cls-12" d="M185.5,158.45l7.62-4.42c.27-.16.49-.05.49.24a1,1,0,0,1-.49.81l-7.62,4.42c-.27.16-.49.05-.49-.24A1.06,1.06,0,0,1,185.5,158.45Z"/><path class="cls-12" d="M185.5,161.61l7.62-4.42c.27-.15.49,0,.49.25a1,1,0,0,1-.49.8l-7.62,4.43c-.27.15-.49,0-.49-.25A1.06,1.06,0,0,1,185.5,161.61Z"/><path class="cls-12" d="M185.5,164.78l7.62-4.43c.27-.15.49,0,.49.25a1,1,0,0,1-.49.8l-7.62,4.43c-.27.15-.49,0-.49-.25A1,1,0,0,1,185.5,164.78Z"/><path class="cls-3" d="M208.43,123a3.09,3.09,0,0,1,3.12-.23l-3.12,8.39Z"/><path class="cls-3" d="M205.32,126.4a9.26,9.26,0,0,1,3.11-3.36v8.16Z"/><path class="cls-3" d="M203.39,131.59a16.32,16.32,0,0,1,1.93-5.19l3.11,4.8Z"/><path class="cls-3" d="M211.55,122.81a4.33,4.33,0,0,1,1.92,3l-5,5.43Z"/><path class="cls-3" d="M203.39,136.64a10.06,10.06,0,0,1-.26-2.37,14.31,14.31,0,0,1,.26-2.68l5-.39Z"/><path class="cls-3" d="M213.47,130.81a16.13,16.13,0,0,1-1.92,5.19l-3.12-4.8Z"/><path class="cls-3" d="M208.43,139.37a3.07,3.07,0,0,1-3.11.23l3.11-8.4Z"/><path class="cls-3" d="M203.39,136.64l5-5.44-3.11,8.4A4.37,4.37,0,0,1,203.39,136.64Z"/><path class="cls-15" d="M205.32,126.4a16.32,16.32,0,0,0-1.93,5.19,14.31,14.31,0,0,0-.26,2.68,10.06,10.06,0,0,0,.26,2.37,4.37,4.37,0,0,0,1.93,3l3.11-8.4V123A9.26,9.26,0,0,0,205.32,126.4Z"/><path class="cls-3" d="M213.47,125.77a10,10,0,0,1,.27,2.37,14.31,14.31,0,0,1-.27,2.67l-5,.39Z"/><path class="cls-3" d="M211.55,136a9.24,9.24,0,0,1-3.12,3.37V131.2Z"/><path class="cls-8" d="M205.79,143.57l5.29-3.07c.27-.15.48,0,.48.25a1,1,0,0,1-.48.8l-5.29,3.07c-.27.16-.49,0-.49-.24A1.06,1.06,0,0,1,205.79,143.57Z"/><path class="cls-12" d="M204.62,147.41l7.62-4.42c.27-.16.49-.05.49.24a1.06,1.06,0,0,1-.49.81l-7.62,4.42c-.27.16-.48,0-.48-.24A1,1,0,0,1,204.62,147.41Z"/><path class="cls-12" d="M204.62,150.57l7.62-4.42c.27-.15.49,0,.49.25a1,1,0,0,1-.49.8l-7.62,4.42c-.27.16-.48,0-.48-.24A1,1,0,0,1,204.62,150.57Z"/><path class="cls-12" d="M204.62,153.74l7.62-4.43c.27-.15.49,0,.49.25a1,1,0,0,1-.49.8l-7.62,4.43c-.27.15-.48,0-.48-.25A1,1,0,0,1,204.62,153.74Z"/></g><g id="Glass"><path class="cls-3" d="M208.33,232.52a9,9,0,0,0-3.82-7.17,2.89,2.89,0,0,0-2.84-.4h0c-4.5,2.26-36.12,22.54-38.14,23.54h0a1.44,1.44,0,0,0-.64,1.3,4.54,4.54,0,0,0,1.93,3.62,1.42,1.42,0,0,0,1.44.18h0c3.2-1.76,34.41-15.06,40.79-18.49h0A2.85,2.85,0,0,0,208.33,232.52Z"/><path class="cls-21" d="M207.09,228.14a8.1,8.1,0,0,0-2.58-2.79,2.87,2.87,0,0,0-2.83-.4l-.09.05c-4.11,2.1-27.64,17.12-35.56,22l-.05,0-.32.19-.1.06-.18.11-.21.13h0c-.84.51-1.4.85-1.62,1h0l-.18.14a1.58,1.58,0,0,0-.46,1.16c0,.15,0,.3,0,.46l0,.17a2.8,2.8,0,0,0,.06.28,1.74,1.74,0,0,0,.05.22l.09.26.07.19,0,0Z"/><path class="cls-3" d="M164.78,253.42a4.53,4.53,0,0,1-1.92-3.6c0-1.3,1-1.8,2.08-1.11a4.53,4.53,0,0,1,1.92,3.6C166.81,253.61,165.88,254.1,164.78,253.42Z"/><path class="cls-6" d="M155.33,254.29a3.48,3.48,0,0,0,1.48,2.76,1.1,1.1,0,0,0,1.09.15h0l7.65-4.08h0a1.07,1.07,0,0,0,.49-1,3.45,3.45,0,0,0-1.47-2.77,1.12,1.12,0,0,0-1.1-.15h0l-7.65,4.08h0A1.09,1.09,0,0,0,155.33,254.29Z"/><path class="cls-7" d="M155.83,253.29a1.09,1.09,0,0,0-.5,1,3,3,0,0,0,.23,1.18l9.87-5.27a3.08,3.08,0,0,0-.85-.84,1.12,1.12,0,0,0-1.1-.15l-7.65,4.08Z"/><path class="cls-3" d="M165.14,261.08c0-4.91-3.24-9.81-9.71-13.55-13-7.48-34-7.48-46.92,0-6.47,3.74-9.71,8.64-9.71,13.55h0v9c0,4.91,3.24,9.81,9.71,13.55,13,7.48,34,7.48,46.92,0,6.47-3.74,9.71-8.64,9.71-13.55v-9Zm-55-10.77c5.78-3.34,13.54-5.18,21.85-5.18S148,247,153.82,250.31c5.23,3,8.11,6.84,8.11,10.77s-2.88,7.74-8.11,10.76C148,275.18,140.28,277,132,277s-16.07-1.84-21.85-5.18c-5.23-3-8.11-6.84-8.11-10.76S104.89,253.33,110.12,250.31Z"/><path class="cls-22" d="M108.51,274.62c13,7.48,34,7.48,46.91,0s13-19.61,0-27.09-33.95-7.48-46.91,0S95.56,267.14,108.51,274.62ZM102,261.08c0-3.93,2.88-7.75,8.12-10.77,5.78-3.34,13.54-5.18,21.85-5.18S148,247,153.82,250.31c5.23,3,8.11,6.84,8.11,10.77s-2.88,7.74-8.11,10.76C148,275.18,140.27,277,132,277s-16.07-1.84-21.85-5.18C104.88,268.82,102,265,102,261.08Z"/><path class="cls-3" d="M102,261.07a8.84,8.84,0,0,0,1.3,4.52,18.05,18.05,0,0,1,6.82-6.25c5.78-3.34,13.54-5.18,21.85-5.18S148,256,153.82,259.34a18.24,18.24,0,0,1,6.83,6.25,9,9,0,0,0,1.28-4.52c0-3.92-2.88-7.74-8.11-10.76C148,247,140.27,245.13,132,245.13s-16.07,1.84-21.85,5.18C104.88,253.33,102,257.15,102,261.07Z"/><path class="cls-21" d="M102,261.07a8.84,8.84,0,0,0,1.3,4.52,18.05,18.05,0,0,1,6.82-6.25c5.78-3.34,13.54-5.18,21.85-5.18S148,256,153.82,259.34a18.24,18.24,0,0,1,6.83,6.25,9,9,0,0,0,1.28-4.52c0-3.92-2.88-7.74-8.11-10.76C148,247,140.27,245.13,132,245.13s-16.07,1.84-21.85,5.18C104.88,253.33,102,257.15,102,261.07Z"/><path class="cls-23" d="M110.12,254.4c5.78-3.34,13.54-5.18,21.85-5.18s16.07,1.84,21.85,5.18c4.32,2.49,7,5.53,7.85,8.72-.82,3.19-3.53,6.23-7.85,8.72C148,275.18,140.27,277,132,277s-16.07-1.84-21.85-5.18c-4.32-2.49-7-5.53-7.85-8.72C103.09,259.93,105.8,256.89,110.12,254.4Z"/><path class="cls-21" d="M124.15,279.69v9a43.58,43.58,0,0,1-15.63-5.07C102,279.91,98.8,275,98.8,270.1v-9a11.5,11.5,0,0,1,.39-2.95h0c-1.57,5.83,1.53,12,9.32,16.5A43.39,43.39,0,0,0,124.15,279.69Z"/></g><g id="Character"><path class="cls-7" d="M282.26,224.57c.39.16.48.91.5,2.41,0,1.14.22,3.13-1.12,3.49s-3.28.12-4.11-1a52.5,52.5,0,0,0-3.2-4.21c-1.29-1.44-2.68-2.79-3.17-4.79-.44-1.8,0-2.57,1.21-3.06,1.7-.68,4.29,1.72,5.59,2.12C279.09,219.9,281.87,224.41,282.26,224.57Z"/><path class="cls-24" d="M282.29,223.18l0,1.84a4.51,4.51,0,0,1-4.66,0c-.07-.18-.42-2.64-.42-2.64Z"/><path class="cls-7" d="M267.11,234.84s.49,1.62.75,3c.2,1.12.48,3,.07,3.82s-1.94,1.33-4.3,1.26c-1.52-.05-3.93.94-5.58,1.81a14.61,14.61,0,0,1-7,.95c-2.09-.3-4.24-1.56-4.56-2.44s.15-1.77,5.14-3.76c0,0,6.92-2.08,9.37-4.67Z"/><path class="cls-24" d="M267.16,232.85s0,1.37-.05,2.15-1,1.92-3.35,1.78c-1.67-.09-2.83-.57-2.74-1.95l.05-2Z"/><path class="cls-6" d="M284,198.77a50.36,50.36,0,0,0-2-9.64s.84-8.25,1.34-16.09c.53-8.47,1-12.83-.64-25,0,0-26-2.33-26.67,7.45s.3,34.75.53,39.06.88,8.13,1.61,15.13,2.82,23.21,2.82,23.21a6.46,6.46,0,0,0,6.09,0s2.36-19.54,2.27-24.51a42.38,42.38,0,0,0-1.64-10.88s.7-8.06,1.32-15.08S270.28,172,270.46,169l.59-.28s.33,12.14.56,16.45.82,8.45,1.88,16.47c.92,7,3.81,21.7,3.81,21.7,3.08,1.76,5-.11,5-.11S284.75,204.81,284,198.77Z"/><path class="cls-7" d="M270.46,169s6.71-3.12,10.09-6c0,0-3.18,4.27-7.27,6.11,0,0-1.78,15-1.76,14.72l-.5-14.85Z"/><polygon class="cls-24" points="265.81 113.11 266.82 122.08 275.29 121.65 274.35 111.19 265.81 113.11"/><path class="cls-6" d="M278.48,116.55c3.15-.15,4.75.32,6.16,3s2,10.84,2.46,15,.62,7.14-1.1,7.57a76.63,76.63,0,0,1-8.44.61Z"/><path class="cls-8" d="M283.79,121.19c-.45-2.51-3.75-5.14-6.84-4.64l-2.09.35c-.37,1.51-4.5,2.45-8.45,1.52-1.19.32-5.11,1-6.1,1.38-2.83.94-4,3.73-4.44,13,0,0,.22,20.95.11,25.12a34.06,34.06,0,0,0,18.44,2.24c8.5-1.65,9.59-5.14,9.59-5.14l-1.26-9.58S284.83,126.86,283.79,121.19Z"/><path class="cls-6" d="M266.14,116.07l.07.56a12.35,12.35,0,0,0,5.19,0c2.75-.61,3.31-1.38,3.31-1.38l-.06-.64s.69-.26,1.05.8a9.57,9.57,0,0,1,.39,1.28s.32,1.93-2.91,2.91a10,10,0,0,1-8.05-.88l-1.27.27s1.1-2.53,1.43-3a.82.82,0,0,1,.79-.44Z"/><polygon class="cls-8" points="240.31 106.46 223.53 115.22 231.87 138.02 247.53 129.25 240.31 106.46"/><polygon class="cls-25" points="239.54 108.69 225.46 116.04 232.84 135.64 245.98 128.28 239.54 108.69"/><path class="cls-9" d="M236.57,110.81l-.27-.7c-.15-.38-1.33-.15-2.62.51l-2.48,1.28c-1.29.67-2.22,1.53-2.07,1.91l.27.7Z"/><path class="cls-3" d="M236.3,108c-.1-.24-.61-.2-1.14.09l-1,.52s-.6-1.51-2.83-.46-1.73,2.78-1.73,2.78l-1,.57c-.57.32-1,.77-.9,1l.12.45,8.65-4.51Z"/><path class="cls-3" d="M235.36,109c-.8.4-1.12.59-.89,1.18s.52,1.17.52,1.17l-3.83,2s-.32-.87-.46-1.2-.42-.49-1-.17l-.23-.24,6-3.08Z"/><path class="cls-15" d="M235.36,109c-.8.4-1.12.59-.89,1.18s.52,1.17.52,1.17l-3.83,2s-.32-.87-.46-1.2-.42-.49-1-.17l-.23-.24,6-3.08Z"/><path class="cls-3" d="M236.73,110.84l-.27-.69c-.15-.39-1.32-.16-2.62.51l-2.48,1.28c-1.29.67-2.22,1.52-2.07,1.91l.28.7Z"/><path class="cls-24" d="M260.31,119.8c-3.87.34-5.52,1-8.43,6.29-3.15,5.69-9.22,16-10,17.29a6.9,6.9,0,0,0-.35,6.22c.86,1.55,3.6,2.26,6.7-1.24,3.7-4.17,10.56-14.35,10.56-14.35S264.64,126.31,260.31,119.8Z"/><path class="cls-24" d="M243.15,150.8c-3-.36-9.91-9.77-11.88-12.85a22,22,0,0,0-6-6.34c-3.15-2.32-2.69-5.89-1.32-9.16.48-1.13,2.09-.39,2.09-.39l.57,1.55,1,2.68c.67.62,1,.82,1.09.64.08-.35-.49-1.79-.48-3.3,0-1.81,1.29-.62,1.67,0a22,22,0,0,1,1.34,3c.63,1.62.37,3.26,1.14,4.37s11.12,11,11.12,11Z"/><path class="cls-6" d="M261.06,119.6a8.25,8.25,0,0,0-7.35,3.15c-2.19,2.84-10.93,18.27-10.93,18.27l-4.91-4.39A8.55,8.55,0,0,0,234.1,142a53.82,53.82,0,0,0,4.44,6c2.08,2.27,4.39,3.85,6.29,3.15s3.83-2.2,7.91-7.88,8.54-12.4,8.54-12.4S264.1,124.3,261.06,119.6Z"/><path class="cls-26" d="M259.85,102.14s-2.11,3.21-1.87,3.53,1.79.59,1.79.59Z"/><path class="cls-7" d="M260.84,104.2a2.52,2.52,0,1,1,2.52-2.51A2.51,2.51,0,0,1,260.84,104.2Zm0-4.47a2,2,0,1,0,2,2A2,2,0,0,0,260.84,99.73Z"/><path class="cls-24" d="M265.72,93.28c-4.28.9-5.51,2.78-5.92,9.57-.42,7.1.31,9.33,1.24,10.28.63.65,4.13.76,5.89.28,2.21-.61,7.2-2.38,9.54-6,2.75-4.2,3.47-9.89.52-12.23C272.85,92,267.46,92.91,265.72,93.28Z"/><path class="cls-26" d="M265.87,113.61l-.2-1.31a8.51,8.51,0,0,1-4.39,1A10.56,10.56,0,0,0,265.87,113.61Z"/><polygon class="cls-7" points="258.56 101.16 266.16 102.14 265.85 102.68 258.56 101.73 258.56 101.16"/><path class="cls-7" d="M259.07,96a2.43,2.43,0,0,0,1-.06,1.51,1.51,0,0,0,.52,1.78,2.17,2.17,0,0,0,1.92.26,1.84,1.84,0,0,0-.21,1.32,2.15,2.15,0,0,0,2.21,1.6c0,1,.06,2,1.12,2.41,0,0,.68-2.62,2.89-2.29s2.52,3.17,1.12,4.89S266.92,107,266.9,107c.13.07.18.91.22,1.06a7.44,7.44,0,0,0,.57,1.44,6.84,6.84,0,0,0,2,2.34,4.89,4.89,0,0,0,4,1.12,4.28,4.28,0,0,0,2.92-2.35,2.54,2.54,0,0,1,.48-.85,2.74,2.74,0,0,1,1.09-.47,3.31,3.31,0,0,0,1.95-1.84,3.26,3.26,0,0,0-.14-2.68,2.93,2.93,0,0,0,1.12-5.13,3.5,3.5,0,0,0,1.52-3.82,3.59,3.59,0,0,0-2.53-2.42c-.86-.25-.53-.38-.8-1.23a3.07,3.07,0,0,0-1-1.48,3.17,3.17,0,0,0-2.95-.55,3,3,0,0,0-2.13-2.3,3.09,3.09,0,0,0-1.51-.06c-.35.1-1.08.42-1.22.76-.45-.44-.59-1-1.14-1.42a3.24,3.24,0,0,0-4.78,1,4,4,0,0,0-3-1.26,3.27,3.27,0,0,0-2.72,1.66,2.77,2.77,0,0,0,.36,3.11,3.26,3.26,0,0,0-1.65,1.43,2,2,0,0,0,.23,2.23,1.74,1.74,0,0,0,.84.62A2,2,0,0,0,259.07,96Z"/><path class="cls-7" d="M265.56,104.83l.07-3a1.49,1.49,0,0,0-.07,3Z"/></g></g></g></svg>