<svg xmlns="http://www.w3.org/2000/svg" viewBox="0 0 32.92 55.85"><defs><style>.cls-1{fill:#ebe7f2;}.cls-2{fill:#00405c;}.cls-3{fill:#ffd262;}</style></defs><g id="Layer_2" data-name="Layer 2"><g id="Layer_1-2" data-name="Layer 1"><path class="cls-1" d="M16.37,21.6A9.63,9.63,0,0,1,6.74,12v3A9.63,9.63,0,0,0,26,15V12a9.63,9.63,0,0,1-9.63,9.63Z"/><path class="cls-1" d="M30.54,34.29h0L29.27,36H3.81L2.58,34.29h0a.73.73,0,0,0-.72.73v.57l2,2.83H29.27l2-2.83V35A.73.73,0,0,0,30.54,34.29Z"/><path class="cls-1" d="M30.54,52.73H2.23l-.59.77v.89a.73.73,0,0,0,.72.73H30.54a.73.73,0,0,0,.72-.73v-.89l-.54-.78Z"/><path class="cls-1" d="M23.6,48H9.48a.72.72,0,0,1-.72-.72V41.53a.73.73,0,0,1,.72-.73H23.6a.73.73,0,0,1,.73.73v5.79A.73.73,0,0,1,23.6,48Z"/><path class="cls-2" d="M30.54,33.55h-28A1.46,1.46,0,0,0,1.08,35v.57a.75.75,0,0,0,.13.43l1.86,2.63V50.4L1.05,53a.76.76,0,0,0-.16.46v.89a1.47,1.47,0,0,0,1.47,1.47H30.54A1.47,1.47,0,0,0,32,54.38v-.89a.71.71,0,0,0-.14-.43L30,50.42V38.65L31.87,36a.76.76,0,0,0,.14-.43V35a1.47,1.47,0,0,0-1.47-1.46Zm-2,16.36h-24V39.16h24Zm2,4.45-28.16,0v-.64l1.8-2.34H28.89l1.64,2.33Zm0-19-1.63,2.32H4.2L2.55,35.34V35h28v.32Z"/><path class="cls-2" d="M13.48,25.72a.75.75,0,0,0-.75.74V29H7.58a2.91,2.91,0,0,0-2.91,2.92.74.74,0,1,0,1.48,0,1.43,1.43,0,0,1,1.43-1.43h18.6a1.43,1.43,0,0,1,1.43,1.43.74.74,0,0,0,.74.74.75.75,0,0,0,.75-.74A2.92,2.92,0,0,0,26.18,29H20v-2.5a.74.74,0,0,0-1.48,0V29h-4.3v-2.5a.74.74,0,0,0-.74-.74Z"/><path class="cls-2" d="M31.46,4.08h-3.1a.75.75,0,0,0-.75.74.76.76,0,0,0,.75.75h3.07v6.51a6,6,0,0,1-3.7,5.54.74.74,0,0,0-.39,1,.72.72,0,0,0,.68.46.75.75,0,0,0,.29-.06,7.47,7.47,0,0,0,4.61-6.91V5.54a1.46,1.46,0,0,0-1.46-1.46Z"/><path class="cls-2" d="M4.61,19a.71.71,0,0,0,.28.06.74.74,0,0,0,.29-1.43,6,6,0,0,1-3.69-5.54V5.57H4.56a.75.75,0,0,0,.74-.75.74.74,0,0,0-.74-.74H1.46A1.46,1.46,0,0,0,0,5.54v6.54A7.47,7.47,0,0,0,4.61,19Z"/><path class="cls-2" d="M16.37,25.32A10.38,10.38,0,0,0,26.74,15V2.41A2.41,2.41,0,0,0,24.34,0H8.4A2.41,2.41,0,0,0,6,2.41V15A10.39,10.39,0,0,0,16.37,25.32ZM7.48,2.41a.92.92,0,0,1,.92-.92H24.34a.92.92,0,0,1,.92.92V15A8.89,8.89,0,0,1,7.48,15Z"/><path class="cls-3" d="M21,9.69a.72.72,0,0,1-.3.65l-1.57,1.15a.7.7,0,0,0-.26.8l.6,1.85a.72.72,0,0,1-1.11.81l-1.58-1.14a.7.7,0,0,0-.85,0L14.37,15a.72.72,0,0,1-1.11-.81l.6-1.85a.71.71,0,0,0-.26-.8L12,10.34A.72.72,0,0,1,12.45,9h2a.71.71,0,0,0,.68-.5l.6-1.85a.73.73,0,0,1,1.38,0l.6,1.85a.71.71,0,0,0,.68.5h1.95a.66.66,0,0,1,.25,0h0a.6.6,0,0,1,.27.2s0,.05.06.07a.61.61,0,0,1,.11.28Z"/></g></g></svg>