<svg xmlns="http://www.w3.org/2000/svg" viewBox="0 0 60 60"><defs><style>.cls-1{fill:#8fadb6;}.cls-2{fill:none;}</style></defs><g id="Layer_2" data-name="Layer 2"><g id="Layer_1-2" data-name="Layer 1"><path class="cls-1" d="M50.47,42l-7.89-7.9A21.85,21.85,0,0,0,45,24.53,20.35,20.35,0,1,0,24.63,44.87a21.71,21.71,0,0,0,9.57-2.39l7.9,7.9a5.78,5.78,0,0,0,8.37,0A6.23,6.23,0,0,0,50.47,42ZM24.63,40.09A15.56,15.56,0,1,1,40.18,24.53,15.53,15.53,0,0,1,24.63,40.09Z"/><circle class="cls-2" cx="30" cy="30" r="30"/></g></g></svg>