<svg xmlns="http://www.w3.org/2000/svg" viewBox="0 0 60 60"><defs><style>.cls-1{fill:#8fadb6;}.cls-2{fill:none;}</style></defs><g id="Layer_2" data-name="Layer 2"><g id="Layer_1-2" data-name="Layer 1"><path class="cls-1" d="M30,15.1c-9.55,0-18.22,5.22-24.61,13.71a2,2,0,0,0,0,2.37C11.78,39.68,20.45,44.9,30,44.9s18.22-5.22,24.61-13.71a2,2,0,0,0,0-2.37C48.22,20.32,39.55,15.1,30,15.1Zm.69,25.39a10.51,10.51,0,1,1,9.8-9.8A10.51,10.51,0,0,1,30.69,40.49Zm-.32-4.84a5.67,5.67,0,1,1,5.29-5.29A5.66,5.66,0,0,1,30.37,35.65Z"/><circle class="cls-2" cx="30" cy="30" r="30"/></g></g></svg>