<svg xmlns="http://www.w3.org/2000/svg" viewBox="0 0 130 44.85"><defs><style>.cls-1{fill:#4dbdeb;}.cls-2{fill:#0075a8;}</style></defs><g id="Layer_2" data-name="Layer 2"><g id="Layer_1-2" data-name="Layer 1"><path class="cls-1" d="M53,19a.25.25,0,0,1-.08-.31,12.29,12.29,0,0,1,4.31-5.22c4.13-2.77,8.75-2,10.79-1.4a.27.27,0,0,0,.26-.45,42.66,42.66,0,0,0-5.88-5C59.68,4.81,52.77.13,43.83,0a16.09,16.09,0,0,0-6.11.91A15.18,15.18,0,0,0,31.11,6a.24.24,0,0,1-.25.1A48.51,48.51,0,0,0,.43,10.82.31.31,0,0,0,.3,11a4.85,4.85,0,0,0,.35,4.08A5.56,5.56,0,0,0,2,16.68c.12.08.25,0,.37-.07.29-.21,2.76-2.37,3.15-2.6.18-.09.43,3.67.6,3.58l3.69-2c.19-.1-.18,4.06,0,3.93,1-.65,2.15-1.49,3.12-2.15a.31.31,0,0,1,.25,0l1,.39c.88.34,1.22.44,1.91.71,1.95.73,2.14,1,2.16,1.18s-.14.2-.47.86-.27.77-.47.87-.56-.06-1-.32c-2.16-1.21-2.54-1-2.65-1s-.2.2-.38.5a1.24,1.24,0,0,0-.26.72c.05.3.46.47,1.74.94s1.57.59,1.61.88a3.6,3.6,0,0,1-.35.82c-.19.41-.23.46-.31.51-.23.14-.52,0-1-.21s-1.24-.5-1.86-.77-.92-.42-1.18-.3a1.35,1.35,0,0,0-.48.5,1.32,1.32,0,0,0-.26.61c0,.44,1,.7,3.25,1.38,1.62.47,1.85.55,2.22.42,1-.36,1.47-1.67,1.7-2.35.47-1.35.29-2.44,1.28-3.3l.14-.12a3.3,3.3,0,0,1,4,.54,2.9,2.9,0,0,1,.67,2.86,2.93,2.93,0,0,1-1,1.25h0a.27.27,0,0,0,.05.48,2,2,0,0,1,.64.35,2.31,2.31,0,0,1,.66,2.55c-.51,1.35-2.32,1.61-2.56,1.64-1.7.25-3.06-.73-3.5-.15a.59.59,0,0,0-.1.46c.24,1.05,3.78,1,4.09,1,1.24,0,1.46-.18,3.31-.31,1.08-.07,2-.07,2.56-.06a33.51,33.51,0,0,1,7.51,1,20.48,20.48,0,0,1,10,6.55.27.27,0,0,0,.47-.19,12.83,12.83,0,0,0-1.8-5.94,13.33,13.33,0,0,0-7.45-5.65,15,15,0,0,0-9.9.27.27.27,0,0,1-.35-.33c1.43-4.66,3.12-6,4.45-6.34A5.65,5.65,0,0,0,34,19.38a3.87,3.87,0,0,0,1.27-1.91.27.27,0,0,1,.52,0,5.65,5.65,0,0,1-1,4.25.27.27,0,0,0,.31.41,5.18,5.18,0,0,0,1.74-1.11,5,5,0,0,0,1.17-1.77.26.26,0,0,1,.51.11,9.45,9.45,0,0,1-.21,1.74,9.78,9.78,0,0,1-.92,2.53.26.26,0,0,0,.36.36,6.53,6.53,0,0,0,2.12-1.83A6.66,6.66,0,0,0,41,20a.27.27,0,0,1,.52,0,7.43,7.43,0,0,1,0,2.24,7.18,7.18,0,0,1-.58,1.8.26.26,0,0,0,.36.35,8.88,8.88,0,0,1,2.47-.89c1.52-.31,4.43-.47,9.65,2.92A40.16,40.16,0,0,1,64.88,38.28a.27.27,0,0,0,.49-.22A37.49,37.49,0,0,0,53,19ZM20.3,10.94c-.89.6-1,.78-1.82,1.35a5.93,5.93,0,0,1-2,1.19,2.12,2.12,0,0,1-.7,0c-1-.2-1.74-.42-2.25-.52a19.2,19.2,0,0,1-2.59-.84,1.22,1.22,0,0,1-.57-.4,1,1,0,0,1-.25-.65,1,1,0,0,1,.35-.61,4.59,4.59,0,0,1,1.18-.86.32.32,0,0,1,.19,0,13.19,13.19,0,0,0,1.44.28h0a23.53,23.53,0,0,0,3.06.09c1,0,1.92,0,2.87,0a3.61,3.61,0,0,1,1.24.19l.21.08a.27.27,0,0,1,0,.47A3.85,3.85,0,0,0,20.3,10.94ZM45.5,40a33.3,33.3,0,0,0-4.71-4s-1.41-1-2.77-1.68c-4.9-2.57-13.7-1.9-14.8-1.8-.23,0-4.56.29-5.72-1.31a1.81,1.81,0,0,1-.42-1.13,2,2,0,0,1,1.06-1.67c1.12-.54,2.19.61,3.84.17a1.42,1.42,0,0,0,.84-.54A1.17,1.17,0,0,0,23,27c-.35-.85-1.89-.54-2.21-1.38a1,1,0,0,1,.05-.76c.15-.3.39-.4.94-.67a1.87,1.87,0,0,0,1-.88A1.32,1.32,0,0,0,22.62,22a1.72,1.72,0,0,0-2-.29c-.59.3-.62.87-1.57,3.58a4.36,4.36,0,0,1-.64,1.47,3.74,3.74,0,0,1-3,1c-1,0-1.11-.09-5.62-1.81a1.27,1.27,0,0,1-.82-.74,1.61,1.61,0,0,1,.44-1.39c.34-.47,1.24-2.08,1.78-3,.16-.25-4.5,2.89-4.47,2.67a21,21,0,0,1,1.25-4.65,29.38,29.38,0,0,0-3.68,3c-.17.16-.3-3.12-.29-4.18,0-.05-.18-.18-.41-.23-.52-.1-1,.47-1.21.68-.68.77-1.1,3-.36,5.36,1.7,5.38,8.43,8,11.22,9,2.36.9,5.55,1.74,6.88,2.09,6.33,1.69,7.25,1.42,11.06,2.52,6,1.71,5.69,3,12.28,5.2,5.23,1.79,11.72,2.83,11.85,2.34S49.82,44,45.5,40Z"/><path class="cls-2" d="M80.27,18.43l2.1,7.86,1.83-7.86h3.41L84.29,30.66H81l-2.09-7.6-2.1,7.6H73.46L70.14,18.43h3.41l1.83,7.86,2.1-7.86Z"/><path class="cls-2" d="M98.18,30.66h-9.7V18.43h9.7v2.44H91.63v2.36h5.15v2.45H91.63v2.53h6.55Z"/><path class="cls-2" d="M99.57,18.43h7a3.48,3.48,0,0,1,2.51.78,3.11,3.11,0,0,1,.81,2.36,2.9,2.9,0,0,1-.46,1.71,2.42,2.42,0,0,1-1.11.91,2.73,2.73,0,0,1,1.92,1.89,4.32,4.32,0,0,1,.17,1.26,3.44,3.44,0,0,1-.8,2.51,3.44,3.44,0,0,1-2.52.81H99.57Zm7.16,3.49a.93.93,0,0,0-1-1.05h-3v2.45h3a.93.93,0,0,0,1-1.05Zm.53,4.89a.93.93,0,0,0-1.05-1h-3.49v2.45h3.49a.93.93,0,0,0,1.05-1.05Z"/><path class="cls-1" d="M70.3,42.06c3.14.18,5.27.26,6.39.26a.81.81,0,0,0,.86-.86V39.91h-4A3.59,3.59,0,0,1,71,39.09a3.56,3.56,0,0,1-.82-2.62V36A3.59,3.59,0,0,1,71,33.32a3.63,3.63,0,0,1,2.63-.81h6v2.41H74.28a.91.91,0,0,0-1,1v.34a.92.92,0,0,0,1,1h3.09a2.85,2.85,0,0,1,3.28,3.27v.86a2.85,2.85,0,0,1-3.28,3.27l-1.86,0-1.58-.07q-1.75-.09-3.63-.24Z"/><path class="cls-1" d="M92.7,44.56H89.6V39.65H85.3v4.91H82.2V32.51h3.1v4.73h4.3V32.51h3.1Z"/><path class="cls-1" d="M96.92,44.56H93.56l4.57-12.05h3.44l4.56,12.05h-3.36L102,42.41H97.69Zm1.55-4.39h2.76l-1.38-4.05Z"/><path class="cls-1" d="M107,32.51h7.24a3.61,3.61,0,0,1,2.62.81,3.59,3.59,0,0,1,.82,2.63V37.5a4.42,4.42,0,0,1-.47,2.22,2.32,2.32,0,0,1-1.51,1.05l2.15,3.79h-3.36l-2-3.62h-2.41v3.62H107ZM114.57,36a.91.91,0,0,0-1-1h-3.45v3.61h3.45a.91.91,0,0,0,1-1Z"/><path class="cls-1" d="M122.49,44.56h-3.1V32.51h3.1v4.73H124l2.69-4.73H130l-3.38,5.94L130,44.56h-3.27L124,39.65h-1.55Z"/></g></g></svg>