<svg xmlns="http://www.w3.org/2000/svg" viewBox="0 0 60 60"><defs><style>.cls-1{fill:#8fadb6;}.cls-2{fill:none;}</style></defs><g id="Layer_2" data-name="Layer 2"><g id="Layer_1-2" data-name="Layer 1"><path class="cls-1" d="M17.78,21.84c-.33-1.12-.65-2.25-.89-3.33a5.34,5.34,0,1,1,8.05-4.59,5.67,5.67,0,0,1-.14,1.17,26.22,26.22,0,0,1,1.28,3.69,8.11,8.11,0,0,0-6.49-13,8.14,8.14,0,0,0-1.81,16.07Z"/><path class="cls-1" d="M12.15,41.12c2-2.17,4.26-1.32,7.28-.86,2.59.4,5.14-.33,5-1.73a33.18,33.18,0,0,0-1.5-6.2c-.69-2.34-2-6.54-3.18-10.56-1.58-5.37-2-7.87.07-8.49,2.28-.67,3.58,2.57,4.76,7,1.35,5.1,2.06,7.36,2.45,7.24.7-.2-.25-2.39,1.58-2.93,2.28-.66,2.72,1.13,3.36.95s.42-2,2.25-2.54,2.75,1.73,3.5,1.5.73-1,1.86-1.35,5.39,1.57,7.83,9.89c3,10.46-.39,12.4.65,15.95L34.39,54.23c-1.11-2.66-4.53-2.86-7.56-4.55s-5.12-5.06-13.06-4.9C10.78,44.84,10.92,42.46,12.15,41.12Z"/><circle class="cls-2" cx="30" cy="30" r="30"/></g></g></svg>