<svg xmlns="http://www.w3.org/2000/svg" viewBox="0 0 685.99 685.99"><defs><style>.cls-1{fill:#4dbdeb;}.cls-2{fill:#fff;}.cls-3{fill:#00405c;}.cls-4{fill:#ffd262;}.cls-5{fill:#0075a8;}</style></defs><g id="Layer_2" data-name="Layer 2"><g id="Layer_1-2" data-name="Layer 1"><path class="cls-1" d="M488,577.58H174.24a18.92,18.92,0,0,1-18.92-18.92V127.33a18.92,18.92,0,0,1,18.92-18.92H488a18.92,18.92,0,0,1,18.91,18.92V558.66A18.92,18.92,0,0,1,488,577.58Z"/><path class="cls-1" d="M488,108.41H469.06A18.92,18.92,0,0,1,488,127.33V558.66a18.92,18.92,0,0,1-18.92,18.92H488a18.92,18.92,0,0,0,18.91-18.92V127.33A18.92,18.92,0,0,0,488,108.41Z"/><path class="cls-2" d="M174.24,577.58h18.91a18.91,18.91,0,0,1-18.91-18.92V127.33a18.91,18.91,0,0,1,18.91-18.92H174.24a18.92,18.92,0,0,0-18.92,18.92V558.66A18.92,18.92,0,0,0,174.24,577.58Z"/><path class="cls-3" d="M488,581.36H174.24a22.73,22.73,0,0,1-22.71-22.7V127.33a22.74,22.74,0,0,1,22.71-22.71H488a22.74,22.74,0,0,1,22.7,22.71V558.66A22.73,22.73,0,0,1,488,581.36ZM174.24,112.19a15.15,15.15,0,0,0-15.14,15.14V558.66a15.15,15.15,0,0,0,15.14,15.14H488a15.15,15.15,0,0,0,15.13-15.14V127.33A15.15,15.15,0,0,0,488,112.19Z"/><path class="cls-3" d="M174.24,230.84a3.79,3.79,0,0,1-3.79-3.78v-22.7a3.79,3.79,0,0,1,7.57,0v22.7A3.78,3.78,0,0,1,174.24,230.84Z"/><path class="cls-3" d="M449.38,346.78H212.83a3.79,3.79,0,0,1,0-7.57H449.38a3.79,3.79,0,0,1,0,7.57Z"/><path class="cls-3" d="M449.38,427.09H212.83a3.79,3.79,0,0,1,0-7.57H449.38a3.79,3.79,0,0,1,0,7.57Z"/><path class="cls-3" d="M449.38,507.39H212.83a3.79,3.79,0,0,1,0-7.57H449.38a3.79,3.79,0,0,1,0,7.57Z"/><path class="cls-4" d="M495.66,172.55h22.5V152.8a11.25,11.25,0,1,0-22.5,0Z"/><path class="cls-1" d="M519,172.55H494.83a11.66,11.66,0,0,0-11.67,11.67v48.89h47.51V184.22A11.67,11.67,0,0,0,519,172.55Z"/><path class="cls-1" d="M519,172.55H507.62a11.67,11.67,0,0,1,11.68,11.67v48.89h11.37V184.22A11.67,11.67,0,0,0,519,172.55Z"/><path class="cls-2" d="M494.83,172.55H506.2a11.66,11.66,0,0,0-11.67,11.67v48.89H483.16V184.22A11.66,11.66,0,0,1,494.83,172.55Z"/><path class="cls-5" d="M483.16,233.11h47.51V503.29H483.16Z"/><path class="cls-4" d="M506.91,503.29h23.76l-11.88,20.58-11.88,20.57L495,523.87l-11.87-20.58Z"/><path class="cls-5" d="M519.3,233.11h11.37V503.29H519.3Z"/><path class="cls-5" d="M483.16,233.11h11.37V503.29H483.16Z"/><path class="cls-3" d="M530.67,507.08H483.15a3.79,3.79,0,0,1-3.78-3.79V233.11a3.78,3.78,0,0,1,3.78-3.78h47.52a3.78,3.78,0,0,1,3.78,3.78V503.29A3.79,3.79,0,0,1,530.67,507.08Zm-43.73-7.57h39.95V236.89H486.94Z"/><path class="cls-3" d="M530.67,236.89H483.15a3.78,3.78,0,0,1-3.78-3.78V184.22a15.48,15.48,0,0,1,15.46-15.46H519a15.48,15.48,0,0,1,15.46,15.46v48.89a3.78,3.78,0,0,1-3.78,3.78Zm-43.73-7.56h39.95V184.22a7.9,7.9,0,0,0-7.89-7.89H494.83a7.9,7.9,0,0,0-7.89,7.89v45.11Z"/><path class="cls-3" d="M518.16,176.33h-22.5a3.78,3.78,0,0,1-3.78-3.78V152.8a15,15,0,1,1,30.07,0v19.75a3.79,3.79,0,0,1-3.79,3.78Zm-18.71-7.57h14.93v-16a7.47,7.47,0,1,0-14.93,0Z"/><path class="cls-3" d="M506.91,548.23a3.78,3.78,0,0,1-3.27-1.9l-23.76-41.15a3.78,3.78,0,0,1,3.27-5.67h47.52a3.78,3.78,0,0,1,3.28,5.67l-23.76,41.15A3.81,3.81,0,0,1,506.91,548.23Zm-17.2-41.15,17.2,29.79,17.21-29.79Z"/><path class="cls-3" d="M466,341.3a3.79,3.79,0,0,1-3.79-3.78V241.27a12,12,0,0,1,11.94-11.94h9a3.78,3.78,0,1,1,0,7.56h-9a4.38,4.38,0,0,0-4.37,4.38v96.25A3.78,3.78,0,0,1,466,341.3Z"/><path class="cls-3" d="M530.67,252.91H483.15a3.78,3.78,0,1,1,0-7.56h47.52a3.78,3.78,0,1,1,0,7.56Z"/><path class="cls-3" d="M506.91,548.23a3.79,3.79,0,0,1-3.78-3.79v-24.5a3.79,3.79,0,0,1,7.57,0v24.5A3.79,3.79,0,0,1,506.91,548.23Z"/><circle class="cls-4" cx="331.11" cy="227.06" r="90.82"/><path class="cls-4" d="M331.11,136.24c-2.55,0-5.07.13-7.57.34a90.8,90.8,0,0,1,0,181c2.5.2,5,.34,7.57.34a90.83,90.83,0,0,0,0-181.65Z"/><path class="cls-4" d="M331.11,317.88c2.55,0,5.07-.13,7.56-.33a90.8,90.8,0,0,1,0-181c-2.49-.21-5-.34-7.56-.34a90.82,90.82,0,1,0,0,181.64Z"/><path class="cls-5" d="M322.9,278.65l-51.15-48.49,17.65-18.62,34.1,32.32,55.21-49,17,19.21Z"/><path class="cls-3" d="M322.9,282.43a3.79,3.79,0,0,1-2.6-1L269.15,232.9a3.78,3.78,0,0,1-.15-5.34l17.66-18.62a3.77,3.77,0,0,1,5.34-.14l31.58,29.93L376.2,192a3.75,3.75,0,0,1,2.73-.95,3.82,3.82,0,0,1,2.61,1.27l17,19.22a3.79,3.79,0,0,1-.33,5.34l-72.81,64.59a3.78,3.78,0,0,1-2.51.95ZM277.1,230,323,273.51l67.39-59.78-12-13.54L326,246.69a3.78,3.78,0,0,1-5.11-.08l-31.35-29.72Z"/><path class="cls-3" d="M331.11,321.67a94.61,94.61,0,1,1,94.6-94.61,94.71,94.71,0,0,1-94.6,94.61Zm0-181.65a87,87,0,1,0,87,87A87.14,87.14,0,0,0,331.11,140Z"/><path class="cls-1" d="M343,20c178.39,0,323,144.61,323,323S521.38,666,343,666,20,521.38,20,343,164.61,20,343,20m0-20A343.08,343.08,0,0,0,209.48,659,343.08,343.08,0,0,0,476.51,27,340.89,340.89,0,0,0,343,0Z"/></g></g></svg>