<svg xmlns="http://www.w3.org/2000/svg" viewBox="0 0 685.99 685.99"><defs><style>.cls-1{fill:#4dbdeb;}.cls-2{fill:#0075a8;}.cls-3{fill:#ffd262;}.cls-4{fill:#fff;}.cls-5{fill:#00405c;}</style></defs><g id="Layer_2" data-name="Layer 2"><g id="Layer_1-2" data-name="Layer 1"><path class="cls-1" d="M550.55,473.35H116.33a16.69,16.69,0,0,1-16.69-16.69V189.31a16.68,16.68,0,0,1,16.69-16.68H550.55a16.68,16.68,0,0,1,16.69,16.68V456.67a16.68,16.68,0,0,1-16.69,16.68Z"/><path class="cls-2" d="M358.06,292.8a44.94,44.94,0,0,1,0,61.89,40.08,40.08,0,0,1-29.23,13.08,41.3,41.3,0,0,1-30-13.08,45.59,45.59,0,0,1,0-61.89,40.81,40.81,0,0,1,30-13.08A39.6,39.6,0,0,1,358.06,292.8Zm-1.59,30.94a31.66,31.66,0,0,0-8.32-21.4,26.39,26.39,0,0,0-39.13,0,31.1,31.1,0,0,0-8.32,21.4A30.55,30.55,0,0,0,309,345a26.13,26.13,0,0,0,39.13,0,31.09,31.09,0,0,0,8.32-21.28Z"/><path class="cls-3" d="M218,361.05V288.89a6.63,6.63,0,0,1,6.73-6.73h40a6.79,6.79,0,0,1,6.72,6.73,6.89,6.89,0,0,1-6.72,6.85H231.6v22.38h28.5a6.79,6.79,0,0,1,0,13.57H231.6v22.5h33.15a6.79,6.79,0,0,1,0,13.58H225.12c-.24,0-.24-.12-.24-.12l-.13.12a6.7,6.7,0,0,1-6.72-6.72Z"/><path class="cls-2" d="M133.77,346.49a6.36,6.36,0,0,1,8.92-.85c5.38,4.4,14.68,9.53,23.36,9.41a26.36,26.36,0,0,0,15.29-4.52c3.67-2.69,5.26-5.75,5.26-8.81a7,7,0,0,0-1.1-3.91,11.45,11.45,0,0,0-3.67-3.67c-3.55-2.33-9.54-4.4-16.76-5.75h-.24a66.25,66.25,0,0,1-15.78-4.77,26.27,26.27,0,0,1-11.37-9.54,18.72,18.72,0,0,1-2.82-10c0-7.33,4.16-13.7,9.79-17.85a36.16,36.16,0,0,1,21.16-6.49c11.74,0,20.42,5.75,26.66,9.79a6.29,6.29,0,0,1,1.71,8.68A6.18,6.18,0,0,1,185.5,300c-6.24-4.16-12.23-7.83-19.69-7.83a23.32,23.32,0,0,0-13.7,4.16c-3.31,2.44-4.65,5.13-4.65,7.7a6,6,0,0,0,.86,3.43,11.71,11.71,0,0,0,3.3,3.18c3.18,2.2,8.68,4.16,15.28,5.38h.25A72.09,72.09,0,0,1,184,321.17c5,2.45,9.41,5.63,12.23,10.16a19.84,19.84,0,0,1,2.93,10.39c0,7.83-4.4,14.55-10.52,19a38.25,38.25,0,0,1-22.62,7c-13.21-.12-24.34-6.73-31.31-12.23a6.51,6.51,0,0,1-1-8.93Z"/><path class="cls-1" d="M550.55,172.63H531.7a16.68,16.68,0,0,1,16.68,16.68V456.66a16.68,16.68,0,0,1-16.68,16.69h18.85a16.69,16.69,0,0,0,16.69-16.69V189.31a16.68,16.68,0,0,0-16.69-16.68Z"/><path class="cls-4" d="M116.33,473.35h18.85a16.68,16.68,0,0,1-16.68-16.69V189.31a16.68,16.68,0,0,1,16.68-16.68H116.33a16.68,16.68,0,0,0-16.69,16.68V456.67a16.68,16.68,0,0,0,16.69,16.68Z"/><path class="cls-2" d="M486,535.31H180.9V513a16.69,16.69,0,0,1,16.69-16.69h271.7A16.69,16.69,0,0,1,486,513v22.35Z"/><path class="cls-2" d="M469.29,496.27H450.43A16.69,16.69,0,0,1,467.12,513v22.35H486V513A16.7,16.7,0,0,0,469.29,496.27Z"/><path class="cls-2" d="M197.59,496.27h18.85A16.68,16.68,0,0,0,199.76,513v22.35H180.9V513A16.69,16.69,0,0,1,197.59,496.27Z"/><path class="cls-2" d="M243.89,473.35H423v22.92H243.89Z"/><path class="cls-5" d="M114.73,243.39a3.93,3.93,0,0,1-3.93-3.92V215.91a3.93,3.93,0,0,1,7.85,0v23.56A3.93,3.93,0,0,1,114.73,243.39Z"/><path class="cls-5" d="M486,539.23H180.9a3.93,3.93,0,0,1-3.92-3.92V513a20.63,20.63,0,0,1,20.61-20.62h271.7A20.64,20.64,0,0,1,489.9,513v22.35A3.93,3.93,0,0,1,486,539.23Zm-301.14-7.85H482.05V513a12.78,12.78,0,0,0-12.76-12.77H197.59A12.78,12.78,0,0,0,184.83,513Z"/><path class="cls-5" d="M423,500.19H243.89a3.92,3.92,0,0,1-3.93-3.92V473.35a3.92,3.92,0,0,1,3.93-3.92H423a3.92,3.92,0,0,1,3.93,3.92v22.92A3.92,3.92,0,0,1,423,500.19Zm-175.18-7.85H419.07V477.28H247.81Z"/><path class="cls-5" d="M550.55,477.28H116.33a20.63,20.63,0,0,1-20.61-20.62V189.31a20.63,20.63,0,0,1,20.61-20.61H550.55a20.64,20.64,0,0,1,20.61,20.61V456.66A20.64,20.64,0,0,1,550.55,477.28ZM116.33,176.55a12.78,12.78,0,0,0-12.76,12.76V456.66a12.77,12.77,0,0,0,12.76,12.76H550.55a12.78,12.78,0,0,0,12.76-12.76V189.31a12.78,12.78,0,0,0-12.76-12.76Z"/><path class="cls-2" d="M486,585.78a30.71,30.71,0,0,1-30.55-33.9l14.74-141.65h31.63l14.74,141.65A30.72,30.72,0,0,1,486,585.78Z"/><path class="cls-2" d="M516.53,551.88,501.79,410.23h-9.5L507,551.88a30.73,30.73,0,0,1-25.81,33.53,30.71,30.71,0,0,0,35.3-33.53Z"/><path class="cls-2" d="M455.42,551.88l14.74-141.65h9.49L464.91,551.88a30.72,30.72,0,0,0,25.81,33.53,30.71,30.71,0,0,1-35.3-33.53Z"/><path class="cls-5" d="M486,589.71a34.64,34.64,0,0,1-34.45-38.24l14.74-141.65a3.92,3.92,0,0,1,3.9-3.52h31.63a3.92,3.92,0,0,1,3.9,3.52l14.74,141.65A34.64,34.64,0,0,1,486,589.71ZM473.7,414.15,459.32,552.29a26.79,26.79,0,1,0,53.3,0L498.25,414.15Z"/><circle class="cls-3" cx="485.89" cy="322.99" r="100.41"/><path class="cls-3" d="M483.64,423c1.73.14,3.47.23,5.23.29a100.39,100.39,0,0,0,0-200.69q-2.62.09-5.22.3a100.39,100.39,0,0,1,0,200.1Z"/><path class="cls-3" d="M488.31,222.94c-1.73-.14-3.48-.23-5.23-.3a100.39,100.39,0,0,0,0,200.7c1.75-.07,3.5-.16,5.22-.3a100.39,100.39,0,0,1,0-200.1Z"/><path class="cls-5" d="M486,427.28a104.29,104.29,0,1,1,73.78-30.51A104,104,0,0,1,486,427.28Zm0-200.74a96.45,96.45,0,1,0,68.22,28.22A96.2,96.2,0,0,0,486,226.54Z"/><circle class="cls-1" cx="485.97" cy="322.99" r="74.08"/><path class="cls-5" d="M486,401a78,78,0,1,1,55.17-22.81A77.77,77.77,0,0,1,486,401Zm0-148.1a70.13,70.13,0,1,0,49.62,20.52A69.95,69.95,0,0,0,486,252.86Z"/><path class="cls-5" d="M166.05,371.57c-14.37-.13-26.28-7.18-33.74-13.07a10.46,10.46,0,0,1-1.65-14.41l.07-.08a10.13,10.13,0,0,1,7-3.69,10.27,10.27,0,0,1,7.5,2.28c4.84,4,13.09,8.53,20.56,8.53H166c5,0,9.81-1.41,13-3.77,2.42-1.77,3.65-3.67,3.65-5.64a3.11,3.11,0,0,0-.53-1.89,7.52,7.52,0,0,0-2.49-2.42c-3.06-2-8.5-3.86-15-5.09a4.07,4.07,0,0,1-.61-.07,69.68,69.68,0,0,1-16.72-5.08,30.16,30.16,0,0,1-13-11,22.88,22.88,0,0,1-3.41-12.12c0-8,4.15-15.67,11.38-21a40.17,40.17,0,0,1,23.49-7.26c12.71,0,22.21,6.15,28.49,10.22l.3.2a10.36,10.36,0,0,1,4.36,6.53,10.34,10.34,0,0,1-7.87,12,10,10,0,0,1-7.77-1.48c-6.09-4.06-11.25-7.17-17.51-7.17a19.37,19.37,0,0,0-11.36,3.39c-1.4,1-3.06,2.66-3.06,4.55,0,.92.13,1.14.26,1.34a7.75,7.75,0,0,0,2.21,2c2.66,1.85,7.66,3.59,13.43,4.69a4.2,4.2,0,0,1,.62.07,74.78,74.78,0,0,1,17.8,5.44c6.44,3.14,11,6.94,13.88,11.63a23.77,23.77,0,0,1,3.53,12.47c0,8.51-4.43,16.58-12.15,22.14a42.31,42.31,0,0,1-24.92,7.7Zm-29.21-22.63a2.59,2.59,0,0,0,.39,3.44c6.45,5.09,16.74,11.23,28.86,11.34a34.34,34.34,0,0,0,20.26-6.21c5.68-4.08,8.92-9.83,8.92-15.79a15.89,15.89,0,0,0-2.34-8.32c-2.11-3.4-5.59-6.24-10.62-8.7A67.39,67.39,0,0,0,166.75,320a5.32,5.32,0,0,1-.56-.06c-7.14-1.33-13.11-3.46-16.8-6a15.25,15.25,0,0,1-4.4-4.33,9.82,9.82,0,0,1-1.45-5.5c0-2.85,1.08-7,6.24-10.86a27.39,27.39,0,0,1,16-4.93c8.44,0,15.16,4,21.87,8.49a2.29,2.29,0,0,0,1.76.34,2.23,2.23,0,0,0,1.42-1,2.31,2.31,0,0,0,.41-1.8,2.59,2.59,0,0,0-1-1.58l-.2-.12c-5.83-3.78-13.83-9-24.22-9A32.33,32.33,0,0,0,147,289.38c-5.17,3.82-8.16,9.18-8.16,14.67A14.76,14.76,0,0,0,141,312a22.47,22.47,0,0,0,9.73,8.07,61.25,61.25,0,0,0,14.48,4.4,3.68,3.68,0,0,1,.58.06c7.69,1.44,14.15,3.68,18.19,6.32a15.59,15.59,0,0,1,4.88,4.94,10.91,10.91,0,0,1,1.66,5.93c0,3.16-1.19,7.81-6.86,12-4.66,3.42-11.28,5.28-18,5.29-9.48,0-19.36-5.3-25.49-10.31a2.48,2.48,0,0,0-1.79-.53,2.32,2.32,0,0,0-1.58.8Z"/><path class="cls-5" d="M264.75,371.7h-40a10.67,10.67,0,0,1-10.66-10.65V288.89a10.55,10.55,0,0,1,10.66-10.66h40a10.67,10.67,0,0,1,10.65,10.66,10.85,10.85,0,0,1-10.65,10.77H235.53v14.53H260.1a10.72,10.72,0,0,1,0,21.43H235.53v14.65h29.22a10.72,10.72,0,0,1,0,21.43Zm-35.95-4.06Zm-3-3.72a3.16,3.16,0,0,1,.52.17,3.88,3.88,0,0,1,2.47,3.54A3.81,3.81,0,0,0,225.81,363.92Zm-.34-.07h39.28a3,3,0,0,0,2.8-2.8,3,3,0,0,0-2.8-2.93H231.6a3.93,3.93,0,0,1-3.92-3.92V331.69a3.93,3.93,0,0,1,3.92-3.92h28.5a2.9,2.9,0,0,0,2.8-2.93,3,3,0,0,0-2.8-2.8H231.6a3.93,3.93,0,0,1-3.92-3.92V295.74a3.93,3.93,0,0,1,3.92-3.93h33.15a3,3,0,0,0,2.8-2.92,2.88,2.88,0,0,0-2.8-2.8H224.88a2.75,2.75,0,0,0-2.93,2.8v72.16a2.78,2.78,0,0,0,2.47,2.78,3.37,3.37,0,0,1,1.05,0Z"/><path class="cls-5" d="M328.83,371.7A45.24,45.24,0,0,1,296,357.37a48.42,48.42,0,0,1-13.17-33.63A48.91,48.91,0,0,1,296,290.11a44.85,44.85,0,0,1,32.83-14.32A43.76,43.76,0,0,1,361,290.15a48.87,48.87,0,0,1-.05,67.25,44.13,44.13,0,0,1-32.07,14.3Zm0-88.06a36.94,36.94,0,0,0-27.08,11.83A41.66,41.66,0,0,0,301.7,352a37.4,37.4,0,0,0,27.13,11.87,36.18,36.18,0,0,0,26.32-11.8,41,41,0,0,0,0-56.56l-.06-.07a35.77,35.77,0,0,0-26.3-11.78Zm0,74.12a30.79,30.79,0,0,1-22.68-10.06,34.44,34.44,0,0,1-9.38-24,35.12,35.12,0,0,1,9.41-24.11,30.3,30.3,0,0,1,44.84,0,35.62,35.62,0,0,1,9.37,24.08,34.94,34.94,0,0,1-9.4,24,30.23,30.23,0,0,1-22.16,10Zm0-60.18A22.7,22.7,0,0,0,311.89,305a27.23,27.23,0,0,0-7.26,18.73,26.61,26.61,0,0,0,7.19,18.53,22.83,22.83,0,0,0,17,7.63,22.54,22.54,0,0,0,16.45-7.56,27.07,27.07,0,0,0,7.26-18.6A27.68,27.68,0,0,0,345.28,305a22.42,22.42,0,0,0-16.45-7.44Z"/><path class="cls-3" d="M541.8,332.43v-18.7H531.45a46,46,0,0,0-6.72-16.18l7.33-7.33L518.83,277l-7.32,7.32a46.4,46.4,0,0,0-16.19-6.72V267.26h-18.7V277.6a46.35,46.35,0,0,0-16.18,6.72L453.11,277l-13.22,13.22,7.32,7.33a46.14,46.14,0,0,0-6.71,16.18H430.15v18.7H440.5a46.19,46.19,0,0,0,6.71,16.19l-7.32,7.32,13.22,13.23,7.33-7.33a46.05,46.05,0,0,0,16.18,6.72v10.35h18.7V368.56a46,46,0,0,0,16.19-6.72l7.33,7.33,13.22-13.23-7.33-7.32a46,46,0,0,0,6.72-16.19ZM486,351.07a28,28,0,1,1,28-28A28,28,0,0,1,486,351.07Z"/><path class="cls-5" d="M495.33,382.83h-18.7a3.93,3.93,0,0,1-3.93-3.92v-7.25A49.64,49.64,0,0,1,461,366.81l-5.14,5.13a3.91,3.91,0,0,1-5.55,0l-13.22-13.22a3.91,3.91,0,0,1,0-5.55l5.13-5.14a50.06,50.06,0,0,1-4.85-11.67h-7.25a3.93,3.93,0,0,1-3.93-3.93v-18.7a3.93,3.93,0,0,1,3.93-3.92h7.25a49.88,49.88,0,0,1,4.85-11.68L437.12,293a3.91,3.91,0,0,1,0-5.55l13.22-13.22a3.93,3.93,0,0,1,5.55,0l5.14,5.14a49.22,49.22,0,0,1,11.67-4.85v-7.25a3.93,3.93,0,0,1,3.93-3.93h18.7a3.93,3.93,0,0,1,3.92,3.93v7.25a49.46,49.46,0,0,1,11.68,4.85l5.13-5.14a3.93,3.93,0,0,1,5.55,0l13.22,13.22a3.91,3.91,0,0,1,0,5.55l-5.13,5.14a49.88,49.88,0,0,1,4.85,11.68h7.25a3.93,3.93,0,0,1,3.93,3.92v18.7a3.93,3.93,0,0,1-3.93,3.93h-7.25A49.64,49.64,0,0,1,529.7,348l5.13,5.14a3.91,3.91,0,0,1,0,5.55l-13.22,13.22a3.91,3.91,0,0,1-5.55,0l-5.13-5.13a50.31,50.31,0,0,1-11.68,4.85v7.25A3.92,3.92,0,0,1,495.33,382.83ZM480.55,375H491.4v-6.42a3.93,3.93,0,0,1,3.14-3.85,42.11,42.11,0,0,0,14.81-6.14,3.92,3.92,0,0,1,4.94.5l4.55,4.55,7.67-7.67L522,351.39a3.91,3.91,0,0,1-.5-4.93,42.32,42.32,0,0,0,6.15-14.81,3.92,3.92,0,0,1,3.84-3.14h6.43V317.66h-6.43a3.94,3.94,0,0,1-3.85-3.14,42,42,0,0,0-6.14-14.81,3.92,3.92,0,0,1,.5-4.94l4.55-4.55-7.67-7.67-4.55,4.55a3.92,3.92,0,0,1-4.94.5,42.06,42.06,0,0,0-14.81-6.15,3.92,3.92,0,0,1-3.14-3.84v-6.43H480.55v6.43a3.92,3.92,0,0,1-3.14,3.84,42.13,42.13,0,0,0-14.81,6.15,3.92,3.92,0,0,1-4.94-.5l-4.55-4.55-7.67,7.67,4.55,4.55a3.92,3.92,0,0,1,.5,4.94,42.06,42.06,0,0,0-6.15,14.81,3.92,3.92,0,0,1-3.84,3.14h-6.43v10.85h6.43a3.92,3.92,0,0,1,3.84,3.14,42.13,42.13,0,0,0,6.15,14.81,3.91,3.91,0,0,1-.5,4.93L445.44,356l7.67,7.67,4.55-4.55a3.92,3.92,0,0,1,4.94-.5,42,42,0,0,0,14.81,6.14,3.93,3.93,0,0,1,3.14,3.85ZM486,355a31.91,31.91,0,1,1,31.92-31.91A31.95,31.95,0,0,1,486,355Zm0-56A24.06,24.06,0,1,0,510,323.08,24.09,24.09,0,0,0,486,299Z"/><path class="cls-1" d="M343,20c178.39,0,323,144.61,323,323S521.38,666,343,666,20,521.38,20,343,164.61,20,343,20m0-20A343.08,343.08,0,0,0,209.48,659,343.08,343.08,0,0,0,476.51,27,340.89,340.89,0,0,0,343,0Z"/></g></g></svg>